<svg width="50" height="50" viewBox="0 0 50 50" fill="none" xmlns="http://www.w3.org/2000/svg">
<path fill-rule="evenodd" clip-rule="evenodd" d="M38.3845 20.6675L29.3351 11.6177C29.0597 11.3423 28.6131 11.3423 28.3376 11.6177L23.8127 16.1425C23.8029 16.1524 23.7941 16.1628 23.785 16.1731C23.7803 16.1784 23.7754 16.1833 23.7709 16.1886C23.7534 16.2094 23.7372 16.2311 23.7223 16.2536C23.7198 16.2575 23.7177 16.2617 23.7152 16.2656C23.7031 16.2848 23.6919 16.3046 23.6817 16.3249C23.6781 16.3321 23.6747 16.3394 23.6713 16.3467C23.6625 16.3659 23.6547 16.3853 23.6476 16.4051C23.6461 16.4096 23.6438 16.4137 23.6423 16.4183L21.9982 21.3508L7.49611 35.8528C6.75845 36.5906 6.75845 37.7911 7.49618 38.5287L11.4735 42.506C11.83 42.8625 12.3052 43.0588 12.8116 43.0588C13.3179 43.0588 13.7931 42.8625 14.1495 42.5061L22.5821 34.0735L23.8368 32.8188C23.8369 32.8187 23.837 32.8186 23.837 32.8186L28.6515 28.0041L33.5841 26.36C33.5878 26.3588 33.5913 26.3569 33.595 26.3556C33.6161 26.3482 33.6369 26.3397 33.6572 26.3303C33.663 26.3276 33.6689 26.3251 33.6746 26.3223C33.6987 26.3103 33.7223 26.2972 33.7452 26.2824C33.7456 26.2821 33.7462 26.2819 33.7466 26.2815C33.7694 26.2666 33.7914 26.25 33.8127 26.2321C33.819 26.2269 33.8248 26.2211 33.8309 26.2157C33.8406 26.2071 33.8504 26.199 33.8597 26.1897L38.3845 21.6649C38.5167 21.5327 38.5911 21.3532 38.5911 21.1662C38.591 20.9792 38.5168 20.7997 38.3845 20.6675L38.3845 20.6675ZM19.8747 34.7861C19.7071 34.9537 19.4825 35.046 19.2423 35.046C19.0021 35.046 18.7775 34.9537 18.6098 34.786C18.4421 34.6183 18.3497 34.3937 18.3497 34.1535C18.3497 33.9134 18.4421 33.6888 18.6099 33.521L20.0691 32.0619C20.1814 32.3387 20.3496 32.598 20.5738 32.8222C20.7944 33.0428 21.0526 33.2128 21.334 33.3269L19.8747 34.7861ZM22.8361 31.8247C22.6684 31.9924 22.4438 32.0847 22.2037 32.0847C21.9635 32.0847 21.7389 31.9924 21.5713 31.8247C21.2226 31.4761 21.2225 30.9089 21.5742 30.5568L21.5744 30.5564C21.7212 30.4097 21.9115 30.3206 22.1177 30.3007C22.1471 30.2978 22.1769 30.2964 22.2069 30.2964C22.237 30.2964 22.2667 30.2978 22.2962 30.3007C22.5023 30.3206 22.6926 30.4096 22.8394 30.5564C23.007 30.7241 23.0994 30.9487 23.0994 31.1889C23.0994 31.4291 23.0071 31.6537 22.8361 31.8247H22.8361ZM24.3416 30.3191C24.2275 30.0377 24.0576 29.7795 23.8369 29.5589C23.4028 29.1247 22.8239 28.8856 22.2069 28.8856C22.0667 28.8856 21.9286 28.8986 21.7935 28.9228C21.3345 29.0051 20.9124 29.2234 20.577 29.5589L17.6124 32.5235C17.1782 32.9576 16.9391 33.5365 16.9391 34.1535C16.9391 34.7705 17.1783 35.3495 17.6124 35.7835C17.8331 36.0041 18.0912 36.1741 18.3726 36.2882L13.152 41.5088C13.062 41.5988 12.9411 41.6483 12.8116 41.6483C12.682 41.6483 12.561 41.5988 12.471 41.5087L8.49377 37.5312C8.306 37.3435 8.306 37.0381 8.4937 36.8503L22.6148 22.7293L27.2731 27.3876L24.3416 30.3191ZM28.4611 26.5806L23.4218 21.5413L24.6197 17.9471L32.0554 25.3826L28.4611 26.5806ZM33.3612 24.6933L25.309 16.6412L28.8363 13.114L36.8884 21.1662L33.3612 24.6933Z" fill="white"/>
<path d="M39.2274 10.7727C38.952 10.4973 38.5053 10.4973 38.2299 10.7727L35.7164 13.2864C35.4409 13.5618 35.4409 14.0084 35.7164 14.2839C35.8541 14.4216 36.0346 14.4905 36.2151 14.4905C36.3956 14.4905 36.5762 14.4216 36.7139 14.2839L39.2274 11.7703C39.5029 11.4948 39.5029 11.0482 39.2274 10.7727Z" fill="white"/>
<path d="M32.6402 6.96737C32.2638 6.86643 31.8771 7.08982 31.7763 7.46613L30.8562 10.8999C30.7554 11.2762 30.9788 11.6629 31.3551 11.7637C31.4162 11.7802 31.4776 11.7879 31.538 11.7879C31.8494 11.7879 32.1345 11.5801 32.2189 11.2649L33.1389 7.83122C33.2398 7.45498 33.0164 7.06816 32.6402 6.96737Z" fill="white"/>
<path d="M43.0335 17.3612C42.9325 16.9848 42.5459 16.7614 42.1695 16.8624L38.7358 17.7824C38.3595 17.8833 38.1363 18.2701 38.2371 18.6464C38.3215 18.9615 38.6065 19.1693 38.918 19.1693C38.9784 19.1693 39.0398 19.1615 39.1009 19.1451L42.5347 18.2251C42.911 18.1243 43.1342 17.7375 43.0335 17.3612Z" fill="white"/>
<path d="M31.3367 17.5414L29.29 15.4947C29.0146 15.2192 28.5679 15.2192 28.2925 15.4947C28.0171 15.7701 28.0171 16.2167 28.2925 16.4922L30.3392 18.5389C30.477 18.6766 30.6575 18.7455 30.8379 18.7455C31.0185 18.7455 31.199 18.6766 31.3367 18.5389C31.6122 18.2635 31.6122 17.8168 31.3367 17.5414Z" fill="white"/>
<path d="M32.782 18.9847L32.7703 18.9729C32.4944 18.6979 32.0478 18.6985 31.7728 18.9744C31.4977 19.2503 31.4984 19.6968 31.7742 19.9719L31.7859 19.9837C31.9237 20.121 32.1038 20.1895 32.284 20.1895C32.4649 20.1895 32.6457 20.1204 32.7835 19.9822C33.0586 19.7063 33.0579 19.2598 32.782 18.9847L32.782 18.9847Z" fill="white"/>
</svg>
