<svg width="45" height="45" viewBox="0 0 45 45" fill="none" xmlns="http://www.w3.org/2000/svg">
<path d="M43.0059 22.0023C43.0059 33.6022 33.6025 43.0059 22.0029 43.0059C10.4036 43.0059 1 33.6027 1 22.0029C1 10.4031 10.4033 1 22.0029 1C33.6025 1 43.0059 10.4031 43.0059 22.0023Z" stroke="white" stroke-width="2"/>
<path fill-rule="evenodd" clip-rule="evenodd" d="M10.5842 28.7359C9.36206 28.0459 8.35408 27.0309 7.67186 25.8035C6.26823 23.182 6.26823 20.0326 7.67186 17.411C8.35658 16.1878 9.3643 15.1764 10.5842 14.4875C13.1943 13.0703 16.344 13.0703 18.9533 14.4875C20.178 15.1746 21.1894 16.186 21.8759 17.411C23.2793 20.0314 23.2793 23.1808 21.8759 25.8018C21.1917 27.0309 20.18 28.0459 18.9533 28.7341C16.344 30.152 13.1938 30.152 10.5842 28.7341M18.1361 27.4054C19.1251 26.8333 19.9406 26.0041 20.4965 25.0056C21.6413 22.8882 21.6413 20.3364 20.4965 18.219C19.9406 17.2211 19.1243 16.3919 18.1361 15.8192C16.041 14.6467 13.4868 14.6467 11.3917 15.8192C10.4027 16.3919 9.58723 17.2211 9.03106 18.219C7.88655 20.3364 7.88655 22.8882 9.03106 25.0056C9.58723 26.0035 10.4027 26.8327 11.3917 27.4054C13.4868 28.5773 16.0405 28.5773 18.1361 27.4054Z" fill="white"/>
<path fill-rule="evenodd" clip-rule="evenodd" d="M33.5662 19.0571C34.4204 19.5442 35.1278 20.2544 35.6101 21.1114C36.1108 21.996 36.3674 22.9975 36.356 24.0142C36.3694 25.0245 36.1198 26.0219 35.6306 26.9065C34.6725 28.6522 32.8288 29.7256 30.8378 29.6985C29.9941 29.7073 29.1613 29.5139 28.4075 29.134C27.6871 28.7725 27.063 28.2434 26.5882 27.5912V33.5804C26.6037 34.005 26.2717 34.3619 25.8468 34.3772H25.7914C25.5802 34.3854 25.3761 34.3035 25.2293 34.1519C25.084 33.9974 25.0071 33.791 25.0151 33.5792V29.0002C24.9986 28.94 24.9911 28.8781 24.9936 28.8162V24.0143C24.9822 22.9975 25.2388 21.996 25.7405 21.1114C26.2218 20.2544 26.9287 19.5442 27.7829 19.0571C29.5827 18.0616 31.7674 18.0616 33.5672 19.0571M32.7914 27.7139C33.4179 27.3523 33.9341 26.8256 34.2831 26.191C35.0055 24.8292 35.0055 23.1985 34.2831 21.8367C33.9331 21.2009 33.4179 20.6713 32.7914 20.3039C32.1503 19.9271 31.4179 19.7329 30.6751 19.7418C29.9342 19.7318 29.2058 19.9264 28.5692 20.3039C27.9472 20.6737 27.435 21.2027 27.0865 21.8367C26.721 22.5032 26.5338 23.2533 26.5453 24.0142C26.5423 24.1847 26.5493 24.3551 26.5658 24.525C26.5802 24.5568 26.5872 24.5922 26.5857 24.6269C26.6941 25.6349 27.1703 26.5668 27.9247 27.2438C28.6761 27.9232 29.6601 28.2888 30.6736 28.2652C31.4154 28.2747 32.1468 28.0843 32.7904 27.7139" fill="white"/>
<path d="M26.7954 16.3698C26.7944 17.4426 25.9248 18.3118 24.8525 18.3112C23.7798 18.3112 22.9111 17.4415 22.9111 16.3693C22.9111 15.2966 23.7813 14.4275 24.854 14.428C25.9253 14.428 26.7944 15.2971 26.7954 16.3693V16.3698" fill="white"/>
</svg>
