<svg width="162" height="49" viewBox="0 0 162 49" fill="none" xmlns="http://www.w3.org/2000/svg">
<path fill-rule="evenodd" clip-rule="evenodd" d="M60.7741 30.0056C59.847 29.4924 59.1259 28.78 58.6116 27.8689C58.096 26.9573 57.8389 25.9235 57.8389 24.7664C57.8389 23.5945 58.096 22.5527 58.6116 21.6417C59.1259 20.7306 59.847 20.0182 60.7741 19.5044C61.7007 18.9912 62.752 18.7344 63.9294 18.7344C65.0911 18.7344 66.132 18.9913 67.0516 19.5044C67.9706 20.0182 68.6916 20.7306 69.2141 21.6417C69.736 22.5527 69.9973 23.5945 69.9973 24.7664C69.9973 25.9235 69.7395 26.9573 69.2252 27.8689C68.7102 28.78 67.9926 29.4924 67.0737 30.0056C66.154 30.5193 65.1062 30.7762 63.9294 30.7762C62.752 30.7762 61.7007 30.5193 60.7741 30.0056H60.7741ZM65.9479 28.3028C66.5442 27.9557 67.0075 27.475 67.3384 26.8597C67.6693 26.2449 67.8347 25.5473 67.8347 24.7664C67.8347 23.9849 67.6693 23.2834 67.3384 22.6617C67.0075 22.0395 66.5442 21.5549 65.9479 21.2078C65.3523 20.8607 64.6795 20.6872 63.9294 20.6872C63.1793 20.6872 62.5059 20.8607 61.9102 21.2078C61.3146 21.5549 60.8473 22.0395 60.5088 22.6617C60.1703 23.2834 60.0014 23.985 60.0014 24.7664C60.0014 25.5473 60.1703 26.2449 60.5088 26.8597C60.8473 27.475 61.3146 27.9557 61.9102 28.3028C62.5058 28.6498 63.1793 28.8234 63.9294 28.8234C64.6795 28.8234 65.3523 28.6498 65.9479 28.3028Z" fill="white"/>
<path fill-rule="evenodd" clip-rule="evenodd" d="M81.416 19.5261C82.3501 20.0547 83.0822 20.7774 83.6117 21.6959C84.1417 22.6149 84.4064 23.6379 84.4064 24.7664C84.4064 25.8944 84.1597 26.9179 83.6668 27.8364C83.1739 28.7549 82.4976 29.4747 81.6372 29.9953C80.7763 30.5159 79.8166 30.7762 78.7571 30.7762C77.9043 30.7762 77.1096 30.6027 76.374 30.2556C75.6385 29.908 75.0132 29.4239 74.4988 28.8017V34.6596C74.4988 34.9924 74.3955 35.2596 74.1899 35.4628C73.9833 35.6649 73.7116 35.7665 73.3731 35.7665C73.0497 35.7665 72.781 35.6649 72.5679 35.4628C72.3543 35.2596 72.248 34.9924 72.248 34.6596V24.7664C72.248 23.6379 72.5162 22.6149 73.0533 21.6959C73.5903 20.7774 74.3183 20.0547 75.2379 19.5261C76.1569 18.9987 77.1833 18.7344 78.3159 18.7344C79.4486 18.7344 80.4819 18.9987 81.416 19.5261V19.5261ZM80.313 28.2919C80.9087 27.9374 81.3795 27.4528 81.7249 26.838C82.0709 26.2238 82.2439 25.5331 82.2439 24.7664C82.2439 23.9998 82.0709 23.3056 81.7249 22.6829C81.3795 22.0618 80.9087 21.5732 80.313 21.2187C79.7174 20.8642 79.0515 20.6872 78.3159 20.6872C77.5804 20.6872 76.9151 20.8642 76.3188 21.2187C75.7232 21.5732 75.2558 22.0618 74.918 22.6829C74.5789 23.3056 74.4106 23.9998 74.4106 24.7664C74.4106 25.5331 74.5789 26.2238 74.918 26.838C75.2558 27.4528 75.7232 27.9374 76.3188 28.2919C76.9151 28.6464 77.5804 28.8234 78.3159 28.8234C79.0515 28.8234 79.7174 28.6464 80.313 28.2919Z" fill="white"/>
<path fill-rule="evenodd" clip-rule="evenodd" d="M97.2042 25.2545C97.0126 25.4354 96.7699 25.5256 96.4762 25.5256H88.0908C88.2527 26.5383 88.72 27.3557 89.4922 27.9774C90.2643 28.5996 91.2094 28.9101 92.3276 28.9101C92.7688 28.9101 93.2286 28.8308 93.7069 28.6715C94.1847 28.5123 94.5783 28.317 94.8872 28.0859C95.0933 27.9266 95.336 27.8472 95.6152 27.8472C95.8944 27.8472 96.115 27.9197 96.2776 28.0642C96.5423 28.2811 96.6747 28.5271 96.6747 28.8017C96.6747 29.062 96.5563 29.2789 96.3217 29.4524C95.8213 29.8435 95.1995 30.1614 94.457 30.4075C93.7139 30.6535 93.0039 30.7762 92.3275 30.7762C91.1212 30.7762 90.0396 30.5193 89.084 30.0056C88.1273 29.4924 87.3807 28.78 86.8443 27.8689C86.3073 26.9573 86.0391 25.9235 86.0391 24.7664C86.0391 23.6093 86.2927 22.5715 86.8002 21.6525C87.3076 20.734 88.0135 20.0182 88.9186 19.5044C89.8231 18.9912 90.8489 18.7344 91.9967 18.7344C93.1293 18.7344 94.1075 18.9804 94.9313 19.4719C95.7551 19.964 96.3879 20.6512 96.8291 21.5332C97.2703 22.4157 97.4909 23.4284 97.4909 24.5706C97.4909 24.8458 97.3951 25.0735 97.2042 25.2545L97.2042 25.2545ZM89.3819 21.4681C88.7119 22.0469 88.2898 22.821 88.1128 23.7897H95.4608C95.3284 22.821 94.9609 22.0469 94.3577 21.4681C93.7545 20.8898 92.9673 20.6004 91.9967 20.6004C90.9226 20.6004 90.0512 20.8898 89.3819 21.4681Z" fill="white"/>
<path d="M107.994 19.3631C108.803 19.797 109.436 20.43 109.892 21.2618C110.348 22.094 110.576 23.0953 110.576 24.2666V29.604C110.576 29.9225 110.469 30.1868 110.256 30.3963C110.042 30.6058 109.774 30.7108 109.451 30.7108C109.127 30.7108 108.858 30.6058 108.645 30.3963C108.432 30.1868 108.325 29.9225 108.325 29.604V24.2666C108.325 23.0953 108.005 22.2093 107.366 21.6088C106.726 21.0089 105.876 20.7086 104.817 20.7086C104.199 20.7086 103.636 20.8313 103.129 21.0774C102.621 21.3234 102.224 21.6562 101.937 22.0752C101.65 22.4953 101.507 22.9651 101.507 23.4858V29.604C101.507 29.9225 101.404 30.1868 101.198 30.3963C100.992 30.6058 100.72 30.7109 100.382 30.7109C100.058 30.7109 99.7894 30.6058 99.5763 30.3963C99.3627 30.1868 99.2559 29.9225 99.2559 29.604V19.9277C99.2559 19.5949 99.3627 19.3272 99.5763 19.1245C99.7894 18.9225 100.058 18.8209 100.382 18.8209C100.72 18.8209 100.992 18.9225 101.198 19.1245C101.404 19.3272 101.507 19.5949 101.507 19.9277V20.1658C101.977 19.7034 102.537 19.3455 103.184 19.092C103.831 18.8391 104.523 18.7124 105.258 18.7124C106.273 18.7124 107.185 18.9293 107.994 19.3631H107.994Z" fill="white"/>
<path fill-rule="evenodd" clip-rule="evenodd" d="M123.175 19.5041C124.109 20.0327 124.845 20.7594 125.382 21.6847C125.919 22.6107 126.188 23.6376 126.188 24.7661C126.188 25.8941 125.926 26.9176 125.404 27.8361C124.882 28.7546 124.168 29.4778 123.263 30.0053C122.359 30.5339 121.347 30.7976 120.229 30.7976C119.273 30.7976 118.398 30.599 117.604 30.2011C116.809 29.8032 116.155 29.2569 115.64 28.5628V34.9202C115.64 35.1657 115.559 35.3683 115.397 35.5276C115.235 35.6863 115.03 35.7662 114.779 35.7662C114.529 35.7662 114.327 35.6863 114.173 35.5276C114.018 35.3683 113.941 35.1657 113.941 34.9202V30.0601C113.926 30.0167 113.919 29.9511 113.919 29.8649V24.7661C113.919 23.6376 114.187 22.6107 114.724 21.6847C115.261 20.7594 115.996 20.0327 116.931 19.5041C117.865 18.9761 118.905 18.7124 120.053 18.7124C121.201 18.7124 122.241 18.9761 123.175 19.5041H123.175ZM122.337 28.6929C123.021 28.3025 123.558 27.7636 123.948 27.0763C124.337 26.3896 124.533 25.6195 124.533 24.7661C124.533 23.9127 124.337 23.1421 123.948 22.4554C123.558 21.7681 123.021 21.2258 122.337 20.8279C121.653 20.43 120.891 20.2314 120.053 20.2314C119.215 20.2314 118.456 20.43 117.78 20.8279C117.103 21.2258 116.57 21.7681 116.18 22.4554C115.791 23.1421 115.596 23.9127 115.596 24.7661C115.596 25.0122 115.603 25.1926 115.618 25.3084C115.632 25.3375 115.64 25.3735 115.64 25.4163C115.787 26.5449 116.269 27.4708 117.085 28.194C117.902 28.9173 118.891 29.2786 120.053 29.2786C120.891 29.2786 121.653 29.0834 122.337 28.6929H122.337Z" fill="white"/>
<path fill-rule="evenodd" clip-rule="evenodd" d="M137.033 19.5041C137.967 20.0327 138.702 20.7594 139.24 21.6848C139.776 22.6107 140.045 23.6376 140.045 24.7661V29.8649C140.045 30.0961 139.964 30.2913 139.802 30.4506C139.64 30.6098 139.434 30.6892 139.184 30.6892C138.934 30.6892 138.728 30.6132 138.566 30.4614C138.404 30.309 138.324 30.1109 138.324 29.8649V28.5628C137.809 29.2569 137.154 29.8032 136.36 30.2011C135.566 30.599 134.69 30.7976 133.734 30.7976C132.616 30.7976 131.604 30.5339 130.7 30.0053C129.795 29.4778 129.081 28.7546 128.559 27.8361C128.037 26.9176 127.776 25.8941 127.776 24.7661C127.776 23.6376 128.045 22.6107 128.582 21.6847C129.119 20.7594 129.854 20.0327 130.788 19.5041C131.722 18.9761 132.763 18.7124 133.91 18.7124C135.058 18.7124 136.099 18.9761 137.033 19.5041L137.033 19.5041ZM136.183 28.6929C136.86 28.3025 137.393 27.7636 137.783 27.0763C138.173 26.3896 138.368 25.6196 138.368 24.7661C138.368 23.9127 138.173 23.1421 137.783 22.4554C137.393 21.7681 136.86 21.2258 136.183 20.8279C135.506 20.43 134.749 20.2314 133.91 20.2314C133.072 20.2314 132.311 20.43 131.627 20.8279C130.943 21.2258 130.406 21.7681 130.016 22.4554C129.626 23.1421 129.431 23.9127 129.431 24.7661C129.431 25.6196 129.626 26.3896 130.016 27.0763C130.406 27.7636 130.943 28.3025 131.627 28.6929C132.311 29.0834 133.072 29.2786 133.91 29.2786C134.749 29.2786 135.506 29.0834 136.183 28.6929H136.183Z" fill="white"/>
<path d="M143.84 30.3415C143.001 30.0378 142.324 29.6114 141.809 29.0617C141.662 28.8882 141.589 28.7221 141.589 28.5628C141.589 28.3168 141.706 28.0999 141.942 27.9115C142.118 27.7819 142.302 27.7168 142.493 27.7168C142.744 27.7168 142.957 27.8179 143.134 28.0205C143.487 28.4252 143.953 28.7363 144.535 28.9533C145.116 29.1702 145.76 29.2786 146.465 29.2786C147.495 29.2786 148.267 29.1051 148.782 28.758C149.297 28.411 149.562 27.9554 149.577 27.3909C149.577 26.8703 149.319 26.4364 148.805 26.0894C148.29 25.7423 147.473 25.482 146.355 25.3084C144.913 25.0772 143.836 24.676 143.123 24.104C142.409 23.5326 142.052 22.8424 142.052 22.0318C142.052 20.9764 142.468 20.1589 143.299 19.5801C144.13 19.0018 145.171 18.7124 146.421 18.7124C147.392 18.7124 148.238 18.8751 148.959 19.2005C149.679 19.5258 150.261 19.9779 150.702 20.5562C150.82 20.7446 150.879 20.9113 150.879 21.0557C150.879 21.3017 150.761 21.4969 150.525 21.6414C150.423 21.7139 150.283 21.7498 150.106 21.7498C149.797 21.7498 149.539 21.6414 149.334 21.4244C148.613 20.6144 147.627 20.2097 146.377 20.2097C145.568 20.2097 144.921 20.3718 144.435 20.6978C143.95 21.0231 143.707 21.4319 143.707 21.9234C143.707 22.4439 143.935 22.8601 144.391 23.1712C144.847 23.4823 145.656 23.7318 146.818 23.9196C148.392 24.1799 149.518 24.6029 150.194 25.1891C150.871 25.7748 151.21 26.5015 151.21 27.3691C151.21 28.0347 151.007 28.6279 150.603 29.1485C150.198 29.6691 149.635 30.0744 148.915 30.3638C148.194 30.6532 147.377 30.7976 146.466 30.7976C145.553 30.7976 144.678 30.6458 143.84 30.3415L143.84 30.3415Z" fill="white"/>
<path d="M154.63 30.3415C153.791 30.0378 153.114 29.6114 152.6 29.0617C152.453 28.8882 152.379 28.7221 152.379 28.5628C152.379 28.3168 152.497 28.0999 152.732 27.9115C152.909 27.7819 153.092 27.7168 153.284 27.7168C153.534 27.7168 153.747 27.8179 153.924 28.0205C154.277 28.4252 154.744 28.7363 155.325 28.9533C155.906 29.1702 156.55 29.2786 157.256 29.2786C158.285 29.2786 159.058 29.1051 159.572 28.758C160.087 28.411 160.352 27.9554 160.367 27.3909C160.367 26.8703 160.109 26.4364 159.595 26.0894C159.08 25.7423 158.263 25.482 157.145 25.3084C155.704 25.0772 154.626 24.676 153.913 24.104C153.199 23.5326 152.843 22.8424 152.843 22.0318C152.843 20.9764 153.258 20.1589 154.089 19.5801C154.921 19.0018 155.961 18.7124 157.212 18.7124C158.183 18.7124 159.028 18.8751 159.75 19.2005C160.47 19.5258 161.051 19.9779 161.492 20.5562C161.61 20.7446 161.669 20.9113 161.669 21.0557C161.669 21.3017 161.551 21.4969 161.316 21.6414C161.213 21.7139 161.073 21.7498 160.897 21.7498C160.588 21.7498 160.33 21.6414 160.125 21.4244C159.404 20.6144 158.418 20.2097 157.167 20.2097C156.359 20.2097 155.711 20.3718 155.226 20.6978C154.741 21.0231 154.498 21.4319 154.498 21.9234C154.498 22.4439 154.725 22.8601 155.182 23.1712C155.638 23.4823 156.447 23.7318 157.609 23.9196C159.183 24.1799 160.308 24.6029 160.985 25.1891C161.661 25.7748 162 26.5015 162 27.3691C162 28.0347 161.798 28.6279 161.393 29.1485C160.988 29.6691 160.426 30.0744 159.705 30.3638C158.984 30.6532 158.168 30.7976 157.256 30.7976C156.343 30.7976 155.469 30.6458 154.63 30.3415L154.63 30.3415Z" fill="white"/>
<ellipse cx="24.8827" cy="24.5" rx="22.8827" ry="22.5" stroke="white" stroke-width="2.16375"/>
<path fill-rule="evenodd" clip-rule="evenodd" d="M12.7664 30.7353C11.5049 30.0269 10.5174 29.049 9.80392 27.8023C9.0904 26.555 8.7334 25.1553 8.7334 23.6015C8.7334 22.0482 9.0904 20.6514 9.80392 19.411C10.5174 18.1711 11.5049 17.1967 12.7664 16.4883C14.0274 15.7799 15.448 15.4248 17.0283 15.4248C18.594 15.4248 20.0111 15.7799 21.2796 16.4883C22.5475 17.1967 23.5379 18.1711 24.252 19.411C24.9655 20.6514 25.3225 22.0482 25.3225 23.6015C25.3225 25.1553 24.9655 26.555 24.252 27.8023C23.5379 29.049 22.5475 30.0269 21.2796 30.7353C20.0111 31.4443 18.594 31.7982 17.0283 31.7982C15.448 31.7982 14.0274 31.4443 12.7664 30.7353ZM20.4477 29.4069C21.4665 28.8207 22.2671 28.0204 22.8488 27.0048C23.4311 25.9899 23.722 24.8556 23.722 23.6015C23.722 22.3616 23.4311 21.2337 22.8488 20.2187C22.2671 19.2038 21.4665 18.4029 20.4477 17.8166C19.4294 17.2309 18.2893 16.9375 17.0283 16.9375C15.7528 16.9375 14.6062 17.2309 13.5879 17.8166C12.5691 18.4029 11.7685 19.2038 11.1868 20.2187C10.6045 21.2337 10.3136 22.3616 10.3136 23.6015C10.3136 24.8556 10.6045 25.9899 11.1868 27.0048C11.7685 28.0204 12.5691 28.8207 13.5879 29.4069C14.6062 29.9926 15.7528 30.286 17.0283 30.286C18.2893 30.286 19.4294 29.9926 20.4477 29.4069Z" fill="white"/>
<path fill-rule="evenodd" clip-rule="evenodd" d="M36.1429 21.0566C37.023 21.5538 37.7156 22.2388 38.2218 23.1111C38.7275 23.9833 38.9806 24.9503 38.9806 26.0132C38.9806 27.0767 38.7345 28.0409 38.2427 28.9062C37.7504 29.7716 37.0788 30.4527 36.226 30.9499C35.3737 31.4476 34.421 31.6959 33.3679 31.6959C32.4663 31.6959 31.6425 31.5087 30.8942 31.1342C30.1452 30.7592 29.5287 30.2449 29.0439 29.5907V35.5799C29.0439 35.8111 28.9673 36.0018 28.8153 36.1525C28.6625 36.302 28.4686 36.3768 28.233 36.3768C27.9972 36.3768 27.8068 36.302 27.6611 36.1525C27.5159 36.0018 27.4428 35.8111 27.4428 35.5799V31.0012C27.4289 30.9601 27.4219 30.899 27.4219 30.8168V26.0132C27.4219 24.9503 27.675 23.9833 28.1807 23.1111C28.6863 22.2388 29.3795 21.5538 30.2596 21.0566C31.1397 20.5594 32.1203 20.3105 33.2012 20.3105C34.2822 20.3105 35.2628 20.5594 36.1429 21.0566V21.0566ZM35.3533 29.7134C35.9972 29.3452 36.5034 28.8377 36.8709 28.1904C37.2378 27.5431 37.4213 26.8175 37.4213 26.0132C37.4213 25.2095 37.2378 24.484 36.8709 23.8366C36.5034 23.1893 35.9972 22.6784 35.3533 22.3034C34.7084 21.9289 33.9914 21.7411 33.2012 21.7411C32.4111 21.7411 31.6976 21.9289 31.0602 22.3034C30.4228 22.6784 29.92 23.1893 29.5531 23.8366C29.1856 24.484 29.0022 25.2095 29.0022 26.0132C29.0022 26.2455 29.0092 26.4157 29.0231 26.5247C29.0364 26.5521 29.0439 26.5858 29.0439 26.6269C29.1821 27.6898 29.6361 28.562 30.4054 29.243C31.1746 29.9246 32.1063 30.2648 33.2013 30.2648C33.9914 30.2648 34.7084 30.081 35.3533 29.7134L35.3533 29.7134Z" fill="white"/>
<ellipse cx="27.847" cy="17.7175" rx="2.0198" ry="1.98603" fill="white"/>
</svg>
