<svg width="194" height="58" viewBox="0 0 194 58" fill="none" xmlns="http://www.w3.org/2000/svg">
<path fill-rule="evenodd" clip-rule="evenodd" d="M72.5291 35.6065C71.4166 34.9907 70.5513 34.1358 69.9341 33.0425C69.3154 31.9486 69.0068 30.708 69.0068 29.3195C69.0068 27.9132 69.3154 26.6631 69.9341 25.5698C70.5513 24.4765 71.4166 23.6216 72.5291 23.0051C73.641 22.3893 74.9026 22.0811 76.3155 22.0811C77.7095 22.0811 78.9586 22.3893 80.0621 23.0051C81.1649 23.6216 82.0301 24.4765 82.6571 25.5698C83.2834 26.6631 83.5969 27.9132 83.5969 29.3195C83.5969 30.708 83.2876 31.9486 82.6704 33.0425C82.0524 34.1358 81.1914 34.9907 80.0886 35.6065C78.985 36.223 77.7276 36.5313 76.3155 36.5313C74.9026 36.5313 73.641 36.223 72.5291 35.6065H72.5291ZM78.7377 33.5631C79.4532 33.1466 80.0092 32.5699 80.4063 31.8314C80.8033 31.0937 81.0019 30.2566 81.0019 29.3195C81.0019 28.3817 80.8033 27.5399 80.4063 26.7939C80.0092 26.0472 79.4532 25.4657 78.7377 25.0492C78.023 24.6327 77.2156 24.4245 76.3155 24.4245C75.4154 24.4245 74.6072 24.6327 73.8925 25.0492C73.1777 25.4657 72.6169 26.0472 72.2108 26.7939C71.8046 27.5399 71.6019 28.3817 71.6019 29.3195C71.6019 30.2566 71.8046 31.0937 72.2108 31.8314C72.6169 32.5699 73.1777 33.1466 73.8925 33.5631C74.6072 33.9796 75.4154 34.1879 76.3155 34.1879C77.2156 34.1879 78.023 33.9796 78.7377 33.5631Z" fill="#EC631E"/>
<path fill-rule="evenodd" clip-rule="evenodd" d="M97.2995 23.0311C98.4204 23.6655 99.2989 24.5327 99.9342 25.6349C100.57 26.7377 100.888 27.9653 100.888 29.3195C100.888 30.6731 100.592 31.9013 100 33.0035C99.4089 34.1057 98.5973 34.9695 97.5649 35.5942C96.5317 36.2189 95.3801 36.5313 94.1087 36.5313C93.0854 36.5313 92.1317 36.323 91.249 35.9065C90.3664 35.4894 89.616 34.9085 88.9988 34.1618V41.1914C88.9988 41.5907 88.8747 41.9113 88.6281 42.1552C88.3801 42.3977 88.0541 42.5196 87.6479 42.5196C87.2599 42.5196 86.9374 42.3977 86.6817 42.1552C86.4253 41.9113 86.2979 41.5907 86.2979 41.1914V29.3195C86.2979 27.9653 86.6197 26.7377 87.2641 25.6349C87.9085 24.5327 88.7821 23.6655 89.8856 23.0312C90.9884 22.3982 92.2201 22.0811 93.5793 22.0811C94.9385 22.0811 96.1785 22.3982 97.2995 23.0312V23.0311ZM95.9758 33.5501C96.6906 33.1247 97.2556 32.5431 97.6701 31.8054C98.0853 31.0683 98.2929 30.2395 98.2929 29.3195C98.2929 28.3996 98.0853 27.5666 97.6701 26.8192C97.2556 26.0739 96.6906 25.4876 95.9758 25.0622C95.2611 24.6368 94.462 24.4245 93.5793 24.4245C92.6966 24.4245 91.8983 24.6368 91.1828 25.0622C90.4681 25.4876 89.9072 26.0739 89.5018 26.8192C89.0949 27.5666 88.8929 28.3996 88.8929 29.3195C88.8929 30.2395 89.0949 31.0683 89.5018 31.8054C89.9072 32.5432 90.4681 33.1247 91.1828 33.5501C91.8983 33.9755 92.6966 34.1879 93.5793 34.1879C94.462 34.1879 95.2611 33.9755 95.9758 33.5501Z" fill="#EC631E"/>
<path fill-rule="evenodd" clip-rule="evenodd" d="M116.245 29.9052C116.015 30.1223 115.724 30.2306 115.371 30.2306H105.309C105.503 31.4458 106.064 32.4267 106.99 33.1727C107.917 33.9193 109.051 34.292 110.393 34.292C110.922 34.292 111.474 34.1968 112.048 34.0056C112.621 33.8145 113.094 33.5802 113.464 33.3028C113.712 33.1117 114.003 33.0165 114.338 33.0165C114.673 33.0165 114.938 33.1035 115.133 33.2768C115.451 33.5371 115.609 33.8323 115.609 34.1618C115.609 34.4742 115.467 34.7345 115.186 34.9427C114.585 35.412 113.839 35.7935 112.948 36.0887C112.056 36.384 111.204 36.5313 110.393 36.5313C108.945 36.5313 107.647 36.223 106.501 35.6065C105.353 34.9907 104.457 34.1358 103.813 33.0425C103.169 31.9486 102.847 30.708 102.847 29.3195C102.847 27.931 103.151 26.6857 103.76 25.5828C104.369 24.4806 105.216 23.6216 106.302 23.0051C107.388 22.3893 108.618 22.0811 109.996 22.0811C111.355 22.0811 112.529 22.3763 113.517 22.9661C114.506 23.5565 115.265 24.3813 115.795 25.4396C116.324 26.4987 116.589 27.7139 116.589 29.0846C116.589 29.4147 116.474 29.6881 116.245 29.9052L116.245 29.9052ZM106.858 25.3615C106.054 26.0561 105.548 26.985 105.335 28.1475H114.153C113.994 26.985 113.553 26.0561 112.829 25.3615C112.105 24.6676 111.161 24.3203 109.996 24.3203C108.707 24.3203 107.661 24.6676 106.858 25.3615Z" fill="#EC631E"/>
<path d="M129.193 22.8356C130.164 23.3562 130.923 24.1159 131.471 25.1139C132.017 26.1127 132.291 27.3142 132.291 28.7198V35.1246C132.291 35.5068 132.163 35.824 131.907 36.0754C131.651 36.3268 131.329 36.4528 130.941 36.4528C130.552 36.4528 130.23 36.3268 129.974 36.0754C129.718 35.824 129.59 35.5068 129.59 35.1246V28.7198C129.59 27.3142 129.206 26.251 128.439 25.5304C127.671 24.8105 126.651 24.4502 125.38 24.4502C124.638 24.4502 123.963 24.5974 123.354 24.8927C122.746 25.1879 122.269 25.5873 121.925 26.09C121.58 26.5942 121.408 27.158 121.408 27.7827V35.1246C121.408 35.5068 121.285 35.824 121.037 36.0754C120.79 36.3268 120.464 36.4528 120.058 36.4528C119.669 36.4528 119.347 36.3268 119.092 36.0754C118.835 35.824 118.707 35.5068 118.707 35.1246V23.5131C118.707 23.1137 118.835 22.7924 119.092 22.5492C119.347 22.3068 119.669 22.1848 120.058 22.1848C120.464 22.1848 120.79 22.3068 121.037 22.5492C121.285 22.7924 121.408 23.1137 121.408 23.5131V23.7987C121.973 23.2439 122.644 22.8143 123.421 22.5102C124.197 22.2067 125.027 22.0547 125.91 22.0547C127.128 22.0547 128.222 22.315 129.193 22.8356H129.193Z" fill="#EC631E"/>
<path fill-rule="evenodd" clip-rule="evenodd" d="M147.411 23.0048C148.532 23.6391 149.415 24.5111 150.059 25.6215C150.704 26.7326 151.026 27.9649 151.026 29.3192C151.026 30.6727 150.712 31.901 150.086 33.0031C149.459 34.1053 148.603 34.9732 147.517 35.6062C146.432 36.2405 145.217 36.557 143.876 36.557C142.729 36.557 141.679 36.3186 140.725 35.8411C139.772 35.3637 138.987 34.7081 138.369 33.8751V41.5041C138.369 41.7986 138.272 42.0418 138.077 42.2329C137.883 42.4233 137.636 42.5193 137.336 42.5193C137.036 42.5193 136.793 42.4233 136.608 42.2329C136.423 42.0418 136.33 41.7986 136.33 41.5041V35.6719C136.312 35.6199 136.304 35.5411 136.304 35.4376V29.3192C136.304 27.9649 136.626 26.7326 137.27 25.6215C137.914 24.5111 138.796 23.6391 139.918 23.0048C141.039 22.3711 142.287 22.0547 143.665 22.0547C145.042 22.0547 146.29 22.3711 147.411 23.0048H147.411ZM146.405 34.0313C147.226 33.5628 147.87 32.9161 148.338 32.0914C148.806 31.2673 149.04 30.3433 149.04 29.3192C149.04 28.2951 148.806 27.3703 148.338 26.5463C147.87 25.7215 147.226 25.0708 146.405 24.5933C145.585 24.1159 144.671 23.8775 143.665 23.8775C142.659 23.8775 141.749 24.1159 140.937 24.5933C140.125 25.0708 139.485 25.7215 139.017 26.5463C138.55 27.3703 138.316 28.2951 138.316 29.3192C138.316 29.6144 138.325 29.8309 138.342 29.9699C138.36 30.0049 138.369 30.048 138.369 30.0994C138.545 31.4536 139.124 32.5647 140.103 33.4326C141.083 34.3005 142.27 34.7341 143.665 34.7341C144.671 34.7341 145.585 34.4999 146.405 34.0313H146.405Z" fill="#EC631E"/>
<path fill-rule="evenodd" clip-rule="evenodd" d="M164.039 23.0048C165.16 23.6391 166.043 24.5111 166.688 25.6215C167.332 26.7326 167.654 27.9649 167.654 29.3192V35.4377C167.654 35.7151 167.557 35.9494 167.363 36.1405C167.168 36.3316 166.921 36.4268 166.621 36.4268C166.321 36.4268 166.074 36.3357 165.88 36.1535C165.685 35.9706 165.588 35.7329 165.588 35.4376V33.8751C164.971 34.7081 164.185 35.3637 163.232 35.8411C162.279 36.3186 161.228 36.557 160.081 36.557C158.739 36.557 157.525 36.2405 156.44 35.6062C155.355 34.9732 154.498 34.1053 153.871 33.0031C153.244 31.901 152.932 30.6728 152.932 29.3192C152.932 27.9649 153.253 26.7326 153.898 25.6215C154.542 24.5111 155.425 23.6391 156.546 23.0048C157.667 22.3711 158.916 22.0547 160.293 22.0547C161.67 22.0547 162.918 22.3711 164.039 23.0048L164.039 23.0048ZM163.02 34.0313C163.832 33.5628 164.472 32.9161 164.94 32.0914C165.407 31.2673 165.641 30.3433 165.641 29.3192C165.641 28.2951 165.407 27.3703 164.94 26.5463C164.472 25.7215 163.832 25.0708 163.02 24.5933C162.208 24.1159 161.298 23.8775 160.293 23.8775C159.287 23.8775 158.373 24.1159 157.552 24.5933C156.731 25.0708 156.087 25.7215 155.619 26.5463C155.151 27.3703 154.917 28.2951 154.917 29.3192C154.917 30.3433 155.151 31.2673 155.619 32.0914C156.087 32.9161 156.731 33.5628 157.552 34.0313C158.373 34.4999 159.287 34.7342 160.293 34.7342C161.298 34.7342 162.208 34.4999 163.02 34.0313H163.02Z" fill="#EC631E"/>
<path d="M172.208 36.0096C171.202 35.6452 170.39 35.1335 169.772 34.4739C169.595 34.2656 169.507 34.0663 169.507 33.8752C169.507 33.5799 169.648 33.3196 169.93 33.0936C170.142 32.9381 170.363 32.86 170.592 32.86C170.893 32.86 171.148 32.9812 171.361 33.2244C171.784 33.7101 172.344 34.0834 173.042 34.3437C173.739 34.604 174.512 34.7341 175.359 34.7341C176.594 34.7341 177.521 34.5259 178.139 34.1094C178.756 33.693 179.075 33.1463 179.092 32.4688C179.092 31.8441 178.783 31.3235 178.166 30.907C177.548 30.4905 176.567 30.1782 175.226 29.9699C173.496 29.6925 172.203 29.211 171.347 28.5246C170.491 27.8389 170.063 27.0107 170.063 26.038C170.063 24.7714 170.562 23.7905 171.559 23.0959C172.556 22.402 173.805 22.0547 175.306 22.0547C176.471 22.0547 177.486 22.2499 178.351 22.6404C179.215 23.0308 179.913 23.5733 180.443 24.2672C180.584 24.4933 180.655 24.6933 180.655 24.8666C180.655 25.1618 180.513 25.3961 180.231 25.5694C180.107 25.6564 179.939 25.6996 179.728 25.6996C179.357 25.6996 179.048 25.5694 178.801 25.3091C177.936 24.3371 176.753 23.8514 175.253 23.8514C174.282 23.8514 173.505 24.046 172.923 24.4371C172.34 24.8276 172.049 25.318 172.049 25.9078C172.049 26.5325 172.322 27.0319 172.87 27.4052C173.416 27.7786 174.388 28.0779 175.782 28.3033C177.671 28.6157 179.022 29.1232 179.833 29.8267C180.645 30.5296 181.052 31.4016 181.052 32.4428C181.052 33.2415 180.809 33.9532 180.324 34.578C179.838 35.2027 179.163 35.689 178.298 36.0363C177.433 36.3836 176.453 36.5569 175.359 36.5569C174.264 36.5569 173.214 36.3747 172.208 36.0096L172.208 36.0096Z" fill="#EC631E"/>
<path d="M185.156 36.0096C184.15 35.6452 183.338 35.1335 182.721 34.4739C182.544 34.2656 182.455 34.0663 182.455 33.8752C182.455 33.5799 182.597 33.3196 182.879 33.0936C183.091 32.9381 183.311 32.86 183.541 32.86C183.841 32.86 184.097 32.9812 184.309 33.2244C184.733 33.7101 185.293 34.0834 185.991 34.3437C186.687 34.604 187.46 34.7341 188.308 34.7341C189.543 34.7341 190.469 34.5259 191.087 34.1094C191.705 33.693 192.023 33.1463 192.041 32.4688C192.041 31.8441 191.732 31.3235 191.115 30.907C190.496 30.4905 189.516 30.1782 188.175 29.9699C186.445 29.6925 185.152 29.211 184.296 28.5246C183.439 27.8389 183.012 27.0107 183.012 26.038C183.012 24.7714 183.51 23.7905 184.507 23.0959C185.505 22.402 186.753 22.0547 188.255 22.0547C189.42 22.0547 190.435 22.2499 191.3 22.6404C192.164 23.0308 192.862 23.5733 193.391 24.2672C193.533 24.4933 193.603 24.6933 193.603 24.8666C193.603 25.1618 193.462 25.3961 193.179 25.5694C193.056 25.6564 192.888 25.6996 192.676 25.6996C192.306 25.6996 191.996 25.5694 191.75 25.3091C190.885 24.3371 189.702 23.8514 188.201 23.8514C187.231 23.8514 186.454 24.046 185.871 24.4371C185.289 24.8276 184.998 25.318 184.998 25.9078C184.998 26.5325 185.271 27.0319 185.819 27.4052C186.365 27.7786 187.337 28.0779 188.731 28.3033C190.62 28.6157 191.97 29.1232 192.782 29.8267C193.594 30.5296 194 31.4016 194 32.4428C194 33.2415 193.758 33.9532 193.272 34.578C192.787 35.2027 192.111 35.689 191.246 36.0363C190.382 36.3836 189.401 36.5569 188.308 36.5569C187.213 36.5569 186.163 36.3747 185.156 36.0096L185.156 36.0096Z" fill="#EC631E"/>
<ellipse cx="29.4592" cy="29" rx="27.4592" ry="27" stroke="#EC631E" stroke-width="2.16375"/>
<path fill-rule="evenodd" clip-rule="evenodd" d="M14.9197 36.4819C13.4059 35.6318 12.2209 34.4584 11.3647 32.9624C10.5085 31.4656 10.0801 29.786 10.0801 27.9214C10.0801 26.0575 10.5085 24.3813 11.3647 22.8928C12.2209 21.4049 13.4059 20.2356 14.9197 19.3855C16.4329 18.5354 18.1376 18.1094 20.0339 18.1094C21.9128 18.1094 23.6133 18.5354 25.1355 19.3855C26.657 20.2356 27.8455 21.4049 28.7024 22.8928C29.5586 24.3813 29.987 26.0575 29.987 27.9214C29.987 29.786 29.5586 31.4656 28.7024 32.9624C27.8455 34.4584 26.657 35.6318 25.1355 36.4819C23.6133 37.3327 21.9128 37.7574 20.0339 37.7574C18.1376 37.7574 16.4329 37.3327 14.9197 36.4819ZM24.1372 34.8879C25.3598 34.1844 26.3205 33.224 27.0186 32.0054C27.7173 30.7875 28.0664 29.4264 28.0664 27.9214C28.0664 26.4336 27.7173 25.08 27.0186 23.8621C26.3205 22.6441 25.3598 21.6831 24.1372 20.9796C22.9153 20.2767 21.5471 19.9246 20.0339 19.9246C18.5034 19.9246 17.1274 20.2767 15.9055 20.9796C14.6829 21.6831 13.7222 22.6441 13.0242 23.8621C12.3254 25.08 11.9763 26.4336 11.9763 27.9214C11.9763 29.4264 12.3254 30.7875 13.0242 32.0054C13.7222 33.224 14.6829 34.1844 15.9055 34.8879C17.1274 35.5907 18.5033 35.9428 20.0339 35.9428C21.5471 35.9428 22.9153 35.5907 24.1372 34.8879Z" fill="#EC631E"/>
<path fill-rule="evenodd" clip-rule="evenodd" d="M42.9711 24.868C44.0272 25.4646 44.8583 26.2866 45.4658 27.3333C46.0726 28.38 46.3763 29.5404 46.3763 30.8159C46.3763 32.092 46.081 33.249 45.4909 34.2875C44.9001 35.326 44.0941 36.1432 43.0708 36.7398C42.048 37.3371 40.9048 37.6351 39.641 37.6351C38.5591 37.6351 37.5706 37.4104 36.6727 36.9611C35.7739 36.511 35.0341 35.8938 34.4523 35.1088V42.2959C34.4523 42.5733 34.3604 42.8021 34.1779 42.983C33.9946 43.1624 33.762 43.2522 33.4791 43.2522C33.1963 43.2522 32.9678 43.1624 32.7929 42.983C32.6187 42.8021 32.531 42.5733 32.531 42.2959V36.8015C32.5143 36.7521 32.5059 36.6789 32.5059 36.5802V30.8159C32.5059 29.5404 32.8096 28.38 33.4165 27.3333C34.0232 26.2866 34.855 25.4646 35.9111 24.868C36.9673 24.2713 38.1439 23.9727 39.4411 23.9727C40.7382 23.9727 41.9149 24.2713 42.9711 24.868V24.868ZM42.0236 35.2561C42.7962 34.8143 43.4037 34.2053 43.8447 33.4285C44.285 32.6517 44.5051 31.781 44.5051 30.8159C44.5051 29.8514 44.285 28.9807 43.8447 28.2039C43.4037 27.4271 42.7962 26.8141 42.0236 26.364C41.2497 25.9147 40.3893 25.6893 39.4411 25.6893C38.4929 25.6893 37.6367 25.9147 36.8718 26.364C36.1069 26.8141 35.5036 27.4271 35.0633 28.2039C34.6224 28.9807 34.4022 29.8514 34.4022 30.8159C34.4022 31.0947 34.4106 31.2988 34.4273 31.4296C34.4433 31.4625 34.4523 31.5029 34.4523 31.5523C34.6182 32.8277 35.1629 33.8744 36.0861 34.6916C37.0091 35.5095 38.1272 35.9178 39.4411 35.9178C40.3893 35.9178 41.2497 35.6972 42.0236 35.2561L42.0236 35.2561Z" fill="#EC631E"/>
<ellipse cx="33.0165" cy="20.8608" rx="2.42377" ry="2.38323" fill="#EC631E"/>
</svg>
