<svg width="50" height="50" viewBox="0 0 50 50" fill="none" xmlns="http://www.w3.org/2000/svg">
<path fill-rule="evenodd" clip-rule="evenodd" d="M26.1938 30.9943C21.8983 31.8125 18.1851 28.0994 19.0043 23.8038C19.462 21.4024 21.3974 19.4652 23.7988 19.0056C28.0972 18.1828 31.8148 21.8996 30.9921 26.1988C30.5325 28.6002 28.5952 30.5366 26.1938 30.9943H26.1938ZM26.1599 20.8787C22.9118 20.0174 20.016 22.9123 20.8782 26.1603C21.2571 27.5876 22.411 28.7415 23.8383 29.1194C27.0862 29.9817 29.9802 27.0867 29.1189 23.8378C28.7402 22.4114 27.5871 21.2575 26.1599 20.8787H26.1599Z" fill="#EC631E"/>
<path fill-rule="evenodd" clip-rule="evenodd" d="M27.3321 38.6767H22.7313C22.2289 38.6767 21.7918 38.3344 21.6719 37.8472L21.3318 36.4749C21.249 36.1436 21.0157 35.8689 20.7018 35.7348L20.5143 35.6542C20.2005 35.5201 19.8441 35.5397 19.5475 35.7076L17.9573 36.6057C17.53 36.8477 16.9949 36.7747 16.6483 36.4281L13.5822 33.3598C13.2312 33.0088 13.1614 32.4649 13.4122 32.0366L14.234 30.6349C14.4182 30.321 14.4334 29.9362 14.2754 29.6092L14.1294 29.3051C13.9866 29.0108 13.7206 28.7961 13.4024 28.7187L11.9189 28.3601C11.4284 28.2424 11.084 27.8032 11.084 27.2996V22.761C11.084 22.2716 11.4088 21.8432 11.8786 21.7102L13.4144 21.2775C13.7403 21.1849 14.0062 20.9462 14.1316 20.6301L14.2939 20.2224C14.4128 19.926 14.3942 19.5913 14.246 19.309L13.5125 17.9193C13.2868 17.491 13.3697 16.9656 13.7163 16.6277L16.8248 13.602C17.2053 13.2314 17.796 13.1889 18.2255 13.4995L19.1617 14.1753C19.4636 14.3933 19.856 14.4423 20.2016 14.3061L20.8283 14.0576C21.1618 13.9257 21.4092 13.6391 21.4899 13.2892L21.7504 12.1665C21.8648 11.6717 22.3051 11.3218 22.8131 11.3218H27.2068C27.7092 11.3218 28.1463 11.664 28.2662 12.1501L28.5845 13.4352C28.6674 13.7688 28.9017 14.0434 29.2178 14.1775L29.5175 14.305C29.8499 14.4456 30.2304 14.4129 30.5344 14.2178L31.8642 13.3622C32.3002 13.0821 32.8735 13.1464 33.2365 13.5181L36.5107 16.8762C36.8606 17.2337 36.9217 17.782 36.6601 18.2082L35.5941 19.9456L36.0202 21.0486L38.1511 21.72C38.6057 21.8628 38.9152 22.2836 38.9152 22.761V27.0925C38.9152 27.5743 38.5991 27.9993 38.137 28.1378L36.8792 28.5149C36.5565 28.6119 36.2971 28.8517 36.175 29.1656L35.9614 29.715C35.8426 30.0212 35.8676 30.3646 36.0301 30.6491L36.72 31.8622C36.9653 32.2927 36.889 32.8344 36.5358 33.181L33.3226 36.3321C32.9923 36.6548 32.4953 36.7354 32.08 36.5338L29.9252 35.4831L28.9824 35.9496L28.3753 37.9082C28.2335 38.3649 27.8106 38.6766 27.3321 38.6766L27.3321 38.6767ZM24.4361 36.4967H25.7255C26.204 36.4967 26.6258 36.185 26.7675 35.7283L27.0379 34.8585C27.1262 34.5729 27.3278 34.3364 27.5959 34.2034L29.4357 33.2922C29.7387 33.1418 30.0941 33.1407 30.3982 33.289L31.6517 33.9004C32.0669 34.1021 32.565 34.0214 32.8942 33.6977L33.8109 32.7996C34.164 32.453 34.2403 31.9113 33.9951 31.4807L33.6223 30.8256C33.461 30.5412 33.4349 30.1978 33.5536 29.8915L34.527 27.3835C34.649 27.0707 34.9084 26.8298 35.2311 26.7339L35.957 26.5159C36.4192 26.3775 36.7353 25.9524 36.7353 25.4707V24.3589C36.7353 23.8826 36.4257 23.4619 35.9712 23.318L34.8649 22.9703C34.5477 22.87 34.2938 22.6313 34.1749 22.3217L33.3661 20.229C33.243 19.9118 33.2757 19.5554 33.4534 19.2655L33.9144 18.5145C34.1749 18.0894 34.1139 17.5401 33.7651 17.1825L32.9182 16.3138C32.5563 15.9433 31.983 15.8779 31.547 16.158L30.7426 16.6746C30.4385 16.8697 30.0582 16.9024 29.7257 16.7618L27.3637 15.7579C27.0477 15.6239 26.8133 15.3492 26.7304 15.0157L26.5615 14.3312C26.4405 13.844 26.0034 13.5017 25.5021 13.5017H24.5462C24.0383 13.5017 23.598 13.8516 23.4835 14.3465L23.3548 14.8969C23.2742 15.2468 23.0268 15.5334 22.6932 15.6653L19.8931 16.7716C19.5465 16.909 19.1541 16.8599 18.8533 16.6419L18.4337 16.3389C18.0042 16.0283 17.4135 16.0719 17.033 16.4414L16.4052 17.0528C16.0586 17.3907 15.9758 17.9161 16.2014 18.3434L16.6428 19.1815C16.7911 19.4638 16.8097 19.7974 16.6908 20.0949L15.7578 22.4373C15.6324 22.7523 15.3665 22.991 15.0406 23.0836L14.0586 23.3605C13.5887 23.4924 13.2639 23.9218 13.2639 24.4101V25.584C13.2639 26.0876 13.6084 26.5257 14.0988 26.6445L14.9174 26.8429C15.2357 26.9192 15.5028 27.135 15.6445 27.4293L16.7431 29.7095C16.9011 30.0365 16.8848 30.4213 16.7017 30.7352L16.1436 31.6867C15.8929 32.1151 15.9627 32.659 16.3137 33.0099L17.0189 33.7152C17.3655 34.0618 17.9007 34.1348 18.3279 33.8928L19.4124 33.2792C19.7089 33.1113 20.0675 33.0917 20.3803 33.2258L22.557 34.1577C22.8709 34.2928 23.1042 34.5664 23.1859 34.8989L23.3767 35.6673C23.4976 36.1545 23.9346 36.4968 24.4361 36.4968L24.4361 36.4967Z" fill="#EC631E"/>
</svg>
