<svg width="25" height="24" viewBox="0 0 25 24" fill="none" xmlns="http://www.w3.org/2000/svg">
<path fill-rule="evenodd" clip-rule="evenodd" d="M12.5 2.81249V4.68749H10.5469V2.81249H12.5ZM10.5469 13.8281V16.5H12.5V13.8281H10.5469ZM16.4062 24V22.125H14.4531V20.25H12.5V24L16.4062 24ZM20.3125 10.078H14.4531V11.953H20.3125V10.078ZM20.3125 13.828H23.0469V11.953H20.3125V13.828ZM20.3125 16.5V18.375H25V13.8281H23.0468V16.5H20.3125ZM14.4531 0H12.5V2.81249H14.4531V0ZM12.5 8.43755H14.4532V4.68756H12.5V6.56255H10.5469V11.9532H12.5V8.43755ZM0 10.078V13.828H1.95313V11.953H4.88281V10.078H0ZM14.4531 13.828V11.953H12.5V13.828H14.4531ZM18.3594 15.7031H20.3125V13.8281H18.3594V15.7031ZM23.0469 11.953H25V10.078H23.0469V11.953ZM16.4062 13.8281H14.4531V16.5H12.5V18.375H16.4062V13.8281ZM10.5469 20.2499H12.5V18.3749H10.5469V20.2499ZM16.4063 18.3749V20.2499H20.3125V18.3749H16.4063ZM22.2656 22.125V20.25H20.3125V22.125H22.2656ZM25 23.9999V22.1249H22.2657V23.9999H25ZM18.3594 23.9999H20.3125V22.1249H18.3594V23.9999ZM8.78903 11.953V10.078H6.83591V11.953H4.88278V13.828H10.5468V11.953H8.78903ZM8.78906 8.43747H0V0H8.78906V8.43747ZM6.83591 1.87507H1.95309V6.56255H6.83591V1.87507ZM5.37106 3.28121H3.41794V5.1562H5.37106V3.28121ZM25 0V8.43747H16.2109V0H25ZM23.0468 1.87507H18.164V6.56255H23.0468V1.87507ZM21.5821 3.28121H19.629V5.1562H21.5821V3.28121ZM0 15.5624H8.78906V23.9999H0V15.5624ZM1.95309 22.125H6.83591V17.4375H1.95309V22.125ZM3.41794 20.7186H5.37106V18.8436H3.41794V20.7186Z" fill="white"/>
</svg>
