<svg height="200" width="200" xmlns="http://www.w3.org/2000/svg"><g shape-rendering="optimizeSpeed"><path d="m0 0h200v200h-200z" fill="#fff"/><path d="m12 12h7v7h-7z"/><path d="m19 12h7v7h-7z"/><path d="m26 12h7v7h-7z"/><path d="m33 12h7v7h-7z"/><path d="m40 12h7v7h-7z"/><path d="m47 12h7v7h-7z"/><path d="m54 12h7v7h-7z"/><path d="m68 12h7v7h-7z"/><path d="m96 12h7v7h-7z"/><path d="m124 12h7v7h-7z"/><path d="m138 12h7v7h-7z"/><path d="m145 12h7v7h-7z"/><path d="m152 12h7v7h-7z"/><path d="m159 12h7v7h-7z"/><path d="m166 12h7v7h-7z"/><path d="m173 12h7v7h-7z"/><path d="m180 12h7v7h-7z"/><path d="m12 19h7v7h-7z"/><path d="m54 19h7v7h-7z"/><path d="m75 19h7v7h-7z"/><path d="m82 19h7v7h-7z"/><path d="m89 19h7v7h-7z"/><path d="m96 19h7v7h-7z"/><path d="m103 19h7v7h-7z"/><path d="m110 19h7v7h-7z"/><path d="m138 19h7v7h-7z"/><path d="m180 19h7v7h-7z"/><path d="m12 26h7v7h-7z"/><path d="m26 26h7v7h-7z"/><path d="m33 26h7v7h-7z"/><path d="m40 26h7v7h-7z"/><path d="m54 26h7v7h-7z"/><path d="m68 26h7v7h-7z"/><path d="m75 26h7v7h-7z"/><path d="m82 26h7v7h-7z"/><path d="m89 26h7v7h-7z"/><path d="m96 26h7v7h-7z"/><path d="m103 26h7v7h-7z"/><path d="m110 26h7v7h-7z"/><path d="m117 26h7v7h-7z"/><path d="m138 26h7v7h-7z"/><path d="m152 26h7v7h-7z"/><path d="m159 26h7v7h-7z"/><path d="m166 26h7v7h-7z"/><path d="m180 26h7v7h-7z"/><path d="m12 33h7v7h-7z"/><path d="m26 33h7v7h-7z"/><path d="m33 33h7v7h-7z"/><path d="m40 33h7v7h-7z"/><path d="m54 33h7v7h-7z"/><path d="m68 33h7v7h-7z"/><path d="m75 33h7v7h-7z"/><path d="m82 33h7v7h-7z"/><path d="m89 33h7v7h-7z"/><path d="m96 33h7v7h-7z"/><path d="m103 33h7v7h-7z"/><path d="m110 33h7v7h-7z"/><path d="m138 33h7v7h-7z"/><path d="m152 33h7v7h-7z"/><path d="m159 33h7v7h-7z"/><path d="m166 33h7v7h-7z"/><path d="m180 33h7v7h-7z"/><path d="m12 40h7v7h-7z"/><path d="m26 40h7v7h-7z"/><path d="m33 40h7v7h-7z"/><path d="m40 40h7v7h-7z"/><path d="m54 40h7v7h-7z"/><path d="m68 40h7v7h-7z"/><path d="m103 40h7v7h-7z"/><path d="m110 40h7v7h-7z"/><path d="m117 40h7v7h-7z"/><path d="m138 40h7v7h-7z"/><path d="m152 40h7v7h-7z"/><path d="m159 40h7v7h-7z"/><path d="m166 40h7v7h-7z"/><path d="m180 40h7v7h-7z"/><path d="m12 47h7v7h-7z"/><path d="m54 47h7v7h-7z"/><path d="m82 47h7v7h-7z"/><path d="m96 47h7v7h-7z"/><path d="m110 47h7v7h-7z"/><path d="m138 47h7v7h-7z"/><path d="m180 47h7v7h-7z"/><path d="m12 54h7v7h-7z"/><path d="m19 54h7v7h-7z"/><path d="m26 54h7v7h-7z"/><path d="m33 54h7v7h-7z"/><path d="m40 54h7v7h-7z"/><path d="m47 54h7v7h-7z"/><path d="m54 54h7v7h-7z"/><path d="m68 54h7v7h-7z"/><path d="m82 54h7v7h-7z"/><path d="m96 54h7v7h-7z"/><path d="m110 54h7v7h-7z"/><path d="m124 54h7v7h-7z"/><path d="m138 54h7v7h-7z"/><path d="m145 54h7v7h-7z"/><path d="m152 54h7v7h-7z"/><path d="m159 54h7v7h-7z"/><path d="m166 54h7v7h-7z"/><path d="m173 54h7v7h-7z"/><path d="m180 54h7v7h-7z"/><path d="m82 61h7v7h-7z"/><path d="m89 61h7v7h-7z"/><path d="m117 61h7v7h-7z"/><path d="m12 68h7v7h-7z"/><path d="m19 68h7v7h-7z"/><path d="m26 68h7v7h-7z"/><path d="m33 68h7v7h-7z"/><path d="m54 68h7v7h-7z"/><path d="m68 68h7v7h-7z"/><path d="m82 68h7v7h-7z"/><path d="m110 68h7v7h-7z"/><path d="m131 68h7v7h-7z"/><path d="m152 68h7v7h-7z"/><path d="m159 68h7v7h-7z"/><path d="m166 68h7v7h-7z"/><path d="m180 68h7v7h-7z"/><path d="m12 75h7v7h-7z"/><path d="m33 75h7v7h-7z"/><path d="m47 75h7v7h-7z"/><path d="m61 75h7v7h-7z"/><path d="m68 75h7v7h-7z"/><path d="m82 75h7v7h-7z"/><path d="m89 75h7v7h-7z"/><path d="m103 75h7v7h-7z"/><path d="m124 75h7v7h-7z"/><path d="m131 75h7v7h-7z"/><path d="m145 75h7v7h-7z"/><path d="m173 75h7v7h-7z"/><path d="m12 82h7v7h-7z"/><path d="m19 82h7v7h-7z"/><path d="m26 82h7v7h-7z"/><path d="m40 82h7v7h-7z"/><path d="m54 82h7v7h-7z"/><path d="m75 82h7v7h-7z"/><path d="m82 82h7v7h-7z"/><path d="m89 82h7v7h-7z"/><path d="m124 82h7v7h-7z"/><path d="m131 82h7v7h-7z"/><path d="m145 82h7v7h-7z"/><path d="m12 89h7v7h-7z"/><path d="m26 89h7v7h-7z"/><path d="m33 89h7v7h-7z"/><path d="m40 89h7v7h-7z"/><path d="m68 89h7v7h-7z"/><path d="m75 89h7v7h-7z"/><path d="m82 89h7v7h-7z"/><path d="m96 89h7v7h-7z"/><path d="m103 89h7v7h-7z"/><path d="m110 89h7v7h-7z"/><path d="m117 89h7v7h-7z"/><path d="m124 89h7v7h-7z"/><path d="m152 89h7v7h-7z"/><path d="m159 89h7v7h-7z"/><path d="m166 89h7v7h-7z"/><path d="m19 96h7v7h-7z"/><path d="m40 96h7v7h-7z"/><path d="m54 96h7v7h-7z"/><path d="m61 96h7v7h-7z"/><path d="m75 96h7v7h-7z"/><path d="m82 96h7v7h-7z"/><path d="m103 96h7v7h-7z"/><path d="m117 96h7v7h-7z"/><path d="m124 96h7v7h-7z"/><path d="m131 96h7v7h-7z"/><path d="m138 96h7v7h-7z"/><path d="m152 96h7v7h-7z"/><path d="m166 96h7v7h-7z"/><path d="m173 96h7v7h-7z"/><path d="m180 96h7v7h-7z"/><path d="m26 103h7v7h-7z"/><path d="m40 103h7v7h-7z"/><path d="m47 103h7v7h-7z"/><path d="m96 103h7v7h-7z"/><path d="m103 103h7v7h-7z"/><path d="m110 103h7v7h-7z"/><path d="m117 103h7v7h-7z"/><path d="m124 103h7v7h-7z"/><path d="m131 103h7v7h-7z"/><path d="m138 103h7v7h-7z"/><path d="m145 103h7v7h-7z"/><path d="m152 103h7v7h-7z"/><path d="m180 103h7v7h-7z"/><path d="m19 110h7v7h-7z"/><path d="m26 110h7v7h-7z"/><path d="m33 110h7v7h-7z"/><path d="m54 110h7v7h-7z"/><path d="m68 110h7v7h-7z"/><path d="m75 110h7v7h-7z"/><path d="m96 110h7v7h-7z"/><path d="m110 110h7v7h-7z"/><path d="m131 110h7v7h-7z"/><path d="m152 110h7v7h-7z"/><path d="m166 110h7v7h-7z"/><path d="m173 110h7v7h-7z"/><path d="m12 117h7v7h-7z"/><path d="m26 117h7v7h-7z"/><path d="m47 117h7v7h-7z"/><path d="m61 117h7v7h-7z"/><path d="m75 117h7v7h-7z"/><path d="m117 117h7v7h-7z"/><path d="m131 117h7v7h-7z"/><path d="m138 117h7v7h-7z"/><path d="m145 117h7v7h-7z"/><path d="m152 117h7v7h-7z"/><path d="m180 117h7v7h-7z"/><path d="m26 124h7v7h-7z"/><path d="m33 124h7v7h-7z"/><path d="m40 124h7v7h-7z"/><path d="m54 124h7v7h-7z"/><path d="m61 124h7v7h-7z"/><path d="m75 124h7v7h-7z"/><path d="m82 124h7v7h-7z"/><path d="m89 124h7v7h-7z"/><path d="m103 124h7v7h-7z"/><path d="m124 124h7v7h-7z"/><path d="m131 124h7v7h-7z"/><path d="m138 124h7v7h-7z"/><path d="m145 124h7v7h-7z"/><path d="m152 124h7v7h-7z"/><path d="m159 124h7v7h-7z"/><path d="m166 124h7v7h-7z"/><path d="m173 124h7v7h-7z"/><path d="m180 124h7v7h-7z"/><path d="m68 131h7v7h-7z"/><path d="m82 131h7v7h-7z"/><path d="m89 131h7v7h-7z"/><path d="m96 131h7v7h-7z"/><path d="m103 131h7v7h-7z"/><path d="m124 131h7v7h-7z"/><path d="m152 131h7v7h-7z"/><path d="m166 131h7v7h-7z"/><path d="m180 131h7v7h-7z"/><path d="m12 138h7v7h-7z"/><path d="m19 138h7v7h-7z"/><path d="m26 138h7v7h-7z"/><path d="m33 138h7v7h-7z"/><path d="m40 138h7v7h-7z"/><path d="m47 138h7v7h-7z"/><path d="m54 138h7v7h-7z"/><path d="m75 138h7v7h-7z"/><path d="m82 138h7v7h-7z"/><path d="m96 138h7v7h-7z"/><path d="m124 138h7v7h-7z"/><path d="m138 138h7v7h-7z"/><path d="m152 138h7v7h-7z"/><path d="m166 138h7v7h-7z"/><path d="m173 138h7v7h-7z"/><path d="m180 138h7v7h-7z"/><path d="m12 145h7v7h-7z"/><path d="m54 145h7v7h-7z"/><path d="m75 145h7v7h-7z"/><path d="m117 145h7v7h-7z"/><path d="m124 145h7v7h-7z"/><path d="m152 145h7v7h-7z"/><path d="m12 152h7v7h-7z"/><path d="m26 152h7v7h-7z"/><path d="m33 152h7v7h-7z"/><path d="m40 152h7v7h-7z"/><path d="m54 152h7v7h-7z"/><path d="m75 152h7v7h-7z"/><path d="m110 152h7v7h-7z"/><path d="m124 152h7v7h-7z"/><path d="m131 152h7v7h-7z"/><path d="m138 152h7v7h-7z"/><path d="m145 152h7v7h-7z"/><path d="m152 152h7v7h-7z"/><path d="m159 152h7v7h-7z"/><path d="m173 152h7v7h-7z"/><path d="m180 152h7v7h-7z"/><path d="m12 159h7v7h-7z"/><path d="m26 159h7v7h-7z"/><path d="m33 159h7v7h-7z"/><path d="m40 159h7v7h-7z"/><path d="m54 159h7v7h-7z"/><path d="m68 159h7v7h-7z"/><path d="m75 159h7v7h-7z"/><path d="m82 159h7v7h-7z"/><path d="m89 159h7v7h-7z"/><path d="m110 159h7v7h-7z"/><path d="m117 159h7v7h-7z"/><path d="m131 159h7v7h-7z"/><path d="m138 159h7v7h-7z"/><path d="m152 159h7v7h-7z"/><path d="m159 159h7v7h-7z"/><path d="m166 159h7v7h-7z"/><path d="m173 159h7v7h-7z"/><path d="m180 159h7v7h-7z"/><path d="m12 166h7v7h-7z"/><path d="m26 166h7v7h-7z"/><path d="m33 166h7v7h-7z"/><path d="m40 166h7v7h-7z"/><path d="m54 166h7v7h-7z"/><path d="m68 166h7v7h-7z"/><path d="m89 166h7v7h-7z"/><path d="m96 166h7v7h-7z"/><path d="m103 166h7v7h-7z"/><path d="m110 166h7v7h-7z"/><path d="m131 166h7v7h-7z"/><path d="m138 166h7v7h-7z"/><path d="m152 166h7v7h-7z"/><path d="m166 166h7v7h-7z"/><path d="m173 166h7v7h-7z"/><path d="m12 173h7v7h-7z"/><path d="m54 173h7v7h-7z"/><path d="m68 173h7v7h-7z"/><path d="m89 173h7v7h-7z"/><path d="m96 173h7v7h-7z"/><path d="m103 173h7v7h-7z"/><path d="m117 173h7v7h-7z"/><path d="m131 173h7v7h-7z"/><path d="m138 173h7v7h-7z"/><path d="m152 173h7v7h-7z"/><path d="m166 173h7v7h-7z"/><path d="m12 180h7v7h-7z"/><path d="m19 180h7v7h-7z"/><path d="m26 180h7v7h-7z"/><path d="m33 180h7v7h-7z"/><path d="m40 180h7v7h-7z"/><path d="m47 180h7v7h-7z"/><path d="m54 180h7v7h-7z"/><path d="m68 180h7v7h-7z"/><path d="m89 180h7v7h-7z"/><path d="m96 180h7v7h-7z"/><path d="m103 180h7v7h-7z"/><path d="m145 180h7v7h-7z"/><path d="m152 180h7v7h-7z"/><path d="m159 180h7v7h-7z"/><path d="m166 180h7v7h-7z"/><path d="m173 180h7v7h-7z"/><path d="m180 180h7v7h-7z"/></g></svg>