<svg width="50" height="50" viewBox="0 0 50 50" fill="none" xmlns="http://www.w3.org/2000/svg">
<path d="M38.141 17.995L32.0046 11.8585C31.5254 11.3792 30.7482 11.3792 30.2689 11.8585C29.7896 12.3378 29.7896 13.1148 30.2689 13.5941L34.3103 17.6356H12.7273C12.0495 17.6356 11.5 18.1851 11.5 18.8629C11.5 19.5407 12.0495 20.0902 12.7273 20.0902H34.3103L30.269 24.1316C29.7897 24.6109 29.7897 25.388 30.269 25.8672C30.5086 26.1068 30.8227 26.2267 31.1367 26.2267C31.4508 26.2267 31.765 26.1069 32.0045 25.8672L38.141 19.7307C38.6203 19.2513 38.6203 18.4743 38.141 17.995V17.995Z" fill="#EC631E"/>
<path d="M37.2733 29.9085H15.6903L19.7316 25.8671C20.2109 25.3878 20.2109 24.6108 19.7316 24.1315C19.2524 23.6521 18.4753 23.6521 17.996 24.1315L11.8595 30.2679C11.3802 30.7472 11.3802 31.5242 11.8595 32.0035L17.9959 38.1401C18.2357 38.3798 18.5497 38.4996 18.8638 38.4996C19.1779 38.4996 19.4921 38.3798 19.7316 38.1401C20.2109 37.6608 20.2109 36.8837 19.7316 36.4044L15.6902 32.3631H37.2733C37.9511 32.3631 38.5006 31.8136 38.5006 31.1358C38.5006 30.458 37.9511 29.9085 37.2733 29.9085V29.9085Z" fill="#EC631E"/>
</svg>
