<svg width="129" height="120" viewBox="0 0 129 120" fill="none" xmlns="http://www.w3.org/2000/svg">
<g opacity="0.4">
<path d="M1.23075 72.8178C5.6167 116.273 74.7363 114.833 107.009 107.071C127.74 102.085 129.029 92.1215 128.654 70.8732C128.496 61.9211 128.914 43.3306 126.735 28.339C125.58 20.3941 123.695 13.4602 120.609 9.50739C106.922 -8.02158 94.6604 2.9722 77.7108 8.6942C55.9701 16.0335 47.4986 2.92972 26.8139 3.31985C-3.51188 3.89248 -1.03285 50.3899 1.23076 72.8178H1.23075Z" fill="url(#paint0_linear)"/>
</g>
<path opacity="0.6" d="M88.0389 120H40.6642C36.4992 120 33.123 116.623 33.123 112.459V16.7665C33.123 12.6015 36.4992 9.22534 40.6642 9.22534H88.0389C92.2039 9.22534 95.5801 12.6015 95.5801 16.7665V112.459C95.5801 116.623 92.2039 120 88.0389 120Z" fill="#F6B696"/>
<path opacity="0.75" d="M88.0389 113.965H40.6642C36.4992 113.965 33.123 110.589 33.123 106.424V10.7321C33.123 6.5671 36.4992 3.19092 40.6642 3.19092H88.0389C92.2039 3.19092 95.5801 6.5671 95.5801 10.7321V106.424C95.5801 110.589 92.2039 113.965 88.0389 113.965Z" fill="#EC631E"/>
<path d="M33.123 13.9788H95.5791V103.181H33.123V13.9788Z" fill="white"/>
<path opacity="0.6" d="M33.123 73.5293H95.5791V103.181H33.123V73.5293Z" fill="#F6B696"/>
<path fill-rule="evenodd" clip-rule="evenodd" d="M88.0379 115.223H40.6633C35.812 115.223 31.8652 111.277 31.8652 106.425V10.7333C31.8652 5.88211 35.812 1.9353 40.6633 1.9353H88.0379C92.8892 1.9353 96.836 5.8821 96.836 10.7333V106.425C96.836 111.277 92.8892 115.223 88.0379 115.223ZM40.6633 4.44903C37.1981 4.44903 34.3789 7.26817 34.3789 10.7333V106.425C34.3789 109.891 37.1981 112.71 40.6633 112.71H88.0379C91.5031 112.71 94.3222 109.891 94.3222 106.425V10.7333C94.3222 7.26817 91.5031 4.44903 88.0379 4.44903H40.6633Z" fill="#6F6E6D"/>
<path d="M68.7466 10.0726H59.9571C59.263 10.0726 58.7002 9.50974 58.7002 8.8157C58.7002 8.12166 59.263 7.55884 59.9571 7.55884H68.7466C69.4406 7.55884 70.0034 8.12166 70.0034 8.8157C70.0034 9.50974 69.4406 10.0726 68.7466 10.0726Z" fill="#6F6E6D"/>
<ellipse cx="74.6109" cy="8.81425" rx="1.25737" ry="1.25737" fill="#6F6E6D"/>
<ellipse cx="45.0295" cy="44.6523" rx="4.18083" ry="4.18083" fill="#EC631E"/>
<g opacity="0.6">
<ellipse cx="57.9103" cy="44.652" rx="4.18083" ry="4.18083" fill="#F6B696"/>
<ellipse cx="70.7912" cy="44.652" rx="4.18082" ry="4.18083" fill="#F6B696"/>
<ellipse cx="83.673" cy="44.652" rx="4.18082" ry="4.18083" fill="#F6B696"/>
</g>
<path opacity="0.6" d="M87.8553 55.3794V91.6802C87.8553 93.0703 86.7291 94.1939 85.3416 94.1939H43.3624C41.9748 94.1939 40.8486 93.0703 40.8486 91.6802V55.3794C40.8486 53.9919 41.9748 52.8657 43.3624 52.8657H85.3416C86.7291 52.8657 87.8553 53.9919 87.8553 55.3794Z" fill="#F6B696"/>
<path d="M77.4749 98.0187H51.2276C49.8395 98.0187 48.7139 96.8933 48.7139 95.505V92.8887C48.7139 91.5004 49.8395 90.375 51.2276 90.375H77.4749C78.8635 90.375 79.9886 91.5004 79.9886 92.8887V95.505C79.9886 96.8933 78.8635 98.0187 77.4749 98.0187Z" fill="white"/>
<path opacity="0.6" d="M65.0784 52.8657C64.3796 65.6405 53.7993 75.7834 40.8486 75.7834V55.3794C40.8486 53.9919 41.9745 52.8657 43.3623 52.8657L65.0784 52.8657Z" fill="#F6B696"/>
<path d="M77.508 68.7549H51.1944C50.5003 68.7549 49.9375 69.3177 49.9375 70.0117C49.9375 70.7058 50.5003 71.2686 51.1944 71.2686H77.508C78.2021 71.2686 78.7649 70.7058 78.7649 70.0117C78.7649 69.3177 78.2023 68.7549 77.508 68.7549Z" fill="white"/>
<path d="M71.4751 63.8716H51.1944C50.5003 63.8716 49.9375 64.4344 49.9375 65.1284C49.9375 65.8225 50.5003 66.3853 51.1944 66.3853H71.4754C72.1694 66.3853 72.7322 65.8225 72.7322 65.1284C72.7322 64.4344 72.1694 63.8716 71.4751 63.8716Z" fill="white"/>
<path d="M54.1304 58.0032H51.1944C50.5003 58.0032 49.9375 58.566 49.9375 59.26C49.9375 59.9541 50.5003 60.5169 51.1944 60.5169H54.1307C54.8247 60.5169 55.3875 59.9541 55.3875 59.26C55.3875 58.566 54.8247 58.0032 54.1304 58.0032H54.1304Z" fill="#6F6E6D"/>
<path d="M77.508 82.3721H51.1944C50.5003 82.3721 49.9375 82.9349 49.9375 83.6289C49.9375 84.323 50.5003 84.8858 51.1944 84.8858H77.508C78.2021 84.8858 78.7649 84.323 78.7649 83.6289C78.7649 82.9349 78.2023 82.3721 77.508 82.3721Z" fill="white"/>
<path d="M71.4751 77.4888H51.1944C50.5003 77.4888 49.9375 78.0516 49.9375 78.7456C49.9375 79.4396 50.5003 80.0025 51.1944 80.0025H71.4754C72.1694 80.0025 72.7322 79.4396 72.7322 78.7456C72.7322 78.0516 72.1694 77.4888 71.4751 77.4888Z" fill="white"/>
<path opacity="0.8" fill-rule="evenodd" clip-rule="evenodd" d="M21.4989 81.3273C19.518 81.3273 17.9062 79.7158 17.9062 77.7347C17.9062 75.7536 19.5178 74.1421 21.4989 74.1421C23.4799 74.1421 25.0915 75.7536 25.0915 77.7347C25.0915 79.7158 23.4797 81.3273 21.4989 81.3273ZM21.4988 76.6561C20.9041 76.6561 20.42 77.14 20.42 77.735C20.42 78.33 20.9039 78.8139 21.4988 78.8139C22.0938 78.8139 22.5777 78.33 22.5777 77.735C22.5777 77.14 22.0936 76.6561 21.4988 76.6561Z" fill="#EC631E"/>
<path fill-rule="evenodd" clip-rule="evenodd" d="M19.162 29.4455C17.1811 29.4455 15.5693 27.8339 15.5693 25.8529C15.5693 23.8718 17.1809 22.2603 19.162 22.2603C21.143 22.2603 22.7546 23.8718 22.7546 25.8529C22.7546 27.8339 21.143 29.4455 19.162 29.4455ZM19.1619 24.7743C18.5672 24.7743 18.083 25.2582 18.083 25.8532C18.083 26.4482 18.5669 26.9321 19.1619 26.9321C19.7569 26.9321 20.2408 26.4482 20.2408 25.8532C20.2408 25.2582 19.7569 24.7743 19.1619 24.7743Z" fill="#F6B696"/>
<path d="M107.578 33.8347C106.884 33.8347 106.321 33.2719 106.321 32.5778C106.321 31.746 105.644 31.0696 104.813 31.0696C104.119 31.0696 103.556 30.5068 103.556 29.8127C103.556 29.1187 104.119 28.5559 104.813 28.5559C105.644 28.5559 106.321 27.8794 106.321 27.0476C106.321 26.3536 106.884 25.7908 107.578 25.7908C108.272 25.7908 108.835 26.3536 108.835 27.0476C108.835 27.8794 109.511 28.5559 110.343 28.5559C111.037 28.5559 111.6 29.1187 111.6 29.8127C111.6 30.5068 111.037 31.0696 110.343 31.0696C109.511 31.0696 108.835 31.746 108.835 32.5778C108.835 33.2719 108.272 33.8347 107.578 33.8347Z" fill="#F6B696"/>
<path d="M107.154 97.5478C106.46 97.5478 105.897 96.985 105.897 96.291C105.897 95.4592 105.22 94.7827 104.389 94.7827C103.695 94.7827 103.132 94.2199 103.132 93.5259C103.132 92.8318 103.695 92.269 104.389 92.269C105.22 92.269 105.897 91.5925 105.897 90.7608C105.897 90.0667 106.46 89.5039 107.154 89.5039C107.848 89.5039 108.411 90.0667 108.411 90.7608C108.411 91.5925 109.087 92.269 109.919 92.269C110.613 92.269 111.176 92.8318 111.176 93.5259C111.176 94.2199 110.613 94.7827 109.919 94.7827C109.087 94.7827 108.411 95.4592 108.411 96.291C108.411 96.9852 107.848 97.5478 107.154 97.5478Z" fill="#F6B696"/>
<path opacity="0.8" d="M24.2632 92.8891C23.5691 92.8891 23.0063 92.3263 23.0063 91.6322C23.0063 90.8005 22.3299 90.124 21.4981 90.124C20.804 90.124 20.2412 89.5612 20.2412 88.8672C20.2412 88.1731 20.804 87.6103 21.4981 87.6103C22.3299 87.6103 23.0063 86.9339 23.0063 86.1021C23.0063 85.408 23.5691 84.8452 24.2632 84.8452C24.9572 84.8452 25.52 85.408 25.52 86.1021C25.52 86.9339 26.1965 87.6103 27.0283 87.6103C27.7223 87.6103 28.2851 88.1731 28.2851 88.8672C28.2851 89.5612 27.7223 90.124 27.0283 90.124C26.1965 90.124 25.52 90.8005 25.52 91.6322C25.52 92.3263 24.9572 92.8891 24.2632 92.8891Z" fill="#EC631E"/>
<rect opacity="0.6" x="34.3799" y="22.3074" width="5.0218" height="14.3938" fill="#F6B696"/>
<rect opacity="0.6" x="89.3008" y="22.2485" width="5.0218" height="14.3938" fill="#F6B696"/>
<rect x="42.1982" y="22.3074" width="44.3059" height="14.3347" rx="2" fill="#EC631E"/>
<defs>
<linearGradient id="paint0_linear" x1="0" y1="0" x2="0" y2="111.319" gradientUnits="userSpaceOnUse">
<stop stop-color="#F6B696"/>
<stop offset="1" stop-color="white" stop-opacity="0.01"/>
</linearGradient>
</defs>
</svg>
