<svg id="Icon_50B" data-name="Icon 50B" xmlns="http://www.w3.org/2000/svg" width="40" height="40" viewBox="0 0 40 40">
  <path id="Trazado_7696" data-name="Trazado 7696" d="M20,0A20,20,0,1,1,0,20,20,20,0,0,1,20,0Z" fill="#f3f4fa"/>
  <g id="visibility" transform="translate(-244.494 -108.834)">
    <g id="Grupo_4" data-name="Grupo 4">
      <g id="Grupo_3" data-name="Grupo 3">
        <path id="Trazado_1" data-name="Trazado 1" d="M273.213,128.626c-.138-.2-3.462-4.915-8.717-4.915-4.509,0-8.527,4.687-8.7,4.886a.367.367,0,0,0,0,.473c.169.2,4.187,4.886,8.7,4.886s8.527-4.687,8.7-4.886A.366.366,0,0,0,273.213,128.626Zm-8.717,4.6c-3.615,0-7.051-3.447-7.924-4.391.872-.945,4.3-4.391,7.924-4.391,4.229,0,7.214,3.442,7.943,4.371-.842.913-4.3,4.41-7.944,4.41Z" fill="#6f6e6d"/>
      </g>
    </g>
    <g id="Grupo_6" data-name="Grupo 6">
      <g id="Grupo_5" data-name="Grupo 5">
        <path id="Trazado_2" data-name="Trazado 2" d="M264.495,125.907a2.927,2.927,0,1,0,2.927,2.927A2.926,2.926,0,0,0,264.495,125.907Zm0,5.123a2.2,2.2,0,1,1,2.2-2.2h0A2.2,2.2,0,0,1,264.495,131.03Z" fill="#6f6e6d"/>
      </g>
    </g>
  </g>
</svg>
