<svg xmlns="http://www.w3.org/2000/svg" xmlns:xlink="http://www.w3.org/1999/xlink" width="197.775" height="175.315" viewBox="0 0 197.775 175.315"><defs><linearGradient id="a" x1="0.5" x2="0.5" y2="1" gradientUnits="objectBoundingBox"><stop offset="0" stop-color="#f6b696"/><stop offset="1" stop-color="#fff" stop-opacity="0"/></linearGradient></defs><path d="M1071.985,2754.05c-2.245,30.116,40.171,57.9,94.738,62.05s100.622-16.892,102.867-47.008a32.258,32.258,0,0,0-2.278-14.33,39.762,39.762,0,0,1-.988-26,55.316,55.316,0,0,0,2.109-10.938c2.739-30.315-19.784-57.232-49.819-59.518a54.021,54.021,0,0,0-52.459,30.05,35.2,35.2,0,0,1-26.748,19.568C1101.628,2712.918,1073.72,2730.773,1071.985,2754.05Z" transform="translate(-1071.9 -2647.949)" opacity="0.4" fill="url(#a)" style="isolation:isolate"/><g transform="translate(28.599)"><ellipse cx="12.448" cy="12.448" rx="12.448" ry="12.448" transform="matrix(0.16, -0.987, 0.987, 0.16, 0, 46.238)" fill="#ed8121" opacity="0.1"/><g transform="translate(11.563 3.558)"><g transform="translate(0.001 7.476)" opacity="0.1"><path d="M228.918,185.534l-29.012-10.012a2.111,2.111,0,0,0-2.685,1.307L181.6,222.107H124.545a3.559,3.559,0,0,0-3.56,3.56V241.09a3.559,3.559,0,0,0,3.56,3.56h2.6l2.977,12.863-8.811,8.811a5.548,5.548,0,0,0,7.846,7.846l3.914-3.914,4.131,17.85a3.561,3.561,0,0,0,3.471,2.755h65.823a3.561,3.561,0,0,0,3.471-2.755l4.131-17.85,3.914,3.914a5.548,5.548,0,0,0,7.846-7.846l-8.811-8.811,2.976-12.863h2.6a3.559,3.559,0,0,0,3.56-3.56V225.666a3.559,3.559,0,0,0-3.56-3.56H218.53l11.695-33.887A2.112,2.112,0,0,0,228.918,185.534ZM196.3,222.107l7.94-23.007a3.556,3.556,0,0,1,6.723,2.32l-7.139,20.687Z" transform="translate(-112.43 -126.581)" fill="#ea9e56"/><path d="M115.091,94.332l3.68-7.284,10.918,33.221a1.634,1.634,0,0,0,2.063,1.042l36.39-11.959a1.634,1.634,0,0,0,1.042-2.063L158.267,74.068l7.284,3.68a1.635,1.635,0,0,0,2.2-.722L172.9,66.817,185.6,72.589a1.319,1.319,0,0,0,1.746-.655l6.712-14.76,1.184,3.158a1.319,1.319,0,0,0,1.7.772l5.374-2.014a1.319,1.319,0,0,0,.772-1.7L199.151,46.9a1.319,1.319,0,0,0-.689-.738l-3.288-1.5a1.1,1.1,0,0,0-1.171.167,5.291,5.291,0,0,1-8.742-3.975,1.1,1.1,0,0,0-.644-.993l-3.369-1.532a1.1,1.1,0,0,0-.843-.029l-10.777,4.039a1.1,1.1,0,0,0-.645,1.419l2.166,5.779a1.1,1.1,0,0,0,1.419.645l3.361-1.26L170.578,60.7,151.15,50.879a1.635,1.635,0,0,0-1.247-.094l-8.012,2.633a1.614,1.614,0,0,0-1.115,1.389,11.047,11.047,0,0,1-19.348,6.358,1.614,1.614,0,0,0-1.722-.457l-8.012,2.633a1.633,1.633,0,0,0-.948.815L99.484,86.445a1.634,1.634,0,0,0,.722,2.2L112.9,95.054a1.634,1.634,0,0,0,2.2-.722Z" transform="translate(-99.307 -38.239)" fill="#f6b696"/></g><g transform="translate(69.604)"><path d="M328.247,38.09,322.873,40.1a1.319,1.319,0,0,1-1.7-.772l-1.184-3.158-6.712,14.76a1.319,1.319,0,0,1-1.746.655L295.61,44.347a1.1,1.1,0,0,1-.547-1.459l6.8-14.957L298.5,29.19a1.1,1.1,0,0,1-1.419-.645l-2.166-5.779a1.1,1.1,0,0,1,.645-1.419l10.777-4.039a1.1,1.1,0,0,1,.843.029l3.369,1.532a1.1,1.1,0,0,1,.644.993,5.291,5.291,0,0,0,8.742,3.975,1.1,1.1,0,0,1,1.171-.167l3.288,1.5a1.318,1.318,0,0,1,.689.738l3.932,10.49a1.317,1.317,0,0,1-.771,1.7Z" transform="translate(-294.847 -17.237)" fill="#fff"/></g><g transform="translate(66.764 48.825)"><path d="M304.9,155.829l-17.912,51.9a2.111,2.111,0,0,0,1.307,2.685l9.148,3.157a2.111,2.111,0,0,0,2.685-1.307L311.915,178.1a3.556,3.556,0,0,1,6.723,2.32l-11.791,34.167a2.111,2.111,0,0,0,1.307,2.685l9.148,3.157a2.111,2.111,0,0,0,2.685-1.307l17.912-51.9a2.112,2.112,0,0,0-1.307-2.685l-29.012-10.012A2.113,2.113,0,0,0,304.9,155.829Z" transform="translate(-286.867 -154.405)" fill="#fff"/><path d="M368.234,167.217l-1.264,3.663-21.891-7.553-11.113-3.837,1.264-3.659a2.112,2.112,0,0,1,2.684-1.31l12.74,4.4,16.274,5.617A2.113,2.113,0,0,1,368.234,167.217Z" transform="translate(-317.201 -154.404)" fill="#f6b696"/><path d="M288.361,293l-1.378,3.992a2.111,2.111,0,0,0,1.307,2.685l9.148,3.157a2.111,2.111,0,0,0,2.685-1.307l1.378-3.992Z" transform="translate(-286.867 -243.667)" fill="#d9d9ff"/><path d="M344.166,312.26l-1.378,3.992a2.111,2.111,0,0,0,1.307,2.685l9.148,3.157a2.111,2.111,0,0,0,2.685-1.307l1.378-3.992Z" transform="translate(-322.808 -256.07)" fill="#d9d9ff"/><g transform="translate(13.33 2.157)"><path d="M403.59,193.019a10.319,10.319,0,0,0,2.046,9.892l2.427,2.794,3.436-9.957Z" transform="translate(-375.061 -181.431)" fill="#ec631e" opacity="0.84"/><path d="M335.66,171.42a10.34,10.34,0,0,1-7.714,6.525l-3.631.7,2.623-7.607.812-2.349Z" transform="translate(-324.316 -165.762)" fill="#ec631e" opacity="0.84"/><path d="M358.069,167.55l-1.9-.655a.423.423,0,0,1-.262-.537l2.034-5.895,2.695.93-2.034,5.895A.422.422,0,0,1,358.069,167.55Z" transform="translate(-344.65 -160.464)" fill="#ec631e" opacity="0.84"/><path d="M398.779,181.6l-1.9-.655a.422.422,0,0,1-.261-.537l2.034-5.895,2.695.93-2.034,5.895A.422.422,0,0,1,398.779,181.6Z" transform="translate(-370.869 -169.512)" fill="#ec631e" opacity="0.84"/></g></g><g transform="translate(0 12.464)"><path d="M165.548,79.3l-7.283-3.677,10.917,33.221a1.634,1.634,0,0,1-1.043,2.061l-36.389,11.96a1.638,1.638,0,0,1-2.065-1.043L118.769,88.6l-3.681,7.283a1.633,1.633,0,0,1-2.2.723L100.2,90.189A1.633,1.633,0,0,1,99.479,88l3.382-6.7,7.881-15.594a1.643,1.643,0,0,1,.95-.815l1.9-.623,6.112-2.008a1.607,1.607,0,0,1,1.719.456,11.049,11.049,0,0,0,19.35-6.357,1.616,1.616,0,0,1,1.114-1.392l8.013-2.634a1.629,1.629,0,0,1,1.246.1l22.29,11.262a1.629,1.629,0,0,1,.719,2.193l-6.411,12.693a1.634,1.634,0,0,1-2.2.719Z" transform="translate(-99.304 -52.252)" fill="#fff"/><g transform="translate(26.866 19.519)"><path d="M180.815,131.679a4.209,4.209,0,0,1-3.994-2.89l-1.829-5.565a4.2,4.2,0,0,1,2.679-5.3l1.8-.593a4.206,4.206,0,0,1,5.3,2.68l1.829,5.565a4.206,4.206,0,0,1-2.679,5.3l-1.8.593a4.188,4.188,0,0,1-1.308.21Zm-.03-11a.635.635,0,0,0-.2.032l-1.8.592a.642.642,0,0,0-.409.81l1.829,5.565a.643.643,0,0,0,.81.409l1.8-.593a.642.642,0,0,0,.409-.81l-1.829-5.565a.641.641,0,0,0-.32-.372A.65.65,0,0,0,180.785,120.678Z" transform="translate(-174.779 -113.548)" fill="#6f6f6e"/><path d="M213.23,121.759a1.78,1.78,0,0,1-1.493-2.75c1.255-1.93,3.071-5.3,3.179-6.75a1.606,1.606,0,0,0-.548-1.385,1.042,1.042,0,0,0-1.021-.158,1.227,1.227,0,0,0-.781,1.547,1.78,1.78,0,1,1-3.382,1.111,4.79,4.79,0,0,1,3.052-6.039,4.59,4.59,0,0,1,4.326.736,5.131,5.131,0,0,1,1.9,4.453,13.353,13.353,0,0,1-1.422,4.329l1.753-.576a1.78,1.78,0,0,1,1.111,3.382l-6.123,2.013A1.764,1.764,0,0,1,213.23,121.759Z" transform="translate(-196.783 -107.089)" fill="#6f6f6e"/></g></g><g transform="translate(7.254 95.527)"><path d="M232.992,341.073l-10.7,46.256a3.561,3.561,0,0,1-3.471,2.755H153a3.561,3.561,0,0,1-3.471-2.755l-10.7-46.256Z" transform="translate(-132.009 -321.329)" fill="#fff"/><path d="M224.973,308.148H126.9a3.559,3.559,0,0,1-3.56-3.56V289.165a3.559,3.559,0,0,1,3.56-3.56h98.072a3.559,3.559,0,0,1,3.56,3.56v15.424A3.56,3.56,0,0,1,224.973,308.148Z" transform="translate(-122.04 -285.605)" fill="#fff"/><g transform="translate(25.834 33.393)" opacity="0.65"><path d="M195.821,381.2v18.154a1.78,1.78,0,1,1-3.56,0V381.2a1.78,1.78,0,0,1,3.56,0Z" transform="translate(-192.261 -379.416)" fill="#ec631e"/><path d="M230.962,379.42a1.78,1.78,0,0,1,1.78,1.78v18.154a1.78,1.78,0,0,1-3.56,0V381.2a1.78,1.78,0,0,1,1.78-1.78" transform="translate(-216.04 -379.419)" fill="#ec631e"/><path d="M267.881,379.42a1.78,1.78,0,0,1,1.78,1.78v18.154a1.78,1.78,0,0,1-3.56,0V381.2a1.78,1.78,0,0,1,1.78-1.78" transform="translate(-239.817 -379.419)" fill="#ec631e"/><path d="M304.8,379.42a1.78,1.78,0,0,1,1.78,1.78v18.154a1.78,1.78,0,0,1-3.56,0V381.2a1.78,1.78,0,0,1,1.78-1.78" transform="translate(-263.594 -379.419)" fill="#ec631e"/><path d="M343.5,381.2v18.154a1.78,1.78,0,1,1-3.56,0V381.2a1.78,1.78,0,0,1,3.56,0Z" transform="translate(-287.374 -379.416)" fill="#ec631e"/></g><g transform="translate(0 6.634)"><path d="M335.755,349.672a5.548,5.548,0,0,1-7.846,0l-35.959-35.958a5.548,5.548,0,1,1,7.846-7.846l35.958,35.958a5.548,5.548,0,0,1,0,7.846Z" transform="translate(-229.585 -304.243)" fill="#ec631e" opacity="0.59"/><path d="M165.113,305.868a5.548,5.548,0,0,0-7.846,0l-35.958,35.958a5.548,5.548,0,1,0,7.846,7.846l35.958-35.958A5.548,5.548,0,0,0,165.113,305.868Z" transform="translate(-119.684 -304.243)" fill="#ec631e" opacity="0.59"/></g></g></g><g transform="translate(0.001 14.192)"><path d="M12.448,0A12.448,12.448,0,1,1,0,12.448,12.448,12.448,0,0,1,12.448,0Z" transform="matrix(0.16, -0.987, 0.987, 0.16, 0, 24.573)" fill="#ec631e" opacity="0.8"/><g transform="translate(8.327 8.32)"><path d="M103.743,82.4a1.78,1.78,0,0,1-1.78-1.78V72.262a1.78,1.78,0,1,1,3.56,0v8.361A1.78,1.78,0,0,1,103.743,82.4Z" transform="translate(-97.782 -70.482)" fill="#fff"/><path d="M100.359,85.787H92a1.78,1.78,0,1,1,0-3.56h8.361a1.78,1.78,0,0,1,0,3.56Z" transform="translate(-90.218 -78.046)" fill="#fff"/></g></g><g transform="translate(0.061 1.778)"><path d="M12.448,0A12.448,12.448,0,1,1,0,12.448,12.448,12.448,0,0,1,12.448,0Z" transform="matrix(0.34, -0.94, 0.94, 0.34, 85.529, 51.03)" fill="#ec631e" opacity="0.8"/><path d="M186.839,97.582a1.78,1.78,0,0,0,3.365,1.161l7.768-22.508a3.891,3.891,0,0,0-2.409-4.948l-16.691-5.76a14.214,14.214,0,0,0-7.7-23.723l1.975-4.343a3.1,3.1,0,0,0,3.6,1.088l5.374-2.014h0a3.1,3.1,0,0,0,1.814-3.989L180,22.055a3.079,3.079,0,0,0-1.618-1.732L175.1,18.828a2.887,2.887,0,0,0-3.069.437,3.512,3.512,0,0,1-5.8-2.639,2.887,2.887,0,0,0-1.687-2.6l-3.37-1.532a2.865,2.865,0,0,0-2.2-.075l-10.777,4.039a2.883,2.883,0,0,0-1.687,3.71l2.166,5.779a2.884,2.884,0,0,0,3.089,1.845l-2.845,6.255-17.774-8.981a3.391,3.391,0,0,0-2.605-.2L120.521,27.5a3.383,3.383,0,0,0-2.333,2.937,9.267,9.267,0,0,1-16.23,5.334,3.382,3.382,0,0,0-3.621-.98l-3.227,1.06a14.227,14.227,0,1,0-13.89,17.3h.038l-4.176,8.264a3.418,3.418,0,0,0,1.507,4.587l12.691,6.413a3.417,3.417,0,0,0,4.587-1.507l1.742-3.448L107.185,96.6a3.413,3.413,0,0,0,4.309,2.177l36.39-11.96a3.418,3.418,0,0,0,2.177-4.309l-9.577-29.139,3.448,1.743a3.418,3.418,0,0,0,4.587-1.507l4.389-8.685,4.466,2.031A14.2,14.2,0,0,0,160.321,67.4l-13.93,40.365H90.609A5.345,5.345,0,0,0,85.27,113.1v15.424a5.345,5.345,0,0,0,5.339,5.339h1.184l2.435,10.522L86.114,152.5a7.328,7.328,0,0,0,10.363,10.363l1.646-1.646,3.408,14.724a5.315,5.315,0,0,0,5.2,4.136h65.826a5.316,5.316,0,0,0,5.2-4.135l3.408-14.725,1.646,1.646A7.328,7.328,0,0,0,193.176,152.5l-8.114-8.114,2.435-10.522h1.184a5.345,5.345,0,0,0,5.339-5.339V113.1a5.345,5.345,0,0,0-5.339-5.339H172.387l6.325-18.327a5.336,5.336,0,0,0-10.088-3.482L161.1,107.762h-10.94L163.5,69.092a14.185,14.185,0,0,0,12.045-.947L194.4,74.652a.331.331,0,0,1,.205.422ZM95.446,133.865h9.3l-7.555,7.555ZM93.96,160.347a3.768,3.768,0,0,1-5.329-5.329l35.959-35.959a3.768,3.768,0,0,1,5.329,5.329Zm96.7,0a3.772,3.772,0,0,1-5.329,0l-35.959-35.958a3.768,3.768,0,1,1,5.329-5.329l35.959,35.959A3.771,3.771,0,0,1,190.659,160.347ZM182.1,141.42l-7.555-7.555h9.3Zm8.365-28.318v15.424a1.782,1.782,0,0,1-1.78,1.78h-17.7l-13.763-13.763a7.328,7.328,0,0,0-10.363,10.363l3.4,3.4H136.475a1.78,1.78,0,1,0,0,3.56h17.339L178.2,158.251l-3.908,16.889a1.772,1.772,0,0,1-1.734,1.379H106.732A1.772,1.772,0,0,1,105,175.14l-3.908-16.889,31.345-31.345a7.328,7.328,0,0,0-10.363-10.363l-13.763,13.763h-17.7a1.782,1.782,0,0,1-1.78-1.78V113.1a1.782,1.782,0,0,1,1.78-1.78h98.072a1.781,1.781,0,0,1,1.779,1.779ZM171.988,87.115a1.776,1.776,0,1,1,3.358,1.159l-6.725,19.488h-3.759ZM70.551,38.928A10.669,10.669,0,1,1,81.219,49.6,10.681,10.681,0,0,1,70.551,38.928ZM145.41,51.871l-7.154-3.615a1.78,1.78,0,0,0-2.493,2.144l10.873,33.083L110.522,95.352,99.649,62.269a1.78,1.78,0,0,0-1.557-1.219c-.045,0-.09,0-.134,0a1.78,1.78,0,0,0-1.588.977l-3.614,7.154L80.324,62.895l5.27-10.429A14.254,14.254,0,0,0,95.434,39.5l3.923-1.289a12.827,12.827,0,0,0,22.369-7.352l7.863-2.584,22.1,11.169Zm9.72-13.561a3.393,3.393,0,0,0-1.7-1.981l-1.334-.674,4.643-10.209a1.78,1.78,0,0,0-2.245-2.4l-2.727,1.022-1.69-4.51,9.88-3.7,2.732,1.242a7.071,7.071,0,0,0,11.321,5.149l2.732,1.242,3.7,9.88-4.51,1.69-1.022-2.727a1.78,1.78,0,0,0-3.287-.112l-4.27,9.39a14.146,14.146,0,0,0-7.217,2.692l-5.618-2.555.418-.826A3.391,3.391,0,0,0,155.13,38.31Zm2.722,17.471a10.669,10.669,0,1,1,10.669,10.669A10.681,10.681,0,0,1,157.852,55.781Z" transform="translate(-66.991 -12.234)" fill="#6f6e6d"/><path d="M304.441,316.549a1.78,1.78,0,0,0-1.78,1.78v.041a1.78,1.78,0,1,0,3.56,0v-.041A1.78,1.78,0,0,0,304.441,316.549Z" transform="translate(-218.773 -208.226)" fill="#6f6f6e"/><path d="M231.32,316.549a1.78,1.78,0,0,0-1.78,1.78v.041a1.78,1.78,0,1,0,3.56,0v-.041A1.78,1.78,0,0,0,231.32,316.549Z" transform="translate(-171.68 -208.226)" fill="#6f6f6e"/><path d="M349,129.748a1.78,1.78,0,0,1-1.78-1.78v-8.361a1.78,1.78,0,1,1,3.56,0v8.361A1.78,1.78,0,0,1,349,129.748Z" transform="translate(-247.473 -80.241)" fill="#fff"/><path d="M345.619,133.131h-8.361a1.78,1.78,0,0,1,0-3.56h8.361a1.78,1.78,0,0,1,0,3.56Z" transform="translate(-239.909 -87.804)" fill="#fff"/></g><path d="M127.506,218.847a1.78,1.78,0,0,1-1.259-3.038l3.56-3.56a1.78,1.78,0,1,1,2.517,2.517l-3.56,3.56A1.775,1.775,0,0,1,127.506,218.847Z" transform="translate(-104.759 -138.939)" fill="#ec631e" opacity="0.74"/><path d="M426.788,379.533a1.78,1.78,0,0,1-1.259-3.038l3.56-3.56a1.78,1.78,0,0,1,2.517,2.517l-3.56,3.56A1.775,1.775,0,0,1,426.788,379.533Z" transform="translate(-297.51 -242.428)" fill="#ec631e" opacity="0.74"/><g transform="translate(59.19)" opacity="0.74"><path d="M242,14.357a1.775,1.775,0,0,1-1.259-.521l-2.3-2.3-2.3,2.3a1.78,1.78,0,0,1-2.517-2.517l3.56-3.56a1.78,1.78,0,0,1,2.517,0l3.56,3.56A1.78,1.78,0,0,1,242,14.357Z" transform="translate(-233.105 -7.238)" fill="#ec631e"/></g><g transform="translate(122.16 44.837)"><path d="M418.908,140.319a1.775,1.775,0,0,1-1.259-.521l-2.3-2.3-2.3,2.3a1.78,1.78,0,0,1-2.517-2.517l3.56-3.56a1.78,1.78,0,0,1,2.517,0l3.56,3.56a1.78,1.78,0,0,1-1.259,3.038Z" transform="translate(-410.009 -133.2)" fill="#e8ba8f"/></g><g transform="translate(4.872 123.451)" opacity="0.74"><path d="M89.2,361.171a1.775,1.775,0,0,1-1.259-.521l-2.3-2.3-2.094,2.094a1.78,1.78,0,0,1-2.517-2.517l3.353-3.353a1.78,1.78,0,0,1,2.517,0l3.56,3.56a1.779,1.779,0,0,1-1.258,3.038Z" transform="translate(-80.508 -354.053)" fill="#ec631e"/></g><g transform="translate(122.16 44.837)" opacity="0.08"><path d="M418.908,140.319a1.775,1.775,0,0,1-1.259-.521l-2.3-2.3-2.3,2.3a1.78,1.78,0,0,1-2.517-2.517l3.56-3.56a1.78,1.78,0,0,1,2.517,0l3.56,3.56a1.78,1.78,0,0,1-1.259,3.038Z" transform="translate(-410.009 -133.2)" fill="#ec631e"/></g></g></svg>