<svg xmlns="http://www.w3.org/2000/svg" xmlns:xlink="http://www.w3.org/1999/xlink" width="114.359" height="120" viewBox="0 0 114.359 120"><defs><linearGradient id="a" x1="0.5" x2="0.5" y2="1" gradientUnits="objectBoundingBox"><stop offset="0" stop-color="#f6b696" stop-opacity="0.4"/><stop offset="1" stop-color="#fff" stop-opacity="0"/></linearGradient></defs><path d="M76.384,1.141c-22.114,6.5-17.678,21.934-20.152,39.033C53.146,61.514,39.8,50.571,24.476,62.1c-26.5,19.922-7.249,63.9,25.657,57.22,17.473-3.546,21.044-16.429,28.17-30.193,9.219-17.806,24.506-12.952,38.219-24.576,27.81-23.574-8.766-72.632-40.137-63.407Z" transform="translate(-12.034 0)" fill="url(#a)"/><g transform="translate(12.649 8.934)"><path d="M21115.408-637.292h-54l.043-49.688,29.658-8.093,29.525,8.189v17.242s-11.225-.3-14.395,9.063,1.877,13.033,1.877,13.033Z" transform="translate(-21048.656 715.697)" fill="#fff"/><path d="M290.9,64.976a1.172,1.172,0,0,1-1.172-1.172,1.408,1.408,0,0,0-1.406-1.406,1.172,1.172,0,0,1,0-2.344,1.408,1.408,0,0,0,1.406-1.406,1.172,1.172,0,1,1,2.344,0,1.408,1.408,0,0,0,1.406,1.406,1.172,1.172,0,0,1,0,2.344,1.408,1.408,0,0,0-1.406,1.406A1.172,1.172,0,0,1,290.9,64.976Z" transform="translate(-230.83 -50.985)" fill="#ec631e" opacity="0.47"/><path d="M390.987,347.158a1.172,1.172,0,0,1-1.172-1.172,1.408,1.408,0,0,0-1.406-1.406,1.172,1.172,0,1,1,0-2.344,1.408,1.408,0,0,0,1.406-1.406,1.172,1.172,0,0,1,2.344,0,1.408,1.408,0,0,0,1.406,1.406,1.172,1.172,0,1,1,0,2.344,1.408,1.408,0,0,0-1.406,1.406A1.172,1.172,0,0,1,390.987,347.158Z" transform="translate(-305.677 -260.777)" fill="#ec631e" opacity="0.47"/><path d="M362.677,383.941a1.172,1.172,0,0,1-1.172-1.172,1.408,1.408,0,0,0-1.406-1.406,1.172,1.172,0,0,1,0-2.344,1.408,1.408,0,0,0,1.406-1.406,1.172,1.172,0,0,1,2.344,0,1.408,1.408,0,0,0,1.406,1.406,1.172,1.172,0,0,1,0,2.344,1.408,1.408,0,0,0-1.406,1.406A1.172,1.172,0,0,1,362.677,383.941Z" transform="translate(-284.002 -288.939)" fill="#ec631e" opacity="0.47"/><path d="M62.128,325.716a1.171,1.171,0,0,1-.829-.343l-2.651-2.651a1.172,1.172,0,0,1,0-1.657l2.651-2.651a1.172,1.172,0,0,1,1.657,0l2.651,2.651a1.172,1.172,0,0,1,0,1.657l-2.651,2.651a1.171,1.171,0,0,1-.829.343Zm-.994-3.823.994.994.994-.994-.994-.993Z" transform="translate(-58.305 -248.716)" fill="#ec631e" opacity="0.47"/><path d="M231.42,29.8a1.168,1.168,0,0,1-.829-.343l-2.651-2.651a1.172,1.172,0,0,1,0-1.657l2.651-2.651a1.172,1.172,0,0,1,1.657,0l2.651,2.651a1.172,1.172,0,0,1,0,1.657l-2.651,2.651A1.169,1.169,0,0,1,231.42,29.8Zm-.993-3.822.993.993.993-.993-.993-.994Z" transform="translate(-187.919 -22.157)" fill="#ec631e" opacity="0.47"/><g transform="translate(4.528 11.481)"><g transform="translate(1.337 1.337)"><path d="M75.2,15.359v8.022L39.1,14.022,3,23.382V15.359L39.1,6Z" transform="translate(-3 -6)" fill="#f6b696"/><path d="M30,39h9.359V60.393H30Z" transform="translate(6.1 5.123)" fill="#f6b696"/><path d="M23,39h9.359V60.393H23Z" transform="translate(3.741 5.123)" fill="#f6b696"/><path d="M49.371,29.685v5.8a11.388,11.388,0,0,0-1.324.882H36V29.685a6.685,6.685,0,1,1,13.371,0Z" transform="translate(8.123 -0.27)" fill="#ec631e"/><path d="M27.371,29.685v6.685H14V29.685a6.685,6.685,0,1,1,13.371,0Z" transform="translate(0.708 -0.27)" fill="#ec631e"/><path d="M55.708,31.067c-.441-.04-.882-.067-1.337-.067a13.325,13.325,0,0,0-6.685,1.792,11.389,11.389,0,0,0-1.324.882A13.35,13.35,0,0,0,41,44.371c0,5,6.137,13.651,10.095,18.719.4.521.789,1,1.136,1.431,1.284,1.591,2.139,2.581,2.139,2.581s.856-.989,2.139-2.581c3.784-4.693,11.231-14.641,11.231-20.149a13.379,13.379,0,0,0-12.033-13.3ZM54.371,49.719a5.348,5.348,0,1,1,5.348-5.348A5.348,5.348,0,0,1,54.371,49.719Z" transform="translate(9.808 2.426)" fill="#f6b696"/></g><path d="M46,42.685A6.685,6.685,0,1,0,52.685,36,6.685,6.685,0,0,0,46,42.685Zm10.7,0a4.011,4.011,0,1,1-4.011-4.011A4.011,4.011,0,0,1,56.7,42.685Z" transform="translate(12.83 5.449)" fill="#6f6e6d"/><path d="M72.168,72.267C76.233,67.026,82.223,58.4,82.223,53.134A14.736,14.736,0,0,0,70.19,38.68V23.719l5.014,1.3a1.428,1.428,0,0,0,.334.04,1.337,1.337,0,0,0,1.337-1.337V15.7a1.337,1.337,0,0,0-1-1.3L39.772,5.04a1.413,1.413,0,0,0-.669,0L3,14.4a1.337,1.337,0,0,0-1,1.3v8.022a1.317,1.317,0,0,0,.521,1.056,1.357,1.357,0,0,0,1.15.241l5.014-1.3V71.853a1.337,1.337,0,0,0,1.337,1.337H59.734c-1.711.749-2.915,1.845-2.915,3.343,0,3.209,5.549,4.68,10.7,4.68s10.7-1.471,10.7-4.68C78.212,74.219,75.391,72.882,72.168,72.267Zm7.381-19.133c0,5.174-7.929,15.737-12.033,20.671-4.1-4.934-12.033-15.5-12.033-20.671a12.033,12.033,0,0,1,24.067,0ZM48.8,41.1V35.752a5.348,5.348,0,1,1,10.7,0V40.82l-.4.281ZM4.674,21.994V16.726L39.437,7.714,74.2,16.726v5.268L39.772,13.062a1.413,1.413,0,0,0-.669,0ZM38.1,70.516H31.415V51.8H38.1Zm9.359,0H40.774V51.8H47.46Zm2.674,0V50.46A1.337,1.337,0,0,0,48.8,49.123H30.078a1.337,1.337,0,0,0-1.337,1.337V70.516H11.359V23.023l28.078-7.287,28.078,7.287v15.4a14.8,14.8,0,0,0-5.348,1.016v-3.69a8.022,8.022,0,1,0-16.045,0V41.1H44.786v2.674H56.177a14.651,14.651,0,0,0-3.369,9.359c0,4.706,4.8,12.114,8.718,17.382Zm17.382,8.022c-5.134,0-7.862-1.471-8.022-1.979.12-.414,1.832-1.471,5.295-1.872.949,1.177,1.6,1.925,1.725,2.059a1.337,1.337,0,0,0,2.006,0c.12-.134.775-.882,1.725-2.059,3.463.4,5.174,1.457,5.295,1.818C75.377,77.067,72.65,78.538,67.516,78.538Z" transform="translate(-2 -5)" fill="#6f6e6d"/><path d="M26,46h2.674v2.674H26Z" transform="translate(6.089 8.819)" fill="#6f6e6d"/><path d="M32,46h2.674v2.674H32Z" transform="translate(8.112 8.819)" fill="#6f6e6d"/><path d="M29.382,35.371V30.022a8.022,8.022,0,0,0-16.045,0v5.348H12v2.674H30.719V35.371Zm-2.674,0h-10.7V30.022a5.348,5.348,0,1,1,10.7,0Z" transform="translate(1.371 0.73)" fill="#6f6e6d"/></g></g></svg>