<svg width="36" height="30" viewBox="0 0 36 30" fill="none" xmlns="http://www.w3.org/2000/svg">
<path fill-rule="evenodd" clip-rule="evenodd" d="M0.897949 3.63428C0.897949 1.71327 2.42663 0.128906 4.34538 0.128906H28.6802C30.599 0.128906 32.1276 1.71327 32.1276 3.63428V11.2824C32.1276 11.693 31.7947 12.0259 31.3841 12.0259C30.9735 12.0259 30.6405 11.693 30.6405 11.2824V3.63428C30.6405 2.5047 29.7481 1.61604 28.6802 1.61604H4.34538C3.27752 1.61604 2.38508 2.5047 2.38508 3.63428V17.4434C2.38508 18.5729 3.27752 19.4616 4.34538 19.4616H15.0257C15.4363 19.4616 15.7692 19.7946 15.7692 20.2052C15.7692 20.6157 15.4363 20.9487 15.0257 20.9487H4.34538C2.42663 20.9487 0.897949 19.3643 0.897949 17.4434L0.897949 3.63428Z" fill="#EC631E"/>
<path fill-rule="evenodd" clip-rule="evenodd" d="M0.897949 5.33341C0.897949 4.92275 1.23086 4.58984 1.64151 4.58984H31.3841C31.7947 4.58984 32.1277 4.92275 32.1277 5.33341C32.1277 5.74407 31.7947 6.07697 31.3841 6.07697H1.64151C1.23085 6.07697 0.897949 5.74406 0.897949 5.33341Z" fill="#EC631E"/>
<path fill-rule="evenodd" clip-rule="evenodd" d="M3.87109 12.7685C3.87109 12.3579 4.204 12.0249 4.61465 12.0249H7.58891C7.99957 12.0249 8.33247 12.3579 8.33247 12.7685C8.33247 13.1791 7.99956 13.512 7.58891 13.512H4.61465C4.20399 13.512 3.87109 13.1791 3.87109 12.7685Z" fill="#EC631E"/>
<path fill-rule="evenodd" clip-rule="evenodd" d="M3.87109 16.4855C3.87109 16.0749 4.204 15.7419 4.61465 15.7419H10.5632C10.9738 15.7419 11.3067 16.0749 11.3067 16.4855C11.3067 16.8961 10.9738 17.2291 10.5632 17.2291H4.61465C4.20399 17.2291 3.87109 16.8961 3.87109 16.4855Z" fill="#EC631E"/>
<path fill-rule="evenodd" clip-rule="evenodd" d="M26.9234 14.9991C23.2274 14.9991 20.2313 17.9952 20.2313 21.6912C20.2313 25.3871 23.2274 28.3833 26.9234 28.3833C30.6193 28.3833 33.6154 25.3871 33.6154 21.6912C33.6154 17.9952 30.6193 14.9991 26.9234 14.9991ZM18.7441 21.6912C18.7441 17.1739 22.4061 13.512 26.9234 13.512C31.4407 13.512 35.1026 17.1739 35.1026 21.6912C35.1026 26.2085 31.4407 29.8704 26.9234 29.8704C22.4061 29.8704 18.7441 26.2085 18.7441 21.6912Z" fill="#EC631E"/>
<path fill-rule="evenodd" clip-rule="evenodd" d="M29.3694 20.4226C29.6599 20.1323 30.1307 20.1323 30.4211 20.4226C30.7114 20.713 30.7114 21.1838 30.4211 21.4742L27.4469 24.4485C27.1564 24.7388 26.6856 24.7388 26.3952 24.4485L24.1645 22.2178C23.8742 21.9274 23.8742 21.4566 24.1645 21.1661C24.4549 20.8758 24.9258 20.8758 25.2162 21.1661L26.921 22.8711L29.3694 20.4226Z" fill="#EC631E"/>
</svg>

