<svg width="114" height="120" viewBox="0 0 114 120" fill="none" xmlns="http://www.w3.org/2000/svg">
<path opacity="0.4" d="M5.73965 31.4952C10.4104 18.0041 19.2007 -5.3999 37.9339 1.12514C45.2307 3.67101 47.516 13.3233 54.8529 14.526C61.7788 15.6586 67.6423 8.85296 74.2376 7.55997C82.4264 5.95628 91.0864 8.10122 94.1936 16.0896C97.9121 25.6417 86.9469 36.3664 89.603 45.0965C93.9731 59.4897 110.15 35.6347 113.037 58.8582C117.086 91.3632 81.0533 149.227 56.7773 101.647C44.4689 77.5213 31.5692 94.4403 12.385 82.4326C-5.83704 71.0463 -0.194031 48.6347 5.73965 31.4952Z" fill="url(#paint0_linear_3_16703)"/>
<path opacity="0.6" d="M52.7477 116.011H52.0361V115.3C52.0361 114.698 51.5449 114.207 50.9436 114.207C50.3422 114.207 49.851 114.698 49.851 115.3V116.011H49.1394C48.538 116.011 48.0469 116.502 48.0469 117.104C48.0469 117.705 48.538 118.196 49.1394 118.196H49.851V118.908C49.851 119.509 50.3422 120 50.9436 120C51.5449 120 52.0361 119.509 52.0361 118.908V118.196H52.7477C53.3491 118.196 53.8402 117.705 53.8402 117.104C53.8402 116.492 53.3591 116.011 52.7477 116.011Z" fill="#F6B696"/>
<path fill-rule="evenodd" clip-rule="evenodd" d="M99.867 76.5505C98.113 76.5505 96.6797 75.1172 96.6797 73.3631C96.6797 71.6091 98.113 70.1758 99.867 70.1758C101.621 70.1758 103.054 71.6091 103.054 73.3631C103.054 75.1172 101.621 76.5505 99.867 76.5505ZM99.867 72.3608C99.3158 72.3608 98.8647 72.8119 98.8647 73.3631C98.8647 73.9144 99.3158 74.3654 99.867 74.3654C100.418 74.3654 100.869 73.9144 100.869 73.3631C100.869 72.8119 100.418 72.3608 99.867 72.3608Z" fill="#EC631E"/>
<path d="M69.4772 32.4181L69.9783 31.9169L70.4795 32.4181C70.6899 32.6285 70.9706 32.7388 71.2512 32.7388C71.5319 32.7388 71.8125 32.6285 72.023 32.4181C72.454 31.9871 72.454 31.3055 72.023 30.8745L70.7501 29.6016C70.3291 29.1706 69.6375 29.1706 69.2065 29.6016L67.9336 30.8745C67.5026 31.3055 67.5026 31.9871 67.9336 32.4181C68.3646 32.839 69.0562 32.839 69.4772 32.4181Z" fill="#F6B696"/>
<path d="M87.6185 41.94C87.3378 41.94 87.0572 41.8297 86.8467 41.6192C86.4157 41.1882 86.4157 40.5067 86.8467 40.0757L89.0317 37.8906C89.4527 37.4596 90.1443 37.4596 90.5753 37.8906C91.0063 38.3216 91.0063 39.0032 90.5753 39.4342L88.3902 41.6192C88.1798 41.8297 87.8991 41.94 87.6185 41.94Z" fill="#F6B696"/>
<path d="M85.9749 96.7554C85.6943 96.7554 85.4136 96.6451 85.2031 96.4347C84.7721 96.0037 84.7721 95.3221 85.2031 94.8911L87.3882 92.7061C87.8091 92.2751 88.5007 92.2751 88.9317 92.7061C89.3627 93.1371 89.3627 93.8186 88.9317 94.2496L86.7467 96.4347C86.5362 96.6552 86.2556 96.7554 85.9749 96.7554Z" fill="#F6B696"/>
<path d="M13.6985 44.606C13.4179 44.606 13.1372 44.4957 12.9268 44.2852C12.4958 43.8542 12.4958 43.1727 12.9268 42.7417L15.1118 40.5566C15.5328 40.1257 16.2244 40.1257 16.6554 40.5566C17.0864 40.9876 17.0864 41.6692 16.6554 42.1002L14.4703 44.2852C14.2598 44.4957 13.9792 44.606 13.6985 44.606Z" fill="#F6B696"/>
<path d="M19.0208 80.9107C18.7401 80.9107 18.4595 80.8004 18.249 80.5899L16.8357 79.1767L15.4225 80.5899C15.0015 81.0209 14.3099 81.0209 13.8789 80.5899C13.4479 80.1589 13.4479 79.4774 13.8789 79.0464L16.0639 76.8613C16.4849 76.4303 17.1765 76.4303 17.6075 76.8613L19.7925 79.0464C20.2235 79.4774 20.2235 80.1589 19.7925 80.5899C19.5821 80.8104 19.3014 80.9107 19.0208 80.9107Z" fill="#EC631E"/>
<path d="M96.1184 32.5591C95.8378 32.5591 95.5571 32.4488 95.3466 32.2384L93.9334 30.8251L92.5201 32.2384C92.0992 32.6694 91.4076 32.6694 90.9766 32.2384C90.5456 31.8074 90.5456 31.1258 90.9766 30.6948L93.1616 28.5098C93.5826 28.0788 94.2742 28.0788 94.7052 28.5098L96.8902 30.6948C97.3212 31.1258 97.3212 31.8074 96.8902 32.2384C96.6797 32.4488 96.3991 32.5591 96.1184 32.5591Z" fill="#EC631E"/>
<path opacity="0.1" d="M82.3563 80.9108H24.3826C22.9393 80.9108 21.7666 79.7381 21.7666 78.2948V41.3797C21.7666 39.9364 22.9393 38.7637 24.3826 38.7637H82.3563C83.7996 38.7637 84.9723 39.9364 84.9723 41.3797V78.2948C84.9823 79.7381 83.8096 80.9108 82.3563 80.9108Z" fill="#EC631E"/>
<path d="M82.3563 76.1979H24.3826C22.9393 76.1979 21.7666 75.0252 21.7666 73.5819V36.6668C21.7666 35.2235 22.9393 34.0508 24.3826 34.0508H82.3563C83.7996 34.0508 84.9723 35.2235 84.9723 36.6668V73.5819C84.9823 75.0252 83.8096 76.1979 82.3563 76.1979Z" fill="#EC631E"/>
<path d="M40.7114 67.3477H29.5757C28.8541 67.3477 28.2627 66.7564 28.2627 66.0347C28.2627 65.313 28.844 64.7217 29.5757 64.7217H40.7114C41.4331 64.7217 42.0244 65.313 42.0244 66.0347C42.0244 66.7564 41.4331 67.3477 40.7114 67.3477Z" fill="white"/>
<path d="M44.7707 61.9659H29.255C28.7137 61.9659 28.2627 61.3745 28.2627 60.6529C28.2627 59.9312 28.7037 59.3398 29.255 59.3398H44.7707C45.312 59.3398 45.763 59.9312 45.763 60.6529C45.763 61.3846 45.312 61.9659 44.7707 61.9659Z" fill="white"/>
<path opacity="0.8" d="M34.1761 38.3525H37.0226C40.2801 38.3525 42.9262 40.9986 42.9262 44.2561V50.7712C42.9262 54.0287 40.2801 56.6748 37.0226 56.6748H34.1761C30.9186 56.6748 28.2725 54.0287 28.2725 50.7712V44.2561C28.2725 40.9986 30.9085 38.3525 34.1761 38.3525Z" fill="white"/>
<path d="M57.6303 44.335H46.4947C45.773 44.335 45.1816 43.7437 45.1816 43.022C45.1816 42.3003 45.763 41.709 46.4947 41.709H57.6303C58.352 41.709 58.9434 42.3003 58.9434 43.022C58.9434 43.7537 58.352 44.335 57.6303 44.335Z" fill="white"/>
<path d="M57.8901 53.1055H46.7544C46.0328 53.1055 45.4414 52.5142 45.4414 51.7925C45.4414 51.0709 46.0227 50.4795 46.7544 50.4795H57.8901C58.6118 50.4795 59.2031 51.0709 59.2031 51.7925C59.2031 52.5242 58.6118 53.1055 57.8901 53.1055Z" fill="white"/>
<path d="M62.2901 64.8818H77.5854C79.4296 64.8818 80.9331 66.3753 80.9331 68.2296C80.9331 70.0738 79.4396 71.5773 77.5854 71.5773H62.2901C60.4458 71.5773 58.9424 70.0838 58.9424 68.2296C58.9424 66.3753 60.4358 64.8818 62.2901 64.8818Z" fill="white"/>
<path d="M85.3833 52.5133V72.8202C85.3833 74.6744 83.8698 76.1879 82.0155 76.1879H25.1344C23.2801 76.1879 21.7666 74.6744 21.7666 72.8202V37.4185C21.7666 35.5643 23.2801 34.0508 25.1344 34.0508H76.172" stroke="#6F6E6D" stroke-width="2" stroke-miterlimit="10"/>
<path d="M100.198 40.6767C100.198 47.3822 94.7653 52.8147 88.0599 52.8147C81.3544 52.8147 75.9219 47.3822 75.9219 40.6767C75.9219 40.1255 75.962 39.5742 76.0321 39.043H100.088C100.168 39.5742 100.198 40.1154 100.198 40.6767Z" fill="white"/>
<path d="M88.0599 48.1744C94.7635 48.1744 100.198 42.74 100.198 36.0364C100.198 29.3328 94.7635 23.8984 88.0599 23.8984C81.3562 23.8984 75.9219 29.3328 75.9219 36.0364C75.9219 42.74 81.3562 48.1744 88.0599 48.1744Z" fill="#F6B696"/>
<path fill-rule="evenodd" clip-rule="evenodd" d="M88.0594 48.2244C81.3339 48.2244 75.8613 42.7518 75.8613 36.0262C75.8613 29.3007 81.3339 23.8281 88.0594 23.8281C94.785 23.8281 100.258 29.3007 100.258 36.0262C100.258 42.7518 94.785 48.2244 88.0594 48.2244ZM88.0594 25.7425C82.3864 25.7425 77.7657 30.3632 77.7657 36.0363C77.7657 41.7094 82.3864 46.33 88.0594 46.33C93.7325 46.33 98.3532 41.7094 98.3532 36.0363C98.3532 30.3532 93.7325 25.7425 88.0594 25.7425Z" fill="#6F6E6D"/>
<path d="M88.06 41.0674C87.649 41.0674 87.2581 40.9071 86.9675 40.6164L83.4393 37.0782C82.8379 36.4768 82.8379 35.4946 83.4393 34.8932C84.0407 34.2918 85.023 34.2918 85.6244 34.8932L88.06 37.3288L100.408 24.9803C101.01 24.379 101.992 24.379 102.593 24.9803C103.195 25.5817 103.195 26.564 102.593 27.1654L89.1525 40.6064C88.8618 40.897 88.4709 41.0674 88.06 41.0674Z" fill="white"/>
<defs>
<linearGradient id="paint0_linear_3_16703" x1="56.6771" y1="-0.00446356" x2="56.6771" y2="119.706" gradientUnits="userSpaceOnUse">
<stop stop-color="#F6B696"/>
<stop offset="1" stop-color="white" stop-opacity="0"/>
</linearGradient>
</defs>
</svg>
