<svg id="Illus_26" data-name="Illus 26" xmlns="http://www.w3.org/2000/svg" width="174.002" height="158.65" viewBox="0 0 174.002 158.65">
  <g id="Group_1885" data-name="Group 1885" transform="translate(5.972)">
    <path id="Path_7325" data-name="Path 7325" d="M127.786,219.965a2.059,2.059,0,0,1-1.456-3.515l4.119-4.119a2.059,2.059,0,0,1,2.912,2.912l-4.119,4.119A2.054,2.054,0,0,1,127.786,219.965Z" transform="translate(-125.727 -127.501)" fill="#ec631e"/>
    <path id="Path_7326" data-name="Path 7326" d="M427.068,380.651a2.059,2.059,0,0,1-1.457-3.515l4.119-4.119a2.059,2.059,0,1,1,2.912,2.912l-4.119,4.119A2.054,2.054,0,0,1,427.068,380.651Z" transform="translate(-279.978 -222.002)" fill="#ec631e"/>
    <g id="Group_1405" data-name="Group 1405" transform="translate(65.988)">
      <path id="Path_7327" data-name="Path 7327" d="M243.4,15.475a2.054,2.054,0,0,1-1.456-.6l-2.662-2.662-2.662,2.662a2.059,2.059,0,0,1-2.912-2.912l4.119-4.119a2.06,2.06,0,0,1,2.912,0l4.119,4.119a2.059,2.059,0,0,1-1.456,3.515Z" transform="translate(-233.105 -7.238)" fill="#f6b696"/>
    </g>
    <g id="Group_1406" data-name="Group 1406" transform="translate(138.853 51.882)">
      <path id="Path_7328" data-name="Path 7328" d="M420.306,141.437a2.054,2.054,0,0,1-1.456-.6l-2.662-2.662-2.662,2.662a2.059,2.059,0,0,1-2.912-2.912l4.119-4.119a2.06,2.06,0,0,1,2.912,0l4.119,4.119a2.059,2.059,0,0,1-1.456,3.515Z" transform="translate(-410.009 -133.2)" fill="#e8ba8f"/>
    </g>
    <g id="Group_1407" data-name="Group 1407" transform="translate(3.135 142.849)">
      <path id="Path_7329" data-name="Path 7329" d="M90.566,362.29a2.054,2.054,0,0,1-1.456-.6l-2.662-2.662-2.424,2.424a2.059,2.059,0,0,1-2.912-2.912l3.88-3.88a2.06,2.06,0,0,1,2.912,0l4.119,4.119a2.059,2.059,0,0,1-1.456,3.515Z" transform="translate(-80.508 -354.053)" fill="#ec631e"/>
    </g>
    <g id="Group_1472" data-name="Group 1472" transform="translate(138.853 51.883)">
      <path id="Path_7328-2" data-name="Path 7328" d="M420.306,141.437a2.054,2.054,0,0,1-1.456-.6l-2.662-2.662-2.662,2.662a2.059,2.059,0,0,1-2.912-2.912l4.119-4.119a2.06,2.06,0,0,1,2.912,0l4.119,4.119a2.059,2.059,0,0,1-1.456,3.515Z" transform="translate(-410.009 -133.2)" fill="#f6b696"/>
    </g>
  </g>
  <path id="Path_7163" data-name="Path 7163" d="M1408.23,2706.142a5.476,5.476,0,1,1,3.875-1.6A5.463,5.463,0,0,1,1408.23,2706.142Zm0-7.177a1.7,1.7,0,1,0,1.2.5A1.694,1.694,0,0,0,1408.23,2698.965Z" transform="translate(-1239.709 -2593.762)" fill="#ec631e"/>
  <path id="Path_7164" data-name="Path 7164" d="M1077.292,2811.634a5.477,5.477,0,1,1,3.875-1.6A5.462,5.462,0,0,1,1077.292,2811.634Zm0-7.177a1.7,1.7,0,1,0,1.2.5A1.695,1.695,0,0,0,1077.292,2804.457Z" transform="translate(-1071.815 -2795.48)" fill="#f6b696" opacity="0.66" style="isolation: isolate"/>
  <g id="Group_1186" data-name="Group 1186" transform="translate(23.305 113.266)">
    <path id="Path_7129" data-name="Path 7129" d="M1519.745,2850.441a1.029,1.029,0,0,1-.73-.3l-1.335-1.335-1.335,1.335a1.033,1.033,0,0,1-1.46-1.46l2.065-2.066a1.033,1.033,0,0,1,1.461,0l2.066,2.066a1.033,1.033,0,0,1-.73,1.763Z" transform="translate(-1514.581 -2846.31)" fill="#f6b696"/>
  </g>
  <path id="Path_7128" data-name="Path 7128" d="M1490.957,2740.292a1.033,1.033,0,0,1-.73-1.763l2.065-2.066a1.033,1.033,0,0,1,1.461,1.46l-2.066,2.066A1.027,1.027,0,0,1,1490.957,2740.292Z" transform="translate(-1466.938 -2700.521)" fill="#f6b696"/>
  <path id="Path_7127" data-name="Path 7127" d="M1514.189,3052.5a1.033,1.033,0,0,1-.73-1.763l2.065-2.065a1.033,1.033,0,0,1,1.461,1.46l-2.066,2.066A1.031,1.031,0,0,1,1514.189,3052.5Z" transform="translate(-1367.508 -2921.979)" fill="#ec631e"/>
  <g id="Group_3614" data-name="Group 3614" transform="translate(-31.715 -56.447)">
    <g id="_093---Payday" data-name="093---Payday" transform="translate(62.216 95.217)">
      <path id="Shape" d="M95.534,8.719V19.875H10V5H91.815A3.73,3.73,0,0,1,95.534,8.719Z" transform="translate(6.74 4.297)" fill="#f6b696"/>
      <path id="Shape-2" data-name="Shape" d="M56.578,5H51a3.73,3.73,0,0,1,3.719,3.719V19.875H60.3V8.719A3.73,3.73,0,0,0,56.578,5Z" transform="translate(41.977 4.297)" fill="#ec631e"/>
      <path id="Shape-3" data-name="Shape" d="M95.534,13V44.61H21.157a3.73,3.73,0,0,0-3.719,3.719V70.642H13.719A3.73,3.73,0,0,1,10,66.924V13Z" transform="translate(6.74 11.173)" fill="#fff"/>
      <path id="Rectangle-path" d="M53,13h5.578V44.61H53Z" transform="translate(43.696 11.173)" fill="#f6b696"/>
      <path id="Shape-4" data-name="Shape" d="M16.883,5,2.121,65.432A3.682,3.682,0,0,0,5.541,70.08H16.883Z" transform="translate(-0.143 4.297)" fill="#f6b696"/>
      <rect id="Rectangle-path-2" data-name="Rectangle-path" width="8" height="15" rx="2" transform="translate(86.784 1.783)" fill="#ec631e"/>
      <rect id="Rectangle-path-3" data-name="Rectangle-path" width="7" height="15" rx="2" transform="translate(66.784 1.783)" fill="#ec631e"/>
      <rect id="Rectangle-path-4" data-name="Rectangle-path" width="8" height="15" rx="2" transform="translate(45.784 1.783)" fill="#ec631e"/>
      <rect id="Rectangle-path-5" data-name="Rectangle-path" width="7" height="15" rx="2" transform="translate(25.784 1.783)" fill="#ec631e"/>
      <rect id="Rectangle-path-6" data-name="Rectangle-path" width="85" height="54" rx="2" transform="translate(24.784 55.783)" fill="#fff"/>
      <path id="Shape-5" data-name="Shape" d="M60.578,30H55a3.73,3.73,0,0,1,3.719,3.719V80.2A3.73,3.73,0,0,1,55,83.924h5.578A3.73,3.73,0,0,0,64.3,80.2V33.719A3.73,3.73,0,0,0,60.578,30Z" transform="translate(45.415 25.783)" fill="#f6b696"/>
      <circle id="Oval" cx="6" cy="6" r="6" transform="translate(25.784 32.783)" fill="#f6b696"/>
      <ellipse id="Oval-2" data-name="Oval" cx="5.5" cy="6" rx="5.5" ry="6" transform="translate(44.784 32.783)" fill="#f6b696"/>
      <circle id="Oval-3" data-name="Oval" cx="6" cy="6" r="6" transform="translate(81.784 32.783)" fill="#f6b696"/>
      <ellipse id="Oval-4" data-name="Oval" cx="5" cy="5.5" rx="5" ry="5.5" transform="translate(35.784 75.783)" fill="#f6b696"/>
      <ellipse id="Oval-5" data-name="Oval" cx="6" cy="5.5" rx="6" ry="5.5" transform="translate(86.784 75.783)" fill="#f6b696"/>
      <path id="Shape-6" data-name="Shape" d="M66.875,51V62.157a3.73,3.73,0,0,1-3.719,3.719H52A14.875,14.875,0,0,1,66.875,51Z" transform="translate(42.836 43.831)" fill="#f6b696"/>
      <path id="Shape-7" data-name="Shape" d="M58.719,52.09V62.157A3.73,3.73,0,0,1,55,65.875h5.578A3.73,3.73,0,0,0,64.3,62.157V51A14.834,14.834,0,0,0,58.719,52.09Z" transform="translate(45.415 43.831)" fill="#ec631e"/>
      <path id="Shape-8" data-name="Shape" d="M28.875,30A14.875,14.875,0,0,1,14,44.875V33.719A3.73,3.73,0,0,1,17.719,30Z" transform="translate(10.178 25.783)" fill="#f6b696"/>
      <path id="Shape-9" data-name="Shape" d="M28.875,65.875H17.719A3.73,3.73,0,0,1,14,62.157V51A14.875,14.875,0,0,1,28.875,65.875Z" transform="translate(10.178 43.831)" fill="#f6b696"/>
      <path id="Shape-10" data-name="Shape" d="M66.875,33.719V44.875A14.875,14.875,0,0,1,52,30H63.157A3.73,3.73,0,0,1,66.875,33.719Z" transform="translate(42.836 25.783)" fill="#f6b696"/>
      <path id="Shape-11" data-name="Shape" d="M60.578,30H55a3.73,3.73,0,0,1,3.719,3.719V43.786a14.834,14.834,0,0,0,5.578,1.09V33.719A3.73,3.73,0,0,0,60.578,30Z" transform="translate(45.415 25.783)" fill="#ec631e"/>
      <path id="Shape-12" data-name="Shape" d="M7.7,65.432,22.461,5H16.883L2.121,65.432A3.682,3.682,0,0,0,5.541,70.08h5.578A3.682,3.682,0,0,1,7.7,65.432Z" transform="translate(-0.143 4.297)" fill="#fff"/>
      <path id="Rectangle-path-7" data-name="Rectangle-path" d="M0,0H14.875V3.719H0Z" transform="translate(0.146 69.275) rotate(-76.284)" fill="#fff"/>
      <g id="Group_3613" data-name="Group 3613">
        <path id="Shape-13" data-name="Shape" d="M3.894,36.335a1.859,1.859,0,1,1-.019-3.719h.019a1.859,1.859,0,1,1,0,3.719Z" transform="translate(-0.114 28.031)" fill="#6f6f6e"/>
        <path id="Shape-14" data-name="Shape" d="M106.99,53.924h-1.859V13.016a5.578,5.578,0,0,0-5.578-5.578H97.693V5.578a5.578,5.578,0,0,0-11.157,0V7.438h-9.3V5.578a5.578,5.578,0,0,0-11.157,0V7.438h-9.3V5.578a5.578,5.578,0,1,0-11.157,0V7.438h-9.3V5.578a5.578,5.578,0,1,0-11.157,0V7.438H17.737a1.832,1.832,0,0,0-1.772,1.426h-.033L4.7,54.84a1.86,1.86,0,0,0,3.613.883l7.566-30.978V72.518H6.395a1.6,1.6,0,0,1-1.259-.638,1.977,1.977,0,0,1-.355-1.707,1.86,1.86,0,1,0-3.615-.881,5.684,5.684,0,0,0,1.045,4.887,5.3,5.3,0,0,0,4.184,2.058h9.483V78.1a5.578,5.578,0,0,0,5.578,5.578h1.859v22.313a5.578,5.578,0,0,0,5.578,5.578h78.1a5.578,5.578,0,0,0,5.578-5.578V59.5A5.578,5.578,0,0,0,106.99,53.924Zm1.859,5.578V68.65A13.016,13.016,0,0,1,97.842,57.642h9.148a1.859,1.859,0,0,1,1.859,1.859ZM27.035,72.408A16.757,16.757,0,0,0,41.8,57.642H94.084a16.757,16.757,0,0,0,14.766,14.766V93.081a16.757,16.757,0,0,0-14.766,14.766H41.8A16.757,16.757,0,0,0,27.035,93.081Zm0-3.758V59.5a1.859,1.859,0,0,1,1.859-1.859h9.148A13.016,13.016,0,0,1,27.035,68.65ZM90.255,5.578a1.859,1.859,0,0,1,3.719,0v7.438a1.859,1.859,0,0,1-3.719,0Zm-20.454,0a1.859,1.859,0,0,1,3.719,0v7.438a1.859,1.859,0,0,1-3.719,0Zm-20.454,0a1.859,1.859,0,1,1,3.719,0v7.438a1.859,1.859,0,1,1-3.719,0Zm-20.454,0a1.859,1.859,0,0,1,3.719,0v7.438a1.859,1.859,0,1,1-3.719,0Zm-3.719,5.578v1.859a5.578,5.578,0,1,0,11.157,0V11.157h9.3v1.859a5.578,5.578,0,1,0,11.157,0V11.157h9.3v1.859a5.578,5.578,0,0,0,11.157,0V11.157h9.3v1.859a5.578,5.578,0,0,0,11.157,0V11.157h1.859a1.859,1.859,0,0,1,1.859,1.859v9.3H19.6V11.157Zm-3.719,68.8A1.859,1.859,0,0,1,19.6,78.1V26.032h81.815V53.924H28.894A5.578,5.578,0,0,0,23.316,59.5V79.956Zm5.578,26.032V96.839a13.016,13.016,0,0,1,11.008,11.008H28.894a1.859,1.859,0,0,1-1.859-1.859Zm79.956,1.859H97.842a13.016,13.016,0,0,1,11.008-11.008v9.148a1.859,1.859,0,0,1-1.859,1.859Z" transform="translate(-0.997)" fill="#6f6e6d"/>
        <path id="Shape-15" data-name="Shape" d="M21.438,31.875A7.438,7.438,0,1,0,14,24.438,7.438,7.438,0,0,0,21.438,31.875Zm0-11.157a3.719,3.719,0,1,1-3.719,3.719A3.719,3.719,0,0,1,21.438,20.719Z" transform="translate(10.178 14.61)" fill="#6f6e6d"/>
        <path id="Shape-16" data-name="Shape" d="M31.438,31.875A7.438,7.438,0,1,0,24,24.438,7.438,7.438,0,0,0,31.438,31.875Zm0-11.157a3.719,3.719,0,1,1-3.719,3.719A3.719,3.719,0,0,1,31.438,20.719Z" transform="translate(18.772 14.61)" fill="#6f6e6d"/>
        <path id="Shape-17" data-name="Shape" d="M51.438,31.875A7.438,7.438,0,1,0,44,24.438,7.438,7.438,0,0,0,51.438,31.875Zm0-11.157a3.719,3.719,0,1,1-3.719,3.719A3.719,3.719,0,0,1,51.438,20.719Z" transform="translate(35.961 14.61)" fill="#6f6e6d"/>
        <path id="Shape-18" data-name="Shape" d="M37.393,31.326a1.859,1.859,0,0,0,1.315.545h.186a1.859,1.859,0,0,0,1.363-.818L47.694,19.9A1.86,1.86,0,0,0,44.6,17.833L38.421,27.1l-.257-.257a1.859,1.859,0,0,0-2.629,2.629Z" transform="translate(28.237 14.615)" fill="#6f6e6d"/>
        <path id="Shape-19" data-name="Shape" d="M35.723,61.891a1.859,1.859,0,1,0-3.719,0A9.314,9.314,0,0,0,39.442,71v2.045a1.859,1.859,0,0,0,3.719,0V71a9.3,9.3,0,0,0,0-18.222v-11a5.578,5.578,0,0,1,3.719,5.236,1.859,1.859,0,0,0,3.719,0A9.314,9.314,0,0,0,43.161,37.9V35.859a1.859,1.859,0,1,0-3.719,0V37.9a9.3,9.3,0,0,0,0,18.222v11A5.578,5.578,0,0,1,35.723,61.891Zm11.157,0a5.578,5.578,0,0,1-3.719,5.236V56.655A5.578,5.578,0,0,1,46.88,61.891ZM35.723,47.016a5.578,5.578,0,0,1,3.719-5.236V52.252A5.578,5.578,0,0,1,35.723,47.016Z" transform="translate(25.643 29.221)" fill="#6f6e6d"/>
        <path id="Shape-20" data-name="Shape" d="M33.875,47.438a7.438,7.438,0,1,0-7.438,7.438A7.438,7.438,0,0,0,33.875,47.438Zm-11.157,0a3.719,3.719,0,1,1,3.719,3.719A3.719,3.719,0,0,1,22.719,47.438Z" transform="translate(14.475 34.377)" fill="#6f6e6d"/>
        <path id="Shape-21" data-name="Shape" d="M54.438,54.875A7.438,7.438,0,1,0,47,47.438,7.438,7.438,0,0,0,54.438,54.875Zm0-11.157a3.719,3.719,0,1,1-3.719,3.719A3.719,3.719,0,0,1,54.438,43.719Z" transform="translate(38.539 34.377)" fill="#6f6e6d"/>
      </g>
    </g>
  </g>
</svg>
