<svg xmlns="http://www.w3.org/2000/svg" width="26.807" height="26.71" viewBox="0 0 26.807 26.71">
  <g id="iconfinder_4_5378820" transform="translate(-158.681 -156.85)">
    <rect id="Rectangle_457" data-name="Rectangle 457" width="24.17" height="13.129" transform="translate(160 169.431)" fill="none" stroke="#ec631e" stroke-linecap="round" stroke-linejoin="round" stroke-width="2"/>
    <path id="Path_6715" data-name="Path 6715" d="M239.439,249.85h4.138a.019.019,0,0,1,.019.019v4.009a2.087,2.087,0,0,1-2.088,2.088h0a2.087,2.087,0,0,1-2.087-2.087v-4.011A.019.019,0,0,1,239.439,249.85Z" transform="translate(-69.422 -80.419)" fill="none" stroke="#ec631e" stroke-linecap="round" stroke-linejoin="round" stroke-width="2"/>
    <path id="Path_6716" data-name="Path 6716" d="M165.161,157.85h13.847a5.161,5.161,0,0,1,5.161,5.161H160a5.161,5.161,0,0,1,5.161-5.161Z" transform="translate(0 0)" fill="none" stroke="#ec631e" stroke-linecap="round" stroke-linejoin="round" stroke-width="2"/>
    <line id="Line_149" data-name="Line 149" x1="2.832" y2="6.42" transform="translate(181.338 163.011)" fill="none" stroke="#ec631e" stroke-linecap="round" stroke-linejoin="round" stroke-width="2"/>
    <line id="Line_150" data-name="Line 150" x2="2.832" y2="6.42" transform="translate(160 163.011)" fill="none" stroke="#ec631e" stroke-linecap="round" stroke-linejoin="round" stroke-width="2"/>
  </g>
</svg>
