<svg xmlns="http://www.w3.org/2000/svg" width="29.923" height="26" viewBox="0 0 29.923 26">
  <g id="house-op" transform="translate(-1.07 -3)">
    <path id="Path_6712" data-name="Path 6712" d="M30,15a1,1,0,0,1-.58-.19L16,5.23,2.58,14.81a1,1,0,0,1-1.16-1.62l14-10a1,1,0,0,1,1.16,0l14,10A1,1,0,0,1,30,15Z" fill="#ec631e"/>
    <path id="Path_6713" data-name="Path 6713" d="M5,9A1,1,0,0,1,4,8V4A1,1,0,0,1,5,3H9A1,1,0,0,1,9,5H6V8A1,1,0,0,1,5,9Z" fill="#ec631e"/>
    <path id="Path_6714" data-name="Path 6714" d="M25,29H20a1,1,0,0,1-1-1V21H13v7a1,1,0,0,1-1,1H7a3,3,0,0,1-3-3V16a1,1,0,0,1,2,0V26a1,1,0,0,0,1,1h4V20a1,1,0,0,1,1-1h8a1,1,0,0,1,1,1v7h4a1,1,0,0,0,1-1V16a1,1,0,0,1,2,0V26a3,3,0,0,1-3,3Z" fill="#ec631e"/>
  </g>
</svg>
