<svg xmlns="http://www.w3.org/2000/svg" width="28.792" height="28.792" viewBox="0 0 28.792 28.792">
  <g id="black" transform="translate(-13.154 -13.846)">
    <g id="whatsapp" transform="translate(13.154 13.846)">
      <path id="Path_6700" data-name="Path 6700" d="M14.811,28.9a14.158,14.158,0,0,1-6.832-1.745L.154,29.638,2.7,22.113A13.882,13.882,0,0,1,.677,14.871,14.135,14.135,0,1,1,14.811,28.9Zm0-25.816A11.851,11.851,0,0,0,2.928,14.871a11.671,11.671,0,0,0,2.263,6.914L3.707,26.164l4.566-1.451A11.823,11.823,0,1,0,14.811,3.08ZM21.948,18.1c-.087-.143-.318-.229-.664-.4s-2.051-1-2.368-1.118-.549-.172-.78.172-.895,1.118-1.1,1.347-.4.258-.751.086A9.479,9.479,0,0,1,13.5,16.482a10.351,10.351,0,0,1-1.927-2.38c-.2-.344-.021-.53.152-.7.156-.154.346-.4.52-.6a2.323,2.323,0,0,0,.346-.574.628.628,0,0,0-.029-.6c-.087-.172-.78-1.863-1.068-2.552S10.92,8.5,10.717,8.5s-.433-.029-.664-.029a1.279,1.279,0,0,0-.924.43,3.844,3.844,0,0,0-1.212,2.867,6.652,6.652,0,0,0,1.415,3.555c.173.229,2.4,3.813,5.918,5.19s3.523.917,4.158.86a3.5,3.5,0,0,0,2.339-1.634,2.864,2.864,0,0,0,.2-1.635Z" transform="translate(-0.154 -0.846)" fill="#ec631e" fill-rule="evenodd"/>
    </g>
  </g>
</svg>
