<svg id="Icon_13" data-name="Icon 13" xmlns="http://www.w3.org/2000/svg" width="78" height="78" viewBox="0 0 78 78">
  <path id="Path_6827" data-name="Path 6827" d="M39,0A39,39,0,1,1,0,39,39,39,0,0,1,39,0Z" fill="#ec631e"/>
  <g id="Group_921" data-name="Group 921" transform="translate(1786.099 1108.747)">
    <g id="Group_917" data-name="Group 917" transform="translate(-1763.101 -1083.168)">
      <path id="Path_6736" data-name="Path 6736" d="M-1745.541-1059.558h-15.345a2.218,2.218,0,0,1-2.215-2.216v-19.179a2.217,2.217,0,0,1,2.215-2.214h27.536a2.217,2.217,0,0,1,2.214,2.214v11.644h-1.667v-11.644a.548.548,0,0,0-.547-.547h-27.536a.548.548,0,0,0-.548.547v19.179a.548.548,0,0,0,.548.547h15.345Z" transform="translate(1763.101 1083.168)" fill="#fff"/>
    </g>
    <g id="Group_918" data-name="Group 918" transform="translate(-1762.268 -1074.818)">
      <rect id="Rectangle_487" data-name="Rectangle 487" width="30.298" height="1.667" fill="#fff"/>
    </g>
    <g id="Group_919" data-name="Group 919" transform="translate(-1736.145 -1064.75)">
      <rect id="Rectangle_488" data-name="Rectangle 488" width="1.667" height="8.424" fill="#f6b696"/>
    </g>
    <g id="Group_920" data-name="Group 920" transform="translate(-1739.526 -1061.384)">
      <rect id="Rectangle_489" data-name="Rectangle 489" width="8.424" height="1.667" transform="matrix(1, -0.003, 0.003, 1, 0, 0.026)" fill="#f6b696"/>
    </g>
  </g>
</svg>
