<svg id="Icon_20" data-name="Icon 20" xmlns="http://www.w3.org/2000/svg" width="77" height="77" viewBox="0 0 77 77">
  <circle id="Ellipse_414" data-name="Ellipse 414" cx="38.5" cy="38.5" r="38.5" fill="#ec631e"/>
  <g id="Group_1057" data-name="Group 1057" transform="translate(23.045 23.045)">
    <g id="Group_999" data-name="Group 999" transform="translate(0 29.622)">
      <g id="Group_998" data-name="Group 998">
        <path id="Path_6770" data-name="Path 6770" d="M30.266,490.667H.644a.644.644,0,1,0,0,1.288H30.266a.644.644,0,1,0,0-1.288Z" transform="translate(0 -490.667)" fill="#fff"/>
      </g>
    </g>
    <g id="Group_1001" data-name="Group 1001" transform="translate(1.288 21.894)">
      <g id="Group_1000" data-name="Group 1000">
        <path id="Path_6771" data-name="Path 6771" d="M25.841,362.667H21.977a.644.644,0,0,0-.644.644v7.727a.644.644,0,0,0,.644.644h3.864a.644.644,0,0,0,.644-.644v-7.727A.644.644,0,0,0,25.841,362.667Zm-.644,7.727H22.621v-6.44H25.2v6.44Z" transform="translate(-21.333 -362.667)" fill="#fff"/>
      </g>
    </g>
    <g id="Group_1003" data-name="Group 1003" transform="translate(9.015 15.455)">
      <g id="Group_1002" data-name="Group 1002">
        <path id="Path_6772" data-name="Path 6772" d="M153.841,256h-3.864a.644.644,0,0,0-.644.644v14.167a.644.644,0,0,0,.644.644h3.864a.644.644,0,0,0,.644-.644V256.644A.644.644,0,0,0,153.841,256Zm-.644,14.167h-2.576V257.288H153.2Z" transform="translate(-149.333 -256)" fill="#fff"/>
      </g>
    </g>
    <g id="Group_1005" data-name="Group 1005" transform="translate(16.743 18.031)">
      <g id="Group_1004" data-name="Group 1004">
        <path id="Path_6773" data-name="Path 6773" d="M281.841,298.667h-3.864a.644.644,0,0,0-.644.644V310.9a.644.644,0,0,0,.644.644h3.864a.644.644,0,0,0,.644-.644V299.311A.644.644,0,0,0,281.841,298.667Zm-.644,11.591h-2.576v-10.3H281.2Z" transform="translate(-277.333 -298.667)" fill="#fff"/>
      </g>
    </g>
    <g id="Group_1007" data-name="Group 1007" transform="translate(24.47 10.303)">
      <g id="Group_1006" data-name="Group 1006">
        <path id="Path_6774" data-name="Path 6774" d="M409.841,170.667h-3.864a.644.644,0,0,0-.644.644v19.318a.644.644,0,0,0,.644.644h3.864a.644.644,0,0,0,.644-.644V171.311A.644.644,0,0,0,409.841,170.667Zm-.644,19.318h-2.576V171.955H409.2Z" transform="translate(-405.333 -170.667)" fill="#fff"/>
      </g>
    </g>
    <g id="Group_1052" data-name="Group 1052" transform="translate(1.288)">
      <g id="Group_1017" data-name="Group 1017" transform="translate(18.753 3.297)">
        <g id="Group_1016" data-name="Group 1016">
          <path id="Path_6779" data-name="Path 6779" d="M338.059,54.8a.644.644,0,0,0-.911,0l-5,5a.644.644,0,0,0,.911.911l5-5A.644.644,0,0,0,338.059,54.8Z" transform="translate(-331.963 -54.608)" fill="#fff"/>
        </g>
      </g>
      <g id="Group_1018" data-name="Group 1018" transform="translate(11.517 7.611)">
        <path id="Path_6780" data-name="Path 6780" d="M217.064,127.283l-4.137-1.18a.644.644,0,0,0-.353,1.239l4.137,1.18a.644.644,0,0,0,.353-1.239Z" transform="translate(-212.108 -126.078)" fill="#fff"/>
      </g>
      <g id="Group_1021" data-name="Group 1021" transform="translate(3.296 8.287)">
        <g id="Group_1020" data-name="Group 1020">
          <path id="Path_6781" data-name="Path 6781" d="M81.937,137.516a.644.644,0,0,0-.9-.1l-4.855,3.871a.644.644,0,0,0,.4,1.148.65.65,0,0,0,.4-.139l4.855-3.871A.643.643,0,0,0,81.937,137.516Z" transform="translate(-75.935 -137.273)" fill="#fff"/>
        </g>
      </g>
      <g id="Group_1009" data-name="Group 1009" transform="translate(0 11.591)">
        <g id="Group_1008" data-name="Group 1008">
          <path id="Path_6775" data-name="Path 6775" d="M23.909,192a2.576,2.576,0,1,0,2.576,2.576A2.578,2.578,0,0,0,23.909,192Zm0,3.864a1.288,1.288,0,1,1,1.288-1.288A1.289,1.289,0,0,1,23.909,195.864Z" transform="translate(-21.333 -192)" fill="#f6b696"/>
        </g>
      </g>
      <g id="Group_1011" data-name="Group 1011" transform="translate(7.727 5.152)">
        <g id="Group_1010" data-name="Group 1010">
          <path id="Path_6776" data-name="Path 6776" d="M151.909,85.333a2.576,2.576,0,1,0,2.576,2.576A2.578,2.578,0,0,0,151.909,85.333Zm0,3.864a1.288,1.288,0,1,1,1.288-1.288A1.289,1.289,0,0,1,151.909,89.2Z" transform="translate(-149.333 -85.333)" fill="#f6b696"/>
        </g>
      </g>
      <g id="Group_1013" data-name="Group 1013" transform="translate(15.455 7.727)">
        <g id="Group_1012" data-name="Group 1012">
          <path id="Path_6777" data-name="Path 6777" d="M279.909,128a2.576,2.576,0,1,0,2.576,2.576A2.578,2.578,0,0,0,279.909,128Zm0,3.864a1.288,1.288,0,1,1,1.288-1.288A1.289,1.289,0,0,1,279.909,131.864Z" transform="translate(-277.333 -128)" fill="#f6b696"/>
        </g>
      </g>
      <g id="Group_1015" data-name="Group 1015" transform="translate(23.182)">
        <g id="Group_1014" data-name="Group 1014">
          <path id="Path_6778" data-name="Path 6778" d="M407.909,0a2.576,2.576,0,1,0,2.576,2.576A2.578,2.578,0,0,0,407.909,0Zm0,3.864A1.288,1.288,0,1,1,409.2,2.576,1.289,1.289,0,0,1,407.909,3.864Z" transform="translate(-405.333)" fill="#f6b696"/>
        </g>
      </g>
    </g>
  </g>
</svg>
