<svg width="77" height="77" viewBox="0 0 77 77" fill="none" xmlns="http://www.w3.org/2000/svg">
<circle cx="38.5" cy="38.5" r="38.5" fill="#EC631E"/>
<path d="M38.9149 36.7724C38.5636 37.1237 38.5636 37.6871 38.9149 38.0384C40.3665 39.49 40.3665 41.8496 38.9149 43.3011L31.2926 50.9234C29.841 52.375 27.4814 52.375 26.0299 50.9234L24.8832 49.7768C23.4317 48.3252 23.4317 45.9656 24.8832 44.5141L32.5055 36.8917C32.8568 36.5404 32.8568 35.9771 32.5055 35.6258C32.1542 35.2745 31.5909 35.2745 31.2396 35.6258L23.6173 43.2481C22.5766 44.2887 22 45.674 22 47.1454C22 48.6168 22.57 50.0021 23.6173 51.0427L24.7639 52.1894C25.8377 53.2631 27.2495 53.8 28.6612 53.8C30.073 53.8 31.4848 53.2631 32.5586 52.1894L40.1809 44.5671C42.3284 42.4196 42.3284 38.9199 40.1809 36.7724C39.8362 36.4211 39.2662 36.4211 38.9149 36.7724Z" fill="white"/>
<path d="M52.3886 26.7573L51.2419 25.6106C49.0944 23.4631 45.5948 23.4631 43.4473 25.6106L35.825 33.2329C33.6775 35.3804 33.6775 38.8801 35.825 41.0276C36.1763 41.3789 36.7397 41.3789 37.0909 41.0276C37.4422 40.6763 37.4422 40.1129 37.0909 39.7616C35.6394 38.3101 35.6394 35.9505 37.0909 34.4989L44.7133 26.8766C46.1648 25.425 48.5244 25.425 49.976 26.8766L51.1226 28.0233C52.5742 29.4748 52.5742 31.8344 51.1226 33.286L43.5003 40.9083C43.149 41.2596 43.149 41.823 43.5003 42.1742C43.6727 42.3466 43.9046 42.4394 44.13 42.4394C44.3553 42.4394 44.5873 42.3532 44.7597 42.1742L52.382 34.5519C53.4226 33.5113 53.9992 32.126 53.9992 30.6546C53.9992 29.1832 53.4292 27.7979 52.3886 26.7573Z" fill="white"/>
</svg>