<svg width="77" height="77" viewBox="0 0 77 77" fill="none" xmlns="http://www.w3.org/2000/svg">
<circle cx="38.5" cy="38.5" r="38.5" fill="#EC631E"/>
<path fill-rule="evenodd" clip-rule="evenodd" d="M37.6016 25.1255V27.8757H34.8513V25.1255H37.6016ZM34.8513 41.283V45.2021H37.6016V41.283H34.8513ZM43.1021 56.2031V53.4529H40.3518V50.7026H37.6016V56.2031L43.1021 56.2031ZM48.6025 35.7825H40.3518V38.5327H48.6025V35.7825ZM48.6025 41.283H52.4529V38.5327H48.6025V41.283ZM48.6025 45.2021V47.9523H55.2031V41.283H52.4529V45.2021H48.6025ZM40.3518 21H37.6016V25.1254H40.3518V21ZM37.6016 33.3762H40.3518V27.8757H37.6016V30.626H34.8513V38.5329H37.6016V33.3762ZM20 35.7825V41.283H22.7502V38.5327H26.8756V35.7825H20ZM40.3518 41.283V38.5327H37.6016V41.283H40.3518ZM45.8523 44.0332H48.6025V41.283H45.8523V44.0332ZM52.4529 38.5327H55.2031V35.7825H52.4529V38.5327ZM43.1021 41.283H40.3518V45.2021H37.6016V47.9523H43.1021V41.283ZM34.8513 50.7026H37.6016V47.9524H34.8513V50.7026ZM43.1021 47.9524V50.7026H48.6025V47.9524H43.1021ZM51.3528 53.4529V50.7026H48.6025V53.4529H51.3528ZM55.2031 56.2031V53.4529H51.3528V56.2031H55.2031ZM45.8523 56.2031H48.6025V53.4529H45.8523V56.2031ZM32.3762 38.5327V35.7825H29.626V38.5327H26.8757V41.283H34.8514V38.5327H32.3762ZM32.3761 33.3761H20V21H32.3761V33.3761ZM29.6259 23.7502H22.7502V30.6259H29.6259V23.7502ZM27.5632 25.813H24.813V28.5632H27.5632V25.813ZM55.2032 21V33.3761H42.8271V21H55.2032ZM52.453 23.7502H45.5774V30.6259H52.453V23.7502ZM50.3901 25.813H47.6399V28.5632H50.3901V25.813ZM20 43.8271H32.3761V56.2032H20V43.8271ZM22.7502 53.453H29.6259V46.5774H22.7502V53.453ZM24.813 51.3901H27.5632V48.6399H24.813V51.3901Z" fill="white"/>
</svg>
