<svg width="51" height="51" viewBox="0 0 51 51" fill="none" xmlns="http://www.w3.org/2000/svg">
<g clip-path="url(#clip0)">
<path d="M25.017 49.533C21.7065 49.533 18.496 48.8852 15.4736 47.6063C12.5542 46.3715 9.93263 44.6035 7.68052 42.3525C5.42943 40.1004 3.66147 37.4789 2.42671 34.5594C1.14774 31.537 0.5 28.3265 0.5 25.016C0.5 21.7065 1.14774 18.496 2.42671 15.4736C3.66147 12.5542 5.42943 9.93264 7.68052 7.68056C9.93262 5.42849 12.5541 3.66053 15.4736 2.42573C18.496 1.14779 21.7065 0.5 25.017 0.5C28.3265 0.5 31.537 1.14779 34.5593 2.42573C37.4788 3.66053 40.1003 5.42849 42.3524 7.68056C44.6045 9.93263 46.3724 12.5542 47.6063 15.4736C48.8852 18.496 49.533 21.7065 49.533 25.016C49.533 28.3265 48.8852 31.537 47.6063 34.5594C46.3724 37.4788 44.6045 40.1004 42.3524 42.3525C40.1003 44.6035 37.4788 46.3715 34.5593 47.6063C31.537 48.8852 28.3265 49.533 25.017 49.533Z" fill="#F6B696"/>
<path fill-rule="evenodd" clip-rule="evenodd" d="M25.017 0.980405C21.7709 0.980405 18.6237 1.6157 15.661 2.86865C12.7992 4.07945 10.2285 5.81282 8.02066 8.0197C5.81278 10.2276 4.07942 12.7982 2.86864 15.661C1.61566 18.6238 0.980415 21.7709 0.980415 25.016C0.980415 28.2611 1.61567 31.4092 2.86864 34.372C4.07943 37.2338 5.81278 39.8044 8.02066 42.0123C10.2285 44.2202 12.7992 45.9535 15.661 47.1643C18.6237 48.4173 21.7709 49.0526 25.017 49.0526C28.2621 49.0526 31.4092 48.4173 34.372 47.1643C37.2348 45.9535 39.8054 44.2202 42.0123 42.0123C44.2202 39.8044 45.9535 37.2338 47.1643 34.372C48.4172 31.4092 49.0525 28.2611 49.0525 25.016C49.0525 21.7709 48.4172 18.6238 47.1643 15.661C45.9535 12.7982 44.2202 10.2276 42.0123 8.0197C39.8054 5.81282 37.2348 4.07945 34.372 2.86865C31.4092 1.6157 28.2621 0.980405 25.017 0.980405ZM25.017 0C38.8328 0 50.033 11.2001 50.033 25.016C50.033 38.8328 38.8328 50.033 25.017 50.033C11.2001 50.033 0 38.8328 0 25.016C0 11.2001 11.2001 0 25.017 0Z" fill="#EC631E"/>
</g>
<g clip-path="url(#clip1)">
<path fill-rule="evenodd" clip-rule="evenodd" d="M24.513 16.787C26.004 16.787 27.213 15.578 27.213 14.087C27.213 12.596 26.004 11.387 24.513 11.387C23.022 11.387 21.813 12.596 21.813 14.087C21.813 15.578 23.022 16.787 24.513 16.787ZM24.513 12.287V12.286H24.514C25.508 12.286 26.313 13.093 26.313 14.087C26.313 15.081 25.507 15.887 24.513 15.887C23.519 15.887 22.713 15.081 22.713 14.087C22.713 13.093 23.519 12.287 24.513 12.287Z" fill="#EC631E"/>
<path fill-rule="evenodd" clip-rule="evenodd" d="M39.8742 34.0561H38.1272V32.1771C38.1262 31.6522 37.7102 31.2322 37.1922 31.2091V22.9712C37.7102 22.9482 38.1272 22.5281 38.1282 22.0042V20.1251H39.7872C40.0362 20.1242 40.2382 19.9222 40.2382 19.6731V16.3731C40.2382 16.2152 40.1552 16.0682 40.0202 15.9862L24.7432 6.76716C24.5992 6.68015 24.4192 6.68015 24.2762 6.76716L9.00622 15.9862C8.87017 16.0682 8.7882 16.2152 8.7882 16.3731V19.6731C8.7882 19.9222 8.99017 20.1251 9.24017 20.1251H11.3522V22.0032C11.3522 22.5212 11.7602 22.9352 12.2702 22.9672V31.2132C11.7602 31.2452 11.3522 31.6592 11.3522 32.1771V34.0561H9.1532C8.9032 34.0561 8.70117 34.2582 8.70117 34.5082V37.8801C8.70117 38.1292 8.9032 38.3321 9.1532 38.3321H39.8742C40.1232 38.3321 40.3262 38.1292 40.3262 37.8801V34.5082C40.3262 34.2582 40.1232 34.0561 39.8742 34.0561ZM37.2272 34.0561H32.2752L32.2722 32.1771C32.2722 32.1372 32.3042 32.1041 32.3442 32.1041H32.7482L32.7532 32.1052H36.7402L36.7452 32.1041H37.1552C37.1952 32.1041 37.2272 32.1371 37.2272 32.1771L37.2272 34.0561ZM27.8902 34.0561V32.1771C27.8892 31.6522 27.4732 31.2322 26.9542 31.2091V22.9721C27.4762 22.9531 27.8962 22.5302 27.8972 22.0042V20.1251H31.3682V22.0032C31.3682 22.5261 31.7832 22.9461 32.3012 22.9702V31.2092C31.7832 31.2342 31.3682 31.6532 31.3682 32.1772V34.0562L27.8902 34.0561ZM18.1112 34.0561V32.1771C18.1102 31.6592 17.7042 31.2461 17.1952 31.2132V22.9672C17.7042 22.9342 18.1112 22.5212 18.1122 22.0042V20.1251H21.1382V22.0032C21.1382 22.5272 21.5552 22.9482 22.0742 22.9712V31.2082C21.5522 31.2292 21.1342 31.6511 21.1342 32.1771V34.0561H18.1112ZM13.1742 31.2012L13.1702 22.9792H16.2912V31.2012H13.1742ZM26.9862 20.1251V22.0001C26.9862 22.0402 26.9542 22.0722 26.9142 22.0732H22.1102C22.0702 22.0721 22.0382 22.0402 22.0382 22.0001V20.1251H26.9862ZM22.9782 31.2012L22.9742 22.9792H26.0502V31.2012H22.9782ZM22.0412 34.0561L22.0422 32.1771C22.0422 32.1372 22.0742 32.1041 22.1142 32.1041H22.5212L22.5262 32.1052H26.5022L26.5072 32.1041H26.9212C26.9612 32.1041 26.9932 32.1371 26.9932 32.1771V34.0561H22.0412ZM36.2882 31.2012H33.2042L33.2052 22.9792H36.2882L36.2882 31.2012ZM37.2232 22.0001C37.2232 22.0402 37.1912 22.0722 37.1512 22.0732H32.3442C32.3042 22.0721 32.2722 22.0402 32.2722 22.0001V20.1251H37.2232V22.0001ZM9.69519 16.6322L24.5112 7.68716L39.3352 16.6332V19.2222H37.6812L37.6762 19.2212H31.8202L31.8152 19.2222H27.4502L27.4452 19.2212H21.5902L21.5852 19.2222H17.6653L17.6603 19.2212H11.8042L11.7992 19.2222H9.69523L9.69519 16.6322ZM12.2562 20.1251H17.2072V22.0001C17.2072 22.0402 17.1752 22.0722 17.1352 22.0732H12.3282C12.2882 22.0721 12.2562 22.0402 12.2562 22.0001V20.1251ZM12.2562 32.1772C12.2562 32.1372 12.2882 32.1042 12.3282 32.1042H12.7172L12.7222 32.1052H16.7432L16.7482 32.1042H17.1392C17.1792 32.1042 17.2112 32.1372 17.2112 32.1772V34.0562H12.2592L12.2562 32.1772ZM39.4222 37.4322H9.60419L9.6012 34.9602H11.8042H17.6592H21.5862H27.4412H31.8202H37.6752H39.4222V37.4322Z" fill="#EC631E"/>
</g>
<defs>
<clipPath id="clip0">
<rect width="50.033" height="50.033" fill="white"/>
</clipPath>
<clipPath id="clip1">
<rect width="31.625" height="31.6302" fill="white" transform="translate(8.70117 6.7019)"/>
</clipPath>
</defs>
</svg>
