<svg width="50" height="50" viewBox="0 0 50 50" fill="none" xmlns="http://www.w3.org/2000/svg">
<circle cx="25" cy="25" r="25" fill="#F6B696"/>
<path d="M25.2693 23.8783C25.0412 24.1064 25.0412 24.4723 25.2693 24.7004C26.2119 25.6429 26.2119 27.1751 25.2693 28.1177L20.3198 33.0673C19.3772 34.0098 17.845 34.0098 16.9025 33.0673L16.1579 32.3227C15.2153 31.3801 15.2153 29.8479 16.1579 28.9053L21.1074 23.9558C21.3355 23.7277 21.3355 23.3618 21.1074 23.1337C20.8793 22.9056 20.5135 22.9056 20.2854 23.1337L15.3358 28.0833C14.6601 28.759 14.2856 29.6585 14.2856 30.614C14.2856 31.5695 14.6558 32.469 15.3358 33.1447L16.0804 33.8893C16.7776 34.5866 17.6944 34.9352 18.6111 34.9352C19.5279 34.9352 20.4446 34.5866 21.1419 33.8893L26.0914 28.9398C27.4859 27.5453 27.4859 25.2728 26.0914 23.8783C25.8676 23.6502 25.4975 23.6502 25.2693 23.8783Z" fill="#EC631E"/>
<path d="M34.0187 17.3749L33.2742 16.6303C31.8797 15.2359 29.6072 15.2359 28.2127 16.6303L23.2631 21.5799C21.8687 22.9744 21.8687 25.2469 23.2631 26.6413C23.4913 26.8695 23.8571 26.8695 24.0852 26.6413C24.3133 26.4132 24.3133 26.0474 24.0852 25.8193C23.1426 24.8767 23.1426 23.3445 24.0852 22.4019L29.0348 17.4524C29.9773 16.5098 31.5095 16.5098 32.4521 17.4524L33.1967 18.197C34.1393 19.1395 34.1393 20.6718 33.1967 21.6143L28.2471 26.5639C28.019 26.792 28.019 27.1578 28.2471 27.3859C28.359 27.4978 28.5097 27.5581 28.656 27.5581C28.8023 27.5581 28.953 27.5021 29.0649 27.3859L34.0144 22.4364C34.6902 21.7607 35.0646 20.8611 35.0646 19.9056C35.0646 18.9502 34.6945 18.0506 34.0187 17.3749Z" fill="#EC631E"/>
<path fill-rule="evenodd" clip-rule="evenodd" d="M25.0003 0.979919C21.7564 0.979919 18.6113 1.61479 15.6505 2.86693C12.7906 4.07693 10.2217 5.80915 8.01522 8.01458C5.8088 10.221 4.07657 12.7899 2.86659 15.6508C1.61444 18.6117 0.979614 21.7567 0.979614 24.9997C0.979614 28.2427 1.61445 31.3887 2.86659 34.3495C4.07658 37.2094 5.8088 39.7784 8.01522 41.9848C10.2217 44.1912 12.7906 45.9234 15.6505 47.1334C18.6113 48.3855 21.7564 49.0204 25.0003 49.0204C28.2433 49.0204 31.3884 48.3855 34.3492 47.1334C37.2101 45.9234 39.779 44.1912 41.9845 41.9848C44.1909 39.7784 45.9231 37.2094 47.1331 34.3495C48.3852 31.3887 49.0201 28.2427 49.0201 24.9997C49.0201 21.7567 48.3852 18.6117 47.1331 15.6508C45.923 12.7899 44.1909 10.221 41.9845 8.01458C39.779 5.80915 37.2101 4.07693 34.3492 2.86693C31.3884 1.61479 28.2433 0.979919 25.0003 0.979919ZM25.0005 0C38.8072 0 50 11.1928 50 24.9995C50 38.8073 38.8072 50 25.0005 50C11.1927 50 0 38.8073 0 24.9995C0 11.1928 11.1927 0 25.0005 0Z" fill="#EC631E"/>
</svg>
