<svg width="51" height="51" viewBox="0 0 51 51" fill="none" xmlns="http://www.w3.org/2000/svg">
<g clip-path="url(#clip0)">
<g clip-path="url(#clip1)">
<path d="M25.017 49.533C21.7065 49.533 18.496 48.8852 15.4736 47.6063C12.5542 46.3715 9.93263 44.6035 7.68052 42.3525C5.42943 40.1004 3.66147 37.4789 2.42671 34.5594C1.14774 31.537 0.5 28.3265 0.5 25.016C0.5 21.7065 1.14774 18.496 2.42671 15.4736C3.66147 12.5542 5.42943 9.93264 7.68052 7.68056C9.93262 5.42849 12.5541 3.66053 15.4736 2.42573C18.496 1.14779 21.7065 0.5 25.017 0.5C28.3265 0.5 31.537 1.14779 34.5593 2.42573C37.4788 3.66053 40.1003 5.42849 42.3524 7.68056C44.6045 9.93263 46.3724 12.5542 47.6063 15.4736C48.8852 18.496 49.533 21.7065 49.533 25.016C49.533 28.3265 48.8852 31.537 47.6063 34.5594C46.3724 37.4788 44.6045 40.1004 42.3524 42.3525C40.1003 44.6035 37.4788 46.3715 34.5593 47.6063C31.537 48.8852 28.3265 49.533 25.017 49.533Z" fill="#F6B696"/>
<path fill-rule="evenodd" clip-rule="evenodd" d="M25.017 0.980405C21.7709 0.980405 18.6237 1.6157 15.661 2.86865C12.7992 4.07945 10.2285 5.81282 8.02066 8.0197C5.81278 10.2276 4.07942 12.7982 2.86864 15.661C1.61566 18.6238 0.980415 21.7709 0.980415 25.016C0.980415 28.2611 1.61567 31.4092 2.86864 34.372C4.07943 37.2338 5.81278 39.8044 8.02066 42.0123C10.2285 44.2202 12.7992 45.9535 15.661 47.1643C18.6237 48.4173 21.7709 49.0526 25.017 49.0526C28.2621 49.0526 31.4092 48.4173 34.372 47.1643C37.2348 45.9535 39.8054 44.2202 42.0123 42.0123C44.2202 39.8044 45.9535 37.2338 47.1643 34.372C48.4172 31.4092 49.0525 28.2611 49.0525 25.016C49.0525 21.7709 48.4172 18.6238 47.1643 15.661C45.9535 12.7982 44.2202 10.2276 42.0123 8.0197C39.8054 5.81282 37.2348 4.07945 34.372 2.86865C31.4092 1.6157 28.2621 0.980405 25.017 0.980405ZM25.017 0C38.8328 0 50.033 11.2001 50.033 25.016C50.033 38.8328 38.8328 50.033 25.017 50.033C11.2001 50.033 0 38.8328 0 25.016C0 11.2001 11.2001 0 25.017 0Z" fill="#EC631E"/>
</g>
<g clip-path="url(#clip2)">
<g clip-path="url(#clip3)">
<g clip-path="url(#clip4)">
<path fill-rule="evenodd" clip-rule="evenodd" d="M34.4728 8.7019H14.5608C14.2374 8.7019 13.9751 8.9641 13.9751 9.28758V13.3871V14.5584V39.7413C13.9751 39.9523 14.0886 40.147 14.2722 40.251C14.4558 40.3549 14.6811 40.352 14.8621 40.2436L17.4526 38.6893L19.4802 40.2099C19.6884 40.3661 19.9748 40.3661 20.1829 40.2099L22.1741 38.7165L24.1653 40.2099C24.3557 40.3527 24.6138 40.3661 24.818 40.2436L27.4086 38.6893L29.4362 40.2099C29.6443 40.3661 29.9307 40.3661 30.1389 40.2099L32.1301 38.7165L34.1213 40.2099C34.2246 40.2874 34.3483 40.327 34.4728 40.327C34.5621 40.327 34.6517 40.3067 34.7346 40.2652C34.933 40.166 35.0584 39.9632 35.0584 39.7414V14.5584V13.3871V9.28759C35.0585 8.96411 34.7962 8.70191 34.4728 8.70191L34.4728 8.7019ZM33.8872 13.3871H32.7159V14.5584H33.8872V38.57L32.4816 37.5158C32.2735 37.3597 31.9871 37.3597 31.7789 37.5158L29.7877 39.0093L27.7965 37.5158C27.6059 37.373 27.3479 37.3596 27.1438 37.4822L24.5533 39.0365L22.5257 37.5158C22.4216 37.4378 22.2979 37.3987 22.1743 37.3987C22.0507 37.3987 21.927 37.4378 21.8229 37.5158L19.8317 39.0093L17.8405 37.5158C17.65 37.373 17.3919 37.3596 17.1878 37.4822L15.1465 38.707V14.5584H17.4891V13.3871H15.1465V9.8732H33.8873V13.3871H33.8872Z" fill="#EC631E"/>
</g>
</g>
<g clip-path="url(#clip5)">
<g clip-path="url(#clip6)">
<rect x="28.0312" y="13.387" width="3.5139" height="1.1713" fill="#EC631E"/>
</g>
</g>
<g clip-path="url(#clip7)">
<g clip-path="url(#clip8)">
<rect x="23.3452" y="13.387" width="3.5139" height="1.1713" fill="#EC631E"/>
</g>
</g>
<g clip-path="url(#clip9)">
<g clip-path="url(#clip10)">
<rect x="18.6602" y="13.387" width="3.5139" height="1.1713" fill="#EC631E"/>
</g>
</g>
<g clip-path="url(#clip11)">
<g clip-path="url(#clip12)">
<path d="M19.8316 18.072H17.489C17.1656 18.072 16.9033 18.3342 16.9033 18.6577C16.9033 18.9812 17.1655 19.2434 17.489 19.2434H19.8316C20.155 19.2434 20.4173 18.9812 20.4173 18.6577C20.4173 18.3342 20.155 18.072 19.8316 18.072Z" fill="#EC631E"/>
</g>
</g>
<g clip-path="url(#clip13)">
<g clip-path="url(#clip14)">
<path d="M31.5452 23.929H28.6169C28.2934 23.929 28.0312 24.1912 28.0312 24.5146C28.0312 24.8381 28.2935 25.1003 28.6169 25.1003H31.5451C31.8685 25.1003 32.1308 24.8381 32.1308 24.5146C32.1308 24.1912 31.8686 23.929 31.5452 23.929Z" fill="#EC631E"/>
</g>
</g>
<g clip-path="url(#clip15)">
<g clip-path="url(#clip16)">
<path d="M31.5452 21.001H28.6169C28.2934 21.001 28.0312 21.2632 28.0312 21.5867C28.0312 21.9101 28.2935 22.1723 28.6169 22.1723H31.5451C31.8685 22.1723 32.1308 21.9101 32.1308 21.5867C32.1308 21.2632 31.8686 21.001 31.5452 21.001Z" fill="#EC631E"/>
</g>
</g>
<g clip-path="url(#clip17)">
<g clip-path="url(#clip18)">
<path d="M31.5452 26.8569H28.6169C28.2934 26.8569 28.0312 27.1191 28.0312 27.4426C28.0312 27.7661 28.2935 28.0283 28.6169 28.0283H31.5451C31.8685 28.0283 32.1308 27.7661 32.1308 27.4426C32.1308 27.1191 31.8686 26.8569 31.5452 26.8569Z" fill="#EC631E"/>
</g>
</g>
<g clip-path="url(#clip19)">
<g clip-path="url(#clip20)">
<path d="M31.5452 29.7849H28.6169C28.2934 29.7849 28.0312 30.0471 28.0312 30.3706C28.0312 30.6941 28.2935 30.9563 28.6169 30.9563H31.5451C31.8685 30.9563 32.1308 30.6941 32.1308 30.3706C32.1308 30.0471 31.8686 29.7849 31.5452 29.7849Z" fill="#EC631E"/>
</g>
</g>
<g clip-path="url(#clip21)">
<g clip-path="url(#clip22)">
<path d="M31.5452 32.7139H28.6169C28.2934 32.7139 28.0312 32.9761 28.0312 33.2995C28.0312 33.623 28.2935 33.8852 28.6169 33.8852H31.5451C31.8685 33.8852 32.1308 33.623 32.1308 33.2995C32.1308 32.9761 31.8686 32.7139 31.5452 32.7139Z" fill="#EC631E"/>
</g>
</g>
<g clip-path="url(#clip23)">
<g clip-path="url(#clip24)">
<path d="M25.6881 26.8569H17.489C17.1656 26.8569 16.9033 27.1191 16.9033 27.4426C16.9033 27.7661 17.1655 28.0283 17.489 28.0283H25.6881C26.0115 28.0283 26.2738 27.7661 26.2738 27.4426C26.2738 27.1191 26.0115 26.8569 25.6881 26.8569Z" fill="#EC631E"/>
</g>
</g>
<g clip-path="url(#clip25)">
<g clip-path="url(#clip26)">
<path d="M25.6881 29.7849H17.489C17.1656 29.7849 16.9033 30.0471 16.9033 30.3706C16.9033 30.6941 17.1655 30.9563 17.489 30.9563H25.6881C26.0115 30.9563 26.2738 30.6941 26.2738 30.3706C26.2738 30.0471 26.0115 29.7849 25.6881 29.7849Z" fill="#EC631E"/>
</g>
</g>
<g clip-path="url(#clip27)">
<g clip-path="url(#clip28)">
<path d="M25.6881 23.929H17.489C17.1656 23.929 16.9033 24.1912 16.9033 24.5146C16.9033 24.8381 17.1655 25.1003 17.489 25.1003H25.6881C26.0115 25.1003 26.2738 24.8381 26.2738 24.5146C26.2738 24.1912 26.0115 23.929 25.6881 23.929Z" fill="#EC631E"/>
</g>
</g>
<g clip-path="url(#clip29)">
<g clip-path="url(#clip30)">
<path d="M25.6881 32.7139H17.489C17.1656 32.7139 16.9033 32.9761 16.9033 33.2995C16.9033 33.623 17.1655 33.8852 17.489 33.8852H25.6881C26.0115 33.8852 26.2738 33.623 26.2738 33.2995C26.2738 32.9761 26.0115 32.7139 25.6881 32.7139Z" fill="#EC631E"/>
</g>
</g>
<g clip-path="url(#clip31)">
<g clip-path="url(#clip32)">
<path d="M25.6881 21.001H17.489C17.1656 21.001 16.9033 21.2632 16.9033 21.5867C16.9033 21.9101 17.1655 22.1723 17.489 22.1723H25.6881C26.0115 22.1723 26.2738 21.9101 26.2738 21.5867C26.2738 21.2632 26.0115 21.001 25.6881 21.001Z" fill="#EC631E"/>
</g>
</g>
</g>
</g>
<defs>
<clipPath id="clip0">
<rect width="50.033" height="50.033" fill="white"/>
</clipPath>
<clipPath id="clip1">
<rect width="50.033" height="50.033" fill="white"/>
</clipPath>
<clipPath id="clip2">
<rect width="21.0833" height="31.6251" fill="white" transform="translate(13.9751 8.7019)"/>
</clipPath>
<clipPath id="clip3">
<rect width="21.0833" height="31.6251" fill="white" transform="translate(13.9751 8.7019)"/>
</clipPath>
<clipPath id="clip4">
<rect width="21.0833" height="31.6251" fill="white" transform="translate(13.9751 8.7019)"/>
</clipPath>
<clipPath id="clip5">
<rect width="3.5139" height="1.1713" fill="white" transform="translate(28.0312 13.387)"/>
</clipPath>
<clipPath id="clip6">
<rect width="3.5139" height="1.1713" fill="white" transform="translate(28.0312 13.387)"/>
</clipPath>
<clipPath id="clip7">
<rect width="3.5139" height="1.1713" fill="white" transform="translate(23.3452 13.387)"/>
</clipPath>
<clipPath id="clip8">
<rect width="3.5139" height="1.1713" fill="white" transform="translate(23.3452 13.387)"/>
</clipPath>
<clipPath id="clip9">
<rect width="3.5139" height="1.1713" fill="white" transform="translate(18.6602 13.387)"/>
</clipPath>
<clipPath id="clip10">
<rect width="3.5139" height="1.1713" fill="white" transform="translate(18.6602 13.387)"/>
</clipPath>
<clipPath id="clip11">
<rect width="3.51397" height="1.17136" fill="white" transform="translate(16.9033 18.072)"/>
</clipPath>
<clipPath id="clip12">
<rect width="3.51397" height="1.17136" fill="white" transform="translate(16.9033 18.072)"/>
</clipPath>
<clipPath id="clip13">
<rect width="4.09954" height="1.17135" fill="white" transform="translate(28.0312 23.929)"/>
</clipPath>
<clipPath id="clip14">
<rect width="4.09954" height="1.17135" fill="white" transform="translate(28.0312 23.929)"/>
</clipPath>
<clipPath id="clip15">
<rect width="4.09954" height="1.17136" fill="white" transform="translate(28.0312 21.001)"/>
</clipPath>
<clipPath id="clip16">
<rect width="4.09954" height="1.17136" fill="white" transform="translate(28.0312 21.001)"/>
</clipPath>
<clipPath id="clip17">
<rect width="4.09954" height="1.17138" fill="white" transform="translate(28.0312 26.8569)"/>
</clipPath>
<clipPath id="clip18">
<rect width="4.09954" height="1.17138" fill="white" transform="translate(28.0312 26.8569)"/>
</clipPath>
<clipPath id="clip19">
<rect width="4.09954" height="1.17138" fill="white" transform="translate(28.0312 29.7849)"/>
</clipPath>
<clipPath id="clip20">
<rect width="4.09954" height="1.17138" fill="white" transform="translate(28.0312 29.7849)"/>
</clipPath>
<clipPath id="clip21">
<rect width="4.09954" height="1.17135" fill="white" transform="translate(28.0312 32.7139)"/>
</clipPath>
<clipPath id="clip22">
<rect width="4.09954" height="1.17135" fill="white" transform="translate(28.0312 32.7139)"/>
</clipPath>
<clipPath id="clip23">
<rect width="9.37047" height="1.17138" fill="white" transform="translate(16.9033 26.8569)"/>
</clipPath>
<clipPath id="clip24">
<rect width="9.37047" height="1.17138" fill="white" transform="translate(16.9033 26.8569)"/>
</clipPath>
<clipPath id="clip25">
<rect width="9.37047" height="1.17138" fill="white" transform="translate(16.9033 29.7849)"/>
</clipPath>
<clipPath id="clip26">
<rect width="9.37047" height="1.17138" fill="white" transform="translate(16.9033 29.7849)"/>
</clipPath>
<clipPath id="clip27">
<rect width="9.37047" height="1.17135" fill="white" transform="translate(16.9033 23.929)"/>
</clipPath>
<clipPath id="clip28">
<rect width="9.37047" height="1.17135" fill="white" transform="translate(16.9033 23.929)"/>
</clipPath>
<clipPath id="clip29">
<rect width="9.37047" height="1.17135" fill="white" transform="translate(16.9033 32.7139)"/>
</clipPath>
<clipPath id="clip30">
<rect width="9.37047" height="1.17135" fill="white" transform="translate(16.9033 32.7139)"/>
</clipPath>
<clipPath id="clip31">
<rect width="9.37047" height="1.17136" fill="white" transform="translate(16.9033 21.001)"/>
</clipPath>
<clipPath id="clip32">
<rect width="9.37047" height="1.17136" fill="white" transform="translate(16.9033 21.001)"/>
</clipPath>
</defs>
</svg>

