<svg id="Icon_128B" data-name="Icon 128B" xmlns="http://www.w3.org/2000/svg" width="82.417" height="120" viewBox="0 0 82.417 120">
  <path id="Path_8469" data-name="Path 8469" d="M211.85,757.43c.65-.19.63-1-.18-1-4.91.17-9.42.6-14.37.27-.72,0-.86.8-.17.92C201.74,758.48,207.36,758.72,211.85,757.43Z" transform="translate(-164.41 -674.646)" fill="#fff"/>
  <path id="Path_8470" data-name="Path 8470" d="M204.6,760.61c-.95,0-1.87-.07-2.78-.15-1.15-.1-1.6.34-.52.48a22.874,22.874,0,0,0,5.93.23c.47-.1.33-.34-.16-.42a17.944,17.944,0,0,0-2.47-.14Z" transform="translate(-164.381 -675.017)" fill="#fff"/>
  <path id="Path_8471" data-name="Path 8471" d="M203.85,750.18c.35.49.87-.24.54-.75a7.41,7.41,0,0,0-2.31-2.32c-1.57-1-2.66-2-1-4.37,1.53-2.09,3.24-4,3.23-7.22,0-.9-1-1.14-1.15-.22-.49,2.9-1.82,4.5-3.13,6.65a6.11,6.11,0,0,0-1.22,3.29C199,748.13,202.66,748.55,203.85,750.18Z" transform="translate(-164.088 -673.085)" fill="#fff"/>
  <path id="Path_8472" data-name="Path 8472" d="M189.5,728.25a2.469,2.469,0,0,0-.77-.11,2.67,2.67,0,0,0-2.44,2,2.79,2.79,0,0,0,1.28,3h.05a2.85,2.85,0,0,0,2.94.16l.14-.1.26-.15a2.67,2.67,0,0,0,.78-3.48,2.9,2.9,0,0,0-2.24-1.32Z" transform="translate(-162.576 -671.603)" fill="#fff"/>
  <path id="Path_8473" data-name="Path 8473" d="M192.64,721.46a9.06,9.06,0,0,0-5-.77c-1.41.2-3.64.78-4,2.24a.65.65,0,0,0,.66.81c1.22,0,2.23-.93,3.42-1.22a7.91,7.91,0,0,1,4.42.18C192.86,723,193.38,721.79,192.64,721.46Z" transform="translate(-162.387 -670.597)" fill="#fff"/>
  <path id="Path_8474" data-name="Path 8474" d="M214.54,732a8.45,8.45,0,0,1,4.9-1c1.47.15,2.7,1,4.14,1.15.56.06.81-.62.6-1-.84-1.7-3.28-2.2-5-2.24a8.35,8.35,0,0,0-5.56,1.95C212.89,731.36,213.79,732.43,214.54,732Z" transform="translate(-166.254 -671.563)" fill="#fff"/>
  <path id="Path_8475" data-name="Path 8475" d="M215.33,719.25a13,13,0,0,1,4.28.73c1.16.38,2.21,1.19,3.44,1.26a.6.6,0,0,0,.51-.9c-.65-1.18-2.25-1.68-3.49-2a13,13,0,0,0-4.74-.31A.61.61,0,0,0,215.33,719.25Z" transform="translate(-166.262 -670.294)" fill="#fff"/>
  <path id="Path_8476" data-name="Path 8476" d="M238.492,780.344c-1.135-.3-2.279-.576-3.432-.843-2.315-.532-4.638-1.038-6.926-1.676a31.828,31.828,0,0,1-7.024-2.8c-1.561-.887-3.787-2.093-4.745-3.84a3.609,3.609,0,0,1-.435-1.259,24.424,24.424,0,0,1,.381-9.037c.062-.266.124-1.126.328-1.3a40.414,40.414,0,0,0,8.656-11.121c.816-1.463,1.57-2.989,2.261-4.559,2.865,1.144,5.428-2.146,7.006-4.018a25.037,25.037,0,0,0,5.623-12.3c.408-2.723,1.038-7.308-2.04-9-2.191-1.206-4.328-.364-5.889,1.091,2.208-12.15,3.1-25.4-2.235-36.965-2.208-4.789-5.57-9.56-10.492-12.292a29.409,29.409,0,0,0-7.45-2.8c-1.632-.39-3.29-.656-4.949-.887a30.272,30.272,0,0,1-7.485-1.774c-.452-.186-.887-.381-1.348-.585s-.789-.426-1.188-.275a.452.452,0,0,0-.16.08c-.257.168-.568.488-.435.816a19.571,19.571,0,0,0,2.448,3.84c.151.213.31.417.47.63l.186.275a6.748,6.748,0,0,0-1.117.062l-2.12-.381a47.642,47.642,0,0,1-5.436-1.33c-.887-.257-1.774-.541-2.661-.825l-1.348-.461c-.257-.089-.887-.435-1.117-.3a.55.55,0,0,0-.257.355c-.169.638.417,1.1.807,1.5s1.924,1.907.576,1.969a16.577,16.577,0,0,0-6.581,1.313,15.963,15.963,0,0,0-5.268,4.044,28.9,28.9,0,0,0-3.867,6c-.169.346-.328.683-.488,1.029-5.321,11.529-4.434,24.832-2.235,36.965-1.561-1.454-3.7-2.3-5.9-1.091-3.077,1.694-2.439,6.279-2.031,9a24.948,24.948,0,0,0,5.614,12.3c1.579,1.871,4.142,5.161,7.006,4.017.692,1.57,1.446,3.1,2.27,4.559a40.414,40.414,0,0,0,8.656,11.121,25.763,25.763,0,0,1,.984,7.157,29.654,29.654,0,0,1-.585,4.514c-6.208,6.944-16.673,7.095-25.2,9.968a111.478,111.478,0,0,0,12.478-1.525c1.091-.355,2.164-.727,3.2-1.109a24.716,24.716,0,0,0,8.869-5.073,10.04,10.04,0,0,0,1.011,3.193,6.989,6.989,0,0,0,1.454,2.164,12.008,12.008,0,0,0,3.432,2.714c4.576,2.448,10,2.882,15.077,2.111,4.372-.674,9.481-2.324,11.68-6.518a4.239,4.239,0,0,0,.426-3.627,26.09,26.09,0,0,0,8.807,5.037c2.075.772,4.292,1.5,6.554,2.1a90.634,90.634,0,0,0,9.427.63,7.03,7.03,0,0,1-1.57-.505Zm-6.811-58.489a.47.47,0,0,0,.124-.106c1.632-2.084,5.605-3.8,7.015-.266a10.534,10.534,0,0,1,.142,3.884,22.465,22.465,0,0,1-1.446,6.306,24.221,24.221,0,0,1-3.148,5.747c-.843,1.135-4.186,5.7-6.111,4.833a45.107,45.107,0,0,0,3.4-20.061ZM166.434,737.42a24.565,24.565,0,0,1-3.157-5.747,22.766,22.766,0,0,1-1.437-6.306,10.35,10.35,0,0,1,.142-3.884c1.41-3.547,5.374-1.774,7.015.266a.469.469,0,0,0,.124.106v.337a45.231,45.231,0,0,0,3.406,20.061c-1.907.869-5.25-3.7-6.093-4.833Zm18.323,20.54a41,41,0,0,1-8.869-11.627c-4.825-8.993-5.8-18.278-5.419-28.149v-.053c.355-3.37.656-6.74,1.206-10.1.621-3.84,1.135-9.321,4.221-12.221,3.743-3.547,8.434-.1,12.531,1.1a60.672,60.672,0,0,1-6.581,5.942c-.585.452-.089,1.49.6,1.446a47.068,47.068,0,0,0,12.8-2.51,11.789,11.789,0,0,1-1.694,2.3.887.887,0,0,0,.816,1.4,97.114,97.114,0,0,0,14.4-5.117q3.015-1.366,5.9-3.024c3.237-1.845,6.678-4.851,10.217-1.534,3.086,2.9,3.6,8.381,4.23,12.221.55,3.361.887,6.731,1.206,10.1a.062.062,0,0,0,0,.053c.372,9.871-.594,19.156-5.428,28.149a40.973,40.973,0,0,1-8.869,11.627,21.178,21.178,0,0,1-7.565,4.106,25.223,25.223,0,0,1-12.727.825,23.006,23.006,0,0,1-10.979-4.931Zm30.508,17.613a11.946,11.946,0,0,1-5.321,4.789,23.36,23.36,0,0,1-9.56,1.96,24.494,24.494,0,0,1-4.745-.505,22.345,22.345,0,0,1-3.982-1.188,8.523,8.523,0,0,1-3.352-2.066,8.762,8.762,0,0,1-1.96-3.077c-.532-1.871-.124-3.813.177-5.685a16.85,16.85,0,0,0,0-5.694c-.106-.621-.284-2.927-.807-3.308l.169.133a23.362,23.362,0,0,0,7.733,3.45c7.095,1.836,15.21.887,21.285-3.45a1.229,1.229,0,0,0,.169-.133c-.5.364-.665,2.554-.772,3.157a19.354,19.354,0,0,0-.328,3.547,14.457,14.457,0,0,0,.443,3.6,9.613,9.613,0,0,0,.639,1.774c.514,1.1.967,1.543.248,2.7Z" transform="translate(-159.33 -664.044)" fill="#fff"/>
</svg>
