<svg id="Icon_128" data-name="Icon 128" xmlns="http://www.w3.org/2000/svg" width="83.384" height="120" viewBox="0 0 83.384 120">
  <path id="Path_8453" data-name="Path 8453" d="M441.47,759.24c.65-.18.63-1-.18-1-4.9.17-9.42.61-14.37.27-.71,0-.86.8-.17.93C431.36,760.29,437,760.54,441.47,759.24Z" transform="translate(-393.526 -676.497)" fill="#fff"/>
  <path id="Path_8454" data-name="Path 8454" d="M434.22,762.43c-.94,0-1.86-.07-2.78-.16-1.15-.1-1.6.34-.51.48a22.363,22.363,0,0,0,5.92.23c.47-.09.34-.34-.16-.42a16.459,16.459,0,0,0-2.47-.13Z" transform="translate(-393.496 -676.866)" fill="#fff"/>
  <path id="Path_8455" data-name="Path 8455" d="M433.47,752c.35.48.87-.25.54-.76a7.38,7.38,0,0,0-2.3-2.32c-1.58-1-2.66-2-.95-4.37,1.52-2.09,3.23-4,3.22-7.22,0-.9-1-1.13-1.15-.22-.48,2.9-1.82,4.51-3.12,6.65a6.11,6.11,0,0,0-1.22,3.29C428.61,749.94,432.29,750.36,433.47,752Z" transform="translate(-393.209 -674.948)" fill="#fff"/>
  <path id="Path_8456" data-name="Path 8456" d="M419.12,730.18a2.432,2.432,0,0,0-.77-.1,2.66,2.66,0,0,0-2.44,2,2.79,2.79,0,0,0,1.28,3h.06a2.85,2.85,0,0,0,2.94.15l.13-.1.27-.15a2.66,2.66,0,0,0,.77-3.47A2.88,2.88,0,0,0,419.12,730.18Z" transform="translate(-391.709 -673.495)" fill="#fff"/>
  <path id="Path_8457" data-name="Path 8457" d="M422.26,723.27a9,9,0,0,0-5-.77c-1.42.2-3.65.78-4,2.25a.66.66,0,0,0,.67.8c1.21,0,2.23-.93,3.41-1.22a8,8,0,0,1,4.42.18C422.48,724.76,423,723.6,422.26,723.27Z" transform="translate(-391.522 -672.481)" fill="#fff"/>
  <path id="Path_8458" data-name="Path 8458" d="M471.273,783.193c-.888-.293-1.714-.542-2.584-.781s-1.651-.435-2.486-.639l-2.53-.586c-4.128-.95-8.417-1.882-12.225-3.809a16.505,16.505,0,0,1-4.777-3.347c-1.341-1.492-1.367-3.489-1.394-5.389a25.4,25.4,0,0,1,.985-7.156,40.726,40.726,0,0,0,8.665-11.133,50.564,50.564,0,0,0,2.273-4.572c2.868,1.145,5.425-2.148,7.014-4.022a25.126,25.126,0,0,0,5.62-12.314c.408-2.726,1.048-7.307-2.033-9.011-2.2-1.207-4.341-.364-5.9,1.092,2.22-12.163,3.1-25.418-2.237-37-2.211-4.794-5.576-9.571-10.5-12.305a29.441,29.441,0,0,0-7.458-2.805c-1.634-.382-3.294-.657-4.954-.888a35.079,35.079,0,0,1-6.73-1.625c-.266-.089-4.626-1.891-3.889-.115a12.758,12.758,0,0,0,1.447,2.495c.444.622,1.394,1.474,1.518,2.22-1.323.364-2.823-.222-4.128-.479-1.607-.32-3.2-.746-4.768-1.225-.95-.293-1.9-.586-2.832-.941-.471-.178-1.909-1.2-2.175-.213-.2.755.524,1.367.977,1.856.311.328,1.607,1.563.408,1.616A16.407,16.407,0,0,0,410,673.431a15.982,15.982,0,0,0-5.327,4.04,29.3,29.3,0,0,0-3.862,6.02c-.169.337-.337.684-.5,1.021-5.327,11.586-4.439,24.859-2.237,37-1.563-1.456-3.7-2.3-5.9-1.092-3.081,1.7-2.442,6.286-2.033,9.011a25.125,25.125,0,0,0,5.62,12.314c1.589,1.873,4.146,5.167,7.014,4.022q1.039,2.353,2.273,4.572a40.725,40.725,0,0,0,8.754,11.178c.391.337.5,2.042.586,2.557a25.447,25.447,0,0,1,.364,2.948,20.188,20.188,0,0,1-.089,3.356c-.062.595-.044,2.353-.462,2.814-6.286,7.1-17,7.1-25.6,10.095a.552.552,0,0,0-.169.107c.275-.249,1.776-.142,2.148-.187.772-.089,1.536-.2,2.308-.328,1.385-.222,2.761-.471,4.128-.764,3.019-.648,5.966-.888,8.878-2.042a23.084,23.084,0,0,0,7.644-4.617,10.8,10.8,0,0,0,5.9,8.079c5.975,3.2,13.415,2.992,19.754,1.039a7.853,7.853,0,0,0,1.518-.639,9.438,9.438,0,0,0,4.119-3.116,10.433,10.433,0,0,0,1.518-2.477,5.578,5.578,0,0,0,.382-1.429,2.335,2.335,0,0,0-.062-1.376,14.108,14.108,0,0,1,1.589,1.323,18.83,18.83,0,0,0,2.486,1.687,28.335,28.335,0,0,0,4.661,2.14,46.648,46.648,0,0,0,8.568,2.113c1.456.222,2.921.382,4.395.488.453,0,3.223-.16,3.445.249a.781.781,0,0,0-.542-.346Zm-9.952-59.484a.471.471,0,0,0,.124-.107c1.634-2.086,5.611-3.809,7.023-.257a10.49,10.49,0,0,1,.142,3.88,22.49,22.49,0,0,1-1.447,6.313,24.248,24.248,0,0,1-3.152,5.753c-.843,1.136-4.191,5.709-6.117,4.848a45.207,45.207,0,0,0,3.4-20.091A2.59,2.59,0,0,0,461.32,723.709Zm-65.282,15.617a24.247,24.247,0,0,1-3.152-5.753,22.488,22.488,0,0,1-1.447-6.312,10.49,10.49,0,0,1,.142-3.88c1.412-3.551,5.389-1.829,7.023.257a.469.469,0,0,0,.124.107v.337a45.208,45.208,0,0,0,3.4,20.091C400.194,745.017,396.847,740.462,396.039,739.326Zm18.378,20.562a41.047,41.047,0,0,1-8.878-11.639c-5.1-9.491-6.215-20.518-5.141-31.074.257-2.415.524-4.839.888-7.236.621-3.853,1.145-9.34,4.235-12.234,3.738-3.551,8.434-.107,12.536,1.1a61.414,61.414,0,0,1-6.579,5.94c-.595.453-.1,1.492.595,1.456a47.258,47.258,0,0,0,12.82-2.521c-.6.213-1.154,1.465-1.483,1.971s-.71,2.1.595,1.776a99.438,99.438,0,0,0,13.486-4.706,70.2,70.2,0,0,0,6.437-3.223c1.776-.994,3.747-2.965,5.762-3.232a5.815,5.815,0,0,1,4.856,1.483c3.09,2.894,3.613,8.381,4.235,12.234.55,3.356.888,6.73,1.207,10.1v.053c.382,9.89-.595,19.177-5.425,28.18a41.043,41.043,0,0,1-8.878,11.639,21.2,21.2,0,0,1-7.573,4.111,25.348,25.348,0,0,1-12.74.835,23.083,23.083,0,0,1-10.991-5.016ZM444.842,777.5a3.313,3.313,0,0,1-.355,1c-.95,1.776-3.116,3.036-4.874,3.809a23.207,23.207,0,0,1-9.562,1.962,23.712,23.712,0,0,1-4.75-.506,18.4,18.4,0,0,1-6.952-2.761,7.725,7.725,0,0,1-2.85-3.187c-.684-1.687.124-3.232.506-4.883a17.8,17.8,0,0,0,.311-5.487c-.089-1.03,0-4.031-.985-4.714a1.234,1.234,0,0,1,.169.133,23.438,23.438,0,0,0,7.706,3.454c7.1,1.838,15.226.888,21.308-3.445a1.229,1.229,0,0,1,.169-.133c-.5.355-.675,2.548-.781,3.152a20.194,20.194,0,0,0-.328,3.551,14.456,14.456,0,0,0,.444,3.6c.4,1.412,1.065,2.983.79,4.457Z" transform="translate(-388.43 -666.002)" fill="#fff"/>
  <path id="Path_8459" data-name="Path 8459" d="M449.49,730.08a2.432,2.432,0,0,0-.77.1,2.88,2.88,0,0,0-2.24,1.4,2.65,2.65,0,0,0,.78,3.47,1.352,1.352,0,0,0,.26.15.707.707,0,0,0,.14.1,2.85,2.85,0,0,0,2.94-.15h0a2.79,2.79,0,0,0,1.28-3,2.66,2.66,0,0,0-2.39-2.07Z" transform="translate(-395.33 -673.499)" fill="#fff"/>
  <path id="Path_8460" data-name="Path 8460" d="M446.14,724.51a8,8,0,0,1,4.42-.18c1.19.29,2.2,1.2,3.42,1.22a.65.65,0,0,0,.66-.8c-.38-1.47-2.61-2-4-2.25a9,9,0,0,0-5,.77C444.84,723.6,445.36,724.76,446.14,724.51Z" transform="translate(-395.512 -672.481)" fill="#fff"/>
</svg>
