<svg id="Icon_128D" data-name="Icon 128D" xmlns="http://www.w3.org/2000/svg" width="75.695" height="120" viewBox="0 0 75.695 120">
  <path id="Path_8477" data-name="Path 8477" d="M306.89,756.47c-4.24.17-8.15.6-12.42.27a.47.47,0,0,0-.14.92c4,.82,8.83,1.06,12.71-.23C307.6,757.24,307.59,756.44,306.89,756.47Z" transform="translate(-280.729 -674.979)" fill="#fff"/>
  <path id="Path_8478" data-name="Path 8478" d="M300.78,760.61a23.978,23.978,0,0,1-2.41-.15c-1-.1-1.37.34-.44.48a17.078,17.078,0,0,0,5.12.23c.41-.1.29-.34-.14-.42a13.378,13.378,0,0,0-2.13-.14Z" transform="translate(-280.964 -675.376)" fill="#fff"/>
  <path id="Path_8479" data-name="Path 8479" d="M296.8,749.43a10.26,10.26,0,0,0-3.48-2.32c-2.38-1-4-2-1.43-4.37,2.3-2.09,4.87-4,4.86-7.22a.9.9,0,0,0-1.74-.22c-.72,2.9-2.74,4.5-4.71,6.65-.81.88-1.91,2-1.83,3.29.17,2.89,5.73,3.31,7.51,4.94C296.51,750.67,297.29,749.94,296.8,749.43Z" transform="translate(-278.508 -673.302)" fill="#fff"/>
  <path id="Path_8480" data-name="Path 8480" d="M317.16,728.83a2.433,2.433,0,0,0-.77.11,2.9,2.9,0,0,0-2.24,1.39,2.67,2.67,0,0,0,.78,3.48l.26.15a.849.849,0,0,0,.14.1,2.85,2.85,0,0,0,2.94-.16h.05a2.78,2.78,0,0,0,1.28-3,2.68,2.68,0,0,0-2.44-2.07Z" transform="translate(-283.094 -671.812)" fill="#fff"/>
  <path id="Path_8481" data-name="Path 8481" d="M289,733.9a2.85,2.85,0,0,0,2.94.16l.14-.1.26-.15a2.67,2.67,0,0,0,.78-3.48,2.9,2.9,0,0,0-2.24-1.39,2.469,2.469,0,0,0-.77-.11,2.68,2.68,0,0,0-2.44,2,2.78,2.78,0,0,0,1.28,3Z" transform="translate(-278.508 -671.812)" fill="#fff"/>
  <path id="Path_8482" data-name="Path 8482" d="M293.42,720.32c.82,0,1-1.22.22-1.34a9.05,9.05,0,0,0-5.06.59c-1.32.56-3.31,1.71-3.29,3.22a.65.65,0,0,0,.85.6c1.17-.34,1.91-1.48,3-2.07a7.93,7.93,0,0,1,4.28-1Z" transform="translate(-278.508 -670.501)" fill="#fff"/>
  <path id="Path_8483" data-name="Path 8483" d="M319,719.57a9.06,9.06,0,0,0-5-.57c-.8.12-.61,1.38.21,1.34a8,8,0,0,1,4.32,1c1.06.59,1.8,1.73,3,2.07a.65.65,0,0,0,.85-.6C322.35,721.28,320.35,720.13,319,719.57Z" transform="translate(-283.231 -670.503)" fill="#fff"/>
  <path id="Path_8484" data-name="Path 8484" d="M341.459,765.026a27.755,27.755,0,0,1-2.417-1.705,4.7,4.7,0,0,1-1.213-2.4,78.08,78.08,0,0,1-1.547-8.209c-.448-3.05-.65-6.363.738-9.22a1.089,1.089,0,0,1,.211-.325,4.76,4.76,0,0,1,1.406-.563,9.151,9.151,0,0,0,1.283-.633,11.775,11.775,0,0,0,2.268-1.758,17.333,17.333,0,0,0,3.428-4.834,26.367,26.367,0,0,0,2.637-9.721c.185-2.479.088-6.557-2.531-7.91,1.354-2.742,1.608-5.678,1.837-8.693a94.059,94.059,0,0,0,.378-11.558,33.976,33.976,0,0,0-5.616-17.992,32.52,32.52,0,0,0-12.569-10.793,46.328,46.328,0,0,0-11.8-3.3c-1.354-.237-2.707-.475-4.061-.738-.712-.149-5.572-1.811-5.274.062a8.934,8.934,0,0,0,.475,1.705c.22.563.6,1.1.791,1.652a.756.756,0,0,0-.334-.114,10.431,10.431,0,0,1-2.927-.932,20.034,20.034,0,0,1-3.445-2.285c-.492-.378-1.564-1.441-2.25-1.134-.51.229-.352.879-.281,1.283a14.856,14.856,0,0,0,.8,3.331l.211.5c-3.393.1-6.337,2.329-9.448,3.516-4.245,1.6-8.543,2.127-13.026,2.637a.615.615,0,0,0-.431,1.037,8.121,8.121,0,0,0,4.544,2.848c-3.4,3.358-4.078,9.967-4.518,14.309a53.605,53.605,0,0,0-.229,7.611,37.384,37.384,0,0,0,1.09,7.708,28.287,28.287,0,0,0,1.415,4.017,11.93,11.93,0,0,1,.677,1.978,11.294,11.294,0,0,1,.1,2.18q0,4.544.352,9.079c.132,1.907.308,3.815.519,5.7.7,6.249,1.5,12.841,3.665,18.774a25.674,25.674,0,0,0,6.961,10.134c4.641,4.395,10.714,5.273,16.612,4.14,0,0-.273,2.074-.316,2.294-.316,1.591-.879,3.12-1.274,4.693-4.439,1.7-8.737,3.735-13.184,5.423-3.815,1.441-7.831,2.5-11.611,4.034a23.9,23.9,0,0,1,3.788-.879c3.568-.782,7.172-1.406,10.653-2.5a56.145,56.145,0,0,0,9.932-4.395c-.483,2.382-.492,4.764,1.02,6.733,2.3,3,6.917,3.841,10.477,3.753,5.467-.123,9.862-2.962,14.133-6.056,2.575-1.863,5.625-4.228,6.574-7.445.352-1.187.457-3.516-.527-4.439a17.157,17.157,0,0,0,2.593,2.2,31.882,31.882,0,0,0,6.32,2.962,25.8,25.8,0,0,0,2.777.826c.475.123.958.22,1.433.316a5.356,5.356,0,0,1,1.477.237c-2.408-1.45-5.071-2.4-7.5-3.823C344.913,767.293,343.155,766.195,341.459,765.026Zm-5.274,7.8c-3.823,3.665-8.016,7.374-13.351,8.57H322.6c-3.841.809-9.774.466-12.147-3.076-1.248-1.863-.879-4.1-.352-6.152a23.43,23.43,0,0,0,1.055-8.13,30.182,30.182,0,0,0,10.433-4.948,29.6,29.6,0,0,0,6.654-6.838,14.758,14.758,0,0,1-4.272,3.735,62.471,62.471,0,0,1-5.836,3.3c-6.249,3.085-13.764,5.124-20.127,1.881-10.3-5.274-12.226-17.807-13.465-28.073-.36-2.988-.6-5.994-.791-9-.158-2.32-.281-4.65-.439-6.97a56.1,56.1,0,0,1-.255-6.873,25.049,25.049,0,0,1,.527-4.658,11.356,11.356,0,0,1,3.3-5.274,34.912,34.912,0,0,1-1.565,4.219.7.7,0,0,0,.782,1.02,23.512,23.512,0,0,0,10.415-5.309c-.281.782-.571,1.565-.879,2.356a.606.606,0,0,0,.747.747c4.7-1.512,8.376-4.834,12.657-7.181,5.274-2.909,11.734-6.109,17.491-2.733,11.312,6.627,8.719,21.841,4.122,31.729a.642.642,0,0,0,.879.879,42.579,42.579,0,0,0,4.658-2.637,29.322,29.322,0,0,0,3.023-2.487,6.838,6.838,0,0,1,2.848-1.9c3.059-.782,4.395,1.538,4.658,3.885a20.717,20.717,0,0,1-1.134,8.482,17.168,17.168,0,0,1-8.526,10.2,2.11,2.11,0,0,1-1.415,0,1.9,1.9,0,0,1-1.02-1.213.457.457,0,0,0-.879.123,2.813,2.813,0,0,0,1.187,2.32,3.19,3.19,0,0,0,.879.378.694.694,0,0,0,.228.07c-2.021,3.753-1.318,8.007-.773,12.1a52.833,52.833,0,0,0,1.3,6.926,25.573,25.573,0,0,0,1.2,3.4,10.139,10.139,0,0,1,.756,2c.492,2.074-.923,3.762-2.338,5.115Z" transform="translate(-278.508 -663.577)" fill="#fff"/>
</svg>
