<svg xmlns="http://www.w3.org/2000/svg" width="24.054" height="19.243" viewBox="0 0 24.054 19.243">
  <g id="camara-fotografica_1_" data-name="camara-fotografica (1)" transform="translate(0 -47.104)">
    <g id="Group_822" data-name="Group 822" transform="translate(0 47.104)">
      <g id="Group_821" data-name="Group 821" transform="translate(0 0)">
        <path id="Path_6718" data-name="Path 6718" d="M21.178,50.451h-2.51l-1.386-2.092A2.88,2.88,0,0,0,14.9,47.1H9.151a2.88,2.88,0,0,0-2.379,1.255L5.386,50.451H2.876A2.868,2.868,0,0,0,0,53.327V63.471a2.868,2.868,0,0,0,2.876,2.876h18.3a2.868,2.868,0,0,0,2.876-2.876V53.327A2.868,2.868,0,0,0,21.178,50.451ZM12.027,63.994a6.471,6.471,0,1,1,6.484-6.458A6.483,6.483,0,0,1,12.027,63.994ZM20.812,54.5h-1.15a.851.851,0,0,1,0-1.7h1.046a.849.849,0,0,1,.889.811A.828.828,0,0,1,20.812,54.5Z" transform="translate(0 -47.104)" fill="#fcfbff"/>
      </g>
    </g>
    <g id="Group_824" data-name="Group 824" transform="translate(8.419 53.928)">
      <g id="Group_823" data-name="Group 823" transform="translate(0 0)">
        <path id="Path_6719" data-name="Path 6719" d="M168.472,180.736a3.6,3.6,0,1,0,3.608,3.582A3.615,3.615,0,0,0,168.472,180.736Z" transform="translate(-164.864 -180.736)" fill="#fcfbff"/>
      </g>
    </g>
  </g>
</svg>
