<svg width="30" height="30" viewBox="0 0 30 30" fill="none" xmlns="http://www.w3.org/2000/svg">
<g clip-path="url(#clip0)">
<path fill-rule="evenodd" clip-rule="evenodd" d="M14.9997 12.1998C12.4187 12.1998 10.3198 10.1009 10.3198 7.51994C10.3198 4.939 12.4187 2.84009 14.9997 2.84009C17.5806 2.84009 19.6795 4.939 19.6795 7.51994C19.6795 10.1009 17.5806 12.1998 14.9997 12.1998ZM14.9997 4.59503C13.3863 4.59503 12.0748 5.90656 12.0748 7.51994C12.0748 9.13332 13.3863 10.4448 14.9997 10.4448C16.6131 10.4448 17.9246 9.13332 17.9246 7.51994C17.9246 5.90656 16.6131 4.59503 14.9997 4.59503Z" fill="#EC631E"/>
<path d="M23.8998 24.5897C23.3917 24.5897 22.9792 24.1966 22.9792 23.7122V20.7873C22.9792 18.6907 21.1895 16.9849 18.9898 16.9849H11.0109C8.81119 16.9849 7.02146 18.6907 7.02146 20.7873V23.7122C7.02146 24.1966 6.60901 24.5897 6.10082 24.5897C5.59263 24.5897 5.18018 24.1966 5.18018 23.7122V20.7873C5.18018 17.7232 7.79602 15.23 11.0109 15.23H18.9898C22.2046 15.23 24.8205 17.7232 24.8205 20.7873V23.7122C24.8205 24.1966 24.408 24.5897 23.8998 24.5897H23.8998Z" fill="#EC631E"/>
<path d="M1.37747 8.10476C0.89311 8.10476 0.5 7.71165 0.5 7.22729V3.7174C0.5 1.94257 1.94256 0.5 3.7174 0.5H7.22729C7.71165 0.5 8.10476 0.89311 8.10476 1.37747C8.10476 1.86183 7.71165 2.25494 7.22729 2.25494H3.7174C2.9113 2.25494 2.25495 2.91129 2.25495 3.71739V7.22728C2.25495 7.71164 1.86184 8.10475 1.37748 8.10475L1.37747 8.10476Z" fill="#EC631E"/>
<path d="M7.22729 29.4998H3.7174C1.94257 29.4998 0.5 28.0572 0.5 26.2824V22.7725C0.5 22.2881 0.89311 21.895 1.37747 21.895C1.86183 21.895 2.25494 22.2881 2.25494 22.7725V26.2824C2.25494 27.0885 2.91129 27.7448 3.71739 27.7448H7.22728C7.71164 27.7448 8.10475 28.1379 8.10475 28.6223C8.10475 29.1067 7.71164 29.4998 7.22728 29.4998L7.22729 29.4998Z" fill="#EC631E"/>
<path d="M28.6223 8.10475C28.1379 8.10475 27.7448 7.71164 27.7448 7.22728V3.71739C27.7448 2.91129 27.0885 2.25494 26.2824 2.25494H22.7725C22.2881 2.25494 21.895 1.86183 21.895 1.37747C21.895 0.89311 22.2881 0.5 22.7725 0.5H26.2824C28.0572 0.5 29.4998 1.94256 29.4998 3.7174V7.22729C29.4998 7.71165 29.1067 8.10476 28.6223 8.10476L28.6223 8.10475Z" fill="#EC631E"/>
<path d="M26.2824 29.4998H22.7725C22.2881 29.4998 21.895 29.1067 21.895 28.6223C21.895 28.1379 22.2881 27.7448 22.7725 27.7448H26.2824C27.0885 27.7448 27.7448 27.0885 27.7448 26.2824V22.7725C27.7448 22.2881 28.1379 21.895 28.6223 21.895C29.1067 21.895 29.4998 22.2881 29.4998 22.7725V26.2824C29.4998 28.0572 28.0572 29.4998 26.2824 29.4998L26.2824 29.4998Z" fill="#EC631E"/>
</g>
<defs>
<clipPath id="clip0">
<rect width="28.9998" height="28.9998" fill="white" transform="translate(0.5 0.5)"/>
</clipPath>
</defs>
</svg>
