<svg width="51" height="51" viewBox="0 0 51 51" fill="none" xmlns="http://www.w3.org/2000/svg">
<path d="M25.017 49.533C21.7065 49.533 18.496 48.8852 15.4736 47.6063C12.5542 46.3715 9.93263 44.6035 7.68052 42.3525C5.42943 40.1004 3.66147 37.4789 2.42671 34.5594C1.14774 31.537 0.5 28.3265 0.5 25.016C0.5 21.7065 1.14774 18.496 2.42671 15.4736C3.66147 12.5542 5.42943 9.93264 7.68052 7.68056C9.93262 5.42849 12.5541 3.66053 15.4736 2.42573C18.496 1.14779 21.7065 0.5 25.017 0.5C28.3265 0.5 31.537 1.14779 34.5594 2.42573C37.4788 3.66053 40.1003 5.42849 42.3524 7.68056C44.6045 9.93263 46.3724 12.5542 47.6063 15.4736C48.8852 18.496 49.533 21.7065 49.533 25.016C49.533 28.3265 48.8852 31.537 47.6063 34.5594C46.3724 37.4788 44.6045 40.1004 42.3524 42.3525C40.1003 44.6035 37.4788 46.3715 34.5594 47.6063C31.537 48.8852 28.3265 49.533 25.017 49.533Z" fill="#6F6E6D"/>
<path fill-rule="evenodd" clip-rule="evenodd" d="M25.0005 0.979758C21.7565 0.979758 18.6115 1.61463 15.6507 2.86676C12.7907 4.07677 10.2218 5.80899 8.01538 8.01441C5.80895 10.2208 4.07673 12.7898 2.86675 15.6507C1.61459 18.6115 0.979769 21.7565 0.979769 24.9995C0.979769 28.2425 1.6146 31.3885 2.86675 34.3493C4.07674 37.2093 5.80895 39.7782 8.01538 41.9846C10.2218 44.191 12.7907 45.9232 15.6507 47.1332C18.6115 48.3854 21.7565 49.0202 25.0005 49.0202C28.2435 49.0202 31.3885 48.3854 34.3493 47.1332C37.2103 45.9232 39.7791 44.191 41.9846 41.9846C44.191 39.7782 45.9232 37.2093 47.1333 34.3493C48.3853 31.3885 49.0202 28.2425 49.0202 24.9995C49.0202 21.7565 48.3853 18.6115 47.1333 15.6507C45.9232 12.7898 44.191 10.2208 41.9846 8.01441C39.7791 5.80899 37.2103 4.07677 34.3493 2.86676C31.3885 1.61463 28.2435 0.979758 25.0005 0.979758ZM25.0005 0C38.8072 0 50 11.1928 50 24.9995C50 38.8072 38.8072 50 25.0005 50C11.1927 50 0 38.8072 0 24.9995C0 11.1927 11.1927 0 25.0005 0Z" fill="#B7B7B7"/>
<path d="M19.9115 36.3841H20.3223V34.9384C20.3376 34.8001 20.322 34.6602 20.2764 34.5285C20.2308 34.3968 20.1565 34.2766 20.0585 34.1763C19.9606 34.0761 19.8415 33.9982 19.7096 33.9482C19.5777 33.8982 19.4363 33.8773 19.2954 33.887C19.1093 33.8792 18.9253 33.9273 18.7676 34.0247C18.6099 34.1222 18.486 34.2646 18.4123 34.4329C18.3343 34.2613 18.2051 34.1171 18.0418 34.0196C17.8786 33.922 17.689 33.8758 17.4983 33.887C17.3434 33.8803 17.1893 33.9136 17.0515 33.9836C16.9137 34.0537 16.7969 34.1581 16.7128 34.2864V33.9325H16.2969V36.3841H16.7128V35.0294C16.7128 34.5239 16.9952 34.2409 17.4162 34.2409C17.8372 34.2409 18.0991 34.4936 18.0991 34.994V36.3841H18.5047V35.0294C18.5047 34.5239 18.7922 34.2409 19.2132 34.2409C19.6342 34.2409 19.891 34.4936 19.891 34.994L19.9115 36.3841ZM20.846 35.1457C20.8326 35.3072 20.8531 35.4697 20.9061 35.6231C20.9592 35.7765 21.0437 35.9175 21.1544 36.0374C21.2652 36.1574 21.3998 36.2536 21.5498 36.3202C21.6999 36.3868 21.8623 36.4223 22.0269 36.4245C22.2139 36.4316 22.3993 36.3883 22.5631 36.2992C22.7269 36.2101 22.8628 36.0786 22.9562 35.919V36.3739H23.3721V33.9325H22.9562V34.3773C22.8628 34.2177 22.7269 34.0863 22.5631 33.9972C22.3993 33.9081 22.2139 33.8648 22.0269 33.8719C21.8616 33.8703 21.6978 33.9031 21.5463 33.9681C21.3947 34.0331 21.2588 34.1288 21.1474 34.249C21.0359 34.3692 20.9515 34.5112 20.8996 34.6657C20.8476 34.8202 20.8294 34.9837 20.846 35.1457ZM22.9562 35.1457C22.9693 35.2622 22.9573 35.3802 22.921 35.4918C22.8846 35.6035 22.8247 35.7064 22.7453 35.7937C22.6658 35.8811 22.5686 35.951 22.4598 35.9988C22.3511 36.0466 22.2333 36.0714 22.1142 36.0714C21.9951 36.0714 21.8773 36.0466 21.7685 35.9988C21.6598 35.951 21.5625 35.8811 21.4831 35.7937C21.4036 35.7064 21.3437 35.6035 21.3074 35.4918C21.2711 35.3802 21.259 35.2622 21.2721 35.1457C21.2614 35.0313 21.2751 34.9159 21.3123 34.807C21.3495 34.6981 21.4095 34.5981 21.4883 34.5134C21.5671 34.4287 21.663 34.3611 21.7699 34.315C21.8768 34.269 21.9923 34.2454 22.109 34.2459C22.2264 34.2463 22.3424 34.2704 22.4498 34.317C22.5572 34.3635 22.6537 34.4313 22.7332 34.5163C22.8127 34.6012 22.8736 34.7014 22.912 34.8106C22.9503 34.9198 22.9654 35.0355 22.9562 35.1507V35.1457ZM25.1332 34.2459C25.2358 34.238 25.3389 34.2515 25.4358 34.2857C25.5327 34.3198 25.6212 34.3737 25.6954 34.4439C25.7696 34.5141 25.8278 34.5989 25.8663 34.6929C25.9049 34.7868 25.9227 34.8877 25.9188 34.989H24.3476C24.3497 34.8894 24.3716 34.7912 24.4121 34.6999C24.4527 34.6087 24.5111 34.5262 24.5841 34.4572C24.657 34.3882 24.7431 34.334 24.8373 34.2978C24.9315 34.2615 25.0321 34.2439 25.1332 34.2459ZM26.3244 35.6258H25.8777C25.8284 35.7667 25.7332 35.8877 25.607 35.9699C25.4807 36.0522 25.3304 36.0911 25.1794 36.0808C25.0741 36.0842 24.9692 36.0667 24.8709 36.0293C24.7726 35.992 24.683 35.9355 24.6073 35.8634C24.5316 35.7912 24.4714 35.7048 24.4303 35.6093C24.3893 35.5138 24.3681 35.4111 24.3682 35.3074H26.3244C26.3296 35.2266 26.3296 35.1456 26.3244 35.0648C26.3317 34.9089 26.3059 34.7532 26.2486 34.6076C26.1914 34.4621 26.1039 34.3299 25.9918 34.2196C25.8797 34.1092 25.7454 34.0231 25.5976 33.9667C25.4497 33.9103 25.2916 33.8849 25.1332 33.8921C24.9653 33.8843 24.7977 33.9119 24.6415 33.973C24.4853 34.0342 24.3441 34.1274 24.2275 34.2466C24.1108 34.3657 24.0213 34.508 23.965 34.6639C23.9087 34.8199 23.8869 34.9858 23.901 35.1507C23.8879 35.3161 23.9104 35.4823 23.9669 35.6386C24.0233 35.7949 24.1126 35.9378 24.2288 36.0579C24.345 36.178 24.4856 36.2727 24.6414 36.3359C24.7972 36.3991 24.9648 36.4292 25.1332 36.4245C25.3955 36.4508 25.6588 36.3851 25.8767 36.239C26.0947 36.0929 26.2532 35.8758 26.3244 35.6258ZM28.7119 35.7168C28.7119 34.8373 27.2486 35.1558 27.2486 34.5745C27.2486 34.3773 27.4283 34.2358 27.7312 34.2358C27.7955 34.2274 27.8608 34.2317 27.9233 34.2487C27.9857 34.2656 28.0441 34.2947 28.0949 34.3344C28.1457 34.374 28.1879 34.4233 28.2189 34.4793C28.2499 34.5353 28.2692 34.5969 28.2755 34.6604H28.6862C28.6801 34.5476 28.6504 34.4373 28.5989 34.3364C28.5475 34.2355 28.4753 34.1461 28.3871 34.074C28.2988 34.0018 28.1964 33.9484 28.0862 33.9171C27.976 33.8858 27.8604 33.8773 27.7466 33.8921C27.1921 33.8921 26.8327 34.2004 26.8327 34.5745C26.8327 35.4894 28.3063 35.1709 28.3063 35.7168C28.3063 35.919 28.1215 36.0808 27.7928 36.0808C27.4642 36.0808 27.2281 35.8988 27.2024 35.6612H26.7762C26.7926 35.7778 26.8322 35.89 26.8927 35.9915C26.9532 36.093 27.0335 36.1817 27.1288 36.2526C27.2242 36.3235 27.3329 36.3752 27.4486 36.4047C27.5643 36.4342 27.6848 36.4409 27.8031 36.4245C28.3268 36.4245 28.6862 36.1212 28.6862 35.7168H28.7119ZM29.3845 35.7168C29.3845 36.2223 29.6361 36.3891 30.0777 36.3891H30.4319V36.0454H30.129C29.8723 36.0454 29.785 35.9595 29.785 35.7168V34.2459H30.4319V33.9123H29.7747V33.3108H29.3588V33.9325H29.0354V34.2459H29.3588L29.3845 35.7168ZM31.3613 35.0547C31.3613 34.4885 31.6642 34.3116 32.0596 34.3116H32.1674V33.8921C32.0041 33.8803 31.841 33.9157 31.6978 33.9938C31.5546 34.0719 31.4377 34.1893 31.3613 34.3318V33.9376H30.9454V36.3891H31.3561L31.3613 35.0547ZM35.0118 35.1558C35.0058 34.9119 34.927 34.6751 34.7852 34.475C34.6435 34.2748 34.4451 34.1202 34.2147 34.0303C33.9843 33.9403 33.7322 33.9191 33.4896 33.9693C33.2471 34.0194 33.0249 34.1387 32.8507 34.3122C32.6765 34.4858 32.558 34.7059 32.51 34.9453C32.462 35.1846 32.4866 35.4326 32.5807 35.6583C32.6748 35.884 32.8342 36.0775 33.0392 36.2146C33.2442 36.3518 33.4856 36.4265 33.7334 36.4295C33.9025 36.4318 34.0703 36.4 34.2264 36.3359C34.3825 36.2718 34.5236 36.177 34.641 36.0571C34.7584 35.9373 34.8496 35.795 34.909 35.6391C34.9683 35.4832 34.9946 35.317 34.9862 35.1507L35.0118 35.1558ZM32.9119 35.1558C32.8988 35.0399 32.9107 34.9226 32.9468 34.8116C32.9829 34.7006 33.0424 34.5983 33.1214 34.5114C33.2004 34.4246 33.2971 34.3551 33.4052 34.3075C33.5133 34.26 33.6304 34.2354 33.7488 34.2354C33.8672 34.2354 33.9843 34.26 34.0924 34.3075C34.2005 34.3551 34.2972 34.4246 34.3762 34.5114C34.4551 34.5983 34.5146 34.7006 34.5507 34.8116C34.5868 34.9226 34.5987 35.0399 34.5857 35.1558C34.5972 35.2723 34.5837 35.39 34.546 35.501C34.5083 35.6121 34.4473 35.7141 34.3669 35.8004C34.2865 35.8867 34.1885 35.9554 34.0794 36.002C33.9702 36.0485 33.8523 36.0719 33.7334 36.0707C33.6134 36.0746 33.494 36.0528 33.3835 36.0067C33.2729 35.9607 33.1739 35.8915 33.0933 35.8039C33.0127 35.7164 32.9524 35.6126 32.9166 35.4998C32.8809 35.387 32.8705 35.2679 32.8862 35.1507L32.9119 35.1558Z" fill="#F9F9F9"/>
<path d="M25.529 30.3488C24.4535 31.1437 23.2336 31.7287 21.9349 32.0724C20.11 32.4789 18.2034 32.3401 16.4591 31.6738C14.7149 31.0074 13.2122 29.8438 12.1435 28.3319C11.4247 27.3247 10.9152 26.1875 10.6443 24.9857C10.089 22.5611 10.5262 20.0187 11.8611 17.9091C12.516 16.8649 13.3745 15.9587 14.387 15.243C15.3996 14.5272 16.5462 14.016 17.7606 13.739C19.0445 13.4635 20.3737 13.4635 21.6576 13.739C22.9421 14.0018 24.155 14.5307 25.2158 15.2908C25.3184 15.3615 25.3955 15.4778 25.5392 15.4778V15.6648C24.8004 16.2117 24.1614 16.8783 23.6498 17.6362C22.2475 19.6107 21.6939 22.0504 22.1094 24.4246C22.4594 26.7191 23.7 28.7903 25.57 30.2022L25.529 30.3488Z" fill="#CECCCC"/>
<path d="M25.4214 30.5155V30.3841C25.8633 30.0206 26.2738 29.6216 26.6485 29.1912C27.4787 28.2544 28.1081 27.1622 28.499 25.98C28.8899 24.7979 29.0341 23.5501 28.9231 22.3117C28.827 20.913 28.3997 19.5559 27.6754 18.3488C27.1083 17.3514 26.3373 16.4805 25.4111 15.7912V15.6193C26.3681 14.9221 27.4397 14.3921 28.5791 14.0523C30.1058 13.6116 31.7222 13.5663 33.2719 13.9209C34.8242 14.2702 36.2607 15.0025 37.4462 16.0489C39.2393 17.6531 40.3516 19.8642 40.561 22.2405C40.7704 24.6169 40.0615 26.9835 38.5758 28.8677C37.5964 30.1134 36.3121 31.0943 34.8431 31.7186C33.3795 32.3279 31.7825 32.5604 30.2024 32.3942C28.6224 32.2279 27.1113 31.6684 25.8116 30.7683L25.4214 30.5155Z" fill="#F9F9F9"/>
<path d="M25.5238 15.5788C26.4871 16.2741 27.2931 17.1588 27.8908 18.177C28.6458 19.4033 29.0912 20.79 29.1898 22.2207C29.3039 23.4812 29.1519 24.7513 28.7431 25.9511C28.3381 27.1473 27.69 28.2497 26.8382 29.1912C26.4439 29.6207 26.0165 30.0195 25.5597 30.3841C23.6231 28.9616 22.3323 26.8465 21.9656 24.4954C21.7446 23.2971 21.776 22.067 22.058 20.8812C22.325 19.6884 22.8331 18.5607 23.5522 17.5653C24.0856 16.7841 24.7527 16.1 25.5238 15.5435V15.5788Z" fill="#EBE9E8"/>
</svg>
