<svg width="400" height="192" viewBox="0 0 400 192" fill="none" xmlns="http://www.w3.org/2000/svg">
<path d="M20 191C18.7298 191 17.4897 190.876 16.2908 190.638L16.0968 191.619C13.4729 191.1 11.0335 190.068 8.88769 188.631L9.44401 187.8C7.3716 186.413 5.5871 184.628 4.19966 182.556L3.36869 183.112C1.93209 180.966 0.899765 178.527 0.38068 175.903L1.36167 175.709C1.1245 174.51 1 173.27 1 172V168.545H0V161.636H1V154.727H0V147.818H1V140.909H0V134H1V127.091H0V120.182H1V113.273H0V106.364H1V99.4545H0V92.5455H1V85.6364H0V78.7273H1V71.8182H0V64.9091H1V58H0V51.0909H1V44.1818H0V37.2728H1V30.3637H0V23.4546H1V20C1 18.7298 1.1245 17.4897 1.36167 16.2908L0.380681 16.0968C0.899766 13.4729 1.93209 11.0335 3.36869 8.88769L4.19966 9.44401C5.5871 7.3716 7.3716 5.5871 9.44401 4.19966L8.88769 3.36869C11.0335 1.93209 13.4729 0.899766 16.0968 0.380681L16.2908 1.36167C17.4897 1.1245 18.7298 1 20 1H23.4615V0H30.3846V1H37.3077V0H44.2308V1H51.1538V0H58.0769V1H65V0H71.9231V1H78.8462V0H85.7692V1H92.6923V0H99.6154V1H106.538V0H113.462V1H120.385V0H127.308V1H134.231V0H141.154V1H148.077V0H155V1H161.923V0H168.846V1H175.769V0H182.692V1H189.615V0H196.539V1H203.462V0H210.385V1H217.308V0H224.231V1H231.154V0H238.077V1H245V0H251.923V1H258.846V0H265.769V1H272.692V0H279.615V1H286.539V0H293.462V1H300.385V0H307.308V1H314.231V0H321.154V1H328.077V0H335V1H341.923V0H348.846V1H355.769V0H362.692V1H369.615V0H376.538V1H380C381.27 1 382.51 1.1245 383.709 1.36167L383.903 0.380679C386.527 0.899765 388.966 1.93209 391.112 3.3687L390.556 4.19966C392.628 5.5871 394.413 7.3716 395.8 9.44401L396.631 8.88769C398.068 11.0335 399.1 13.4729 399.619 16.0968L398.638 16.2908C398.875 17.4897 399 18.7298 399 20V23.4545H400V30.3636H399V37.2727H400V44.1818H399V51.0909H400V58H399V64.9091H400V71.8182H399V78.7273H400V85.6364H399V92.5455H400V99.4545H399V106.364H400V113.273H399V120.182H400V127.091H399V134H400V140.909H399V147.818H400V154.727H399V161.636H400V168.545H399V172C399 173.27 398.875 174.51 398.638 175.709L399.619 175.903C399.1 178.527 398.068 180.966 396.631 183.112L395.8 182.556C394.413 184.628 392.628 186.413 390.556 187.8L391.112 188.631C388.966 190.068 386.527 191.1 383.903 191.619L383.709 190.638C382.51 190.876 381.27 191 380 191H376.538V192H369.615V191H362.692V192H355.769V191H348.846V192H341.923V191H335V192H328.077V191H321.154V192H314.231V191H307.308V192H300.385V191H293.462V192H286.538V191H279.615V192H272.692V191H265.769V192H258.846V191H251.923V192H245V191H238.077V192H231.154V191H224.231V192H217.308V191H210.385V192H203.461V191H196.538V192H189.615V191H182.692V192H175.769V191H168.846V192H161.923V191H155V192H148.077V191H141.154V192H134.231V191H127.308V192H120.385V191H113.461V192H106.538V191H99.6153V192H92.6923V191H85.7692V192H78.8461V191H71.9231V192H65V191H58.0769V192H51.1539V191H44.2308V192H37.3077V191H30.3847V192H23.4616V191H20Z" fill="#B7B7B7" stroke="#6F6E6D" stroke-width="2" stroke-dasharray="7 7"/>
</svg>
