<svg width="50" height="50" viewBox="0 0 50 50" fill="none" xmlns="http://www.w3.org/2000/svg">
<path d="M25.017 49.533C21.7065 49.533 18.496 48.8852 15.4736 47.6063C12.5542 46.3715 9.93263 44.6035 7.68052 42.3525C5.42943 40.1004 3.66147 37.4789 2.42671 34.5594C1.14774 31.537 0.5 28.3265 0.5 25.016C0.5 21.7065 1.14774 18.496 2.42671 15.4736C3.66147 12.5542 5.42943 9.93264 7.68052 7.68056C9.93262 5.42849 12.5541 3.66053 15.4736 2.42573C18.496 1.14779 21.7065 0.5 25.017 0.5C28.3265 0.5 31.537 1.14779 34.5594 2.42573C37.4788 3.66053 40.1003 5.42849 42.3524 7.68056C44.6045 9.93263 46.3724 12.5542 47.6063 15.4736C48.8852 18.496 49.533 21.7065 49.533 25.016C49.533 28.3265 48.8852 31.537 47.6063 34.5594C46.3724 37.4788 44.6045 40.1004 42.3524 42.3525C40.1003 44.6035 37.4788 46.3715 34.5594 47.6063C31.537 48.8852 28.3265 49.533 25.017 49.533Z" fill="#6F6E6D"/>
<path fill-rule="evenodd" clip-rule="evenodd" d="M25.0005 0.979758C21.7565 0.979758 18.6115 1.61463 15.6507 2.86676C12.7907 4.07677 10.2218 5.80899 8.01538 8.01441C5.80895 10.2208 4.07673 12.7898 2.86675 15.6507C1.61459 18.6115 0.979769 21.7565 0.979769 24.9995C0.979769 28.2425 1.6146 31.3885 2.86675 34.3493C4.07674 37.2093 5.80895 39.7782 8.01538 41.9846C10.2218 44.191 12.7907 45.9232 15.6507 47.1332C18.6115 48.3854 21.7565 49.0202 25.0005 49.0202C28.2435 49.0202 31.3885 48.3854 34.3493 47.1332C37.2103 45.9232 39.7791 44.191 41.9846 41.9846C44.191 39.7782 45.9232 37.2093 47.1333 34.3493C48.3853 31.3885 49.0202 28.2425 49.0202 24.9995C49.0202 21.7565 48.3853 18.6115 47.1333 15.6507C45.9232 12.7898 44.191 10.2208 41.9846 8.01441C39.7791 5.80899 37.2103 4.07677 34.3493 2.86676C31.3885 1.61463 28.2435 0.979758 25.0005 0.979758ZM25.0005 0C38.8072 0 50 11.1928 50 24.9995C50 38.8072 38.8072 50 25.0005 50C11.1927 50 0 38.8072 0 24.9995C0 11.1927 11.1927 0 25.0005 0Z" fill="#B7B7B7"/>
<path d="M30.3951 19.0076C30.0396 19.1612 29.7321 19.2795 29.4403 19.437C28.6842 19.8451 28.2001 20.4832 27.9829 21.2908C27.7813 22.0373 28.0426 22.6679 28.6359 23.1688C28.9597 23.4421 29.3361 23.5466 29.741 23.5868C30.8138 23.6934 31.7541 23.3735 32.5809 22.6949C32.595 22.6873 32.6098 22.6809 32.625 22.6757C32.5023 22.9174 32.3349 23.1055 32.1629 23.2893C31.4164 24.093 30.5024 24.6152 29.4474 24.9106C28.739 25.1093 28.0255 25.2134 27.2936 25.1103C26.5905 25.0112 25.9396 24.7826 25.4487 24.2298C24.9283 23.6444 24.806 22.9764 25.0264 22.2321C25.2155 21.5922 25.6048 21.0917 26.0797 20.6428C27.0206 19.7541 28.1542 19.271 29.4126 19.0503C29.7204 18.9962 30.0318 18.9927 30.3951 19.0076Z" fill="#B7B7B7"/>
<path d="M28.5985 21.5775C28.6251 21.1126 28.8931 20.6835 29.2952 20.3384C30.057 19.6843 30.9268 19.3807 31.9321 19.6157C32.7898 19.8165 33.1787 20.6444 32.7905 21.4332C32.4258 22.1751 31.7952 22.5978 31.0292 22.8359C30.5855 22.9742 30.1284 23.0137 29.6688 22.9045C29.0531 22.7566 28.5754 22.2967 28.5985 21.5775Z" fill="white"/>
<path d="M10 28.942C10.3836 27.9688 10.7604 27.0122 11.1375 26.0553C11.1699 25.9724 11.2107 25.9269 11.3152 25.928C12.0493 25.934 12.783 25.9323 13.517 25.9301C13.6194 25.9301 13.6759 25.9301 13.6134 26.0613C13.5181 26.2632 13.4334 26.4699 13.3596 26.6805C13.324 26.7822 13.2703 26.8153 13.1655 26.8124C12.9166 26.8053 12.6678 26.8099 12.419 26.8099C12.1406 26.8099 12.0212 26.8853 11.9188 27.1434C11.7543 27.5589 11.5954 27.9766 11.434 28.3932C11.3764 28.5414 11.3184 28.6889 11.2612 28.8368C11.2356 28.9029 11.1969 28.9435 11.119 28.9435C10.7518 28.9406 10.3857 28.942 10 28.942Z" fill="white"/>
<path d="M23.384 28.0996C23.2692 28.3687 23.159 28.6257 23.0495 28.8817C23.0193 28.9528 22.9574 28.941 22.8991 28.941C22.6741 28.941 22.4491 28.941 22.2237 28.941C21.7431 28.9393 21.4598 28.5635 21.6041 28.1035C21.7701 27.5753 21.9991 27.0705 22.2027 26.5565C22.2657 26.3976 22.3325 26.2405 22.3908 26.0802C22.4263 25.9793 22.4807 25.9338 22.5973 25.938C22.9464 25.9465 23.2955 25.9409 23.6655 25.9409C23.5006 26.3493 23.341 26.7453 23.1803 27.1413C23.1092 27.3212 23.0313 27.4996 22.9602 27.6802C22.8465 27.9685 22.9332 28.0968 23.24 28.0993L23.384 28.0996Z" fill="white"/>
<path d="M23.1066 25.6522C22.9128 25.6597 22.7337 25.6273 22.6416 25.4325C22.5595 25.2584 22.6231 25.0508 22.8122 24.8993C23.0696 24.6939 23.3643 24.6093 23.6888 24.7017C23.976 24.7834 24.0646 25.0397 23.8925 25.2829C23.703 25.553 23.4187 25.6373 23.1066 25.6522Z" fill="white"/>
<path fill-rule="evenodd" clip-rule="evenodd" d="M23.9442 26.519C23.9106 26.604 23.8764 26.6905 23.8415 26.7792C23.9492 26.7792 24.026 26.7781 24.1028 26.776C24.3065 26.7788 24.3768 26.8801 24.3036 27.0749C24.2642 27.1794 24.2213 27.2824 24.1785 27.3855C24.1534 27.4459 24.1283 27.5062 24.1038 27.5669C23.7851 28.3586 23.4652 29.1498 23.1441 29.9404C23.0993 30.0534 23.0808 30.1178 23.2507 30.1103C23.5514 30.0979 23.8543 30.1025 24.1557 30.1103C24.2691 30.1121 24.32 30.0733 24.3605 29.9699C24.4119 29.8372 24.4676 29.7062 24.5233 29.5751C24.592 29.4136 24.6607 29.2521 24.7213 29.0876C24.7632 28.9742 24.8208 28.9525 24.9275 28.9525C24.9829 28.9534 25.0384 28.9545 25.0939 28.9555C25.4636 28.9622 25.8345 28.9689 26.2054 28.9525C26.7361 28.9301 27.152 28.6827 27.372 28.1943C27.5441 27.8156 27.6948 27.4273 27.8455 27.0389C27.8973 26.9056 27.949 26.7724 28.0016 26.6395C28.0422 26.5434 28.0478 26.4362 28.0174 26.3365C27.987 26.2367 27.9225 26.1508 27.8352 26.0938C27.6916 25.9961 27.5299 25.9278 27.3568 25.9278C26.71 25.9269 26.0637 25.9291 25.4169 25.9313C25.0342 25.9326 24.6513 25.9339 24.2681 25.9346C24.2094 25.9346 24.1689 25.9449 24.1454 26.0057C24.0801 26.1753 24.0134 26.3441 23.9442 26.519ZM26.1938 26.8046C26.1544 26.8051 26.1149 26.8055 26.0755 26.8055C26.0453 26.8055 26.0151 26.8057 25.9848 26.806C25.897 26.8067 25.8091 26.8075 25.7218 26.8019C25.6414 26.798 25.5934 26.8218 25.5632 26.9015C25.4281 27.2594 25.2916 27.6153 25.147 27.9679C25.104 28.0727 25.1509 28.0752 25.2287 28.077C25.3244 28.0791 25.4201 28.0823 25.5158 28.0855C25.6618 28.0903 25.8079 28.0951 25.9539 28.0962C26.0929 28.0973 26.2169 28.0358 26.277 27.9131C26.4075 27.6448 26.528 27.3703 26.6371 27.0927C26.699 26.9352 26.6023 26.8122 26.4309 26.8055C26.3518 26.8029 26.2728 26.8038 26.1938 26.8046Z" fill="#B7B7B7"/>
<path fill-rule="evenodd" clip-rule="evenodd" d="M16.9774 29.6858C16.9206 29.8312 16.8634 29.9777 16.8057 30.1257C16.9234 30.1257 17.0381 30.125 17.1506 30.1244C17.4025 30.1229 17.6436 30.1215 17.8842 30.1279C17.9901 30.1303 18.0235 30.0866 18.0544 29.9992C18.1244 29.8023 18.1977 29.6054 18.2709 29.4085C18.3167 29.2855 18.3624 29.1625 18.4074 29.0394C18.409 29.035 18.4106 29.0306 18.4121 29.0262C18.4324 28.9687 18.4499 28.9191 18.5329 28.9225C18.6874 28.928 18.842 28.9264 18.9967 28.9247C19.2261 28.9222 19.4556 28.9197 19.685 28.9409C20.1887 28.9889 20.6277 28.8741 20.9103 28.412C21.1551 28.0166 21.3629 27.5995 21.5313 27.1661C21.5628 27.0856 21.5856 27.002 21.6084 26.9184C21.6228 26.8654 21.6372 26.8124 21.6539 26.7601C21.8199 26.239 21.5025 26.0094 21.0852 25.9322C20.8664 25.8916 20.6473 25.9037 20.4281 25.9157C20.3232 25.9215 20.2183 25.9273 20.1133 25.9273C19.9177 25.9272 19.7222 25.9272 19.5266 25.9273C19.0237 25.9276 18.5208 25.9278 18.0182 25.9248C17.9211 25.9241 17.8714 25.9482 17.8404 26.0446C17.7733 26.2514 17.7 26.4569 17.6168 26.6577C17.5742 26.7608 17.6037 26.7751 17.7 26.7782C17.9929 26.7878 18.0573 26.876 17.9574 27.1543C17.866 27.4108 17.7664 27.6646 17.6669 27.9184C17.6333 28.0041 17.5997 28.0898 17.5664 28.1756C17.3722 28.6742 17.1776 29.1727 16.9774 29.6858ZM19.2762 26.8911C19.1187 27.2821 18.9584 27.6731 18.7863 28.0926C18.8691 28.0926 18.9496 28.0932 19.0284 28.0937C19.2238 28.0952 19.4091 28.0965 19.594 28.0887C19.745 28.0819 19.8918 28.0172 19.9704 27.885C20.1261 27.6234 20.2644 27.3496 20.3188 27.045C20.3419 26.9153 20.2918 26.8196 20.1432 26.8196C20.0283 26.8188 19.9135 26.8189 19.7986 26.819C19.6646 26.8191 19.5307 26.8192 19.3967 26.8179C19.3373 26.8171 19.3003 26.8303 19.2762 26.8911Z" fill="white"/>
<path fill-rule="evenodd" clip-rule="evenodd" d="M35.6483 25.8709C35.6613 25.8602 35.6732 25.8483 35.6839 25.8354C35.6346 25.7822 35.5857 25.7303 35.5375 25.679C35.4362 25.5713 35.3376 25.4665 35.2427 25.3584C35.1617 25.2656 35.0956 25.2485 34.9754 25.3114C34.0238 25.8094 33.0936 26.3437 32.1942 26.9313C31.8946 27.1265 31.8409 27.5004 32.0876 27.7624C32.3916 28.0857 32.6997 28.4047 33.0118 28.7197C33.1035 28.8125 33.1661 28.9084 33.1117 29.0332C33.0573 29.158 32.9428 29.2067 32.806 29.2003C32.7816 29.1992 32.7571 29.198 32.7327 29.1969C32.5861 29.1901 32.4396 29.1832 32.293 29.1811C32.2817 29.1809 32.2699 29.1797 32.2579 29.1785C32.2075 29.1734 32.1547 29.1681 32.1242 29.2362C32.0408 29.4225 31.9558 29.6082 31.8702 29.7954C31.8383 29.8651 31.8064 29.9349 31.7744 30.0051C31.8775 30.0051 31.9791 30.0053 32.0795 30.0056C32.3321 30.0062 32.5775 30.0069 32.8227 30.0033C32.8538 30.0029 32.8855 30.0049 32.9173 30.007C33.0048 30.0126 33.0933 30.0182 33.1728 29.9742C33.5909 29.7434 34.0093 29.5096 34.358 29.1747C34.5745 28.9667 34.6086 28.7947 34.4721 28.5252C34.4099 28.4026 34.4365 28.3369 34.5546 28.2704C34.9822 28.0308 35.4002 27.7756 35.7749 27.4556C36.0042 27.2605 36.0248 26.9569 35.8243 26.7372C35.7486 26.6544 35.6718 26.5719 35.5929 26.4923C35.2794 26.1752 35.3217 26.0682 35.6483 25.8709ZM34.6533 27.2176C34.6721 27.1843 34.6817 27.1466 34.6812 27.1084C34.6824 27.0727 34.6754 27.0371 34.6608 27.0045C34.6461 26.9719 34.6241 26.9431 34.5966 26.9203C34.5568 26.8817 34.5176 26.8423 34.4784 26.8028C34.4509 26.7752 34.4234 26.7476 34.3957 26.7202C34.2304 26.5578 34.1053 26.5258 33.9055 26.637C33.6652 26.771 33.4303 26.92 33.2031 27.0768C33.0545 27.1806 33.0495 27.3178 33.1676 27.4546C33.2054 27.4984 33.2438 27.5405 33.2823 27.5828C33.338 27.644 33.3939 27.7054 33.4487 27.7724C33.5415 27.8858 33.6368 27.8929 33.7548 27.8168C34.0261 27.641 34.2994 27.4681 34.5745 27.2982C34.6074 27.2788 34.6346 27.251 34.6533 27.2176Z" fill="#B7B7B7"/>
<path fill-rule="evenodd" clip-rule="evenodd" d="M17.4006 26.2459C17.4426 26.1416 17.4848 26.0368 17.5273 25.9312C17.2615 25.9312 16.9976 25.9284 16.7352 25.9257C16.1278 25.9195 15.5284 25.9133 14.9306 25.9411C14.4589 25.9656 14.0142 26.1587 13.7615 26.6055C13.4885 27.0889 13.3068 27.6143 13.1355 28.1397C13.02 28.4952 13.154 28.744 13.4871 28.8862C13.5804 28.9235 13.6802 28.9417 13.7807 28.9399C14.3296 28.943 14.8785 28.9448 15.4274 28.9466C15.8849 28.9482 16.3423 28.9497 16.7997 28.952C16.8804 28.9523 16.9277 28.9356 16.9568 28.8499C16.9973 28.7302 17.047 28.6136 17.0967 28.4969C17.1117 28.4619 17.1266 28.4269 17.1413 28.3917L17.1421 28.3898C17.2518 28.1266 17.2519 28.1264 16.9781 28.0718C16.7915 28.0345 16.756 27.9812 16.7979 27.7906C16.8117 27.7274 16.8306 27.6653 16.8544 27.6051C17.0342 27.1557 17.2149 26.707 17.4006 26.2459ZM15.8463 27.1061C15.8828 27.0091 15.9199 26.9106 15.9577 26.81C15.9021 26.81 15.8479 26.81 15.7946 26.81C15.5868 26.8099 15.3945 26.8098 15.2041 26.8115C15.124 26.8084 15.0446 26.8266 14.9737 26.864C14.9029 26.9015 14.8432 26.9569 14.8006 27.0247C14.6414 27.2663 14.5326 27.5375 14.4807 27.8221C14.4512 27.9763 14.5365 28.0709 14.6968 28.0709C14.8257 28.0719 14.9546 28.0697 15.0834 28.0675C15.1908 28.0656 15.2981 28.0638 15.4056 28.0638C15.4568 28.0638 15.4916 28.0535 15.5122 27.9987C15.6206 27.7058 15.7306 27.4135 15.8463 27.1061Z" fill="white"/>
<path fill-rule="evenodd" clip-rule="evenodd" d="M31.5768 27.4595L32.1974 25.9356L31.9998 25.9384C31.8078 25.9384 31.6155 25.9388 31.4231 25.9392C30.9416 25.9402 30.459 25.9413 29.9765 25.9359C29.7114 25.9293 29.4471 25.967 29.1944 26.0475C28.7995 26.1791 28.4781 26.3927 28.3196 26.8068C28.2279 27.0466 28.1265 27.2826 28.025 27.5187C27.9637 27.6614 27.9024 27.804 27.8433 27.9475C27.7673 28.1418 27.7567 28.3556 27.8131 28.5565C27.8364 28.6583 27.8939 28.7491 27.9759 28.8137C28.058 28.8784 28.1597 28.913 28.2641 28.9119H31.4588C31.4607 28.9119 31.4627 28.912 31.4647 28.912C31.5166 28.9124 31.5664 28.9128 31.5917 28.8519C31.6937 28.6052 31.7954 28.3595 31.902 28.1075C31.4435 28.0584 31.3813 27.9532 31.5444 27.5416L31.5445 27.5413C31.5552 27.514 31.5658 27.4868 31.5768 27.4595ZM30.5147 27.1091C30.5552 27.0006 30.5962 26.891 30.6376 26.7797C30.5736 26.7797 30.5119 26.7815 30.452 26.7834C30.3234 26.7873 30.2028 26.7909 30.0838 26.7754C29.7582 26.7331 29.5609 26.8821 29.4169 27.1536C29.3066 27.3533 29.2181 27.5642 29.1528 27.7828C29.1005 27.9737 29.1617 28.0942 29.3138 28.0974C29.4927 28.101 29.6715 28.1003 29.8503 28.0997C29.9203 28.0994 29.9903 28.0992 30.0603 28.0992C30.1193 28.0995 30.1549 28.0846 30.178 28.0206C30.287 27.7192 30.3991 27.4189 30.5147 27.1091Z" fill="#B7B7B7"/>
<path fill-rule="evenodd" clip-rule="evenodd" d="M36.8888 28.7953C37.0776 28.9666 37.2948 29.0803 37.5365 29.0594C37.8625 29.0676 38.1274 28.9472 38.393 28.8265C38.4031 28.8219 38.4133 28.8173 38.4234 28.8127C39.1169 28.4942 39.8001 28.1593 40.3785 27.6485C40.4314 27.6015 40.4743 27.5443 40.5047 27.4804C40.535 27.4165 40.5522 27.3471 40.5552 27.2764C40.5583 27.2057 40.547 27.1351 40.5222 27.0689C40.4974 27.0026 40.4595 26.942 40.4108 26.8906C40.1376 26.6124 39.8523 26.3468 39.5549 26.0937C39.166 25.7631 38.7433 25.7549 38.3004 25.9586C38.1556 26.0253 38.0146 26.0996 37.8736 26.1738C37.8215 26.2013 37.7694 26.2287 37.7171 26.2558C37.2172 26.5095 36.7307 26.7889 36.2597 27.0929C35.9596 27.2895 35.8473 27.6745 36.0357 27.8973C36.3003 28.2148 36.5853 28.5148 36.8888 28.7953ZM37.3877 27.5585C37.4236 27.7423 37.8249 28.064 38.0147 28.064C38.0278 28.0635 38.0408 28.0634 38.0538 28.0633C38.0997 28.063 38.1452 28.0627 38.1892 28.042C38.4866 27.8993 38.7754 27.7394 39.0541 27.5631C39.1536 27.4995 39.2208 27.3822 39.1337 27.2756C38.9923 27.1035 38.838 26.9354 38.6332 26.8341C38.5862 26.8085 38.5338 26.7944 38.4803 26.7927C38.4268 26.791 38.3736 26.8019 38.325 26.8245C38.0384 26.963 37.7617 27.1211 37.4968 27.2976C37.4533 27.3239 37.4193 27.3634 37.3997 27.4103C37.3801 27.4572 37.3759 27.5091 37.3877 27.5585Z" fill="#B7B7B7"/>
</svg>
