<svg width="25" height="25" viewBox="0 0 25 25" fill="none" xmlns="http://www.w3.org/2000/svg">
<path d="M21.9982 13.7699C21.9982 11.786 21.3871 9.907 20.2287 8.31532L21.0906 7.45335C21.2138 7.33022 21.2138 7.12499 21.0906 7.00185L19.4625 5.37368C19.4032 5.31439 19.3211 5.28247 19.2344 5.28247C19.1478 5.28247 19.0703 5.31439 19.011 5.37824L18.149 6.24021C16.9678 5.3828 15.5996 4.81728 14.163 4.58924V4.02828H15.0933C15.2712 4.02828 15.4126 3.8869 15.4126 3.70903V1.7753C15.4126 1.59744 15.2712 1.45605 15.0933 1.45605H10.2955C10.1176 1.45605 9.97625 1.59744 9.97625 1.7753V3.70903C9.97625 3.8869 10.1176 4.02828 10.2955 4.02828H11.2259V4.58012C6.73817 5.29615 3.39062 9.19554 3.39062 13.7699C3.39062 18.9007 7.56365 23.0737 12.6944 23.0737C17.8252 23.0737 21.9982 18.9007 21.9982 13.7699ZM10.6148 2.09455H14.7741V3.38978H13.8437H11.5406H10.6102V2.09455H10.6148ZM12.6944 22.4352C7.91482 22.4352 4.02912 18.5495 4.02912 13.7699C4.02912 9.41901 7.27633 5.72486 11.5816 5.17757C11.7412 5.15933 11.8598 5.02251 11.8598 4.86289V4.02828H13.5245V4.85833C13.5245 5.01795 13.643 5.15477 13.8027 5.17301C15.3214 5.36912 16.7671 5.96657 17.9848 6.90607C18.1125 7.00641 18.2904 6.99273 18.4044 6.87871L19.2344 6.04866L20.4111 7.22532L19.5811 8.05993C19.467 8.17394 19.4579 8.35181 19.5537 8.47951C20.7349 10.0073 21.3552 11.8362 21.3552 13.7699C21.3597 18.5495 17.474 22.4352 12.6944 22.4352Z" fill="white"/>
<path d="M12.6896 6.5957C8.73547 6.5957 5.51562 9.81555 5.51562 13.7697C5.51562 17.7238 8.73547 20.9436 12.6896 20.9436C16.6437 20.9436 19.8635 17.7238 19.8635 13.7697C19.8635 9.81555 16.6437 6.5957 12.6896 6.5957ZM6.15412 13.7697C6.15412 10.1667 9.08664 7.2342 12.6896 7.2342C16.1876 7.2342 19.0517 9.99341 19.2159 13.4504H13.8115C13.6701 12.9624 13.2232 12.6021 12.6896 12.6021C12.0465 12.6021 11.522 13.1266 11.522 13.7697C11.522 14.3033 11.8823 14.7548 12.3703 14.8916V20.296C8.91334 20.1318 6.15412 17.2677 6.15412 13.7697ZM19.2114 14.1619C19.2114 14.1938 19.2068 14.2257 19.2068 14.2577C19.2068 14.2805 19.2022 14.3033 19.2022 14.3261C19.1977 14.358 19.1977 14.3854 19.1931 14.4173C19.1886 14.4401 19.1886 14.4674 19.184 14.4902C19.1794 14.5176 19.1794 14.5495 19.1749 14.5769C19.1703 14.6043 19.1703 14.6271 19.1658 14.6499C19.1612 14.6772 19.1566 14.7046 19.1521 14.732C19.1475 14.7593 19.143 14.7821 19.1384 14.8095C19.1338 14.8369 19.1293 14.8642 19.1247 14.8916C19.1201 14.919 19.1156 14.9418 19.111 14.9691C19.1065 14.9965 19.1019 15.0193 19.0973 15.0467C19.0928 15.074 19.0882 15.0968 19.0837 15.1242C19.0791 15.1515 19.0745 15.1744 19.0654 15.2017C19.0609 15.2291 19.0517 15.2519 19.0472 15.2792C19.0426 15.3021 19.0335 15.3294 19.0289 15.3522C19.0244 15.3796 19.0153 15.4024 19.0107 15.4297C19.0061 15.4526 18.997 15.4799 18.9924 15.5027C18.9833 15.5301 18.9788 15.5574 18.9696 15.5803C18.9651 15.6031 18.956 15.6259 18.9468 15.6487C18.9377 15.676 18.9332 15.7034 18.924 15.7262C18.9149 15.749 18.9104 15.7718 18.9012 15.7946C18.8921 15.822 18.883 15.8493 18.8739 15.8767C18.8648 15.8995 18.8602 15.9177 18.8511 15.9405C18.8419 15.9679 18.8328 15.9953 18.8237 16.0226C18.8146 16.0409 18.81 16.0591 18.8009 16.0774C18.7918 16.1047 18.7781 16.1367 18.769 16.164C18.7644 16.1731 18.7599 16.1868 18.7553 16.1959C18.7097 16.31 18.6595 16.4285 18.6048 16.538C18.6002 16.5517 18.5911 16.5654 18.5865 16.579C18.5729 16.611 18.5592 16.6383 18.5409 16.6703C18.5318 16.6885 18.5273 16.7022 18.5181 16.7204C18.5045 16.7478 18.4908 16.7752 18.4725 16.8071C18.4634 16.8253 18.4543 16.839 18.4452 16.8572C18.4315 16.8846 18.4132 16.912 18.3996 16.9393C18.3904 16.9576 18.3813 16.9758 18.3722 16.9895C18.3585 17.0169 18.3403 17.0442 18.3266 17.0716C18.3175 17.0898 18.3083 17.1035 18.2947 17.1218C18.281 17.1491 18.2627 17.1765 18.2445 17.1993C18.2354 17.2175 18.2217 17.2312 18.2126 17.2495C18.1943 17.2768 18.1806 17.2996 18.1624 17.327C18.1533 17.3452 18.1396 17.3589 18.1305 17.3772C18.1122 17.4045 18.094 17.4273 18.0803 17.4547C18.0712 17.4729 18.0575 17.4866 18.0484 17.5049C18.0301 17.5322 18.0119 17.555 17.9937 17.5824C17.9845 17.5961 17.9709 17.6143 17.9617 17.628C17.9435 17.6554 17.9252 17.6782 17.907 17.7055C17.8979 17.7192 17.8842 17.7329 17.8751 17.7511C17.8568 17.7785 17.834 17.8013 17.8158 17.8287C17.8067 17.8424 17.793 17.856 17.7839 17.8697C17.7611 17.8971 17.7428 17.9199 17.72 17.9472C17.7109 17.9609 17.6972 17.9701 17.6881 17.9837C17.6653 18.0111 17.6425 18.0385 17.6197 18.0613C17.6106 18.0704 17.6014 18.0795 17.5923 18.0932C17.5695 18.1206 17.5422 18.1479 17.5193 18.1753C17.5148 18.1798 17.5102 18.1844 17.5057 18.189C17.3825 18.3258 17.2503 18.4535 17.1134 18.5812C17.1089 18.5857 17.1043 18.5903 17.0998 18.5949C17.0724 18.6222 17.045 18.645 17.0177 18.6678C17.0086 18.677 16.9994 18.6861 16.9857 18.6952C16.9584 18.718 16.931 18.7408 16.9082 18.7636C16.8945 18.7727 16.8854 18.7864 16.8717 18.7955C16.8444 18.8183 16.8216 18.8366 16.7942 18.8594C16.7805 18.8685 16.7668 18.8822 16.7532 18.8913C16.7258 18.9096 16.703 18.9324 16.6756 18.9506C16.6619 18.9597 16.6483 18.9734 16.63 18.9825C16.6026 19.0008 16.5798 19.019 16.5525 19.0373C16.5388 19.0464 16.5206 19.0601 16.5069 19.0692C16.4795 19.0874 16.4567 19.1057 16.4293 19.1239C16.4157 19.133 16.3974 19.1467 16.3792 19.1558C16.3518 19.1741 16.329 19.1923 16.3016 19.206C16.2834 19.2151 16.2697 19.2288 16.2515 19.2379C16.2241 19.2562 16.2013 19.2698 16.1739 19.2881C16.1557 19.2972 16.142 19.3109 16.1238 19.32C16.0964 19.3383 16.0691 19.3519 16.0462 19.3702C16.028 19.3793 16.0143 19.3884 15.9961 19.4021C15.9687 19.4158 15.9414 19.434 15.914 19.4477C15.8957 19.4568 15.8821 19.466 15.8638 19.4751C15.8365 19.4888 15.8091 19.507 15.7817 19.5207C15.7635 19.5298 15.7498 19.5389 15.7316 19.548C15.7042 19.5617 15.6768 19.58 15.6449 19.5937C15.6267 19.6028 15.613 19.6119 15.5947 19.6165C15.5628 19.6301 15.5355 19.6484 15.5035 19.6621C15.4898 19.6666 15.4762 19.6757 15.4625 19.6803C15.3485 19.735 15.2344 19.7852 15.1159 19.8308C15.1067 19.8354 15.0931 19.8399 15.0839 19.8445C15.0566 19.8582 15.0247 19.8673 14.9927 19.8764C14.9745 19.8855 14.9562 19.8901 14.938 19.8992C14.9106 19.9083 14.8833 19.9175 14.8559 19.9311C14.8331 19.9403 14.8149 19.9448 14.7921 19.9539C14.7647 19.9631 14.7373 19.9722 14.71 19.9813C14.6872 19.9904 14.6644 19.995 14.6416 20.0041C14.6142 20.0132 14.5868 20.0224 14.564 20.0269C14.5412 20.036 14.5184 20.0406 14.4956 20.0497C14.4682 20.0588 14.4454 20.0634 14.4181 20.0725C14.3953 20.0771 14.3679 20.0862 14.3451 20.0908C14.3177 20.0999 14.2949 20.1045 14.2676 20.109C14.2448 20.1136 14.2174 20.1227 14.1946 20.1273C14.1672 20.1318 14.1444 20.1409 14.1171 20.1455C14.0897 20.1501 14.0669 20.1546 14.0395 20.1637C14.0122 20.1683 13.9894 20.1729 13.962 20.1774C13.9346 20.182 13.9118 20.1865 13.8845 20.1911C13.8571 20.1957 13.8343 20.2002 13.807 20.2048C13.7796 20.2093 13.7522 20.2139 13.7249 20.2185C13.6975 20.223 13.6747 20.2276 13.6473 20.2322C13.62 20.2367 13.5926 20.2413 13.5652 20.2458C13.5424 20.2504 13.5151 20.255 13.4923 20.255C13.4649 20.2595 13.433 20.2595 13.4056 20.2641C13.3828 20.2686 13.3554 20.2686 13.3326 20.2732C13.3007 20.2778 13.2734 20.2778 13.2414 20.2823C13.2186 20.2823 13.1958 20.2869 13.173 20.2869C13.1411 20.2914 13.1092 20.2914 13.0772 20.2914C13.0544 20.2914 13.0362 20.296 13.0134 20.296C13.0088 20.296 13.0088 20.296 13.0043 20.296V14.8916C13.0088 14.8916 13.0134 14.887 13.0134 14.887C13.0316 14.8825 13.0453 14.8779 13.0636 14.8733C13.0681 14.8733 13.0727 14.8688 13.0818 14.8688C13.1046 14.8597 13.1228 14.8551 13.1457 14.846C13.1502 14.846 13.1548 14.8414 13.1593 14.8414C13.1776 14.8323 13.1913 14.8277 13.2095 14.8186C13.2141 14.8141 13.2232 14.8141 13.2277 14.8095C13.2414 14.8004 13.2551 14.7958 13.2688 14.7867C13.2734 14.7821 13.2779 14.7821 13.287 14.7776C13.3053 14.7685 13.3235 14.7548 13.3418 14.7411C13.3463 14.7411 13.3463 14.7365 13.3509 14.7365C13.3646 14.7274 13.3828 14.7137 13.3965 14.7046C13.401 14.7 13.4056 14.6955 13.4147 14.6909C13.4284 14.6818 13.4375 14.6727 13.4512 14.659C13.4558 14.6544 13.4603 14.6499 13.4649 14.6453C13.4831 14.6316 13.4968 14.6179 13.5105 14.5997C13.5105 14.5997 13.5105 14.5997 13.5151 14.5951C13.5287 14.5815 13.547 14.5632 13.5607 14.5495C13.5652 14.545 13.5698 14.5404 13.5744 14.5359C13.5835 14.5222 13.5926 14.5131 13.6063 14.4994C13.6108 14.4948 13.6154 14.4902 13.62 14.4811C13.6336 14.4674 13.6428 14.4492 13.6519 14.4355C13.6519 14.431 13.6564 14.431 13.6564 14.4264C13.6701 14.4082 13.6793 14.3899 13.6929 14.3717C13.6975 14.3671 13.6975 14.3625 13.7021 14.3534C13.7112 14.3397 13.7203 14.3261 13.7249 14.3124C13.7294 14.3078 13.7294 14.2987 13.734 14.2941C13.7431 14.2805 13.7477 14.2622 13.7568 14.244C13.7568 14.2394 13.7613 14.2349 13.7613 14.2303C13.7705 14.2075 13.7796 14.1892 13.7841 14.1664C13.7841 14.1619 13.7887 14.1573 13.7887 14.1482C13.7933 14.13 13.7978 14.1163 13.8024 14.098C13.8024 14.0935 13.807 14.0889 13.807 14.0889H19.2114C19.2114 14.0935 19.2114 14.0935 19.2114 14.098C19.2159 14.1208 19.2159 14.1391 19.2114 14.1619ZM12.1605 13.7697C12.1605 13.4778 12.3977 13.2406 12.6896 13.2406C12.9815 13.2406 13.2186 13.4778 13.2186 13.7697C13.2186 14.0615 12.9815 14.2987 12.6896 14.2987C12.3977 14.2987 12.1605 14.0615 12.1605 13.7697Z" fill="white"/>
<path d="M9.11273 10.988V10.3678C9.22218 10.3951 9.33164 10.4407 9.44566 10.5091C9.47758 10.5274 9.50951 10.5365 9.54143 10.5365C9.64177 10.5365 9.72386 10.459 9.72386 10.3586C9.72386 10.2811 9.67825 10.2309 9.62808 10.2036C9.48214 10.1124 9.31796 10.0485 9.13097 10.0257V9.95274C9.13097 9.87521 9.07168 9.81592 8.99415 9.81592C8.91662 9.81592 8.85277 9.87521 8.85277 9.95274V10.0211C8.45143 10.0531 8.17779 10.2902 8.17779 10.6368C8.17779 11.0017 8.3967 11.1796 8.86645 11.2981V11.9321C8.68858 11.9002 8.54264 11.8272 8.39214 11.7177C8.36477 11.6949 8.32373 11.6812 8.28724 11.6812C8.18691 11.6812 8.10938 11.7588 8.10938 11.8591C8.10938 11.9275 8.1413 11.9777 8.19603 12.0142C8.39214 12.151 8.61561 12.2376 8.85733 12.265V12.4657C8.85733 12.5432 8.92118 12.6025 8.99871 12.6025C9.07624 12.6025 9.13553 12.5432 9.13553 12.4657V12.2741C9.54599 12.2376 9.81963 12.0005 9.81963 11.6448C9.81051 11.3073 9.60072 11.1112 9.11273 10.988ZM8.85733 10.9196C8.61105 10.8375 8.5472 10.7554 8.5472 10.6186C8.5472 10.4772 8.6521 10.3678 8.85733 10.3495V10.9196ZM9.11273 11.9549V11.3666C9.359 11.4441 9.43197 11.5307 9.43197 11.6721C9.43197 11.8272 9.31796 11.9321 9.11273 11.9549Z" fill="white"/>
<path d="M15.519 16.374V15.7537C15.6284 15.7811 15.7379 15.8267 15.8519 15.8951C15.8838 15.9134 15.9158 15.9225 15.9477 15.9225C16.048 15.9225 16.1301 15.845 16.1301 15.7446C16.1301 15.6671 16.0845 15.6169 16.0343 15.5896C15.8884 15.4983 15.7242 15.4345 15.5372 15.4117V15.3387C15.5372 15.2612 15.4779 15.2019 15.4004 15.2019C15.3229 15.2019 15.259 15.2612 15.259 15.3387V15.4071C14.8577 15.4391 14.584 15.6762 14.584 16.0228C14.584 16.3877 14.8029 16.5655 15.2727 16.6841V17.3272C15.0948 17.2953 14.9489 17.2223 14.7984 17.1128C14.771 17.09 14.73 17.0763 14.6935 17.0763C14.5932 17.0763 14.5156 17.1539 14.5156 17.2542C14.5156 17.3226 14.5475 17.3728 14.6023 17.4093C14.7984 17.5461 15.0219 17.6327 15.2636 17.6601V17.8608C15.2636 17.9383 15.3274 17.9976 15.405 17.9976C15.4825 17.9976 15.5418 17.9383 15.5418 17.8608V17.6692C15.9522 17.6327 16.2259 17.3956 16.2259 17.0399C16.2168 16.6887 16.007 16.4926 15.519 16.374ZM15.2636 16.3056C15.0173 16.2235 14.9535 16.1414 14.9535 16.0046C14.9535 15.8632 15.0583 15.7537 15.2636 15.7355V16.3056ZM15.519 17.3363V16.748C15.7653 16.8255 15.8382 16.9122 15.8382 17.0535C15.8382 17.2132 15.7242 17.3135 15.519 17.3363Z" fill="white"/>
</svg>
