<svg width="25" height="26" viewBox="0 0 25 26" fill="none" xmlns="http://www.w3.org/2000/svg">
<g clip-path="url(#clip0_3176_1888)">
<path d="M19.74 0H4.39004C3.80082 0.0116899 3.2197 0.139519 2.67997 0.376165C2.14023 0.612811 1.65249 0.953623 1.24469 1.37908C0.836887 1.80453 0.517034 2.30626 0.303455 2.85553C0.0898764 3.4048 -0.0132312 3.99082 3.95458e-05 4.58V20.58C-0.0132398 21.1697 0.0897926 21.7562 0.30325 22.306C0.516708 22.8559 0.836408 23.3583 1.24409 23.7845C1.65176 24.2108 2.13943 24.5525 2.67922 24.7902C3.21902 25.028 3.80036 25.157 4.39004 25.17H19.74C20.3297 25.157 20.9111 25.028 21.4509 24.7902C21.9907 24.5525 22.4783 24.2108 22.886 23.7845C23.2937 23.3583 23.6134 22.8559 23.8268 22.306C24.0403 21.7562 24.1433 21.1697 24.13 20.58V4.58C24.1433 3.99082 24.0402 3.4048 23.8266 2.85553C23.613 2.30626 23.2932 1.80453 22.8854 1.37908C22.4776 0.953623 21.9898 0.612811 21.4501 0.376165C20.9104 0.139519 20.3293 0.0116899 19.74 0V0Z" fill="#EC631E"/>
<path d="M6.57998 9.17008C6.87416 9.16359 7.16418 9.09919 7.43347 8.98058C7.70276 8.86197 7.94605 8.69146 8.14942 8.4788C8.35279 8.26614 8.51228 8.01549 8.61875 7.74118C8.72523 7.46686 8.77662 7.17426 8.76998 6.88008C8.78341 6.28499 8.56049 5.70883 8.15003 5.27775C7.73957 4.84667 7.17501 4.5958 6.57998 4.58008C5.98495 4.5958 5.42039 4.84667 5.00993 5.27775C4.59946 5.70883 4.37654 6.28499 4.38998 6.88008C4.38334 7.17426 4.43473 7.46686 4.5412 7.74118C4.64768 8.01549 4.80716 8.26614 5.01054 8.4788C5.21391 8.69146 5.45719 8.86197 5.72648 8.98058C5.99577 9.09919 6.28579 9.16359 6.57998 9.17008Z" fill="#F6B696"/>
<path d="M24.13 19.49V20.63C24.1366 21.8364 23.674 22.9982 22.84 23.87C22.442 24.2937 21.9619 24.632 21.4289 24.8641C20.896 25.0962 20.3213 25.2173 19.74 25.22H4.38999C3.38744 25.2195 2.41719 24.8654 1.64999 24.22C0.869041 23.5593 0.32776 22.6595 0.109985 21.66L7.99999 13.42C8.0959 13.3108 8.21449 13.2237 8.34747 13.165C8.48045 13.1063 8.62464 13.0773 8.76999 13.08C8.91643 13.0797 9.06135 13.1098 9.1956 13.1683C9.32985 13.2268 9.45051 13.3125 9.54999 13.42L11.55 15.49C11.6558 15.6014 11.7858 15.687 11.93 15.74C12.0644 15.802 12.2122 15.8295 12.36 15.82C12.5131 15.8175 12.6637 15.7799 12.8 15.71C12.9363 15.6443 13.056 15.5486 13.15 15.43L15.7 12.43C15.7769 12.301 15.8789 12.1888 16 12.1C16.136 12.0389 16.2814 12.0017 16.43 11.99C16.5801 11.9914 16.7289 12.0185 16.87 12.07C17.012 12.1318 17.141 12.22 17.25 12.33L24.13 19.49Z" fill="#F6B696"/>
</g>
<defs>
<clipPath id="clip0_3176_1888">
<rect width="24.13" height="25.22" fill="white"/>
</clipPath>
</defs>
</svg>
