<svg id="Illus_19" data-name="Illus 19" xmlns="http://www.w3.org/2000/svg" xmlns:xlink="http://www.w3.org/1999/xlink" width="163.864" height="134.32" viewBox="0 0 163.864 134.32">
  <defs>
    <linearGradient id="linear-gradient" x1="0.5" x2="0.5" y2="1" gradientUnits="objectBoundingBox">
      <stop offset="0" stop-color="#f6b696"/>
      <stop offset="1" stop-color="#fff" stop-opacity="0"/>
    </linearGradient>
  </defs>
  <path id="Path_7069" data-name="Path 7069" d="M1071.968,2733.919c-1.792,23.794,32.076,45.743,75.647,49.025s80.345-13.346,82.137-37.14a25.241,25.241,0,0,0-1.819-11.322,31.1,31.1,0,0,1-.789-20.541,43.214,43.214,0,0,0-79.983-31.924,28.09,28.09,0,0,1-21.357,15.461C1095.637,2701.421,1073.354,2715.528,1071.968,2733.919Z" transform="translate(-1071.9 -2658.151)" opacity="0.4" fill="url(#linear-gradient)" style="isolation: isolate"/>
  <path id="Path_7127" data-name="Path 7127" d="M1513.879,3051.262a.723.723,0,0,1-.511-1.235l1.446-1.446a.723.723,0,0,1,1.023,1.023l-1.447,1.447A.722.722,0,0,1,1513.879,3051.262Z" transform="translate(-1419.216 -2920.647)" fill="#ec631e"/>
  <path id="Path_7128" data-name="Path 7128" d="M1490.647,2739.053a.723.723,0,0,1-.511-1.235l1.446-1.447a.723.723,0,0,1,1.023,1.022l-1.447,1.447A.72.72,0,0,1,1490.647,2739.053Z" transform="translate(-1336.925 -2705.602)" fill="#f6b696"/>
  <g id="Group_1186" data-name="Group 1186" transform="translate(159.525 59.708)">
    <path id="Path_7129" data-name="Path 7129" d="M1518.2,2849.2a.721.721,0,0,1-.511-.212l-.935-.935-.935.935a.723.723,0,0,1-1.023-1.022l1.446-1.447a.723.723,0,0,1,1.023,0l1.447,1.447a.723.723,0,0,1-.511,1.235Z" transform="translate(-1514.581 -2846.31)" fill="#f6b696"/>
  </g>
  <g id="Group_1187" data-name="Group 1187" transform="translate(75.871 131.427)">
    <path id="Path_7130" data-name="Path 7130" d="M1448.5,3065.263a.721.721,0,0,1-.511-.211l-.935-.935-.935.935a.723.723,0,0,1-1.023-1.023l1.446-1.446a.723.723,0,0,1,1.023,0l1.447,1.446a.723.723,0,0,1-.512,1.234Z" transform="translate(-1444.881 -3062.37)" fill="#ec631e"/>
  </g>
  <g id="Group_1188" data-name="Group 1188" transform="translate(135.78 52.921)">
    <path id="Path_7131" data-name="Path 7131" d="M1428.471,2823.558a.72.72,0,0,1-.512-.212l-.935-.935-.935.935a.723.723,0,0,1-1.023-1.022l1.447-1.447a.723.723,0,0,1,1.023,0l1.446,1.447a.723.723,0,0,1-.511,1.234Z" transform="translate(-1424.855 -2820.665)" fill="#f6b696"/>
  </g>
  <path id="Path_7162" data-name="Path 7162" d="M1381.452,2653.968a3.836,3.836,0,1,1,2.713-1.123,3.826,3.826,0,0,1-2.713,1.123Zm0-5.026a1.19,1.19,0,1,0,.842.348A1.186,1.186,0,0,0,1381.452,2648.942Z" transform="translate(-1254.339 -2639.52)" fill="#f6b696"/>
  <path id="Path_7163" data-name="Path 7163" d="M1406.588,2702.859a3.835,3.835,0,1,1,2.713-1.122A3.827,3.827,0,0,1,1406.588,2702.859Zm0-5.026a1.189,1.189,0,1,0,.842.348A1.186,1.186,0,0,0,1406.588,2697.833Z" transform="translate(-1272.822 -2675.473)" fill="#ec631e"/>
  <path id="Path_7164" data-name="Path 7164" d="M1075.651,2808.351a3.835,3.835,0,1,1,2.714-1.122A3.825,3.825,0,0,1,1075.651,2808.351Zm0-5.026a1.191,1.191,0,1,0,.842.349A1.186,1.186,0,0,0,1075.651,2803.325Z" transform="translate(-1054.659 -2730.356)" fill="#f6b696" opacity="0.66" style="isolation: isolate"/>
  <path id="Path_7165" data-name="Path 7165" d="M1062.214,2860.268a1.321,1.321,0,0,1-.936-.387l-1.578-1.579-1.578,1.579a1.323,1.323,0,0,1-1.871-1.872l2.514-2.514a1.323,1.323,0,0,1,1.871,0l2.514,2.514a1.323,1.323,0,0,1-.936,2.259Z" transform="translate(-1042.927 -2770.382)" fill="#f6b696" opacity="0.66" style="isolation: isolate"/>
  <g id="Group_1498" data-name="Group 1498" transform="translate(28.589 33.595)">
    <path id="Path_7448" data-name="Path 7448" d="M6922.216-19441.145h-12.907v-36.658l2.682-13.309,12.333-14.264,11.972-4.338,19.545-.951,15.155.951,11.532,4.338,9.143,5.8,5.137,9.525,3.367,10.74v37.361H6986.8Z" transform="translate(-6897.226 19512.432)" fill="#fff" stroke="#707070" stroke-width="1"/>
    <path id="Path_7447" data-name="Path 7447" d="M6929.085-19431.248h13.345v15.982l-1.373,2.451-2.844,2.3-2.295.656h-4.63l-3.548-7.32v-10.7Z" transform="translate(-6853.731 19488.629)" fill="#ec631e"/>
    <path id="Path_7446" data-name="Path 7446" d="M6929.085-19431.248h13.345v15.982l-1.373,2.451-2.844,2.3-2.295.656h-4.63l-3.548-7.32v-10.7Z" transform="translate(-6902.75 19488.629)" fill="#ec631e"/>
    <g id="disappointed" transform="translate(0 0)">
      <g id="Group_1497" data-name="Group 1497" transform="translate(0 0)">
        <path id="Path_7443" data-name="Path 7443" d="M104.875,77.757V45.107A36.655,36.655,0,0,0,68.256,8.5H46.513A36.655,36.655,0,0,0,9.894,45.107v32.65H0v3.958H23.844a8.856,8.856,0,0,0,17.611,0H73.313a8.856,8.856,0,0,0,17.611,0h23.844V77.757Zm-5.936,0H91.023V65.884H87.066V80.729a4.947,4.947,0,0,1-9.894,0V65.884H73.215V77.757H41.554V65.884H37.6V80.729a4.947,4.947,0,0,1-9.894,0V65.884H23.745V77.757H13.851V45.107a32.692,32.692,0,0,1,32.662-32.65H68.256a32.692,32.692,0,0,1,32.662,32.65v32.65Z" transform="translate(0 -8.5)" fill="#6f6e6d"/>
        <path id="Path_7444" data-name="Path 7444" d="M29.272,21.08a1.977,1.977,0,0,0-2.8,0l-3.548,3.548L19.378,21.08a1.978,1.978,0,1,0-2.8,2.8l3.548,3.548L16.58,30.974a1.978,1.978,0,1,0,2.8,2.8l3.548-3.548,3.548,3.548a1.978,1.978,0,0,0,2.8-2.8l-3.548-3.548,3.548-3.548A1.977,1.977,0,0,0,29.272,21.08Z" transform="translate(15.66 3.245)" fill="#6f6f6e"/>
        <path id="Path_7445" data-name="Path 7445" d="M48.272,21.08a1.977,1.977,0,0,0-2.8,0l-3.548,3.548L38.378,21.08a1.978,1.978,0,1,0-2.8,2.8l3.548,3.548L35.58,30.974a1.978,1.978,0,1,0,2.8,2.8l3.548-3.548,3.548,3.548a1.978,1.978,0,1,0,2.8-2.8l-3.548-3.548,3.548-3.548A1.977,1.977,0,0,0,48.272,21.08Z" transform="translate(34.257 3.245)" fill="#6f6f6e"/>
      </g>
    </g>
  </g>
</svg>
