<svg xmlns="http://www.w3.org/2000/svg" xmlns:xlink="http://www.w3.org/1999/xlink" width="206.096" height="175.318" viewBox="0 0 206.096 175.318"><defs><linearGradient id="a" x1="0.5" x2="0.5" y2="1" gradientUnits="objectBoundingBox"><stop offset="0" stop-color="#f6b696"/><stop offset="1" stop-color="#fff" stop-opacity="0"/></linearGradient></defs><path d="M1071.989,2758.084c-2.339,31.383,41.861,60.332,98.724,64.661s104.856-17.6,107.195-48.985a33.614,33.614,0,0,0-2.373-14.933,41.434,41.434,0,0,1-1.029-27.092,57.651,57.651,0,0,0,2.2-11.4c2.854-31.59-20.616-59.639-51.915-62.022a56.293,56.293,0,0,0-54.666,31.314,36.685,36.685,0,0,1-27.873,20.392C1102.879,2715.222,1073.8,2733.829,1071.989,2758.084Z" transform="translate(-1071.9 -2658.151)" opacity="0.4" fill="url(#a)" style="isolation:isolate"/><g transform="translate(41.772 16.036)"><g transform="translate(29.524 27.024)"><g transform="translate(1.862 1.862)"><path d="M34.25,12.465V125.909a4.965,4.965,0,0,0,4.965,4.965h62.059a4.965,4.965,0,0,0,4.965-4.965V12.465A4.965,4.965,0,0,0,101.274,7.5H39.215A4.965,4.965,0,0,0,34.25,12.465Z" transform="translate(-34.25 -7.5)" fill="#fff"/><path d="M282.449,7.5h-7.2a4.965,4.965,0,0,1,4.965,4.965V125.909a4.965,4.965,0,0,1-4.965,4.965h7.2a4.965,4.965,0,0,0,4.965-4.965V12.465A4.965,4.965,0,0,0,282.449,7.5Z" transform="translate(-215.425 -7.5)" fill="#ec631e" opacity="0.53"/><path d="M106.239,453.678V443.5H34.25v10.178a4.965,4.965,0,0,0,4.965,4.965h62.059A4.965,4.965,0,0,0,106.239,453.678Z" transform="translate(-34.25 -335.268)" fill="#ec631e" opacity="0.69"/><path d="M106.239,12.465V22.643H34.25V12.465A4.965,4.965,0,0,1,39.215,7.5h62.059A4.965,4.965,0,0,1,106.239,12.465Z" transform="translate(-34.25 -7.5)" fill="#ec631e" opacity="0.69"/><path d="M280.215,12.465V22.643h7.2V12.465A4.965,4.965,0,0,0,282.449,7.5h-7.2A4.965,4.965,0,0,1,280.215,12.465Z" transform="translate(-215.425 -7.5)" fill="#ec631e" opacity="0.24"/><path d="M278.775,375.422H218.4a2.284,2.284,0,0,1-2.284-2.284V335.084A2.284,2.284,0,0,1,218.4,332.8h60.38a2.284,2.284,0,0,1,2.284,2.284v38.054A2.284,2.284,0,0,1,278.775,375.422Z" transform="translate(-170.966 -252.048)" fill="#f6b696" opacity="0.78"/><path d="M285.693,332.8h-6.7a2.284,2.284,0,0,1,2.284,2.284v38.054a2.284,2.284,0,0,1-2.284,2.284h6.7a2.284,2.284,0,0,0,2.284-2.284V335.084A2.284,2.284,0,0,0,285.693,332.8Z" transform="translate(-177.884 -252.048)" fill="#ec631e" opacity="0.37"/><path d="M392.088,370.48l4.444,4.444a1.986,1.986,0,0,0,2.809,0l4.444-4.444a1.986,1.986,0,0,0,0-2.809l-4.444-4.444a1.986,1.986,0,0,0-2.809,0l-4.444,4.444A1.986,1.986,0,0,0,392.088,370.48Z" transform="translate(-302.822 -274.485)" fill="#ec631e" opacity="0.77"/><path d="M258.976,376.474h-9.185a1.241,1.241,0,0,1-1.241-1.241v-8.192a1.241,1.241,0,0,1,1.241-1.241h9.185a1.241,1.241,0,0,1,1.241,1.241v8.192A1.241,1.241,0,0,1,258.976,376.474Z" transform="translate(-195.353 -276.856)" fill="#ec631e" opacity="0.48"/></g><path d="M159.34,190.212a5.176,5.176,0,0,1-3.8-1.593,1.862,1.862,0,0,0-2.759,2.5,8.723,8.723,0,0,0,4.347,2.541v1.122a1.862,1.862,0,1,0,3.724,0v-1.011a5.922,5.922,0,0,0,4.753-4.594c.371-2.075-.571-4.785-4.326-6.17-1.827-.674-3.527-1.408-4.049-1.636a1.028,1.028,0,0,1-.363-.965,1.491,1.491,0,0,1,1.181-1.19,4.953,4.953,0,0,1,4.091.946,1.862,1.862,0,0,0,2.386-2.858,9.462,9.462,0,0,0-3.674-1.762v-1.05a1.862,1.862,0,1,0-3.724,0v1.118a5.243,5.243,0,0,0-3.947,4.268,4.73,4.73,0,0,0,2.11,4.682,1.851,1.851,0,0,0,.258.141c.086.038,2.135.95,4.441,1.8.652.24,2.146.918,1.949,2.022A2.506,2.506,0,0,1,159.34,190.212Z" transform="translate(-121.13 -129.777)" fill="#6f6e6d"/><path d="M81.005,164.791a1.862,1.862,0,0,0-2.742,2.519,22.828,22.828,0,1,0-5.551-20l-2.142-2.552a1.862,1.862,0,0,0-2.852,2.394l4.968,5.917a1.862,1.862,0,0,0,2.357.416l6.692-3.861a1.862,1.862,0,0,0-1.861-3.225L76.28,148.47a19.1,19.1,0,1,1,4.725,16.321Z" transform="translate(-57.221 -97.011)" fill="#6f6e6d"/><path d="M138.705,111.718a1.862,1.862,0,0,0,1.862-1.862V84.9a4.151,4.151,0,0,0-4.146-4.146H102.463V6.827A6.834,6.834,0,0,0,95.636,0H33.577A6.834,6.834,0,0,0,26.75,6.827V64.011a1.862,1.862,0,0,0,3.724,0V18.866H98.739V80.752h-22.7A4.151,4.151,0,0,0,71.895,84.9v23.334H30.474V72.7a1.862,1.862,0,1,0-3.724,0v47.572a6.834,6.834,0,0,0,6.827,6.827H136.421a4.151,4.151,0,0,0,4.146-4.146v-4.406a1.862,1.862,0,1,0-3.724,0v4.406a.423.423,0,0,1-.423.423H76.041a.423.423,0,0,1-.423-.423V84.9a.423.423,0,0,1,.423-.422h60.38a.423.423,0,0,1,.423.422v24.959a1.862,1.862,0,0,0,1.862,1.862ZM30.474,15.143V6.827a3.106,3.106,0,0,1,3.1-3.1H95.636a3.106,3.106,0,0,1,3.1,3.1v8.316Zm3.1,108.232a3.106,3.106,0,0,1-3.1-3.1v-8.316H71.895v11a4.175,4.175,0,0,0,.021.423Z" transform="translate(-26.75)" fill="#6f6e6d"/><path d="M258.354,450.792h-6.472a1.862,1.862,0,0,0,0,3.724h6.472a1.862,1.862,0,0,0,0-3.724Z" transform="translate(-194.597 -338.888)" fill="#6f6e6d"/><path d="M316.23,450.792h-6.472a1.862,1.862,0,1,0,0,3.724h6.472a1.862,1.862,0,1,0,0-3.724Z" transform="translate(-238.106 -338.888)" fill="#6f6e6d"/><path d="M374.106,450.792h-6.472a1.862,1.862,0,0,0,0,3.724h6.472a1.862,1.862,0,0,0,0-3.724Z" transform="translate(-281.615 -338.888)" fill="#6f6e6d"/><path d="M256.441,369.6V361.4a3.106,3.106,0,0,0-3.1-3.1h-9.185a3.106,3.106,0,0,0-3.1,3.1V369.6a3.106,3.106,0,0,0,3.1,3.1h9.185A3.107,3.107,0,0,0,256.441,369.6Zm-3.724-.621h-7.944v-6.951h7.944Z" transform="translate(-187.853 -269.356)" fill="#6f6e6d"/><path d="M392.3,371.727a3.835,3.835,0,0,1-2.721-1.125l-4.444-4.444a3.852,3.852,0,0,1,0-5.441l4.444-4.444a3.848,3.848,0,0,1,5.441,0l4.444,4.444a3.847,3.847,0,0,1,0,5.441l-4.444,4.444a3.835,3.835,0,0,1-2.721,1.125Zm0-12.859a.118.118,0,0,0-.088.036l-4.445,4.445a.124.124,0,0,0,0,.176l4.444,4.444a.125.125,0,0,0,.176,0l4.444-4.444a.124.124,0,0,0,0-.176l-4.444-4.445A.117.117,0,0,0,392.3,358.869Z" transform="translate(-295.327 -266.985)" fill="#6f6e6d"/><g transform="translate(32.16 8.028)"><path d="M2137.175,2660.158h-9.364a1.338,1.338,0,1,1,0-2.676h9.364a1.338,1.338,0,1,1,0,2.676Z" transform="translate(-2126.473 -2657.482)" fill="#6f6e6d"/></g></g><path d="M-892.519,1395.891a5.165,5.165,0,0,1-4.579-2.766,5.165,5.165,0,0,1,2.178-6.964,5.165,5.165,0,0,1,6.964,2.177,5.166,5.166,0,0,1-2.178,6.964A5.132,5.132,0,0,1-892.519,1395.891Zm1.565-2.153h0Zm-1.575-4.633a1.618,1.618,0,0,0-.752.186,1.628,1.628,0,0,0-.687,2.2,1.627,1.627,0,0,0,2.2.686,1.628,1.628,0,0,0,.686-2.195,1.615,1.615,0,0,0-.955-.8A1.638,1.638,0,0,0-892.53,1389.106Z" transform="translate(1030.711 -1330.359)" fill="#f6b696"/><path d="M-879.669,1611.135a5.167,5.167,0,0,1-5.088-4.322,5.125,5.125,0,0,1,.9-3.846,5.125,5.125,0,0,1,3.355-2.083,5.125,5.125,0,0,1,3.845.9,5.126,5.126,0,0,1,2.083,3.355,5.125,5.125,0,0,1-.9,3.845,5.126,5.126,0,0,1-3.355,2.083A5.194,5.194,0,0,1-879.669,1611.135Zm.006-6.786a1.662,1.662,0,0,0-.267.022,1.615,1.615,0,0,0-1.058.656,1.617,1.617,0,0,0-.284,1.212,1.63,1.63,0,0,0,1.869,1.341,1.615,1.615,0,0,0,1.058-.656,1.615,1.615,0,0,0,.283-1.212,1.615,1.615,0,0,0-.656-1.057,1.612,1.612,0,0,0-.945-.306Z" transform="translate(895.161 -1451.853)" fill="#ec631e" opacity="0.68"/><path d="M-771.988,1212.775a5.121,5.121,0,0,1-3-.969,5.126,5.126,0,0,1-2.083-3.355,5.125,5.125,0,0,1,.9-3.845,5.125,5.125,0,0,1,3.355-2.083,5.125,5.125,0,0,1,3.845.9,5.126,5.126,0,0,1,2.083,3.355,5.125,5.125,0,0,1-.9,3.845,5.126,5.126,0,0,1-3.355,2.083A5.22,5.22,0,0,1-771.988,1212.775Zm.561-1.813h0Zm-.547-4.974a1.653,1.653,0,0,0-.267.022,1.614,1.614,0,0,0-1.057.656,1.616,1.616,0,0,0-.284,1.212,1.615,1.615,0,0,0,.656,1.057,1.618,1.618,0,0,0,1.212.284,1.614,1.614,0,0,0,1.057-.656,1.616,1.616,0,0,0,.284-1.212,1.616,1.616,0,0,0-.656-1.057A1.612,1.612,0,0,0-771.974,1205.988Z" transform="translate(825.519 -1194.235)" fill="#f6b696"/><path d="M-621.418,1413.519h-1.148v-1.148a1.767,1.767,0,0,0-1.767-1.767,1.767,1.767,0,0,0-1.766,1.767v1.148h-1.148a1.767,1.767,0,0,0-1.766,1.767,1.767,1.767,0,0,0,1.766,1.767h1.148v1.148a1.767,1.767,0,0,0,1.766,1.766,1.767,1.767,0,0,0,1.767-1.766v-1.148h1.148a1.767,1.767,0,0,0,1.767-1.767,1.767,1.767,0,0,0-1.767-1.767Z" transform="translate(757.258 -1332.063)" fill="#ec631e" opacity="0.68"/><path d="M-906.479,1578.255h-1.148v-1.148a1.767,1.767,0,0,0-1.766-1.767,1.767,1.767,0,0,0-1.767,1.767v1.148h-1.148a1.767,1.767,0,0,0-1.766,1.767,1.767,1.767,0,0,0,1.766,1.767h1.148v1.148a1.766,1.766,0,0,0,1.767,1.767,1.766,1.766,0,0,0,1.766-1.767v-1.148h1.148a1.767,1.767,0,0,0,1.767-1.767A1.767,1.767,0,0,0-906.479,1578.255Z" transform="translate(914.075 -1435.378)" fill="#f6b696"/><path d="M-876.575,1332.5a3.577,3.577,0,0,1-3.578-3.578,3.577,3.577,0,0,1,3.578-3.578,3.577,3.577,0,0,1,3.578,3.578A3.577,3.577,0,0,1-876.575,1332.5Zm0-4.653a1.068,1.068,0,0,0-1.076,1.076,1.068,1.068,0,0,0,1.076,1.076,1.068,1.068,0,0,0,1.076-1.076A1.068,1.068,0,0,0-876.575,1327.849Z" transform="translate(892.138 -1273.71)" fill="#ec631e" opacity="0.68" style="isolation:isolate"/><path d="M-883.161,1186.349a3.576,3.576,0,0,1-3.578-3.577,3.577,3.577,0,0,1,3.578-3.578,3.577,3.577,0,0,1,3.578,3.578A3.576,3.576,0,0,1-883.161,1186.349Zm0-4.653a1.068,1.068,0,0,0-1.075,1.076,1.067,1.067,0,0,0,1.075,1.075,1.068,1.068,0,0,0,1.076-1.075A1.068,1.068,0,0,0-883.161,1181.7Z" transform="translate(896.397 -1179.194)" fill="#f6b696" opacity="0.4" style="isolation:isolate"/><path d="M-634.828,1197.113a1.239,1.239,0,0,1-1.251-1.251,1.506,1.506,0,0,0-1.5-1.5,1.239,1.239,0,0,1-1.251-1.251,1.239,1.239,0,0,1,1.251-1.251,1.506,1.506,0,0,0,1.5-1.5,1.239,1.239,0,0,1,1.251-1.251,1.239,1.239,0,0,1,1.251,1.251,1.505,1.505,0,0,0,1.5,1.5,1.239,1.239,0,0,1,1.251,1.251,1.239,1.239,0,0,1-1.251,1.251,1.506,1.506,0,0,0-1.5,1.5A1.255,1.255,0,0,1-634.828,1197.113Z" transform="translate(736.076 -1185.606)" fill="#f6b696" opacity="0.58" style="isolation:isolate"/><path d="M-869.565,1363.518a1.239,1.239,0,0,1-1.251-1.251,1.505,1.505,0,0,0-1.5-1.5,1.239,1.239,0,0,1-1.251-1.251,1.239,1.239,0,0,1,1.251-1.251,1.505,1.505,0,0,0,1.5-1.5,1.239,1.239,0,0,1,1.251-1.251,1.239,1.239,0,0,1,1.251,1.251,1.505,1.505,0,0,0,1.5,1.5,1.239,1.239,0,0,1,1.251,1.251,1.239,1.239,0,0,1-1.251,1.251,1.506,1.506,0,0,0-1.5,1.5A1.254,1.254,0,0,1-869.565,1363.518Z" transform="translate(887.879 -1293.218)" fill="#ec631e" opacity="0.68" style="isolation:isolate"/><path d="M-686.662,1297.269h-.564v-.565a.869.869,0,0,0-.868-.868.869.869,0,0,0-.869.868v.565h-.564a.869.869,0,0,0-.868.868.868.868,0,0,0,.868.868h.564v.565a.869.869,0,0,0,.869.868.869.869,0,0,0,.868-.868v-.565h.564a.868.868,0,0,0,.868-.868A.869.869,0,0,0-686.662,1297.269Z" transform="translate(769.422 -1254.626)" fill="#ee7b0f"/></g></svg>