<svg xmlns="http://www.w3.org/2000/svg" xmlns:xlink="http://www.w3.org/1999/xlink" width="191.717" height="175.317" viewBox="0 0 191.717 175.317"><defs><linearGradient id="a" x1="0.5" x2="0.5" y2="1" gradientUnits="objectBoundingBox"><stop offset="0" stop-color="#f6b696"/><stop offset="1" stop-color="#fff" stop-opacity="0"/></linearGradient></defs><path d="M1071.983,2751.112c-2.176,29.193,38.941,56.123,91.837,60.15s97.54-16.375,99.716-45.568a31.269,31.269,0,0,0-2.208-13.891,38.544,38.544,0,0,1-.957-25.2,53.622,53.622,0,0,0,2.044-10.6c2.655-29.386-19.178-55.479-48.293-57.695a52.366,52.366,0,0,0-50.852,29.129,34.126,34.126,0,0,1-25.928,18.969C1100.718,2711.24,1073.665,2728.549,1071.983,2751.112Z" transform="translate(-1071.9 -2651.484)" opacity="0.4" fill="url(#a)" style="isolation:isolate"/><g transform="translate(56.957 45.734)"><g transform="translate(2.085 2.057)"><path d="M7,19H64.517V99.113H7Z" transform="translate(7.379 20.029)" fill="#f6b696" opacity="0.5"/><path d="M58.354,19V97.058A2.054,2.054,0,0,1,56.3,99.113H7V19Z" transform="translate(7.379 20.029)" fill="#fff"/><path d="M14.379,39.029v80.113L3.266,108.029a4.108,4.108,0,0,1-1.212-2.917v-76a16.906,16.906,0,0,0-1.027-5.813A16.906,16.906,0,0,1,0,17.543V0Z" transform="translate(0 0)" fill="#f6b696" opacity="0.5"/><path d="M.847,0H15.586a.847.847,0,0,1,.847.847V7.37a.847.847,0,0,1-.847.847H.847A.847.847,0,0,1,0,7.37V.847A.847.847,0,0,1,.847,0Z" transform="translate(34.921 51.354)" fill="#ec631e" opacity="0.84"/><path d="M71.9,39.029H14.379L0,0H57.517Z" fill="#f6b696" opacity="0.5"/><path d="M45.542,39.029H39.379L25,0h6.163Z" transform="translate(26.354)" fill="#f6b696" opacity="0.16"/><path d="M14.059,26.6,5.74,4H45.735l8.319,22.6Z" transform="translate(6.051 4.217)" fill="#f4ab6d"/><path d="M3,0H44.246a3,3,0,0,1,3,3V60.679a3,3,0,0,1-3,3H3a3,3,0,0,1-3-3V3A3,3,0,0,1,3,0Z" transform="translate(59.571 47.246)" fill="#fcfbff"/><path d="M2.541,0h36a2.541,2.541,0,0,1,2.541,2.541v58.6a2.541,2.541,0,0,1-2.541,2.541h-36A2.541,2.541,0,0,1,0,61.138V2.541A2.541,2.541,0,0,1,2.541,0Z" transform="translate(59.571 47.246)" fill="#f6b696" opacity="0.5"/><path d="M42,23H52.271V86.679H42Z" transform="translate(44.275 24.246)" fill="#ec631e" opacity="0.76"/></g><path d="M3.074,105.112a4.108,4.108,0,0,0,1.212,2.917L15.4,119.142h6.163L10.449,108.029a4.108,4.108,0,0,1-1.212-2.917c0-82.393.411-77.791-1.027-81.735C6.834,19.761,7.183,17.625,7.183,0H1.02c0,17.625-.349,19.761,1.027,23.376C3.485,27.32,3.074,22.719,3.074,105.112Z" transform="translate(1.064 2.057)" fill="#fff"/><g transform="translate(0 0)"><path d="M2,16.21H6.108V32.643H2Z" transform="translate(0.085 15.037)" fill="#fff"/><path d="M17.117,31.7H57.112a2.054,2.054,0,0,0,1.931-2.773l-8.319-22.6A2.054,2.054,0,0,0,48.792,5H8.8A2.054,2.054,0,0,0,6.867,7.773l8.319,22.6A2.054,2.054,0,0,0,17.117,31.7Zm30.237-22.6L54.174,27.6H18.555L11.735,9.108Z" transform="translate(5.078 3.219)" fill="#6f6e6d"/><circle cx="2.054" cy="2.054" r="2.054" transform="translate(2.085 37.409)" fill="#6f6e6d"/><path d="M3.07,32.245a2.054,2.054,0,1,0,4.108,0c0-5.587-2.054-6.84-2.054-11.647V14.579L15.395,42.455v74.792l-7.621-7.621a2.054,2.054,0,0,1-.6-1.458V48.6a2.054,2.054,0,0,0-4.108,0v59.571a6.162,6.162,0,0,0,1.808,4.355L15.99,123.656a2.054,2.054,0,0,0,1.458.6H74.966A2.054,2.054,0,0,0,77.02,122.2v-6.163h26.7a8.217,8.217,0,0,0,8.217-8.217V56.464a8.217,8.217,0,0,0-8.217-8.217H77.02a47.083,47.083,0,0,0,0-6.162c0-.575.924,2.054-14.379-39.687A2.054,2.054,0,0,0,60.586,1H3.07a2.054,2.054,0,0,0-1.5.678c-.781.842-.555.062-.555,18.919C1.016,26.186,3.07,27.439,3.07,32.245Zm84.221,20.11v59.571H68.8a4.108,4.108,0,0,1-4.108-4.108V56.464A4.108,4.108,0,0,1,68.8,52.356Zm20.542,4.108v51.354a4.108,4.108,0,0,1-4.108,4.108H101.67V52.356h2.054A4.108,4.108,0,0,1,107.832,56.464ZM97.561,52.356v59.571H91.4V52.356ZM68.8,48.247a8.217,8.217,0,0,0-8.217,8.217v51.354a8.217,8.217,0,0,0,8.217,8.217h4.108v4.108H19.5v-76H72.911v4.108ZM59.149,5.11l12.88,34.921H18.887L6.007,5.11Z" transform="translate(-0.985 -0.999)" fill="#6f6e6d"/><path d="M19.627,11.517A2.063,2.063,0,0,0,16.71,8.6L12.6,12.708a2.054,2.054,0,0,0,1.458,3.513C15.17,16.221,15.231,15.913,19.627,11.517Z" transform="translate(10.62 6.378)" fill="#6f6e6d"/><path d="M14.6,21.788a2.054,2.054,0,0,0,2.917,0L27.79,11.517A2.063,2.063,0,0,0,24.873,8.6L14.6,18.871a2.054,2.054,0,0,0,0,2.917Z" transform="translate(12.728 6.378)" fill="#6f6e6d"/><path d="M34.433,26H22.108A4.108,4.108,0,0,0,18,30.108v4.108a4.108,4.108,0,0,0,4.108,4.108H34.433a4.108,4.108,0,0,0,4.108-4.108V30.108A4.108,4.108,0,0,0,34.433,26ZM22.108,34.217V30.108H34.433v4.108Z" transform="translate(16.951 25.357)" fill="#6f6e6d"/><path d="M14.054,24A2.054,2.054,0,0,0,12,26.054v4.108a2.054,2.054,0,0,0,4.108,0V26.054A2.054,2.054,0,0,0,14.054,24Z" transform="translate(10.626 23.249)" fill="#6f6e6d"/><path d="M14.054,30A2.054,2.054,0,0,0,12,32.054V83.408a2.054,2.054,0,0,0,4.108,0V32.054A2.054,2.054,0,0,0,14.054,30Z" transform="translate(10.626 29.574)" fill="#6f6e6d"/></g></g><path d="M-892.662,1395.606a5.023,5.023,0,0,1-4.453-2.689,5.023,5.023,0,0,1,2.118-6.772,5.023,5.023,0,0,1,6.771,2.117,5.023,5.023,0,0,1-2.118,6.772A4.989,4.989,0,0,1-892.662,1395.606Zm1.522-2.093h0Zm-1.532-4.5a1.573,1.573,0,0,0-.731.181,1.583,1.583,0,0,0-.668,2.135,1.583,1.583,0,0,0,2.135.667,1.583,1.583,0,0,0,.667-2.134,1.571,1.571,0,0,0-.929-.776A1.6,1.6,0,0,0-892.672,1389.008Z" transform="translate(1054.135 -1311.449)" fill="#f6b696"/><path d="M-879.812,1610.85a5.025,5.025,0,0,1-4.947-4.2,4.984,4.984,0,0,1,.874-3.739,4.983,4.983,0,0,1,3.262-2.026,4.982,4.982,0,0,1,3.738.874,4.984,4.984,0,0,1,2.026,3.262,4.984,4.984,0,0,1-.874,3.739,4.984,4.984,0,0,1-3.262,2.026A5.045,5.045,0,0,1-879.812,1610.85Zm.006-6.6a1.624,1.624,0,0,0-.26.021,1.57,1.57,0,0,0-1.028.638,1.572,1.572,0,0,0-.276,1.179,1.585,1.585,0,0,0,1.817,1.3,1.571,1.571,0,0,0,1.028-.638,1.571,1.571,0,0,0,.275-1.178,1.571,1.571,0,0,0-.638-1.028,1.568,1.568,0,0,0-.919-.3Z" transform="translate(921.975 -1435.533)" fill="#ec631e" opacity="0.71"/><path d="M-772.13,1212.49a4.979,4.979,0,0,1-2.914-.942,4.984,4.984,0,0,1-2.026-3.262,4.984,4.984,0,0,1,.874-3.739,4.984,4.984,0,0,1,3.262-2.026,4.982,4.982,0,0,1,3.739.874,4.984,4.984,0,0,1,2.026,3.262,4.984,4.984,0,0,1-.874,3.739,4.984,4.984,0,0,1-3.262,2.025A5.067,5.067,0,0,1-772.13,1212.49Zm.546-1.763h0Zm-.532-4.837a1.632,1.632,0,0,0-.26.021,1.57,1.57,0,0,0-1.028.638,1.572,1.572,0,0,0-.276,1.178,1.571,1.571,0,0,0,.638,1.028,1.573,1.573,0,0,0,1.179.276,1.569,1.569,0,0,0,1.028-.638,1.571,1.571,0,0,0,.276-1.178,1.571,1.571,0,0,0-.638-1.028A1.569,1.569,0,0,0-772.117,1205.89Z" transform="translate(851.281 -1174.027)" fill="#f6b696"/><path d="M-906.689,1578.174h-1.117v-1.116a1.718,1.718,0,0,0-1.718-1.718,1.718,1.718,0,0,0-1.718,1.718v1.116h-1.117a1.718,1.718,0,0,0-1.718,1.718,1.718,1.718,0,0,0,1.718,1.718h1.117v1.116a1.718,1.718,0,0,0,1.718,1.718,1.718,1.718,0,0,0,1.718-1.718v-1.116h1.117a1.718,1.718,0,0,0,1.718-1.718A1.718,1.718,0,0,0-906.689,1578.174Z" transform="translate(941.174 -1418.809)" fill="#f6b696"/><path d="M-876.674,1332.3a3.478,3.478,0,0,1-3.479-3.479,3.478,3.478,0,0,1,3.479-3.479,3.478,3.478,0,0,1,3.479,3.479A3.478,3.478,0,0,1-876.674,1332.3Zm0-4.525a1.038,1.038,0,0,0-1.046,1.046,1.038,1.038,0,0,0,1.046,1.046,1.039,1.039,0,0,0,1.046-1.046A1.039,1.039,0,0,0-876.674,1327.78Z" transform="translate(918.906 -1254.701)" fill="#ec631e" opacity="0.71" style="isolation:isolate"/><path d="M-883.26,1186.151a3.478,3.478,0,0,1-3.479-3.478,3.478,3.478,0,0,1,3.479-3.479,3.478,3.478,0,0,1,3.479,3.479A3.478,3.478,0,0,1-883.26,1186.151Zm0-4.524a1.038,1.038,0,0,0-1.046,1.046,1.038,1.038,0,0,0,1.046,1.046,1.038,1.038,0,0,0,1.046-1.046A1.038,1.038,0,0,0-883.26,1181.626Z" transform="translate(923.229 -1158.758)" fill="#f6b696" opacity="0.4" style="isolation:isolate"/><path d="M-634.939,1196.892a1.2,1.2,0,0,1-1.216-1.217,1.464,1.464,0,0,0-1.46-1.46,1.2,1.2,0,0,1-1.216-1.216,1.2,1.2,0,0,1,1.216-1.216,1.464,1.464,0,0,0,1.46-1.459,1.2,1.2,0,0,1,1.216-1.216,1.2,1.2,0,0,1,1.216,1.216,1.464,1.464,0,0,0,1.459,1.459,1.2,1.2,0,0,1,1.216,1.216,1.2,1.2,0,0,1-1.216,1.216,1.464,1.464,0,0,0-1.459,1.46A1.22,1.22,0,0,1-634.939,1196.892Z" transform="translate(760.489 -1165.268)" fill="#f6b696" opacity="0.58" style="isolation:isolate"/><path d="M-869.675,1363.3a1.2,1.2,0,0,1-1.217-1.216,1.464,1.464,0,0,0-1.459-1.46,1.2,1.2,0,0,1-1.216-1.216,1.2,1.2,0,0,1,1.216-1.217,1.464,1.464,0,0,0,1.459-1.459,1.2,1.2,0,0,1,1.217-1.217,1.2,1.2,0,0,1,1.216,1.217,1.464,1.464,0,0,0,1.46,1.459,1.2,1.2,0,0,1,1.216,1.217A1.2,1.2,0,0,1-867,1360.62a1.464,1.464,0,0,0-1.46,1.46A1.22,1.22,0,0,1-869.675,1363.3Z" transform="translate(914.582 -1274.504)" fill="#ec631e" opacity="0.71" style="isolation:isolate"/><path d="M-686.765,1297.229h-.549v-.549a.845.845,0,0,0-.844-.844.845.845,0,0,0-.845.844v.549h-.549a.845.845,0,0,0-.844.844.844.844,0,0,0,.844.844H-689v.549a.845.845,0,0,0,.845.844.845.845,0,0,0,.844-.844v-.549h.549a.844.844,0,0,0,.844-.844A.845.845,0,0,0-686.765,1297.229Z" transform="translate(794.338 -1235.328)" fill="#ee7b0f"/><path d="M-659.9,1148.295a11.275,11.275,0,0,1-11.273,11.276,11.275,11.275,0,0,1-11.276-11.276,11.061,11.061,0,0,1,.1-1.517h22.343a11.033,11.033,0,0,1,.1,1.517Z" transform="translate(789.123 -1137.479)" fill="#fff" opacity="0.8"/><path d="M11.274,0A11.274,11.274,0,1,1,0,11.274,11.274,11.274,0,0,1,11.274,0Z" transform="translate(106.672 0.051)" fill="#f6b696"/><g transform="translate(106.623)"><path d="M-671.269,1128.334a11.338,11.338,0,0,1-11.325-11.325,11.337,11.337,0,0,1,11.325-11.324,11.338,11.338,0,0,1,11.325,11.324A11.338,11.338,0,0,1-671.269,1128.334Zm0-20.882a9.568,9.568,0,0,0-9.557,9.557,9.568,9.568,0,0,0,9.557,9.557,9.568,9.568,0,0,0,9.557-9.557A9.568,9.568,0,0,0-671.269,1107.452Z" transform="translate(682.594 -1105.685)" fill="#6f6e6d"/></g><path d="M-658.643,1122.9h0a1.436,1.436,0,0,1-1.016-.421l-3.28-3.283a1.436,1.436,0,0,1,0-2.031,1.436,1.436,0,0,1,2.031,0l2.264,2.266,11.468-11.47a1.436,1.436,0,0,1,2.032,0,1.436,1.436,0,0,1,0,2.031l-12.484,12.486a1.438,1.438,0,0,1-1.016.421Z" transform="translate(776.59 -1106.902)" fill="#ec631e" opacity="0.77"/></svg>