<svg width="313" height="289" viewBox="0 0 313 289" fill="none" xmlns="http://www.w3.org/2000/svg">
<g filter="url(#filter0_d_0:46896)">
<rect width="251.762" height="157.625" rx="9" transform="matrix(-0.820132 0.572174 -0.574979 -0.818168 304.683 133.965)" fill="#EC631E"/>
</g>
<path opacity="0.208068" d="M207.489 9.57716C211.113 7.04924 216.096 7.91239 218.62 11.5043L299.902 127.164C302.426 130.756 301.536 135.717 297.912 138.245L170.702 226.995L157.396 44.5252L207.489 9.57716Z" fill="url(#paint0_linear_0:46896)"/>
<g clip-path="url(#clip0_0:46896)">
<path d="M240.19 123.434C240.332 123.632 240.549 123.764 240.79 123.801C249.806 125.376 258.397 119.36 260 110.349C260.088 109.854 259.757 109.381 259.261 109.294C258.766 109.206 258.293 109.537 258.206 110.033C256.787 118.059 249.134 123.418 241.106 122.006C240.737 121.928 240.359 122.086 240.155 122.404C239.951 122.721 239.965 123.131 240.19 123.434L240.19 123.434Z" fill="white"/>
<path d="M240.967 119.023C241.104 119.221 241.315 119.357 241.552 119.4C248.134 120.553 254.407 116.161 255.574 109.582C255.659 109.09 255.331 108.622 254.84 108.534C254.602 108.491 254.356 108.545 254.158 108.684C253.96 108.822 253.825 109.035 253.784 109.273C252.792 114.853 247.472 118.578 241.889 117.602C241.522 117.525 241.145 117.681 240.94 117.996C240.736 118.311 240.747 118.719 240.967 119.023Z" fill="white"/>
<path d="M241.626 113.919C241.54 114.411 241.868 114.879 242.36 114.967C244.351 115.318 246.4 114.864 248.057 113.704C249.713 112.544 250.841 110.774 251.192 108.783C251.277 108.291 250.949 107.823 250.458 107.735C250.22 107.692 249.974 107.745 249.776 107.884C249.578 108.023 249.443 108.235 249.402 108.474C248.836 111.627 245.83 113.731 242.674 113.185C242.182 113.1 241.714 113.428 241.626 113.919Z" fill="white"/>
</g>
<g clip-path="url(#clip1_0:46896)">
<path fill-rule="evenodd" clip-rule="evenodd" d="M106.524 222.97C104.676 224.229 104.813 226.6 105.079 228.273C105.353 229.991 105.254 230.701 104.693 231.086C103.833 231.674 102.747 230.926 102.069 229.988C100.886 228.353 100.685 227.062 100.507 226.048L97.3039 227.403C97.4873 228.417 98.1732 230.053 99.1904 231.534C101.61 234.989 104.898 236.056 107.551 234.216C110.917 231.88 107.843 227.094 109.365 226.075C109.828 225.768 110.617 225.862 111.407 226.726C111.798 227.153 112.756 228.42 113.109 230.368L116.21 229.059C115.944 228.064 115.507 226.853 114.619 225.585C112.342 222.332 109.011 221.255 106.524 222.97M120.434 234.383C119.992 233.752 119.251 233.478 118.52 233.636L103.279 236.952L105.697 240.405L108.077 239.762L111.031 243.982L109.412 245.71L111.542 248.753L122.401 237.192L120.434 234.383M117.336 237.271L113.258 241.612L111.347 238.883L117.336 237.271M107.564 216.003L92.9404 222.186L95.2442 225.477L109.867 219.292L107.564 216.003M104.156 211.136L93.1016 213.772L99.4919 207.233C100.2 206.495 100.225 205.521 99.7255 204.809L95.8054 199.21L95.3814 199.39C95.9367 200.714 96.4488 202.302 96.5723 203.394C96.6484 204.062 96.5153 204.361 96.0018 204.958L87.69 214.688L90.1247 218.165L106.575 214.591L104.156 211.136" fill="white"/>
</g>
<g clip-path="url(#clip2_0:46896)">
<g clip-path="url(#clip3_0:46896)">
<path fill-rule="evenodd" clip-rule="evenodd" d="M122.317 90.9881C122.237 90.1753 122.375 89.4027 122.731 88.6712C123.087 87.9397 123.635 87.3146 124.375 86.7965C125.124 86.272 125.903 85.968 126.713 85.8833C127.522 85.7987 128.295 85.9338 129.031 86.2865C129.768 86.6386 130.395 87.1849 130.913 87.9247C131.425 88.6559 131.719 89.425 131.795 90.2334C131.871 91.0412 131.733 91.8131 131.38 92.5496C131.028 93.2862 130.477 93.9165 129.728 94.4411C128.988 94.9591 128.213 95.2601 127.404 95.3447C126.594 95.4286 125.823 95.2964 125.09 94.9487C124.357 94.6003 123.731 94.0568 123.213 93.3163C122.695 92.5765 122.396 91.8002 122.317 90.9881ZM125.684 93.4787C126.168 93.6979 126.68 93.7735 127.219 93.7063C127.757 93.6396 128.276 93.4306 128.776 93.081C129.275 92.7315 129.651 92.3135 129.903 91.8269C130.155 91.3403 130.261 90.8323 130.22 90.3024C130.18 89.7724 129.995 89.2707 129.664 88.7989C129.335 88.3277 128.926 87.9823 128.442 87.7631C127.959 87.5446 127.443 87.4676 126.896 87.5328C126.35 87.5987 125.827 87.807 125.327 88.1566C124.828 88.5062 124.456 88.9248 124.212 89.4122C123.968 89.9008 123.866 90.4101 123.906 90.9394C123.946 91.4693 124.132 91.9705 124.462 92.4417C124.792 92.9135 125.2 93.2594 125.684 93.4787Z" fill="white"/>
<path fill-rule="evenodd" clip-rule="evenodd" d="M138.105 99.274C138.178 100.098 138.038 100.882 137.684 101.626C137.33 102.37 136.792 102.995 136.071 103.499C135.35 104.004 134.586 104.308 133.782 104.409C132.978 104.511 132.22 104.407 131.508 104.099C130.797 103.791 130.207 103.305 129.741 102.639C129.365 102.102 129.126 101.525 129.025 100.907C128.923 100.289 128.957 99.6791 129.129 99.0772L125.383 101.7C125.17 101.849 124.954 101.904 124.734 101.866C124.514 101.827 124.329 101.701 124.18 101.488C124.038 101.285 123.984 101.07 124.02 100.845C124.056 100.621 124.18 100.434 124.392 100.285L130.718 95.8556C131.439 95.3507 132.212 95.0608 133.036 94.9876C133.859 94.9136 134.642 95.0479 135.385 95.3891C136.127 95.7315 136.748 96.2576 137.247 96.9701C137.745 97.6819 138.031 98.4502 138.105 99.2741L138.105 99.274ZM132.015 102.505C132.503 102.721 133.02 102.8 133.566 102.741C134.11 102.684 134.628 102.484 135.119 102.14C135.609 101.797 135.977 101.377 136.222 100.881C136.468 100.386 136.573 99.8714 136.537 99.3379C136.501 98.805 136.322 98.3067 135.998 97.8442C135.674 97.3818 135.267 97.0429 134.779 96.8267C134.29 96.611 133.772 96.5355 133.226 96.6014C132.679 96.6673 132.16 96.872 131.67 97.215C131.18 97.5585 130.813 97.9743 130.569 98.4617C130.324 98.9496 130.22 99.4604 130.256 99.9934C130.292 100.527 130.472 101.025 130.796 101.487C131.119 101.95 131.526 102.289 132.015 102.505Z" fill="white"/>
<path fill-rule="evenodd" clip-rule="evenodd" d="M141.393 111.765C141.193 111.726 141.028 111.613 140.899 111.428L137.207 106.156C136.631 106.711 136.315 107.371 136.257 108.135C136.199 108.899 136.416 109.632 136.909 110.336C137.103 110.613 137.356 110.867 137.668 111.096C137.98 111.324 138.278 111.485 138.563 111.576C138.755 111.634 138.912 111.751 139.035 111.927C139.158 112.102 139.209 112.273 139.188 112.44C139.166 112.704 139.067 112.897 138.892 113.02C138.725 113.137 138.534 113.16 138.32 113.09C137.85 112.95 137.372 112.701 136.889 112.344C136.404 111.988 136.013 111.596 135.715 111.171C135.184 110.413 134.872 109.618 134.78 108.787C134.687 107.955 134.814 107.167 135.16 106.422C135.507 105.676 136.05 105.044 136.79 104.526C137.529 104.008 138.304 103.703 139.116 103.61C139.926 103.518 140.695 103.643 141.421 103.981C142.148 104.32 142.764 104.85 143.269 105.572C143.768 106.283 144.041 107.009 144.089 107.747C144.137 108.485 143.976 109.191 143.607 109.862C143.237 110.536 142.686 111.128 141.956 111.639C141.78 111.762 141.593 111.804 141.393 111.765L141.393 111.765ZM140.37 105.152C139.705 104.989 139.024 105.07 138.327 105.393L141.562 110.013C142.123 109.496 142.456 108.918 142.56 108.28C142.665 107.642 142.504 107.017 142.076 106.407C141.603 105.731 141.035 105.313 140.37 105.152L140.37 105.152Z" fill="white"/>
<path d="M149.91 115.911C149.989 116.614 149.862 117.295 149.531 117.954C149.2 118.613 148.66 119.205 147.911 119.729L144.498 122.119C144.295 122.261 144.079 122.313 143.851 122.273C143.623 122.233 143.438 122.11 143.295 121.907C143.153 121.704 143.102 121.488 143.142 121.26C143.182 121.032 143.304 120.847 143.507 120.704L146.92 118.314C147.67 117.79 148.095 117.192 148.197 116.521C148.3 115.85 148.117 115.181 147.651 114.516C147.379 114.127 147.053 113.829 146.672 113.62C146.291 113.411 145.904 113.31 145.509 113.317C145.115 113.324 144.751 113.445 144.418 113.678L140.506 116.417C140.302 116.56 140.088 116.613 139.863 116.578C139.638 116.542 139.452 116.418 139.303 116.205C139.16 116.001 139.109 115.786 139.149 115.558C139.189 115.33 139.312 115.145 139.515 115.003L145.703 110.67C145.915 110.521 146.133 110.468 146.357 110.512C146.58 110.555 146.763 110.678 146.906 110.882C147.054 111.094 147.109 111.31 147.07 111.531C147.031 111.751 146.906 111.936 146.694 112.085L146.541 112.191C147.044 112.281 147.519 112.472 147.966 112.765C148.412 113.058 148.798 113.437 149.122 113.899C149.569 114.538 149.832 115.208 149.91 115.911L149.91 115.911Z" fill="white"/>
<path fill-rule="evenodd" clip-rule="evenodd" d="M156.025 124.837C156.098 125.661 155.958 126.449 155.603 127.2C155.247 127.953 154.708 128.582 153.987 129.086C153.266 129.591 152.496 129.886 151.679 129.968C150.861 130.051 150.086 129.927 149.35 129.594C148.613 129.262 148 128.744 147.507 128.041C147.086 127.44 146.828 126.801 146.733 126.123C146.638 125.445 146.699 124.79 146.916 124.155L142.851 127.001C142.694 127.111 142.529 127.151 142.356 127.12C142.183 127.09 142.041 126.996 141.931 126.839C141.821 126.682 141.783 126.518 141.817 126.351C141.851 126.182 141.946 126.043 142.103 125.933L145.211 123.757C145.232 123.729 145.27 123.695 145.326 123.656L148.586 121.373C149.307 120.868 150.082 120.576 150.911 120.5C151.739 120.423 152.527 120.56 153.276 120.911C154.025 121.262 154.652 121.798 155.157 122.519C155.663 123.241 155.952 124.013 156.025 124.837L156.025 124.837ZM149.781 128.424C150.332 128.679 150.913 128.775 151.524 128.713C152.135 128.65 152.713 128.429 153.259 128.046C153.804 127.664 154.211 127.196 154.479 126.644C154.746 126.091 154.856 125.511 154.81 124.902C154.763 124.294 154.555 123.727 154.186 123.199C153.817 122.672 153.356 122.285 152.804 122.038C152.252 121.791 151.67 121.697 151.059 121.76C150.448 121.823 149.87 122.046 149.324 122.427C149.167 122.537 149.054 122.623 148.987 122.684C148.975 122.706 148.955 122.727 148.927 122.746C148.271 123.343 147.891 124.061 147.788 124.899C147.685 125.736 147.889 126.52 148.401 127.25C148.77 127.778 149.23 128.169 149.781 128.424L149.781 128.424Z" fill="white"/>
<path fill-rule="evenodd" clip-rule="evenodd" d="M162.125 133.549C162.199 134.373 162.058 135.16 161.703 135.912C161.347 136.665 160.808 137.294 160.087 137.798L156.827 140.081C156.679 140.185 156.518 140.221 156.345 140.191C156.173 140.16 156.031 140.067 155.921 139.91C155.811 139.753 155.769 139.589 155.795 139.419C155.821 139.249 155.912 139.109 156.069 138.999L156.902 138.416C156.231 138.403 155.594 138.236 154.99 137.915C154.386 137.594 153.873 137.133 153.452 136.531C152.96 135.828 152.684 135.075 152.623 134.269C152.562 133.463 152.71 132.692 153.068 131.952C153.425 131.212 153.965 130.59 154.686 130.085C155.407 129.58 156.182 129.288 157.011 129.212C157.839 129.135 158.627 129.272 159.376 129.623C160.125 129.973 160.752 130.51 161.257 131.231C161.763 131.953 162.052 132.725 162.125 133.549L162.125 133.549ZM155.876 137.129C156.424 137.379 157.003 137.474 157.614 137.411C158.225 137.348 158.803 137.126 159.349 136.744C159.894 136.362 160.301 135.894 160.569 135.342C160.837 134.789 160.948 134.211 160.905 133.608C160.861 133.004 160.655 132.439 160.286 131.911C159.917 131.384 159.455 130.995 158.899 130.743C158.344 130.491 157.761 130.396 157.15 130.458C156.539 130.521 155.96 130.744 155.415 131.126C154.869 131.508 154.463 131.975 154.195 132.528C153.927 133.08 153.819 133.659 153.87 134.264C153.921 134.869 154.132 135.435 154.501 135.962C154.87 136.489 155.328 136.878 155.876 137.129Z" fill="white"/>
<path d="M158.193 142.681C158.018 142.019 157.993 141.402 158.118 140.832C158.164 140.661 158.238 140.541 158.34 140.47C158.497 140.36 158.688 140.337 158.912 140.4C159.072 140.453 159.195 140.539 159.279 140.66C159.389 140.817 159.418 140.996 159.366 141.198C159.263 141.601 159.27 142.034 159.387 142.497C159.504 142.959 159.718 143.413 160.029 143.856C160.482 144.504 160.933 144.912 161.381 145.08C161.83 145.247 162.238 145.211 162.605 144.967C162.938 144.734 163.103 144.378 163.097 143.899C163.093 143.42 162.9 142.79 162.519 142.01C162.032 140.999 161.814 140.142 161.865 139.438C161.916 138.733 162.201 138.2 162.719 137.837C163.395 137.364 164.1 137.26 164.836 137.523C165.572 137.787 166.215 138.311 166.766 139.098C167.193 139.708 167.462 140.313 167.571 140.911C167.68 141.51 167.647 142.078 167.471 142.615C167.402 142.773 167.322 142.885 167.23 142.95C167.073 143.06 166.895 143.073 166.7 142.99C166.608 142.957 166.524 142.886 166.446 142.775C166.31 142.58 166.265 142.37 166.314 142.143C166.514 141.327 166.339 140.526 165.789 139.74C165.433 139.232 165.044 138.897 164.622 138.738C164.2 138.579 163.832 138.609 163.518 138.829C163.185 139.062 163.019 139.392 163.021 139.818C163.023 140.244 163.22 140.864 163.611 141.679C164.137 142.785 164.362 143.682 164.285 144.37C164.209 145.057 163.893 145.595 163.338 145.984C162.912 146.282 162.444 146.42 161.934 146.399C161.423 146.378 160.916 146.206 160.413 145.882C159.91 145.558 159.459 145.11 159.058 144.536C158.656 143.963 158.368 143.344 158.193 142.681L158.193 142.681Z" fill="white"/>
<path d="M162.943 149.465C162.768 148.802 162.743 148.185 162.868 147.616C162.914 147.445 162.988 147.325 163.09 147.253C163.247 147.143 163.438 147.12 163.662 147.184C163.822 147.237 163.945 147.323 164.029 147.444C164.139 147.601 164.168 147.78 164.116 147.982C164.013 148.385 164.02 148.818 164.137 149.28C164.254 149.742 164.468 150.196 164.779 150.64C165.232 151.288 165.683 151.696 166.131 151.864C166.58 152.031 166.988 151.995 167.356 151.751C167.689 151.518 167.853 151.162 167.848 150.683C167.843 150.204 167.65 149.573 167.269 148.793C166.782 147.782 166.564 146.926 166.616 146.222C166.667 145.517 166.952 144.984 167.47 144.622C168.145 144.148 168.85 144.043 169.586 144.306C170.322 144.571 170.965 145.095 171.516 145.882C171.943 146.492 172.212 147.096 172.321 147.695C172.43 148.294 172.397 148.861 172.221 149.399C172.152 149.557 172.072 149.669 171.98 149.733C171.822 149.843 171.645 149.857 171.45 149.774C171.358 149.741 171.274 149.669 171.196 149.558C171.06 149.364 171.015 149.153 171.064 148.927C171.265 148.111 171.089 147.31 170.539 146.524C170.183 146.015 169.794 145.681 169.372 145.521C168.95 145.363 168.582 145.393 168.268 145.613C167.935 145.846 167.769 146.176 167.771 146.602C167.773 147.028 167.97 147.648 168.361 148.462C168.887 149.569 169.112 150.466 169.035 151.154C168.959 151.841 168.643 152.38 168.088 152.768C167.663 153.066 167.194 153.204 166.684 153.183C166.173 153.162 165.666 152.989 165.163 152.666C164.661 152.342 164.209 151.893 163.808 151.32C163.406 150.747 163.118 150.128 162.943 149.465L162.943 149.465Z" fill="white"/>
</g>
</g>
<g clip-path="url(#clip4_0:46896)">
<rect x="215.872" y="91.0183" width="27.0763" height="19.9799" rx="2" transform="rotate(-35.5186 215.872 91.0183)" fill="#80878C" stroke="#373A3B" stroke-width="0.5"/>
<path opacity="0.73" d="M233.492 83.3022C233.492 83.3022 227.492 84.4922 225.339 89.3374" stroke="#373A3B" stroke-width="0.5"/>
<path opacity="0.73" d="M240.47 93.1052C240.47 93.1052 237.155 98.978 231.853 99.0707" stroke="#373A3B" stroke-width="0.5"/>
<path opacity="0.73" d="M229.915 97.5474L223.942 101.946" stroke="#373A3B" stroke-width="0.5"/>
<path opacity="0.73" d="M225.884 91.8523L219.91 96.2512" stroke="#373A3B" stroke-width="0.5"/>
<path opacity="0.73" d="M235.837 84.8381L241.919 80.5552" stroke="#373A3B" stroke-width="0.5"/>
<path opacity="0.73" d="M239.875 90.5483L246.033 86.3193" stroke="#373A3B" stroke-width="0.5"/>
<path opacity="0.73" d="M231.853 79.6482C231.853 79.6482 231.665 83.0322 235.837 84.8394C235.837 84.8394 235.568 88.6654 239.874 90.5497C239.874 90.5497 239.759 94.1556 243.249 95.9866" stroke="#373A3B" stroke-width="0.5"/>
<path opacity="0.73" d="M222.334 86.4421C222.334 86.4421 225.878 88.1256 225.878 91.8942C225.878 91.8942 229.646 93.6439 229.916 97.547C229.916 97.547 232.629 98.4108 233.493 102.69" stroke="#373A3B" stroke-width="0.5"/>
</g>
<defs>
<filter id="filter0_d_0:46896" x="0.114258" y="0.528076" width="312.028" height="287.962" filterUnits="userSpaceOnUse" color-interpolation-filters="sRGB">
<feFlood flood-opacity="0" result="BackgroundImageFix"/>
<feColorMatrix in="SourceAlpha" type="matrix" values="0 0 0 0 0 0 0 0 0 0 0 0 0 0 0 0 0 0 127 0" result="hardAlpha"/>
<feOffset dy="3"/>
<feGaussianBlur stdDeviation="5.5"/>
<feColorMatrix type="matrix" values="0 0 0 0 0 0 0 0 0 0 0 0 0 0 0 0 0 0 0.462745 0"/>
<feBlend mode="normal" in2="BackgroundImageFix" result="effect1_dropShadow_0:46896"/>
<feBlend mode="normal" in="SourceGraphic" in2="effect1_dropShadow_0:46896" result="shape"/>
</filter>
<linearGradient id="paint0_linear_0:46896" x1="151.531" y1="30.4537" x2="111.988" y2="240.503" gradientUnits="userSpaceOnUse">
<stop stop-color="#EC631E"/>
<stop offset="1" stop-color="white"/>
<stop offset="1"/>
</linearGradient>
<clipPath id="clip0_0:46896">
<rect width="12.7297" height="24.0005" fill="white" transform="translate(255.697 103.738) rotate(55)"/>
</clipPath>
<clipPath id="clip1_0:46896">
<rect width="49.7051" height="16.0509" fill="white" transform="translate(95.9829 198.969) rotate(55)"/>
</clipPath>
<clipPath id="clip2_0:46896">
<rect width="79.1134" height="13.3119" fill="white" transform="translate(128.246 84.0862) rotate(55)"/>
</clipPath>
<clipPath id="clip3_0:46896">
<rect width="79.1134" height="13.3119" fill="white" transform="translate(128.246 84.0862) rotate(55)"/>
</clipPath>
<clipPath id="clip4_0:46896">
<rect width="33.6459" height="31.9927" fill="white" transform="translate(215.872 75.2878)"/>
</clipPath>
</defs>
</svg>

