<svg width="37" height="14" viewBox="0 0 37 14" fill="none" xmlns="http://www.w3.org/2000/svg">
<path fill-rule="evenodd" clip-rule="evenodd" d="M33.6874 0H3.06251C1.37345 0 0 1.25582 0 2.80002V11.2C0 12.7442 1.37346 14 3.06251 14H33.6874C35.3764 14 36.7499 12.7442 36.7499 11.2V2.80002C36.7499 1.25582 35.3764 0 33.6874 0H33.6874ZM35.2187 11.2C35.2187 11.9717 34.5316 12.6 33.6875 12.6H3.06252C2.21842 12.6 1.5313 11.9717 1.5313 11.2V2.80002C1.5313 2.02828 2.21842 1.40002 3.06252 1.40002H33.6875C34.5316 1.40002 35.2187 2.02827 35.2187 2.80002V11.2Z" fill="#EC631E"/>
<path d="M9.54257 4.81255C9.33025 4.44469 8.85996 4.32131 8.49656 4.53219L7.6562 5.01738V4.04687C7.6562 3.6237 7.31375 3.28125 6.89055 3.28125C6.46734 3.28125 6.1249 3.6237 6.1249 4.04687V5.01738L5.28454 4.53219C4.9189 4.32129 4.45013 4.44468 4.23853 4.81255C4.02692 5.17888 4.15254 5.64696 4.51889 5.85855L5.35918 6.34377L4.51889 6.82899C4.15254 7.04058 4.02692 7.50866 4.23853 7.87499C4.38057 8.12097 4.63783 8.25777 4.90247 8.25777C5.03261 8.25777 5.16417 8.22491 5.28454 8.15536L6.1249 7.67016V8.64064C6.1249 9.06384 6.46734 9.40628 6.89055 9.40628C7.31375 9.40628 7.6562 9.06384 7.6562 8.64064V7.67016L8.49656 8.15536C8.61693 8.22491 8.74851 8.25777 8.87863 8.25777C9.14335 8.25777 9.40052 8.12097 9.54257 7.87499C9.75417 7.50866 9.62855 7.04058 9.26221 6.82899L8.42191 6.34377L9.26221 5.85855C9.62857 5.64696 9.75417 5.17888 9.54257 4.81255Z" fill="#EC631E"/>
<path d="M17.1983 4.81255C16.9852 4.44469 16.5164 4.32131 16.1523 4.53219L15.312 5.01738V4.04687C15.312 3.6237 14.9695 3.28125 14.5463 3.28125C14.1231 3.28125 13.7806 3.6237 13.7806 4.04687V5.01738L12.9403 4.53219C12.5739 4.32129 12.1052 4.44468 11.8943 4.81255C11.6827 5.17888 11.8083 5.64696 12.1746 5.85855L13.0149 6.34377L12.1746 6.82899C11.8083 7.04058 11.6827 7.50866 11.8943 7.87499C12.0363 8.12097 12.2936 8.25777 12.5582 8.25777C12.6884 8.25777 12.8199 8.22491 12.9403 8.15536L13.7806 7.67016V8.64064C13.7806 9.06384 14.1231 9.40628 14.5463 9.40628C14.9695 9.40628 15.3119 9.06384 15.3119 8.64064V7.67016L16.1523 8.15536C16.2727 8.22491 16.4042 8.25777 16.5344 8.25777C16.7991 8.25777 17.0563 8.12097 17.1983 7.87499C17.4099 7.50866 17.2843 7.04058 16.9179 6.82899L16.0776 6.34377L16.9179 5.85855C17.2843 5.64696 17.4099 5.17888 17.1983 4.81255H17.1983Z" fill="#EC631E"/>
<path d="M24.8556 4.81255C24.6433 4.44469 24.173 4.32131 23.8095 4.53219L22.9692 5.01738V4.04687C22.9692 3.6237 22.6267 3.28125 22.2036 3.28125C21.7803 3.28125 21.4379 3.6237 21.4379 4.04687V5.01738L20.5975 4.53219C20.2319 4.32129 19.7632 4.44468 19.5516 4.81255C19.3399 5.17888 19.4655 5.64696 19.8319 5.85855L20.6722 6.34377L19.8319 6.82899C19.4655 7.04058 19.3399 7.50866 19.5516 7.87499C19.6936 8.12097 19.9508 8.25777 20.2155 8.25777C20.3456 8.25777 20.4771 8.22491 20.5975 8.15536L21.4379 7.67016V8.64064C21.4379 9.06384 21.7804 9.40628 22.2036 9.40628C22.6267 9.40628 22.9692 9.06384 22.9692 8.64064V7.67016L23.8095 8.15536C23.9299 8.22491 24.0615 8.25777 24.1916 8.25777C24.4563 8.25777 24.7135 8.12097 24.8556 7.87499C25.0671 7.50866 24.9415 7.04058 24.5752 6.82899L23.7349 6.34377L24.5752 5.85855C24.9415 5.64696 25.0671 5.17888 24.8556 4.81255Z" fill="#EC631E"/>
<path d="M32.5113 4.81255C32.2997 4.44469 31.8294 4.32131 31.4653 4.53219L30.625 5.01738V4.04687C30.625 3.6237 30.2825 3.28125 29.8593 3.28125C29.4361 3.28125 29.0936 3.6237 29.0936 4.04687V5.01738L28.2533 4.53219C27.8861 4.32129 27.4196 4.44468 27.2073 4.81255C26.9957 5.17888 27.1213 5.64696 27.4876 5.85855L28.3279 6.34377L27.4876 6.82899C27.1213 7.04058 26.9957 7.50866 27.2073 7.87499C27.3493 8.12097 27.6066 8.25777 27.8713 8.25777C28.0013 8.25777 28.1329 8.22491 28.2533 8.15536L29.0936 7.67016V8.64064C29.0936 9.06384 29.4361 9.40628 29.8593 9.40628C30.2825 9.40628 30.625 9.06384 30.625 8.64064V7.67016L31.4653 8.15536C31.5856 8.22491 31.7173 8.25777 31.8474 8.25777C32.1121 8.25777 32.3693 8.12097 32.5113 7.87499C32.7229 7.50866 32.5973 7.04058 32.231 6.82899L31.3907 6.34377L32.231 5.85855C32.5973 5.64696 32.7229 5.17888 32.5113 4.81255Z" fill="#EC631E"/>
</svg>
