<svg xmlns="http://www.w3.org/2000/svg" width="27.483" height="27.483" viewBox="0 0 27.483 27.483">
  <g id="add-user" transform="translate(0)">
    <g id="Grupo_940" data-name="Grupo 940" transform="translate(0)">
      <g id="Grupo_939" data-name="Grupo 939">
        <path id="Trazado_6752" data-name="Trazado 6752" d="M19.731,13.791a13.967,13.967,0,0,0-1.615-.648,7.3,7.3,0,1,0-8.741,0,13.963,13.963,0,0,0-9.3,10.4,3.262,3.262,0,0,0,3.188,3.933H16.48a1.074,1.074,0,0,0,0-2.147H3.258a1.091,1.091,0,0,1-.859-.408,1.122,1.122,0,0,1-.227-.94A11.861,11.861,0,0,1,13.457,14.6q.142.005.285.005t.287-.006a11.694,11.694,0,0,1,4.78,1.135,1.074,1.074,0,0,0,.922-1.939ZM14,12.447l-.262,0-.26,0a5.153,5.153,0,1,1,.522,0Z" transform="translate(0)" fill="#fff"/>
      </g>
    </g>
    <g id="Grupo_942" data-name="Grupo 942" transform="translate(17.285 17.285)">
      <g id="Grupo_941" data-name="Grupo 941">
        <path id="Trazado_6753" data-name="Trazado 6753" d="M331.125,326.026h-2.952v-2.952a1.074,1.074,0,0,0-2.147,0v2.952h-2.952a1.074,1.074,0,0,0,0,2.147h2.952v2.952a1.074,1.074,0,0,0,2.147,0v-2.952h2.952a1.074,1.074,0,0,0,0-2.147Z" transform="translate(-322 -322)" fill="#fff"/>
      </g>
    </g>
  </g>
</svg>
