<svg id="Icon_100" data-name="Icon 100" xmlns="http://www.w3.org/2000/svg" width="22.09" height="22.091" viewBox="0 0 22.09 22.091">
  <g id="Group_945" data-name="Group 945" transform="translate(0 3.945)">
    <g id="Group_944" data-name="Group 944">
      <path id="Path_6758" data-name="Path 6758" d="M15.779,85.333H2.367A2.367,2.367,0,0,0,0,87.7v13.412a2.367,2.367,0,0,0,2.367,2.367H15.779a2.367,2.367,0,0,0,2.367-2.367V87.7A2.367,2.367,0,0,0,15.779,85.333Zm.789,15.779a.789.789,0,0,1-.789.789H2.367a.789.789,0,0,1-.789-.789V87.7a.789.789,0,0,1,.789-.789H15.779a.789.789,0,0,1,.789.789Z" transform="translate(0 -85.333)" fill="#ec631e"/>
    </g>
  </g>
  <g id="Group_947" data-name="Group 947" transform="translate(3.156)">
    <g id="Group_946" data-name="Group 946">
      <path id="Path_6759" data-name="Path 6759" d="M84.834,0h-14.2a2.367,2.367,0,0,0-2.367,2.367.789.789,0,1,0,1.578,0,.789.789,0,0,1,.789-.789h14.2a.789.789,0,0,1,.789.789v14.2a.789.789,0,0,1-.789.789.789.789,0,0,0,0,1.578A2.367,2.367,0,0,0,87.2,16.567V2.367A2.367,2.367,0,0,0,84.834,0Z" transform="translate(-68.267)" fill="#ec631e"/>
    </g>
  </g>
</svg>
