<svg xmlns="http://www.w3.org/2000/svg" width="151.185" height="120.071" viewBox="0 0 151.185 120.071">
  <g id="Group_1126" data-name="Group 1126" transform="translate(0 -52.685)">
    <path id="Path_6939" data-name="Path 6939" d="M148.194,100.4c-6.6-16.8-26.937-26.872-44.161-20.205-19.661,7.609-13.142,38.881-31,45.2-9.647,3.416-23.907-9.344-33.653-11.3-17.959-3.605-34.218,9.067-38.221,26.615-4.084,17.9,2.467,41.815,22.136,46.674,23.431,5.788,35.636-15.275,55.291-21.323,20.171-6.207,42.6,8.452,59.3-9.383,12.337-13.176,16.847-39.648,10.31-56.282Z" transform="translate(0 -17.923)" fill="#f49c55" opacity="0.4"/>
    <path id="Path_6940" data-name="Path 6940" d="M182.955,128.194a21.119,21.119,0,0,0-40.875-7.461H65.718a5.906,5.906,0,0,0-5.906,5.906v65.379a5.906,5.906,0,0,0,5.906,5.906h104.05a5.906,5.906,0,0,0,5.906-5.906V144.14a21.063,21.063,0,0,0,7.282-15.946Z" transform="translate(-42.151 -38.33)" fill="#ee7b0f" opacity="0.66"/>
    <g id="Group_1119" data-name="Group 1119" transform="translate(17.661 75.021)">
      <path id="Path_6941" data-name="Path 6941" d="M169.768,205.516H65.718a5.906,5.906,0,0,1-5.906-5.906V134.232a5.906,5.906,0,0,1,5.906-5.906h104.05a5.906,5.906,0,0,1,5.906,5.906V199.61A5.906,5.906,0,0,1,169.768,205.516Z" transform="translate(-59.812 -128.326)" fill="#fff"/>
      <path id="Path_6942" data-name="Path 6942" d="M119.542,222.252l56.132,43.119a5.906,5.906,0,0,1-5.906,5.906H65.718a5.906,5.906,0,0,1-5.906-5.906l56.132-43.119a2.953,2.953,0,0,1,3.6,0Z" transform="translate(-59.812 -194.087)" fill="#fff"/>
      <path id="Path_6943" data-name="Path 6943" d="M115.944,177.351,59.812,134.232a5.906,5.906,0,0,1,5.906-5.906h104.05a5.906,5.906,0,0,1,5.906,5.906l-56.132,43.119A2.954,2.954,0,0,1,115.944,177.351Z" transform="translate(-59.812 -128.326)" fill="#fff"/>
    </g>
    <path id="Path_6944" data-name="Path 6944" d="M344.778,340.466h-9.489a1.476,1.476,0,0,1-1.476-1.476v-6.542a1.476,1.476,0,0,1,1.476-1.476h9.489a1.476,1.476,0,0,1,1.476,1.476v6.542A1.476,1.476,0,0,1,344.778,340.466Z" transform="translate(-235.244 -196.113)" fill="#ee7b0f" opacity="0.75"/>
    <g id="Group_1124" data-name="Group 1124" transform="translate(61.725 135.382)">
      <g id="Group_1121" data-name="Group 1121" transform="translate(20.67)">
        <g id="Group_1120" data-name="Group 1120">
          <path id="Path_6945" data-name="Path 6945" d="M288.733,335.7h-8.219a1.476,1.476,0,1,1,0-2.953h8.219a1.476,1.476,0,1,1,0,2.953Z" transform="translate(-279.038 -332.743)" fill="#ee7b0f"/>
        </g>
      </g>
      <g id="Group_1123" data-name="Group 1123" transform="translate(0 6.018)">
        <g id="Group_1122" data-name="Group 1122">
          <path id="Path_6946" data-name="Path 6946" d="M239.4,356.078H210.514a1.476,1.476,0,1,1,0-2.953H239.4a1.476,1.476,0,1,1,0,2.953Z" transform="translate(-209.038 -353.125)" fill="#ee7b0f"/>
        </g>
      </g>
    </g>
    <circle id="Ellipse_492" data-name="Ellipse 492" cx="21.115" cy="21.115" r="21.115" transform="translate(98.546 61.369)" fill="#ee7b0f"/>
    <path id="Path_6947" data-name="Path 6947" d="M158.314,122.264a22.632,22.632,0,1,0-13.838-4.753l-29.357,22.551a1.478,1.478,0,0,1-1.8,0l-55.5-42.635a4.437,4.437,0,0,1,4.376-3.742h67.728a1.476,1.476,0,1,0,0-2.953H62.194a7.39,7.39,0,0,0-7.382,7.382v65.379a7.39,7.39,0,0,0,7.382,7.382h104.05a7.39,7.39,0,0,0,7.382-7.382V124.475a1.476,1.476,0,0,0-2.953,0V160.5L132.019,130.8l15.042-11.554a22.447,22.447,0,0,0,11.253,3.015ZM96.42,130.8,57.765,160.5V101.111Zm74.2,33.372a4.432,4.432,0,0,1-4.371,3.746H62.194a4.432,4.432,0,0,1-4.371-3.746l41.02-31.511,12.678,9.738a4.435,4.435,0,0,0,5.4,0l12.678-9.739ZM138.673,99.67a19.641,19.641,0,1,1,19.641,19.641A19.664,19.664,0,0,1,138.673,99.67Z" transform="translate(-38.627 -17.189)" fill="#6f6f6e"/>
    <path id="Path_6948" data-name="Path 6948" d="M373.831,124.31l3.014,7.2-3.014,7.2a1.476,1.476,0,0,0,1.942,1.928l18.2-7.772a1.476,1.476,0,0,0,0-2.715l-18.2-7.772A1.476,1.476,0,0,0,373.831,124.31Z" transform="translate(-263.361 -49.03)" fill="#fff"/>
    <g id="Group_1125" data-name="Group 1125" transform="translate(45.734 52.685)" opacity="0.75">
      <path id="Path_6949" data-name="Path 6949" d="M320.614,61.244a4.28,4.28,0,1,1,3.027-1.252A4.267,4.267,0,0,1,320.614,61.244Zm0-5.608a1.328,1.328,0,1,0,.939.389A1.325,1.325,0,0,0,320.614,55.637Z" transform="translate(-268.661 -52.685)" fill="#ee7b0f"/>
      <path id="Path_6950" data-name="Path 6950" d="M208.324,438.888a4.28,4.28,0,1,1,3.028-1.252,4.269,4.269,0,0,1-3.028,1.252Zm0-5.608a1.328,1.328,0,1,0,.94.389A1.325,1.325,0,0,0,208.324,433.281Z" transform="translate(-189.528 -318.817)" fill="#ee7b0f"/>
      <path id="Path_6951" data-name="Path 6951" d="M277.867,80.806a1.471,1.471,0,0,1-1.044-.432l-1.761-1.761L273.3,80.373a1.476,1.476,0,0,1-2.088-2.088l2.805-2.805a1.476,1.476,0,0,1,2.088,0l2.805,2.805a1.476,1.476,0,0,1-1.044,2.52Z" transform="translate(-236.558 -68.445)" fill="#ee7b0f"/>
      <path id="Path_6952" data-name="Path 6952" d="M422.833,426.581a1.471,1.471,0,0,1-1.044-.432l-1.761-1.761-1.761,1.761a1.476,1.476,0,0,1-2.088-2.088l2.805-2.805a1.476,1.476,0,0,1,2.088,0l2.805,2.805a1.476,1.476,0,0,1-1.044,2.52Z" transform="translate(-338.718 -312.118)" fill="#ee7b0f"/>
      <path id="Path_6953" data-name="Path 6953" d="M161.971,431.331a1.471,1.471,0,0,1-1.044-.432l-1.761-1.761L157.4,430.9a1.476,1.476,0,0,1-2.088-2.088l2.805-2.805a1.476,1.476,0,0,1,2.088,0l2.805,2.805a1.476,1.476,0,0,1-1.044,2.52Z" transform="translate(-154.884 -315.466)" fill="#ee7b0f"/>
    </g>
  </g>
</svg>
