<svg width="31" height="30" viewBox="0 0 31 30" fill="none" xmlns="http://www.w3.org/2000/svg">
<g clip-path="url(#clip0)">
<g clip-path="url(#clip1)">
<g clip-path="url(#clip2)">
<path d="M15.8725 3.71899C15.4279 3.71899 15.0674 4.07948 15.0674 4.52413C15.0674 4.96879 15.4279 5.32927 15.8725 5.32927C18.5366 5.32927 20.7041 7.49638 20.7041 10.1601C20.7041 10.6048 21.0646 10.9653 21.5093 10.9653C21.9539 10.9653 22.3144 10.6048 22.3144 10.1601C22.3144 6.60848 19.4246 3.719 15.8725 3.719V3.71899Z" fill="#EC631E"/>
</g>
</g>
<g clip-path="url(#clip3)">
<g clip-path="url(#clip4)">
<path fill-rule="evenodd" clip-rule="evenodd" d="M13.5045 0.727602C10.0019 1.52972 7.16179 4.61247 6.4145 8.47502C5.78348 11.7367 6.56107 15.0112 8.54787 17.459C9.51907 18.6555 10.076 20.2349 10.076 21.7966V23.4959C10.076 24.6265 10.7514 25.587 11.683 25.9196C11.9894 27.9036 13.5606 29.5 15.5029 29.5C17.4446 29.5 19.0162 27.9041 19.3227 25.9196C20.2544 25.587 20.9297 24.6265 20.9297 23.4958V21.7965C20.9297 20.2318 21.4885 18.6714 22.5031 17.4028C23.9882 15.546 24.806 13.1636 24.806 10.6945C24.806 4.26185 19.4335 -0.629907 13.5045 0.727602ZM15.5029 27.8008C14.5063 27.8008 13.6325 27.0492 13.3099 26.0392H17.6958C17.3732 27.0492 16.4995 27.8008 15.5029 27.8008ZM19.3792 23.4959C19.3792 23.9644 19.0314 24.3455 18.6039 24.3455H12.4018C11.9743 24.3455 11.6266 23.9644 11.6266 23.4959V22.6462H19.3792V23.4959ZM21.3371 16.2828C20.2559 17.6347 19.5907 19.2649 19.4218 20.9469H11.5841C11.4155 19.264 10.752 17.6177 9.70647 16.3296C8.05061 14.2896 7.40358 11.5551 7.93132 8.82752C8.54734 5.64338 10.9145 3.05677 13.8217 2.39105C18.7846 1.25439 23.2555 5.33904 23.2555 10.6945C23.2555 12.7514 22.5742 14.736 21.3371 16.2828L21.3371 16.2828Z" fill="#EC631E"/>
</g>
</g>
<g clip-path="url(#clip5)">
<g clip-path="url(#clip6)">
<path d="M2.8456 10.728H1.23532C0.790666 10.728 0.430176 11.0885 0.430176 11.5332C0.430176 11.9778 0.790666 12.3383 1.23532 12.3383H2.8456C3.29025 12.3383 3.65074 11.9778 3.65074 11.5332C3.65074 11.0885 3.29025 10.728 2.8456 10.728Z" fill="#EC631E"/>
</g>
</g>
<g clip-path="url(#clip7)">
<g clip-path="url(#clip8)">
<path d="M3.1791 6.39642L2.04047 5.2578C1.72609 4.94336 1.21628 4.94336 0.901838 5.2578C0.587408 5.57223 0.587408 6.08199 0.901838 6.39642L2.04047 7.53505C2.35485 7.84949 2.86466 7.84954 3.1791 7.53505C3.49353 7.22061 3.49353 6.71085 3.1791 6.39642Z" fill="#EC631E"/>
</g>
</g>
<g clip-path="url(#clip9)">
<g clip-path="url(#clip10)">
<path d="M3.1791 15.5129C2.86467 15.1985 2.35485 15.1985 2.04047 15.5129L0.901838 16.6515C0.587408 16.966 0.587408 17.4757 0.901838 17.7902C1.21622 18.1046 1.72603 18.1047 2.04047 17.7902L3.1791 16.6515C3.49353 16.3371 3.49353 15.8274 3.1791 15.5129Z" fill="#EC631E"/>
</g>
</g>
<g clip-path="url(#clip11)">
<g clip-path="url(#clip12)">
<path d="M29.7694 10.728H28.1591C27.7145 10.728 27.354 11.0885 27.354 11.5332C27.354 11.9778 27.7145 12.3383 28.1591 12.3383H29.7694C30.214 12.3383 30.5746 11.9778 30.5746 11.5332C30.5746 11.0885 30.2141 10.728 29.7694 10.728Z" fill="#EC631E"/>
</g>
</g>
<g clip-path="url(#clip13)">
<g clip-path="url(#clip14)">
<path d="M30.1034 5.2578C29.789 4.94336 29.2792 4.94336 28.9648 5.2578L27.8261 6.39642C27.5117 6.71086 27.5117 7.22062 27.8261 7.53505C28.1405 7.84943 28.6503 7.84947 28.9648 7.53505L30.1034 6.39642C30.4179 6.08199 30.4179 5.57223 30.1034 5.2578Z" fill="#EC631E"/>
</g>
</g>
<g clip-path="url(#clip15)">
<g clip-path="url(#clip16)">
<path d="M30.1034 16.6515L28.9648 15.5129C28.6504 15.1985 28.1406 15.1985 27.8261 15.5129C27.5117 15.8274 27.5117 16.3371 27.8261 16.6515L28.9648 17.7902C29.2791 18.1045 29.789 18.1046 30.1034 17.7902C30.4179 17.4757 30.4179 16.966 30.1034 16.6515Z" fill="#EC631E"/>
</g>
</g>
</g>
<defs>
<clipPath id="clip0">
<rect width="30.1446" height="29" fill="white" transform="translate(0.430176 0.5)"/>
</clipPath>
<clipPath id="clip1">
<rect width="7.24704" height="7.24626" fill="white" transform="translate(15.0674 3.71899)"/>
</clipPath>
<clipPath id="clip2">
<rect width="7.24704" height="7.24626" fill="white" transform="translate(15.0674 3.71899)"/>
</clipPath>
<clipPath id="clip3">
<rect width="18.6058" height="29" fill="white" transform="translate(6.2002 0.5)"/>
</clipPath>
<clipPath id="clip4">
<rect width="18.6058" height="29" fill="white" transform="translate(6.2002 0.5)"/>
</clipPath>
<clipPath id="clip5">
<rect width="3.22056" height="1.61028" fill="white" transform="translate(0.430176 10.728)"/>
</clipPath>
<clipPath id="clip6">
<rect width="3.22056" height="1.61028" fill="white" transform="translate(0.430176 10.728)"/>
</clipPath>
<clipPath id="clip7">
<rect width="2.7489" height="2.74893" fill="white" transform="translate(0.666016 5.02197)"/>
</clipPath>
<clipPath id="clip8">
<rect width="2.7489" height="2.74893" fill="white" transform="translate(0.666016 5.02197)"/>
</clipPath>
<clipPath id="clip9">
<rect width="2.7489" height="2.74892" fill="white" transform="translate(0.666016 15.2771)"/>
</clipPath>
<clipPath id="clip10">
<rect width="2.7489" height="2.74892" fill="white" transform="translate(0.666016 15.2771)"/>
</clipPath>
<clipPath id="clip11">
<rect width="3.22058" height="1.61028" fill="white" transform="translate(27.354 10.728)"/>
</clipPath>
<clipPath id="clip12">
<rect width="3.22058" height="1.61028" fill="white" transform="translate(27.354 10.728)"/>
</clipPath>
<clipPath id="clip13">
<rect width="2.74891" height="2.74888" fill="white" transform="translate(27.5903 5.02197)"/>
</clipPath>
<clipPath id="clip14">
<rect width="2.74891" height="2.74888" fill="white" transform="translate(27.5903 5.02197)"/>
</clipPath>
<clipPath id="clip15">
<rect width="2.74891" height="2.74887" fill="white" transform="translate(27.5903 15.2771)"/>
</clipPath>
<clipPath id="clip16">
<rect width="2.74891" height="2.74887" fill="white" transform="translate(27.5903 15.2771)"/>
</clipPath>
</defs>
</svg>
