<svg width="114" height="120" viewBox="0 0 114 120" fill="none" xmlns="http://www.w3.org/2000/svg">
<path d="M64.1477 1.14067C42.1036 7.64363 46.525 23.0746 44.0594 40.1732C40.9821 61.5135 27.6824 50.5713 12.4022 62.0962C-14.0117 82.0183 5.17549 125.995 37.9782 119.316C55.3965 115.77 58.9557 102.888 66.06 89.1234C75.2498 71.3172 90.4889 76.1718 104.159 64.5475C131.881 40.9736 95.4198 -8.08456 64.1477 1.14067H64.1477Z" fill="url(#paint0_linear_3_10753)"/>
<path opacity="0.1" d="M50.3372 99.3145C49.8594 98.8792 49.1204 98.9153 48.687 99.3951L35.9074 113.529C35.474 114.008 35.51 114.749 35.9878 115.184C36.4642 115.618 37.2034 115.584 37.638 115.103L50.4176 100.97C50.851 100.49 50.8152 99.749 50.3372 99.3145H50.3372Z" fill="#F6B696"/>
<path opacity="0.1" d="M37.0809 79.5169C36.6031 79.0817 35.8642 79.118 35.4308 79.5975L13.756 103.568C13.3226 104.048 13.3586 104.789 13.8364 105.223C14.0602 105.427 14.3411 105.527 14.621 105.527C14.939 105.527 15.256 105.398 15.4866 105.143L37.1613 81.172C37.5947 80.6927 37.5587 79.9514 37.081 79.5169H37.0809Z" fill="#F6B696"/>
<path opacity="0.1" d="M33.326 89.852L30.8244 92.6188C30.391 93.0983 30.427 93.8395 30.9048 94.274C31.1286 94.4776 31.4094 94.5779 31.6893 94.5779C32.0073 94.5779 32.3244 94.4483 32.555 94.1933L35.0565 91.4265C35.4899 90.947 35.454 90.2059 34.9762 89.7714C34.4981 89.3359 33.7594 89.3725 33.326 89.852H33.326Z" fill="#F6B696"/>
<path opacity="0.1" d="M16.6327 72.6039C16.9507 72.6039 17.2677 72.4743 17.4983 72.2192L19.9999 69.4527C20.4333 68.9734 20.3973 68.2323 19.9195 67.7975C19.4417 67.3623 18.7027 67.3986 18.2693 67.8781L15.7678 70.6445C15.3343 71.1238 15.3703 71.8649 15.8481 72.2996C16.072 72.5035 16.3528 72.6039 16.6327 72.6039V72.6039Z" fill="#F6B696"/>
<path opacity="0.28" d="M99.6829 31.3112L55.7279 42.1763V34.8704C55.7279 26.7802 49.3126 20.0368 41.2483 19.9318C33.0546 19.8252 26.3793 26.4561 26.3793 34.651C26.3793 40.2092 29.4512 45.0465 33.9838 47.5515L20.4654 50.8932C19.478 51.1372 19.2514 52.4424 20.0984 53.007L33.0048 61.6111L21.3628 74.4865C20.9294 74.9661 20.9654 75.7072 21.4432 76.1417C21.667 76.3454 21.9479 76.4457 22.2278 76.4457C22.5457 76.4457 22.8628 76.316 23.0934 76.0611L34.9728 62.9229L41.0535 66.9767L41.0911 66.9544L41.0535 67.133L44.6202 91.9997C44.7613 92.9841 45.9837 93.3556 46.6459 92.6156L55.8807 82.2954L64.3882 92.2039L46.7554 111.705C46.322 112.184 46.358 112.925 46.8358 113.36C47.3122 113.794 48.0514 113.76 48.486 113.279L65.9246 93.9933L69.6421 98.3232C70.199 98.9717 71.2387 98.8219 71.5911 98.0423L101.026 32.9328C101.429 32.0419 100.63 31.077 99.6829 31.3112L99.6829 31.3112Z" fill="#F6B696"/>
<path d="M102.021 22.9976L42.534 52.3692L41.0527 59.3981L44.9753 86.7466L102.021 22.9976Z" fill="white"/>
<path d="M50.2755 68.0321L44.9756 86.7469L55.8803 74.561L50.2755 68.0321Z" fill="white"/>
<path d="M102.021 22.9976L70.8347 91.979L50.2744 68.0329L102.021 22.9976Z" fill="white"/>
<path d="M66.6021 73.4446C66.1162 73.8688 65.3779 73.8196 64.9526 73.332L56.002 63.05L57.7659 61.5149L66.712 71.7899C67.137 72.2774 67.0879 73.018 66.6021 73.4446Z" fill="#F6B696"/>
<path d="M70.2403 69.5373C69.7543 69.9638 69.016 69.9123 68.5908 69.4248L60.0068 59.5646L61.7708 58.0271L70.35 67.8826C70.7751 68.37 70.726 69.1105 70.2403 69.5372V69.5373Z" fill="#F6B696"/>
<path d="M73.8773 65.6304C73.3914 66.057 72.6531 66.0077 72.2278 65.5202L64.0107 56.0796L65.7747 54.5421L73.9895 63.9781C74.4124 64.4655 74.3633 65.2062 73.8773 65.6304Z" fill="#F6B696"/>
<path d="M77.5154 61.7261C77.0294 62.1503 76.2911 62.1011 75.8659 61.6136L68.0156 52.5949L69.7796 51.0597L77.6275 60.0714C78.0506 60.5589 78.0013 61.2995 77.5154 61.7261L77.5154 61.7261Z" fill="#F6B696"/>
<path d="M81.1525 57.8188C80.6666 58.2453 79.9283 58.1938 79.5054 57.7063L72.0195 49.1094L73.7835 47.5719L81.2647 56.1641C81.6878 56.6516 81.6385 57.3919 81.1525 57.8188L81.1525 57.8188Z" fill="#F6B696"/>
<path d="M83.3122 45.8726C82.8262 46.2992 82.0878 46.2476 81.6627 45.7601L79.165 42.8914L80.929 41.3539L83.4243 44.2203C83.8474 44.7078 83.7982 45.4461 83.3122 45.8726V45.8726Z" fill="#F6B696"/>
<path d="M41.0529 59.2418L102.021 22.9976L17.8838 43.796L41.0529 59.2418Z" fill="white"/>
<path opacity="0.46" d="M53.8878 41.6363H41.0533C32.9489 41.6363 26.3789 35.0457 26.3789 26.9159C26.3789 18.7859 32.9489 12.1956 41.0533 12.1956C49.1578 12.1956 55.7275 18.7862 55.7275 26.9159V39.7911C55.7275 40.8099 54.9037 41.6363 53.8878 41.6363V41.6363Z" fill="#EC631E"/>
<ellipse cx="47.7658" cy="26.9155" rx="2.17985" ry="2.18672" fill="#EC631E"/>
<ellipse cx="41.0529" cy="26.9155" rx="2.17986" ry="2.18672" fill="#EC631E"/>
<ellipse cx="34.34" cy="26.9155" rx="2.17986" ry="2.18672" fill="#EC631E"/>
<path opacity="0.47" d="M68.0146 20.9714C67.3695 20.9714 66.8464 20.4469 66.8464 19.7996C66.8464 19.024 66.2177 18.3933 65.4445 18.3933C64.7995 18.3933 64.2764 17.8688 64.2764 17.2214C64.2764 16.5741 64.7995 16.0496 65.4445 16.0496C66.2177 16.0496 66.8464 15.4189 66.8464 14.6433C66.8464 13.996 67.3695 13.4714 68.0146 13.4714C68.6597 13.4714 69.1828 13.996 69.1828 14.6433C69.1828 15.4189 69.8115 16.0496 70.5846 16.0496C71.2297 16.0496 71.7528 16.5741 71.7528 17.2214C71.7528 17.8688 71.2297 18.3933 70.5846 18.3933C69.8115 18.3933 69.1828 19.024 69.1828 19.7996C69.1828 20.4467 68.6599 20.9714 68.0146 20.9714Z" fill="#EC631E"/>
<path opacity="0.47" d="M91.4003 87.1077C90.7553 87.1077 90.2321 86.5832 90.2321 85.9358C90.2321 85.1603 89.6032 84.5295 88.8303 84.5295C88.1852 84.5295 87.6621 84.005 87.6621 83.3577C87.6621 82.7104 88.1852 82.1858 88.8303 82.1858C89.6034 82.1858 90.2321 81.5551 90.2321 80.7795C90.2321 80.1322 90.7553 79.6077 91.4003 79.6077C92.0454 79.6077 92.5685 80.1322 92.5685 80.7795C92.5685 81.5551 93.1972 82.1858 93.9704 82.1858C94.6154 82.1858 95.1386 82.7104 95.1386 83.3577C95.1386 84.005 94.6154 84.5295 93.9704 84.5295C93.1975 84.5295 92.5685 85.1602 92.5685 85.9358C92.5685 86.5832 92.0454 87.1077 91.4003 87.1077Z" fill="#EC631E"/>
<path opacity="0.47" d="M84.7861 95.7288C84.141 95.7288 83.6179 95.2043 83.6179 94.5569C83.6179 93.7814 82.9891 93.1506 82.216 93.1506C81.571 93.1506 81.0479 92.6261 81.0479 91.9788C81.0479 91.3314 81.571 90.8069 82.216 90.8069C82.9891 90.8069 83.6179 90.1762 83.6179 89.4006C83.6179 88.7533 84.141 88.2288 84.7861 88.2288C85.4311 88.2288 85.9543 88.7533 85.9543 89.4006C85.9543 90.1762 86.583 90.8069 87.3561 90.8069C88.0012 90.8069 88.5243 91.3314 88.5243 91.9788C88.5243 92.6261 88.0012 93.1506 87.3561 93.1506C86.583 93.1506 85.9543 93.7813 85.9543 94.5569C85.9543 95.2043 85.4311 95.7288 84.7861 95.7288Z" fill="#EC631E"/>
<path opacity="0.47" fill-rule="evenodd" clip-rule="evenodd" d="M14.6212 82.193C14.3114 82.193 14.0142 82.0697 13.7951 81.8497L11.1526 79.1987C10.9334 78.9788 10.8105 78.6809 10.8105 78.3702C10.8105 78.0594 10.9337 77.7612 11.1526 77.5416L13.7951 74.8909C14.2514 74.4331 14.9911 74.4334 15.4471 74.8906L18.0898 77.5414C18.309 77.7612 18.4321 78.0594 18.4321 78.3701C18.4321 78.6809 18.309 78.979 18.0901 79.1986L15.4471 81.8499C15.228 82.0697 14.931 82.193 14.6212 82.193V82.193ZM13.6308 78.3704L14.6212 79.364L15.6116 78.3704L14.6212 77.3771L13.6308 78.3704Z" fill="#EC631E"/>
<path opacity="0.47" fill-rule="evenodd" clip-rule="evenodd" d="M54.1749 12.8388C53.8758 12.8388 53.577 12.7244 53.3488 12.4954L50.7063 9.84463C50.4871 9.62479 50.3643 9.3269 50.3643 9.01612C50.3643 8.70534 50.4874 8.40721 50.7063 8.1876L53.3488 5.53659C53.5679 5.31675 53.8651 5.19324 54.1749 5.19324C54.4847 5.19324 54.7819 5.31652 55.001 5.53659L57.6438 8.1876C57.8629 8.40745 57.9858 8.70534 57.9858 9.01612C57.9858 9.3269 57.8627 9.62503 57.6435 9.84487L55.001 12.4956C54.7728 12.7244 54.4737 12.8388 54.1749 12.8388ZM53.1845 9.01638L54.1749 10.0097L55.1653 9.01638L54.1749 8.02287L53.1845 9.01638Z" fill="#EC631E"/>
<path fill-rule="evenodd" clip-rule="evenodd" d="M103.183 22.9319C103.16 22.2184 102.426 21.6775 101.74 21.8591L56.8938 32.9451V26.9153C56.8938 18.152 49.7867 11.0226 41.0512 11.0226C32.3157 11.0226 25.2086 18.152 25.2086 26.9153C25.2086 31.9225 27.5314 36.3934 31.1503 39.3086L17.6025 42.6575C17.1525 42.7689 16.8107 43.1361 16.7312 43.5941C16.6518 44.0521 16.8494 44.514 17.2354 44.7711L33.3986 55.5465L21.3603 68.86C20.9269 69.3395 20.9629 70.0806 21.4407 70.5151C21.6643 70.7188 21.9453 70.8191 22.2253 70.8191C22.5432 70.8191 22.8603 70.6895 23.0909 70.4345L35.3665 56.8586L39.9442 59.9104L43.8172 86.9127C43.9359 87.879 45.2263 88.2611 45.8518 87.5186L55.7466 76.2013L64.5245 86.4245L46.7529 106.078C46.3195 106.558 46.3555 107.299 46.8333 107.734C47.0571 107.937 47.338 108.038 47.6179 108.038C47.9359 108.038 48.2529 107.908 48.4835 107.653L66.0607 88.2137L69.9487 92.7421C70.4722 93.3878 71.5778 93.2263 71.8977 92.4615L76.2637 82.8041C76.5303 82.2144 76.2698 81.52 75.6822 81.2528C75.0943 80.9854 74.4023 81.2467 74.1357 81.8359L70.5251 89.8225L51.9175 68.1508L98.7473 27.3946L77.3786 74.6622C77.112 75.2518 77.3726 75.9463 77.9602 76.2135C78.5475 76.4804 79.24 76.2194 79.5066 75.6304L103.082 23.4805C103.154 23.3071 103.194 23.1206 103.183 22.9319V22.9319ZM33.8387 41.058C36.0039 42.1736 38.4543 42.8076 41.0512 42.8076H43.3313C43.9763 42.8076 44.4995 42.2831 44.4995 41.6357C44.4995 40.9884 43.9763 40.4638 43.3313 40.4638H41.0512C33.6039 40.4638 27.545 34.386 27.545 26.9153C27.545 19.4444 33.6039 13.3664 41.0512 13.3664C48.4984 13.3664 54.5574 19.4444 54.5574 26.9153V39.7903C54.5574 40.1617 54.2562 40.4638 53.8859 40.4638H51.1958C50.5507 40.4638 50.0276 40.9884 50.0276 41.6357C50.0276 42.2831 50.5507 42.8076 51.1958 42.8076H53.8859C55.5445 42.8076 56.8938 41.4541 56.8938 39.7903V35.3587L94.6214 26.0324L41.0867 57.858L20.7423 44.2954L33.8387 41.058ZM54.2072 74.4084L47.5143 82.0633L50.8044 70.4453L54.2072 74.4084ZM49.5208 67.135C49.3428 67.2927 49.2131 67.4971 49.1456 67.7256L45.3487 81.133L42.2979 59.8624L91.4554 30.6391L49.5208 67.135Z" fill="#6F6E6D"/>
<path d="M50.3362 93.6878C49.8582 93.2526 49.1194 93.2889 48.686 93.7684L35.9064 107.902C35.473 108.381 35.509 109.123 35.9868 109.557C36.4632 109.991 37.2024 109.957 37.637 109.476L50.4166 95.3429C50.8502 94.8636 50.8143 94.1226 50.3362 93.6878H50.3362Z" fill="#6F6E6D"/>
<path d="M37.08 73.8904C36.6019 73.4552 35.8632 73.4915 35.4298 73.9711L13.7551 97.942C13.3217 98.4215 13.3576 99.1626 13.8354 99.5971C14.059 99.8008 14.3401 99.9011 14.62 99.9011C14.938 99.9011 15.255 99.7715 15.4856 99.5165L37.1601 75.5458C37.5937 75.0663 37.5578 74.3252 37.08 73.8904V73.8904Z" fill="#6F6E6D"/>
<path d="M33.325 84.2253L30.8234 86.9919C30.39 87.4712 30.426 88.2123 30.9038 88.647C31.1274 88.8507 31.4084 88.951 31.6884 88.951C32.0063 88.951 32.3234 88.8214 32.554 88.5664L35.0556 85.7998C35.489 85.3205 35.453 84.5795 34.9752 84.1447C34.4971 83.7095 33.7584 83.7458 33.325 84.2253H33.325Z" fill="#6F6E6D"/>
<path d="M17.4976 66.5938L19.9992 63.8271C20.4326 63.3475 20.3966 62.6064 19.9188 62.1719C19.4407 61.7367 18.702 61.773 18.2686 62.2526L15.7668 65.0191C15.3334 65.4986 15.3694 66.2397 15.8471 66.6743C16.071 66.8779 16.3518 66.9783 16.6317 66.9783C16.9499 66.9783 17.267 66.8489 17.4976 66.5938Z" fill="#6F6E6D"/>
<defs>
<linearGradient id="paint0_linear_3_10753" x1="57" y1="0" x2="57" y2="120" gradientUnits="userSpaceOnUse">
<stop stop-color="#F6B696"/>
<stop offset="1" stop-color="white" stop-opacity="0"/>
</linearGradient>
</defs>
</svg>
