<svg width="20" height="22" viewBox="0 0 20 22" fill="none" xmlns="http://www.w3.org/2000/svg">
<path d="M18.5169 15.8153C17.2267 13.6007 15.1982 11.9712 12.8274 11.2448C14.2928 10.3605 15.3826 8.79399 15.6443 7.0174C15.6961 6.68498 15.724 6.34891 15.7278 6.01208C15.7281 4.78193 15.3688 3.58143 14.6986 2.57326C14.0116 1.55257 13.0453 0.776107 11.9284 0.347205C10.8246 -0.0643776 9.62743 -0.111214 8.49753 0.212977C7.36763 0.537167 6.35896 1.21689 5.60672 2.16103C4.84297 3.13585 4.38417 4.33503 4.29307 5.59454C4.20884 6.83095 4.4911 8.06441 5.10099 9.12511C5.61154 10.0092 6.32831 10.7416 7.18336 11.2528C5.55659 11.754 4.07746 12.6815 2.88459 13.9482C1.23852 15.7243 0.233702 18.0492 0.0436191 20.5214C0.0170679 20.8325 -0.0347711 21.1862 0.0347677 21.4934C0.0637808 21.6047 0.119836 21.7062 0.197425 21.7878C0.275014 21.8694 0.371465 21.9283 0.477288 21.9588C0.643568 21.9947 0.813622 22.0072 0.983024 21.9961H2.3738C2.98954 21.9961 3.60653 21.9961 4.22227 21.9961H19.3678C19.5349 21.994 19.6945 21.9233 19.8127 21.7991C19.9308 21.6748 19.998 21.5069 20 21.3312C19.9985 19.3839 19.4853 17.475 18.5169 15.8153ZM13.4456 12.8778L13.3887 12.8512C13.4087 12.8574 13.4279 12.8663 13.4456 12.8778ZM14.4217 6.70491C14.4217 6.67033 14.4217 6.64905 14.4306 6.63442C14.4291 6.65706 14.4248 6.67941 14.4179 6.70091L14.4217 6.70491ZM6.53222 8.96154L6.47912 8.89372C6.40706 8.80197 6.4943 8.92032 6.50188 8.92564C6.46016 8.89904 6.41844 8.80729 6.39188 8.7674C6.31602 8.65481 6.24395 8.53912 6.17568 8.42033C6.11878 8.31927 6.06568 8.21687 6.0151 8.11314C5.98602 8.05463 5.95948 7.9948 5.93293 7.93496C5.91902 7.9057 5.90638 7.87644 5.89373 7.84586C5.81155 7.59453 5.72305 7.34985 5.66362 7.08922C5.63454 6.96422 5.61052 6.83921 5.59155 6.71288L5.58397 6.6783V6.66368C5.57512 6.58788 5.56753 6.51075 5.56248 6.43496C5.54098 6.1566 5.54098 5.87687 5.56248 5.59852C5.56248 5.52937 5.57385 5.46555 5.58144 5.39241C5.58144 5.36316 5.60925 5.27272 5.58144 5.36714C5.55362 5.46155 5.58144 5.33921 5.58902 5.3206C5.60925 5.18762 5.6358 5.05464 5.66615 4.92166C5.69649 4.78868 5.72684 4.67565 5.7635 4.55597C5.78373 4.49214 5.80396 4.42299 5.82545 4.36581C5.84695 4.30863 5.86465 4.18762 5.90132 4.1597C5.90132 4.1597 5.8381 4.30997 5.88615 4.19694C5.89879 4.17034 5.9089 4.14375 5.92154 4.11582C5.94683 4.05598 5.97465 3.99746 6.00246 3.93895C6.06315 3.81395 6.1289 3.69294 6.19465 3.57459C6.26039 3.45624 6.3135 3.37779 6.37671 3.28205L6.47533 3.13975C6.49809 3.11182 6.51958 3.08257 6.54108 3.05464C6.70071 2.85505 6.87351 2.66754 7.05819 2.49348C7.10497 2.44959 7.15175 2.40704 7.19979 2.3605L7.26428 2.30464C7.28956 2.28204 7.29336 2.26874 7.28324 2.27406C7.3636 2.2107 7.44809 2.15339 7.53611 2.10253C7.74536 1.95882 7.96424 1.83126 8.19104 1.72088L8.25931 1.68897C8.31621 1.66636 8.37184 1.64109 8.42874 1.61982C8.55517 1.5746 8.66896 1.53337 8.7916 1.49747C8.91424 1.46157 9.0255 1.43364 9.14435 1.40837C9.20757 1.39507 9.27079 1.38179 9.33527 1.37115C9.36308 1.37115 9.39343 1.37113 9.42124 1.35784H9.40987H9.42504C9.68857 1.32614 9.95405 1.31636 10.219 1.32859C10.3354 1.32859 10.4529 1.34454 10.568 1.35784C10.5882 1.35784 10.7159 1.39374 10.6135 1.35784H10.5933L10.6375 1.36849C10.7083 1.38045 10.7792 1.39374 10.8487 1.4097C11.099 1.46269 11.345 1.53605 11.5845 1.62912C11.6199 1.64242 11.7388 1.67035 11.7615 1.70093C11.7615 1.70093 11.6187 1.63444 11.7261 1.68631L11.802 1.72221C11.9158 1.77673 12.0283 1.83657 12.1371 1.9004C12.2458 1.96423 12.3533 2.03338 12.4582 2.10386C12.5459 2.15479 12.6304 2.21164 12.7111 2.27406C12.7035 2.27406 12.7111 2.2847 12.7326 2.30597L12.8122 2.37512C12.8603 2.41768 12.907 2.46023 12.9525 2.5081C13.0448 2.59454 13.1346 2.68629 13.2206 2.77406C13.3066 2.86183 13.3799 2.95492 13.4545 3.04933C13.4773 3.07726 13.4988 3.10652 13.5202 3.13444C13.5278 3.14477 13.5372 3.15335 13.5481 3.1597C13.5746 3.19826 13.5986 3.24614 13.6201 3.27805C13.7624 3.49299 13.8891 3.71879 13.9994 3.95358C14.0247 4.00677 14.0487 4.05864 14.0728 4.11183L14.1069 4.19294C14.1549 4.30465 14.098 4.1597 14.093 4.15571C14.1208 4.17831 14.1474 4.30332 14.1613 4.34188C14.1853 4.41103 14.208 4.47485 14.2295 4.55198C14.3078 4.80881 14.3674 5.07154 14.4078 5.33789C14.4078 5.34852 14.4078 5.36847 14.4179 5.38309V5.36183C14.3888 5.25545 14.4179 5.38975 14.4179 5.4097C14.4242 5.47087 14.4293 5.53204 14.4344 5.59321C14.4445 5.72619 14.4495 5.87114 14.4495 6.01076C14.4495 6.15039 14.4495 6.29001 14.4344 6.42963C14.4344 6.4908 14.4242 6.55197 14.4179 6.61314C14.4179 6.61314 14.4179 6.62113 14.4179 6.62512C14.4179 6.62911 14.4179 6.6331 14.4179 6.63975C14.4179 6.6464 14.4103 6.68496 14.4078 6.70757C14.3661 6.97357 14.3052 7.23583 14.2257 7.49213C14.1903 7.60915 14.1436 7.72086 14.0993 7.83655L14.069 7.90968C14.0399 7.9775 14.0095 8.04266 13.9779 8.10782C13.8665 8.33516 13.7398 8.55381 13.5986 8.76208C13.5697 8.82032 13.5326 8.87366 13.4886 8.92031C13.4962 8.92031 13.5822 8.79665 13.5101 8.8884L13.4583 8.95622C13.3748 9.0626 13.2876 9.165 13.1953 9.26341C13.103 9.36181 13.0297 9.4376 12.9424 9.52005L12.816 9.63442L12.7364 9.70356C12.6719 9.75941 12.7047 9.74745 12.7364 9.71554C12.6483 9.79562 12.5516 9.86435 12.4481 9.92031C12.3431 9.99212 12.2369 10.0533 12.1269 10.1238C12.0169 10.1943 11.9057 10.2474 11.7919 10.302L11.716 10.3379C11.6844 10.3538 11.6819 10.3605 11.6907 10.3591C11.6427 10.3778 11.5833 10.3924 11.5542 10.403C11.3144 10.4946 11.0684 10.5671 10.8183 10.6198L10.6489 10.6517L10.6085 10.661H10.5807C10.4416 10.6783 10.3038 10.6889 10.1647 10.6943C9.90716 10.7038 9.64934 10.6927 9.39343 10.661H9.36435L9.32515 10.6517C9.26826 10.6424 9.21137 10.6304 9.15573 10.6198C9.02298 10.5919 8.89149 10.5573 8.76126 10.5187C8.63103 10.4802 8.53115 10.4456 8.41862 10.403C8.36552 10.3831 8.31368 10.3605 8.26184 10.3392L8.18219 10.302C7.95539 10.1916 7.7365 10.064 7.52726 9.92031C7.41468 9.86289 7.31176 9.78654 7.22256 9.69426C7.22256 9.70224 7.33888 9.794 7.2529 9.71687L7.18842 9.66234C7.13532 9.6158 7.08348 9.56925 7.03164 9.52005C6.85254 9.34683 6.68563 9.16018 6.53222 8.96154ZM12.1484 20.6636H2.72023H1.73278H1.30038C1.30038 20.5772 1.31049 20.4894 1.31934 20.3977C1.31934 20.3299 1.33198 20.2647 1.33957 20.1956C1.33957 20.1836 1.33957 20.1716 1.33957 20.1583C1.33957 20.145 1.33957 20.1291 1.33957 20.1184C1.3598 19.9748 1.3813 19.8312 1.40658 19.6889C1.5061 19.1274 1.65075 18.5758 1.83899 18.04C1.86427 17.9682 1.89083 17.895 1.91864 17.8232C1.92876 17.7966 1.94013 17.77 1.94898 17.7421C2.00461 17.6091 2.06024 17.4762 2.11967 17.3432C2.24273 17.0772 2.37591 16.8197 2.5192 16.5706C2.64985 16.3454 2.78766 16.1264 2.93264 15.9137C2.96804 15.8631 3.00345 15.8113 3.04011 15.7607L3.07804 15.7075C3.16528 15.5958 3.24999 15.4828 3.34103 15.3724C3.67233 14.9686 4.03428 14.5937 4.4233 14.2514C4.46882 14.2102 4.5156 14.1703 4.56238 14.1304L4.64203 14.0639C4.73686 13.9881 4.83169 13.9137 4.92904 13.8418C5.14061 13.6858 5.35765 13.5391 5.58017 13.4017C5.81155 13.2594 6.05051 13.1264 6.29326 13.0028L6.49682 12.9044L6.57395 12.8698C6.70038 12.8166 6.8344 12.7607 6.96589 12.7115C7.48393 12.5149 8.01744 12.3668 8.56023 12.2687L8.75367 12.2355L8.82953 12.2248C8.97872 12.2089 9.12666 12.1903 9.27585 12.1783C9.53883 12.1579 9.80224 12.149 10.0661 12.1517C10.2861 12.1517 10.5073 12.1637 10.7273 12.1823C10.8285 12.1903 10.9309 12.2009 11.032 12.2129L11.1584 12.2288L11.2305 12.2395C11.6471 12.3064 12.059 12.4028 12.4633 12.528C12.6655 12.5905 12.8666 12.661 13.0638 12.7381C13.1561 12.774 13.2471 12.8113 13.3382 12.8498H13.3534H13.3622C13.4191 12.8764 13.4773 12.9017 13.5342 12.9296C13.9074 13.1081 14.2689 13.3125 14.6164 13.5413C14.785 13.653 14.9515 13.7705 15.1158 13.8937C15.1664 13.9309 15.2423 13.9722 15.2916 14.0187C15.2974 14.0318 15.3066 14.0429 15.3181 14.0506L15.3839 14.1052L15.5103 14.2155C15.8229 14.4888 16.1185 14.7829 16.3954 15.0958C16.5311 15.2501 16.6621 15.4088 16.7886 15.5719L16.8922 15.7049L16.9024 15.7195C16.9643 15.8073 17.0288 15.895 17.0844 15.9855C17.3206 16.3362 17.5344 16.7032 17.7242 17.0839C17.8203 17.2798 17.9109 17.4779 17.996 17.6783L18.0213 17.7381C18.0668 17.8472 18.0137 17.7115 18.0074 17.7009C18.0306 17.7466 18.0492 17.7948 18.063 17.8445C18.101 17.9469 18.1389 18.0506 18.1743 18.1543C18.318 18.5751 18.4346 19.0056 18.5232 19.4429C18.5662 19.6557 18.5991 19.8698 18.6307 20.0852C18.6313 20.0958 18.6313 20.1065 18.6307 20.1171C18.637 20.1703 18.6434 20.2235 18.6484 20.2767C18.6611 20.399 18.6712 20.5213 18.6788 20.6437V20.653L12.1484 20.6636Z" fill="#EC631E"/>
</svg>
