<svg width="51" height="51" viewBox="0 0 51 51" fill="none" xmlns="http://www.w3.org/2000/svg">
<path d="M25.0166 0.5C38.5567 0.5 49.5332 11.4765 49.5332 25.0166C49.5332 38.5567 38.5567 49.5332 25.0166 49.5332C11.4765 49.5332 0.5 38.5567 0.5 25.0166C0.5 11.4765 11.4765 0.5 25.0166 0.5Z" fill="#F6B696" stroke="#EC631E"/>
<g clip-path="url(#clip0)">
<g clip-path="url(#clip1)">
<g clip-path="url(#clip2)">
<path d="M31.4948 31.1661C30.7198 31.1661 30.0658 30.7241 30.0658 30.2001C30.0658 29.6761 30.7208 29.2341 31.4948 29.2341C31.8998 29.2221 32.2948 29.3581 32.6078 29.6151C32.8008 29.7901 33.0988 29.7751 33.2728 29.5831L33.2808 29.5741C33.4558 29.3741 33.4378 29.0701 33.2408 28.8921C32.8818 28.5811 32.4418 28.3791 31.9718 28.3091V27.7861C31.9718 27.5231 31.7588 27.3091 31.4958 27.3091C31.2328 27.3091 31.0188 27.5231 31.0188 27.7861V28.3031C30.0058 28.3871 29.2008 29.1901 29.1128 30.2031C29.2528 31.3851 30.3088 32.2421 31.4948 32.1351C32.2698 32.1351 32.9238 32.5771 32.9238 33.1011C32.9238 33.6251 32.2688 34.0671 31.4948 34.0671C31.0898 34.0791 30.6948 33.9431 30.3818 33.6861C30.1898 33.5111 29.8928 33.5251 29.7178 33.7171L29.7088 33.7271C29.5338 33.9271 29.5518 34.2311 29.7488 34.4091C30.1078 34.7201 30.5478 34.9221 31.0178 34.9931V35.5161C31.0178 35.7791 31.2308 35.9921 31.4948 35.9921C31.7578 35.9921 31.9708 35.7791 31.9708 35.5161V34.9941C32.9818 34.9101 33.7848 34.1111 33.8758 33.1011C33.7368 31.9181 32.6818 31.0601 31.4948 31.1661H31.4948Z" fill="#EC631E"/>
</g>
</g>
<path fill-rule="evenodd" clip-rule="evenodd" d="M34.5 24.56V15.385C34.506 14.439 33.747 13.666 32.8 13.655H11.7C10.755 13.666 9.99503 14.438 10 15.384V30.274C9.99403 31.22 10.754 31.993 11.7 32.003H22.563H23.891C24.054 36.076 27.38 39.344 31.497 39.377C35.734 39.343 39.143 35.886 39.119 31.65C39.137 28.481 37.233 25.75 34.5 24.56V24.56ZM11.7 14.95H32.803C33.041 14.953 33.231 15.147 33.229 15.384V20.151H11.282V15.384V15.382C11.279 15.147 11.466 14.954 11.7 14.95H11.7ZM11.7 30.708C11.466 30.702 11.28 30.509 11.282 30.274V21.446H33.229V24.141C32.672 24.007 32.094 23.928 31.497 23.923C27.58 23.954 24.376 26.914 23.933 30.708H11.7ZM31.497 38.411C27.763 38.347 24.788 35.268 24.852 31.534C24.915 27.89 27.854 24.952 31.497 24.889C35.231 24.953 38.206 28.032 38.142 31.766C38.079 35.41 35.141 38.348 31.497 38.411Z" fill="#EC631E"/>
</g>
<defs>
<clipPath id="clip0">
<rect width="29.1192" height="25.722" fill="white" transform="translate(10 13.655)"/>
</clipPath>
<clipPath id="clip1">
<rect width="4.763" height="8.68301" fill="white" transform="translate(29.1128 27.3091)"/>
</clipPath>
<clipPath id="clip2">
<rect width="4.763" height="8.68301" fill="white" transform="translate(29.1128 27.3091)"/>
</clipPath>
</defs>
</svg>

