<svg width="51" height="51" viewBox="0 0 51 51" fill="none" xmlns="http://www.w3.org/2000/svg">
<g clip-path="url(#clip0)">
<path d="M25.017 49.533C21.7065 49.533 18.496 48.8852 15.4736 47.6063C12.5542 46.3715 9.93263 44.6035 7.68052 42.3525C5.42943 40.1004 3.66147 37.4789 2.42671 34.5594C1.14774 31.537 0.5 28.3265 0.5 25.016C0.5 21.7065 1.14774 18.496 2.42671 15.4736C3.66147 12.5542 5.42943 9.93264 7.68052 7.68056C9.93262 5.42849 12.5541 3.66053 15.4736 2.42573C18.496 1.14779 21.7065 0.5 25.017 0.5C28.3265 0.5 31.537 1.14779 34.5593 2.42573C37.4788 3.66053 40.1003 5.42849 42.3524 7.68056C44.6045 9.93263 46.3724 12.5542 47.6063 15.4736C48.8852 18.496 49.533 21.7065 49.533 25.016C49.533 28.3265 48.8852 31.537 47.6063 34.5594C46.3724 37.4788 44.6045 40.1004 42.3524 42.3525C40.1003 44.6035 37.4788 46.3715 34.5593 47.6063C31.537 48.8852 28.3265 49.533 25.017 49.533Z" fill="#F6B696"/>
<path fill-rule="evenodd" clip-rule="evenodd" d="M25.017 0.980405C21.7709 0.980405 18.6237 1.6157 15.661 2.86865C12.7992 4.07945 10.2285 5.81282 8.02066 8.0197C5.81278 10.2276 4.07942 12.7982 2.86864 15.661C1.61566 18.6238 0.980415 21.7709 0.980415 25.016C0.980415 28.2611 1.61567 31.4092 2.86864 34.372C4.07943 37.2338 5.81278 39.8044 8.02066 42.0123C10.2285 44.2202 12.7992 45.9535 15.661 47.1643C18.6237 48.4173 21.7709 49.0526 25.017 49.0526C28.2621 49.0526 31.4092 48.4173 34.372 47.1643C37.2348 45.9535 39.8054 44.2202 42.0123 42.0123C44.2202 39.8044 45.9535 37.2338 47.1643 34.372C48.4172 31.4092 49.0525 28.2611 49.0525 25.016C49.0525 21.7709 48.4172 18.6238 47.1643 15.661C45.9535 12.7982 44.2202 10.2276 42.0123 8.0197C39.8054 5.81282 37.2348 4.07945 34.372 2.86865C31.4092 1.6157 28.2621 0.980405 25.017 0.980405ZM25.017 0C38.8328 0 50.033 11.2001 50.033 25.016C50.033 38.8328 38.8328 50.033 25.017 50.033C11.2001 50.033 0 38.8328 0 25.016C0 11.2001 11.2001 0 25.017 0Z" fill="#EC631E"/>
</g>
<g clip-path="url(#clip1)">
<path fill-rule="evenodd" clip-rule="evenodd" d="M39.5254 20.301V33.4263C39.5252 33.7162 39.2903 33.951 39.0004 33.9513H15.375V35.0013H39.0004C39.87 35.0003 40.5745 34.2958 40.5755 33.4263V20.301L39.5254 20.301Z" fill="#EC631E"/>
<path fill-rule="evenodd" clip-rule="evenodd" d="M38.4739 31.3252V18.2H37.4239V31.3252C37.4236 31.6151 37.1888 31.85 36.8989 31.8502H13.2734V32.9002H36.8989C37.7684 32.8992 38.4729 32.1948 38.4739 31.3252Z" fill="#EC631E"/>
<path fill-rule="evenodd" clip-rule="evenodd" d="M36.3748 29.2253V16.1001H35.3248V29.2253C35.3245 29.5153 35.0897 29.7501 34.7998 29.7504H11.1743V30.8004H34.7998C35.6693 30.7994 36.3738 30.0949 36.3748 29.2254V29.2253Z" fill="#EC631E"/>
<path fill-rule="evenodd" clip-rule="evenodd" d="M32.6997 28.7012C33.5692 28.7002 34.2737 27.9958 34.2747 27.1262V15.576C34.2737 14.7065 33.5692 14.002 32.6997 14.001H10.6492C9.7797 14.002 9.07525 14.7065 9.07422 15.576V27.1262C9.07525 27.9958 9.7797 28.7002 10.6492 28.7012H32.6997ZM33.2247 27.1262C33.2244 27.4161 32.9896 27.651 32.6997 27.6512H29.5824C29.8249 25.7491 31.3225 24.2515 33.2247 24.009V27.1262ZM32.6997 15.051C32.9896 15.0513 33.2244 15.2861 33.2247 15.576V18.6932C31.3225 18.4507 29.8249 16.9531 29.5824 15.051H32.6997ZM28.5262 15.051C28.7795 17.5335 30.7422 19.4961 33.2247 19.7494V22.9528C30.7422 23.2061 28.7795 25.1687 28.5262 27.6512H14.8227C14.5694 25.1687 12.6068 23.2061 10.1242 22.9528V19.7494C12.6068 19.4961 14.5694 17.5335 14.8227 15.051H28.5262ZM10.1242 15.576C10.1245 15.2861 10.3593 15.0513 10.6493 15.051H13.7665C13.524 16.9531 12.0264 18.4507 10.1242 18.6932V15.576ZM10.6493 27.6512C10.3593 27.651 10.1245 27.4161 10.1242 27.1262V24.009C12.0264 24.2515 13.524 25.7491 13.7665 27.6512H10.6493Z" fill="#EC631E"/>
<path fill-rule="evenodd" clip-rule="evenodd" d="M21.6752 25.551C23.9949 25.551 25.8752 23.6707 25.8752 21.351C25.8752 19.0312 23.9949 17.1509 21.6752 17.1509C19.3554 17.1509 17.4751 19.0312 17.4751 21.351C17.4777 23.6694 19.3567 25.5485 21.6752 25.551ZM21.6752 18.2009C23.4148 18.2009 24.8253 19.6113 24.8253 21.351C24.8253 23.0906 23.4148 24.501 21.6752 24.501C19.9355 24.501 18.5251 23.0906 18.5251 21.351C18.5269 19.6121 19.9363 18.2027 21.6752 18.2009Z" fill="#EC631E"/>
</g>
<defs>
<clipPath id="clip0">
<rect width="50.033" height="50.033" fill="white"/>
</clipPath>
<clipPath id="clip1">
<rect width="31.5015" height="21.0003" fill="white" transform="translate(9.07422 14.001)"/>
</clipPath>
</defs>
</svg>
