<svg width="51" height="51" viewBox="0 0 51 51" fill="none" xmlns="http://www.w3.org/2000/svg">
<g clip-path="url(#clip0)">
<path d="M25.017 49.533C21.7065 49.533 18.496 48.8852 15.4736 47.6063C12.5542 46.3715 9.93263 44.6035 7.68052 42.3525C5.42943 40.1004 3.66147 37.4789 2.42671 34.5594C1.14774 31.537 0.5 28.3265 0.5 25.016C0.5 21.7065 1.14774 18.496 2.42671 15.4736C3.66147 12.5542 5.42943 9.93264 7.68052 7.68056C9.93262 5.42849 12.5541 3.66053 15.4736 2.42573C18.496 1.14779 21.7065 0.5 25.017 0.5C28.3265 0.5 31.537 1.14779 34.5593 2.42573C37.4788 3.66053 40.1003 5.42849 42.3524 7.68056C44.6045 9.93263 46.3724 12.5542 47.6063 15.4736C48.8852 18.496 49.533 21.7065 49.533 25.016C49.533 28.3265 48.8852 31.537 47.6063 34.5594C46.3724 37.4788 44.6045 40.1004 42.3524 42.3525C40.1003 44.6035 37.4788 46.3715 34.5593 47.6063C31.537 48.8852 28.3265 49.533 25.017 49.533Z" fill="#F6B696"/>
<path fill-rule="evenodd" clip-rule="evenodd" d="M25.017 0.980405C21.7709 0.980405 18.6237 1.6157 15.661 2.86865C12.7992 4.07945 10.2285 5.81282 8.02066 8.0197C5.81278 10.2276 4.07942 12.7982 2.86864 15.661C1.61566 18.6238 0.980415 21.7709 0.980415 25.016C0.980415 28.2611 1.61567 31.4092 2.86864 34.372C4.07943 37.2338 5.81278 39.8044 8.02066 42.0123C10.2285 44.2202 12.7992 45.9535 15.661 47.1643C18.6237 48.4173 21.7709 49.0526 25.017 49.0526C28.2621 49.0526 31.4092 48.4173 34.372 47.1643C37.2348 45.9535 39.8054 44.2202 42.0123 42.0123C44.2202 39.8044 45.9535 37.2338 47.1643 34.372C48.4172 31.4092 49.0525 28.2611 49.0525 25.016C49.0525 21.7709 48.4172 18.6238 47.1643 15.661C45.9535 12.7982 44.2202 10.2276 42.0123 8.0197C39.8054 5.81282 37.2348 4.07945 34.372 2.86865C31.4092 1.6157 28.2621 0.980405 25.017 0.980405ZM25.017 0C38.8328 0 50.033 11.2001 50.033 25.016C50.033 38.8328 38.8328 50.033 25.017 50.033C11.2001 50.033 0 38.8328 0 25.016C0 11.2001 11.2001 0 25.017 0Z" fill="#EC631E"/>
</g>
<g clip-path="url(#clip1)">
<path fill-rule="evenodd" clip-rule="evenodd" d="M39.1351 24.843C39.1311 21.294 36.4201 18.381 32.9571 18.0511V11.6071C32.9531 10.558 32.1051 9.71005 31.0571 9.70605H16.9461C15.8951 9.70605 15.0421 10.556 15.0371 11.6071V39.431C15.0421 40.4821 15.8951 41.3311 16.9461 41.3311H31.0521C32.1041 41.3291 32.9561 40.476 32.9572 39.4231V31.6371C36.4221 31.31 39.1351 28.394 39.1351 24.843H39.1351ZM16.0941 11.6071C16.0961 11.138 16.4771 10.757 16.9471 10.759H31.0531C31.5231 10.757 31.9041 11.138 31.9061 11.6071V13.4431H16.0941L16.0941 11.6071ZM16.0941 14.507H31.9041V18.0381C28.3242 18.248 25.4832 21.2101 25.4832 24.843C25.4832 28.476 28.3242 31.438 31.9041 31.649V35.808H16.0941V14.507ZM25.1181 37.835V38.105C25.1191 38.339 24.9311 38.528 24.6971 38.53H23.2971C23.0631 38.528 22.8751 38.339 22.8762 38.105V37.835C22.8751 37.601 23.0631 37.411 23.2971 37.409H24.6971C24.9311 37.411 25.1191 37.601 25.1181 37.835ZM31.9061 39.423C31.9061 39.892 31.5261 40.2711 31.0581 40.2711H16.9471C16.4771 40.2731 16.0961 39.892 16.0941 39.423V36.8701H22.1021C21.8881 37.136 21.7551 37.4691 21.7551 37.8351V38.1051C21.7551 38.9561 22.4451 39.6501 23.2971 39.6521H24.6971C25.5491 39.6501 26.2391 38.9561 26.2391 38.1051V37.8351C26.2391 37.4691 26.1061 37.136 25.8922 36.8701H31.9061L31.9061 39.423ZM32.3091 30.817C29.0111 30.8161 26.3381 28.1411 26.3391 24.843C26.3401 21.683 28.7971 19.104 31.9041 18.894V18.907C32.0551 18.9 32.1841 18.894 32.3041 18.894C32.5181 18.894 32.7361 18.905 32.9551 18.927V18.909C35.9492 19.23 38.2821 21.764 38.2831 24.843C38.2801 28.141 35.6071 30.815 32.3091 30.817L32.3091 30.817Z" fill="#EC631E"/>
<path d="M32.3093 24.4166C31.6152 24.4166 31.0292 24.0256 31.0292 23.5636C31.0292 23.1016 31.6152 22.7106 32.3093 22.7106C32.6723 22.6996 33.0263 22.8186 33.3093 23.0466C33.4902 23.1976 33.7593 23.1726 33.9103 22.9916C34.0543 22.8186 34.0393 22.5636 33.8763 22.4086C33.5532 22.1336 33.1592 21.9556 32.7402 21.8936V21.4316C32.7283 21.1966 32.5283 21.0146 32.2933 21.0256C32.0732 21.0366 31.8973 21.2126 31.8873 21.4316V21.8926C30.9863 21.9596 30.2632 22.6646 30.1763 23.5636C30.3072 24.6166 31.2532 25.3726 32.3093 25.2696C33.0032 25.2696 33.5892 25.6606 33.5892 26.1226C33.5892 26.5846 33.0032 26.9756 32.3093 26.9756C31.9462 26.9876 31.5912 26.8676 31.3093 26.6396C31.1273 26.4886 30.8583 26.5136 30.7073 26.6946C30.5643 26.8676 30.5792 27.1226 30.7422 27.2776C31.0652 27.5526 31.4582 27.7316 31.8782 27.7936V28.2556C31.8663 28.4916 32.0483 28.6916 32.2842 28.7026C32.5192 28.7146 32.7192 28.5326 32.7313 28.2976C32.7313 28.2836 32.7313 28.2696 32.7313 28.2556V27.7946C33.6303 27.7266 34.3503 27.0206 34.4373 26.1226C34.3052 25.0726 33.3633 24.3166 32.3093 24.4166H32.3093Z" fill="#EC631E"/>
<path d="M26.7983 11.3879H21.1923C20.8832 11.3899 20.6332 11.6419 20.6343 11.9499C20.6353 12.2589 20.8843 12.5069 21.1923 12.5089H26.7983L26.8023 12.5069C27.1083 12.5029 27.3543 12.2569 27.3563 11.9499C27.3573 11.6419 27.1073 11.3899 26.7983 11.3879H26.7983Z" fill="#EC631E"/>
<path d="M30.1561 11.3879H29.5932H29.5921C29.2832 11.3899 29.0332 11.6419 29.0352 11.9499C29.0361 12.2589 29.2852 12.5069 29.5931 12.5089H30.1561L30.1611 12.5069C30.4661 12.5029 30.7122 12.2549 30.7141 11.9499C30.7152 11.6399 30.4652 11.3899 30.1561 11.3879H30.1561Z" fill="#EC631E"/>
</g>
<defs>
<clipPath id="clip0">
<rect width="50.033" height="50.033" fill="white"/>
</clipPath>
<clipPath id="clip1">
<rect width="24.098" height="31.625" fill="white" transform="translate(15.0371 9.70605)"/>
</clipPath>
</defs>
</svg>


