<svg width="146" height="120" viewBox="0 0 146 120" fill="none" xmlns="http://www.w3.org/2000/svg">
<path opacity="0.4" d="M0.0605552 67.6893C-1.53618 88.9461 28.6398 108.555 67.4607 111.487C106.282 114.419 139.047 99.5633 140.643 78.3069C140.901 74.871 140.328 71.4783 139.023 68.1923C136.699 62.3435 136.497 55.8667 138.32 49.8415C139.068 47.3713 139.578 44.789 139.821 42.1209C141.769 20.7236 125.746 1.72432 104.378 0.110849C88.3311 -1.10124 73.8439 7.73494 67.0569 21.321C63.3298 28.7819 56.28 34.0515 48.0279 35.1333C21.1495 38.6565 1.29492 51.2597 0.0605732 67.6893L0.0605552 67.6893Z" fill="url(#paint0_linear_0_46091)"/>
<path d="M84.3437 116.689C84.1788 116.689 84.0141 116.626 83.8882 116.5C83.6362 116.248 83.6362 115.838 83.8882 115.586L85.1767 114.294C85.4284 114.041 85.8364 114.041 86.088 114.294C86.3399 114.547 86.3399 114.955 86.088 115.208L84.7992 116.5C84.6735 116.626 84.5087 116.689 84.3437 116.689Z" fill="#EC631E"/>
<path d="M136.964 29.8842C136.799 29.8842 136.634 29.821 136.508 29.6947C136.256 29.4425 136.256 29.0334 136.508 28.7812L137.797 27.4889C138.049 27.2368 138.456 27.2368 138.708 27.4889C138.96 27.7411 138.96 28.1506 138.708 28.4023L137.419 29.6947C137.294 29.821 137.129 29.8842 136.964 29.8842Z" fill="#F6B696"/>
<path d="M145.356 55.9273C145.191 55.9273 145.026 55.8638 144.9 55.7377L144.067 54.9024L143.234 55.7377C142.982 55.9899 142.574 55.9899 142.323 55.7377C142.071 55.4856 142.071 55.0765 142.323 54.8243L143.611 53.5322C143.863 53.2796 144.271 53.2796 144.523 53.5322L145.811 54.8243C146.063 55.0765 146.063 55.4856 145.811 55.7377C145.686 55.8638 145.521 55.9273 145.356 55.9273H145.356Z" fill="#F6B696"/>
<path d="M70.8214 119.999C70.6563 119.999 70.4916 119.937 70.3656 119.81L69.5326 118.975L68.6995 119.81C68.448 120.063 68.04 120.063 67.7882 119.81C67.5367 119.558 67.5367 119.149 67.7882 118.896L69.0769 117.604C69.3289 117.352 69.7367 117.352 69.9885 117.604L71.2774 118.896C71.529 119.149 71.529 119.558 71.2774 119.81C71.1513 119.937 70.9864 119.999 70.8214 119.999Z" fill="#EC631E"/>
<path d="M124.199 49.8617C124.034 49.8617 123.869 49.7987 123.744 49.6721L122.91 48.837L122.078 49.6721C121.826 49.925 121.418 49.925 121.166 49.6721C120.915 49.4202 120.915 49.0111 121.166 48.759L122.455 47.4666C122.707 47.2142 123.114 47.2142 123.366 47.4666L124.655 48.759C124.907 49.0111 124.907 49.4202 124.655 49.6721C124.529 49.7987 124.364 49.8617 124.199 49.8617H124.199Z" fill="#F6B696"/>
<path fill-rule="evenodd" clip-rule="evenodd" d="M113.255 12.9057C112.38 12.9057 111.504 12.5714 110.838 11.9033C109.505 10.5667 109.505 8.39178 110.838 7.05537C112.171 5.71852 114.34 5.71852 115.673 7.05537C117.006 8.39177 117.006 10.5667 115.673 11.9033C115.006 12.5714 114.131 12.9057 113.255 12.9057ZM113.255 8.41557C112.983 8.41557 112.712 8.51938 112.505 8.7268C112.091 9.14163 112.091 9.81634 112.505 10.2316C112.918 10.6462 113.592 10.6462 114.006 10.2316C114.419 9.81678 114.419 9.14186 114.006 8.7268C113.799 8.51938 113.527 8.41557 113.255 8.41557Z" fill="#F6B696"/>
<path fill-rule="evenodd" clip-rule="evenodd" d="M119.185 24.4645C118.309 24.4645 117.434 24.1303 116.767 23.462C116.121 22.8144 115.766 21.9534 115.766 21.0378C115.766 20.1222 116.121 19.2612 116.767 18.6136C118.1 17.2774 120.269 17.277 121.602 18.6136C122.248 19.2612 122.604 20.1222 122.604 21.0378C122.604 21.9534 122.248 22.8144 121.602 23.462C120.936 24.1303 120.06 24.4645 119.185 24.4645ZM119.185 19.9745C118.913 19.9745 118.641 20.0781 118.434 20.2853C118.234 20.4864 118.123 20.7535 118.123 21.0378C118.123 21.3222 118.234 21.5889 118.434 21.7904C118.848 22.2052 119.521 22.2052 119.935 21.7904C120.136 21.5889 120.246 21.3222 120.246 21.0378C120.246 20.7535 120.135 20.4864 119.935 20.2853C119.728 20.0781 119.457 19.9745 119.185 19.9745Z" fill="#EC631E"/>
<path opacity="0.66" fill-rule="evenodd" clip-rule="evenodd" d="M18.7025 69.68C17.8269 69.68 16.9511 69.3456 16.2848 68.6776C14.952 67.3407 14.952 65.1658 16.2848 63.8292C17.6177 62.4932 19.787 62.493 21.12 63.8292C22.453 65.166 22.453 67.3409 21.12 68.6776C20.4536 69.3456 19.5781 69.68 18.7025 69.68ZM18.7025 65.1898C18.4307 65.1898 18.1589 65.2937 17.9521 65.5013C17.5382 65.9161 17.5382 66.5908 17.9521 67.0057C18.3657 67.4207 19.039 67.4207 19.4527 67.0057C19.8665 66.591 19.8665 65.9161 19.4527 65.5013C19.2459 65.2937 18.9742 65.1898 18.7025 65.1898H18.7025Z" fill="#F6B696"/>
<path opacity="0.66" d="M17.1834 80.3045C16.8815 80.3045 16.58 80.1888 16.3496 79.9582L14.9435 78.548L13.5372 79.9582C13.0765 80.4198 12.3304 80.4198 11.8698 79.9582C11.4093 79.4967 11.4093 78.7479 11.8698 78.2866L14.1099 76.0405C14.5704 75.5789 15.3166 75.5789 15.7771 76.0405L18.017 78.2866C18.4776 78.7484 18.4776 79.4971 18.017 79.9582C17.7867 80.1888 17.4851 80.3045 17.1834 80.3045H17.1834Z" fill="#F6B696"/>
<path d="M103.269 99.2594H83.7031V94.2638L87.3224 89.3511L98.0725 88.7656L102.51 90.79L103.269 99.2594Z" fill="#EC631E"/>
<path d="M59.5945 99.2594H40.0283V94.2638L43.6476 89.3511L54.3977 88.7656L58.8356 90.79L59.5945 99.2594Z" fill="#EC631E"/>
<path d="M105.958 93.1176C105.16 89.9929 102.39 87.6679 99.0742 87.6679H90.1868C86.871 87.6679 84.1013 89.9926 83.3033 93.1176H61.4163C60.6183 89.9929 57.8486 87.6679 54.5325 87.6679H45.645C42.3292 87.6679 39.5594 89.9926 38.7614 93.1176H33.1631V63.1447C33.1631 46.6175 46.355 33.1719 62.571 33.1719H82.1484C98.3643 33.1719 111.556 46.6175 111.556 63.1447V93.1176H105.958Z" fill="white"/>
<ellipse cx="55.9494" cy="69.5292" rx="3.50802" ry="3.51747" fill="#6F6E6D"/>
<path fill-rule="evenodd" clip-rule="evenodd" d="M113.832 92.3925V63.3734C113.832 45.4326 99.2717 30.8368 81.3738 30.8368H70.7427C70.6304 29.8466 70.641 28.0422 71.5583 26.899C72.2669 26.0108 73.507 25.5606 75.2435 25.5606H76.9975V22.0431H75.2435C72.3897 22.0431 70.2288 22.9366 68.8203 24.6971C68.2345 25.4305 67.8503 26.2412 67.603 27.0485C65.8507 23.8493 62.3971 20.4567 56.2388 19.4279L54.5093 19.1377L53.9322 22.6077L55.6617 22.8979C62.7023 24.0745 64.7843 28.7158 65.3789 30.8368H62.0989C44.1992 30.8368 29.6392 45.4326 29.6392 63.3734V92.3925H20.8691V95.91H31.3932H33.1472H38.4093V99.4275C38.4093 100.398 39.1951 101.186 40.1633 101.186H45.4253H48.9333H50.6873H54.1954H59.4574C60.4256 101.186 61.2114 100.398 61.2114 99.4275V95.91H82.2595V99.4275C82.2595 100.398 83.0453 101.186 84.0135 101.186H89.2756H92.7836H94.5376H98.0456H103.308C104.276 101.186 105.062 100.398 105.062 99.4275V95.91H110.324H112.078H122.602V92.3925H113.832ZM57.7034 97.6687H54.1953V92.3925H50.6873V97.6687H48.9333V92.3925H45.4253V97.6687H41.9173V95.91V94.1513C41.9173 92.2114 43.4959 90.6338 45.4358 90.6338H54.1848C56.1248 90.6338 57.7034 92.2114 57.7034 94.1513V95.91V97.6687H57.7034ZM101.554 97.6687H98.0456V92.3925H94.5376V97.6687H92.7836V92.3925H89.2755V97.6687H85.7675V95.91V94.1513C85.7675 92.2114 87.3461 90.6338 89.2861 90.6338H98.0351C99.975 90.6338 101.554 92.2114 101.554 94.1513V95.91V97.6687H101.554ZM104.813 92.3925C104.027 89.3675 101.301 87.1163 98.0351 87.1163H89.2861C86.0219 87.1163 83.2944 89.3675 82.5086 92.3925H60.9623C60.1765 89.3675 57.4491 87.1163 54.1848 87.1163H45.4358C42.1716 87.1163 39.4441 89.3675 38.6583 92.3925H33.1472V63.3734C33.1472 47.3724 46.1339 34.3542 62.0972 34.3542H81.372C97.3353 34.3542 110.322 47.3724 110.322 63.3734V92.3925H104.813Z" fill="#6F6E6D"/>
<ellipse cx="87.5217" cy="69.5292" rx="3.50802" ry="3.51747" fill="#6F6E6D"/>
<defs>
<linearGradient id="paint0_linear_0_46091" x1="70.3519" y1="0" x2="70.3519" y2="111.856" gradientUnits="userSpaceOnUse">
<stop stop-color="#F6B696"/>
<stop offset="1" stop-color="white" stop-opacity="0"/>
</linearGradient>
</defs>
</svg>
