<svg width="15" height="15" viewBox="0 0 15 15" fill="none" xmlns="http://www.w3.org/2000/svg">
<path d="M8.32868 7.50001L14.8284 1.00029C15.0572 0.77145 15.0572 0.40044 14.8284 0.17163C14.5995 -0.05718 14.2285 -0.05721 13.9997 0.17163L7.49999 6.67135L1.00029 0.17163C0.77145 -0.05721 0.40044 -0.05721 0.17163 0.17163C-0.05718 0.40047 -0.05721 0.771479 0.17163 1.00029L6.67133 7.49999L0.17163 13.9997C-0.05721 14.2285 -0.05721 14.5996 0.17163 14.8284C0.286035 14.9428 0.436005 15 0.585975 15C0.735945 15 0.885885 14.9428 1.00032 14.8284L7.49999 8.32867L13.9997 14.8284C14.1141 14.9428 14.2641 15 14.414 15C14.564 15 14.7139 14.9428 14.8284 14.8284C15.0572 14.5995 15.0572 14.2285 14.8284 13.9997L8.32868 7.50001Z" fill="#6F6E6D"/>
</svg>
