<svg width="230" height="161" viewBox="0 0 230 161" fill="none" xmlns="http://www.w3.org/2000/svg">
<g filter="url(#filter0_d_170_2315)">
<path d="M4 17.7907C4 7.96517 11.9514 0 21.76 0H208.24C218.049 0 226 7.96517 226 17.7907V135.209C226 145.035 218.049 153 208.24 153H21.76C11.9514 153 4 145.035 4 135.209V17.7907Z" fill="white"/>
</g>
<path opacity="0.2" d="M17.3193 31.1335C17.3193 21.3079 25.2708 13.3428 35.0793 13.3428H194.919C204.728 13.3428 212.679 21.3079 212.679 31.1335V121.866C212.679 131.692 204.728 139.657 194.919 139.657H35.0793C25.2708 139.657 17.3193 131.692 17.3193 121.866V31.1335Z" fill="#17A441"/>
<path fill-rule="evenodd" clip-rule="evenodd" d="M31.6133 139.318L31.9579 137.573C32.966 137.773 34.0096 137.878 35.0793 137.878H38.1531V139.657H35.0793C33.8932 139.657 32.7343 139.54 31.6133 139.318ZM191.845 139.657V137.878H194.919C195.989 137.878 197.033 137.773 198.041 137.573L198.385 139.318C197.264 139.54 196.105 139.657 194.919 139.657H191.845ZM204.787 136.66L203.799 135.182C205.543 134.012 207.045 132.508 208.212 130.761L209.688 131.751C208.391 133.691 206.724 135.361 204.787 136.66ZM212.679 34.3739H210.903V31.1335C210.903 30.0619 210.798 29.0165 210.599 28.0067L212.341 27.6614C212.563 28.7844 212.679 29.9453 212.679 31.1335V34.3739ZM209.688 21.2487L208.212 22.2384C207.045 20.4916 205.543 18.9872 203.799 17.8177L204.787 16.3393C206.724 17.6382 208.391 19.3086 209.688 21.2487ZM38.1532 13.3428H35.0793C33.8932 13.3428 32.7343 13.4592 31.6133 13.6814L31.9579 15.4266C32.966 15.2269 34.0096 15.1218 35.0793 15.1218H38.1532V13.3428ZM25.2116 16.3393L26.1996 17.8177C24.4558 18.9872 22.954 20.4916 21.7865 22.2384L20.3107 21.2487C21.6074 19.3086 23.2748 17.6382 25.2116 16.3393ZM17.3193 118.626H19.0953V121.866C19.0953 122.938 19.2002 123.983 19.3996 124.993L17.6574 125.338C17.4356 124.215 17.3193 123.054 17.3193 121.866V118.626ZM20.3107 131.751L21.7865 130.761C22.954 132.508 24.4558 134.012 26.1996 135.182L25.2116 136.66C23.2748 135.361 21.6074 133.691 20.3107 131.751ZM17.3193 112.145H19.0953V105.664H17.3193V112.145ZM17.3193 99.1829H19.0953V92.702H17.3193V99.1829ZM17.3193 86.2211H19.0953V79.7402H17.3193V86.2211ZM17.3193 73.2593H19.0953V66.7784H17.3193V73.2593ZM17.3193 60.2975H19.0953V53.8166H17.3193V60.2975ZM17.3193 47.3357H19.0953V40.8548H17.3193V47.3357ZM17.3193 34.3739H19.0953V31.1335C19.0953 30.0618 19.2002 29.0165 19.3996 28.0067L17.6574 27.6614C17.4356 28.7844 17.3193 29.9453 17.3193 31.1335V34.3739ZM44.3009 13.3428V15.1218H50.4486V13.3428H44.3009ZM56.5963 13.3428V15.1218H62.7439V13.3428H56.5963ZM68.8916 13.3428V15.1218H75.0393V13.3428H68.8916ZM81.187 13.3428V15.1218H87.3347V13.3428H81.187ZM93.4824 13.3428V15.1218H99.6301V13.3428H93.4824ZM105.778 13.3428V15.1218H111.925V13.3428H105.778ZM118.073 13.3428V15.1218H124.221V13.3428H118.073ZM130.369 13.3428V15.1218H136.516V13.3428H130.369ZM142.664 13.3428V15.1218H148.812V13.3428H142.664ZM154.959 13.3428V15.1218H161.107V13.3428H154.959ZM167.255 13.3428V15.1218H173.402V13.3428H167.255ZM179.55 13.3428V15.1218H185.698V13.3428H179.55ZM191.846 13.3428V15.1218H194.919C195.989 15.1218 197.033 15.2269 198.041 15.4266L198.385 13.6814C197.264 13.4592 196.105 13.3428 194.919 13.3428H191.846ZM212.679 40.8548H210.903V47.3357H212.679V40.8548ZM212.679 53.8166H210.903V60.2975H212.679V53.8166ZM212.679 66.7784H210.903V73.2593H212.679V66.7784ZM212.679 79.7402H210.903V86.2211H212.679V79.7402ZM212.679 92.702H210.903V99.1829H212.679V92.702ZM212.679 105.664H210.903V112.145H212.679V105.664ZM212.679 118.626H210.903V121.866C210.903 122.938 210.798 123.983 210.599 124.993L212.341 125.338C212.563 124.215 212.679 123.054 212.679 121.866V118.626ZM185.698 139.657V137.878H179.55V139.657H185.698ZM173.402 139.657V137.878H167.255V139.657H173.402ZM161.107 139.657V137.878H154.959V139.657H161.107ZM148.812 139.657V137.878H142.664V139.657H148.812ZM136.516 139.657V137.878H130.369V139.657H136.516ZM124.221 139.657V137.878H118.073V139.657H124.221ZM111.925 139.657V137.878H105.778V139.657H111.925ZM99.6301 139.657V137.878H93.4824V139.657H99.6301ZM87.3347 139.657V137.878H81.187V139.657H87.3347ZM75.0393 139.657V137.878H68.8916V139.657H75.0393ZM62.7439 139.657V137.878H56.5962V139.657H62.7439ZM50.4485 139.657V137.878H44.3008V139.657H50.4485Z" fill="#B7B7B7"/>
<g opacity="0.5">
<path d="M170.185 114.75H59.4666C56.3038 114.75 53.7263 112.223 53.7263 109.123V43.8768C53.7263 40.7765 56.3038 38.25 59.4666 38.25H170.175C173.338 38.25 175.915 40.7765 175.915 43.8768V109.113C175.925 112.223 173.348 114.75 170.185 114.75ZM59.4666 39.2566C56.8686 39.2566 54.7532 41.3301 54.7532 43.8768V109.113C54.7532 111.66 56.8686 113.733 59.4666 113.733H170.175C172.773 113.733 174.888 111.66 174.888 109.113V43.8768C174.888 41.3301 172.773 39.2566 170.175 39.2566H59.4666Z" fill="#17A441"/>
</g>
<g opacity="0.5">
<path d="M64.1117 49.9804C70.116 49.9804 76.1031 49.9804 82.1074 49.9804C91.673 49.9804 101.239 49.9804 110.821 49.9804C113.024 49.9804 115.243 49.9804 117.445 49.9804C118.546 49.9804 118.546 48.9604 117.445 48.9604C111.441 48.9604 105.454 48.9604 99.4493 48.9604C89.8837 48.9604 80.3181 48.9604 70.7353 48.9604C68.5332 48.9604 66.3138 48.9604 64.1117 48.9604C63.0106 48.9604 63.0106 49.9804 64.1117 49.9804Z" fill="#17A441"/>
<path d="M64.1117 58.6391C70.116 58.6391 76.1031 58.6391 82.1074 58.6391C91.673 58.6391 101.239 58.6391 110.821 58.6391C113.024 58.6391 115.243 58.6391 117.445 58.6391C118.546 58.6391 118.546 57.6191 117.445 57.6191C111.441 57.6191 105.454 57.6191 99.4493 57.6191C89.8837 57.6191 80.3181 57.6191 70.7353 57.6191C68.5332 57.6191 66.3138 57.6191 64.1117 57.6191C63.0106 57.6191 63.0106 58.6391 64.1117 58.6391Z" fill="#17A441"/>
<path d="M63.7943 66.7983C67.491 66.7983 71.1771 66.7983 74.8738 66.7983C80.763 66.7983 86.6523 66.7983 92.5522 66.7983C93.908 66.7983 95.2744 66.7983 96.6302 66.7983C97.3081 66.7983 97.3081 65.7783 96.6302 65.7783C92.9335 65.7783 89.2474 65.7783 85.5507 65.7783C79.6614 65.7783 73.7722 65.7783 67.8723 65.7783C66.5165 65.7783 65.1501 65.7783 63.7943 65.7783C63.1164 65.7783 63.1164 66.7983 63.7943 66.7983Z" fill="#17A441"/>
</g>
<rect opacity="0.5" x="151.224" y="48.9502" width="15.5862" height="14.3" rx="2.5" stroke="#17A441"/>
<rect opacity="0.5" x="62.6897" y="96.8999" width="104.621" height="8.925" rx="1" fill="#17A441"/>
<defs>
<filter id="filter0_d_170_2315" x="0" y="0" width="230" height="161" filterUnits="userSpaceOnUse" color-interpolation-filters="sRGB">
<feFlood flood-opacity="0" result="BackgroundImageFix"/>
<feColorMatrix in="SourceAlpha" type="matrix" values="0 0 0 0 0 0 0 0 0 0 0 0 0 0 0 0 0 0 127 0" result="hardAlpha"/>
<feOffset dy="4"/>
<feGaussianBlur stdDeviation="2"/>
<feComposite in2="hardAlpha" operator="out"/>
<feColorMatrix type="matrix" values="0 0 0 0 0 0 0 0 0 0 0 0 0 0 0 0 0 0 0.25 0"/>
<feBlend mode="normal" in2="BackgroundImageFix" result="effect1_dropShadow_170_2315"/>
<feBlend mode="normal" in="SourceGraphic" in2="effect1_dropShadow_170_2315" result="shape"/>
</filter>
</defs>
</svg>
