<svg width="230" height="161" viewBox="0 0 230 161" fill="none" xmlns="http://www.w3.org/2000/svg">
<g filter="url(#filter0_d_170_2314)">
<path d="M4 17.7907C4 7.96517 11.9514 0 21.76 0H208.24C218.049 0 226 7.96517 226 17.7907V135.209C226 145.035 218.049 153 208.24 153H21.76C11.9514 153 4 145.035 4 135.209V17.7907Z" fill="white"/>
</g>
<path opacity="0.2" d="M17.3193 31.1335C17.3193 21.3079 25.2708 13.3428 35.0793 13.3428H194.919C204.728 13.3428 212.679 21.3079 212.679 31.1335V121.866C212.679 131.692 204.728 139.657 194.919 139.657H35.0793C25.2708 139.657 17.3193 131.692 17.3193 121.866V31.1335Z" fill="#17A441"/>
<path fill-rule="evenodd" clip-rule="evenodd" d="M31.6133 139.318L31.9579 137.573C32.966 137.773 34.0096 137.878 35.0793 137.878H38.1531V139.657H35.0793C33.8932 139.657 32.7343 139.54 31.6133 139.318ZM191.845 139.657V137.878H194.919C195.989 137.878 197.033 137.773 198.041 137.573L198.385 139.318C197.264 139.54 196.105 139.657 194.919 139.657H191.845ZM204.787 136.66L203.799 135.182C205.543 134.012 207.045 132.508 208.212 130.761L209.688 131.751C208.391 133.691 206.724 135.361 204.787 136.66ZM212.679 34.3739H210.903V31.1335C210.903 30.0619 210.798 29.0165 210.599 28.0067L212.341 27.6614C212.563 28.7844 212.679 29.9453 212.679 31.1335V34.3739ZM209.688 21.2487L208.212 22.2384C207.045 20.4916 205.543 18.9872 203.799 17.8177L204.787 16.3393C206.724 17.6382 208.391 19.3086 209.688 21.2487ZM38.1532 13.3428H35.0793C33.8932 13.3428 32.7343 13.4592 31.6133 13.6814L31.9579 15.4266C32.966 15.2269 34.0096 15.1218 35.0793 15.1218H38.1532V13.3428ZM25.2116 16.3393L26.1996 17.8177C24.4558 18.9872 22.954 20.4916 21.7865 22.2384L20.3107 21.2487C21.6074 19.3086 23.2748 17.6382 25.2116 16.3393ZM17.3193 118.626H19.0953V121.866C19.0953 122.938 19.2002 123.983 19.3996 124.993L17.6574 125.338C17.4356 124.215 17.3193 123.054 17.3193 121.866V118.626ZM20.3107 131.751L21.7865 130.761C22.954 132.508 24.4558 134.012 26.1996 135.182L25.2116 136.66C23.2748 135.361 21.6074 133.691 20.3107 131.751ZM17.3193 112.145H19.0953V105.664H17.3193V112.145ZM17.3193 99.1829H19.0953V92.702H17.3193V99.1829ZM17.3193 86.2211H19.0953V79.7402H17.3193V86.2211ZM17.3193 73.2593H19.0953V66.7784H17.3193V73.2593ZM17.3193 60.2975H19.0953V53.8166H17.3193V60.2975ZM17.3193 47.3357H19.0953V40.8548H17.3193V47.3357ZM17.3193 34.3739H19.0953V31.1335C19.0953 30.0618 19.2002 29.0165 19.3996 28.0067L17.6574 27.6614C17.4356 28.7844 17.3193 29.9453 17.3193 31.1335V34.3739ZM44.3009 13.3428V15.1218H50.4486V13.3428H44.3009ZM56.5963 13.3428V15.1218H62.7439V13.3428H56.5963ZM68.8916 13.3428V15.1218H75.0393V13.3428H68.8916ZM81.187 13.3428V15.1218H87.3347V13.3428H81.187ZM93.4824 13.3428V15.1218H99.6301V13.3428H93.4824ZM105.778 13.3428V15.1218H111.925V13.3428H105.778ZM118.073 13.3428V15.1218H124.221V13.3428H118.073ZM130.369 13.3428V15.1218H136.516V13.3428H130.369ZM142.664 13.3428V15.1218H148.812V13.3428H142.664ZM154.959 13.3428V15.1218H161.107V13.3428H154.959ZM167.255 13.3428V15.1218H173.402V13.3428H167.255ZM179.55 13.3428V15.1218H185.698V13.3428H179.55ZM191.846 13.3428V15.1218H194.919C195.989 15.1218 197.033 15.2269 198.041 15.4266L198.385 13.6814C197.264 13.4592 196.105 13.3428 194.919 13.3428H191.846ZM212.679 40.8548H210.903V47.3357H212.679V40.8548ZM212.679 53.8166H210.903V60.2975H212.679V53.8166ZM212.679 66.7784H210.903V73.2593H212.679V66.7784ZM212.679 79.7402H210.903V86.2211H212.679V79.7402ZM212.679 92.702H210.903V99.1829H212.679V92.702ZM212.679 105.664H210.903V112.145H212.679V105.664ZM212.679 118.626H210.903V121.866C210.903 122.938 210.798 123.983 210.599 124.993L212.341 125.338C212.563 124.215 212.679 123.054 212.679 121.866V118.626ZM185.698 139.657V137.878H179.55V139.657H185.698ZM173.402 139.657V137.878H167.255V139.657H173.402ZM161.107 139.657V137.878H154.959V139.657H161.107ZM148.812 139.657V137.878H142.664V139.657H148.812ZM136.516 139.657V137.878H130.369V139.657H136.516ZM124.221 139.657V137.878H118.073V139.657H124.221ZM111.925 139.657V137.878H105.778V139.657H111.925ZM99.6301 139.657V137.878H93.4824V139.657H99.6301ZM87.3347 139.657V137.878H81.187V139.657H87.3347ZM75.0393 139.657V137.878H68.8916V139.657H75.0393ZM62.7439 139.657V137.878H56.5962V139.657H62.7439ZM50.4485 139.657V137.878H44.3008V139.657H50.4485Z" fill="#B7B7B7"/>
<g opacity="0.5">
<path d="M170.185 114.75H59.4666C56.3038 114.75 53.7263 112.223 53.7263 109.123V43.8768C53.7263 40.7765 56.3038 38.25 59.4666 38.25H170.175C173.338 38.25 175.915 40.7765 175.915 43.8768V109.113C175.925 112.223 173.348 114.75 170.185 114.75ZM59.4666 39.2566C56.8686 39.2566 54.7532 41.3301 54.7532 43.8768V109.113C54.7532 111.66 56.8686 113.733 59.4666 113.733H170.175C172.773 113.733 174.888 111.66 174.888 109.113V43.8768C174.888 41.3301 172.773 39.2566 170.175 39.2566H59.4666Z" fill="#17A441"/>
<path d="M76.0634 57.6314H68.3872C65.918 57.6314 63.9094 55.6037 63.9094 53.1111C63.9094 50.6185 65.918 48.5908 68.3872 48.5908H76.0634C78.5326 48.5908 80.5412 50.6185 80.5412 53.1111C80.5412 55.6037 78.5326 57.6314 76.0634 57.6314ZM68.3872 49.8823C66.6217 49.8823 65.1888 51.3288 65.1888 53.1111C65.1888 54.8934 66.6217 56.3399 68.3872 56.3399H76.0634C77.829 56.3399 79.2619 54.8934 79.2619 53.1111C79.2619 51.3288 77.829 49.8823 76.0634 49.8823H68.3872Z" fill="#17A441"/>
<path d="M112.594 67.8306C118.598 67.8306 124.586 67.8306 130.59 67.8306C140.155 67.8306 149.721 67.8306 159.304 67.8306C161.506 67.8306 163.725 67.8306 165.927 67.8306C167.029 67.8306 167.029 66.8105 165.927 66.8105C159.923 66.8105 153.936 66.8105 147.932 66.8105C138.366 66.8105 128.801 66.8105 119.218 66.8105C117.016 66.8105 114.796 66.8105 112.594 66.8105C111.493 66.8105 111.493 67.8306 112.594 67.8306Z" fill="#17A441"/>
<path d="M87.5167 49.4702C96.3008 49.4702 105.06 49.4702 113.844 49.4702C127.838 49.4702 141.832 49.4702 155.851 49.4702C159.073 49.4702 162.32 49.4702 165.541 49.4702C167.152 49.4702 167.152 48.4502 165.541 48.4502C156.757 48.4502 147.998 48.4502 139.214 48.4502C125.22 48.4502 111.226 48.4502 97.2069 48.4502C93.9852 48.4502 90.7384 48.4502 87.5167 48.4502C85.9059 48.4502 85.9059 49.4702 87.5167 49.4702Z" fill="#17A441"/>
<path d="M112.594 76.4892C118.598 76.4892 124.586 76.4892 130.59 76.4892C140.155 76.4892 149.721 76.4892 159.304 76.4892C161.506 76.4892 163.725 76.4892 165.927 76.4892C167.029 76.4892 167.029 75.4692 165.927 75.4692C159.923 75.4692 153.936 75.4692 147.932 75.4692C138.366 75.4692 128.801 75.4692 119.218 75.4692C117.016 75.4692 114.796 75.4692 112.594 75.4692C111.493 75.4692 111.493 76.4892 112.594 76.4892Z" fill="#17A441"/>
<path d="M112.594 84.6484C118.598 84.6484 124.586 84.6484 130.59 84.6484C140.155 84.6484 149.721 84.6484 159.304 84.6484C161.506 84.6484 163.725 84.6484 165.927 84.6484C167.029 84.6484 167.029 83.6284 165.927 83.6284C159.923 83.6284 153.936 83.6284 147.932 83.6284C138.366 83.6284 128.801 83.6284 119.218 83.6284C117.016 83.6284 114.796 83.6284 112.594 83.6284C111.493 83.6284 111.493 84.6484 112.594 84.6484Z" fill="#17A441"/>
<path d="M165.527 105.57H144.55C143.879 105.57 143.332 104.986 143.332 104.269V97.6904C143.332 96.9733 143.879 96.3896 144.55 96.3896H165.534C166.206 96.3896 166.752 96.9733 166.752 97.6904V104.269C166.744 104.986 166.198 105.57 165.527 105.57Z" fill="#17A441"/>
<path fill-rule="evenodd" clip-rule="evenodd" d="M97.0153 100.72C96.7623 100.634 96.527 100.562 96.2791 100.492C96.0312 100.422 95.8086 100.365 95.5708 100.305L94.8498 100.134C93.6735 99.8574 92.4517 99.5855 91.3664 99.0236C90.8598 98.7834 90.3989 98.4529 90.0055 98.0473C89.6235 97.6123 89.6159 97.0297 89.6083 96.4755C89.6043 95.7697 89.6988 95.0668 89.8891 94.3884C90.8904 93.4612 91.7259 92.3624 92.3581 91.1412C92.5942 90.7113 92.81 90.2668 93.0057 89.8076C93.8228 90.1416 94.5513 89.1809 95.0041 88.6345C95.8488 87.6098 96.4027 86.3675 96.6054 85.0429C96.7218 84.2479 96.9039 82.9118 96.0261 82.4146C95.3988 82.0624 94.7891 82.3084 94.3439 82.7331C94.9763 79.1855 95.2267 75.3194 93.7064 71.9401C93.0765 70.5418 92.1178 69.1486 90.7138 68.3511C90.045 67.981 89.3301 67.7057 88.5888 67.5328C88.1234 67.4215 87.6503 67.3412 87.1773 67.2739C86.5244 67.181 85.8821 67.0223 85.2597 66.8C85.1839 66.7741 83.9418 66.2484 84.1517 66.7663C84.2619 67.024 84.4002 67.2681 84.5641 67.494C84.6906 67.6752 84.9612 67.9238 84.9967 68.1413C84.6197 68.2475 84.1922 68.0766 83.8203 68.0015C83.3625 67.9083 82.9096 67.784 82.4619 67.6441C82.1912 67.5587 81.9205 67.4732 81.6549 67.3697C81.5208 67.3179 81.111 67.0201 81.0351 67.3075C80.9795 67.5276 81.1844 67.7063 81.3134 67.8487C81.402 67.9445 81.7713 68.3045 81.4298 68.32C80.7856 68.315 80.1475 68.4464 79.5553 68.7059C78.9738 68.9847 78.4566 69.3862 78.0374 69.8841C77.602 70.4211 77.2324 71.0107 76.937 71.6398C76.889 71.7381 76.8409 71.8391 76.7954 71.9375C75.2775 75.3168 75.5305 79.1881 76.1579 82.7305C75.7126 82.3058 75.103 82.0598 74.4756 82.412C73.5978 82.9092 73.78 84.2454 73.8963 85.0404C74.0991 86.365 74.6529 87.6073 75.4976 88.632C75.9504 89.1783 76.679 90.139 77.4961 89.805C77.6934 90.2625 77.9093 90.707 78.1437 91.1386C78.7822 92.3664 79.6265 93.4699 80.638 94.3987C80.7493 94.4971 80.7796 94.9943 80.8049 95.1445C80.8558 95.4288 80.8905 95.7158 80.9087 96.0042C80.9268 96.3306 80.9183 96.658 80.8834 96.983C80.8656 97.1565 80.8707 97.6693 80.7518 97.8039C78.9608 99.8755 75.9074 99.8755 73.4587 100.748C73.441 100.755 73.4247 100.766 73.4106 100.779C73.489 100.707 73.9166 100.738 74.0228 100.725C74.2429 100.699 74.4605 100.665 74.6805 100.629C75.0752 100.564 75.4673 100.492 75.8569 100.406C76.7169 100.217 77.5568 100.147 78.3866 99.8108C79.1913 99.5113 79.9311 99.0539 80.5646 98.4642C80.7148 99.4842 81.3432 100.364 82.2469 100.821C83.9494 101.753 86.0692 101.693 87.8755 101.124C88.0256 101.077 88.1706 101.015 88.308 100.937C88.7743 100.752 89.1807 100.437 89.4818 100.028C89.6582 99.8093 89.8038 99.5661 89.9144 99.3058C89.9686 99.1724 90.0052 99.0322 90.0232 98.8889C90.0568 98.7563 90.0507 98.6165 90.0055 98.4875C90.1654 98.6046 90.3168 98.7336 90.4583 98.8734C90.6812 99.0564 90.9181 99.221 91.1666 99.3654C91.59 99.6141 92.0345 99.8229 92.4947 99.9894C93.2876 100.273 94.1049 100.48 94.9358 100.606C95.3507 100.67 95.7681 100.717 96.188 100.748C96.3171 100.748 97.1063 100.702 97.1696 100.821C97.1347 100.766 97.0785 100.729 97.0152 100.72L97.0153 100.72ZM94.1791 83.3702C94.1926 83.362 94.2046 83.3515 94.2146 83.3391C94.68 82.7306 95.8133 82.2282 96.2156 83.264C96.3294 83.554 96.2788 84.0745 96.256 84.3956C96.2061 85.0265 96.0672 85.6466 95.8437 86.2368C95.62 86.8351 95.3179 87.3996 94.9456 87.9147C94.7053 88.2462 93.7516 89.5798 93.2027 89.3286C93.9571 87.4762 94.2885 85.472 94.1716 83.4686C94.1766 83.4453 94.1766 83.4142 94.1791 83.3702L94.1791 83.3702ZM75.5774 87.9247C75.2052 87.4096 74.9031 86.8451 74.6794 86.2467C74.4559 85.6566 74.317 85.0365 74.267 84.4056C74.2443 84.0845 74.1937 83.564 74.3075 83.274C74.7097 82.2382 75.843 82.7406 76.3085 83.3491C76.3184 83.3615 76.3304 83.372 76.3439 83.3802C76.3439 83.4138 76.3439 83.4449 76.3439 83.4786C76.227 85.4819 76.5584 87.4862 77.3128 89.3386C76.7613 89.5846 75.8076 88.2561 75.5774 87.9247H75.5774ZM80.8143 93.9221C79.7791 92.9548 78.9223 91.8049 78.2846 90.5273C76.8325 87.7592 76.5138 84.543 76.8199 81.4641C76.8932 80.7598 76.9691 80.0529 77.0728 79.3537C77.2499 78.2299 77.3992 76.6295 78.2795 75.7854C79.3445 74.7496 80.6827 75.7543 81.8514 76.1065C81.2682 76.7294 80.6417 77.3084 79.9769 77.8388C79.8074 77.9709 79.9491 78.2739 80.1464 78.2635C81.3915 78.1927 82.6208 77.9452 83.7993 77.5281C83.6273 77.5902 83.4705 77.9554 83.3769 78.1029C83.2833 78.2505 83.1745 78.7141 83.5463 78.6209C84.8577 78.2582 86.1419 77.7996 87.389 77.2484C88.0156 76.9674 88.6278 76.6537 89.223 76.3084C89.7289 76.0184 90.2905 75.4435 90.8648 75.3659C91.3664 75.2854 91.8764 75.4448 92.2485 75.7983C93.1289 76.6425 93.2781 78.2428 93.4552 79.3666C93.612 80.3455 93.7082 81.3295 93.7992 82.3135C93.7992 82.3135 93.7992 82.3135 93.7992 82.329C93.908 85.2137 93.6297 87.9223 92.2536 90.548C91.6159 91.8257 90.759 92.9755 89.7239 93.9428C89.0923 94.4894 88.3579 94.8975 87.566 95.1417C86.3961 95.5386 85.1464 95.6224 83.9359 95.3852C82.7836 95.1908 81.7027 94.6858 80.8042 93.9221L80.8143 93.9221ZM89.4838 99.0588C89.4657 99.1612 89.4315 99.26 89.3826 99.3513C89.1119 99.8693 88.4946 100.237 87.9938 100.462C87.1355 100.849 86.2068 101.044 85.2693 101.034C84.8145 101.032 84.361 100.983 83.9159 100.887C83.2088 100.76 82.5346 100.486 81.9351 100.082C81.5844 99.8561 81.3029 99.5339 81.1231 99.152C80.9283 98.66 81.1585 98.2094 81.2673 97.7277C81.3776 97.2022 81.4074 96.6624 81.3558 96.1275C81.3305 95.8271 81.3558 94.9518 81.075 94.7524C81.0921 94.7639 81.1082 94.7769 81.1231 94.7913C81.7894 95.2604 82.5334 95.6016 83.3189 95.7986C85.3426 96.3346 87.6573 96.0575 89.3902 94.7939C89.405 94.7795 89.4211 94.7665 89.4382 94.755C89.2966 94.8586 89.246 95.4982 89.2156 95.6743C89.1546 96.016 89.1233 96.3626 89.122 96.71C89.121 97.0637 89.1635 97.416 89.2485 97.7588C89.3623 98.1705 89.5521 98.6289 89.4736 99.0587L89.4838 99.0588Z" fill="#17A441"/>
<path fill-rule="evenodd" clip-rule="evenodd" d="M93.3555 63.62H77.2294C70.3634 63.62 64.7974 69.1956 64.7974 76.0735V92.2274C64.7974 99.1053 70.3634 104.681 77.2294 104.681H93.3555C100.222 104.681 105.787 99.1053 105.787 92.2274V76.0735C105.787 69.1956 100.222 63.62 93.3555 63.62ZM77.2294 62.7305C69.873 62.7305 63.9094 68.7043 63.9094 76.0735V92.2274C63.9094 99.5966 69.873 105.57 77.2294 105.57H93.3555C100.712 105.57 106.675 99.5966 106.675 92.2274V76.0735C106.675 68.7043 100.712 62.7305 93.3555 62.7305H77.2294Z" fill="#17A441"/>
</g>
<defs>
<filter id="filter0_d_170_2314" x="0" y="0" width="230" height="161" filterUnits="userSpaceOnUse" color-interpolation-filters="sRGB">
<feFlood flood-opacity="0" result="BackgroundImageFix"/>
<feColorMatrix in="SourceAlpha" type="matrix" values="0 0 0 0 0 0 0 0 0 0 0 0 0 0 0 0 0 0 127 0" result="hardAlpha"/>
<feOffset dy="4"/>
<feGaussianBlur stdDeviation="2"/>
<feComposite in2="hardAlpha" operator="out"/>
<feColorMatrix type="matrix" values="0 0 0 0 0 0 0 0 0 0 0 0 0 0 0 0 0 0 0.25 0"/>
<feBlend mode="normal" in2="BackgroundImageFix" result="effect1_dropShadow_170_2314"/>
<feBlend mode="normal" in="SourceGraphic" in2="effect1_dropShadow_170_2314" result="shape"/>
</filter>
</defs>
</svg>
