<svg id="Icon_128E" data-name="Icon 128E" xmlns="http://www.w3.org/2000/svg" width="75.701" height="120" viewBox="0 0 75.701 120">
  <path id="Path_8485" data-name="Path 8485" d="M487.44,756.25c4.23.18,8.14.61,12.41.28a.47.47,0,0,1,.15.92c-4,.82-8.84,1.06-12.72-.23C486.72,757,486.74,756.22,487.44,756.25Z" transform="translate(-437.909 -674.75)" fill="#fff"/>
  <path id="Path_8486" data-name="Path 8486" d="M493.54,760.4a23.8,23.8,0,0,0,2.41-.15c1-.11,1.38.34.44.48a16.751,16.751,0,0,1-5.12.22c-.4-.09-.29-.33.14-.42a12.312,12.312,0,0,1,2.13-.13Z" transform="translate(-437.675 -675.144)" fill="#fff"/>
  <path id="Path_8487" data-name="Path 8487" d="M497.53,749.21A10,10,0,0,1,501,746.9c2.38-1,4-2,1.43-4.37-2.29-2.1-4.87-4-4.85-7.23a.9.9,0,0,1,1.73-.21c.73,2.9,2.74,4.5,4.71,6.65.81.88,1.91,2,1.83,3.28-.17,2.89-5.72,3.32-7.51,5C497.81,750.46,497,749.72,497.53,749.21Z" transform="translate(-440.134 -673.074)" fill="#fff"/>
  <path id="Path_8488" data-name="Path 8488" d="M477.16,728.62a2.432,2.432,0,0,1,.77.1,2.88,2.88,0,0,1,2.24,1.4,2.65,2.65,0,0,1-.77,3.47l-.26.16-.14.09a2.85,2.85,0,0,1-2.94-.15h-.05a2.78,2.78,0,0,1-1.29-3A2.67,2.67,0,0,1,477.16,728.62Z" transform="translate(-435.544 -671.582)" fill="#fff"/>
  <path id="Path_8489" data-name="Path 8489" d="M505.36,733.69a2.85,2.85,0,0,1-2.94.15l-.14-.09a2.25,2.25,0,0,1-.26-.16,2.66,2.66,0,0,1-.78-3.47,2.9,2.9,0,0,1,2.24-1.4,2.472,2.472,0,0,1,.77-.1,2.66,2.66,0,0,1,2.44,2,2.77,2.77,0,0,1-1.28,3Z" transform="translate(-440.134 -671.582)" fill="#fff"/>
  <path id="Path_8490" data-name="Path 8490" d="M500.9,720.11c-.82,0-1-1.22-.22-1.34a9.1,9.1,0,0,1,5.07.58c1.31.57,3.3,1.72,3.29,3.23a.66.66,0,0,1-.86.6c-1.17-.34-1.9-1.48-3-2.08A7.92,7.92,0,0,0,500.9,720.11Z" transform="translate(-440.134 -670.269)" fill="#fff"/>
  <path id="Path_8491" data-name="Path 8491" d="M475.28,719.35a9.1,9.1,0,0,1,5.07-.58c.8.12.6,1.38-.22,1.34a7.92,7.92,0,0,0-4.31,1c-1.07.6-1.8,1.74-3,2.08a.66.66,0,0,1-.86-.6C472,721.07,474,719.92,475.28,719.35Z" transform="translate(-435.409 -670.269)" fill="#fff"/>
  <path id="Path_8492" data-name="Path 8492" d="M437.2,768.11c-2.426,1.415-5.089,2.364-7.5,3.814a6.156,6.156,0,0,1,1.477-.237c.483-.088.958-.193,1.433-.308a27.249,27.249,0,0,0,2.777-.826,31.724,31.724,0,0,0,6.328-2.971,17.516,17.516,0,0,0,2.584-2.2c-.984.949-.879,3.261-.527,4.447.949,3.208,4,5.581,6.574,7.444,4.28,3.094,8.666,5.932,14.132,6.055,3.559.079,8.174-.765,10.476-3.762,1.512-1.96,1.5-4.342,1.019-6.723a56.146,56.146,0,0,0,9.931,4.394c3.516,1.09,7.093,1.758,10.652,2.5a24.041,24.041,0,0,1,3.8.879c-3.779-1.538-7.8-2.637-11.61-4.043-4.447-1.679-8.789-3.718-13.183-5.423-.431-1.564-.958-3.094-1.274-4.684-.044-.22-.272-2.294-.308-2.294,5.9,1.169,11.961.211,16.6-4.14a25.55,25.55,0,0,0,6.961-10.142c2.162-5.932,2.962-12.515,3.665-18.764q.316-2.847.518-5.7c.22-3.023.334-6.055.36-9.088a9.969,9.969,0,0,1,.1-2.171,10.287,10.287,0,0,1,.677-1.977,29.815,29.815,0,0,0,1.406-4.016,37.461,37.461,0,0,0,1.09-7.708,52.532,52.532,0,0,0-.229-7.62c-.439-4.342-1.116-10.942-4.517-14.3a8.085,8.085,0,0,0,4.544-2.856.615.615,0,0,0-.431-1.028c-4.482-.483-8.789-1-13.025-2.637-3.1-1.169-6.047-3.4-9.448-3.515.07-.176.149-.343.211-.5a14.858,14.858,0,0,0,.8-3.331c.07-.422.229-1.063-.281-1.283-.685-.308-1.758.756-2.25,1.134a19.963,19.963,0,0,1-3.436,2.285,10.766,10.766,0,0,1-2.935.923.809.809,0,0,0-.325.123c.193-.554.563-1.09.782-1.661a7.6,7.6,0,0,0,.475-1.7c.3-1.872-4.553-.211-5.273-.07-1.354.272-2.707.51-4.06.747a45.7,45.7,0,0,0-11.794,3.287,32.6,32.6,0,0,0-12.568,10.8,33.864,33.864,0,0,0-5.607,17.991,95.558,95.558,0,0,0,.369,11.548c.229,3.023.492,5.95,1.846,8.7-2.637,1.38-2.716,5.458-2.54,7.91a26.2,26.2,0,0,0,2.637,9.668,17.525,17.525,0,0,0,3.419,4.843,11.843,11.843,0,0,0,2.276,1.758,11.42,11.42,0,0,0,1.274.633,4.457,4.457,0,0,1,1.415.563,1.127,1.127,0,0,1,.2.325c1.389,2.856,1.187,6.152.747,9.219a78.988,78.988,0,0,1-1.556,8.209,4.676,4.676,0,0,1-1.213,2.391,27.18,27.18,0,0,1-2.408,1.714C440.739,765.975,438.981,767.064,437.2,768.11Zm8.121-.659a10.714,10.714,0,0,1,.756-2,23.291,23.291,0,0,0,1.2-3.4,52.663,52.663,0,0,0,1.3-6.934c.545-4.1,1.257-8.341-.773-12.093a.984.984,0,0,0,.229-.07,2.891,2.891,0,0,0,.923-.387,2.769,2.769,0,0,0,1.186-2.32.448.448,0,0,0-.879-.114,1.916,1.916,0,0,1-1.028,1.2,2.065,2.065,0,0,1-1.415,0,17.189,17.189,0,0,1-8.525-10.212,20.5,20.5,0,0,1-1.125-8.472c.255-2.355,1.591-4.676,4.649-3.885a6.9,6.9,0,0,1,2.856,1.89,28.314,28.314,0,0,0,3.023,2.5,41,41,0,0,0,4.649,2.637.642.642,0,0,0,.879-.879c-4.6-9.879-7.189-25.1,4.122-31.727,5.757-3.366,12.216-.167,17.5,2.733,4.271,2.355,7.91,5.678,12.647,7.189a.615.615,0,0,0,.756-.747c-.281-.791-.562-1.573-.879-2.364a23.509,23.509,0,0,0,10.406,5.37.694.694,0,0,0,.782-1.011,34.913,34.913,0,0,1-1.564-4.219,11.285,11.285,0,0,1,3.3,5.273,25.049,25.049,0,0,1,.527,4.658,56.1,56.1,0,0,1-.255,6.873c-.158,2.32-.281,4.649-.431,6.969-.2,3.006-.431,6.012-.8,9-1.239,10.265-3.164,22.851-13.456,28.071-6.372,3.243-13.886,1.2-20.126-1.881a62.621,62.621,0,0,1-5.844-3.3,14.659,14.659,0,0,1-4.271-3.744,29.471,29.471,0,0,0,6.653,6.846,30.2,30.2,0,0,0,10.441,4.939,23.263,23.263,0,0,0,1.046,8.138c.527,2.039.879,4.28-.343,6.152-2.382,3.516-8.314,3.885-12.155,3.076h-.237c-5.335-1.2-9.527-4.9-13.35-8.569C446.293,771.239,444.9,769.552,445.318,767.451Z" transform="translate(-429.7 -663.337)" fill="#fff"/>
</svg>
