<svg id="Icon_128C" data-name="Icon 128C" xmlns="http://www.w3.org/2000/svg" width="81.888" height="120" viewBox="0 0 81.888 120">
  <path id="Path_8461" data-name="Path 8461" d="M90.66,764.24a27.584,27.584,0,0,1-2.79-.16c-1.14-.1-1.59.34-.51.48a22.441,22.441,0,0,0,5.93.23c.47-.09.33-.33-.17-.42a16.319,16.319,0,0,0-2.46-.13Z" transform="translate(-51.037 -676.018)" fill="#fff"/>
  <path id="Path_8462" data-name="Path 8462" d="M106.63,728.83a2.433,2.433,0,0,0-.77.11,2.9,2.9,0,0,0-2.24,1.39,2.67,2.67,0,0,0,.78,3.48l.26.15a.858.858,0,0,0,.14.1,2.85,2.85,0,0,0,2.94-.16h.05a2.78,2.78,0,0,0,1.28-3,2.68,2.68,0,0,0-2.44-2.07Z" transform="translate(-52.981 -672.27)" fill="#fff"/>
  <path id="Path_8463" data-name="Path 8463" d="M89.51,750.83c.36.49.88-.25.55-.76a7.41,7.41,0,0,0-2.31-2.32c-1.57-1-2.66-2-1-4.36,1.53-2.1,3.24-4,3.22-7.23,0-.9-1-1.13-1.15-.21-.48,2.9-1.81,4.5-3.12,6.64a6.1,6.1,0,0,0-1.21,3.29C84.65,748.77,88.33,749.2,89.51,750.83Z" transform="translate(-50.699 -673.743)" fill="#fff"/>
  <path id="Path_8464" data-name="Path 8464" d="M89.33,762.11a24.55,24.55,0,0,0,10-1.72,35.338,35.338,0,0,0,7.83-4.24.721.721,0,0,0,.2-.23c.08.16.17.33.23.48.33.79.24,1.81.82,2.46a.56.56,0,0,0,.76,0c1-.94.21-3-.42-4-.75-1.12-2-2.3-3.46-1.9-.72.19-.49,1.14.17,1.22a2.109,2.109,0,0,1,1.3.8.52.52,0,0,0-.19.06c-6.19,3.41-13,5.29-19.72,4.32A37.588,37.588,0,0,1,76.11,756a2.45,2.45,0,0,1,1-1,.58.58,0,0,0-.15-1.14c-1.33-.1-2.28,1-2.84,2.13-.41.8-1.08,2.82.27,3.1a.55.55,0,0,0,.67-.38,13.549,13.549,0,0,1,.42-1.61,32.259,32.259,0,0,0,11.68,4.77,19.239,19.239,0,0,0,2.17.24Z" transform="translate(-51.176 -675.415)" fill="#fff"/>
  <path id="Path_8465" data-name="Path 8465" d="M76.23,734.06l.14-.1.26-.15a2.68,2.68,0,0,0,.78-3.48,2.91,2.91,0,0,0-2.24-1.39,2.469,2.469,0,0,0-.77-.11,2.68,2.68,0,0,0-2.44,2,2.76,2.76,0,0,0,1.28,3h.05a2.85,2.85,0,0,0,2.94.23Z" transform="translate(-49.186 -672.268)" fill="#fff"/>
  <path id="Path_8466" data-name="Path 8466" d="M77.75,720.32c.82,0,1-1.22.22-1.34a9.1,9.1,0,0,0-5.07.59c-1.31.56-3.3,1.71-3.29,3.22a.66.66,0,0,0,.86.6c1.17-.34,1.9-1.48,3-2.07A7.93,7.93,0,0,1,77.75,720.32Z" transform="translate(-49.012 -671.043)" fill="#fff"/>
  <path id="Path_8467" data-name="Path 8467" d="M104.062,773.8a11.032,11.032,0,0,1-1.463-1.268,3.964,3.964,0,0,1-.887-2.217,20.582,20.582,0,0,1-.31-2.953,25.059,25.059,0,0,1,.984-7.147,40.71,40.71,0,0,0,8.655-11.12c.816-1.463,1.57-3,2.261-4.558,2.864,1.135,5.427-2.146,7.005-4.026a24.918,24.918,0,0,0,5.613-12.29c.417-2.731,1.046-7.307-2.031-9-2.19-1.215-4.336-.372-5.9,1.091,2.217-12.157,3.1-25.4-2.235-36.959-2.208-4.788-5.56-9.559-10.49-12.3a29.379,29.379,0,0,0-7.449-2.793,48.949,48.949,0,0,0-4.948-.887A29.826,29.826,0,0,1,85.4,665.6c-.452-.186-.887-.381-1.348-.585s-.789-.426-1.188-.275l-.168.089c-1.7,1.135,2.04,4.558,2.66,5.516a3.548,3.548,0,0,1-1.055.1l-2.128-.372a50.449,50.449,0,0,1-5.808-1.428c-.949-.293-1.907-.594-2.838-.949-.47-.177-1.383-.789-1.88-.541a.523.523,0,0,0-.248.355c-.2.745.665,1.49,1.108,1.969s1.445,1.445.275,1.5a16.421,16.421,0,0,0-6.58,1.312,15.873,15.873,0,0,0-5.267,4.044,28.9,28.9,0,0,0-3.866,6c-.168.337-.337.683-.488,1.029-5.32,11.528-4.434,24.829-2.243,36.959-1.561-1.463-3.7-2.305-5.888-1.091-3.077,1.694-2.447,6.269-2.031,9a24.917,24.917,0,0,0,5.613,12.29c1.578,1.88,4.141,5.161,7.005,4.026.692,1.561,1.445,3.095,2.261,4.558a40.541,40.541,0,0,0,8.655,11.111c.168.142.231.887.284,1.091.1.417.186.825.266,1.241a23.7,23.7,0,0,1,.346,2.492A25.715,25.715,0,0,1,70.7,770a4.132,4.132,0,0,1-1.472,3.086,26.262,26.262,0,0,1-3.157,2.261,27.536,27.536,0,0,1-5.418,2.439h-.115c-3.547,1.17-7.209,1.862-10.827,2.749-.887.2-1.711.426-2.563.665a10.256,10.256,0,0,1,2.4-.071c.887,0,1.711-.08,2.563-.16a45.439,45.439,0,0,0,4.771-.692,31.776,31.776,0,0,0,4.611-1.3,15.7,15.7,0,0,0,2.279-.967,28.058,28.058,0,0,0,3.05-1.649c.39-.248,2.864-1.711,2.8-2.2a10.809,10.809,0,0,0,5.888,8.078,22.719,22.719,0,0,0,11.191,2.439c3.671-.08,7.91-.638,11.084-2.607a10.872,10.872,0,0,0,4.514-4.939c.231-.576.887-2.456.39-2.979a24.342,24.342,0,0,0,8.867,5.1c.505.186,1.02.355,1.525.523s1.144.346,1.773.505a63.742,63.742,0,0,0,13.088,1.88c-4.194-1.6-8.672-2.305-13.017-3.441A28.291,28.291,0,0,1,104.062,773.8Zm13.39-51.307a.775.775,0,0,0,.133-.115c1.632-2.084,5.6-3.8,7.014-.257a10.481,10.481,0,0,1,.133,3.875,22.577,22.577,0,0,1-1.437,6.314,24.511,24.511,0,0,1-3.157,5.737c-.842,1.144-4.177,5.7-6.11,4.842a45.224,45.224,0,0,0,3.405-20.067C117.443,722.719,117.443,722.6,117.452,722.5ZM52.214,738.051a24.19,24.19,0,0,1-3.148-5.693,22.576,22.576,0,0,1-1.437-6.314,10.481,10.481,0,0,1,.133-3.875c1.419-3.547,5.383-1.827,7.014.257a.506.506,0,0,0,.124.115v.328a45.02,45.02,0,0,0,3.405,20.067C56.4,743.752,53.1,739.195,52.214,738.051ZM70.57,758.588A40.588,40.588,0,0,1,61.7,746.962c-4.833-8.992-5.8-18.267-5.418-28.136v-.053c.346-3.37.656-6.748,1.2-10.1.63-3.849,1.144-9.329,4.23-12.219,3.733-3.547,8.424-.106,12.521,1.1a61.337,61.337,0,0,1-6.571,5.932c-.585.452-.089,1.49.6,1.454a46.742,46.742,0,0,0,12.8-2.518,11.244,11.244,0,0,1-1.7,2.3.887.887,0,0,0,.825,1.41,97.933,97.933,0,0,0,14.764-5.32,61.929,61.929,0,0,0,7.014-3.76,18.139,18.139,0,0,1,3.006-1.889,5.7,5.7,0,0,1,5.72,1.268c3.086,2.891,3.6,8.371,4.23,12.219.541,3.352.887,6.73,1.2,10.1v.053c.381,9.869-.585,19.145-5.418,28.136a40.587,40.587,0,0,1-8.867,11.625,20.918,20.918,0,0,1-7.608,4.123,25.219,25.219,0,0,1-12.725.807,22.984,22.984,0,0,1-10.916-4.9Zm30.566,17.371c-.541,2.314-3.334,4.115-5.4,5.028a23.1,23.1,0,0,1-9.559,1.96,24.41,24.41,0,0,1-4.744-.5c-3.361-.692-6.349-1.827-8.344-4.78a8.219,8.219,0,0,1-1.312-2.909,6.057,6.057,0,0,1,.355-2.971,14.241,14.241,0,0,0,.452-3.618,19.349,19.349,0,0,0-.293-3.432c-.106-.63-.284-2.926-.807-3.307l.168.133A23.266,23.266,0,0,0,79.322,765a24.65,24.65,0,0,0,11.022.576,25.413,25.413,0,0,0,10.348-4.008l.168-.133c-.5.364-.674,2.554-.78,3.148a20.236,20.236,0,0,0-.319,3.547,14.09,14.09,0,0,0,.435,3.6,10.141,10.141,0,0,0,.647,1.773,3.689,3.689,0,0,1,.3,2.456Z" transform="translate(-46.063 -664.694)" fill="#fff"/>
  <path id="Path_8468" data-name="Path 8468" d="M103.66,720.32a8,8,0,0,1,4.32,1c1.06.59,1.8,1.73,3,2.07a.65.65,0,0,0,.85-.6c0-1.51-2-2.66-3.29-3.22a9.06,9.06,0,0,0-5.06-.59C102.65,719.1,102.84,720.36,103.66,720.32Z" transform="translate(-53.19 -671.043)" fill="#fff"/>
</svg>
