<svg xmlns="http://www.w3.org/2000/svg" width="145.734" height="149.115" viewBox="0 0 145.734 149.115">
  <g id="Group_1235" data-name="Group 1235" transform="translate(-936.985 -1542.385)">
    <path id="Path_7167" data-name="Path 7167" d="M1079.836,1643.411c-6.364-16.192-25.966-25.9-42.569-19.477-19.518,7.554-12.316,37.355-29.882,43.575-9.3,3.293-23.045-9.007-32.44-10.893-17.312-3.476-32.984,8.739-36.843,25.656-3.937,17.257,2.378,40.307,21.338,44.991,22.586,5.579,34.351-14.724,53.3-20.554,19.444-5.983,41.063,8.147,57.159-9.045C1081.789,1684.963,1086.137,1659.445,1079.836,1643.411Z" transform="translate(0 -56.904)" fill="#f49c55" opacity="0.4" style="isolation: isolate"/>
    <path id="Path_7168" data-name="Path 7168" d="M1356.4,1904.357l-6.962-7.369a1.423,1.423,0,0,0-2.069,0l-6.959,7.369a1.421,1.421,0,0,0,1.033,2.4h3.453v10.89a1.422,1.422,0,0,0,1.423,1.423h4.173a1.424,1.424,0,0,0,1.423-1.423v-10.89h3.453a1.422,1.422,0,0,0,1.033-2.4Z" transform="translate(-288.317 -253.351)" fill="#ee7b0f" opacity="0.58" style="isolation: isolate"/>
    <path id="Path_7169" data-name="Path 7169" d="M1358.412,1886.357l6.96-7.369a1.422,1.422,0,0,1,2.069,0l6.962,7.369a1.422,1.422,0,0,1-1.033,2.4h-3.453v10.89a1.424,1.424,0,0,1-1.423,1.423h-4.173a1.422,1.422,0,0,1-1.423-1.423v-10.89h-3.453a1.421,1.421,0,0,1-1.033-2.4Z" transform="translate(-301.193 -240.474)" fill="#ee7b0f"/>
    <path id="Path_7170" data-name="Path 7170" d="M1371.87,1881.8l-6.962-7.369a2.846,2.846,0,0,0-4.138,0l-6.962,7.37a2.846,2.846,0,0,0,2.069,4.8h2.028v9.466a2.85,2.85,0,0,0,2.846,2.846h4.175a2.85,2.85,0,0,0,2.846-2.846V1886.6h2.029a2.846,2.846,0,0,0,2.069-4.8Zm-5.521,1.955a1.423,1.423,0,0,0-1.423,1.423v10.889h-4.175v-10.889a1.423,1.423,0,0,0-1.423-1.423h-3.451l6.962-7.37,6.962,7.37Z" transform="translate(-297.624 -236.896)" fill="#6f6f6e"/>
    <path id="Path_7171" data-name="Path 7171" d="M1130.95,1719.735h-53.626a8.528,8.528,0,0,1-8.539-8.539V1602.835a8.527,8.527,0,0,1,8.539-8.539h53.654a8.528,8.528,0,0,1,8.539,8.539V1711.2A8.57,8.57,0,0,1,1130.95,1719.735Z" transform="translate(-94.285 -37.135)" fill="#ee7b0f" opacity="0.66" style="isolation: isolate"/>
    <path id="Path_7172" data-name="Path 7172" d="M1130.95,1695.735h-53.626a8.528,8.528,0,0,1-8.539-8.539V1578.835a8.527,8.527,0,0,1,8.539-8.539h53.654a8.528,8.528,0,0,1,8.539,8.539V1687.2A8.57,8.57,0,0,1,1130.95,1695.735Z" transform="translate(-94.285 -19.967)" fill="#ee7b0f" opacity="0.75" style="isolation: isolate"/>
    <path id="Path_7173" data-name="Path 7173" d="M1068.785,1613.2h70.732v101.017h-70.732Z" transform="translate(-94.285 -50.656)" fill="#fff"/>
    <path id="Path_7174" data-name="Path 7174" d="M1127.373,1693.582h-53.625a9.973,9.973,0,0,1-9.962-9.962V1575.258a9.973,9.973,0,0,1,9.962-9.962H1127.4a9.973,9.973,0,0,1,9.962,9.962v108.361A10.016,10.016,0,0,1,1127.373,1693.582Zm-53.625-125.439a7.119,7.119,0,0,0-7.116,7.116v108.361a7.118,7.118,0,0,0,7.116,7.116H1127.4a7.118,7.118,0,0,0,7.116-7.116V1575.258a7.118,7.118,0,0,0-7.116-7.116Z" transform="translate(-90.708 -16.39)" fill="#6f6f6e"/>
    <g id="Group_1231" data-name="Group 1231" transform="translate(1003.447 1555.282)">
      <path id="Path_7175" data-name="Path 7175" d="M1181.87,1590.542h-9.962a1.423,1.423,0,1,1,0-2.846h9.962a1.423,1.423,0,1,1,0,2.846Z" transform="translate(-1170.485 -1587.696)" fill="#6f6f6e"/>
    </g>
    <circle id="Ellipse_517" data-name="Ellipse 517" cx="1.423" cy="1.423" r="1.423" transform="translate(1020.042 1555.282)" fill="#6f6f6e"/>
    <circle id="Ellipse_518" data-name="Ellipse 518" cx="4.725" cy="4.725" r="4.725" transform="translate(983.238 1592.57)" fill="#ee7b0f"/>
    <g id="Group_1232" data-name="Group 1232" transform="translate(997.84 1592.57)">
      <circle id="Ellipse_519" data-name="Ellipse 519" cx="4.725" cy="4.725" r="4.725" transform="translate(0 0)" fill="#f49c55"/>
      <circle id="Ellipse_520" data-name="Ellipse 520" cx="4.725" cy="4.725" r="4.725" transform="translate(14.573 0)" fill="#f49c55"/>
      <circle id="Ellipse_521" data-name="Ellipse 521" cx="4.725" cy="4.725" r="4.725" transform="translate(29.175 0)" fill="#f49c55"/>
    </g>
    <path id="Path_7176" data-name="Path 7176" d="M1002.955,1654.337a4.07,4.07,0,1,1,4.07-4.07A4.069,4.069,0,0,1,1002.955,1654.337Zm0-5.294a1.224,1.224,0,1,0,1.224,1.224A1.215,1.215,0,0,0,1002.955,1649.042Z" transform="translate(-44.281 -74.263)" fill="#ee7b0f" opacity="0.4" style="isolation: isolate"/>
    <path id="Path_7177" data-name="Path 7177" d="M1353.539,1669.3a1.409,1.409,0,0,1-1.423-1.423,1.713,1.713,0,0,0-1.708-1.708,1.423,1.423,0,1,1,0-2.846,1.713,1.713,0,0,0,1.708-1.708,1.423,1.423,0,1,1,2.846,0,1.713,1.713,0,0,0,1.708,1.708,1.423,1.423,0,1,1,0,2.846,1.713,1.713,0,0,0-1.708,1.708A1.427,1.427,0,0,1,1353.539,1669.3Z" transform="translate(-294.73 -84.278)" fill="#ee7b0f" opacity="0.58" style="isolation: isolate"/>
    <path id="Path_7178" data-name="Path 7178" d="M1016.039,1921.552a1.409,1.409,0,0,1-1.423-1.423,1.713,1.713,0,0,0-1.708-1.708,1.423,1.423,0,1,1,0-2.846,1.713,1.713,0,0,0,1.708-1.708,1.423,1.423,0,0,1,2.846,0,1.713,1.713,0,0,0,1.708,1.708,1.423,1.423,0,1,1,0,2.846,1.713,1.713,0,0,0-1.708,1.708A1.427,1.427,0,0,1,1016.039,1921.552Z" transform="translate(-53.295 -264.727)" fill="#ee7b0f" opacity="0.8" style="isolation: isolate"/>
    <rect id="Rectangle_664" data-name="Rectangle 664" width="5.693" height="16.31" transform="translate(975.923 1571.99)" fill="#f49c55"/>
    <rect id="Rectangle_665" data-name="Rectangle 665" width="5.693" height="16.31" transform="translate(1038.116 1571.905)" fill="#f49c55"/>
    <path id="Path_7179" data-name="Path 7179" d="M1152.761,1662.692h-45.6a2.284,2.284,0,0,1-2.277-2.277v-11.642a2.284,2.284,0,0,1,2.277-2.277h45.6a2.284,2.284,0,0,1,2.277,2.277v11.642A2.284,2.284,0,0,1,1152.761,1662.692Z" transform="translate(-120.11 -74.477)" fill="#ee7b0f"/>
    <path id="Path_7180" data-name="Path 7180" d="M1296.644,1956.022h-4.31a.988.988,0,1,1,0-1.976h4.31a.988.988,0,0,1,0,1.976Z" transform="translate(-253.497 -294.487)" fill="#fff"/>
    <path id="Path_7181" data-name="Path 7181" d="M1214.486,2022.994h-.642v-.642a.988.988,0,0,0-1.976,0v.642h-.642a.988.988,0,0,0,0,1.976h.642v.642a.988.988,0,0,0,1.976,0v-.642h.642a.988.988,0,1,0,0-1.976Z" transform="translate(-195.475 -342.644)" fill="#ee7b0f"/>
    <path id="Path_7182" data-name="Path 7182" d="M1229.138,2051.757a2.886,2.886,0,1,1,2.757-2.029A2.873,2.873,0,0,1,1229.138,2051.757Zm0-3.8a.91.91,0,1,0,.27.041A.911.911,0,0,0,1229.14,2047.962Zm1.812,1.473h0Z" transform="translate(-206.933 -360.258)" fill="#ee7b0f" opacity="0.7"/>
    <path id="Path_7183" data-name="Path 7183" d="M1313.767,1602.193a13.192,13.192,0,1,1-26.384,0,12.961,12.961,0,0,1,.121-1.775h26.142a12.864,12.864,0,0,1,.121,1.775Z" transform="translate(-250.662 -41.515)" fill="#ee7b0f"/>
    <circle id="Ellipse_522" data-name="Ellipse 522" cx="13.191" cy="13.191" r="13.191" transform="translate(1036.722 1542.444)" fill="#fff"/>
    <g id="Group_1233" data-name="Group 1233" transform="translate(1036.663 1542.385)">
      <path id="Path_7184" data-name="Path 7184" d="M1300.432,1568.886a13.251,13.251,0,1,1,13.251-13.251A13.266,13.266,0,0,1,1300.432,1568.886Zm0-24.433a11.182,11.182,0,1,0,11.182,11.182A11.2,11.2,0,0,0,1300.432,1544.453Z" transform="translate(-1287.181 -1542.385)" fill="#6f6f6e"/>
    </g>
    <path id="Path_7185" data-name="Path 7185" d="M1319.864,1562.977h0a1.679,1.679,0,0,1-1.189-.493l-3.838-3.841a1.681,1.681,0,1,1,2.378-2.376l2.649,2.652,13.418-13.421a1.681,1.681,0,0,1,2.377,2.377l-14.607,14.61a1.682,1.682,0,0,1-1.189.492Z" transform="translate(-269.95 -1.875)" fill="#f49c55"/>
    <path id="Path_7186" data-name="Path 7186" d="M1097.257,1794.074a20.255,20.255,0,0,1-22.813,20.081v-40.162a20.255,20.255,0,0,1,22.813,20.081Z" transform="translate(-98.333 -165.568)" fill="#ee7b0f"/>
    <circle id="Ellipse_523" data-name="Ellipse 523" cx="20.244" cy="20.244" r="20.244" transform="translate(958.437 1603.243)" fill="#f9b27d"/>
    <path id="Path_7187" data-name="Path 7187" d="M1172.679,1936.4v2.233a1.03,1.03,0,0,1-1.03,1.03h-1.85a1.03,1.03,0,0,1-1.03-1.03V1936.4a1.03,1.03,0,0,1,1.03-1.03h1.85A1.03,1.03,0,0,1,1172.679,1936.4Z" transform="translate(-165.811 -281.131)" fill="#f9b27d"/>
    <path id="Path_7188" data-name="Path 7188" d="M1195.306,1925.551v5.322a1.03,1.03,0,0,1-1.03,1.03h-1.849a1.03,1.03,0,0,1-1.03-1.03v-5.322a1.03,1.03,0,0,1,1.03-1.03h1.849A1.03,1.03,0,0,1,1195.306,1925.551Z" transform="translate(-181.997 -273.366)" fill="#f9b27d"/>
    <path id="Path_7189" data-name="Path 7189" d="M1150.053,1936.4v2.233a1.03,1.03,0,0,1-1.03,1.03h-1.849a1.03,1.03,0,0,1-1.03-1.03V1936.4a1.03,1.03,0,0,1,1.03-1.03h1.849A1.03,1.03,0,0,1,1150.053,1936.4Z" transform="translate(-149.625 -281.131)" fill="#f9b27d"/>
    <path id="Path_7190" data-name="Path 7190" d="M1127.426,1936.4v2.233a1.03,1.03,0,0,1-1.03,1.03h-1.849a1.03,1.03,0,0,1-1.03-1.03V1936.4a1.03,1.03,0,0,1,1.03-1.03h1.849A1.03,1.03,0,0,1,1127.426,1936.4Z" transform="translate(-133.439 -281.131)" fill="#f9b27d"/>
    <path id="Path_7191" data-name="Path 7191" d="M1104.8,1936.4v2.233a1.03,1.03,0,0,1-1.03,1.03h-1.849a1.03,1.03,0,0,1-1.03-1.03V1936.4a1.03,1.03,0,0,1,1.03-1.03h1.849A1.03,1.03,0,0,1,1104.8,1936.4Z" transform="translate(-117.253 -281.131)" fill="#ee7b0f"/>
    <path id="Path_7192" data-name="Path 7192" d="M1217.932,1918.315v7.382a1.03,1.03,0,0,1-1.03,1.03h-1.85a1.03,1.03,0,0,1-1.03-1.03v-7.382a1.03,1.03,0,0,1,1.03-1.03h1.85A1.03,1.03,0,0,1,1217.932,1918.315Z" transform="translate(-198.183 -268.19)" fill="#f9b27d"/>
    <path id="Path_7193" data-name="Path 7193" d="M1240.559,1925.551v5.322a1.03,1.03,0,0,1-1.03,1.03h-1.85a1.03,1.03,0,0,1-1.03-1.03v-5.322a1.03,1.03,0,0,1,1.03-1.03h1.85A1.03,1.03,0,0,1,1240.559,1925.551Z" transform="translate(-214.37 -273.366)" fill="#f9b27d"/>
    <path id="Path_7194" data-name="Path 7194" d="M1263.185,1907.462v10.471a1.03,1.03,0,0,1-1.03,1.03h-1.849a1.03,1.03,0,0,1-1.03-1.03v-10.471a1.03,1.03,0,0,1,1.03-1.03h1.849A1.03,1.03,0,0,1,1263.185,1907.462Z" transform="translate(-230.556 -260.426)" fill="#ee7b0f"/>
    <path id="Path_7195" data-name="Path 7195" d="M1285.812,1889.373v15.62a1.03,1.03,0,0,1-1.03,1.03h-1.849a1.03,1.03,0,0,1-1.03-1.03v-15.62a1.03,1.03,0,0,1,1.03-1.03h1.849A1.03,1.03,0,0,1,1285.812,1889.373Z" transform="translate(-246.742 -247.486)" fill="#ee7b0f"/>
    <path id="Path_7196" data-name="Path 7196" d="M1044.926,1804.108a15.337,15.337,0,1,1,15.337-15.337A15.354,15.354,0,0,1,1044.926,1804.108Zm0-27.828a12.491,12.491,0,1,0,12.491,12.491A12.5,12.5,0,0,0,1044.926,1776.28Z" transform="translate(-66.246 -165.284)" fill="#ee7b0f"/>
    <path id="Path_7197" data-name="Path 7197" d="M1070.292,1803.335h-.354v-2.657h1.7a1.423,1.423,0,0,0,0-2.846h-1.7v-.626a1.423,1.423,0,1,0-2.846,0v.626h-.354a4.175,4.175,0,0,0,0,8.35h.354v2.657h-1.7a1.423,1.423,0,0,0,0,2.846h1.7v.626a1.423,1.423,0,0,0,2.846,0v-.626h.354a4.175,4.175,0,0,0,0-8.35Zm-3.554,0a1.329,1.329,0,0,1,0-2.657h.354v2.657Zm3.554,5.5h-.354v-2.657h.354a1.328,1.328,0,0,1,0,2.657Z" transform="translate(-89.834 -181.271)" fill="#fff"/>
    <path id="Path_7198" data-name="Path 7198" d="M1213.6,1810.093a1.424,1.424,0,0,1-2.012,0l-8-8.007h-5.519a4.243,4.243,0,0,1-3.02-1.25l-5.294-5.294a1.412,1.412,0,0,0-1.007-.418h-7.033a1.414,1.414,0,0,0-1.008.418l-14.01,14.01a4.238,4.238,0,0,1-3.02,1.252H1153.4a21.056,21.056,0,0,0,1-2.846h9.268a1.412,1.412,0,0,0,1.008-.419l14.01-14.01a4.234,4.234,0,0,1,3.02-1.252h7.033a4.234,4.234,0,0,1,3.02,1.252l5.294,5.294a1.409,1.409,0,0,0,1.007.416h6.108a1.424,1.424,0,0,1,1.008.418l8.419,8.422a1.419,1.419,0,0,1,0,2.013Z" transform="translate(-154.819 -178.764)" fill="#f49c55"/>
    <path id="Path_7199" data-name="Path 7199" d="M1224.056,1751.624l-8.428,8.428a4.248,4.248,0,0,1-3.02,1.25h-19.139a1.406,1.406,0,0,0-1,.418l-4.466,4.466a4.243,4.243,0,0,1-3.02,1.25H1174.1a1.412,1.412,0,0,0-1.008.418l-3.78,3.78a4.244,4.244,0,0,1-3.02,1.25h-6.868q.047-.722.048-1.452c0-.469-.014-.934-.045-1.395h6.865a1.411,1.411,0,0,0,1.007-.418l3.78-3.78a4.243,4.243,0,0,1,3.02-1.249h10.879a1.422,1.422,0,0,0,1.008-.416l4.466-4.466a4.233,4.233,0,0,1,3.017-1.252h19.139a1.426,1.426,0,0,0,1-.416l8.428-8.428a1.424,1.424,0,1,1,2.015,2.013Z" transform="translate(-159.125 -147.945)" fill="#ee7b0f"/>
    <path id="Path_7200" data-name="Path 7200" d="M1207.855,1792.5l-12.666,12.666a4.24,4.24,0,0,1-3.02,1.252h-12.555a1.416,1.416,0,0,0-1.008.416l-3.547,3.547a4.242,4.242,0,0,1-3.017,1.25h-13.23a1.421,1.421,0,0,0-1.008.416l-2.71,2.713a4.248,4.248,0,0,1-3.02,1.25h-14.881a22.108,22.108,0,0,0,2.405-2.846h12.475a1.421,1.421,0,0,0,1.008-.416l2.71-2.713a4.248,4.248,0,0,1,3.02-1.25h13.23a1.414,1.414,0,0,0,1-.416l3.547-3.547a4.244,4.244,0,0,1,3.02-1.249h12.555a1.412,1.412,0,0,0,1.007-.419l12.667-12.666a1.423,1.423,0,0,1,2.012,2.013Z" transform="translate(-143.223 -177.184)" fill="#ee7b0f"/>
    <g id="Group_1234" data-name="Group 1234" transform="translate(957.705 1602.512)">
      <path id="Path_7201" data-name="Path 7201" d="M1030.757,1795.578a20.975,20.975,0,1,1,20.975-20.975A21,21,0,0,1,1030.757,1795.578Zm0-38.676a17.7,17.7,0,1,0,17.7,17.7A17.721,17.721,0,0,0,1030.757,1756.9Z" transform="translate(-1009.782 -1753.628)" fill="#6f6f6e"/>
    </g>
  </g>
</svg>
