<svg id="Illus17" xmlns="http://www.w3.org/2000/svg" xmlns:xlink="http://www.w3.org/1999/xlink" width="154.145" height="126.311" viewBox="0 0 154.145 126.311">
  <defs>
    <linearGradient id="linear-gradient" x1="0.5" x2="0.5" y2="1" gradientUnits="objectBoundingBox">
      <stop offset="0" stop-color="#f6b696"/>
      <stop offset="1" stop-color="#fff" stop-opacity="0"/>
    </linearGradient>
  </defs>
  <path id="Path_7660" data-name="Path 7660" d="M1071.966,2732.894c-1.749,23.472,31.309,45.125,73.839,48.362s78.425-13.166,80.174-36.637a25.14,25.14,0,0,0-1.775-11.168,30.992,30.992,0,0,1-.77-20.263,43.111,43.111,0,0,0,1.644-8.525c2.135-23.627-15.419-44.606-38.828-46.388a42.1,42.1,0,0,0-40.886,23.42,27.437,27.437,0,0,1-20.847,15.251C1095.07,2700.836,1073.319,2714.753,1071.966,2732.894Z" transform="translate(-1071.9 -2655.352)" opacity="0.4" fill="url(#linear-gradient)" style="isolation: isolate"/>
  <path id="Path_7473" data-name="Path 7473" d="M-893.822,1393.291a3.863,3.863,0,0,1-3.425-2.068,3.863,3.863,0,0,1,1.629-5.209,3.863,3.863,0,0,1,5.208,1.628,3.864,3.864,0,0,1-1.629,5.209A3.838,3.838,0,0,1-893.822,1393.291Zm1.171-1.61h0Zm-1.178-3.465a1.208,1.208,0,0,0-.563.14,1.217,1.217,0,0,0-.514,1.641,1.217,1.217,0,0,0,1.642.513,1.217,1.217,0,0,0,.513-1.641,1.207,1.207,0,0,0-.715-.6A1.225,1.225,0,0,0-893.83,1388.215Z" transform="translate(1009.085 -1350.426)" fill="#f6b696"/>
  <path id="Path_7474" data-name="Path 7474" d="M-880.97,1608.534a3.865,3.865,0,0,1-3.805-3.233,3.834,3.834,0,0,1,.672-2.876,3.833,3.833,0,0,1,2.509-1.558,3.833,3.833,0,0,1,2.875.672,3.833,3.833,0,0,1,1.558,2.509,3.833,3.833,0,0,1-.672,2.876,3.833,3.833,0,0,1-2.509,1.558A3.862,3.862,0,0,1-880.97,1608.534Zm0-5.075a1.229,1.229,0,0,0-.2.016,1.208,1.208,0,0,0-.791.491,1.209,1.209,0,0,0-.212.907,1.219,1.219,0,0,0,1.4,1,1.208,1.208,0,0,0,.791-.491,1.208,1.208,0,0,0,.212-.906,1.208,1.208,0,0,0-.491-.791,1.207,1.207,0,0,0-.707-.228Z" transform="translate(904.462 -1495.551)" fill="#ec631e" opacity="0.68"/>
  <path id="Path_7475" data-name="Path 7475" d="M-773.286,1210.173a3.83,3.83,0,0,1-2.242-.724,3.835,3.835,0,0,1-1.558-2.509,3.834,3.834,0,0,1,.673-2.876,3.832,3.832,0,0,1,2.509-1.558,3.832,3.832,0,0,1,2.876.672,3.834,3.834,0,0,1,1.558,2.509,3.833,3.833,0,0,1-.673,2.876,3.835,3.835,0,0,1-2.509,1.558A3.9,3.9,0,0,1-773.286,1210.173Zm.42-1.356h0Zm-.409-3.72a1.234,1.234,0,0,0-.2.016,1.208,1.208,0,0,0-.791.491,1.208,1.208,0,0,0-.212.906,1.207,1.207,0,0,0,.491.791,1.209,1.209,0,0,0,.907.212,1.206,1.206,0,0,0,.791-.491,1.209,1.209,0,0,0,.212-.906,1.208,1.208,0,0,0-.491-.791A1.206,1.206,0,0,0-773.276,1205.1Z" transform="translate(825.23 -1202.453)" fill="#f6b696"/>
  <path id="Path_7476" data-name="Path 7476" d="M-623.333,1412.784h-.859v-.859a1.321,1.321,0,0,0-1.321-1.321,1.321,1.321,0,0,0-1.321,1.321v.859h-.859a1.321,1.321,0,0,0-1.321,1.321,1.321,1.321,0,0,0,1.321,1.321h.859v.859a1.321,1.321,0,0,0,1.321,1.321,1.321,1.321,0,0,0,1.321-1.321v-.859h.859a1.321,1.321,0,0,0,1.321-1.321,1.321,1.321,0,0,0-1.321-1.321Z" transform="translate(736.837 -1358.008)" fill="#ec631e" opacity="0.68"/>
  <path id="Path_7477" data-name="Path 7477" d="M-908.394,1577.52h-.859v-.859a1.321,1.321,0,0,0-1.321-1.322,1.321,1.321,0,0,0-1.321,1.322v.859h-.859a1.321,1.321,0,0,0-1.321,1.321,1.321,1.321,0,0,0,1.321,1.321h.859v.859a1.321,1.321,0,0,0,1.321,1.321,1.321,1.321,0,0,0,1.321-1.321v-.859h.859a1.321,1.321,0,0,0,1.321-1.321A1.321,1.321,0,0,0-908.394,1577.52Z" transform="translate(925.982 -1476.807)" fill="#f6b696"/>
  <path id="Path_7478" data-name="Path 7478" d="M-877.477,1330.7a2.675,2.675,0,0,1-2.676-2.676,2.675,2.675,0,0,1,2.676-2.676,2.675,2.675,0,0,1,2.676,2.676A2.675,2.675,0,0,1-877.477,1330.7Zm0-3.48a.8.8,0,0,0-.8.8.8.8,0,0,0,.8.8.8.8,0,0,0,.8-.8A.8.8,0,0,0-877.477,1327.218Z" transform="translate(901.023 -1292.875)" fill="#ec631e" opacity="0.68" style="isolation: isolate"/>
  <path id="Path_7479" data-name="Path 7479" d="M-884.063,1184.545a2.675,2.675,0,0,1-2.676-2.676,2.675,2.675,0,0,1,2.676-2.676,2.675,2.675,0,0,1,2.676,2.676A2.675,2.675,0,0,1-884.063,1184.545Zm0-3.48a.8.8,0,0,0-.8.8.8.8,0,0,0,.8.8.8.8,0,0,0,.8-.8A.8.8,0,0,0-884.063,1181.065Z" transform="translate(1025.536 -1132.764)" fill="#f6b696" opacity="0.4" style="isolation: isolate"/>
  <path id="Path_7480" data-name="Path 7480" d="M-635.837,1195.095a.926.926,0,0,1-.935-.936,1.126,1.126,0,0,0-1.123-1.123.926.926,0,0,1-.936-.936.926.926,0,0,1,.936-.936,1.126,1.126,0,0,0,1.123-1.123.926.926,0,0,1,.935-.936.927.927,0,0,1,.936.936,1.126,1.126,0,0,0,1.122,1.123.927.927,0,0,1,.936.936.927.927,0,0,1-.936.936,1.126,1.126,0,0,0-1.122,1.123A.939.939,0,0,1-635.837,1195.095Z" transform="translate(766.102 -1174.178)" fill="#f6b696" opacity="0.58" style="isolation: isolate"/>
  <path id="Path_7481" data-name="Path 7481" d="M-870.574,1361.5a.927.927,0,0,1-.936-.936,1.126,1.126,0,0,0-1.122-1.123.927.927,0,0,1-.936-.936.927.927,0,0,1,.936-.936,1.126,1.126,0,0,0,1.122-1.123.927.927,0,0,1,.936-.936.926.926,0,0,1,.935.936,1.126,1.126,0,0,0,1.123,1.123.927.927,0,0,1,.936.936.927.927,0,0,1-.936.936,1.126,1.126,0,0,0-1.123,1.123A.938.938,0,0,1-870.574,1361.5Z" transform="translate(896.178 -1315.069)" fill="#ec631e" opacity="0.68" style="isolation: isolate"/>
  <path id="Path_7482" data-name="Path 7482" d="M-687.6,1296.908h-.422v-.422a.65.65,0,0,0-.65-.65.65.65,0,0,0-.65.65v.422h-.422a.65.65,0,0,0-.65.649.649.649,0,0,0,.65.65h.422v.422a.65.65,0,0,0,.65.65.65.65,0,0,0,.65-.65v-.422h.422a.649.649,0,0,0,.649-.65A.65.65,0,0,0-687.6,1296.908Z" transform="translate(761.407 -1271.162)" fill="#ee7b0f"/>
  <g id="Group_3677" data-name="Group 3677" transform="translate(48.091 17.923)">
    <path id="Path_7453" data-name="Path 7453" d="M34.25,11.213V96.062a3.713,3.713,0,0,0,3.713,3.713H84.379a3.713,3.713,0,0,0,3.713-3.713V11.213A3.713,3.713,0,0,0,84.379,7.5H37.963A3.713,3.713,0,0,0,34.25,11.213Z" transform="translate(-32.858 -6.108)" fill="#fcfbff"/>
    <g id="Group_3676" data-name="Group 3676" transform="translate(8.175 18.692)">
      <g id="Group_1155" data-name="Group 1155" transform="translate(0.229 0.134)">
        <path id="Path_7003" data-name="Path 7003" d="M846.165,176.583V161.572l-1.15,1.15h11.328a1.151,1.151,0,0,0,0-2.3H845.015a1.167,1.167,0,0,0-1.15,1.15v15.011a1.151,1.151,0,0,0,2.3,0Z" transform="translate(-843.865 -160.422)" fill="#6f6e6d"/>
      </g>
      <g id="Group_1156" data-name="Group 1156" transform="translate(25.405)">
        <path id="Path_7004" data-name="Path 7004" d="M954.416,162.137h12.609l-1.15-1.15v11.328a1.151,1.151,0,0,0,2.3,0V160.987a1.167,1.167,0,0,0-1.15-1.15H954.416a1.151,1.151,0,0,0,0,2.3Z" transform="translate(-953.305 -159.837)" fill="#6f6e6d"/>
      </g>
      <g id="Group_1157" data-name="Group 1157" transform="translate(0 40.403)">
        <path id="Path_7005" data-name="Path 7005" d="M842.864,336.587V351.6a1.167,1.167,0,0,0,1.15,1.15h11.328a1.151,1.151,0,0,0,0-2.3H844.014l1.15,1.15V336.587a1.151,1.151,0,0,0-2.3,0Z" transform="translate(-842.864 -335.476)" fill="#6f6e6d"/>
      </g>
      <g id="Group_3675" data-name="Group 3675" transform="translate(25.405 40.515)">
        <path id="Path_7004-2" data-name="Path 7004" d="M954.416,171.126h12.61l-1.15,1.15V160.948a1.151,1.151,0,0,1,2.3,0v11.329a1.167,1.167,0,0,1-1.15,1.15h-12.61a1.151,1.151,0,0,1,0-2.3Z" transform="translate(-953.305 -159.837)" fill="#6f6e6d"/>
      </g>
    </g>
    <path id="Path_7454" data-name="Path 7454" d="M280.634,7.5H275.25a3.713,3.713,0,0,1,3.713,3.713V96.062a3.713,3.713,0,0,1-3.713,3.713h5.384a3.713,3.713,0,0,0,3.713-3.713V11.213A3.713,3.713,0,0,0,280.634,7.5Z" transform="translate(-229.113 -6.108)" fill="#ec631e" opacity="0.53"/>
    <path id="Path_7455" data-name="Path 7455" d="M88.093,451.112V443.5H34.25v7.612a3.713,3.713,0,0,0,3.713,3.713H84.379A3.713,3.713,0,0,0,88.093,451.112Z" transform="translate(-32.858 -361.158)" fill="#ec631e" opacity="0.69"/>
    <path id="Path_7456" data-name="Path 7456" d="M88.093,11.213v7.612H34.25V11.213A3.713,3.713,0,0,1,37.963,7.5H84.379A3.713,3.713,0,0,1,88.093,11.213Z" transform="translate(-32.858 -6.108)" fill="#ec631e" opacity="0.69"/>
    <path id="Path_7457" data-name="Path 7457" d="M278.963,11.213v7.612h5.384V11.213A3.713,3.713,0,0,0,280.634,7.5H275.25A3.713,3.713,0,0,1,278.963,11.213Z" transform="translate(-229.113 -6.108)" fill="#ec631e" opacity="0.24"/>
    <path id="Path_7458" data-name="Path 7458" d="M263.572,364.678H217.841a1.719,1.719,0,0,1-1.73-1.708V334.508a1.719,1.719,0,0,1,1.73-1.708h45.731a1.719,1.719,0,0,1,1.73,1.708V362.97A1.719,1.719,0,0,1,263.572,364.678Z" transform="translate(-181.542 -269.618)" fill="#f6b696"/>
    <path id="Path_7459" data-name="Path 7459" d="M265.449,332.8h-4.455a1.622,1.622,0,0,1,1.518,1.708V362.97a1.622,1.622,0,0,1-1.518,1.709h4.455a1.622,1.622,0,0,0,1.518-1.709V334.508A1.622,1.622,0,0,0,265.449,332.8Z" transform="translate(-183.212 -271.012)" fill="#ec631e" opacity="0.37"/>
    <path id="Path_7461" data-name="Path 7461" d="M256.348,373.784h-6.87a.928.928,0,0,1-.928-.928v-6.127a.928.928,0,0,1,.928-.928h6.87a.928.928,0,0,1,.928.928v6.127A.928.928,0,0,1,256.348,373.784Z" transform="translate(-207.37 -297.885)" fill="#ec631e" opacity="0.48"/>
    <path id="Path_7465" data-name="Path 7465" d="M110.485,83.557a1.393,1.393,0,0,0,1.392-1.392V63.5a3.1,3.1,0,0,0-3.1-3.1h-25.4V5.106A5.111,5.111,0,0,0,78.272,0H31.856A5.111,5.111,0,0,0,26.75,5.106v42.77a1.392,1.392,0,0,0,2.785,0V14.11H80.593V60.4H63.616a3.1,3.1,0,0,0-3.1,3.1V80.95H29.535V54.374a1.392,1.392,0,1,0-2.785,0V89.954a5.111,5.111,0,0,0,5.106,5.106h76.92a3.1,3.1,0,0,0,3.1-3.1v-3.3a1.392,1.392,0,1,0-2.785,0v3.3a.317.317,0,0,1-.316.316H63.616a.317.317,0,0,1-.316-.316V63.5a.316.316,0,0,1,.316-.316h45.16a.317.317,0,0,1,.316.316V82.165a1.393,1.393,0,0,0,1.392,1.392ZM29.535,11.326V5.106a2.323,2.323,0,0,1,2.321-2.321H78.272a2.323,2.323,0,0,1,2.321,2.321v6.22Zm2.321,80.95a2.323,2.323,0,0,1-2.321-2.321v-6.22h30.98v8.224a3.123,3.123,0,0,0,.016.316Z" transform="translate(-26.75)" fill="#6f6e6d"/>
    <path id="Path_7469" data-name="Path 7469" d="M252.561,366.748v-6.127a2.323,2.323,0,0,0-2.321-2.321h-6.87a2.323,2.323,0,0,0-2.321,2.321v6.127a2.323,2.323,0,0,0,2.321,2.321h6.87A2.324,2.324,0,0,0,252.561,366.748Zm-2.785-.464h-5.941v-5.2h5.941Z" transform="translate(-201.262 -291.779)" fill="#6f6e6d"/>
    <g id="Group_1505" data-name="Group 1505" transform="translate(24.054 6.004)">
      <path id="Path_7030" data-name="Path 7030" d="M2134.477,2659.484h-7a1,1,0,0,1,0-2h7a1,1,0,1,1,0,2Z" transform="translate(-2126.473 -2657.482)" fill="#6f6e6d"/>
    </g>
    <g id="Group_3673" data-name="Group 3673" transform="translate(55.235 67.284)">
      <g id="Group_1152" data-name="Group 1152">
        <path id="Path_6998" data-name="Path 6998" d="M1002.885,262.254h-9.777a1.15,1.15,0,1,1,0-2.3h9.777a1.15,1.15,0,0,1,0,2.3Z" transform="translate(-991.958 -259.954)" fill="#fff"/>
      </g>
      <g id="Group_1153" data-name="Group 1153" transform="translate(0.229 4.656)">
        <path id="Path_6999" data-name="Path 6999" d="M1003.885,295.748h-9.776a1.15,1.15,0,1,1,0-2.3h9.776a1.15,1.15,0,1,1,0,2.3Z" transform="translate(-992.958 -293.448)" fill="#fff"/>
      </g>
    </g>
    <g id="Group_3674" data-name="Group 3674" transform="translate(39.788 80.217)">
      <g id="Group_1152-2" data-name="Group 1152" transform="translate(0 0)">
        <path id="Path_6998-2" data-name="Path 6998" d="M1002.885,262.254h-9.777a1.15,1.15,0,1,1,0-2.3h9.777a1.15,1.15,0,0,1,0,2.3Z" transform="translate(-991.958 -259.954)" fill="#fff"/>
      </g>
      <g id="Group_1153-2" data-name="Group 1153" transform="translate(0.229 4.656)">
        <path id="Path_6999-2" data-name="Path 6999" d="M1001.22,295.748h-7.392a1.2,1.2,0,0,1,0-2.3h7.392a1.2,1.2,0,0,1,0,2.3Z" transform="translate(-992.958 -293.448)" fill="#fff"/>
      </g>
    </g>
    <rect id="Rectangle_660" data-name="Rectangle 660" width="19.307" height="5.878" rx="2.939" transform="translate(60.3 83.695)" fill="#d4d7dc"/>
    <circle id="Ellipse_498" data-name="Ellipse 498" cx="10.661" cy="10.661" r="10.661" transform="translate(74.596 73.034)" fill="#ec631e"/>
    <g id="Group_1154" data-name="Group 1154" transform="translate(74.549 72.987)">
      <path id="Path_7001" data-name="Path 7001" d="M1119.79,213.124a10.709,10.709,0,1,1,10.709-10.709A10.721,10.721,0,0,1,1119.79,213.124Zm0-19.746a9.037,9.037,0,1,0,9.037,9.037A9.048,9.048,0,0,0,1119.79,193.377Z" transform="translate(-1109.081 -191.706)" fill="#6f6e6d"/>
    </g>
    <path id="Path_7002" data-name="Path 7002" d="M1140.705,208.85h0a1.357,1.357,0,0,1-.961-.4l-3.1-3.1a1.358,1.358,0,0,1,1.922-1.92l2.141,2.143,10.844-10.846a1.358,1.358,0,0,1,1.922,1.921l-11.8,11.807a1.361,1.361,0,0,1-.961.4Z" transform="translate(-1055.448 -120.736)" fill="#fff"/>
  </g>
</svg>
