<svg xmlns="http://www.w3.org/2000/svg" width="181.545" height="154.065" viewBox="0 0 181.545 154.065">
  <g id="Group_1258" data-name="Group 1258" transform="translate(-427.228 10481.163)">
    <path id="Path_7282" data-name="Path 7282" d="M177.954,88.812c-7.927-20.171-32.347-32.268-53.029-24.263-23.609,9.137-15.781,46.689-37.225,54.282-11.584,4.1-28.708-11.22-40.411-13.57-21.566-4.329-41.089,10.887-45.9,31.96-4.9,21.5,2.962,50.212,26.582,56.047,28.136,6.95,42.792-18.342,66.395-25.6,24.221-7.453,51.153,10.149,71.2-11.267,14.814-15.821,20.231-47.61,12.381-67.584Z" transform="translate(427.228 -10534.954)" fill="#f8d4ba"/>
    <path id="Path_7283" data-name="Path 7283" d="M137.737,85.548a19.91,19.91,0,1,0-30.821,18.1v34.128a1.8,1.8,0,0,0,2.61,1.6l3.773-1.924v56.6H102.661a3.546,3.546,0,0,0-3.546,3.546v6.072a7.354,7.354,0,0,0,7.3,7.4h74.4c-.078,0-.153-.009-.231-.012a7.376,7.376,0,0,0,7.176-7.379V92.94a7.39,7.39,0,0,1,7.382-7.393Z" transform="translate(363.995 -10538.167)" fill="#f3a660" opacity="0.66"/>
    <path id="Path_7284" data-name="Path 7284" d="M344.645,105.6v18.534h16.311a3.546,3.546,0,0,0,3.546-3.546V105.6a7.358,7.358,0,0,0-5.125-6.983,7.44,7.44,0,0,0-2.323-.367H337.2A7.4,7.4,0,0,1,344.645,105.6Z" transform="translate(209.591 -10558.316)" fill="#fff"/>
    <path id="Path_7285" data-name="Path 7285" d="M320.645,129.6v18.534h16.311a3.546,3.546,0,0,0,3.546-3.546V129.6a7.358,7.358,0,0,0-5.125-6.983,7.439,7.439,0,0,0-2.323-.367H313.2A7.4,7.4,0,0,1,320.645,129.6Z" transform="translate(225.082 -10573.807)" fill="#edba8c" opacity="0.11"/>
    <path id="Path_7286" data-name="Path 7286" d="M244.421,98.251a7.4,7.4,0,0,0-7.409,7.393V216.39a7.382,7.382,0,0,1-7.382,7.382H162.2V105.644a7.4,7.4,0,0,1,7.4-7.393Z" transform="translate(322.543 -10558.316)" fill="#fff"/>
    <path id="Path_7287" data-name="Path 7287" d="M240.817,305.251H209.969a1.773,1.773,0,0,0-1.773,1.773v49.641H242.59V307.024A1.773,1.773,0,0,0,240.817,305.251Z" transform="translate(292.854 -10691.918)" fill="#ee7b21" opacity="0.663"/>
    <path id="Path_7288" data-name="Path 7288" d="M203.414,421.271H128.6a7.4,7.4,0,0,1-7.4-7.4V407.8a3.552,3.552,0,0,1,3.553-3.552h67.71a3.552,3.552,0,0,1,3.553,3.552v6.066A7.4,7.4,0,0,0,203.414,421.271Z" transform="translate(349.006 -10755.814)" fill="#fff"/>
    <circle id="Ellipse_541" data-name="Ellipse 541" cx="13.915" cy="13.915" r="13.915" transform="translate(543.848 -10419.263)" fill="#ee7b21"/>
    <path id="Path_7289" data-name="Path 7289" d="M166.18,127.251v41.876a1.775,1.775,0,0,1-2.58,1.581l-8.41-4.287-8.414,4.287a1.775,1.775,0,0,1-2.58-1.581V127.251Z" transform="translate(334.161 -10577.033)" fill="#fff"/>
    <circle id="Ellipse_542" data-name="Ellipse 542" cx="19.94" cy="19.94" r="19.94" transform="translate(469.47 -10478.479)" fill="#f19b4b"/>
    <path id="Path_7290" data-name="Path 7290" d="M238.312,167.5h31.226a2.116,2.116,0,0,0,2.116-2.116V154.367a2.116,2.116,0,0,0-2.116-2.116H238.312a2.116,2.116,0,0,0-2.116,2.116V165.4A2.106,2.106,0,0,0,238.312,167.5Z" transform="translate(274.782 -10593.169)" fill="#ee8222" opacity="0.7"/>
    <g id="Group_1257" data-name="Group 1257" transform="translate(487.576 -10442.69)">
      <path id="Path_7291" data-name="Path 7291" d="M237.763,150.8h-5.857a1.816,1.816,0,0,1-1.8-1.406,1.775,1.775,0,0,1,1.736-2.14H237.7a1.816,1.816,0,0,1,1.8,1.406A1.775,1.775,0,0,1,237.763,150.8Z" transform="translate(-208.837 -147.251)" fill="#6f6f6e"/>
      <path id="Path_7292" data-name="Path 7292" d="M250.209,181.8H231.9a1.816,1.816,0,0,1-1.8-1.406,1.775,1.775,0,0,1,1.736-2.14h18.3a1.816,1.816,0,0,1,1.8,1.406A1.775,1.775,0,0,1,250.209,181.8Z" transform="translate(-208.837 -167.259)" fill="#6f6f6e"/>
      <path id="Path_7293" data-name="Path 7293" d="M258.97,198.8H231.9a1.816,1.816,0,0,1-1.8-1.406,1.775,1.775,0,0,1,1.736-2.14H258.9a1.816,1.816,0,0,1,1.8,1.406A1.775,1.775,0,0,1,258.97,198.8Z" transform="translate(-208.837 -178.231)" fill="#6f6f6e"/>
      <path id="Path_7294" data-name="Path 7294" d="M226.355,275.8H203.462a1.816,1.816,0,0,1-1.8-1.406,1.775,1.775,0,0,1,1.736-2.14h22.894a1.816,1.816,0,0,1,1.8,1.406A1.775,1.775,0,0,1,226.355,275.8Z" transform="translate(-190.479 -227.929)" fill="#6f6f6e"/>
      <path id="Path_7295" data-name="Path 7295" d="M248.511,304.8H203.462a1.816,1.816,0,0,1-1.8-1.406,1.775,1.775,0,0,1,1.736-2.14h45.049a1.816,1.816,0,0,1,1.8,1.406A1.774,1.774,0,0,1,248.511,304.8Z" transform="translate(-190.479 -246.646)" fill="#6f6f6e"/>
      <path id="Path_7296" data-name="Path 7296" d="M248.511,323.8H203.462a1.816,1.816,0,0,1-1.8-1.406,1.775,1.775,0,0,1,1.736-2.14h45.049a1.816,1.816,0,0,1,1.8,1.406A1.774,1.774,0,0,1,248.511,323.8Z" transform="translate(-190.479 -258.909)" fill="#6f6f6e"/>
      <path id="Path_7297" data-name="Path 7297" d="M248.511,342.8H203.462a1.816,1.816,0,0,1-1.8-1.406,1.775,1.775,0,0,1,1.736-2.14h45.049a1.816,1.816,0,0,1,1.8,1.406A1.774,1.774,0,0,1,248.511,342.8Z" transform="translate(-190.479 -271.172)" fill="#6f6f6e"/>
      <g id="Group_1256" data-name="Group 1256" transform="translate(21.774 26.285)">
        <circle id="Ellipse_543" data-name="Ellipse 543" cx="1.982" cy="1.982" r="1.982" transform="translate(0 0.298)" fill="#6f6f6e"/>
        <circle id="Ellipse_544" data-name="Ellipse 544" cx="1.982" cy="1.982" r="1.982" transform="matrix(0.16, -0.987, 0.987, 0.16, 5.681, 3.913)" fill="#6f6f6e"/>
        <circle id="Ellipse_545" data-name="Ellipse 545" cx="1.982" cy="1.982" r="1.982" transform="translate(11.993 0.298)" fill="#6f6f6e"/>
      </g>
      <path id="Path_7298" data-name="Path 7298" d="M170.2,187.251V183.3a1.816,1.816,0,0,1,1.406-1.8,1.775,1.775,0,0,1,2.14,1.736v4.087a1.775,1.775,0,0,1-2.14,1.736A1.817,1.817,0,0,1,170.2,187.251Z" transform="translate(-170.196 -169.329)" fill="#6f6f6e"/>
    </g>
    <path id="Path_7299" data-name="Path 7299" d="M150.4,91.3a13.719,13.719,0,1,1,13.719-13.719A13.734,13.734,0,0,1,150.4,91.3Zm0-23.892A10.173,10.173,0,1,0,160.57,77.582,10.184,10.184,0,0,0,150.4,67.409Z" transform="translate(339.013 -10536.122)" fill="#fff"/>
    <path id="Path_7301" data-name="Path 7301" d="M331.817,141.6a5.891,5.891,0,1,0-10.1,4.118,5.868,5.868,0,0,0-1.686,4.118,1.773,1.773,0,1,0,3.546,0,2.345,2.345,0,1,1,4.69,0,1.773,1.773,0,0,0,3.546,0,5.868,5.868,0,0,0-1.686-4.118A5.869,5.869,0,0,0,331.817,141.6Zm-5.891-2.345a2.345,2.345,0,1,1-2.345,2.345A2.348,2.348,0,0,1,325.926,139.251Z" transform="translate(220.67 -10582.489)" fill="#6f6f6e"/>
    <path id="Path_7302" data-name="Path 7302" d="M431.569,247.926h-1.152V246.84a1.816,1.816,0,0,0-1.407-1.8,1.775,1.775,0,0,0-2.139,1.736v1.152h-1.086a1.816,1.816,0,0,0-1.8,1.407,1.775,1.775,0,0,0,1.736,2.139h1.152v1.086a1.816,1.816,0,0,0,1.407,1.8,1.775,1.775,0,0,0,2.139-1.736v-1.152H431.5a1.816,1.816,0,0,0,1.8-1.407,1.775,1.775,0,0,0-1.736-2.139Z" transform="translate(153.605 -10653.031)" fill="#ee7b21"/>
    <path id="Path_7303" data-name="Path 7303" d="M88.5,195.926H87.417v-1.086a1.816,1.816,0,0,0-1.406-1.8,1.775,1.775,0,0,0-2.14,1.736v1.152H82.785a1.816,1.816,0,0,0-1.8,1.407,1.775,1.775,0,0,0,1.736,2.139h1.152v1.086a1.816,1.816,0,0,0,1.406,1.8,1.775,1.775,0,0,0,2.14-1.736v-1.152h1.152a1.775,1.775,0,0,0,1.736-2.139A1.816,1.816,0,0,0,88.5,195.926Z" transform="translate(374.984 -10619.47)" fill="#ee7b21"/>
    <path id="Path_7304" data-name="Path 7304" d="M399.5,427.926h-1.086V426.84a1.816,1.816,0,0,0-1.407-1.8,1.775,1.775,0,0,0-2.139,1.736v1.152h-1.086a1.816,1.816,0,0,0-1.8,1.407,1.775,1.775,0,0,0,1.736,2.139h1.152v1.086a1.816,1.816,0,0,0,1.407,1.8,1.775,1.775,0,0,0,2.139-1.736v-1.152h1.152a1.775,1.775,0,0,0,1.736-2.139A1.815,1.815,0,0,0,399.5,427.926Z" transform="translate(174.258 -10769.207)" fill="#ee7b21"/>
    <path id="Path_7305" data-name="Path 7305" d="M66.346,156.605a5.186,5.186,0,1,1,2.4-.6,5.194,5.194,0,0,1-2.4.6Zm0-6.813a1.633,1.633,0,1,0,1.56,2.118v-.5a1.6,1.6,0,0,0-1.034-1.535A1.633,1.633,0,0,0,66.349,149.792Z" transform="translate(387.755 -10589.292)" fill="#ee7b21"/>
    <path id="Path_7306" data-name="Path 7306" d="M284.466,65.611a5.179,5.179,0,1,1,4.937-3.643,5.185,5.185,0,0,1-4.937,3.643Zm-.005-6.813a1.632,1.632,0,1,0,1.557,2.117h0a1.632,1.632,0,0,0-1.557-2.117Z" transform="translate(246.975 -10530.564)" fill="#ee7b21"/>
    <path id="Path_7307" data-name="Path 7307" d="M213.272,57.253l-17.97-.006a1.773,1.773,0,0,0,0,3.546h10.677a9.117,9.117,0,0,0-1.927,5.614V97.971a15.685,15.685,0,0,0,0,31.368v47.7a5.4,5.4,0,1,1-10.8,0v-6.058a5.325,5.325,0,0,0-5.319-5.319h-55V111.944l2.907-1.482,7.6,3.874a3.546,3.546,0,0,0,5.156-3.159V78.018a21.694,21.694,0,0,0,8.948-17.225h27.788a1.773,1.773,0,1,0,0-3.546h-28.02a21.712,21.712,0,1,0-34.23,20.771V88.256a1.773,1.773,0,0,0,3.546,0V80.12a21.657,21.657,0,0,0,18.423,0v31.058l-8.406-4.285a1.773,1.773,0,0,0-1.61,0l-8.406,4.285V98.219a1.773,1.773,0,0,0-3.546,0v12.959a3.546,3.546,0,0,0,5.156,3.159l1.148-.585V165.66h-9.024a5.325,5.325,0,0,0-5.319,5.319v6.058a9.17,9.17,0,0,0,9.16,9.16h74.66a1.778,1.778,0,0,0,.358-.036,9.171,9.171,0,0,0,8.371-9.124V128.967a15.685,15.685,0,0,0,0-30.625V86.8h9.268a5.325,5.325,0,0,0,5.319-5.319V66.406a9.169,9.169,0,0,0-8.913-9.153Zm-95.594,3.21A18.167,18.167,0,1,1,135.845,78.63,18.188,18.188,0,0,1,117.678,60.463Zm69.716,122.188H124.21a5.621,5.621,0,0,1-5.614-5.614v-6.058a1.775,1.775,0,0,1,1.773-1.773h67.568a1.775,1.775,0,0,1,1.773,1.773v6.058a9.112,9.112,0,0,0,1.927,5.614Zm28.946-69A12.142,12.142,0,1,1,204.2,101.513,12.155,12.155,0,0,1,216.34,113.655Zm2.3-32.172a1.775,1.775,0,0,1-1.773,1.773H207.6V66.406a5.521,5.521,0,1,1,11.041,0Z" transform="translate(353.565 -10519.913)" fill="#6f6f6e"/>
    <path id="Path_7308" data-name="Path 7308" d="M357.545,234.323a1.772,1.772,0,0,1-1.254-.52l-4.049-4.052a1.773,1.773,0,1,1,2.508-2.506l2.795,2.8L371.7,215.886a1.773,1.773,0,0,1,2.508,2.507L358.8,233.8A1.772,1.772,0,0,1,357.545,234.323Z" transform="translate(200.219 -10633.905)" fill="#fff"/>
    <path id="Path_7309" data-name="Path 7309" d="M331.817,141.6a5.891,5.891,0,1,0-10.1,4.118,5.868,5.868,0,0,0-1.686,4.118,1.773,1.773,0,1,0,3.546,0,2.345,2.345,0,1,1,4.69,0,1.773,1.773,0,0,0,3.546,0,5.868,5.868,0,0,0-1.686-4.118A5.869,5.869,0,0,0,331.817,141.6Zm-5.891-2.345a2.345,2.345,0,1,1-2.345,2.345A2.348,2.348,0,0,1,325.926,139.251Z" transform="translate(163.483 -10603.159)" fill="#6f6f6e"/>
  </g>
</svg>
