<svg width="50" height="50" viewBox="0 0 50 50" fill="none" xmlns="http://www.w3.org/2000/svg">
<path opacity="0.5" fill-rule="evenodd" clip-rule="evenodd" d="M34.945 32.7544C34.868 32.7044 34.288 32.2981 33.7072 31.0689C32.6407 28.8118 32.4168 25.6321 32.4168 23.3621C32.4168 23.3523 32.4166 23.3425 32.4163 23.3326C32.4046 20.3326 30.6082 17.7465 28.0376 16.5862V14.8116C28.0376 13.2012 26.7296 11.8911 25.1219 11.8911H24.8803C23.2726 11.8911 21.9646 13.2012 21.9646 14.8116V16.5861C19.3854 17.7502 17.5854 20.3495 17.5854 23.3621C17.5854 25.6321 17.3615 28.8117 16.295 31.0689C15.7143 32.298 15.1343 32.7043 15.0572 32.7544C14.7324 32.9047 14.5723 33.2519 14.647 33.6037C14.7224 33.959 15.0546 34.204 15.4172 34.204H21.047C21.0784 36.3618 22.8395 38.1077 25.0011 38.1077C27.1627 38.1077 28.9238 36.3618 28.9553 34.204H34.585C34.9477 34.204 35.2798 33.959 35.3552 33.6037C35.4298 33.2519 35.2698 32.9047 34.945 32.7544H34.945ZM23.5008 14.8116C23.5008 14.0496 24.1196 13.4297 24.8803 13.4297H25.122C25.8827 13.4297 26.5015 14.0496 26.5015 14.8116V16.0875C26.0167 15.9872 25.5149 15.9345 25.0009 15.9345C24.4871 15.9345 23.9854 15.9872 23.5008 16.0873V14.8116H23.5008ZM25.0011 36.569C23.6866 36.569 22.6143 35.5134 22.5831 34.204H27.4191C27.388 35.5133 26.3157 36.569 25.0011 36.569ZM28.0939 32.6653C28.0937 32.6653 17.1677 32.6653 17.1677 32.6653C17.3005 32.4582 17.4358 32.2237 17.5702 31.9588C18.5996 29.9289 19.1216 27.0366 19.1216 23.3621C19.1216 20.1149 21.759 17.4731 25.0009 17.4731C28.2427 17.4731 30.8802 20.1149 30.8802 23.3647C30.8802 23.3742 30.8803 23.3836 30.8807 23.393C30.8836 27.0527 31.4056 29.9346 32.4321 31.9588C32.5665 32.2238 32.7018 32.4582 32.8346 32.6653L28.0939 32.6653Z" fill="#EC631E"/>
</svg>
