<svg width="50" height="50" viewBox="0 0 50 50" fill="none" xmlns="http://www.w3.org/2000/svg">
<rect opacity="0.5" x="9" y="15" width="32" height="19" rx="5" fill="#F6B696"/>
<path d="M14 24.6405C14 26.7838 15.6306 28.2811 17.6405 28.2811C19.1275 28.2811 20.4094 27.5427 20.9529 26.148H19.548C19.1685 26.9069 18.4917 27.2658 17.6405 27.2658C16.2253 27.2658 15.1998 26.2506 15.1998 24.6405C15.1998 23.0305 16.2253 22.0255 17.6405 22.0255C18.4917 22.0255 19.1685 22.3844 19.548 23.1433H20.9529C20.4094 21.7486 19.1275 21 17.6405 21C15.6306 21 14 22.5075 14 24.6405Z" fill="#EC631E"/>
<path d="M25.1107 27.0197L22.9982 21.0923H21.747L24.4339 28.2195H25.7875L28.4641 21.0923H27.2335L25.1107 27.0197Z" fill="#EC631E"/>
<path d="M29.4315 25.6148C29.4315 27.4299 30.7031 28.2913 32.2004 28.2913C33.6874 28.2913 35 27.4299 35 25.6148V21.0923H33.8309V25.6353C33.8309 26.7428 33.2054 27.2658 32.2106 27.2658C31.2261 27.2658 30.6006 26.7428 30.6006 25.6353V21.0923H29.4315V25.6148Z" fill="#EC631E"/>
</svg>
