<svg id="Icon_21" data-name="Icon 21" xmlns="http://www.w3.org/2000/svg" width="78" height="78" viewBox="0 0 78 78">
  <circle id="Ellipse_415" data-name="Ellipse 415" cx="39" cy="39" r="39" fill="#ec631e"/>
  <g id="billete_partido" data-name="billete partido" transform="translate(17.767 25.295)">
    <path id="Path_6791" data-name="Path 6791" d="M245.9,291.6H232.187a.789.789,0,0,0-.787.787h0a.789.789,0,0,0,.787.787H245.9a.789.789,0,0,0,.787-.787h0A.773.773,0,0,0,245.9,291.6Z" transform="translate(-217.866 -268.571)" fill="#fff"/>
    <path id="Path_6792" data-name="Path 6792" d="M245.957,214.5h-13.77a.789.789,0,0,0-.787.787h0a.789.789,0,0,0,.787.787h13.77a.789.789,0,0,0,.787-.787h0A.806.806,0,0,0,245.957,214.5Z" transform="translate(-217.866 -211.693)" fill="#fff"/>
    <path id="Path_6793" data-name="Path 6793" d="M311.654,214.5h-6.767a.789.789,0,0,0-.787.787h0a.789.789,0,0,0,.787.787h.577a7.768,7.768,0,0,0,6.951,6.951v4.721a7.768,7.768,0,0,0-6.951,6.951h-.577a.789.789,0,0,0-.787.787h0a.789.789,0,0,0,.787.787h6.741a2.34,2.34,0,0,0,2.334-2.334v-17.1A2.3,2.3,0,0,0,311.654,214.5Zm.787,6.951a6.262,6.262,0,0,1-5.4-5.4h4.616a.789.789,0,0,1,.787.787Zm0,12.485a.789.789,0,0,1-.787.787h-4.616a6.262,6.262,0,0,1,5.4-5.4Z" transform="translate(-271.497 -211.693)" fill="#fff"/>
    <path id="Path_6794" data-name="Path 6794" d="M181.374,227.746v-4.721a7.768,7.768,0,0,0,6.951-6.951h.577a.789.789,0,0,0,.787-.787h0a.789.789,0,0,0-.787-.787h-6.767a2.34,2.34,0,0,0-2.334,2.334v17.1a2.34,2.34,0,0,0,2.334,2.334h6.793a.789.789,0,0,0,.787-.787h0a.789.789,0,0,0-.787-.787h-.6A7.744,7.744,0,0,0,181.374,227.746Zm.026-10.911a.789.789,0,0,1,.787-.787H186.8a6.262,6.262,0,0,1-5.4,5.4Zm.761,17.888a.789.789,0,0,1-.787-.787V229.32a6.262,6.262,0,0,1,5.4,5.4Z" transform="translate(-179.8 -211.693)" fill="#fff"/>
    <path id="Trazado_20" d="M243.116,244.733a6.216,6.216,0,1,0-6.216-6.216h0A6.213,6.213,0,0,0,243.116,244.733Zm0-10.885a4.669,4.669,0,1,1-4.669,4.669h0A4.679,4.679,0,0,1,243.116,233.848Z" transform="translate(-221.923 -224.825)" fill="#fff"/>
    <g id="Group_1037" data-name="Group 1037" transform="translate(10.885)">
      <g id="Group_1035" data-name="Group 1035">
        <path id="Path_6795" data-name="Path 6795" d="M223.079,206.633v-1.993a.829.829,0,0,0-.839-.839h0a.829.829,0,0,0-.839.839v1.993a.829.829,0,0,0,.839.839h0A.863.863,0,0,0,223.079,206.633Z" transform="translate(-221.374 -203.8)" fill="#f6b696"/>
        <path id="Path_6796" data-name="Path 6796" d="M221.3,222.839v2.02a.829.829,0,0,0,.839.839h0a.829.829,0,0,0,.839-.839v-2.02a.829.829,0,0,0-.839-.839h0A.863.863,0,0,0,221.3,222.839Z" transform="translate(-221.3 -217.226)" fill="#f6b696"/>
        <path id="Path_6797" data-name="Path 6797" d="M221.3,241.339v1.81a.829.829,0,0,0,.839.839h0a.829.829,0,0,0,.839-.839v-1.81a.829.829,0,0,0-.839-.839h0A.845.845,0,0,0,221.3,241.339Z" transform="translate(-221.3 -230.874)" fill="#f6b696"/>
        <path id="Path_6798" data-name="Path 6798" d="M223.079,261.248v-2.308a.829.829,0,0,0-.839-.839h0a.829.829,0,0,0-.839.839v2.308a.829.829,0,0,0,.839.839h0A.845.845,0,0,0,223.079,261.248Z" transform="translate(-221.374 -243.857)" fill="#f6b696"/>
        <path id="Path_6799" data-name="Path 6799" d="M221.3,278.739V280.5a.829.829,0,0,0,.839.839h0a.829.829,0,0,0,.839-.839v-1.757a.829.829,0,0,0-.839-.839h0A.845.845,0,0,0,221.3,278.739Z" transform="translate(-221.3 -258.464)" fill="#f6b696"/>
        <path id="Path_6800" data-name="Path 6800" d="M221.3,296.136v1.731a.829.829,0,0,0,.839.839h0a.829.829,0,0,0,.839-.839v-1.731a.829.829,0,0,0-.839-.839h0A.828.828,0,0,0,221.3,296.136Z" transform="translate(-221.3 -271.297)" fill="#f6b696"/>
      </g>
      <g id="Group_1036" data-name="Group 1036" transform="translate(18.938)">
        <path id="Path_6801" data-name="Path 6801" d="M295.179,206.633v-1.993a.829.829,0,0,0-.839-.839h0a.829.829,0,0,0-.839.839v1.993a.829.829,0,0,0,.839.839h0A.863.863,0,0,0,295.179,206.633Z" transform="translate(-293.5 -203.8)" fill="#f6b696"/>
        <path id="Path_6802" data-name="Path 6802" d="M293.5,222.839v2.02a.829.829,0,0,0,.839.839h0a.829.829,0,0,0,.839-.839v-2.02a.829.829,0,0,0-.839-.839h0A.845.845,0,0,0,293.5,222.839Z" transform="translate(-293.5 -217.226)" fill="#f6b696"/>
        <path id="Path_6803" data-name="Path 6803" d="M293.5,241.339v1.81a.829.829,0,0,0,.839.839h0a.829.829,0,0,0,.839-.839v-1.81a.829.829,0,0,0-.839-.839h0A.829.829,0,0,0,293.5,241.339Z" transform="translate(-293.5 -230.874)" fill="#f6b696"/>
        <path id="Path_6804" data-name="Path 6804" d="M295.179,261.248v-2.308a.829.829,0,0,0-.839-.839h0a.829.829,0,0,0-.839.839v2.308a.829.829,0,0,0,.839.839h0A.845.845,0,0,0,295.179,261.248Z" transform="translate(-293.5 -243.857)" fill="#f6b696"/>
        <path id="Path_6805" data-name="Path 6805" d="M293.5,296.136v1.731a.829.829,0,0,0,.839.839h0a.829.829,0,0,0,.839-.839v-1.731a.829.829,0,0,0-.839-.839h0A.813.813,0,0,0,293.5,296.136Z" transform="translate(-293.5 -271.297)" fill="#f6b696"/>
        <path id="Path_6806" data-name="Path 6806" d="M295.179,280.349v-1.81a.829.829,0,0,0-.839-.839h0a.829.829,0,0,0-.839.839v1.81a.829.829,0,0,0,.839.839h0A.863.863,0,0,0,295.179,280.349Z" transform="translate(-293.5 -258.316)" fill="#f6b696"/>
      </g>
    </g>
  </g>
</svg>
