<svg width="77" height="77" viewBox="0 0 77 77" fill="none" xmlns="http://www.w3.org/2000/svg">
<circle cx="38.5" cy="38.5" r="38.5" fill="#EC631E"/>
<path d="M33.4349 38.913C35.4491 38.913 37.0871 40.5511 37.0871 42.5653C37.0871 44.5795 35.4491 46.2175 33.4349 46.2175C31.4207 46.2175 29.7827 44.5795 29.7827 42.5653C29.7827 40.5511 31.4207 38.913 33.4349 38.913ZM33.4349 37.0869C30.409 37.0869 27.9565 39.5403 27.9565 42.5653C27.9565 45.5912 30.409 48.0436 33.4349 48.0436C36.4599 48.0436 38.9133 45.5912 38.9133 42.5653C38.9133 39.5394 36.4599 37.0869 33.4349 37.0869Z" fill="white"/>
<path d="M33.4352 33.4345C38.4699 33.4345 42.5658 37.5305 42.5658 42.5651C42.5658 47.5997 38.4699 51.6957 33.4352 51.6957C28.4006 51.6957 24.3046 47.5997 24.3046 42.5651C24.3046 37.5305 28.4006 33.4345 33.4352 33.4345ZM33.4352 31.6084C27.3844 31.6084 22.4785 36.5143 22.4785 42.5651C22.4785 48.616 27.3844 53.5218 33.4352 53.5218C39.4861 53.5218 44.392 48.616 44.392 42.5651C44.392 36.5143 39.4861 31.6084 33.4352 31.6084Z" fill="#F6B696"/>
<path d="M33.4351 27.957C41.4901 27.957 48.044 34.5109 48.044 42.5659C48.044 50.621 41.4901 57.1749 33.4351 57.1749C25.3801 57.1749 18.8261 50.621 18.8261 42.5659C18.8261 34.5109 25.3801 27.957 33.4351 27.957ZM33.4351 26.1309C24.3593 26.1309 17 33.4901 17 42.5659C17 51.6418 24.3593 59.001 33.4351 59.001C42.5109 59.001 49.8702 51.6418 49.8702 42.5659C49.8702 33.4901 42.5109 26.1309 33.4351 26.1309Z" fill="white"/>
<path d="M35.3072 43.5884L54.5781 23.8502C55.3162 23.0943 55.3017 21.8831 54.5457 21.145C53.7898 20.4069 52.5786 20.4214 51.8405 21.1774L32.5696 40.9156C31.8315 41.6716 31.846 42.8827 32.602 43.6208C33.358 44.3589 34.5692 44.3444 35.3072 43.5884Z" fill="white" stroke="#EC631E" stroke-width="2"/>
<path d="M52.6086 19.6579V21.5653V23.3914H54.4347H56.3375C55.1414 26.0311 53.1902 29.0889 51.1696 29.0889C50.3488 29.0889 49.4238 28.5803 48.4213 27.5787C46.618 25.7754 46.8846 24.6889 46.9723 24.3319C47.416 22.5213 50.1132 20.7855 52.6086 19.6579ZM54.4347 17C54.4347 17 39.8257 21.5653 47.1302 28.8698C48.5911 30.3307 49.9424 30.915 51.1696 30.915C56.0782 30.915 59 21.5653 59 21.5653H54.4347V17Z" fill="white"/>
</svg>
