<svg id="Icon_12" data-name="Icon 12" xmlns="http://www.w3.org/2000/svg" width="77" height="77" viewBox="0 0 77 77">
  <circle id="Ellipse_379" data-name="Ellipse 379" cx="38.5" cy="38.5" r="38.5" fill="#ec631e"/>
  <g id="Group_912" data-name="Group 912" transform="translate(22.242 25.631)">
    <path id="Path_6734" data-name="Path 6734" d="M-1800.483-1059.15h-15.61a2.257,2.257,0,0,1-2.253-2.254v-19.511a2.256,2.256,0,0,1,2.253-2.253h28.011a2.255,2.255,0,0,1,2.253,2.253v11.846h-1.7v-11.846a.558.558,0,0,0-.557-.557h-28.011a.558.558,0,0,0-.557.557v19.511a.558.558,0,0,0,.557.557h15.61Z" transform="translate(1818.346 1083.168)" fill="#fff"/>
  </g>
  <g id="Group_913" data-name="Group 913" transform="translate(42.3 44.949)">
    <rect id="Rectangle_485" data-name="Rectangle 485" width="9.638" height="1.696" transform="translate(0)" fill="#f6b696"/>
  </g>
  <g id="Group_914" data-name="Group 914" transform="translate(47.097 40.256)">
    <path id="Path_6735" data-name="Path 6735" d="M-1802.859-1063.862l-1.206-1.192,4.3-4.353-4.661-4.325,1.154-1.243,5.944,5.516Z" transform="translate(1804.422 1074.975)" fill="#f6b696"/>
  </g>
  <g id="Group_915" data-name="Group 915" transform="translate(23.09 34.125)">
    <rect id="Rectangle_486" data-name="Rectangle 486" width="30.821" height="1.696" transform="translate(0 0)" fill="#fff"/>
  </g>
</svg>
