<svg xmlns="http://www.w3.org/2000/svg" width="153.545" height="143.164" viewBox="0 0 153.545 143.164">
  <g id="Grupo_1138" data-name="Grupo 1138" transform="translate(-129.227 -529.108)">
    <g id="Grupo_1127" data-name="Grupo 1127" transform="translate(129.227 529.108)" opacity="0.4">
      <path id="Trazado_6954" data-name="Trazado 6954" d="M11.982,119.61c5.233,51.843,87.694,50.125,126.2,40.865C162.91,154.527,164.448,142.64,164,117.29c-.188-10.68.311-32.859-2.289-50.744-1.378-9.478-3.626-17.751-7.308-22.466-16.329-20.912-30.957-7.8-51.178-.97C77.287,51.865,67.181,36.232,42.5,36.7,6.324,37.381,9.282,92.853,11.982,119.61Z" transform="translate(-10.514 -32.737)" fill="#f49c55"/>
    </g>
    <path id="Trazado_6955" data-name="Trazado 6955" d="M207.8,201.6H151.279a9,9,0,0,1-9-9V78.437a9,9,0,0,1,9-9H207.8a9,9,0,0,1,9,9V192.6A9,9,0,0,1,207.8,201.6Z" transform="translate(26.462 470.676)" fill="#ee7b0f" opacity="0.66"/>
    <path id="Trazado_6956" data-name="Trazado 6956" d="M207.8,177.6H151.279a9,9,0,0,1-9-9V54.437a9,9,0,0,1,9-9H207.8a9,9,0,0,1,9,9V168.6A9,9,0,0,1,207.8,177.6Z" transform="translate(26.462 487.478)" fill="#ee7b0f" opacity="0.75"/>
    <path id="Trazado_6957" data-name="Trazado 6957" d="M142.284,88.349H216.8v106.42H142.284Z" transform="translate(26.46 457.438)" fill="#fff"/>
    <path id="Trazado_6958" data-name="Trazado 6958" d="M142.284,325.249H216.8v35.375H142.284Z" transform="translate(26.46 291.582)" fill="#ee7b0f" opacity="0.66"/>
    <path id="Trazado_6959" data-name="Trazado 6959" d="M204.3,175.6H147.778a10.508,10.508,0,0,1-10.5-10.5V50.936a10.508,10.508,0,0,1,10.5-10.5H204.3a10.508,10.508,0,0,1,10.5,10.5V165.1A10.508,10.508,0,0,1,204.3,175.6ZM147.778,43.439a7.506,7.506,0,0,0-7.5,7.5V165.1a7.506,7.506,0,0,0,7.5,7.5H204.3a7.506,7.506,0,0,0,7.5-7.5V50.936a7.506,7.506,0,0,0-7.5-7.5Z" transform="translate(29.962 490.979)" fill="#6f6f6e"/>
    <g id="Grupo_1128" data-name="Grupo 1128" transform="translate(199.258 538.127)">
      <path id="Trazado_6960" data-name="Trazado 6960" d="M256.017,65.809H245.53a1.5,1.5,0,1,1,0-3h10.486a1.5,1.5,0,0,1,0,3Z" transform="translate(-244.031 -62.81)" fill="#6f6f6e"/>
    </g>
    <circle id="Elipse_493" data-name="Elipse 493" cx="1.5" cy="1.5" r="1.5" transform="translate(216.74 538.126)" fill="#6f6f6e"/>
    <circle id="Elipse_494" data-name="Elipse 494" cx="4.988" cy="4.988" r="4.988" transform="translate(177.961 577.393)" fill="#ee7b0f"/>
    <g id="Grupo_1129" data-name="Grupo 1129" transform="translate(193.328 577.393)">
      <circle id="Elipse_495" data-name="Elipse 495" cx="4.988" cy="4.988" r="4.988" fill="#f49c55"/>
      <circle id="Elipse_496" data-name="Elipse 496" cx="4.988" cy="4.988" r="4.988" transform="translate(15.368)" fill="#f49c55"/>
      <circle id="Elipse_497" data-name="Elipse 497" cx="4.988" cy="4.988" r="4.988" transform="translate(30.735)" fill="#f49c55"/>
    </g>
    <path id="Trazado_6961" data-name="Trazado 6961" d="M229.094,246.048v43.308a3,3,0,0,1-3,3H176.013a3,3,0,0,1-3-3V246.048a3,3,0,0,1,3-3H226.1A3,3,0,0,1,229.094,246.048Z" transform="translate(4.946 349.131)" fill="#ee7b0f" opacity="0.6"/>
    <path id="Trazado_6962" data-name="Trazado 6962" d="M238.619,401.379H207.3a3,3,0,0,1-3-3v-3.121a3,3,0,0,1,3-3h31.314a3,3,0,0,1,3,3v3.121A3,3,0,0,1,238.619,401.379Z" transform="translate(-16.962 244.667)" fill="#fff"/>
    <path id="Trazado_6963" data-name="Trazado 6963" d="M201.922,243.049a28.95,28.95,0,0,1-28.907,27.341V246.048a3,3,0,0,1,3-3Z" transform="translate(4.945 349.131)" fill="#f49c55" opacity="0.73"/>
    <g id="Grupo_1137" data-name="Grupo 1137" transform="translate(188.804 598.308)">
      <g id="Grupo_1133" data-name="Grupo 1133" transform="translate(0 0)">
        <g id="Grupo_1130" data-name="Grupo 1130" transform="translate(0 12.827)">
          <path id="Trazado_6964" data-name="Trazado 6964" d="M242.066,306.257H210.673a1.5,1.5,0,1,0,0,3h31.393a1.5,1.5,0,0,0,0-3Z" transform="translate(-209.174 -306.257)" fill="#fff"/>
        </g>
        <g id="Grupo_1131" data-name="Grupo 1131" transform="translate(0 7.001)">
          <path id="Trazado_6965" data-name="Trazado 6965" d="M234.869,286.83h-24.2a1.5,1.5,0,1,0,0,3h24.2a1.5,1.5,0,1,0,0-3Z" transform="translate(-209.174 -286.83)" fill="#fff"/>
        </g>
        <g id="Grupo_1132" data-name="Grupo 1132">
          <path id="Trazado_6966" data-name="Trazado 6966" d="M214.176,263.484h-3.5a1.5,1.5,0,1,0,0,3h3.5a1.5,1.5,0,1,0,0-3Z" transform="translate(-209.174 -263.484)" fill="#6f6f6e"/>
        </g>
      </g>
      <g id="Grupo_1136" data-name="Grupo 1136" transform="translate(0 23.247)">
        <g id="Grupo_1134" data-name="Grupo 1134" transform="translate(0 5.826)">
          <path id="Trazado_6967" data-name="Trazado 6967" d="M242.066,360.429H210.673a1.5,1.5,0,1,0,0,3h31.393a1.5,1.5,0,0,0,0-3Z" transform="translate(-209.174 -360.429)" fill="#fff"/>
        </g>
        <g id="Grupo_1135" data-name="Grupo 1135">
          <path id="Trazado_6968" data-name="Trazado 6968" d="M234.869,341h-24.2a1.5,1.5,0,1,0,0,3h24.2a1.5,1.5,0,1,0,0-3Z" transform="translate(-209.174 -341.001)" fill="#fff"/>
        </g>
      </g>
    </g>
    <path id="Trazado_6969" data-name="Trazado 6969" d="M86.032,336.259a4.286,4.286,0,1,1,4.286-4.286A4.291,4.291,0,0,1,86.032,336.259Zm0-5.573a1.287,1.287,0,1,0,1.287,1.287A1.289,1.289,0,0,0,86.032,330.686Z" transform="translate(68.844 289.875)" fill="#ee7b0f" opacity="0.8"/>
    <path id="Trazado_6970" data-name="Trazado 6970" d="M76.74,129.867a4.286,4.286,0,1,1,4.286-4.286A4.291,4.291,0,0,1,76.74,129.867Zm0-5.573a1.287,1.287,0,1,0,1.287,1.287A1.289,1.289,0,0,0,76.74,124.294Z" transform="translate(75.349 434.371)" fill="#ee7b0f" opacity="0.4"/>
    <path id="Trazado_6971" data-name="Trazado 6971" d="M427.273,144.936a1.5,1.5,0,0,1-1.5-1.5,1.8,1.8,0,0,0-1.8-1.8,1.5,1.5,0,1,1,0-3,1.8,1.8,0,0,0,1.8-1.8,1.5,1.5,0,1,1,3,0,1.8,1.8,0,0,0,1.8,1.8,1.5,1.5,0,0,1,0,3,1.8,1.8,0,0,0-1.8,1.8A1.5,1.5,0,0,1,427.273,144.936Z" transform="translate(-169.703 424.539)" fill="#ee7b0f" opacity="0.58"/>
    <path id="Trazado_6972" data-name="Trazado 6972" d="M425.589,398.4a1.5,1.5,0,0,1-1.5-1.5,1.8,1.8,0,0,0-1.8-1.8,1.5,1.5,0,1,1,0-3,1.8,1.8,0,0,0,1.8-1.8,1.5,1.5,0,1,1,3,0,1.8,1.8,0,0,0,1.8,1.8,1.5,1.5,0,1,1,0,3,1.8,1.8,0,0,0-1.8,1.8A1.5,1.5,0,0,1,425.589,398.4Z" transform="translate(-168.524 247.088)" fill="#ee7b0f" opacity="0.58"/>
    <path id="Trazado_6973" data-name="Trazado 6973" d="M95.836,379.866a1.5,1.5,0,0,1-1.5-1.5,1.8,1.8,0,0,0-1.8-1.8,1.5,1.5,0,1,1,0-3,1.8,1.8,0,0,0,1.8-1.8,1.5,1.5,0,0,1,3,0,1.8,1.8,0,0,0,1.8,1.8,1.5,1.5,0,0,1,0,3,1.8,1.8,0,0,0-1.8,1.8A1.5,1.5,0,0,1,95.836,379.866Z" transform="translate(62.338 260.063)" fill="#ee7b0f" opacity="0.8"/>
    <rect id="Rectángulo_655" data-name="Rectángulo 655" width="5.991" height="17.172" transform="translate(170.243 555.723)" fill="#f49c55"/>
    <rect id="Rectángulo_656" data-name="Rectángulo 656" width="5.991" height="17.172" transform="translate(235.766 555.652)" fill="#f49c55"/>
    <rect id="Rectángulo_657" data-name="Rectángulo 657" width="52.858" height="17.102" rx="2" transform="translate(179.571 555.723)" fill="#ee7b0f"/>
  </g>
</svg>
