<svg width="52" height="52" viewBox="0 0 52 52" fill="none" xmlns="http://www.w3.org/2000/svg">
<g clip-path="url(#clip0_133_9351)">
<g clip-path="url(#clip1_133_9351)">
<g clip-path="url(#clip2_133_9351)">
<path fill-rule="evenodd" clip-rule="evenodd" d="M29.7336 17.9001H16.3219C15.0147 17.9001 13.9551 18.9598 13.9551 20.2669V33.6787C13.9551 34.9858 15.0147 36.0454 16.3219 36.0454H29.7336C31.0407 36.0454 32.1004 34.9858 32.1004 33.6787V20.2669C32.1004 18.9598 31.0407 17.9001 29.7336 17.9001ZM30.5225 33.6787C30.5225 34.1144 30.1693 34.4676 29.7336 34.4676H16.3219C15.8861 34.4676 15.5329 34.1144 15.5329 33.6787V20.2669C15.5329 19.8312 15.8861 19.478 16.3219 19.478H29.7336C30.1693 19.478 30.5225 19.8312 30.5225 20.2669V33.6787Z" fill="#EC631E"/>
</g>
</g>
<g clip-path="url(#clip3_133_9351)">
<g clip-path="url(#clip4_133_9351)">
<path d="M33.6783 13.9551H19.4776C18.1705 13.9551 17.1108 15.0147 17.1108 16.3219C17.1108 16.7576 17.464 17.1108 17.8998 17.1108C18.3355 17.1108 18.6887 16.7576 18.6887 16.3219C18.6887 15.8861 19.0419 15.5329 19.4776 15.5329H33.6783C34.114 15.5329 34.4672 15.8861 34.4672 16.3219V30.5225C34.4672 30.9583 34.114 31.3115 33.6783 31.3115C33.2425 31.3115 32.8893 31.6647 32.8893 32.1004C32.8893 32.5361 33.2425 32.8893 33.6783 32.8893C34.9854 32.8893 36.0451 31.8297 36.0451 30.5226V16.3219C36.0451 15.0147 34.9854 13.9551 33.6783 13.9551L33.6783 13.9551Z" fill="#EC631E"/>
</g>
</g>
</g>
<defs>
<clipPath id="clip0_133_9351">
<rect width="22.0902" height="22.0903" fill="white" transform="translate(13.9551 13.9551)"/>
</clipPath>
<clipPath id="clip1_133_9351">
<rect width="18.1453" height="18.1453" fill="white" transform="translate(13.9551 17.9001)"/>
</clipPath>
<clipPath id="clip2_133_9351">
<rect width="18.1453" height="18.1453" fill="white" transform="translate(13.9551 17.9001)"/>
</clipPath>
<clipPath id="clip3_133_9351">
<rect width="18.9342" height="18.9343" fill="white" transform="translate(17.1108 13.9551)"/>
</clipPath>
<clipPath id="clip4_133_9351">
<rect width="18.9342" height="18.9343" fill="white" transform="translate(17.1108 13.9551)"/>
</clipPath>
</defs>
</svg>
