<svg width="25" height="25" viewBox="0 0 25 25" fill="none" xmlns="http://www.w3.org/2000/svg">
<rect x="0.5" y="0.5" width="24" height="24" stroke="#6F6E6D"/>
<path d="M21.5542 13.0007C21.5542 10.0557 21.5542 7.11066 21.5542 4.16616C21.5542 3.74616 21.4494 3.63916 21.0372 3.63916C15.3469 3.63916 9.65613 3.63916 3.96585 3.63916C3.54634 3.63916 3.44689 3.74366 3.44689 4.18316C3.44689 10.0607 3.44689 15.9377 3.44689 21.8152C3.44689 22.2612 3.54489 22.3612 3.98227 22.3612C9.66675 22.3612 15.3512 22.3612 21.0357 22.3612C21.4543 22.3612 21.5547 22.2562 21.5547 21.8172C21.5542 18.8782 21.5542 15.9397 21.5542 13.0007ZM4.17923 7.39666C9.73579 7.39666 15.2783 7.39666 20.8156 7.39666C20.8156 12.1417 20.8156 16.8737 20.8156 21.6022C15.2634 21.6022 9.72517 21.6022 4.17923 21.6022C4.17923 16.8652 4.17923 12.1377 4.17923 7.39666ZM4.17972 4.40066C9.73579 4.40066 15.2779 4.40066 20.8156 4.40066C20.8156 5.15166 20.8156 5.89016 20.8156 6.62516C15.2634 6.62516 9.72565 6.62516 4.17972 6.62516C4.17972 5.88216 4.17972 5.14816 4.17972 4.40066Z" fill="#FCFBFF"/>
<path d="M8.87769 12.3827C9.78673 13.6832 11.5618 13.7137 12.5018 12.3862C12.9502 13.0097 13.5402 13.3682 14.2971 13.3717C15.057 13.3752 15.6522 13.0267 16.1157 12.3852C16.1533 12.4302 16.1881 12.4677 16.2195 12.5087C16.8007 13.2662 17.7643 13.5662 18.6231 13.2562C19.5187 12.9327 20.1004 12.0977 20.1038 11.1217C20.1067 10.2792 20.1052 9.43719 20.1042 8.59469C20.1038 8.26419 19.9753 8.13319 19.6509 8.13319C14.8837 8.13269 10.116 8.13269 5.34873 8.13319C5.02431 8.13319 4.89493 8.26419 4.89493 8.59419C4.89397 9.43019 4.893 10.2662 4.89493 11.1027C4.89735 12.0932 5.48583 12.9472 6.37507 13.2577C7.25948 13.5667 8.20762 13.2627 8.80142 12.4797C8.82218 12.4507 8.84486 12.4237 8.87769 12.3827ZM16.4864 8.89469C17.4602 8.89469 18.4151 8.89469 19.3762 8.89469C19.3762 9.68669 19.398 10.4662 19.37 11.2442C19.3429 12.0122 18.6864 12.6212 17.9405 12.6252C17.184 12.6292 16.5212 12.0227 16.4927 11.2447C16.4638 10.4672 16.4864 9.68719 16.4864 8.89469ZM15.7411 8.89019C15.7488 8.91569 15.7556 8.92719 15.7556 8.93819C15.757 9.65519 15.7599 10.3727 15.7575 11.0897C15.7541 11.9577 15.1193 12.6272 14.3058 12.6252C13.4933 12.6237 12.8653 11.9542 12.8614 11.0817C12.8585 10.4017 12.8609 9.72219 12.8609 9.04219C12.8609 8.99419 12.8609 8.94619 12.8609 8.88969C13.8303 8.89019 14.7813 8.89019 15.7411 8.89019ZM12.1339 8.88919C12.1339 9.68369 12.1358 10.4567 12.1315 11.2297C12.131 11.3337 12.1054 11.4402 12.0769 11.5412C11.8819 12.2407 11.2128 12.7052 10.5311 12.6177C9.79735 12.5237 9.25038 11.9077 9.24218 11.1472C9.23445 10.4302 9.23976 9.71269 9.24073 8.99569C9.24073 8.96069 9.24942 8.92569 9.25424 8.88969C10.2154 8.88919 11.166 8.88919 12.1339 8.88919ZM8.51273 8.88969C8.51273 9.67819 8.51514 10.4452 8.51031 11.2122C8.50983 11.3227 8.48473 11.4352 8.4548 11.5422C8.25976 12.2422 7.59018 12.7057 6.90852 12.6177C6.17424 12.5232 5.62873 11.9072 5.62052 11.1462C5.6128 10.4292 5.61811 9.71169 5.61907 8.99469C5.61907 8.95969 5.62824 8.92469 5.63307 8.88969C6.59473 8.88969 7.54528 8.88969 8.51273 8.88969Z" fill="#FCFBFF"/>
<path d="M9.06618 5.88379C9.13231 5.88379 9.19845 5.88929 9.26411 5.88279C9.45866 5.86429 9.6001 5.70679 9.60155 5.51379C9.603 5.31379 9.45576 5.15179 9.25155 5.13929C9.12604 5.13179 8.99907 5.13229 8.87356 5.13879C8.66839 5.14979 8.5197 5.30879 8.51825 5.50829C8.5168 5.70829 8.66452 5.86779 8.86873 5.88329C8.93438 5.88829 9.00052 5.88429 9.06666 5.88429C9.06618 5.88429 9.06618 5.88429 9.06618 5.88379Z" fill="#FCFBFF"/>
<path d="M7.25903 5.88348C7.32517 5.88348 7.39179 5.88898 7.45696 5.88248C7.65103 5.86348 7.792 5.70498 7.79297 5.51198C7.79345 5.31898 7.65248 5.15598 7.45938 5.14048C7.33386 5.13048 7.20738 5.13348 7.08137 5.13798C6.86413 5.14598 6.71013 5.30298 6.70965 5.50998C6.70916 5.71648 6.86268 5.87348 7.07944 5.88448C7.13931 5.88748 7.19965 5.88498 7.25951 5.88498C7.25903 5.88448 7.25903 5.88398 7.25903 5.88348Z" fill="#FCFBFF"/>
<path d="M5.45134 5.88167C5.52327 5.88167 5.59617 5.89017 5.66714 5.88017C5.8501 5.85467 5.98238 5.69317 5.98045 5.50767C5.97852 5.32217 5.84383 5.15967 5.65989 5.14317C5.517 5.13067 5.3712 5.13117 5.22831 5.14167C5.03568 5.15617 4.8952 5.32317 4.89713 5.51567C4.89906 5.70867 5.04148 5.86567 5.23603 5.88317C5.30748 5.88967 5.37989 5.88417 5.45182 5.88417C5.45134 5.88317 5.45134 5.88217 5.45134 5.88167Z" fill="#FCFBFF"/>
</svg>
