<svg xmlns="http://www.w3.org/2000/svg" width="16.41" height="16.41" viewBox="0 0 16.41 16.41"><g transform="translate(-1.417 -1.417)"><path d="M9.622,1.417a8.205,8.205,0,1,0,8.205,8.205A8.214,8.214,0,0,0,9.622,1.417Zm0,15.5a7.293,7.293,0,1,1,7.293-7.293A7.3,7.3,0,0,1,9.622,16.915Z" fill="#636262"/><path d="M14.226,6.868,9.069,8.8a.455.455,0,0,0-.267.267L6.868,14.226a.456.456,0,0,0,.427.616.461.461,0,0,0,.16-.029l5.157-1.934a.459.459,0,0,0,.267-.267l1.934-5.157a.456.456,0,0,0-.588-.587ZM12.1,12.1,8.073,13.607,9.582,9.582l4.025-1.509Z" transform="translate(-1.218 -1.218)" fill="#636262"/></g></svg>