<svg width="418" height="192" viewBox="0 0 418 192" fill="none" xmlns="http://www.w3.org/2000/svg">
<path d="M3.3687 183.112C1.93209 180.966 0.899766 178.527 0.38068 175.903L1.36167 175.709C1.1245 174.51 1 173.27 1 172V168.545H0V161.636H1V154.727H0V147.818H1V140.909H0V134H1V127.091H0V120.182H1V113.273H0V106.364H1V99.4545H0V92.5455H1V85.6364H0V78.7273H1V71.8182H0V64.9091H1V58H0V51.0909H1V44.1818H0V37.2727H1V30.3636H0V23.4545H1V20C1 18.7298 1.1245 17.4897 1.36167 16.2908L0.380681 16.0968C0.899766 13.4729 1.93209 11.0335 3.36869 8.88769L4.19966 9.44401C5.5871 7.3716 7.3716 5.58711 9.44401 4.19966L8.88769 3.36869C11.0335 1.93209 13.4729 0.899767 16.0968 0.380681L16.2908 1.36167C17.4897 1.1245 18.7298 1 20 1H23.5V0H30.5V1H37.5V0H44.5V1H51.5V0H58.5V1H65.5V0H72.5V1H79.5V0H86.5V1H93.5V0H100.5V1H107.5V0H114.5V1H121.5V0H128.5V1H135.5V0H142.5V1H149.5V0H156.5V1H163.5V0H170.5V1H177.5V0H184.5V1H191.5V0H198.5V1H205.5V0H212.5V1H219.5V0H226.5V1H233.5V0H240.5V1H247.5V0H254.5V1H261.5V0H268.5V1H275.5V0H282.5V1H289.5V0H296.5V1H303.5V0H310.5V1H317.5V0H324.5V1H331.5V0H338.5V1H345.5V0H352.5V1H359.5V0H366.5V1H373.5V0H380.5V1H387.5V0H394.5V1H398C399.27 1 400.51 1.1245 401.709 1.36167L401.903 0.380682C404.527 0.899769 406.966 1.9321 409.112 3.3687L408.556 4.19966C410.628 5.5871 412.413 7.3716 413.8 9.44401L414.631 8.88768C416.068 11.0335 417.1 13.4729 417.619 16.0968L416.638 16.2908C416.875 17.4897 417 18.7298 417 20V23.4546H418V30.3637H417V37.2727H418V44.1818H417V51.0909H418V58H417V64.9091H418V71.8182H417V78.7273H418V85.6364H417V92.5455H418V99.4545H417V106.364H418V113.273H417V120.182H418V127.091H417V134H418V140.909H417V147.818H418V154.727H417V161.636H418V168.545H417V172C417 173.27 416.875 174.51 416.638 175.709L417.619 175.903C417.1 178.527 416.068 180.966 414.631 183.112L413.8 182.556C412.413 184.628 410.628 186.413 408.556 187.8L409.112 188.631C406.966 190.068 404.527 191.1 401.903 191.619L401.709 190.638C400.51 190.876 399.27 191 398 191H394.5V192H387.5V191H380.5V192H373.5V191H366.5V192H359.5V191H352.5V192H345.5V191H338.5V192H331.5V191H324.5V192H317.5V191H310.5V192H303.5V191H296.5V192H289.5V191H282.5V192H275.5V191H268.5V192H261.5V191H254.5V192H247.5V191H240.5V192H233.5V191H226.5V192H219.5V191H212.5V192H205.5V191H198.5V192H191.5V191H184.5V192H177.5V191H170.5V192H163.5V191H156.5V192H149.5V191H142.5V192H135.5V191H128.5V192H121.5V191H114.5V192H107.5V191H100.5V192H93.5V191H86.5V192H79.5V191H72.5V192H65.5V191H58.5V192H51.5V191H44.5V192H37.5V191H30.5V192H23.5V191H20C18.7298 191 17.4897 190.876 16.2908 190.638L16.0968 191.619C13.4729 191.1 11.0335 190.068 8.88769 188.631L9.44401 187.8C7.3716 186.413 5.58711 184.628 4.19966 182.556L3.3687 183.112Z" fill="#F6B696" fill-opacity="0.05" stroke="#EC631E" stroke-width="2" stroke-dasharray="7 7"/>
</svg>
