<svg width="50" height="50" viewBox="0 0 50 50" fill="none" xmlns="http://www.w3.org/2000/svg">
<path d="M42.5616 24.6414C42.4797 23.8556 42.245 23.0706 41.9133 22.3574C41.6051 21.6947 41.194 21.0792 40.6985 20.5421C40.2097 20.0118 39.6382 19.5574 39.011 19.1999C38.3737 18.8365 37.6806 18.5743 36.9631 18.4225C36.5368 18.3323 36.102 18.2801 35.6656 18.2674C35.5939 18.2649 35.5221 18.2564 35.4529 18.2505C34.9 13.6176 30.9484 10.1845 26.3731 10.1853C21.7234 10.1861 17.8259 13.691 17.3026 18.1637C16.5107 18.3264 15.7088 18.3947 14.9777 18.6586C13.8871 19.0532 12.8656 19.6535 12.0637 20.4983C11.2812 21.322 10.7468 22.3439 10.4429 23.434C9.86719 25.4997 10.2699 27.7238 11.5192 29.4724C12.2866 30.5465 13.3637 31.388 14.5869 31.8837C15.4083 32.2168 16.2913 32.393 17.1776 32.3997C18.8651 32.414 20.5534 32.4048 22.2418 32.4022C22.8816 32.4014 23.3375 31.9706 23.3333 31.3846C23.329 30.7986 22.8749 30.3855 22.2257 30.3847C20.5796 30.383 18.9343 30.3889 17.2882 30.383C14.3564 30.3712 12.0932 28.0189 12.1954 25.0992C12.2857 22.5125 14.4983 20.3389 17.0957 20.2884C17.4545 20.2816 17.8133 20.2875 18.172 20.285C18.8626 20.2799 19.2686 19.8794 19.2838 19.1898C19.3564 15.8536 21.6112 13.105 24.8831 12.3648C28.8997 11.4567 32.9778 14.3604 33.4075 18.436C33.4362 18.7075 33.4522 18.9807 33.4632 19.2539C33.4885 19.8651 33.8988 20.2774 34.5125 20.2833C35.3026 20.2917 36.0919 20.2538 36.8685 20.4722C39.163 21.1188 40.7188 23.3219 40.5457 25.6986C40.3735 28.0653 38.529 30.0339 36.1814 30.324C35.6715 30.3872 35.1507 30.3788 34.6349 30.3813C33.2741 30.3889 31.9133 30.383 30.5517 30.3838C29.8772 30.3847 29.4171 30.7919 29.4129 31.3863C29.4095 31.9824 29.8696 32.4014 30.5373 32.4022C32.1725 32.4039 33.8076 32.4081 35.4428 32.4014C36.1949 32.3989 36.9462 32.285 37.6637 32.0566C38.3543 31.8365 39.0093 31.5111 39.6002 31.092C40.1853 30.6772 40.7053 30.173 41.1366 29.6014C41.5773 29.018 41.9251 28.3654 42.1682 27.6757C42.4873 26.7694 42.646 25.7914 42.5768 24.8311C42.5742 24.7678 42.5683 24.7046 42.5616 24.6414Z" fill="#EC631E"/>
<path d="M25.3698 37.2044C24.5512 36.3705 23.8089 35.6022 23.0531 34.8494C22.466 34.265 21.5431 34.5101 21.3361 35.2949C21.2411 35.6557 21.3149 35.9907 21.5711 36.2522C22.9445 37.6585 24.3204 39.0622 25.7091 40.453C26.1019 40.8458 26.694 40.8328 27.0877 40.4366C28.4585 39.0588 29.8226 37.6724 31.1799 36.2807C31.5897 35.8612 31.5744 35.2336 31.1791 34.8296C30.7846 34.4264 30.1671 34.4109 29.7505 34.8235C29.0515 35.5141 28.3686 36.2212 27.6781 36.9204C27.6068 36.9929 27.5296 37.0603 27.4058 37.176C27.4058 36.9999 27.4058 36.8859 27.4058 36.7728C27.4058 32.6385 27.4066 28.5043 27.4041 24.3708C27.4041 24.2111 27.3981 24.0454 27.3557 23.8934C27.2192 23.3988 26.7543 23.094 26.2631 23.1562C25.7897 23.2166 25.4114 23.6198 25.3741 24.1093C25.3647 24.2267 25.3698 24.3458 25.3698 24.4641C25.3698 28.5656 25.3698 32.6679 25.3698 36.7694C25.3698 36.8833 25.3698 36.9973 25.3698 37.2044Z" fill="#EC631E"/>
</svg>
