<svg width="52" height="52" viewBox="0 0 52 52" fill="none" xmlns="http://www.w3.org/2000/svg">
<g filter="url(#filter0_d_769_59717)">
<path d="M26 3C37.0457 3 46 11.9543 46 23C46 34.0457 37.0457 43 26 43C14.9543 43 6 34.0457 6 23C6 11.9543 14.9543 3 26 3Z" fill="#EC631E"/>
</g>
<path d="M37.9773 22.6794C37.9177 22.1074 37.7468 21.5359 37.5053 21.0167C37.281 20.5342 36.9817 20.0861 36.6209 19.6952C36.2651 19.3091 35.8491 18.9782 35.3924 18.718C34.9285 18.4534 34.4239 18.2626 33.9015 18.1521C33.5912 18.0864 33.2747 18.0483 32.9569 18.0391C32.9047 18.0373 32.8525 18.0312 32.8021 18.0269C32.3995 14.654 29.5228 12.1547 26.1919 12.1553C22.8069 12.1559 19.9695 14.7074 19.5884 17.9636C19.012 18.0821 18.4282 18.1318 17.8959 18.3239C17.1019 18.6112 16.3583 19.0482 15.7745 19.6632C15.2048 20.2629 14.8158 21.0068 14.5945 21.8005C14.1754 23.3043 14.4686 24.9235 15.3781 26.1965C15.9367 26.9785 16.7209 27.5911 17.6114 27.952C18.2094 28.1944 18.8522 28.3227 19.4975 28.3276C20.726 28.338 21.9551 28.3313 23.1842 28.3294C23.6501 28.3288 23.9819 28.0152 23.9789 27.5886C23.9758 27.162 23.6451 26.8612 23.1726 26.8606C21.9742 26.8594 20.7764 26.8637 19.578 26.8594C17.4436 26.8508 15.796 25.1383 15.8704 23.0127C15.9361 21.1296 17.5469 19.5472 19.4379 19.5104C19.6991 19.5055 19.9603 19.5098 20.2214 19.508C20.7241 19.5043 21.0198 19.2127 21.0308 18.7106C21.0837 16.2818 22.7252 14.2809 25.1072 13.7419C28.0313 13.0809 31.0002 15.1948 31.313 18.1619C31.3339 18.3595 31.3456 18.5584 31.3536 18.7573C31.372 19.2023 31.6707 19.5024 32.1175 19.5067C32.6927 19.5129 33.2673 19.4852 33.8327 19.6442C35.5031 20.115 36.6357 21.7189 36.5097 23.4491C36.3843 25.1721 35.0415 26.6053 33.3324 26.8164C32.9612 26.8625 32.5821 26.8563 32.2066 26.8582C31.2159 26.8637 30.2252 26.8594 29.2339 26.86C28.7429 26.8606 28.408 27.1571 28.4049 27.5898C28.4024 28.0238 28.7374 28.3288 29.2235 28.3294C30.4139 28.3307 31.6043 28.3337 32.7947 28.3288C33.3423 28.327 33.8892 28.2441 34.4116 28.0778C34.9143 27.9176 35.3912 27.6807 35.8214 27.3756C36.2473 27.0736 36.6259 26.7066 36.9399 26.2904C37.2607 25.8657 37.5139 25.3906 37.6909 24.8885C37.9232 24.2287 38.0387 23.5167 37.9883 22.8175C37.9865 22.7715 37.9822 22.7255 37.9773 22.6794Z" fill="#F7F7F7"/>
<path d="M25.4608 31.8254C24.8649 31.2183 24.3245 30.6589 23.7742 30.1109C23.3468 29.6854 22.6749 29.8639 22.5242 30.4352C22.455 30.6979 22.5088 30.9418 22.6953 31.1322C23.6951 32.156 24.6969 33.1779 25.7079 34.1904C25.9938 34.4763 26.4249 34.4669 26.7114 34.1784C27.7094 33.1754 28.7025 32.166 29.6907 31.1529C29.989 30.8475 29.9778 30.3906 29.69 30.0964C29.4029 29.8029 28.9533 29.7916 28.65 30.092C28.1411 30.5948 27.644 31.1096 27.1413 31.6186C27.0894 31.6714 27.0332 31.7204 26.943 31.8047C26.943 31.6764 26.943 31.5935 26.943 31.5112C26.943 28.5014 26.9436 25.4916 26.9418 22.4824C26.9418 22.3661 26.9375 22.2455 26.9066 22.1348C26.8072 21.7747 26.4687 21.5529 26.1111 21.5981C25.7665 21.6421 25.4911 21.9356 25.4639 22.292C25.4571 22.3774 25.4608 22.4642 25.4608 22.5503C25.4608 25.5362 25.4608 28.5227 25.4608 31.5086C25.4608 31.5916 25.4608 31.6746 25.4608 31.8254Z" fill="#F7F7F7"/>
<defs>
<filter id="filter0_d_769_59717" x="0" y="0" width="52" height="52" filterUnits="userSpaceOnUse" color-interpolation-filters="sRGB">
<feFlood flood-opacity="0" result="BackgroundImageFix"/>
<feColorMatrix in="SourceAlpha" type="matrix" values="0 0 0 0 0 0 0 0 0 0 0 0 0 0 0 0 0 0 127 0" result="hardAlpha"/>
<feOffset dy="3"/>
<feGaussianBlur stdDeviation="3"/>
<feColorMatrix type="matrix" values="0 0 0 0 0.717647 0 0 0 0 0.717647 0 0 0 0 0.717647 0 0 0 1 0"/>
<feBlend mode="normal" in2="BackgroundImageFix" result="effect1_dropShadow_769_59717"/>
<feBlend mode="normal" in="SourceGraphic" in2="effect1_dropShadow_769_59717" result="shape"/>
</filter>
</defs>
</svg>
