<svg width="52" height="54" viewBox="0 0 52 54" fill="none" xmlns="http://www.w3.org/2000/svg">
<g filter="url(#filter0_d_797_48429)">
<path d="M26 5C37.0457 5 46 13.9543 46 25C46 36.0457 37.0457 45 26 45C14.9543 45 6 36.0457 6 25C6 13.9543 14.9543 5 26 5Z" fill="#EC631E"/>
</g>
<path d="M37.9773 24.6794C37.9177 24.1074 37.7468 23.5359 37.5053 23.0167C37.281 22.5342 36.9817 22.0861 36.6209 21.6952C36.2651 21.3091 35.8491 20.9782 35.3924 20.718C34.9285 20.4534 34.4239 20.2626 33.9015 20.1521C33.5912 20.0864 33.2747 20.0483 32.9569 20.0391C32.9047 20.0373 32.8525 20.0312 32.8021 20.0269C32.3995 16.654 29.5228 14.1547 26.1919 14.1553C22.8069 14.1559 19.9695 16.7074 19.5884 19.9636C19.012 20.0821 18.4282 20.1318 17.8959 20.3239C17.1019 20.6112 16.3583 21.0482 15.7745 21.6632C15.2048 22.2629 14.8158 23.0068 14.5945 23.8005C14.1754 25.3043 14.4686 26.9235 15.3781 28.1965C15.9367 28.9785 16.7209 29.5911 17.6114 29.952C18.2094 30.1944 18.8522 30.3227 19.4975 30.3276C20.726 30.338 21.9551 30.3313 23.1842 30.3294C23.6501 30.3288 23.9819 30.0152 23.9789 29.5886C23.9758 29.162 23.6451 28.8612 23.1726 28.8606C21.9742 28.8594 20.7764 28.8637 19.578 28.8594C17.4436 28.8508 15.796 27.1383 15.8704 25.0127C15.9361 23.1296 17.5469 21.5472 19.4379 21.5104C19.6991 21.5055 19.9603 21.5098 20.2214 21.508C20.7241 21.5043 21.0198 21.2127 21.0308 20.7106C21.0837 18.2818 22.7252 16.2809 25.1072 15.7419C28.0313 15.0809 31.0002 17.1948 31.313 20.1619C31.3339 20.3595 31.3456 20.5584 31.3536 20.7573C31.372 21.2023 31.6707 21.5024 32.1175 21.5067C32.6927 21.5129 33.2673 21.4852 33.8327 21.6442C35.5031 22.115 36.6357 23.7189 36.5097 25.4491C36.3843 27.1721 35.0415 28.6053 33.3324 28.8164C32.9612 28.8625 32.5821 28.8563 32.2066 28.8582C31.2159 28.8637 30.2252 28.8594 29.2339 28.86C28.7429 28.8606 28.408 29.1571 28.4049 29.5898C28.4024 30.0238 28.7374 30.3288 29.2235 30.3294C30.4139 30.3307 31.6043 30.3337 32.7947 30.3288C33.3423 30.327 33.8892 30.2441 34.4116 30.0778C34.9143 29.9176 35.3912 29.6807 35.8214 29.3756C36.2473 29.0736 36.6259 28.7066 36.9399 28.2904C37.2607 27.8657 37.5139 27.3906 37.6909 26.8885C37.9232 26.2287 38.0387 25.5167 37.9883 24.8175C37.9865 24.7715 37.9822 24.7255 37.9773 24.6794Z" fill="#F7F7F7"/>
<path d="M25.4608 33.8254C24.8649 33.2183 24.3245 32.6589 23.7742 32.1109C23.3468 31.6854 22.6749 31.8639 22.5242 32.4352C22.455 32.6979 22.5088 32.9418 22.6953 33.1322C23.6951 34.156 24.6969 35.1779 25.7079 36.1904C25.9938 36.4763 26.4249 36.4669 26.7114 36.1784C27.7094 35.1754 28.7025 34.166 29.6907 33.1529C29.989 32.8475 29.9778 32.3906 29.69 32.0964C29.4029 31.8029 28.9533 31.7916 28.65 32.092C28.1411 32.5948 27.644 33.1096 27.1413 33.6186C27.0894 33.6714 27.0332 33.7204 26.943 33.8047C26.943 33.6764 26.943 33.5935 26.943 33.5112C26.943 30.5014 26.9436 27.4916 26.9418 24.4824C26.9418 24.3661 26.9375 24.2455 26.9066 24.1348C26.8072 23.7747 26.4687 23.5529 26.1111 23.5981C25.7665 23.6421 25.4911 23.9356 25.4639 24.292C25.4571 24.3774 25.4608 24.4642 25.4608 24.5503C25.4608 27.5362 25.4608 30.5227 25.4608 33.5086C25.4608 33.5916 25.4608 33.6746 25.4608 33.8254Z" fill="#F7F7F7"/>
<defs>
<filter id="filter0_d_797_48429" x="0" y="2" width="52" height="52" filterUnits="userSpaceOnUse" color-interpolation-filters="sRGB">
<feFlood flood-opacity="0" result="BackgroundImageFix"/>
<feColorMatrix in="SourceAlpha" type="matrix" values="0 0 0 0 0 0 0 0 0 0 0 0 0 0 0 0 0 0 127 0" result="hardAlpha"/>
<feOffset dy="3"/>
<feGaussianBlur stdDeviation="3"/>
<feColorMatrix type="matrix" values="0 0 0 0 0.717647 0 0 0 0 0.717647 0 0 0 0 0.717647 0 0 0 1 0"/>
<feBlend mode="normal" in2="BackgroundImageFix" result="effect1_dropShadow_797_48429"/>
<feBlend mode="normal" in="SourceGraphic" in2="effect1_dropShadow_797_48429" result="shape"/>
</filter>
</defs>
</svg>
