<svg width="52" height="52" viewBox="0 0 52 52" fill="none" xmlns="http://www.w3.org/2000/svg">
<g filter="url(#filter0_d_0_1)">
<path d="M26 3C37.0457 3 46 11.9543 46 23C46 34.0457 37.0457 43 26 43C14.9543 43 6 34.0457 6 23C6 11.9543 14.9543 3 26 3Z" fill="#EC631E"/>
</g>
<path fill-rule="evenodd" clip-rule="evenodd" d="M16 17.2013V28.5265C16 29.1426 16.451 29.6419 17.0723 29.6419H34.7471C35.3677 29.6419 35.8194 29.1368 35.8194 28.5265V17.2013C35.8194 16.5252 35.4155 16 34.7471 16H17.0723C16.3781 16 16 16.5381 16 17.2013ZM17.6297 18.1877C17.6297 17.9148 17.7948 17.7587 18.0587 17.7587C18.2219 17.7587 24.6445 21.8284 25.0335 22.0671L26.0387 22.6923C26.3574 22.4787 26.6774 22.2961 27.0077 22.0748C27.6819 21.6439 33.6806 17.7587 33.8458 17.7587C34.1103 17.7587 34.2748 17.9148 34.2748 18.1877C34.2748 18.4768 33.7181 18.7639 33.3555 18.9852C31.0774 20.3735 28.8 21.8871 26.5445 23.3271C26.4129 23.4161 26.1581 23.6065 25.9671 23.5774C25.7542 23.5445 19.2187 19.3458 18.0297 18.6465C17.851 18.5413 17.6297 18.4452 17.6297 18.1877Z" fill="white"/>
<defs>
<filter id="filter0_d_0_1" x="0" y="0" width="52" height="52" filterUnits="userSpaceOnUse" color-interpolation-filters="sRGB">
<feFlood flood-opacity="0" result="BackgroundImageFix"/>
<feColorMatrix in="SourceAlpha" type="matrix" values="0 0 0 0 0 0 0 0 0 0 0 0 0 0 0 0 0 0 127 0" result="hardAlpha"/>
<feOffset dy="3"/>
<feGaussianBlur stdDeviation="3"/>
<feColorMatrix type="matrix" values="0 0 0 0 0.717647 0 0 0 0 0.717647 0 0 0 0 0.717647 0 0 0 1 0"/>
<feBlend mode="normal" in2="BackgroundImageFix" result="effect1_dropShadow_0_1"/>
<feBlend mode="normal" in="SourceGraphic" in2="effect1_dropShadow_0_1" result="shape"/>
</filter>
</defs>
</svg>
