<svg width="146" height="120" viewBox="0 0 146 120" fill="none" xmlns="http://www.w3.org/2000/svg">
<path opacity="0.4" d="M0.0605469 67.6899C-1.53609 88.947 28.6401 108.556 67.461 111.488C106.282 114.42 139.047 99.5645 140.644 78.3076C140.902 74.8719 140.329 71.479 139.024 68.1931C136.7 62.344 136.497 55.8671 138.321 49.8419C139.069 47.3716 139.578 44.7896 139.821 42.1214C141.77 20.7237 125.746 1.7243 104.379 0.110916C88.3315 -1.10158 73.8444 7.73483 67.0573 21.3211C63.3301 28.7821 56.2802 34.0517 48.0282 35.1335C21.1496 38.6567 1.29501 51.2601 0.0605558 67.6899H0.0605469Z" fill="url(#paint0_linear_148_2478)"/>
<path d="M84.3424 116.689C84.1776 116.689 84.0129 116.626 83.8868 116.5C83.6351 116.248 83.6351 115.838 83.8868 115.586L85.1755 114.294C85.4272 114.041 85.8352 114.041 86.0869 114.294C86.3388 114.546 86.3388 114.955 86.0869 115.208L84.7981 116.5C84.6723 116.626 84.5074 116.689 84.3424 116.689L84.3424 116.689Z" fill="#EC631E"/>
<path d="M136.964 29.8847C136.799 29.8847 136.634 29.8215 136.508 29.6954C136.256 29.443 136.256 29.0341 136.508 28.7817L137.797 27.4894C138.049 27.2373 138.457 27.2373 138.708 27.4894C138.96 27.7418 138.96 28.1512 138.708 28.4029L137.419 29.6954C137.294 29.8215 137.129 29.8847 136.964 29.8847Z" fill="#F6B696"/>
<path d="M145.356 55.9274C145.191 55.9274 145.026 55.8641 144.9 55.7378L144.067 54.9027L143.234 55.7378C142.982 55.9902 142.574 55.9902 142.323 55.7378C142.071 55.4855 142.071 55.0767 142.323 54.8244L143.611 53.532C143.863 53.2797 144.271 53.2797 144.523 53.532L145.812 54.8244C146.063 55.0767 146.063 55.4855 145.812 55.7378C145.686 55.8641 145.521 55.9274 145.356 55.9274H145.356Z" fill="#F6B696"/>
<path d="M70.8218 120C70.6567 120 70.4919 119.937 70.3661 119.811L69.5329 118.976L68.6999 119.811C68.4484 120.063 68.0403 120.063 67.7886 119.811C67.5369 119.559 67.5369 119.15 67.7886 118.897L69.0773 117.605C69.3291 117.352 69.737 117.352 69.9888 117.605L71.2776 118.897C71.5292 119.15 71.5292 119.559 71.2776 119.811C71.1515 119.937 70.9869 120 70.8218 120H70.8218Z" fill="#EC631E"/>
<path d="M124.199 49.8637C124.034 49.8637 123.869 49.8006 123.744 49.6741L122.911 48.839L122.078 49.6741C121.826 49.9269 121.418 49.9269 121.166 49.6741C120.915 49.422 120.915 49.0132 121.166 48.7609L122.455 47.4686C122.707 47.2162 123.114 47.2162 123.366 47.4686L124.655 48.7609C124.907 49.0132 124.907 49.422 124.655 49.6741C124.529 49.8006 124.364 49.8637 124.199 49.8637H124.199Z" fill="#F6B696"/>
<path fill-rule="evenodd" clip-rule="evenodd" d="M113.256 12.907C112.38 12.907 111.505 12.5724 110.838 11.9041C109.505 10.5677 109.505 8.39291 110.838 7.05632C112.171 5.71951 114.341 5.71951 115.674 7.05632C117.007 8.39291 117.007 10.5677 115.674 11.9041C115.007 12.5724 114.132 12.907 113.256 12.907ZM113.256 8.41674C112.984 8.41674 112.713 8.52035 112.506 8.72799C112.092 9.14285 112.092 9.81769 112.506 10.2325C112.919 10.6474 113.593 10.6474 114.006 10.2325C114.42 9.8179 114.42 9.14284 114.006 8.72799C113.799 8.52035 113.528 8.41674 113.256 8.41674Z" fill="#F6B696"/>
<path fill-rule="evenodd" clip-rule="evenodd" d="M119.183 24.4656C118.308 24.4656 117.432 24.1312 116.766 23.4631C116.12 22.8153 115.764 21.9546 115.764 21.0388C115.764 20.1232 116.12 19.2623 116.766 18.6149C118.099 17.2783 120.268 17.2779 121.601 18.6149C122.247 19.2623 122.602 20.1232 122.602 21.0388C122.602 21.9547 122.247 22.8155 121.601 23.4631C120.935 24.1312 120.059 24.4656 119.183 24.4656ZM119.183 19.9757C118.912 19.9757 118.64 20.0791 118.433 20.2865C118.232 20.4874 118.122 20.7548 118.122 21.0388C118.122 21.3232 118.233 21.5902 118.433 21.7913C118.847 22.2061 119.52 22.2061 119.934 21.7913C120.134 21.5902 120.245 21.3232 120.245 21.0388C120.245 20.7548 120.134 20.4874 119.934 20.2865C119.727 20.0791 119.455 19.9757 119.183 19.9757Z" fill="#EC631E"/>
<path opacity="0.66" fill-rule="evenodd" clip-rule="evenodd" d="M18.7029 69.6794C17.8273 69.6794 16.9517 69.3453 16.2854 68.677C14.9524 67.3404 14.9524 65.1654 16.2854 63.8288C17.6182 62.4926 19.7875 62.4926 21.1205 63.8288C22.4533 65.1658 22.4533 67.3406 21.1205 68.677C20.454 69.3453 19.5785 69.6794 18.7029 69.6794ZM18.7028 65.1894C18.4313 65.1894 18.1594 65.2932 17.9526 65.5009C17.5388 65.9157 17.5388 66.5906 17.9526 67.0054C18.3662 67.4205 19.0395 67.4202 19.4532 67.0054C19.867 66.5908 19.867 65.9157 19.4532 65.5009C19.2463 65.2932 18.9746 65.1894 18.7028 65.1894Z" fill="#F6B696"/>
<path opacity="0.66" d="M17.1839 80.3044C16.882 80.3044 16.5806 80.1888 16.3501 79.9582L14.9439 78.5479L13.5376 79.9582C13.077 80.4197 12.3309 80.4197 11.8703 79.9582C11.4098 79.4967 11.4098 78.7477 11.8703 78.2862L14.1104 76.0405C14.5709 75.579 15.3172 75.579 15.7776 76.0405L18.0175 78.2862C18.478 78.7481 18.478 79.4969 18.0175 79.9582C17.7873 80.1888 17.4857 80.3044 17.1839 80.3044Z" fill="#F6B696"/>
<path d="M47.7382 93.7013H36.238V69.4751V60.9512L38.6278 49.0615L49.6158 36.3185L60.2824 32.443L77.697 31.5933L91.2001 32.443L101.475 36.3185L109.621 41.4991L114.198 50.009L117.198 59.6042V81.2497V92.9824H105.279L47.7382 93.7013Z" fill="white" stroke="#6F6E6D"/>
<path d="M92.6116 81.2773H104.502V92.7326V95.5559L103.279 97.7457L100.744 99.803L98.6997 100.389H94.5746L91.4131 93.8494V89.857V84.2925L92.6116 81.2773Z" fill="#EC631E"/>
<path d="M48.9366 81.2773H60.8265V92.7326V95.5559L59.6036 97.7457L57.0694 99.803L55.0247 100.389H50.8995L47.738 93.8494V89.857V84.2925L48.9366 81.2773Z" fill="#EC631E"/>
<path fill-rule="evenodd" clip-rule="evenodd" d="M118.914 91.8872V62.7182C118.914 44.6848 104.277 30.0137 86.2871 30.0137H66.9147C48.9245 30.0137 34.2877 44.6848 34.2877 62.7182V91.8872H25.4724V95.4228H36.0507H39.5768H46.7172C47.1615 99.388 50.4883 102.494 54.5627 102.494C58.6372 102.494 61.964 99.388 62.4083 95.4228H90.7934C91.236 99.388 94.5646 102.494 98.639 102.494C102.713 102.494 106.04 99.388 106.485 95.4228H113.625H117.151H127.729V91.8872H118.914ZM113.625 91.8871H106.573V81.2802H103.047V91.8871V94.5424C103.047 96.9767 101.07 98.9584 98.639 98.9584C96.2078 98.9584 94.2314 96.9767 94.2314 94.5424V91.8871V81.2802H90.7053V91.8871H62.4965V81.2802H58.9704V91.8871V94.5424C58.9704 96.9767 56.994 98.9584 54.5628 98.9584C52.1315 98.9584 50.1551 96.9767 50.1551 94.5424V91.8871V81.2802H46.629V91.8871H39.5768H37.8138V62.7182C37.8138 46.6346 50.8674 33.5492 66.9147 33.5492H86.2871C102.334 33.5492 115.388 46.6346 115.388 62.7182V91.8871H113.625Z" fill="#6F6E6D"/>
<path d="M65.5061 51.7455C64.8168 51.0542 63.7025 51.0542 63.0132 51.7455L59.852 54.9152L56.6909 51.7455C56.0015 51.0542 54.8873 51.0542 54.1979 51.7455C53.5086 52.4367 53.5086 53.5539 54.1979 54.2452L57.3591 57.4148L54.1979 60.5845C53.5086 61.2757 53.5086 62.393 54.1979 63.0842C54.5417 63.429 54.9931 63.6022 55.4444 63.6022C55.8957 63.6022 56.3471 63.4289 56.6909 63.0842L59.852 59.9145L63.0132 63.0842C63.357 63.4289 63.8083 63.6022 64.2596 63.6022C64.711 63.6022 65.1623 63.4289 65.5061 63.0842C66.1955 62.393 66.1955 61.2757 65.5061 60.5845L62.345 57.4148L65.5061 54.2452C66.1955 53.5539 66.1955 52.4367 65.5061 51.7455L65.5061 51.7455Z" fill="#6F6E6D"/>
<path d="M99.0035 51.7455C98.3141 51.0542 97.1999 51.0542 96.5105 51.7455L93.3493 54.9152L90.1882 51.7455C89.4988 51.0542 88.3846 51.0542 87.6952 51.7455C87.0059 52.4367 87.0059 53.5539 87.6952 54.2452L90.8564 57.4148L87.6952 60.5845C87.0059 61.2757 87.0059 62.393 87.6952 63.0842C88.039 63.429 88.4904 63.6022 88.9417 63.6022C89.3931 63.6022 89.8444 63.4289 90.1882 63.0842L93.3493 59.9145L96.5105 63.0842C96.8543 63.4289 97.3056 63.6022 97.757 63.6022C98.2083 63.6022 98.6596 63.4289 99.0034 63.0842C99.6928 62.393 99.6928 61.2757 99.0034 60.5845L95.8423 57.4148L99.0034 54.2452C99.6928 53.5539 99.6928 52.4367 99.0034 51.7455L99.0035 51.7455Z" fill="#6F6E6D"/>
<defs>
<linearGradient id="paint0_linear_148_2478" x1="70.3522" y1="0" x2="70.3522" y2="111.857" gradientUnits="userSpaceOnUse">
<stop stop-color="#F6B696"/>
<stop offset="1" stop-color="white" stop-opacity="0"/>
</linearGradient>
</defs>
</svg>
