<svg width="26" height="16" viewBox="0 0 26 16" fill="none" xmlns="http://www.w3.org/2000/svg">
<path d="M0.860641 7.58485C0.977491 7.3903 1.07358 7.17914 1.21356 7.00357C2.92123 4.86291 4.90352 3.02772 7.28559 1.65459C8.85386 0.750633 10.5277 0.143845 12.3487 0.0216574C14.0166 -0.090447 15.6128 0.237562 17.1431 0.891801C19.3359 1.82956 21.2114 3.23117 22.8794 4.91332C23.5722 5.61205 24.205 6.37187 24.8451 7.12101C25.2087 7.5463 25.1956 7.89625 24.8486 8.33577C23.1267 10.5174 21.126 12.3893 18.7084 13.7832C16.8103 14.8782 14.7847 15.5395 12.5616 15.4411C11.0355 15.3734 9.59529 14.9618 8.22869 14.2909C5.36024 12.8816 3.06358 10.7866 1.0979 8.30078C0.997658 8.17384 0.938937 8.01369 0.860641 7.86897C0.860641 7.77406 0.860641 7.67916 0.860641 7.58485ZM2.66795 7.74322C3.13773 8.25036 3.57962 8.75453 4.04998 9.23024C5.60817 10.8074 7.33007 12.1627 9.38058 13.0513C10.4067 13.4961 11.4738 13.7886 12.5996 13.8419C14.3203 13.9232 15.9028 13.4439 17.41 12.6645C19.0939 11.7938 20.5519 10.6182 21.8781 9.27591C22.3645 8.7836 22.8207 8.26163 23.2999 7.74263C23.2121 7.63823 23.1516 7.55638 23.0816 7.48461C22.3384 6.72242 21.6284 5.92404 20.8425 5.2093C19.3733 3.87473 17.741 2.78334 15.8512 2.11368C13.9425 1.43749 12.0379 1.43631 10.1291 2.10716C8.48611 2.68488 7.0424 3.60129 5.70486 4.69861C4.60398 5.60315 3.61165 6.61506 2.66795 7.74322Z" fill="#6F6E6D"/>
<path d="M12.9999 2.93562C15.6554 2.94985 17.8014 5.11483 17.7759 7.75373C17.7504 10.4057 15.6044 12.5321 12.9697 12.5179C10.3136 12.503 8.16877 10.3393 8.19427 7.69976C8.21978 5.04721 10.364 2.92138 12.9999 2.93562ZM12.9928 10.9223C14.7592 10.911 16.1804 9.48335 16.178 7.72408C16.175 5.96184 14.7497 4.53533 12.9881 4.53058C11.2258 4.52584 9.76966 5.98735 9.78924 7.74069C9.80822 9.51122 11.2407 10.9336 12.9928 10.9223Z" fill="#6F6E6D"/>
</svg>
