<svg width="21" height="28" viewBox="0 0 21 28" fill="none" xmlns="http://www.w3.org/2000/svg">
<g clip-path="url(#clip0_2_3621)">
<g clip-path="url(#clip1_2_3621)">
<path d="M11.1426 10.367C10.7399 9.96433 10.0853 9.96226 9.68056 10.3649L6.28153 13.766L4.94753 12.43C4.54485 12.0273 3.89023 12.0273 3.48755 12.43C3.08489 12.8326 3.08488 13.4872 3.48755 13.8899L5.55258 15.955C5.75288 16.1573 6.01721 16.2585 6.28152 16.2585C6.54585 16.2585 6.81018 16.1573 7.01254 15.957L11.1426 11.827C11.5453 11.4243 11.5453 10.7697 11.1426 10.367L11.1426 10.367Z" fill="#6F6E6D"/>
</g>
</g>
<g clip-path="url(#clip2_2_3621)">
<g clip-path="url(#clip3_2_3621)">
<path d="M11.1426 17.077C10.7399 16.6743 10.0853 16.6722 9.68056 17.0749L6.28153 20.476L4.94753 19.142C4.54485 18.7393 3.89023 18.7393 3.48755 19.142C3.08489 19.5447 3.08488 20.1993 3.48755 20.602L5.55258 22.667C5.75288 22.8673 6.01721 22.9685 6.28152 22.9685C6.54585 22.9685 6.81018 22.8673 7.01254 22.667L11.1426 18.537C11.5453 18.1343 11.5453 17.4796 11.1426 17.077L11.1426 17.077Z" fill="#6F6E6D"/>
</g>
</g>
<g clip-path="url(#clip4_2_3621)">
<g clip-path="url(#clip5_2_3621)">
<path d="M16.6772 12.103H12.5472C11.9772 12.103 11.5146 12.5656 11.5146 13.1355C11.5146 13.7055 11.9772 14.168 12.5472 14.168H16.6772C17.2471 14.168 17.7097 13.7055 17.7097 13.1355C17.7097 12.5656 17.2471 12.103 16.6772 12.103Z" fill="#6F6E6D"/>
</g>
</g>
<g clip-path="url(#clip6_2_3621)">
<g clip-path="url(#clip7_2_3621)">
<path d="M16.6772 19.019H12.5472C11.9772 19.019 11.5146 19.4816 11.5146 20.0515C11.5146 20.6215 11.9772 21.084 12.5472 21.084H16.6772C17.2471 21.084 17.7097 20.6215 17.7097 20.0515C17.7097 19.4816 17.2471 19.019 16.6772 19.019Z" fill="#6F6E6D"/>
</g>
</g>
<path fill-rule="evenodd" clip-rule="evenodd" d="M19.25 3.5H15.75V2.625C15.75 2.142 15.358 1.75 14.875 1.75H12.9763C12.614 0.7315 11.641 0 10.5 0C9.35901 0 8.386 0.7315 8.02375 1.75H6.12501C5.64201 1.75 5.25 2.142 5.25 2.625V3.5H1.75001C0.78576 3.5 0 4.28575 0 5.25V26.25C0 27.2143 0.78576 28 1.75001 28H19.25C20.2143 28 21 27.2143 21 26.25V5.25C21 4.28575 20.2143 3.5 19.25 3.5ZM7.00001 3.5H8.75001C9.23301 3.5 9.625 3.108 9.625 2.625C9.625 2.142 10.017 1.75 10.5 1.75C10.983 1.75 11.375 2.142 11.375 2.625C11.375 3.108 11.767 3.5 12.25 3.5H14V5.25H7.00001V3.5ZM19.25 26.25H1.75001V5.25H5.25V6.125C5.25 6.608 5.64201 7 6.12501 7H14.875C15.358 7 15.75 6.608 15.75 6.125V5.25H19.25V26.25Z" fill="#6F6E6D"/>
<defs>
<clipPath id="clip0_2_3621">
<rect width="8.25905" height="6.19455" fill="white" transform="translate(3.18555 10.064)"/>
</clipPath>
<clipPath id="clip1_2_3621">
<rect width="8.25905" height="6.19455" fill="white" transform="translate(3.18555 10.064)"/>
</clipPath>
<clipPath id="clip2_2_3621">
<rect width="8.25905" height="6.19454" fill="white" transform="translate(3.18555 16.7739)"/>
</clipPath>
<clipPath id="clip3_2_3621">
<rect width="8.25905" height="6.19454" fill="white" transform="translate(3.18555 16.7739)"/>
</clipPath>
<clipPath id="clip4_2_3621">
<rect width="6.19506" height="2.06502" fill="white" transform="translate(11.5146 12.103)"/>
</clipPath>
<clipPath id="clip5_2_3621">
<rect width="6.19506" height="2.06502" fill="white" transform="translate(11.5146 12.103)"/>
</clipPath>
<clipPath id="clip6_2_3621">
<rect width="6.19506" height="2.065" fill="white" transform="translate(11.5146 19.019)"/>
</clipPath>
<clipPath id="clip7_2_3621">
<rect width="6.19506" height="2.065" fill="white" transform="translate(11.5146 19.019)"/>
</clipPath>
</defs>
</svg>
