<svg width="45" height="28" viewBox="0 0 45 28" fill="none" xmlns="http://www.w3.org/2000/svg">
<rect width="45" height="28" rx="2" fill="black"/>
<path d="M12.9885 22.8748C13.0959 22.73 13.2489 22.6252 13.4232 22.5771C13.5974 22.5291 13.7829 22.5406 13.9498 22.6099C14.1084 22.6739 14.241 22.7888 14.3265 22.9364C14.4121 23.084 14.4457 23.2558 14.4221 23.4245C14.4053 23.7555 14.4053 24.087 14.4221 24.418C14.4221 24.6133 14.3123 24.5802 14.1959 24.5835C14.0795 24.5868 13.9631 24.6034 13.973 24.418C13.973 24.1133 13.973 23.8086 13.973 23.504C13.973 23.1397 13.8134 22.9675 13.5173 22.9742C13.2213 22.9808 13.0716 23.1596 13.0683 23.5172C13.0683 23.8219 13.0683 24.1265 13.0683 24.4279C13.0683 24.6332 12.9419 24.5736 12.8355 24.5802C12.729 24.5868 12.6226 24.6034 12.6292 24.4279C12.6292 24.0967 12.6292 23.7656 12.6292 23.4345C12.6292 23.1033 12.4962 22.9709 12.2367 22.9709C12.1729 22.9658 12.1086 22.9751 12.0488 22.998C11.989 23.0209 11.9351 23.0569 11.8911 23.1033C11.847 23.1496 11.814 23.2052 11.7944 23.266C11.7748 23.3267 11.7691 23.3911 11.7777 23.4543C11.7777 23.7656 11.7777 24.0802 11.7777 24.3915C11.7777 24.5637 11.7245 24.6067 11.5648 24.5968C11.4052 24.5868 11.3287 24.5968 11.3353 24.4047C11.3353 23.8716 11.3353 23.3351 11.3353 22.7987C11.3353 22.7357 11.2888 22.6265 11.3952 22.6231C11.5016 22.6198 11.6646 22.5503 11.7578 22.6761C11.7944 22.7225 11.7578 22.7887 11.8609 22.7291C12.3498 22.4609 12.6259 22.494 12.9885 22.8748Z" fill="#FAFAFA"/>
<path d="M32.0737 22.8286V22.1067C32.0737 21.9709 32.0272 21.8318 32.27 21.8351C32.5128 21.8385 32.4862 21.9378 32.4862 22.0967C32.4862 22.7988 32.4862 23.5041 32.4862 24.2095C32.4862 24.5174 32.3798 24.5969 32.0837 24.4876C32.0205 24.4611 31.9806 24.4181 31.8974 24.4611C31.7259 24.5624 31.5243 24.6012 31.3272 24.571C31.13 24.5408 30.9495 24.4435 30.8164 24.2955C30.672 24.1528 30.5729 23.9709 30.5315 23.7724C30.4901 23.574 30.5082 23.3678 30.5836 23.1796C30.6308 23.0337 30.715 22.9023 30.8281 22.7983C30.9412 22.6943 31.0794 22.6211 31.2293 22.5858C31.3791 22.5505 31.5356 22.5543 31.6835 22.5968C31.8314 22.6394 31.9659 22.7192 32.0737 22.8286ZM32.097 23.5968C32.1061 23.5167 32.0978 23.4355 32.0726 23.3588C32.0475 23.2821 32.006 23.2117 31.9511 23.1524C31.8963 23.093 31.8292 23.0461 31.7545 23.0148C31.6798 22.9835 31.5993 22.9686 31.5183 22.971C31.4376 22.9696 31.3575 22.9853 31.2833 23.017C31.2092 23.0486 31.1426 23.0956 31.0879 23.1547C31.0332 23.2138 30.9918 23.2837 30.9662 23.36C30.9406 23.4362 30.9315 23.5169 30.9395 23.5968C30.9318 23.6768 30.9415 23.7575 30.9677 23.8334C30.994 23.9094 31.0362 23.9788 31.0917 24.0372C31.1471 24.0955 31.2145 24.1414 31.2892 24.1717C31.3639 24.2019 31.4443 24.216 31.5249 24.2128C31.6068 24.2207 31.6895 24.2099 31.7666 24.1813C31.8437 24.1527 31.9133 24.107 31.97 24.0476C32.0268 23.9883 32.0692 23.9168 32.0941 23.8387C32.119 23.7606 32.1257 23.6779 32.1137 23.5968H32.097Z" fill="#F8F8F8"/>
<path d="M28.2124 22.8468C28.1326 22.5686 28.2922 22.6083 28.4386 22.5951C28.5849 22.5819 28.6082 22.6911 28.6082 22.8137C28.6082 23.2839 28.6082 23.7574 28.6082 24.231C28.6082 24.5124 28.5251 24.6018 28.2756 24.4959C28.213 24.4723 28.146 24.4628 28.0793 24.468C28.0126 24.4731 27.9479 24.4928 27.8897 24.5257C27.6839 24.5934 27.4607 24.5867 27.2593 24.5068C27.0579 24.4268 26.8913 24.2787 26.7888 24.0886C26.6746 23.8738 26.6349 23.6275 26.6758 23.388C26.7167 23.1485 26.8359 22.9291 27.0149 22.764C27.1885 22.6254 27.408 22.557 27.6299 22.5723C27.8518 22.5876 28.0598 22.6856 28.2124 22.8468ZM28.2124 23.5985C28.2053 23.4863 28.1653 23.3787 28.0976 23.2889C28.0298 23.199 27.9371 23.1309 27.8309 23.0928C27.7247 23.0547 27.6097 23.0484 27.4999 23.0746C27.3902 23.1007 27.2905 23.1583 27.2132 23.2401C27.1359 23.322 27.0843 23.4245 27.0647 23.5352C27.0452 23.6459 27.0586 23.7598 27.1033 23.863C27.148 23.9662 27.222 24.0541 27.3162 24.1159C27.4104 24.1778 27.5208 24.2109 27.6336 24.2111C27.715 24.2184 27.7969 24.2073 27.8733 24.1786C27.9497 24.1499 28.0187 24.1044 28.0749 24.0455C28.1312 23.9866 28.1734 23.9158 28.1984 23.8384C28.2233 23.761 28.2304 23.679 28.219 23.5985H28.2124Z" fill="#F7F7F7"/>
<path d="M16.7877 23.5428C16.7877 23.7945 16.7877 24.0428 16.7877 24.2912C16.7877 24.364 16.8376 24.4866 16.7345 24.4998C16.6313 24.5131 16.4451 24.5826 16.3719 24.4501C16.2987 24.3177 16.3087 24.3872 16.2522 24.4236C16.1014 24.5313 15.9193 24.587 15.7338 24.5823C15.5482 24.5775 15.3694 24.5125 15.2244 24.3971C15.0676 24.2886 14.9465 24.1365 14.8761 23.9598C14.8057 23.7831 14.7891 23.5897 14.8285 23.4037C14.8377 23.245 14.8885 23.0915 14.976 22.9585C15.0635 22.8255 15.1845 22.7177 15.327 22.6459C15.4695 22.5742 15.6284 22.5409 15.7879 22.5496C15.9473 22.5582 16.1017 22.6084 16.2355 22.6951C16.2688 22.6951 16.3253 22.801 16.3486 22.7149C16.4151 22.4732 16.6047 22.6023 16.7178 22.609C16.8309 22.6156 16.781 22.7812 16.7877 22.8739C16.7977 23.0991 16.7877 23.3209 16.7877 23.5428ZM16.3553 23.5958C16.3654 23.516 16.358 23.4349 16.3337 23.3582C16.3093 23.2815 16.2686 23.211 16.2142 23.1515C16.1598 23.092 16.0931 23.045 16.0187 23.0136C15.9443 22.9823 15.8639 22.9674 15.7832 22.9699C15.7025 22.9693 15.6226 22.9852 15.5485 23.0168C15.4743 23.0483 15.4075 23.0948 15.3522 23.1532C15.297 23.2116 15.2544 23.2808 15.2273 23.3564C15.2001 23.432 15.1889 23.5124 15.1944 23.5925C15.1906 23.6751 15.2042 23.7576 15.2343 23.8347C15.2644 23.9117 15.3104 23.9817 15.3693 24.04C15.4282 24.0983 15.4987 24.1437 15.5763 24.1733C15.6539 24.2029 15.7368 24.216 15.8197 24.2117C16.1524 24.2051 16.3553 23.9799 16.3553 23.5958Z" fill="#F7F7F7"/>
<path d="M21.4898 23.7844C21.4898 24.2083 22.0652 24.3209 22.4112 24.1454C22.4877 24.1089 22.5575 23.9997 22.6606 24.1454C22.7638 24.2911 22.807 24.4136 22.5941 24.4997C22.4035 24.6006 22.1884 24.6469 21.9729 24.6335C21.7574 24.6201 21.5499 24.5474 21.3734 24.4235C21.211 24.2929 21.0922 24.1163 21.0328 23.917C20.9734 23.7178 20.9762 23.5052 21.0408 23.3076C21.0833 23.1001 21.2011 22.9155 21.3717 22.7891C21.5422 22.6626 21.7536 22.6032 21.9655 22.6221C22.1778 22.6089 22.3874 22.6754 22.553 22.8084C22.7186 22.9414 22.8282 23.1313 22.8602 23.3407C22.97 23.7977 22.97 23.7977 22.5276 23.7977L21.4898 23.7844ZM21.4732 23.4069C21.7692 23.4069 22.0386 23.4069 22.3047 23.4069C22.5176 23.4069 22.4744 23.3175 22.4078 23.2049C22.359 23.1182 22.2836 23.0493 22.1927 23.0082C22.1017 22.9671 22 22.956 21.9023 22.9764C21.6495 22.9996 21.5364 23.1519 21.4732 23.4069Z" fill="#F6F6F6"/>
<path d="M18.084 22.5994C18.2626 22.5886 18.4418 22.6099 18.6128 22.6623C18.839 22.7186 18.8623 22.8444 18.7692 23.0332C18.7193 23.1325 18.676 23.1491 18.5663 23.0994C18.3607 22.9952 18.1233 22.9716 17.901 23.0332C17.8145 23.063 17.7247 23.1127 17.7347 23.2153C17.7447 23.318 17.8212 23.3378 17.911 23.3544C18.0968 23.3812 18.2811 23.4177 18.4632 23.4637C18.5877 23.4854 18.701 23.5488 18.7845 23.6433C18.8679 23.7378 18.9165 23.8578 18.9222 23.9836C18.9267 24.1161 18.8851 24.2461 18.8045 24.3517C18.7239 24.4572 18.6092 24.5319 18.4798 24.5631C18.2929 24.6272 18.0945 24.6518 17.8975 24.6353C17.7005 24.6188 17.5091 24.5615 17.3356 24.467C17.2624 24.4306 17.1194 24.4008 17.2324 24.265C17.299 24.1856 17.3156 24.0101 17.5052 24.126C17.6986 24.2423 17.928 24.2847 18.1505 24.2452C18.2802 24.2253 18.4365 24.2121 18.4498 24.0366C18.4632 23.861 18.3002 23.8412 18.1738 23.8114C18.0474 23.7816 17.911 23.7716 17.7779 23.7418C17.4087 23.6624 17.2557 23.4835 17.269 23.1689C17.2764 23.0197 17.3394 22.8785 17.4459 22.7731C17.5523 22.6678 17.6945 22.6058 17.8445 22.5994C17.9243 22.5928 18.0041 22.5994 18.084 22.5994Z" fill="#F6F6F6"/>
<path d="M20.2184 24.5891C19.776 24.5891 19.5997 24.4302 19.5731 23.9898C19.5581 23.7405 19.5581 23.4906 19.5731 23.2414C19.5731 23.0526 19.5465 22.95 19.3303 22.9897C19.114 23.0294 19.144 22.9235 19.144 22.791C19.144 22.6586 19.1839 22.5758 19.3369 22.6023C19.4899 22.6288 19.5964 22.5625 19.5697 22.3738C19.5497 22.2866 19.5497 22.196 19.5697 22.1089C19.6196 21.9665 19.7527 22.0493 19.8491 22.0327C19.9456 22.0161 19.9656 22.1056 19.9722 22.1916C19.9988 22.599 20.0022 22.5956 20.4213 22.6023C20.5377 22.6023 20.704 22.5327 20.6907 22.7745C20.6907 22.9202 20.6441 22.9698 20.4878 22.9732C19.9689 22.9732 19.9689 22.9732 19.9689 23.503V23.7182C19.9689 24.1288 20.0753 24.2149 20.4712 24.109C20.6042 24.0726 20.6474 24.109 20.6774 24.2282C20.7073 24.3474 20.8071 24.4401 20.6308 24.513C20.5028 24.575 20.3602 24.6013 20.2184 24.5891Z" fill="#F9F9F9"/>
<path d="M25.7252 24.5991C25.5118 24.6195 25.2977 24.5684 25.1169 24.4538C24.9361 24.3392 24.799 24.1677 24.7273 23.9666C24.6552 23.7684 24.6426 23.5536 24.691 23.3484C24.7395 23.1432 24.8468 22.9564 25 22.8109C25.1765 22.6809 25.3863 22.6032 25.6053 22.5868C25.8242 22.5704 26.0434 22.6159 26.2374 22.7182C26.2973 22.7546 26.437 22.7778 26.3239 22.9036C26.2108 23.0295 26.244 23.1653 26.0345 23.0593C25.9182 22.9816 25.7788 22.9456 25.6393 22.957C25.4997 22.9685 25.3682 23.0267 25.2661 23.1222C25.179 23.213 25.1197 23.3266 25.0949 23.4497C25.0702 23.5728 25.0811 23.7004 25.1264 23.8176C25.2462 24.1786 25.5855 24.3044 26.0079 24.1488C26.1043 24.109 26.1742 24.0428 26.274 24.1786C26.3738 24.3143 26.3505 24.4335 26.1809 24.5097C26.0376 24.5732 25.8819 24.6037 25.7252 24.5991Z" fill="#F6F6F6"/>
<path d="M23.3485 23.6145V22.9157C23.3485 22.6574 23.4782 22.5449 23.6811 22.6707C23.7181 22.7011 23.7645 22.7177 23.8125 22.7177C23.8605 22.7177 23.9069 22.7011 23.9439 22.6707C24.0388 22.6175 24.1489 22.5977 24.2565 22.6144C24.3663 22.6144 24.5459 22.5747 24.5226 22.7667C24.5226 22.8992 24.4994 23.0979 24.2333 23.025C23.9672 22.9522 23.7842 23.1144 23.7609 23.4025C23.7386 23.7332 23.7331 24.0647 23.7443 24.396C23.7443 24.5615 23.7177 24.6311 23.5281 24.6311C23.3385 24.6311 23.3252 24.5582 23.3285 24.4092C23.3551 24.1178 23.3485 23.8727 23.3485 23.6145Z" fill="#FBFBFB"/>
<path d="M29.1677 23.6145C29.1677 23.3827 29.1677 23.1475 29.1677 22.9157C29.1677 22.6839 29.2941 22.5449 29.5003 22.6707C29.5373 22.7011 29.5837 22.7177 29.6317 22.7177C29.6796 22.7177 29.7261 22.7011 29.7631 22.6707C29.858 22.6175 29.9681 22.5977 30.0757 22.6144C30.1855 22.6144 30.3684 22.5747 30.3418 22.7667C30.3418 22.8959 30.3219 23.0979 30.0524 23.025C29.783 22.9522 29.6034 23.1144 29.5801 23.4025C29.5568 23.6906 29.5602 24.0449 29.5801 24.3662C29.5801 24.5218 29.5801 24.6278 29.3639 24.6278C29.1477 24.6278 29.1643 24.5218 29.1677 24.3794C29.1677 24.1178 29.1677 23.8628 29.1677 23.6145Z" fill="#FBFBFB"/>
<path d="M22.3382 19.3196C21.3866 20.0202 20.3103 20.5348 19.1661 20.8361C18.0999 21.0768 16.9966 21.1061 15.919 20.9223C14.8415 20.7385 13.8109 20.3452 12.886 19.7649C11.9611 19.1845 11.1601 18.4285 10.5288 17.54C9.89736 16.6515 9.44795 15.6479 9.20616 14.5864C8.96437 13.525 8.93495 12.4265 9.11957 11.3538C9.30419 10.281 9.69924 9.25499 10.2822 8.33423C10.8651 7.41348 11.6245 6.61604 12.517 5.98746C13.4094 5.35888 14.4176 4.91146 15.4837 4.67074C16.6154 4.42273 17.787 4.41648 18.9213 4.65239C20.0556 4.8883 21.1267 5.36102 22.064 6.03934C22.1516 6.10379 22.2202 6.20615 22.3496 6.20615C22.3496 6.25922 22.3496 6.3123 22.3496 6.36917C21.6974 6.84955 21.1332 7.43819 20.6817 8.10929C20.0692 8.96819 19.634 9.93956 19.4013 10.9671C19.1686 11.9947 19.143 13.058 19.326 14.0955C19.6332 16.1293 20.7264 17.9631 22.3725 19.2059L22.3382 19.3196Z" fill="#EA001B"/>
<path d="M22.2448 19.4625V19.3488C22.6328 19.032 22.9944 18.6847 23.3263 18.31C24.0558 17.4868 24.6098 16.5248 24.9548 15.4821C25.2997 14.4394 25.4285 13.3379 25.3332 12.2442C25.2471 11.0092 24.8701 9.81174 24.2326 8.74882C23.7302 7.8673 23.0494 7.0992 22.2334 6.4931C22.2334 6.43624 22.2334 6.38316 22.2334 6.33009C23.0795 5.71426 24.0247 5.24633 25.0285 4.94633C26.3765 4.56074 27.8005 4.5211 29.168 4.8311C30.5355 5.1411 31.8019 5.79065 32.8493 6.71924C33.8966 7.64783 34.6908 8.82525 35.1579 10.1418C35.625 11.4583 35.7498 12.8711 35.5206 14.2486C35.2915 15.6261 34.7158 16.9234 33.8472 18.0197C32.9787 19.116 31.8456 19.9756 30.5534 20.5184C29.2612 21.0612 27.8521 21.2696 26.4572 21.124C25.0624 20.9785 23.7272 20.4839 22.5761 19.6862L22.2448 19.4625Z" fill="#F69D1B"/>
<path d="M22.3353 6.29224C23.1868 6.90802 23.8972 7.68839 24.4215 8.584C25.0867 9.66391 25.4801 10.8805 25.5699 12.1353C25.6694 13.2464 25.535 14.3655 25.1751 15.4249C24.8151 16.4842 24.237 17.4616 23.4758 18.298C23.1295 18.6786 22.7521 19.0315 22.3472 19.3534C20.6296 18.0907 19.4888 16.2276 19.1683 14.1613C18.9762 13.1034 19.0035 12.0191 19.2484 10.9716C19.4933 9.92411 19.951 8.93438 20.5948 8.06017C21.0659 7.37835 21.6547 6.78029 22.3353 6.29224Z" fill="#FE5F00"/>
</svg>
