<svg width="45" height="28" viewBox="0 0 45 28" fill="none" xmlns="http://www.w3.org/2000/svg">
<rect width="45" height="28" rx="3" fill="#0353A5"/>
<path d="M36.2583 9.13987H34.2031C33.9095 9.10593 33.6125 9.16718 33.3605 9.31361C33.1085 9.46003 32.9164 9.68297 32.8157 9.94601L28.874 18.853H31.6623C31.6623 18.853 32.118 17.6532 32.2142 17.3966H35.6237C35.7025 17.7404 35.939 18.853 35.939 18.853H38.397L36.2583 9.13987ZM32.9804 15.4093C33.1988 14.8529 34.0375 12.6903 34.0375 12.6903C34.0241 12.7089 34.2559 12.1213 34.3876 11.7589L34.5728 12.5963C34.5728 12.5963 35.075 14.9215 35.1877 15.4093H32.9804Z" fill="white"/>
<path d="M14.9548 9.13906L12.3605 15.7679L12.0759 14.4256L11.1504 9.96235C11.0934 9.70872 10.9386 9.48423 10.7162 9.3326C10.4939 9.18096 10.2198 9.11305 9.94739 9.14205H5.67151L5.625 9.33594C6.60391 9.5635 7.54301 9.92342 8.41331 10.4046L10.7783 18.8433H13.5863L17.7644 9.14205H14.9548V9.13906Z" fill="white"/>
<path d="M18.8332 9.14001L17.1777 18.8539H19.8273L21.4922 9.14001H18.8332Z" fill="white"/>
<path d="M26.8424 13.0347C25.9106 12.5872 25.3446 12.2889 25.3446 11.8348C25.358 11.4224 25.8271 10.9973 26.8708 10.9973C27.5501 10.9792 28.2251 11.105 28.8464 11.3657L29.0829 11.4724L29.4463 9.37239C28.6869 9.09737 27.8803 8.95755 27.0671 8.95999C24.4436 8.95999 22.6005 10.2852 22.587 12.1726C22.5673 13.5664 23.9083 14.3419 24.9126 14.8103C25.9374 15.2853 26.2867 15.5978 26.2867 16.0169C26.2733 16.6671 25.4542 16.9669 24.6942 16.9669C23.8313 16.9876 22.9761 16.8084 22.2031 16.4449L21.8531 16.2883L21.4834 18.4696C22.427 18.8169 23.431 18.994 24.4436 18.9916C27.2319 18.9975 29.049 17.691 29.0687 15.6783C29.0821 14.5724 28.3686 13.729 26.8424 13.0347Z" fill="white"/>
</svg>
