<svg width="20" height="20" viewBox="0 0 20 20" fill="none" xmlns="http://www.w3.org/2000/svg">
<path d="M19.7342 4.73166L15.1887 0.261848C14.8337 -0.0872826 14.2581 -0.0872826 13.903 0.261848C13.548 0.610978 13.548 1.17695 13.903 1.52608L16.8967 4.46988H0.909125C0.40704 4.46988 0 4.87013 0 5.36385C0 5.85757 0.40704 6.25783 0.909125 6.25783H16.8966L13.903 9.20158C13.548 9.55071 13.548 10.1167 13.903 10.4658C14.0805 10.6404 14.3132 10.7276 14.5458 10.7276C14.7785 10.7276 15.0112 10.6404 15.1886 10.4658L19.7342 5.99594C20.0893 5.64681 20.0893 5.08079 19.7342 4.73166V4.73166Z" fill="white"/>
<path d="M19.0915 13.4699H3.10395L6.09755 10.5261C6.4526 10.177 6.4526 9.61099 6.09755 9.26185C5.74258 8.91272 5.16694 8.91272 4.81189 9.26185L0.266285 13.7317C-0.0887618 14.0808 -0.0887618 14.6468 0.266285 14.9959L4.81185 19.4658C4.98943 19.6404 5.22206 19.7276 5.45472 19.7276C5.68738 19.7276 5.92009 19.6404 6.09751 19.4658C6.45256 19.1166 6.45256 18.5506 6.09751 18.2015L3.10391 15.2578H19.0915C19.5936 15.2578 20.0006 14.8575 20.0006 14.3638C20.0006 13.8701 19.5936 13.4699 19.0915 13.4699V13.4699Z" fill="white"/>
</svg>
