<svg width="24" height="20" viewBox="0 0 24 20" fill="none" xmlns="http://www.w3.org/2000/svg">
<path d="M18.2 12.8099C17.8147 12.6433 17.4123 12.5192 17 12.4399C16.7215 12.3748 16.4475 12.2913 16.18 12.1899C16.0207 12.1343 15.8768 12.0418 15.76 11.9199C15.6704 11.8142 15.6239 11.6785 15.63 11.5399C15.6246 11.4395 15.6457 11.3395 15.6914 11.2499C15.737 11.1604 15.8056 11.0845 15.89 11.0299C16.1072 10.9007 16.3576 10.8381 16.61 10.8499C16.8559 10.8409 17.0991 10.9034 17.31 11.0299C17.3937 11.0773 17.4664 11.1419 17.5233 11.2195C17.5802 11.2971 17.62 11.3858 17.64 11.4799C17.659 11.5271 17.6924 11.5671 17.7356 11.5941C17.7787 11.621 17.8293 11.6336 17.88 11.6299H18.67C18.6941 11.6314 18.7181 11.6277 18.7406 11.6192C18.7631 11.6107 18.7835 11.5975 18.8006 11.5804C18.8176 11.5634 18.8308 11.543 18.8393 11.5205C18.8478 11.498 18.8515 11.4739 18.85 11.4499C18.8314 11.2246 18.7557 11.0078 18.63 10.8199C18.4782 10.5884 18.2767 10.3936 18.04 10.2499C17.7567 10.0775 17.4395 9.96829 17.11 9.92993V9.33993C17.1115 9.31328 17.1073 9.28663 17.0978 9.26171C17.0882 9.2368 17.0735 9.21417 17.0547 9.1953C17.0358 9.17643 17.0132 9.16175 16.9883 9.15221C16.9633 9.14267 16.9367 9.13848 16.91 9.13993H16.39C16.3387 9.13799 16.2885 9.15589 16.25 9.18993C16.2296 9.20898 16.2137 9.23231 16.2033 9.25823C16.1929 9.28416 16.1884 9.31205 16.19 9.33993V9.91993C15.7114 9.95691 15.2581 10.1502 14.9 10.4699C14.7485 10.6097 14.6282 10.78 14.5472 10.9696C14.4662 11.1592 14.4263 11.3638 14.43 11.5699C14.4174 11.7763 14.4523 11.9827 14.532 12.1735C14.6118 12.3642 14.7343 12.534 14.89 12.6699C15.3177 12.9816 15.8097 13.1935 16.33 13.2899C16.7234 13.3966 17.0234 13.4866 17.23 13.5599C17.4001 13.6128 17.557 13.7015 17.69 13.8199C17.7399 13.8695 17.7789 13.9289 17.8048 13.9943C17.8306 14.0596 17.8426 14.1297 17.84 14.1999C17.8426 14.3085 17.8162 14.4158 17.7634 14.5107C17.7107 14.6056 17.6336 14.6848 17.54 14.7399C17.2753 14.8888 16.9732 14.9583 16.67 14.9399C16.3875 14.9548 16.1065 14.8889 15.86 14.7499C15.6768 14.6417 15.5385 14.4714 15.47 14.2699C15.4451 14.2236 15.4111 14.1828 15.37 14.1499C15.321 14.1358 15.269 14.1358 15.22 14.1499H14.47C14.4461 14.1492 14.4223 14.1533 14.4 14.1618C14.3777 14.1704 14.3573 14.1834 14.34 14.1999C14.3081 14.2317 14.2901 14.2749 14.29 14.3199C14.3027 14.5774 14.3857 14.8264 14.53 15.0399C14.6956 15.2813 14.9191 15.4773 15.18 15.6099C15.4912 15.771 15.831 15.8696 16.18 15.8999V16.4799C16.1784 16.5078 16.1829 16.5357 16.1933 16.5616C16.2037 16.5875 16.2196 16.6109 16.24 16.6299C16.2785 16.664 16.3287 16.6819 16.38 16.6799H16.9C16.9267 16.6814 16.9533 16.6772 16.9783 16.6676C17.0032 16.6581 17.0258 16.6434 17.0447 16.6246C17.0635 16.6057 17.0782 16.5831 17.0878 16.5581C17.0973 16.5332 17.1015 16.5066 17.1 16.4799V15.8999C17.6147 15.8709 18.1076 15.6821 18.51 15.3599C18.6801 15.2152 18.8153 15.0339 18.9053 14.8295C18.9954 14.6252 19.038 14.4031 19.03 14.1799C19.0412 13.8952 18.9681 13.6134 18.82 13.3699C18.6689 13.1297 18.4544 12.9359 18.2 12.8099Z" fill="#6F6E6D"/>
<path d="M16.67 6.24H14.12V3.67C14.12 3.53739 14.0673 3.41021 13.9736 3.31645C13.8798 3.22268 13.7526 3.17 13.62 3.17H13V0.5C13 0.367392 12.9473 0.240215 12.8536 0.146447C12.7598 0.0526784 12.6326 0 12.5 0L0.5 0C0.367392 0 0.240215 0.0526784 0.146447 0.146447C0.0526784 0.240215 0 0.367392 0 0.5L0 3.57C0 3.63566 0.0129329 3.70068 0.0380602 3.76134C0.0631876 3.822 0.100017 3.87712 0.146447 3.92355C0.192876 3.96998 0.247995 4.00681 0.308658 4.03194C0.369321 4.05707 0.434339 4.07 0.5 4.07H1.16V6.74C1.16 6.87261 1.21268 6.99979 1.30645 7.09355C1.40021 7.18732 1.52739 7.24 1.66 7.24H2.16V9.32H0.66C0.527392 9.32 0.400215 9.37268 0.306447 9.46645C0.212678 9.56021 0.16 9.68739 0.16 9.82V19C0.16 19.1326 0.212678 19.2598 0.306447 19.3536C0.400215 19.4473 0.527392 19.5 0.66 19.5H12.66C12.7926 19.5 12.9198 19.4473 13.0136 19.3536C13.1073 19.2598 13.16 19.1326 13.16 19V18.49C14.0335 19.0554 15.0272 19.4083 16.0617 19.5204C17.0961 19.6324 18.1424 19.5006 19.1167 19.1354C20.0909 18.7702 20.9661 18.1818 21.672 17.4174C22.3779 16.653 22.8948 15.7338 23.1814 14.7336C23.468 13.7334 23.5163 12.6799 23.3223 11.6576C23.1284 10.6354 22.6976 9.67283 22.0646 8.84708C21.4315 8.02134 20.6138 7.3554 19.677 6.90266C18.7402 6.44991 17.7103 6.22296 16.67 6.24ZM1 1H12V3.07H1V1ZM2.16 4.17H13.16V6.24H2.16V4.17ZM3.16 7.24H13.16C12.315 7.76549 11.5976 8.47261 11.06 9.31H3.16V7.24ZM10.16 15.46H1.16V13.39H10C10.0505 14.1019 10.216 14.801 10.49 15.46H10.16ZM1.16 10.31H10.53C10.2526 10.9684 10.0837 11.6675 10.03 12.38H1.16V10.31ZM12.16 18.53H1.16V16.46H11.05C11.351 16.9333 11.7105 17.3667 12.12 17.75L12.16 18.53ZM16.71 18.53C15.7195 18.531 14.7462 18.2711 13.888 17.7765C13.0299 17.2819 12.3171 16.57 11.8214 15.7124C11.3257 14.8549 11.0646 13.8819 11.0644 12.8914C11.0641 11.9009 11.3247 10.9278 11.82 10.07C11.8398 10.0418 11.8565 10.0117 11.87 9.98C12.3783 9.13604 13.0989 8.43996 13.9599 7.96108C14.8209 7.48219 15.7924 7.23721 16.7775 7.25052C17.7626 7.26383 18.7271 7.53497 19.5749 8.03694C20.4226 8.53891 21.1241 9.2542 21.6095 10.1116C22.0948 10.969 22.3471 11.9385 22.3412 12.9238C22.3353 13.909 22.0714 14.8754 21.5759 15.727C21.0803 16.5785 20.3703 17.2853 19.5166 17.7771C18.6629 18.2689 17.6952 18.5285 16.71 18.53Z" fill="#6F6E6D"/>
</svg>
