<svg width="22" height="22" viewBox="0 0 22 22" fill="none" xmlns="http://www.w3.org/2000/svg">
<path d="M11 4.27404e-05C17.0751 4.27404e-05 22 4.92491 22 11C22 17.0751 17.0751 22 11 22C4.92492 22 4.56253e-05 17.0751 4.56253e-05 11V11C-0.0172405 4.94214 4.87958 0.0173289 10.9374 4.27404e-05C10.9583 -1.42468e-05 10.9791 -1.42468e-05 11 4.27404e-05Z" fill="#B7B7B7"/>
<path d="M10.0301 13.0294H12.5266L12.871 4.78223H9.68574L10.0301 13.0294ZM13.0603 15.853C13.0603 14.9405 12.3544 14.2346 11.3214 14.2346C10.2711 14.2346 9.56522 14.9405 9.56522 15.853C9.56522 16.7311 10.2711 17.437 11.3214 17.437C12.3544 17.437 13.0603 16.7311 13.0603 15.853Z" fill="#F7F7F7"/>
</svg>
