<svg width="22" height="22" viewBox="0 0 22 22" fill="none" xmlns="http://www.w3.org/2000/svg">
<path d="M18.7813 3.23601C23.0753 7.53096 23.0726 14.4916 18.7751 18.7831C14.4776 23.0747 7.51283 23.0719 3.21876 18.777C-1.07292 14.4845 -1.07292 7.52856 3.21876 3.23601C7.48836 -1.05893 14.4333 -1.08146 18.7308 3.18562C18.7477 3.20236 18.7645 3.21916 18.7812 3.23601H18.7813Z" fill="#E63A40"/>
<path d="M16.8997 7.07223L13.0238 10.9457L16.8997 14.8191L14.8258 16.8917L10.9499 13.0183L7.07399 16.8917L5 14.8191L8.87597 10.9457L5 7.07223L7.07399 4.99963L10.9499 8.87304L14.8258 4.99963L16.8997 7.07223Z" fill="#F7F7F7"/>
</svg>
