<svg width="45" height="28" viewBox="0 0 45 28" fill="none" xmlns="http://www.w3.org/2000/svg">
<rect width="45" height="28" rx="2" fill="#0353A5"/>
<path d="M8.64355 10.8204H9.8637L9.25379 9.27441L8.64355 10.8204Z" fill="white"/>
<path d="M15.1309 16.0117V16.7296H17.183V17.5028H15.1309V18.3312H17.4047L18.4584 17.1714L17.4602 16.0117H15.1309Z" fill="white"/>
<path d="M31.1597 9.27441L30.4941 10.8204H31.7699L31.1597 9.27441Z" fill="white"/>
<path d="M21.068 18.7741V15.627L19.626 17.173L21.068 18.7741Z" fill="white"/>
<path d="M23.7876 16.5089C23.7321 16.1776 23.51 16.0117 23.1771 16.0117H22.0127V17.0055H23.2329C23.5656 17.0056 23.7876 16.8401 23.7876 16.5089Z" fill="white"/>
<path d="M27.6651 16.8938C27.7761 16.8385 27.8317 16.6727 27.8317 16.5074C27.8872 16.2867 27.7761 16.1761 27.6651 16.1208C27.5545 16.0656 27.3879 16.0656 27.2217 16.0656H26.1123V16.9491H27.2217C27.3878 16.9491 27.5544 16.9491 27.6651 16.8938Z" fill="white"/>
<path d="M35.6517 7.84009V8.50264L35.3192 7.84009H32.7128V8.50264L32.3799 7.84009H28.8305C28.2205 7.84009 27.7211 7.95062 27.2776 8.17144V7.84009H24.7821V7.89535V8.17144C24.5048 7.9507 24.1721 7.84009 23.7284 7.84009H14.7994L14.1891 9.22045L13.5792 7.84009H11.5827H10.7508V8.50264L10.4735 7.84009H10.4179H8.03323L6.92387 10.435L5.64845 13.2508L5.625 13.3062H5.64845H8.47693H8.51234L8.53244 13.2508L8.86536 12.4228H9.5863L9.91905 13.3062H13.1354V13.2508V12.6436L13.4129 13.3061H15.0211L15.2982 12.6436V13.2508V13.3062H16.5738H22.9517H23.0072V11.8706H23.1184C23.2292 11.8706 23.2292 11.8706 23.2292 12.0363V13.2509H27.2223V12.9197C27.5551 13.0855 28.0539 13.2509 28.7194 13.2509H30.3835L30.7162 12.3677H31.4924L31.8252 13.2509H35.0417V12.6989V12.4229L35.541 13.2509H35.6517H35.7073H38.1476V7.84009H35.6518H35.6517ZM16.8513 12.4782H16.2966H15.9639V12.1471V9.44135L15.9084 9.568V9.56649L14.6182 12.4782H14.5774H14.2807H13.8008L12.4699 9.44135V12.4782H10.5844L10.1962 11.65H8.3104L7.92213 12.4782H6.94724L8.58788 8.61317H9.97424L11.5271 12.3124V8.61317H11.8597H12.9964L13.0225 8.66851H13.0245L13.7242 10.1847L14.2267 11.3206L14.2444 11.2634L15.3536 8.61325H16.8512V12.4782H16.8513ZM20.6781 9.44135H18.5151V10.1591H20.6226V10.932H18.5151V11.7052H20.6781V12.5332H17.5724V8.61325H20.6781V9.44135ZM24.6337 10.8651C24.6352 10.8663 24.637 10.8672 24.6388 10.8684C24.6597 10.8905 24.6777 10.9126 24.693 10.9338C24.7992 11.0725 24.8851 11.2787 24.8894 11.5811C24.8898 11.5863 24.89 11.5915 24.8903 11.5967C24.8903 11.5997 24.8909 11.6023 24.8909 11.6054C24.8909 11.6072 24.8907 11.6085 24.8907 11.6102C24.892 11.6406 24.8928 11.6717 24.8928 11.7052V12.4782H24.0611V12.0364C24.0611 11.8155 24.0611 11.4842 23.8944 11.2634C23.842 11.2112 23.789 11.1768 23.7313 11.1524C23.6481 11.0988 23.4906 11.0979 23.2292 11.0979H22.2306V12.4782H21.288V8.61325H23.3956C23.8944 8.61325 24.2274 8.61325 24.5048 8.77888C24.7765 8.94134 24.9406 9.21076 24.9469 9.6374C24.934 10.225 24.5552 10.5474 24.2828 10.6561C24.2828 10.6561 24.4678 10.6932 24.6337 10.8651ZM26.5013 12.4782H25.5584V8.61317H26.5013V12.4782ZM37.3159 12.4782H36.0956L34.321 9.55172V11.9811L34.3152 11.9754V12.4805H33.3782V12.4782H32.4353L32.1026 11.6501H30.1613L29.8286 12.5333H28.7749C28.3315 12.5333 27.7765 12.423 27.4439 12.0917C27.1112 11.7604 26.945 11.3187 26.945 10.6011C26.945 10.049 27.0558 9.49646 27.4439 9.05489C27.721 8.72338 28.2204 8.61325 28.8303 8.61325H29.7179V9.44135H28.8303C28.4976 9.44135 28.3315 9.49638 28.1092 9.66234C27.9432 9.82789 27.8321 10.1591 27.8321 10.5455C27.8321 10.9874 27.8876 11.2634 28.1092 11.4842C28.276 11.6501 28.4976 11.7053 28.7749 11.7053H29.1631L30.4385 8.66867H30.9934H31.8251L33.3782 12.3679V12.1792V10.9322V10.8219V8.66875H34.7645L36.3725 11.3741V8.66875H37.3158V12.4783H37.3159V12.4782Z" fill="white"/>
<path d="M23.8399 10.2225C23.8561 10.2053 23.8708 10.1857 23.8833 10.1633C23.9335 10.0842 23.9911 9.94156 23.9601 9.74694C23.9588 9.72908 23.9555 9.71256 23.9517 9.6966C23.9507 9.69215 23.9508 9.68826 23.9496 9.68382L23.9491 9.6839C23.9215 9.58932 23.851 9.5312 23.7808 9.49595C23.6696 9.44092 23.5032 9.44092 23.3369 9.44092H22.2275V10.3245H23.3369C23.5032 10.3245 23.6697 10.3245 23.7808 10.2691C23.7974 10.2607 23.8123 10.2493 23.8265 10.2363L23.8267 10.237C23.8268 10.2369 23.8324 10.2311 23.8399 10.2225Z" fill="white"/>
<path d="M40.5859 17.9981C40.5859 17.6116 40.4751 17.225 40.3088 16.949V14.4645H40.3062V14.2986C40.3062 14.2986 37.9817 14.2986 37.6357 14.2986C37.2899 14.2986 36.8702 14.6298 36.8702 14.6298V14.2986H34.3192C33.9307 14.2986 33.4319 14.4092 33.2098 14.6298V14.2986H28.6623V14.4645V14.6297C28.3298 14.3539 27.7192 14.2985 27.4421 14.2985H24.4473V14.4644V14.6297C24.17 14.3538 23.5042 14.2985 23.1713 14.2985H19.8442L19.0676 15.1267L18.3466 14.2985H18.1144H17.7366H13.3555V14.4643V14.9005V19.8753H18.2359L19.0378 19.0767L19.7329 19.8753H19.7886H22.6007H22.7281H22.7837H22.8389V19.3232V18.6054H23.1163C23.5042 18.6054 24.0036 18.6054 24.3918 18.4395V19.8198V19.9304H26.8875V19.8198V18.4948H26.9981C27.1647 18.4948 27.1647 18.4948 27.1647 18.6605V19.8198V19.9304H34.7069C35.2065 19.9304 35.7053 19.8198 35.9825 19.5989V19.8198V19.9304H38.3675C38.8663 19.9304 39.3658 19.8753 39.6986 19.6543C40.2092 19.3493 40.531 18.8094 40.5789 18.1655C40.5811 18.1465 40.5839 18.1274 40.5856 18.1083L40.5824 18.1052C40.5844 18.0694 40.5859 18.0341 40.5859 17.9981ZM23.1164 17.6669H22.007V17.8321V18.1635V18.4949V19.1023H20.1841L19.1231 17.8875L19.1195 17.8915L19.0676 17.8321L17.8476 19.1023H14.2982V15.2374H17.9031L18.8879 16.3114L19.095 16.5362L19.1231 16.5072L20.2879 15.2375H23.2271C23.7976 15.2375 24.4363 15.3776 24.6784 15.9555C24.7075 16.0699 24.7244 16.1971 24.7244 16.3416C24.7244 17.4458 23.948 17.6669 23.1164 17.6669ZM28.6623 17.6115C28.7731 17.7768 28.8286 17.998 28.8286 18.3294V19.1022H27.8859V18.6054C27.8859 18.3842 27.8859 17.998 27.7193 17.8321C27.6087 17.6669 27.3865 17.6669 27.054 17.6669H26.0558V19.1023H25.1131V15.1822H27.2204C27.6638 15.1822 28.052 15.1822 28.3298 15.3476C28.6068 15.5134 28.8286 15.7895 28.8286 16.2312C28.8286 16.8384 28.4405 17.1697 28.1631 17.2803C28.4405 17.3903 28.6068 17.5011 28.6623 17.6115ZM32.4891 16.01H30.3259V16.7278H32.4334V17.501H30.3259V18.2741H32.4891V19.1022H29.3834V15.1821H32.4891V16.01ZM34.8182 19.1023H33.0434V18.2742H34.8182C34.9843 18.2742 35.0955 18.2742 35.2066 18.1636C35.2621 18.1083 35.3173 17.9981 35.3173 17.8875C35.3173 17.7768 35.2621 17.6669 35.2066 17.6116C35.151 17.5564 35.0399 17.5011 34.8736 17.5011C33.9862 17.4459 32.9325 17.5012 32.9325 16.2866C32.9325 15.7344 33.2652 15.127 34.2636 15.127H36.0936V16.0654H34.3745C34.2082 16.0654 34.0971 16.0654 33.9861 16.1207C33.8755 16.1761 33.8755 16.2866 33.8755 16.3969C33.8755 16.5626 33.9861 16.6179 34.097 16.6726C34.2082 16.728 34.319 16.728 34.4298 16.728H34.929C35.4282 16.728 35.7609 16.8384 35.9827 17.0593C36.1491 17.2251 36.2601 17.5012 36.2601 17.8875C36.2601 18.7155 35.761 19.1023 34.8182 19.1023ZM39.5877 18.7155C39.3661 18.9366 38.9777 19.1023 38.4229 19.1023H36.6486V18.2742H38.4228C38.5893 18.2742 38.7005 18.2742 38.8113 18.1636C38.8665 18.1083 38.9222 17.9981 38.9222 17.8875C38.9222 17.7768 38.8665 17.6669 38.8113 17.6116C38.7557 17.5564 38.645 17.5011 38.4785 17.5011C37.5914 17.4459 36.5374 17.5012 36.5374 16.2867C36.5374 15.7619 36.839 15.2878 37.5827 15.1471C37.6717 15.1348 37.7656 15.127 37.8685 15.127H39.6988V16.0654H38.4785H38.035H37.9794C37.813 16.0654 37.7022 16.0654 37.5914 16.1207C37.5356 16.1761 37.4801 16.2866 37.4801 16.3969C37.4801 16.5626 37.5356 16.6179 37.7022 16.6726C37.813 16.728 37.9239 16.728 38.035 16.728H38.0901H38.5339C38.7763 16.728 38.9596 16.7578 39.1273 16.8164C39.2809 16.8718 39.7895 17.0983 39.9032 17.6894C39.9131 17.7514 39.9204 17.816 39.9204 17.8875C39.9204 18.2189 39.8094 18.4949 39.5877 18.7155Z" fill="white"/>
</svg>
