<svg width="26" height="22" viewBox="0 0 26 22" fill="none" xmlns="http://www.w3.org/2000/svg">
<path fill-rule="evenodd" clip-rule="evenodd" d="M25.4348 22H0.565217C0.252652 22 0 21.7568 0 21.456C0 21.1551 0.252652 20.9119 0.565217 20.9119H25.4348C25.7473 20.9119 26 21.1551 26 21.456C26 21.7568 25.7473 22 25.4348 22ZM8.47826 16.5596C8.79083 16.5596 9.04348 16.8028 9.04348 17.1036C9.04348 17.4045 8.79083 17.6477 8.47826 17.6477H3.95652C3.64396 17.6477 3.3913 17.4045 3.3913 17.1036C3.3913 16.8028 3.64396 16.5596 3.95652 16.5596H4.52174V9.48702H3.95652C3.64396 9.48702 3.3913 9.24383 3.3913 8.94297C3.3913 8.64266 3.64396 8.39893 3.95652 8.39893H8.47826C8.79083 8.39893 9.04348 8.64266 9.04348 8.94297C9.04348 9.24383 8.79083 9.48702 8.47826 9.48702H7.91304V16.5596H8.47826ZM6.78261 9.48702H5.65217V16.5596H6.78261V9.48702ZM15.2609 16.5596C15.5734 16.5596 15.8261 16.8028 15.8261 17.1036C15.8261 17.4045 15.5734 17.6477 15.2609 17.6477H10.7391C10.4266 17.6477 10.1739 17.4045 10.1739 17.1036C10.1739 16.8028 10.4266 16.5596 10.7391 16.5596H11.3043V9.48702H10.7391C10.4266 9.48702 10.1739 9.24383 10.1739 8.94297C10.1739 8.64266 10.4266 8.39893 10.7391 8.39893H15.2609C15.5734 8.39893 15.8261 8.64266 15.8261 8.94297C15.8261 9.24383 15.5734 9.48702 15.2609 9.48702H14.6957V16.5596H15.2609ZM13.5652 9.48702H12.4348V16.5596H13.5652V9.48702ZM24.3043 19.2798C24.3043 19.5806 24.0517 19.8238 23.7391 19.8238H2.26087C1.9483 19.8238 1.69565 19.5806 1.69565 19.2798C1.69565 18.9789 1.9483 18.7357 2.26087 18.7357H23.7391C24.0517 18.7357 24.3043 18.9789 24.3043 19.2798ZM22.0435 16.5596C22.356 16.5596 22.6087 16.8028 22.6087 17.1036C22.6087 17.4045 22.356 17.6477 22.0435 17.6477H17.5217C17.2092 17.6477 16.9565 17.4045 16.9565 17.1036C16.9565 16.8028 17.2092 16.5596 17.5217 16.5596H18.087V9.48702H17.5217C17.2092 9.48702 16.9565 9.24383 16.9565 8.94297C16.9565 8.64266 17.2092 8.39893 17.5217 8.39893H22.0435C22.356 8.39893 22.6087 8.64266 22.6087 8.94297C22.6087 9.24383 22.356 9.48702 22.0435 9.48702H21.4783V16.5596H22.0435ZM20.3478 9.48702H19.2174V16.5596H20.3478V9.48702ZM1.13043 6.22276L13 0L24.8696 6.22276V7.31085H1.13043V6.22276ZM22.3493 6.22276L13 1.57011L3.61513 6.22276H22.3493Z" fill="#6F6E6D"/>
</svg>
