<svg width="144" height="144" viewBox="0 0 144 144" fill="none" xmlns="http://www.w3.org/2000/svg">
<path d="M72.0002 0.000276936C111.764 0.000276936 144 32.2358 144 72.0001C144 111.764 111.764 144 72.0002 144C32.2359 144 0.000298791 111.764 0.000298791 72.0001V72.0001C-0.112876 32.3486 31.9391 0.113451 71.5902 0.000276936C71.7268 -9.23119e-05 71.8635 -9.23119e-05 72.0002 0.000276936Z" fill="#E63A40"/>
<path d="M105.812 49.116L83.1349 71.7787L105.812 94.441L93.6778 106.567L71.0008 83.9049L48.3239 106.567L36.1895 94.441L58.8668 71.7787L36.1895 49.116L48.3239 36.9897L71.0008 59.6521L93.6778 36.9897L105.812 49.116Z" fill="#F7F7F7"/>
</svg>
