<svg width="24" height="24" viewBox="0 0 24 24" fill="none" xmlns="http://www.w3.org/2000/svg">
<path d="M9.2877 4.41619C9.2877 4.84456 9.49697 5.2168 9.8422 5.52984C10.1863 5.84185 10.6706 6.10038 11.2381 6.30674C12.3735 6.71968 13.8659 6.93238 15.3083 6.93238C16.7508 6.93238 18.2432 6.71968 19.3786 6.30674C19.9461 6.10038 20.4304 5.84185 20.7745 5.52984C21.1197 5.2168 21.329 4.84456 21.329 4.41619C21.329 3.98782 21.1197 3.61559 20.7745 3.30254C20.4304 2.99053 19.9461 2.73201 19.3786 2.52564C18.2432 2.1127 16.7508 1.9 15.3083 1.9C13.8659 1.9 12.3735 2.1127 11.2381 2.52564C10.6706 2.73201 10.1863 2.99053 9.8422 3.30254C9.49697 3.61559 9.2877 3.98782 9.2877 4.41619ZM10.269 4.41619C10.269 4.30004 10.3608 4.14229 10.5919 3.96389C10.8177 3.78962 11.1557 3.61218 11.5961 3.45317C12.4761 3.1355 13.7491 2.89709 15.3083 2.89709C16.8614 2.89709 18.1314 3.13549 19.0098 3.45315C19.4495 3.61215 19.7871 3.78959 20.0127 3.96386C20.2436 4.14227 20.3355 4.30003 20.3355 4.41619C20.3355 4.53174 20.2429 4.68866 20.0098 4.86615C19.7824 5.03938 19.4424 5.21535 19.0011 5.37287C18.1194 5.68753 16.8493 5.92283 15.3083 5.92283C13.7674 5.92283 12.4942 5.68753 11.6094 5.37283C11.1665 5.2153 10.825 5.0393 10.5964 4.86601C10.362 4.68839 10.269 4.53149 10.269 4.41619Z" fill="white" stroke="white" stroke-width="0.2"/>
<path d="M20.337 4.79804L20.3355 4.80648V4.81505V7.23124C20.3355 7.34764 20.2441 7.50541 20.0143 7.68369C19.7897 7.85791 19.4533 8.03531 19.0144 8.1943C18.1375 8.51193 16.8676 8.75034 15.3083 8.75034C13.7491 8.75034 12.4761 8.51193 11.5961 8.19427C11.1557 8.03526 10.8177 7.85782 10.5919 7.68355C10.3608 7.50514 10.269 7.34739 10.269 7.23124V4.81505C10.269 4.68347 10.2178 4.55688 10.126 4.46324C10.0341 4.36953 9.90912 4.3165 9.77834 4.3165C9.64756 4.3165 9.52255 4.36953 9.4307 4.46324C9.33891 4.55688 9.2877 4.68347 9.2877 4.81505V7.23124C9.2877 7.65961 9.49697 8.03185 9.8422 8.34489C10.1863 8.6569 10.6706 8.91543 11.2381 9.1218C12.3735 9.53473 13.8659 9.74743 15.3083 9.74743C16.7508 9.74743 18.2432 9.53473 19.3786 9.1218C19.9461 8.91543 20.4304 8.6569 20.7745 8.34489C21.1197 8.03185 21.329 7.65961 21.329 7.23124V4.81505V4.80648L21.3275 4.79804C21.3072 4.68019 21.2467 4.57302 21.1563 4.49555C21.0658 4.41805 20.9511 4.37532 20.8323 4.37532C20.7135 4.37532 20.5987 4.41805 20.5082 4.49555C20.4178 4.57302 20.3573 4.68019 20.337 4.79804Z" fill="white" stroke="white" stroke-width="0.2"/>
<path d="M12.8302 11.4406C12.7271 11.4254 12.6223 11.4502 12.5363 11.5102C12.4504 11.5702 12.3897 11.6609 12.3663 11.7644C12.3483 11.8699 12.3714 11.9785 12.4307 12.0669C12.49 12.1553 12.5808 12.2165 12.6837 12.2377C13.55 12.3955 14.4283 12.4747 15.3083 12.4743M12.8302 11.4406L15.3084 12.5743C16.7508 12.5743 18.2432 12.3616 19.3742 11.9486C19.9393 11.7423 20.4205 11.4836 20.7596 11.1713C21.0997 10.858 21.3019 10.4854 21.2923 10.057V7.65005C21.3032 7.57967 21.2995 7.50772 21.2814 7.43881C21.2625 7.36698 21.2284 7.30011 21.1814 7.24292C21.1343 7.18572 21.0755 7.13957 21.0088 7.10786C20.9421 7.07614 20.8693 7.05967 20.7956 7.05967C20.7219 7.05967 20.6491 7.07614 20.5824 7.10786C20.5157 7.13957 20.4569 7.18572 20.4098 7.24292C20.3628 7.30011 20.3287 7.36698 20.3098 7.43881C20.2917 7.50772 20.288 7.57967 20.2989 7.65005V10.0581C20.2989 10.1706 20.2078 10.3259 19.9764 10.503C19.7508 10.6756 19.4131 10.852 18.9733 11.0102C18.0948 11.3264 16.8248 11.5648 15.2717 11.5648L15.2714 11.5648C14.4588 11.5671 13.6478 11.4926 12.8487 11.3423L12.8487 11.3422L12.8448 11.3417C12.7164 11.3227 12.5858 11.3537 12.4791 11.4282C12.3725 11.5026 12.2976 11.6149 12.2688 11.7423L12.2686 11.7423L12.2677 11.7476C12.2455 11.8783 12.274 12.0127 12.3477 12.1226C12.4214 12.2324 12.5346 12.3091 12.6636 12.3356L12.6636 12.3357L12.6658 12.3361C13.538 12.495 14.4223 12.5747 15.3083 12.5743V12.4743M12.8302 11.4406C13.6355 11.592 14.4528 11.6671 15.2717 11.6648L12.8302 11.4406ZM15.3083 12.4743C18.1771 12.4743 21.229 11.6274 21.1923 10.0581M15.3083 12.4743L21.1923 10.0581M21.1923 10.0581V7.64194C21.2025 7.58285 21.1999 7.52218 21.1847 7.46422C21.1695 7.40626 21.142 7.35241 21.1042 7.30645C21.0664 7.26048 21.0191 7.22352 20.9658 7.19817C20.9125 7.17281 20.8544 7.15967 20.7956 7.15967C20.7368 7.15967 20.6787 7.17281 20.6254 7.19817C20.5721 7.22352 20.5248 7.26048 20.487 7.30645C20.4492 7.35241 20.4217 7.40626 20.4065 7.46422L21.1923 10.0581Z" fill="white" stroke="white" stroke-width="0.2"/>
<path d="M9.418 9.71275C9.50985 9.80646 9.63486 9.85948 9.76564 9.85948C9.89642 9.85948 10.0214 9.80646 10.1133 9.71275C10.2051 9.6191 10.2563 9.49252 10.2563 9.36093V7.6422C10.2563 7.51062 10.2051 7.38403 10.1133 7.29039C10.0214 7.19668 9.89642 7.14365 9.76564 7.14365C9.63486 7.14365 9.50985 7.19668 9.418 7.29039C9.32622 7.38403 9.275 7.51062 9.275 7.6422V9.36093C9.275 9.49252 9.32622 9.6191 9.418 9.71275Z" fill="white" stroke="white" stroke-width="0.2"/>
<path d="M13.0172 14.1943L13.0172 14.1943C13.7701 14.3209 14.5321 14.3829 15.2952 14.3797L15.2956 14.3797C16.8489 14.3797 18.1189 14.1444 18.9974 13.8298C19.4371 13.6723 19.7747 13.4964 20.0002 13.3233C20.2311 13.1461 20.3228 12.9891 20.3228 12.8731V10.4569V10.4483L20.3242 10.4399C20.3446 10.3221 20.405 10.2149 20.4955 10.1374C20.586 10.0599 20.7007 10.0172 20.8195 10.0172C20.9383 10.0172 21.053 10.0599 21.1436 10.1374C21.234 10.2149 21.2945 10.3221 21.3148 10.4399L21.3163 10.4483V10.4569V12.8728V12.8731H21.2163C21.2285 14.4424 18.1766 15.2893 15.3078 15.2893L13.0172 14.1943ZM13.0172 14.1943L13.0145 14.1939C12.8849 14.1757 12.7537 14.2096 12.6486 14.2879C12.5439 14.3658 12.4732 14.4816 12.4506 14.6108C12.4377 14.6751 12.4378 14.7414 12.4508 14.8058C12.464 14.8706 12.49 14.9321 12.5275 14.9865C12.5649 15.0408 12.613 15.0869 12.6688 15.1218C12.7242 15.1564 12.7861 15.1793 12.8506 15.1888C12.8511 15.1889 12.8515 15.1889 12.852 15.189L12.8663 15.09L13.0172 14.1943Z" fill="white" stroke="white" stroke-width="0.2"/>
<path d="M12.5367 17.4437C12.528 17.4961 12.5297 17.5497 12.5417 17.6015C12.5536 17.6532 12.5756 17.702 12.6063 17.7449C12.637 17.7879 12.6759 17.8241 12.7205 17.8515C12.7652 17.8789 12.8147 17.8969 12.8663 17.9045M12.5367 17.4437L15.3078 18.1162V18.2162C15.3079 18.2162 15.3079 18.2162 15.3079 18.2162C16.7505 18.2162 18.2429 18.0003 19.3798 17.5843C19.948 17.3763 20.4333 17.1163 20.7791 16.8032C21.1258 16.4892 21.3373 16.1165 21.3407 15.6883V15.6876V13.2714V13.2628L21.3392 13.2544C21.3189 13.1365 21.2584 13.0293 21.1679 12.9519C21.0774 12.8744 20.9627 12.8316 20.8439 12.8316C20.7251 12.8316 20.6104 12.8744 20.5199 12.9519C20.4294 13.0293 20.369 13.1365 20.3486 13.2544L20.3472 13.2628V13.2714V15.6876C20.3472 15.8037 20.2553 15.9615 20.0244 16.1399C19.7988 16.3142 19.4612 16.4916 19.0215 16.6506C18.1431 16.9683 16.8731 17.2067 15.32 17.2067L15.3192 17.2067C14.548 17.2126 13.7778 17.1464 13.0184 17.009L13.0175 17.0088C12.8855 16.9862 12.7504 17.018 12.6418 17.0967C12.5333 17.1754 12.4603 17.2943 12.4381 17.4272L12.438 17.4273C12.4272 17.4926 12.4293 17.5595 12.4442 17.624C12.4592 17.6885 12.4866 17.7494 12.525 17.8031C12.5634 17.8568 12.6121 17.9023 12.6682 17.9367C12.7239 17.9709 12.7858 17.9935 12.8503 18.0032M12.5367 17.4437C12.5546 17.3364 12.6135 17.2407 12.7005 17.1777M12.5367 17.4437L12.7005 17.1777M12.8663 17.9045L12.849 18.003C12.8494 18.003 12.8498 18.0031 12.8503 18.0032M12.8663 17.9045L12.8518 18.0034C12.8513 18.0033 12.8508 18.0033 12.8503 18.0032M12.8663 17.9045L12.8503 18.0032M12.7005 17.1777C12.7875 17.1146 12.8954 17.0893 13.0006 17.1074L12.7005 17.1777Z" fill="white" stroke="white" stroke-width="0.2"/>
<path d="M1.38926 11.2663C1.38926 11.6947 1.59853 12.0669 1.94377 12.3799C2.28787 12.692 2.77217 12.9505 3.33962 13.1568C4.47507 13.5698 5.96746 13.7825 7.40991 13.7825C8.85235 13.7825 10.3447 13.5698 11.4802 13.1568C12.0477 12.9505 12.5319 12.692 12.876 12.3799C13.2213 12.0669 13.4306 11.6947 13.4306 11.2663C13.4306 10.8379 13.2213 10.4657 12.876 10.1526C12.5319 9.84063 12.0477 9.5821 11.4802 9.37574C10.3447 8.9628 8.85235 8.7501 7.40991 8.7501C5.96746 8.7501 4.47507 8.9628 3.33962 9.37574C2.77217 9.5821 2.28787 9.84063 1.94377 10.1526C1.59853 10.4657 1.38926 10.8379 1.38926 11.2663ZM2.37054 11.2663C2.37054 11.1501 2.46238 10.9924 2.69349 10.814C2.91924 10.6397 3.25722 10.4623 3.69768 10.3033C4.57762 9.9856 5.85067 9.74719 7.40991 9.74719C8.96899 9.74719 10.2389 9.98867 11.1158 10.3078C11.5547 10.4676 11.8913 10.6454 12.116 10.8192C12.3463 10.9973 12.4371 11.1535 12.4371 11.2663C12.4371 11.379 12.3465 11.5343 12.1162 11.7113C11.8916 11.8839 11.555 12.0602 11.1161 12.2184C10.2392 12.5345 8.96913 12.7729 7.40991 12.7729C5.85053 12.7729 4.57738 12.5376 3.69739 12.223C3.25689 12.0655 2.91894 11.8896 2.69324 11.7165C2.4622 11.5392 2.37054 11.3823 2.37054 11.2663Z" fill="white" stroke="white" stroke-width="0.2"/>
<path d="M12.9415 11.1663C12.876 11.1644 12.8109 11.1759 12.7499 11.2C12.6885 11.2243 12.6325 11.2608 12.5854 11.3075C12.5383 11.3541 12.501 11.4097 12.4756 11.4711C12.4501 11.5325 12.437 11.5984 12.4371 11.6649C12.4371 11.6649 12.4371 11.6649 12.4371 11.6649V14.081C12.4371 14.1973 12.3459 14.3543 12.1161 14.5314C11.8916 14.7044 11.5552 14.8803 11.1162 15.0378C10.2393 15.3524 8.96929 15.5877 7.40991 15.5877C5.85053 15.5877 4.57738 15.3524 3.69739 15.0377C3.25689 14.8803 2.91894 14.7043 2.69324 14.5312C2.4622 14.354 2.37054 14.197 2.37054 14.081V11.6649C2.37054 11.5333 2.31932 11.4067 2.22754 11.313C2.13569 11.2193 2.01068 11.1663 1.8799 11.1663C1.74912 11.1663 1.62411 11.2193 1.53226 11.313C1.44047 11.4067 1.38926 11.5333 1.38926 11.6649V14.081C1.38926 14.5094 1.59853 14.8817 1.94377 15.1947C2.28787 15.5067 2.77217 15.7652 3.33962 15.9716C4.47507 16.3845 5.96746 16.5972 7.40991 16.5972C8.85235 16.5972 10.3447 16.3845 11.4802 15.9716C12.0477 15.7652 12.5319 15.5067 12.876 15.1947C13.2213 14.8817 13.4306 14.5094 13.4306 14.081V11.6649C13.4306 11.5333 13.3793 11.4067 13.2876 11.313C13.1961 11.2197 13.0717 11.1667 12.9415 11.1663ZM12.9415 11.1663C12.942 11.1663 12.9426 11.1663 12.9431 11.1664L12.9399 11.2663V11.1663C12.9404 11.1663 12.941 11.1663 12.9415 11.1663Z" fill="white" stroke="white" stroke-width="0.2"/>
<path d="M12.4371 14.4766L12.4371 14.4766C12.441 14.3444 12.4953 14.2186 12.589 14.1259C12.6827 14.0332 12.8085 13.981 12.9399 13.9811L12.4371 14.4766ZM12.4371 14.4766V14.4796M12.4371 14.4766V14.4796M12.4371 14.4796V16.8958C12.4371 17.0122 12.3457 17.17 12.1158 17.3482C11.8913 17.5225 11.5548 17.6999 11.1159 17.8589C10.2391 18.1765 8.96915 18.4149 7.40991 18.4149C5.85067 18.4149 4.57762 18.1765 3.69768 17.8588C3.25722 17.6998 2.91924 17.5224 2.69349 17.3481C2.46238 17.1697 2.37054 17.0119 2.37054 16.8958V14.4796C2.37054 14.348 2.31932 14.2214 2.22754 14.1278C2.13569 14.0341 2.01068 13.9811 1.8799 13.9811C1.74912 13.9811 1.62411 14.0341 1.53226 14.1278C1.44047 14.2214 1.38926 14.348 1.38926 14.4796V16.8958C1.38926 17.327 1.59826 17.7015 1.94355 18.0164M12.4371 14.4796L1.94355 18.0164M1.94355 18.0164C2.28766 18.3303 2.772 18.59 3.3395 18.7972M1.94355 18.0164L3.3395 18.7972M3.3395 18.7972C4.47503 19.2117 5.96748 19.4244 7.40991 19.4244M3.3395 18.7972L7.40991 19.4244M7.40991 19.4244C8.85234 19.4244 10.3448 19.2117 11.4803 18.7972C12.0478 18.59 12.5322 18.3303 12.8763 18.0164C13.2216 17.7015 13.4306 17.327 13.4306 16.8958V14.4796C13.4306 14.348 13.3793 14.2214 13.2876 14.1278C13.1957 14.0341 13.0707 13.9811 12.94 13.9811L7.40991 19.4244Z" fill="white" stroke="white" stroke-width="0.2"/>
<path d="M12.9415 16.8455C12.876 16.8436 12.8109 16.8551 12.7499 16.8792C12.6885 16.9035 12.6325 16.94 12.5854 16.9867C12.5383 17.0333 12.501 17.0889 12.4756 17.1503C12.4501 17.2117 12.437 17.2776 12.4371 17.3441C12.4371 17.3441 12.4371 17.3441 12.4371 17.3441V19.7602C12.4371 19.8765 12.3459 20.0335 12.1161 20.2106C11.8916 20.3836 11.5552 20.5595 11.1162 20.717C10.2393 21.0316 8.96929 21.2669 7.40991 21.2669C5.85053 21.2669 4.57738 21.0316 3.69739 20.7169C3.25689 20.5595 2.91894 20.3835 2.69324 20.2104C2.4622 20.0332 2.37054 19.8762 2.37054 19.7602V17.3441C2.37054 17.2125 2.31932 17.0859 2.22754 16.9922C2.13569 16.8985 2.01068 16.8455 1.8799 16.8455C1.74912 16.8455 1.62411 16.8985 1.53226 16.9922C1.44047 17.0859 1.38926 17.2125 1.38926 17.3441V19.7229C1.38926 20.1513 1.59853 20.5235 1.94377 20.8365C2.28787 21.1485 2.77217 21.4071 3.33962 21.6134C4.47507 22.0264 5.96746 22.2391 7.40991 22.2391C8.85238 22.2391 10.3446 22.0264 11.4799 21.6182C12.0472 21.4143 12.5313 21.1594 12.8754 20.8529C13.2205 20.5455 13.4306 20.1801 13.4306 19.7602V17.3441C13.4306 17.2125 13.3793 17.0859 13.2876 16.9922C13.1961 16.8989 13.0717 16.8459 12.9415 16.8455ZM12.9415 16.8455C12.942 16.8455 12.9426 16.8455 12.9431 16.8456L12.9399 16.9455V16.8455C12.9404 16.8455 12.941 16.8455 12.9415 16.8455Z" fill="white" stroke="white" stroke-width="0.2"/>
</svg>
