<svg width="20" height="20" viewBox="0 0 20 20" fill="none" xmlns="http://www.w3.org/2000/svg">
<g clip-path="url(#clip0_2_1310)">
<g clip-path="url(#clip1_2_1310)">
<path d="M11.1049 10L19.7712 1.33372C20.0763 1.0286 20.0763 0.53392 19.7712 0.22884C19.466 -0.07624 18.9714 -0.07628 18.6663 0.22884L9.99998 8.89514L1.33372 0.22884C1.0286 -0.07628 0.53392 -0.07628 0.22884 0.22884C-0.07624 0.53396 -0.07628 1.02864 0.22884 1.33372L8.8951 9.99999L0.22884 18.6663C-0.07628 18.9714 -0.07628 19.4661 0.22884 19.7712C0.38138 19.9237 0.58134 20 0.7813 20C0.98126 20 1.18118 19.9237 1.33376 19.7712L9.99999 11.1049L18.6663 19.7712C18.8188 19.9237 19.0187 20 19.2187 20C19.4187 20 19.6186 19.9237 19.7712 19.7712C20.0763 19.466 20.0763 18.9714 19.7712 18.6663L11.1049 10Z" fill="#17A441"/>
</g>
</g>
<defs>
<clipPath id="clip0_2_1310">
<rect width="20" height="20" fill="white"/>
</clipPath>
<clipPath id="clip1_2_1310">
<rect width="20" height="20" fill="white"/>
</clipPath>
</defs>
</svg>
