<svg width="27" height="18" viewBox="0 0 27 18" fill="none" xmlns="http://www.w3.org/2000/svg">
<path fill-rule="evenodd" clip-rule="evenodd" d="M24.6522 18H2.34783C1.05124 18 0 16.9926 0 15.75V2.25C0 1.00744 1.05124 0 2.34783 0H24.6522C25.9488 0 27 1.00744 27 2.25V15.75C27 16.9926 25.9488 18 24.6522 18ZM1.17391 7.3125H25.8261V5.0625H1.17391V7.3125ZM25.8261 2.25C25.8261 1.629 25.3002 1.125 24.6522 1.125H2.34783C1.69983 1.125 1.17391 1.629 1.17391 2.25V3.9375H25.8261V2.25ZM25.8261 8.4375H1.17391V15.75C1.17391 16.371 1.69983 16.875 2.34783 16.875H24.6522C25.3002 16.875 25.8261 16.371 25.8261 15.75V8.4375ZM14.6739 11.8125H12.3261C12.0015 11.8125 11.7391 11.5611 11.7391 11.25C11.7391 10.9395 12.0015 10.6875 12.3261 10.6875H14.6739C14.9985 10.6875 15.2609 10.9395 15.2609 11.25C15.2609 11.5611 14.9985 11.8125 14.6739 11.8125ZM9.3913 11.8125H4.1087C3.78411 11.8125 3.52174 11.5611 3.52174 11.25C3.52174 10.9395 3.78411 10.6875 4.1087 10.6875H9.3913C9.71589 10.6875 9.97826 10.9395 9.97826 11.25C9.97826 11.5611 9.71589 11.8125 9.3913 11.8125ZM4.1087 13.5H7.63043C7.95502 13.5 8.21739 13.752 8.21739 14.0625C8.21739 14.3736 7.95502 14.625 7.63043 14.625H4.1087C3.78411 14.625 3.52174 14.3736 3.52174 14.0625C3.52174 13.752 3.78411 13.5 4.1087 13.5Z" fill="#6F6E6D"/>
</svg>
