<svg width="25" height="25" viewBox="0 0 25 25" fill="none" xmlns="http://www.w3.org/2000/svg">
<rect x="0.5" y="0.5" width="24" height="24" stroke="#6F6E6D"/>
<g clip-path="url(#clip0_1031_17574)">
<path d="M16.0824 12.6974V20.4128C16.0824 21.5036 15.3081 22.388 14.3368 22.388H6.77502C5.8016 22.388 5.02734 21.5036 5.02734 20.4128V8.56162C5.03012 8.03871 5.21942 7.53809 5.55419 7.16833C5.88897 6.79857 6.34223 6.58949 6.81566 6.58643H10.641C10.7734 6.58665 10.9045 6.61598 11.0265 6.6727C11.1486 6.72942 11.2592 6.81241 11.3519 6.91682L15.7881 11.8997C15.9769 12.1129 16.0825 12.3992 16.0824 12.6974V12.6974Z" stroke="white" stroke-width="1.25" stroke-linejoin="round"/>
<path d="M10.5547 6.58643V11.4346C10.5583 11.7668 10.6793 12.0842 10.892 12.319C11.1046 12.5539 11.392 12.6876 11.6927 12.6916H16.0822" stroke="white" stroke-width="1.25" stroke-linecap="round" stroke-linejoin="round"/>
<path d="M9.57812 6.58636V4.25205C9.5809 3.72914 9.7702 3.22852 10.105 2.85876C10.4398 2.489 10.893 2.27992 11.3664 2.27686H15.1869C15.3201 2.27706 15.4519 2.30636 15.5747 2.36306C15.6975 2.41977 15.809 2.50276 15.9027 2.60725L20.3389 7.59012C20.5275 7.80102 20.6333 8.08555 20.6332 8.38199V16.1032C20.6332 17.194 19.8589 18.0784 18.8875 18.0784H16.4063" stroke="white" stroke-width="1.25" stroke-linejoin="round"/>
<path d="M15.1055 2.27686V7.12505C15.1091 7.45718 15.2301 7.77459 15.4428 8.00946C15.6554 8.24433 15.9428 8.37803 16.2435 8.38199H20.633" stroke="white" stroke-width="1.25" stroke-linecap="round" stroke-linejoin="round"/>
</g>
<defs>
<clipPath id="clip0_1031_17574">
<rect width="20.8095" height="22.984" fill="white" transform="translate(2.71484 1)"/>
</clipPath>
</defs>
</svg>
