<svg width="50" height="50" viewBox="0 0 50 50" fill="none" xmlns="http://www.w3.org/2000/svg">
<path d="M25 40C16.717 40 10 33.283 10 25C10 16.717 16.717 10 25 10C33.283 10 40 16.717 40 25C40 33.283 33.283 40 25 40Z" fill="#25D366"/>
<path fill-rule="evenodd" clip-rule="evenodd" d="M31.3466 18.453C29.7689 16.8728 27.6671 16.0025 25.4304 16C20.822 16 17.0687 19.7508 17.0687 24.3616C17.0687 25.835 17.4529 27.2752 18.1858 28.5425L17 32.876L21.4327 31.7131C22.6542 32.3798 24.0283 32.7309 25.4278 32.7309H25.4304C30.0387 32.7309 33.7895 28.9802 33.792 24.3693C33.7945 22.1351 32.9268 20.0332 31.3466 18.453ZM25.4329 31.3187H25.4304C24.1835 31.3187 22.9595 30.9828 21.8933 30.3492L21.6389 30.199L19.0077 30.8886L19.71 28.3236L19.5446 28.0615C18.8499 26.9546 18.481 25.6772 18.481 24.3616C18.4835 20.5294 21.6007 17.4123 25.4354 17.4123C27.293 17.4123 29.0361 18.1375 30.3491 19.4505C31.6621 20.7635 32.3848 22.5117 32.3823 24.3667C32.3823 28.2015 29.2626 31.3187 25.4329 31.3187ZM29.2447 26.1124C29.0361 26.008 28.0081 25.5016 27.8172 25.4329C27.6264 25.3642 27.4864 25.3286 27.3465 25.5373C27.2065 25.7459 26.807 26.2167 26.6849 26.3566C26.5627 26.4966 26.4406 26.5144 26.2319 26.4101C26.0233 26.3057 25.3489 26.0844 24.5525 25.3719C23.9316 24.8171 23.5117 24.1326 23.3896 23.924C23.2674 23.7153 23.3768 23.6008 23.4812 23.4965C23.5753 23.4023 23.6898 23.2522 23.7942 23.13C23.8985 23.0079 23.9341 22.9214 24.0028 22.7814C24.0715 22.6415 24.0384 22.5193 23.985 22.415C23.9316 22.3107 23.5142 21.2826 23.3412 20.8628C23.1707 20.4556 23.0002 20.5116 22.8705 20.504C22.7483 20.4989 22.6084 20.4964 22.471 20.4964C22.331 20.4964 22.1045 20.5498 21.9137 20.7585C21.7228 20.9671 21.1834 21.4735 21.1834 22.5015C21.1834 23.5296 21.9315 24.5245 22.0358 24.6619C22.1401 24.8019 23.5092 26.9114 25.6059 27.8173C26.1047 28.0335 26.494 28.1608 26.7968 28.2575C27.2981 28.4178 27.7536 28.3949 28.1124 28.3414C28.5144 28.2804 29.3491 27.8351 29.5221 27.349C29.6951 26.8605 29.6951 26.4432 29.6443 26.3566C29.5934 26.2701 29.4534 26.2192 29.2447 26.1124Z" fill="white"/>
</svg>
