<svg width="142" height="29" viewBox="0 0 142 29" fill="none" xmlns="http://www.w3.org/2000/svg">
<path d="M29.989 24H33.769V11.742L38.845 24H41.707L46.756 11.742V24H50.536V5.154H46.27L40.276 19.167L34.282 5.154H29.989V24ZM54.2732 24H58.0532V5.154H54.2732V24ZM68.2214 5.154V24H78.2114V21.003H72.0014V5.154H68.2214ZM99.001 14.523C99.001 8.88 94.735 4.884 89.362 4.884C84.043 4.884 79.696 8.88 79.696 14.523C79.696 20.193 84.043 24.189 89.362 24.189C94.708 24.189 99.001 20.193 99.001 14.523ZM83.584 14.523C83.584 10.689 85.933 8.286 89.362 8.286C92.764 8.286 95.113 10.689 95.113 14.523C95.113 18.357 92.764 20.814 89.362 20.814C85.933 20.814 83.584 18.357 83.584 14.523ZM110.507 4.911C105.053 4.911 100.895 8.907 100.895 14.55C100.895 20.193 105.053 24.162 110.534 24.162C115.556 24.162 118.985 20.652 119.741 16.818V13.524H109.535V16.413H116.015C115.448 19.086 113.585 20.76 110.669 20.76C107.159 20.76 104.783 18.384 104.783 14.55C104.783 10.797 107.132 8.394 110.507 8.394C112.505 8.394 114.071 9.231 114.935 10.824H119.282C118.067 7.044 114.719 4.911 110.507 4.911ZM140.925 14.523C140.925 8.88 136.659 4.884 131.286 4.884C125.967 4.884 121.62 8.88 121.62 14.523C121.62 20.193 125.967 24.189 131.286 24.189C136.632 24.189 140.925 20.193 140.925 14.523ZM125.508 14.523C125.508 10.689 127.857 8.286 131.286 8.286C134.688 8.286 137.037 10.689 137.037 14.523C137.037 18.357 134.688 20.814 131.286 20.814C127.857 20.814 125.508 18.357 125.508 14.523Z" fill="#EC631E"/>
<path d="M19.697 3.08325H5.18347C2.8933 3.08325 1.03674 5.02335 1.03674 7.41659V22.5833C1.03674 24.9765 2.8933 26.9166 5.18347 26.9166H19.697C21.9872 26.9166 23.8438 24.9765 23.8438 22.5833V7.41659C23.8438 5.02335 21.9872 3.08325 19.697 3.08325Z" fill="#EC631E"/>
<path d="M7.25684 11.7501C8.40192 11.7501 9.3302 10.78 9.3302 9.58341C9.3302 8.3868 8.40192 7.41675 7.25684 7.41675C6.11175 7.41675 5.18347 8.3868 5.18347 9.58341C5.18347 10.78 6.11175 11.7501 7.25684 11.7501Z" fill="#F6B696"/>
<path d="M23.8437 21.5001V22.5834C23.8437 23.7327 23.4068 24.8349 22.6292 25.6475C21.8515 26.4602 20.7968 26.9167 19.697 26.9167H5.18344C4.24539 26.9174 3.33484 26.5856 2.60051 25.9756C1.86617 25.3657 1.35144 24.5135 1.14038 23.5584L8.59724 15.766C8.79165 15.5629 9.05528 15.4488 9.33017 15.4488C9.60506 15.4488 9.8687 15.5629 10.0631 15.766L11.9364 17.7236C12.0369 17.8284 12.1569 17.9106 12.289 17.965C12.4211 18.0193 12.5625 18.0448 12.7044 18.0397C12.8463 18.0346 12.9857 17.9991 13.114 17.9354C13.2422 17.8717 13.3566 17.7812 13.4499 17.6694L15.8613 14.7899C15.9546 14.6781 16.069 14.5875 16.1972 14.5238C16.3255 14.4601 16.4649 14.4247 16.6068 14.4196C16.7487 14.4145 16.8901 14.4399 17.0222 14.4943C17.1543 14.5487 17.2744 14.6309 17.3748 14.7357L23.8437 21.5001Z" fill="#F6B696"/>
</svg>
