<svg width="30" height="30" viewBox="0 0 30 30" fill="none" xmlns="http://www.w3.org/2000/svg">
<g clip-path="url(#clip0_3610_583)">
<path d="M28.0842 29.0529H1.84908C1.33161 29.0529 0.912109 28.6334 0.912109 28.1159V11.2504C0.912109 10.733 1.33161 10.3135 1.84908 10.3135C2.36655 10.3135 2.78605 10.733 2.78605 11.2504V27.1789H27.1472V11.2504C27.1472 10.733 27.5667 10.3135 28.0842 10.3135C28.6017 10.3135 29.0212 10.733 29.0212 11.2504V28.1159C29.0212 28.6334 28.6017 29.0529 28.0842 29.0529Z" fill="#EC631E"/>
<path d="M28.0847 12.1875C27.8894 12.1863 27.6994 12.124 27.5412 12.0095L14.9671 3.03335L2.39298 12.0095C1.9748 12.2572 1.43666 12.144 1.15371 11.7488C0.87075 11.3537 0.93693 10.8078 1.3061 10.4916L14.4237 1.12194C14.749 0.890342 15.1853 0.890342 15.5106 1.12194L28.6281 10.4916C28.9563 10.7292 29.0946 11.1507 28.971 11.5365C28.8473 11.9223 28.4898 12.185 28.0847 12.1876V12.1875Z" fill="#EC631E"/>
<path d="M14.9671 21.1265C14.3837 21.1354 13.8127 20.9581 13.3368 20.6205L1.3061 12.0098C0.93693 11.6937 0.87075 11.1477 1.15371 10.7526C1.43667 10.3574 1.9748 10.2442 2.39298 10.4919L14.4237 19.0839C14.749 19.3155 15.1853 19.3155 15.5106 19.0839L27.5412 10.4919C27.8103 10.2615 28.1862 10.2025 28.5128 10.3394C28.8395 10.4763 29.061 10.7857 29.0854 11.1391C29.1098 11.4924 28.9329 11.8293 28.6281 12.0098L16.5974 20.6205C16.1216 20.9581 15.5505 21.1354 14.9671 21.1265H14.9671Z" fill="#EC631E"/>
<rect x="1.32324" y="25.459" width="10.138" height="1.87394" transform="rotate(-33.6901 1.32324 25.459)" fill="#EC631E"/>
<rect x="19.127" y="21.3994" width="1.87394" height="10.138" transform="rotate(-56.3099 19.127 21.3994)" fill="#EC631E"/>
<rect x="8.4082" y="10.3135" width="13.1176" height="1.87394" fill="#EC631E"/>
</g>
<defs>
<clipPath id="clip0_3610_583">
<rect width="28.1751" height="28.1044" fill="white" transform="translate(0.912109 0.948242)"/>
</clipPath>
</defs>
</svg>
