<svg width="32" height="30" viewBox="0 0 32 30" fill="none" xmlns="http://www.w3.org/2000/svg">
<path d="M13.5954 17.1602C13.5954 17.1602 17.3508 20.862 18.8799 21.1571L22.0183 18.0185C22.0183 18.0185 23.2522 16.8383 24.5666 18.0453L29.6901 23.1689C29.6901 23.1689 30.5217 24.6977 29.556 25.6366L27.0613 28.1314C27.0613 28.1314 22.662 30.948 15.6072 26.4414C15.6072 26.4414 12.2811 24.6977 9.19629 21.5594" stroke="#EC631E" stroke-width="2"/>
<path d="M13.8651 17.4275C13.8651 17.4275 10.1634 13.672 9.84145 12.143L12.9799 9.00461C12.9799 9.00461 14.1602 7.7706 12.9531 6.45639L7.80282 1.33279C7.80282 1.33279 6.27383 0.501307 5.33499 1.46695L2.8403 3.96158C2.8403 3.96158 0.0237746 8.36087 4.55704 15.4157C4.55704 15.4157 6.30063 18.7418 9.46591 21.8267" stroke="#EC631E" stroke-width="2"/>
</svg>
