<svg width="22" height="26" viewBox="0 0 22 26" fill="none" xmlns="http://www.w3.org/2000/svg">
<g clip-path="url(#clip0_137_9059)">
<path fill-rule="evenodd" clip-rule="evenodd" d="M14.5907 9.41992C14.2545 9.41992 13.982 9.69241 13.982 10.0287V21.5338C13.982 21.8698 14.2545 22.1426 14.5907 22.1426C14.927 22.1426 15.1995 21.8698 15.1995 21.5338V10.0287C15.1995 9.69241 14.927 9.41992 14.5907 9.41992Z" fill="#E63A40"/>
<path fill-rule="evenodd" clip-rule="evenodd" d="M7.40775 9.41992C7.07151 9.41992 6.79901 9.69241 6.79901 10.0287V21.5338C6.79901 21.8698 7.07152 22.1426 7.40775 22.1426C7.74398 22.1426 8.01649 21.8698 8.01649 21.5338V10.0287C8.01649 9.69241 7.74398 9.41992 7.40775 9.41992Z" fill="#E63A40"/>
<path fill-rule="evenodd" clip-rule="evenodd" d="M2.17291 7.74139V22.7395C2.17291 23.6259 2.49797 24.4584 3.06581 25.0558C3.63103 25.6548 4.41764 25.9948 5.24087 25.9962H16.7584C17.5819 25.9948 18.3685 25.6548 18.9335 25.0558C19.5013 24.4584 19.8264 23.6259 19.8264 22.7395V7.74139C20.9552 7.44178 21.6866 6.35128 21.5356 5.193C21.3844 4.03497 20.3978 3.1687 19.2298 3.16846H16.1131V2.40753C16.1166 1.76764 15.8636 1.15319 15.4106 0.70116C14.9577 0.24936 14.3423 -0.00222037 13.7024 0.00300963H8.29694C7.65705 -0.00222037 7.04165 0.24936 6.58866 0.70116C6.13567 1.1532 5.88266 1.76764 5.88623 2.40753V3.16846H2.76953C1.60151 3.1687 0.614924 4.03496 0.463694 5.193C0.312694 6.35127 1.04413 7.44177 2.17292 7.74139H2.17291ZM16.7584 24.7787H5.24086C4.20006 24.7787 3.39039 23.8847 3.39039 22.7395V7.7949H18.6089V22.7395C18.6089 23.8847 17.7992 24.7787 16.7584 24.7787H16.7584ZM7.1037 2.40755C7.09966 2.09058 7.22426 1.78549 7.44921 1.56173C7.67392 1.33797 7.97972 1.21503 8.29693 1.2205H13.7024C14.0196 1.21503 14.3254 1.33797 14.5501 1.56173C14.775 1.78525 14.8996 2.09057 14.8956 2.40755V3.16848H7.10371L7.1037 2.40755ZM2.76952 4.38595H19.2298C19.8349 4.38595 20.3255 4.87651 20.3255 5.48168C20.3255 6.08685 19.8349 6.57741 19.2298 6.57741H2.76952C2.16435 6.57741 1.67379 6.08685 1.67379 5.48168C1.67379 4.87651 2.16435 4.38595 2.76952 4.38595Z" fill="#E63A40"/>
<path fill-rule="evenodd" clip-rule="evenodd" d="M10.9997 9.41992C10.6635 9.41992 10.391 9.69241 10.391 10.0287V21.5338C10.391 21.8698 10.6635 22.1426 10.9997 22.1426C11.336 22.1426 11.6085 21.8698 11.6085 21.5338V10.0287C11.6085 9.69241 11.336 9.41992 10.9997 9.41992Z" fill="#E63A40"/>
</g>
<defs>
<clipPath id="clip0_137_9059">
<rect width="21.1113" height="25.9933" fill="white" transform="translate(0.444 0.00292969)"/>
</clipPath>
</defs>
</svg>
