<svg width="50" height="50" viewBox="0 0 50 50" fill="none" xmlns="http://www.w3.org/2000/svg">
<path d="M25.017 49.533C21.7065 49.533 18.496 48.8852 15.4736 47.6063C12.5542 46.3715 9.93263 44.6035 7.68052 42.3525C5.42943 40.1004 3.66147 37.4789 2.42671 34.5594C1.14774 31.537 0.5 28.3265 0.5 25.016C0.5 21.7065 1.14774 18.496 2.42671 15.4736C3.66147 12.5542 5.42943 9.93264 7.68052 7.68056C9.93262 5.42849 12.5541 3.66053 15.4736 2.42573C18.496 1.14779 21.7065 0.5 25.017 0.5C28.3265 0.5 31.537 1.14779 34.5594 2.42573C37.4788 3.66053 40.1003 5.42849 42.3524 7.68056C44.6045 9.93263 46.3724 12.5542 47.6063 15.4736C48.8852 18.496 49.533 21.7065 49.533 25.016C49.533 28.3265 48.8852 31.537 47.6063 34.5594C46.3724 37.4788 44.6045 40.1004 42.3524 42.3525C40.1003 44.6035 37.4788 46.3715 34.5594 47.6063C31.537 48.8852 28.3265 49.533 25.017 49.533Z" fill="#6F6E6D"/>
<path fill-rule="evenodd" clip-rule="evenodd" d="M25.0005 0.979758C21.7565 0.979758 18.6115 1.61463 15.6507 2.86676C12.7907 4.07677 10.2218 5.80899 8.01538 8.01441C5.80895 10.2208 4.07673 12.7898 2.86675 15.6507C1.61459 18.6115 0.979769 21.7565 0.979769 24.9995C0.979769 28.2425 1.6146 31.3885 2.86675 34.3493C4.07674 37.2093 5.80895 39.7782 8.01538 41.9846C10.2218 44.191 12.7907 45.9232 15.6507 47.1332C18.6115 48.3854 21.7565 49.0202 25.0005 49.0202C28.2435 49.0202 31.3885 48.3854 34.3493 47.1332C37.2103 45.9232 39.7791 44.191 41.9846 41.9846C44.191 39.7782 45.9232 37.2093 47.1333 34.3493C48.3853 31.3885 49.0202 28.2425 49.0202 24.9995C49.0202 21.7565 48.3853 18.6115 47.1333 15.6507C45.9232 12.7898 44.191 10.2208 41.9846 8.01441C39.7791 5.80899 37.2103 4.07677 34.3493 2.86676C31.3885 1.61463 28.2435 0.979758 25.0005 0.979758ZM25.0005 0C38.8072 0 50 11.1928 50 24.9995C50 38.8072 38.8072 50 25.0005 50C11.1927 50 0 38.8072 0 24.9995C0 11.1927 11.1927 0 25.0005 0Z" fill="#B7B7B7"/>
<path d="M15.3725 34.4929C15.4902 34.3316 15.658 34.2148 15.8491 34.1613C16.0402 34.1078 16.2434 34.1206 16.4264 34.1978C16.6003 34.2691 16.7457 34.3971 16.8396 34.5615C16.9334 34.726 16.9702 34.9174 16.9443 35.1054C16.9259 35.4741 16.9259 35.8435 16.9443 36.2122C16.9443 36.4299 16.8239 36.393 16.6963 36.3967C16.5687 36.4004 16.441 36.4188 16.452 36.2122C16.452 35.8728 16.452 35.5334 16.452 35.1939C16.452 34.7881 16.2769 34.5962 15.9523 34.6036C15.6278 34.611 15.4636 34.8102 15.46 35.2087C15.46 35.5481 15.46 35.8876 15.46 36.2233C15.46 36.452 15.3214 36.3856 15.2047 36.393C15.088 36.4004 14.9713 36.4188 14.9786 36.2233C14.9786 35.8544 14.9786 35.4854 14.9786 35.1165C14.9786 34.7475 14.8327 34.5999 14.5483 34.5999C14.4782 34.5943 14.4078 34.6047 14.3422 34.6302C14.2766 34.6557 14.2175 34.6958 14.1692 34.7475C14.121 34.7991 14.0848 34.8611 14.0633 34.9288C14.0417 34.9965 14.0355 35.0682 14.045 35.1386C14.045 35.4854 14.045 35.8359 14.045 36.1827C14.045 36.3746 13.9866 36.4225 13.8116 36.4115C13.6365 36.4004 13.5527 36.4115 13.5599 36.1975C13.5599 35.6035 13.5599 35.0058 13.5599 34.4081C13.5599 34.338 13.5089 34.2162 13.6256 34.2125C13.7423 34.2089 13.921 34.1314 14.0231 34.2716C14.0632 34.3232 14.0231 34.397 14.1362 34.3306C14.6723 34.0318 14.975 34.0687 15.3725 34.4929Z" fill="#FAFAFA"/>
<path d="M36.2978 34.4417V33.6374C36.2978 33.4862 36.2467 33.3312 36.5129 33.3349C36.7792 33.3386 36.75 33.4493 36.75 33.6264C36.75 34.4085 36.75 35.1944 36.75 35.9802C36.75 36.3234 36.6333 36.4119 36.3087 36.2902C36.2394 36.2607 36.1957 36.2127 36.1045 36.2606C35.9164 36.3735 35.6954 36.4167 35.4792 36.3831C35.2631 36.3495 35.0651 36.241 34.9192 36.0762C34.7608 35.9171 34.6522 35.7144 34.6068 35.4933C34.5614 35.2723 34.5813 35.0426 34.664 34.8328C34.7157 34.6702 34.8081 34.5239 34.9321 34.408C35.0561 34.2921 35.2076 34.2106 35.3719 34.1713C35.5362 34.1319 35.7077 34.1362 35.8699 34.1835C36.0321 34.2309 36.1795 34.3199 36.2978 34.4417ZM36.3233 35.2977C36.3333 35.2084 36.3242 35.1179 36.2966 35.0325C36.269 34.9471 36.2235 34.8686 36.1634 34.8025C36.1032 34.7364 36.0297 34.6841 35.9478 34.6492C35.8659 34.6144 35.7775 34.5977 35.6887 34.6004C35.6003 34.5989 35.5125 34.6164 35.4312 34.6517C35.3498 34.6869 35.2768 34.7392 35.2169 34.8051C35.157 34.8709 35.1115 34.9489 35.0834 35.0338C35.0554 35.1187 35.0454 35.2086 35.0542 35.2977C35.0458 35.3868 35.0563 35.4767 35.0851 35.5613C35.1139 35.6459 35.1602 35.7233 35.221 35.7883C35.2818 35.8533 35.3557 35.9044 35.4376 35.9381C35.5195 35.9719 35.6076 35.9875 35.696 35.9839C35.7858 35.9928 35.8765 35.9808 35.961 35.9489C36.0456 35.917 36.1219 35.8661 36.1841 35.7999C36.2463 35.7338 36.2928 35.6542 36.3201 35.5672C36.3473 35.4802 36.3547 35.388 36.3415 35.2977H36.3233Z" fill="#F8F8F8"/>
<path d="M32.0632 34.4624C31.9757 34.1525 32.1507 34.1968 32.3112 34.1821C32.4717 34.1673 32.4972 34.289 32.4972 34.4256C32.4972 34.9495 32.4972 35.4771 32.4972 36.0046C32.4972 36.3183 32.406 36.4179 32.1325 36.2998C32.0639 36.2736 31.9904 36.263 31.9173 36.2687C31.8442 36.2745 31.7733 36.2964 31.7095 36.333C31.4838 36.4085 31.239 36.401 31.0182 36.3119C30.7974 36.2229 30.6148 36.0579 30.5023 35.846C30.3772 35.6067 30.3337 35.3324 30.3785 35.0655C30.4234 34.7986 30.5541 34.5542 30.7503 34.3702C30.9406 34.2158 31.1813 34.1396 31.4246 34.1567C31.6679 34.1737 31.8959 34.2829 32.0632 34.4624ZM32.0632 35.3C32.0554 35.175 32.0116 35.0551 31.9373 34.955C31.863 34.8549 31.7614 34.779 31.645 34.7366C31.5286 34.6941 31.4024 34.6871 31.2821 34.7162C31.1618 34.7454 31.0525 34.8095 30.9677 34.9007C30.8829 34.9919 30.8263 35.1062 30.8049 35.2295C30.7835 35.3528 30.7982 35.4797 30.8472 35.5947C30.8962 35.7096 30.9773 35.8076 31.0806 35.8765C31.1839 35.9454 31.3049 35.9823 31.4287 35.9825C31.5178 35.9906 31.6077 35.9782 31.6915 35.9463C31.7752 35.9144 31.8508 35.8637 31.9125 35.7981C31.9742 35.7324 32.0205 35.6535 32.0479 35.5673C32.0752 35.481 32.083 35.3897 32.0705 35.3H32.0632Z" fill="#F7F7F7"/>
<path d="M19.5382 35.2369C19.5382 35.5173 19.5382 35.794 19.5382 36.0707C19.5382 36.1519 19.5929 36.2884 19.4798 36.3032C19.3668 36.3179 19.1625 36.3954 19.0823 36.2478C19.0021 36.1002 19.013 36.1777 18.951 36.2183C18.7857 36.3383 18.5861 36.4003 18.3827 36.395C18.1792 36.3897 17.9831 36.3173 17.8241 36.1888C17.6522 36.0679 17.5194 35.8984 17.4422 35.7015C17.365 35.5047 17.3469 35.2892 17.3901 35.0819C17.4001 34.9051 17.4559 34.734 17.5518 34.5859C17.6477 34.4377 17.7804 34.3176 17.9367 34.2377C18.0929 34.1577 18.2671 34.1207 18.4419 34.1303C18.6168 34.1399 18.786 34.1958 18.9328 34.2924C18.9692 34.2924 19.0312 34.4105 19.0568 34.3145C19.1297 34.0452 19.3376 34.1891 19.4616 34.1965C19.5856 34.2038 19.5309 34.3883 19.5382 34.4916C19.5491 34.7425 19.5382 34.9897 19.5382 35.2369ZM19.0641 35.2959C19.0752 35.207 19.0671 35.1167 19.0404 35.0313C19.0137 34.9458 18.969 34.8672 18.9094 34.801C18.8497 34.7347 18.7766 34.6823 18.695 34.6473C18.6134 34.6124 18.5253 34.5958 18.4368 34.5986C18.3484 34.5979 18.2608 34.6157 18.1795 34.6508C18.0982 34.686 18.0249 34.7377 17.9643 34.8028C17.9037 34.868 17.8571 34.945 17.8273 35.0293C17.7975 35.1135 17.7852 35.203 17.7913 35.2922C17.7871 35.3843 17.802 35.4762 17.835 35.5621C17.868 35.6479 17.9184 35.7259 17.983 35.7909C18.0476 35.8558 18.1249 35.9064 18.21 35.9394C18.295 35.9723 18.3859 35.9869 18.4769 35.9822C18.8416 35.9748 19.0641 35.7239 19.0641 35.2959Z" fill="#F7F7F7"/>
<path d="M24.6923 35.5076C24.6923 35.9798 25.3232 36.1053 25.7025 35.9097C25.7864 35.8692 25.8629 35.7474 25.976 35.9097C26.089 36.0721 26.1365 36.2086 25.9031 36.3045C25.694 36.417 25.4583 36.4686 25.222 36.4536C24.9857 36.4386 24.7581 36.3576 24.5646 36.2197C24.3866 36.0741 24.2564 35.8773 24.1912 35.6553C24.1261 35.4333 24.1292 35.1965 24.1999 34.9763C24.2465 34.7452 24.3757 34.5395 24.5627 34.3986C24.7498 34.2577 24.9815 34.1915 25.2138 34.2126C25.4466 34.1979 25.6764 34.272 25.858 34.4201C26.0396 34.5683 26.1597 34.7799 26.1948 35.0132C26.3152 35.5223 26.3152 35.5223 25.8301 35.5223L24.6923 35.5076ZM24.674 35.087C24.9986 35.087 25.294 35.087 25.5858 35.087C25.8192 35.087 25.7718 34.9874 25.6988 34.8619C25.6453 34.7653 25.5626 34.6885 25.4629 34.6427C25.3632 34.597 25.2516 34.5846 25.1445 34.6074C24.8673 34.6332 24.7433 34.8029 24.674 35.087Z" fill="#F6F6F6"/>
<path d="M20.9582 34.1868C21.1541 34.1747 21.3505 34.1984 21.5381 34.2569C21.7861 34.3196 21.8116 34.4598 21.7095 34.6701C21.6548 34.7808 21.6074 34.7992 21.487 34.7439C21.2616 34.6277 21.0013 34.6014 20.7576 34.6701C20.6628 34.7033 20.5643 34.7586 20.5753 34.873C20.5862 34.9874 20.6701 35.0095 20.7686 35.0279C20.9723 35.0579 21.1744 35.0985 21.3739 35.1497C21.5105 35.1739 21.6347 35.2445 21.7262 35.3498C21.8177 35.4551 21.871 35.5889 21.8772 35.7289C21.8822 35.8766 21.8366 36.0214 21.7482 36.1391C21.6599 36.2567 21.5341 36.3399 21.3922 36.3746C21.1872 36.4461 20.9698 36.4735 20.7537 36.4551C20.5377 36.4367 20.3279 36.3728 20.1376 36.2676C20.0574 36.227 19.9006 36.1938 20.0246 36.0425C20.0975 35.954 20.1158 35.7585 20.3236 35.8876C20.5357 36.0172 20.7872 36.0645 21.0311 36.0204C21.1734 35.9983 21.3448 35.9835 21.3594 35.788C21.3739 35.5924 21.1952 35.5703 21.0567 35.5371C20.9181 35.5039 20.7686 35.4928 20.6227 35.4596C20.2179 35.3711 20.0501 35.1718 20.0647 34.8213C20.0727 34.655 20.1419 34.4978 20.2586 34.3804C20.3753 34.263 20.5312 34.1939 20.6956 34.1868C20.7831 34.1794 20.8707 34.1868 20.9582 34.1868Z" fill="#F6F6F6"/>
<path d="M23.2986 36.4039C22.8136 36.4039 22.6203 36.2268 22.5911 35.7361C22.5747 35.4584 22.5747 35.1799 22.5911 34.9022C22.5911 34.6919 22.562 34.5776 22.3249 34.6218C22.0879 34.6661 22.1207 34.5481 22.1207 34.4005C22.1207 34.2529 22.1644 34.1607 22.3322 34.1902C22.5 34.2197 22.6167 34.1459 22.5875 33.9356C22.5655 33.8385 22.5655 33.7376 22.5875 33.6405C22.6422 33.4818 22.7881 33.574 22.8938 33.5556C22.9996 33.5371 23.0215 33.6368 23.0288 33.7327C23.0579 34.1865 23.0616 34.1828 23.5211 34.1902C23.6487 34.1902 23.8311 34.1127 23.8165 34.382C23.8165 34.5444 23.7655 34.5997 23.594 34.6034C23.0251 34.6034 23.0251 34.6034 23.0251 35.1937V35.4335C23.0251 35.891 23.1418 35.9869 23.5758 35.8689C23.7217 35.8283 23.7691 35.8689 23.8019 36.0017C23.8347 36.1345 23.9441 36.2378 23.7509 36.319C23.6105 36.3881 23.4542 36.4174 23.2986 36.4039Z" fill="#F9F9F9"/>
<path d="M29.3374 36.4151C29.1035 36.4379 28.8688 36.3809 28.6705 36.2532C28.4723 36.1255 28.3219 35.9345 28.2433 35.7105C28.1643 35.4896 28.1505 35.2503 28.2036 35.0217C28.2567 34.793 28.3744 34.5849 28.5424 34.4228C28.7359 34.2779 28.9659 34.1914 29.206 34.1731C29.446 34.1548 29.6863 34.2056 29.899 34.3195C29.9647 34.3601 30.1179 34.3859 29.9939 34.5261C29.8699 34.6663 29.9063 34.8176 29.6766 34.6995C29.549 34.613 29.3963 34.5729 29.2432 34.5856C29.0902 34.5983 28.946 34.6632 28.8341 34.7696C28.7386 34.8708 28.6735 34.9974 28.6464 35.1345C28.6193 35.2717 28.6313 35.4139 28.681 35.5444C28.8123 35.9466 29.1842 36.0868 29.6474 35.9134C29.7532 35.8691 29.8298 35.7953 29.9392 35.9466C30.0486 36.0978 30.023 36.2307 29.837 36.3155C29.68 36.3862 29.5092 36.4203 29.3374 36.4151Z" fill="#F6F6F6"/>
<path d="M26.7303 35.3155V34.537C26.7303 34.2492 26.8726 34.1238 27.095 34.2639C27.1356 34.2978 27.1865 34.3164 27.2391 34.3164C27.2917 34.3164 27.3426 34.2978 27.3831 34.2639C27.4872 34.2047 27.6079 34.1827 27.7259 34.2012C27.8463 34.2012 28.0432 34.157 28.0177 34.3709C28.0177 34.5185 27.9922 34.7399 27.7004 34.6587C27.4087 34.5776 27.2081 34.7583 27.1825 35.0793C27.1581 35.4477 27.152 35.8171 27.1643 36.1862C27.1643 36.3706 27.1351 36.4481 26.9273 36.4481C26.7194 36.4481 26.7048 36.3669 26.7084 36.2009C26.7376 35.8762 26.7303 35.6032 26.7303 35.3155Z" fill="#FBFBFB"/>
<path d="M33.1112 35.3155C33.1112 35.0572 33.1112 34.7952 33.1112 34.537C33.1112 34.2787 33.2498 34.1238 33.4759 34.2639C33.5164 34.2978 33.5674 34.3164 33.6199 34.3164C33.6725 34.3164 33.7235 34.2978 33.764 34.2639C33.8681 34.2047 33.9888 34.1827 34.1068 34.2012C34.2272 34.2012 34.4277 34.157 34.3986 34.3709C34.3986 34.5148 34.3767 34.7399 34.0813 34.6587C33.7859 34.5776 33.5889 34.7583 33.5634 35.0793C33.5379 35.4003 33.5415 35.7951 33.5634 36.153C33.5634 36.3264 33.5634 36.4444 33.3264 36.4444C33.0893 36.4444 33.1075 36.3264 33.1112 36.1677C33.1112 35.8762 33.1112 35.5922 33.1112 35.3155Z" fill="#FBFBFB"/>
<path d="M25.6242 30.5337C24.5809 31.3142 23.4007 31.8875 22.1462 32.2232C20.9773 32.4914 19.7676 32.524 18.5861 32.3193C17.4047 32.1145 16.2747 31.6763 15.2607 31.0297C14.2466 30.3831 13.3684 29.5408 12.6761 28.5509C11.9839 27.5609 11.4911 26.4427 11.226 25.2601C10.9609 24.0775 10.9287 22.8537 11.1311 21.6585C11.3335 20.4633 11.7667 19.3201 12.4058 18.2942C13.0449 17.2684 13.8775 16.3799 14.856 15.6796C15.8346 14.9792 16.9399 14.4807 18.1088 14.2125C19.3496 13.9362 20.6342 13.9293 21.8779 14.1921C23.1215 14.4549 24.2959 14.9816 25.3236 15.7374C25.4196 15.8092 25.4948 15.9232 25.6367 15.9232C25.6367 15.9823 25.6367 16.0415 25.6367 16.1048C24.9216 16.6401 24.303 17.2959 23.808 18.0436C23.1364 19.0006 22.6592 20.0828 22.4041 21.2277C22.1489 22.3725 22.1209 23.5572 22.3216 24.7131C22.6584 26.9791 23.857 29.0223 25.6618 30.4069L25.6242 30.5337Z" fill="#CECCCC"/>
<path d="M25.5213 30.6932V30.5665C25.9467 30.2136 26.3432 29.8265 26.7071 29.4091C27.5069 28.492 28.1143 27.4201 28.4925 26.2584C28.8708 25.0967 29.0119 23.8694 28.9074 22.6509C28.8131 21.2749 28.3997 19.9407 27.7008 18.7565C27.1499 17.7743 26.4035 16.9185 25.5088 16.2433C25.5088 16.1799 25.5088 16.1208 25.5088 16.0616C26.4364 15.3755 27.4728 14.8542 28.5734 14.5199C30.0513 14.0903 31.6126 14.0461 33.112 14.3915C34.6113 14.7369 35.9998 15.4606 37.1481 16.4952C38.2965 17.5298 39.1673 18.8416 39.6794 20.3085C40.1916 21.7753 40.3284 23.3494 40.0771 24.8841C39.8258 26.4188 39.1946 27.8643 38.2423 29.0857C37.2901 30.3071 36.0477 31.2648 34.6309 31.8696C33.2142 32.4744 31.6692 32.7065 30.1398 32.5444C28.6105 32.3822 27.1466 31.8311 25.8846 30.9424L25.5213 30.6932Z" fill="#F9F9F9"/>
<path d="M25.6196 16.0205C26.5532 16.7066 27.3321 17.576 27.9069 18.5739C28.6363 19.7771 29.0677 21.1326 29.1661 22.5305C29.2751 23.7685 29.1278 25.0154 28.7332 26.1957C28.3385 27.3759 27.7046 28.4649 26.87 29.3968C26.4903 29.8208 26.0765 30.214 25.6327 30.5726C23.7494 29.1658 22.4987 27.09 22.1472 24.7878C21.9367 23.6092 21.9665 22.4012 22.2351 21.2341C22.5036 20.067 23.0055 18.9643 23.7113 17.9903C24.2279 17.2306 24.8734 16.5643 25.6196 16.0205Z" fill="#EBE9E8"/>
</svg>
