<svg width="50" height="50" viewBox="0 0 50 50" fill="none" xmlns="http://www.w3.org/2000/svg">
<path d="M25.017 49.533C21.7065 49.533 18.496 48.8852 15.4736 47.6063C12.5542 46.3715 9.93263 44.6035 7.68052 42.3525C5.42943 40.1004 3.66147 37.4789 2.42671 34.5594C1.14774 31.537 0.5 28.3265 0.5 25.016C0.5 21.7065 1.14774 18.496 2.42671 15.4736C3.66147 12.5542 5.42943 9.93264 7.68052 7.68056C9.93262 5.42849 12.5541 3.66053 15.4736 2.42573C18.496 1.14779 21.7065 0.5 25.017 0.5C28.3265 0.5 31.537 1.14779 34.5593 2.42573C37.4788 3.66053 40.1003 5.42849 42.3524 7.68056C44.6045 9.93263 46.3724 12.5542 47.6063 15.4736C48.8852 18.496 49.533 21.7065 49.533 25.016C49.533 28.3265 48.8852 31.537 47.6063 34.5594C46.3724 37.4788 44.6045 40.1004 42.3524 42.3525C40.1003 44.6035 37.4788 46.3715 34.5593 47.6063C31.537 48.8852 28.3265 49.533 25.017 49.533Z" fill="#6F6E6D"/>
<path fill-rule="evenodd" clip-rule="evenodd" d="M25.0005 0.979758C21.7565 0.979758 18.6115 1.61463 15.6507 2.86676C12.7907 4.07677 10.2218 5.80899 8.01538 8.01441C5.80895 10.2208 4.07673 12.7898 2.86675 15.6507C1.61459 18.6115 0.979769 21.7565 0.979769 24.9995C0.979769 28.2425 1.6146 31.3885 2.86675 34.3493C4.07674 37.2093 5.80895 39.7782 8.01538 41.9846C10.2218 44.191 12.7907 45.9232 15.6507 47.1332C18.6115 48.3854 21.7565 49.0202 25.0005 49.0202C28.2435 49.0202 31.3885 48.3854 34.3493 47.1332C37.2103 45.9232 39.7791 44.191 41.9846 41.9846C44.191 39.7782 45.9232 37.2093 47.1333 34.3493C48.3853 31.3885 49.0202 28.2425 49.0202 24.9995C49.0202 21.7565 48.3853 18.6115 47.1333 15.6507C45.9232 12.7898 44.191 10.2208 41.9846 8.01441C39.7791 5.80899 37.2103 4.07677 34.3493 2.86676C31.3885 1.61463 28.2435 0.979758 25.0005 0.979758ZM25.0005 0C38.8072 0 50 11.1928 50 24.9995C50 38.8072 38.8072 50 25.0005 50C11.1927 50 0 38.8072 0 24.9995C0 11.1927 11.1927 0 25.0005 0Z" fill="#B7B7B7"/>
<path fill-rule="evenodd" clip-rule="evenodd" d="M25.7228 21.5235C25.6961 23.4976 27.4052 24.5965 28.6917 25.2518C29.9782 25.9072 30.4578 26.3508 30.4502 26.9542C30.4502 27.8693 29.3959 28.2769 28.4215 28.2928C27.2077 28.3221 26.0071 28.0235 24.9348 27.4257L24.322 30.4267C25.525 30.9147 26.8045 31.1614 28.0941 31.154C31.6606 31.154 33.9901 29.3158 34.0015 26.4706C34.0015 22.8742 29.2132 22.6584 29.2474 21.044C29.2474 20.5525 29.708 20.029 30.6862 19.8971C31.8335 19.783 32.9889 19.9941 34.032 20.5085L34.6296 17.6074C33.6141 17.2088 32.5392 17.0031 31.4551 17C28.0979 17 25.7456 18.8622 25.7228 21.5235ZM40.3619 17.2518C40.0536 17.2488 39.7515 17.3427 39.4944 17.5214C39.2373 17.7002 39.037 17.9556 38.9193 18.2548L33.8264 30.9382H37.3892L38.0972 28.8962H42.444L42.8551 30.9382H45.9953L43.2585 17.2518H40.3619ZM40.8606 20.9481L41.8883 26.087H39.0716L40.8606 20.9481ZM21.4026 17.2518L18.5935 30.9382H21.9887L24.794 17.2518H21.4026ZM16.382 17.2518L12.8497 26.5665L11.4224 18.6464C11.3632 18.2554 11.1724 17.8996 10.8846 17.6437C10.5969 17.3878 10.2312 17.2488 9.85414 17.2518H4.07993L4 17.6474C5.15835 17.8887 6.28355 18.2807 7.34958 18.8142C7.84821 19.0939 7.98904 19.3417 8.15271 20.013L10.8514 30.9382H14.4408L19.9447 17.2518H16.382Z" fill="white"/>
</svg>
