<svg width="40" height="40" viewBox="0 0 40 40" fill="none" xmlns="http://www.w3.org/2000/svg">
<path d="M33.7248 19.9317C33.6601 19.2923 33.4744 18.6536 33.212 18.0732C32.9683 17.534 32.6431 17.0332 32.2511 16.5962C31.8645 16.1647 31.4125 15.7949 30.9163 15.504C30.4122 15.2083 29.864 14.995 29.2964 14.8715C28.9592 14.7981 28.6153 14.7556 28.2701 14.7453C28.2134 14.7432 28.1566 14.7363 28.1019 14.7315C27.6645 10.9618 24.5388 8.16826 20.9197 8.16895C17.2419 8.16963 14.1589 11.0215 13.7449 14.6609C13.1186 14.7933 12.4843 14.8489 11.906 15.0636C11.0433 15.3846 10.2354 15.8731 9.60101 16.5605C8.98202 17.2308 8.55935 18.0622 8.31896 18.9493C7.86357 20.6301 8.18208 22.4398 9.17032 23.8626C9.77729 24.7367 10.6293 25.4213 11.5969 25.8247C12.2466 26.0957 12.945 26.2391 13.6461 26.2446C14.9809 26.2562 16.3164 26.2487 17.6518 26.2466C18.158 26.2459 18.5186 25.8954 18.5152 25.4186C18.5119 24.9418 18.1526 24.6056 17.6392 24.6049C16.3371 24.6036 15.0357 24.6084 13.7336 24.6036C11.4146 24.594 9.62438 22.6799 9.70517 20.3042C9.77662 18.1994 11.5267 16.4308 13.5814 16.3897C13.8651 16.3842 14.1489 16.389 14.4327 16.3869C14.9789 16.3828 15.3001 16.057 15.3121 15.4958C15.3695 12.7811 17.1531 10.5447 19.7412 9.94234C22.9183 9.20348 26.1441 11.5662 26.4839 14.8825C26.5066 15.1034 26.5193 15.3256 26.528 15.5479C26.548 16.0453 26.8726 16.3808 27.358 16.3856C27.983 16.3924 28.6073 16.3616 29.2216 16.5392C31.0365 17.0654 32.2672 18.858 32.1303 20.792C31.9941 22.7177 30.5351 24.3195 28.6781 24.5555C28.2748 24.607 27.8628 24.6001 27.4548 24.6022C26.3784 24.6084 25.3021 24.6036 24.225 24.6042C23.6915 24.6049 23.3276 24.9363 23.3242 25.4199C23.3216 25.905 23.6855 26.2459 24.2137 26.2466C25.507 26.248 26.8004 26.2514 28.0938 26.2459C28.6888 26.2439 29.2831 26.1513 29.8506 25.9653C30.3969 25.7863 30.915 25.5215 31.3824 25.1805C31.8452 24.843 32.2565 24.4327 32.5977 23.9676C32.9463 23.4929 33.2214 22.9619 33.4137 22.4007C33.6661 21.6632 33.7916 20.8674 33.7368 20.086C33.7348 20.0346 33.7302 19.9831 33.7248 19.9317Z" fill="#EC631E"/>
<path d="M20.1191 30.0213C19.4747 29.3586 18.8904 28.748 18.2955 28.1498C17.8334 27.6853 17.1069 27.8801 16.944 28.5038C16.8692 28.7905 16.9273 29.0567 17.129 29.2646C18.21 30.3821 19.2931 31.4976 20.3862 32.6028C20.6953 32.9149 21.1614 32.9047 21.4712 32.5898C22.5503 31.4949 23.624 30.3931 24.6924 29.2872C25.0149 28.9538 25.0029 28.455 24.6917 28.134C24.3812 27.8136 23.8951 27.8013 23.5672 28.1292C23.017 28.678 22.4795 29.2399 21.936 29.7956C21.8799 29.8532 21.8191 29.9067 21.7216 29.9986C21.7216 29.8587 21.7216 29.7681 21.7216 29.6782C21.7216 26.3928 21.7223 23.1074 21.7203 19.8227C21.7203 19.6958 21.7156 19.5641 21.6822 19.4433C21.5747 19.0502 21.2088 18.808 20.8222 18.8574C20.4496 18.9055 20.1518 19.2258 20.1224 19.6148C20.1151 19.7081 20.1191 19.8028 20.1191 19.8968C20.1191 23.1561 20.1191 26.4162 20.1191 29.6755C20.1191 29.7661 20.1191 29.8566 20.1191 30.0213Z" fill="#EC631E"/>
</svg>
