<svg width="30" height="30" viewBox="0 0 30 30" fill="none" xmlns="http://www.w3.org/2000/svg">
<g clip-path="url(#clip0_3610_492)">
<g clip-path="url(#clip1_3610_492)">
<path fill-rule="evenodd" clip-rule="evenodd" d="M15.2552 28.3294C12.836 28.3294 10.5632 27.7111 8.5859 26.6259L0.947266 29.0533L3.43737 21.7079C2.18139 19.6446 1.45784 17.2251 1.45784 14.6388C1.45784 7.07763 7.63501 0.948242 15.2555 0.948242C22.8751 0.948242 29.0523 7.07763 29.0523 14.6388C29.0523 22.2 22.8754 28.3294 15.2552 28.3294V28.3294ZM15.2552 3.12856C8.85852 3.12856 3.65534 8.29208 3.65534 14.6388C3.65534 17.1573 4.47632 19.4897 5.86471 21.3875L4.41574 25.6619L8.8732 24.2451C10.705 25.4477 12.8991 26.1491 15.2552 26.1491C21.651 26.1491 26.8551 20.9859 26.8551 14.6391C26.8551 8.29238 21.651 3.12855 15.2552 3.12855V3.12856ZM22.2221 17.7919C22.1372 17.6523 21.9117 17.568 21.5742 17.4003C21.2356 17.2326 19.5725 16.4204 19.263 16.3089C18.9526 16.1971 18.7268 16.1406 18.5017 16.4766C18.2765 16.8126 17.6282 17.568 17.4305 17.7919C17.2332 18.0161 17.0361 18.0442 16.6979 17.8762C16.3601 17.7085 15.2702 17.3541 13.978 16.2108C12.9728 15.3214 12.2939 14.2235 12.0968 13.8871C11.8995 13.5514 12.0759 13.37 12.2452 13.2029C12.3973 13.0524 12.5834 12.811 12.7526 12.6152C12.9219 12.4191 12.9781 12.2795 13.0905 12.0553C13.2035 11.8314 13.147 11.6356 13.0624 11.4673C12.9778 11.2996 12.3011 9.64828 12.0194 8.97626C11.7377 8.30486 11.4564 8.41666 11.2587 8.41666C11.0613 8.41666 10.8359 8.38856 10.6104 8.38856C10.3849 8.38856 10.0183 8.47256 9.70823 8.80826C9.39845 9.14427 8.52501 9.95619 8.52501 11.6072C8.52501 13.2585 9.73634 14.854 9.9059 15.0776C10.0748 15.3012 12.2449 18.7999 15.6827 20.1436C19.1218 21.4871 19.1218 21.0389 19.742 20.983C20.3613 20.9271 21.7422 20.1714 22.0248 19.3879C22.3061 18.6038 22.3061 17.9318 22.2221 17.7919V17.7919Z" fill="#EC631E"/>
</g>
</g>
<defs>
<clipPath id="clip0_3610_492">
<rect width="28.105" height="28.105" fill="white" transform="translate(0.947266 0.948242)"/>
</clipPath>
<clipPath id="clip1_3610_492">
<rect width="28.105" height="28.105" fill="white" transform="translate(0.947266 0.948242)"/>
</clipPath>
</defs>
</svg>
