<svg width="50" height="50" viewBox="0 0 50 50" fill="none" xmlns="http://www.w3.org/2000/svg">
<path d="M25.017 49.533C21.7065 49.533 18.496 48.8852 15.4736 47.6063C12.5542 46.3715 9.93263 44.6035 7.68052 42.3525C5.42943 40.1004 3.66147 37.4789 2.42671 34.5594C1.14774 31.537 0.5 28.3265 0.5 25.016C0.5 21.7065 1.14774 18.496 2.42671 15.4736C3.66147 12.5542 5.42943 9.93264 7.68052 7.68056C9.93262 5.42849 12.5541 3.66053 15.4736 2.42573C18.496 1.14779 21.7065 0.5 25.017 0.5C28.3265 0.5 31.537 1.14779 34.5593 2.42573C37.4788 3.66053 40.1003 5.42849 42.3524 7.68056C44.6045 9.93263 46.3724 12.5542 47.6063 15.4736C48.8852 18.496 49.533 21.7065 49.533 25.016C49.533 28.3265 48.8852 31.537 47.6063 34.5594C46.3724 37.4788 44.6045 40.1004 42.3524 42.3525C40.1003 44.6035 37.4788 46.3715 34.5593 47.6063C31.537 48.8852 28.3265 49.533 25.017 49.533Z" fill="#6F6E6D"/>
<path fill-rule="evenodd" clip-rule="evenodd" d="M25.0005 0.979758C21.7565 0.979758 18.6115 1.61463 15.6507 2.86676C12.7907 4.07677 10.2218 5.80899 8.01538 8.01441C5.80895 10.2208 4.07673 12.7898 2.86675 15.6507C1.61459 18.6115 0.979769 21.7565 0.979769 24.9995C0.979769 28.2425 1.6146 31.3885 2.86675 34.3493C4.07674 37.2093 5.80895 39.7782 8.01538 41.9846C10.2218 44.191 12.7907 45.9232 15.6507 47.1332C18.6115 48.3854 21.7565 49.0202 25.0005 49.0202C28.2435 49.0202 31.3885 48.3854 34.3493 47.1332C37.2103 45.9232 39.7791 44.191 41.9846 41.9846C44.191 39.7782 45.9232 37.2093 47.1333 34.3493C48.3853 31.3885 49.0202 28.2425 49.0202 24.9995C49.0202 21.7565 48.3853 18.6115 47.1333 15.6507C45.9232 12.7898 44.191 10.2208 41.9846 8.01441C39.7791 5.80899 37.2103 4.07677 34.3493 2.86676C31.3885 1.61463 28.2435 0.979758 25.0005 0.979758ZM25.0005 0C38.8072 0 50 11.1928 50 24.9995C50 38.8072 38.8072 50 25.0005 50C11.1927 50 0 38.8072 0 24.9995C0 11.1927 11.1927 0 25.0005 0Z" fill="#B7B7B7"/>
<path d="M15.8359 27.8077V28.5325H18.1466V29.3131H15.8359V30.1495H18.3963L19.5828 28.9786L18.4588 27.8077H15.8359Z" fill="white"/>
<path d="M22.3933 30.6178V27.3394L20.9883 28.95L22.3933 30.6178Z" fill="white"/>
<path d="M9.19531 22.1858H10.4867L9.84117 20.5323L9.19531 22.1858Z" fill="white"/>
<path d="M33.0248 20.5323L32.3203 22.1858H33.6705L33.0248 20.5323Z" fill="white"/>
<path d="M25.2232 28.2696C25.1645 27.9153 24.9294 27.7379 24.5771 27.7379H23.3447V28.8008H24.6362C24.9883 28.8009 25.2232 28.6238 25.2232 28.2696Z" fill="white"/>
<path d="M29.3271 28.6839C29.4445 28.6247 29.5034 28.4474 29.5034 28.2706C29.5622 28.0346 29.4445 27.9163 29.3271 27.8572C29.21 27.7981 29.0336 27.7981 28.8578 27.7981H27.6836V28.743H28.8577C29.0336 28.743 29.2099 28.743 29.3271 28.6839Z" fill="white"/>
<path d="M37.7795 19V19.7086L37.4276 19H34.6691V19.7086L34.3167 19H30.5601C29.9145 19 29.386 19.1182 28.9166 19.3544V19H26.2754V19.0591V19.3544C25.982 19.1183 25.6298 19 25.1602 19H15.71L15.064 20.4763L14.4185 19H12.3055H11.425V19.7086L11.1315 19H11.0727H8.54882L7.37469 21.7753L6.02482 24.7868L6 24.846H6.02482H9.01841H9.05589L9.07717 24.7868L9.42951 23.9012H10.1925L10.5447 24.846H13.9488V24.7868V24.1374L14.2425 24.8459H15.9445L16.2379 24.1374V24.7868V24.846H17.5879H24.3382H24.3969V23.3106H24.5146C24.6318 23.3106 24.6318 23.3106 24.6318 23.4878V24.7869H28.858V24.4326C29.2102 24.61 29.7382 24.7869 30.4426 24.7869H32.2037L32.5559 23.8423H33.3774L33.7296 24.7869H37.1339V24.1965V23.9013L37.6624 24.7869H37.7795H37.8384H40.4211V19H37.7797H37.7795ZM17.8816 23.9604H17.2945H16.9424V23.6064V20.7126L16.8837 20.848V20.8464L15.5182 23.9604H15.475H15.161H14.6531L13.2445 20.7126V23.9604H11.2489L10.8381 23.0747H8.84216L8.43123 23.9604H7.39943L9.13583 19.8268H10.6031L12.2466 23.7831V19.8268H12.5987H13.8017L13.8294 19.886H13.8314L14.572 21.5075L15.1038 22.7224L15.1226 22.6612L16.2965 19.8269H17.8815V23.9604H17.8816ZM21.9318 20.7126H19.6426V21.4802H21.8731V22.3068H19.6426V23.1338H21.9318V24.0193H18.6448V19.8269H21.9318V20.7126ZM26.1184 22.2352C26.1199 22.2366 26.1218 22.2375 26.1237 22.2388C26.1459 22.2624 26.1649 22.2861 26.1811 22.3088C26.2935 22.457 26.3844 22.6776 26.389 23.001C26.3893 23.0066 26.3896 23.0121 26.3899 23.0177C26.3899 23.0209 26.3905 23.0237 26.3905 23.0271C26.3905 23.0289 26.3904 23.0304 26.3904 23.0321C26.3917 23.0647 26.3925 23.0979 26.3925 23.1338V23.9605H25.5123V23.4879C25.5123 23.2518 25.5123 22.8974 25.3359 22.6612C25.2805 22.6054 25.2243 22.5686 25.1632 22.5425C25.0753 22.4852 24.9085 22.4842 24.6318 22.4842H23.575V23.9605H22.5773V19.8269H24.808C25.3359 19.8269 25.6883 19.8269 25.9819 20.004C26.2695 20.1778 26.4432 20.4659 26.4498 20.9222C26.4362 21.5507 26.0352 21.8955 25.7469 22.0117C25.7469 22.0117 25.9428 22.0514 26.1184 22.2352ZM28.0949 23.9604H27.097V19.8268H28.0949V23.9604ZM39.5409 23.9604H38.2493L36.3711 20.8306V23.4288L36.365 23.4227V23.963H35.3733V23.9605H34.3754L34.0232 23.0748H31.9686L31.6165 24.0194H30.5013C30.032 24.0194 29.4446 23.9014 29.0926 23.5471C28.7405 23.1928 28.5645 22.7204 28.5645 21.9529C28.5645 21.3624 28.6818 20.7715 29.0926 20.2992C29.3859 19.9447 29.9144 19.8269 30.5599 19.8269H31.4993V20.7126H30.5599C30.2078 20.7126 30.032 20.7714 29.7967 20.9489C29.621 21.126 29.5035 21.4802 29.5035 21.8935C29.5035 22.366 29.5622 22.6612 29.7967 22.8974C29.9732 23.0748 30.2078 23.1339 30.5013 23.1339H30.9121L32.262 19.8862H32.8493H33.7295L35.3733 23.8425V23.6407V22.307V22.189V19.8863H36.8405L38.5424 22.7796V19.8863H39.5407V23.9606H39.5409V23.9604Z" fill="white"/>
<path d="M25.2768 21.5463C25.294 21.5279 25.3095 21.507 25.3227 21.4831C25.3759 21.3984 25.4368 21.2459 25.404 21.0377C25.4026 21.0186 25.3992 21.001 25.3951 20.9839C25.394 20.9791 25.3942 20.975 25.3929 20.9702L25.3923 20.9703C25.3631 20.8692 25.2886 20.807 25.2142 20.7693C25.0965 20.7104 24.9204 20.7104 24.7444 20.7104H23.5703V21.6554H24.7444C24.9204 21.6554 25.0966 21.6554 25.2142 21.5962C25.2318 21.5872 25.2475 21.575 25.2627 21.5611L25.2628 21.5619C25.2629 21.5618 25.2689 21.5555 25.2768 21.5463Z" fill="white"/>
<path d="M43.0007 29.8662C43.0007 29.4528 42.8834 29.0393 42.7074 28.7442V26.087H42.7047V25.9096C42.7047 25.9096 40.2444 25.9096 39.8783 25.9096C39.5122 25.9096 39.068 26.2638 39.068 26.2638V25.9096H36.3681C35.957 25.9096 35.4291 26.0278 35.194 26.2638V25.9096H30.381V26.087V26.2637C30.0291 25.9687 29.3829 25.9095 29.0896 25.9095H25.92V26.0869V26.2636C25.6265 25.9686 24.9218 25.9094 24.5695 25.9094H21.0482L20.2263 26.7953L19.4632 25.9094H19.2174H18.8176H14.1807V26.0868V26.5533V31.8738H19.346L20.1947 31.0198L20.9304 31.8738H20.9893H23.9656H24.1005H24.1592H24.2176V31.2834V30.5157H24.5113C24.9218 30.5157 25.4504 30.5157 25.8612 30.3383V31.8145V31.9328H28.5026V31.8145V30.3974H28.6197C28.796 30.3974 28.796 30.3974 28.796 30.5746V31.8145V31.9328H36.7785C37.3072 31.9328 37.8352 31.8145 38.1286 31.5783V31.8145V31.9328H40.6528C41.1807 31.9328 41.7094 31.8738 42.0616 31.6375C42.602 31.3113 42.9426 30.7339 42.9932 30.0453C42.9956 30.0249 42.9986 30.0045 43.0004 29.984L42.997 29.9807C42.9991 29.9425 43.0007 29.9047 43.0007 29.8662ZM24.5114 29.5119H23.3372V29.6887V30.0431V30.3975V31.0471H21.4079L20.285 29.7479L20.2811 29.7522L20.2263 29.6887L18.935 31.0471H15.1784V26.9136H18.9937L20.0361 28.0622L20.2552 28.3027L20.2849 28.2717L21.5177 26.9137H24.6286C25.2323 26.9137 25.9084 27.0636 26.1646 27.6816C26.1954 27.804 26.2133 27.94 26.2133 28.0946C26.2133 29.2755 25.3915 29.5119 24.5114 29.5119ZM30.381 29.4528C30.4983 29.6295 30.557 29.8661 30.557 30.2205V31.047H29.5593V30.5157C29.5593 30.2791 29.5593 29.8661 29.383 29.6887C29.2659 29.5119 29.0308 29.5119 28.6789 29.5119H27.6224V31.0471H26.6246V26.8545H28.855C29.3242 26.8545 29.7351 26.8545 30.0291 27.0315C30.3223 27.2088 30.557 27.5041 30.557 27.9765C30.557 28.6259 30.1463 28.9802 29.8527 29.0985C30.1463 29.2162 30.3223 29.3346 30.381 29.4528ZM34.4312 27.7399H32.1417V28.5076H34.3723V29.3345H32.1417V30.1613H34.4312V31.047H31.1442V26.8544H34.4312V27.7399ZM36.8963 31.0471H35.0179V30.1614H36.8963C37.0721 30.1614 37.1897 30.1614 37.3074 30.0432C37.3662 29.984 37.4245 29.8662 37.4245 29.7479C37.4245 29.6296 37.3662 29.512 37.3074 29.4528C37.2485 29.3938 37.1309 29.3347 36.9549 29.3347C36.0157 29.2756 34.9005 29.3347 34.9005 28.0357C34.9005 27.4452 35.2527 26.7955 36.3093 26.7955H38.2462V27.7992H36.4267C36.2507 27.7992 36.1331 27.7992 36.0156 27.8583C35.8985 27.9175 35.8985 28.0357 35.8985 28.1537C35.8985 28.3309 36.0156 28.39 36.133 28.4486C36.2507 28.5078 36.368 28.5078 36.4852 28.5078H37.0136C37.5419 28.5078 37.894 28.6259 38.1288 28.8622C38.3049 29.0394 38.4224 29.3347 38.4224 29.7479C38.4224 30.6334 37.8941 31.0471 36.8963 31.0471ZM41.9442 30.6334C41.7097 30.8699 41.2986 31.0471 40.7114 31.0471H38.8335V30.1614H40.7113C40.8875 30.1614 41.0052 30.1614 41.1224 30.0432C41.1809 29.984 41.2399 29.8662 41.2399 29.7479C41.2399 29.6296 41.1809 29.512 41.1224 29.4528C41.0637 29.3938 40.9464 29.3347 40.7703 29.3347C39.8314 29.2756 38.7159 29.3347 38.7159 28.0358C38.7159 27.4746 39.035 26.9676 39.8222 26.817C39.9163 26.8039 40.0158 26.7955 40.1247 26.7955H42.0618V27.7992H40.7703H40.3008H40.2421C40.0659 27.7992 39.9487 27.7992 39.8314 27.8583C39.7723 27.9175 39.7136 28.0357 39.7136 28.1537C39.7136 28.3309 39.7723 28.39 39.9487 28.4486C40.0659 28.5078 40.1833 28.5078 40.3008 28.5078H40.3592H40.8289C41.0855 28.5078 41.2794 28.5397 41.457 28.6024C41.6196 28.6616 42.1578 28.9038 42.2782 29.5361C42.2886 29.6023 42.2963 29.6714 42.2963 29.7479C42.2963 30.1023 42.1789 30.3975 41.9442 30.6334Z" fill="white"/>
</svg>
