<svg width="44" height="28" viewBox="0 0 44 28" fill="none" xmlns="http://www.w3.org/2000/svg">
<path fill-rule="evenodd" clip-rule="evenodd" d="M42.0406 0H1.88203C1.1 0 0.610156 0.120313 0.34375 0.369532C0.111719 0.653125 0 1.11719 0 1.80469V4.37422V6.44531V21.2523V23.418V25.893C0 27.1219 0.635937 27.7578 1.88203 27.7578H42.0406C43.3469 27.7578 44 27.1219 44 25.893V23.418V21.2523V6.43672V4.36563V1.79609C44 0.584375 43.3469 0 42.0406 0Z" fill="#003473"/>
<path fill-rule="evenodd" clip-rule="evenodd" d="M21.9998 20.9601C23.9248 19.2241 25.1451 16.6976 25.1451 13.8874C25.1451 11.0859 23.9334 8.5593 21.9998 6.79758C20.3154 5.2679 18.0725 4.33118 15.6061 4.33118C10.3295 4.33118 6.0498 8.61086 6.0498 13.8874C6.0498 19.164 10.3295 23.4265 15.6061 23.4265C18.0725 23.4265 20.3154 22.4898 21.9998 20.9601Z" fill="#009DDD"/>
<path fill-rule="evenodd" clip-rule="evenodd" d="M22 20.9601C23.925 19.2242 25.1453 16.6976 25.1453 13.8875C25.1453 11.0859 23.9336 8.55933 22 6.79761V20.9601Z" fill="#009DDD"/>
<path fill-rule="evenodd" clip-rule="evenodd" d="M28.4195 4.33118C25.9531 4.33118 23.7016 5.2679 22 6.79758C21.6648 7.11555 21.3469 7.45071 21.0461 7.81165H22.9711C23.2289 8.12961 23.4781 8.48196 23.7016 8.82571H20.3156C20.1094 9.16086 19.9203 9.49602 19.757 9.83977H24.243C24.3891 10.1749 24.5437 10.5101 24.6555 10.8538H19.3617C19.25 11.189 19.1555 11.5241 19.0781 11.8851H24.9305C25.0594 12.521 25.1367 13.2171 25.1367 13.9046C25.1367 14.9531 24.9648 15.9843 24.6469 16.9382H19.3531C19.4648 17.2734 19.5938 17.6085 19.7484 17.9523H24.2344C24.0625 18.2874 23.8992 18.6484 23.693 18.9663H20.307C20.5305 19.3187 20.7711 19.6624 21.0375 19.9804H22.9625C22.6617 20.3327 22.3437 20.6765 21.9914 20.9945C23.693 22.5241 25.9359 23.4609 28.4109 23.4609C33.6875 23.4609 37.95 19.1984 37.95 13.9218C37.9586 8.61086 33.6875 4.33118 28.4195 4.33118Z" fill="#ED1B2E"/>
<path fill-rule="evenodd" clip-rule="evenodd" d="M36.7383 19.1984C36.7383 19.0265 36.8672 18.8976 37.0391 18.8976C37.2109 18.8976 37.3398 19.0265 37.3398 19.1984C37.3398 19.3702 37.2109 19.5163 37.0391 19.5163C36.8672 19.5163 36.7383 19.3702 36.7383 19.1984ZM37.0391 19.4476C37.168 19.4476 37.2797 19.3359 37.2797 19.207C37.2797 19.0781 37.168 18.9835 37.0391 18.9835C36.9102 18.9835 36.7984 19.0781 36.7984 19.207C36.7984 19.3273 36.9102 19.4476 37.0391 19.4476ZM37.0047 19.3273H36.9273V19.0695H37.0391C37.0734 19.0695 37.0992 19.0695 37.1164 19.0866C37.1336 19.0866 37.1508 19.121 37.1508 19.1468C37.1508 19.1812 37.1336 19.207 37.1164 19.2241L37.1508 19.3359H37.0734L37.0391 19.2413H37.0047V19.3273ZM37.0047 19.1812H37.0391C37.0391 19.1812 37.0562 19.1812 37.0734 19.1812C37.0734 19.1812 37.0906 19.164 37.0906 19.1468L37.0734 19.1296C37.0562 19.1124 37.0391 19.1124 37.0391 19.1124H37.0047V19.1812Z" fill="#ED1B2E"/>
<path fill-rule="evenodd" clip-rule="evenodd" d="M14.1025 16.5429H12.908L13.6213 12.8218L11.9971 16.5429H10.983L10.7768 12.839L9.99473 16.5429H8.90332L9.82285 11.696H11.7135L11.7307 14.6953L13.0369 11.696H15.0393L14.1025 16.5429Z" fill="#003473"/>
<path fill-rule="evenodd" clip-rule="evenodd" d="M27.3879 16.4913C27.0527 16.5858 26.8121 16.6202 26.5285 16.6202C25.927 16.6202 25.5918 16.3194 25.5918 15.7608C25.5918 15.6491 25.609 15.5202 25.6262 15.4085L25.7035 15.0132L25.7637 14.7124L26.3051 11.7046H27.4824L27.3105 12.5983H27.9121L27.766 13.5522H27.1473L26.8293 15.2022C26.8293 15.2796 26.8121 15.3312 26.8121 15.3741C26.8121 15.5804 26.941 15.6577 27.2246 15.6577C27.3535 15.6577 27.4652 15.6577 27.5426 15.6233L27.3879 16.4913Z" fill="#003473"/>
<path fill-rule="evenodd" clip-rule="evenodd" d="M22.6699 13.853C22.6699 14.3428 22.9535 14.6952 23.5637 14.9358C24.0707 15.1421 24.148 15.1936 24.148 15.3827C24.148 15.6233 23.9246 15.735 23.452 15.735C23.0738 15.735 22.7559 15.6749 22.3691 15.5632L22.1973 16.4827H22.2574L22.4809 16.5171C22.5582 16.5343 22.6527 16.5514 22.7988 16.5514C23.0824 16.5686 23.3059 16.5858 23.452 16.5858C24.7238 16.5858 25.2996 16.1733 25.2996 15.2796C25.2996 14.7382 25.059 14.4202 24.4574 14.1796C23.9504 13.9905 23.8988 13.9389 23.8988 13.7499C23.8988 13.5436 24.1051 13.4319 24.4746 13.4319C24.7152 13.4319 25.0332 13.4491 25.3512 13.4921L25.523 12.5983C25.2051 12.5382 24.741 12.5038 24.4574 12.5038C23.1254 12.5038 22.6527 13.1225 22.6699 13.853Z" fill="#003473"/>
<path fill-rule="evenodd" clip-rule="evenodd" d="M17.9609 16.5428H16.9727L16.9898 16.1303C16.6891 16.4483 16.2766 16.5944 15.7352 16.5944C15.0992 16.5944 14.6523 16.1647 14.6523 15.5288C14.6523 14.5749 15.4172 14.0163 16.7492 14.0163C16.8781 14.0163 17.05 14.0163 17.2391 14.0335C17.2734 13.9046 17.2734 13.8444 17.2734 13.7928C17.2734 13.535 17.0672 13.4147 16.5086 13.4147C16.1734 13.4147 15.7953 13.4749 15.5375 13.5264L15.3656 13.5866L15.2539 13.6038L15.4258 12.7272C16.0273 12.5553 16.4141 12.5038 16.8438 12.5038C17.875 12.5038 18.4164 12.9163 18.4164 13.6639C18.4164 13.8702 18.3992 13.9991 18.3047 14.446L18.0641 15.8296L18.0297 16.096L17.9953 16.3022L17.9781 16.4311V16.5428H17.9609ZM17.1531 14.7897C17.0242 14.7725 16.9641 14.7725 16.8695 14.7725C16.1992 14.7725 15.8555 14.9788 15.8555 15.3741C15.8555 15.6147 16.0273 15.7694 16.2852 15.7694C16.7836 15.7608 17.1359 15.3655 17.1531 14.7897Z" fill="#003473"/>
<path fill-rule="evenodd" clip-rule="evenodd" d="M21.8533 16.4483C21.458 16.56 21.0713 16.6202 20.6416 16.6202C19.3096 16.6202 18.6221 16.0014 18.6221 14.8413C18.6221 13.4921 19.4986 12.5038 20.7018 12.5038C21.69 12.5038 22.3088 13.0624 22.3088 13.9218C22.3088 14.2225 22.2744 14.4975 22.1627 14.8928H19.808C19.7908 14.9702 19.7908 14.9874 19.7908 15.0218C19.7908 15.4686 20.1432 15.7178 20.8393 15.7178C21.2689 15.7178 21.6471 15.6405 22.0768 15.46L21.8533 16.4483ZM21.2861 14.1108C21.2861 14.0163 21.2861 13.9647 21.2861 13.9046C21.2861 13.5866 21.0799 13.3975 20.7275 13.3975C20.3494 13.3975 20.0744 13.6382 19.9627 14.1108H21.2861Z" fill="#003473"/>
<path fill-rule="evenodd" clip-rule="evenodd" d="M34.5297 14.7469C34.3578 16.0531 33.4469 16.6375 32.2266 16.6375C30.8773 16.6375 30.3359 15.8297 30.3359 14.8242C30.3359 13.4406 31.2555 12.4867 32.6734 12.4867C33.9109 12.4867 34.5641 13.2687 34.5641 14.2656C34.5727 14.5062 34.5727 14.5234 34.5297 14.7469ZM33.3352 14.2828C33.3352 13.8703 33.1633 13.475 32.682 13.475C32.0805 13.475 31.6937 14.2054 31.6937 14.8242C31.6937 15.3656 31.9516 15.7179 32.3898 15.7179C32.6477 15.7179 33.1977 15.3656 33.3094 14.7469C33.318 14.6179 33.3352 14.4461 33.3352 14.2828Z" fill="#003473"/>
<path fill-rule="evenodd" clip-rule="evenodd" d="M34.667 15.95C34.667 15.7781 34.8131 15.6492 34.985 15.6492C35.1568 15.6492 35.2857 15.7781 35.2857 15.95C35.2857 16.1218 35.1568 16.2679 34.985 16.2679C34.8131 16.2679 34.667 16.1132 34.667 15.95ZM34.985 16.1906C35.1139 16.1906 35.2084 16.0789 35.2084 15.95C35.2084 15.821 35.1139 15.7265 34.985 15.7265C34.8561 15.7265 34.7443 15.821 34.7443 15.95C34.7357 16.0789 34.8475 16.1906 34.985 16.1906ZM34.942 16.0789H34.8647V15.821H34.9764C35.0107 15.821 35.0365 15.821 35.0537 15.8382C35.0709 15.8554 35.0881 15.8726 35.0881 15.8984C35.0881 15.9328 35.0709 15.9757 35.0279 15.9757L35.0881 16.0875H35.0107L34.9764 15.9929H34.942V16.0789ZM34.942 15.9242H34.9764C34.9764 15.9242 34.9936 15.9242 35.0107 15.9242C35.0107 15.9242 35.0107 15.907 35.0107 15.8898V15.8726C34.9936 15.8726 34.9764 15.8726 34.9506 15.8726H34.9334V15.9242H34.942Z" fill="white"/>
<path fill-rule="evenodd" clip-rule="evenodd" d="M14.4027 16.2679H13.2082L13.9215 12.5382L12.2887 16.2679H11.2059L11.0168 12.564L10.3121 16.2679H9.2207L10.1402 11.421H12.0137L12.1082 14.4116L13.4145 11.421H15.3395L14.4027 16.2679Z" fill="white"/>
<path fill-rule="evenodd" clip-rule="evenodd" d="M27.6887 16.2077C27.3535 16.3023 27.1043 16.3366 26.8293 16.3366C26.2277 16.3366 25.8926 16.0359 25.8926 15.4773C25.8926 15.3656 25.9098 15.2538 25.927 15.1249L26.0043 14.7296L26.0645 14.4288L26.6059 11.421H27.7832L27.6113 12.3148H28.2301L28.0582 13.2687H27.4395L27.1387 14.9187C27.1215 14.996 27.1043 15.0476 27.1043 15.0906C27.1043 15.2968 27.2332 15.3913 27.5168 15.3913C27.6457 15.3913 27.7574 15.3741 27.8348 15.357L27.6887 16.2077Z" fill="white"/>
<path fill-rule="evenodd" clip-rule="evenodd" d="M30.7313 13.4578L30.7141 13.3289L30.9375 12.7101C30.8773 12.7101 30.8602 12.7101 30.843 12.6929C30.7828 12.6929 30.7484 12.6757 30.7484 12.6757C30.7141 12.6757 30.6711 12.6757 30.6367 12.6757C30.2414 12.6757 29.9664 12.8476 29.5883 13.3117L29.7172 12.5984H28.4797L27.7578 16.5429H28.9352C29.107 15.6234 29.1758 15.125 29.2703 14.6953C29.4164 13.982 29.9406 13.664 30.3359 13.7414C30.3703 13.7414 30.4133 13.7414 30.4648 13.7585L30.5422 13.7929L30.7313 13.4578Z" fill="#003473"/>
<path fill-rule="evenodd" clip-rule="evenodd" d="M31.1437 12.3577C31.0492 12.3233 31.032 12.3233 31.0148 12.3233C30.9547 12.3061 30.9203 12.3061 30.9203 12.2889C30.8859 12.2889 30.843 12.2889 30.7914 12.2889C30.3961 12.2889 30.1211 12.4608 29.7602 12.9249L29.8719 12.3233H28.7891L28.0586 16.2678H29.2531C29.6828 13.853 29.8547 13.4233 30.4305 13.4233C30.4648 13.4233 30.525 13.4405 30.5766 13.4405L30.7055 13.4749L31.1437 12.3577Z" fill="white"/>
<path fill-rule="evenodd" clip-rule="evenodd" d="M22.9713 13.5694C22.9713 14.0593 23.2549 14.4116 23.8908 14.6522C24.3807 14.8585 24.4494 14.91 24.4494 15.0991C24.4494 15.3397 24.226 15.4514 23.7533 15.4514C23.401 15.4514 23.0658 15.3913 22.6705 15.2796L22.5244 16.1991H22.5846L22.7908 16.2593C22.8682 16.2593 22.9799 16.2764 23.1088 16.2764C23.3924 16.3108 23.6158 16.3108 23.7791 16.3108C25.0338 16.3108 25.6354 15.8983 25.6354 15.0046C25.6354 14.4632 25.3947 14.1452 24.776 13.9046C24.2689 13.7155 24.2174 13.6639 24.2174 13.4749C24.2174 13.2686 24.4236 13.1569 24.8189 13.1569C25.0424 13.1569 25.3775 13.1741 25.6783 13.2171L25.8502 12.3233C25.5322 12.2632 25.0682 12.246 24.8018 12.246C23.4439 12.246 22.9713 12.8389 22.9713 13.5694Z" fill="white"/>
<path fill-rule="evenodd" clip-rule="evenodd" d="M18.2611 16.2679H17.29L17.3072 15.8554C17.0064 16.1734 16.5939 16.3195 16.0525 16.3195C15.4166 16.3195 14.9697 15.8898 14.9697 15.2539C14.9697 14.3 15.7346 13.7414 17.0666 13.7414C17.1955 13.7414 17.3674 13.7414 17.5564 13.7585C17.5908 13.6296 17.5908 13.5695 17.5908 13.5179C17.5908 13.2601 17.3846 13.1656 16.826 13.1656C16.4908 13.1656 16.1127 13.2 15.8549 13.2601L15.683 13.3203L15.5713 13.3375L15.7432 12.4609C16.3447 12.3148 16.7143 12.2546 17.1611 12.2546C18.1924 12.2546 18.7166 12.65 18.7166 13.3976C18.7166 13.6039 18.6994 13.75 18.6221 14.1796L18.3814 15.5804L18.3471 15.821L18.3127 16.0273L18.2955 16.1562L18.2611 16.2679ZM17.4018 14.5062C17.2729 14.489 17.2127 14.489 17.1439 14.489C16.4736 14.489 16.1299 14.6953 16.1299 15.0906C16.1299 15.3312 16.276 15.5031 16.5424 15.5031C17.0236 15.4945 17.376 15.082 17.4018 14.5062Z" fill="white"/>
<path fill-rule="evenodd" clip-rule="evenodd" d="M22.1717 16.1734C21.7592 16.2851 21.3639 16.3453 20.96 16.3453C19.6279 16.3453 18.9404 15.7265 18.9404 14.5664C18.9404 13.2172 19.817 12.2289 21.0201 12.2289C21.9912 12.2289 22.61 12.7875 22.61 13.6469C22.61 13.9476 22.5756 14.2226 22.4811 14.6179H20.1092C20.1092 14.6953 20.1092 14.7125 20.1092 14.7469C20.1092 15.1937 20.4443 15.4429 21.1404 15.4429C21.5701 15.4429 21.9654 15.3656 22.3779 15.2023L22.1717 16.1734ZM21.5357 13.8359C21.5357 13.7586 21.5357 13.6898 21.5357 13.6297C21.5357 13.3117 21.3295 13.1226 20.9771 13.1226C20.599 13.1226 20.3412 13.3804 20.2295 13.8359H21.5357Z" fill="white"/>
<path fill-rule="evenodd" clip-rule="evenodd" d="M34.8471 14.4718C34.658 15.7781 33.7471 16.3625 32.5268 16.3625C31.1947 16.3625 30.6533 15.5546 30.6533 14.5492C30.6533 13.1656 31.5728 12.2117 32.9908 12.2117C34.2283 12.2117 34.8814 12.9937 34.8814 13.9906C34.89 14.2226 34.89 14.2398 34.8471 14.4718ZM33.6182 13.9648C33.6182 13.5523 33.4463 13.1828 32.965 13.1828C32.3635 13.1828 31.9939 13.896 31.9939 14.532C31.9939 15.0562 32.2518 15.4085 32.6643 15.4085C32.9221 15.4085 33.4892 15.0562 33.5838 14.4546C33.6182 14.3 33.6182 14.1281 33.6182 13.9648Z" fill="white"/>
</svg>
