<svg width="50" height="50" viewBox="0 0 50 50" fill="none" xmlns="http://www.w3.org/2000/svg">
<path d="M25.017 49.533C21.7065 49.533 18.496 48.8852 15.4736 47.6063C12.5542 46.3715 9.93263 44.6035 7.68052 42.3525C5.42943 40.1004 3.66147 37.4789 2.42671 34.5594C1.14774 31.537 0.5 28.3265 0.5 25.016C0.5 21.7065 1.14774 18.496 2.42671 15.4736C3.66147 12.5542 5.42943 9.93264 7.68052 7.68056C9.93262 5.42849 12.5541 3.66053 15.4736 2.42573C18.496 1.14779 21.7065 0.5 25.017 0.5C28.3265 0.5 31.537 1.14779 34.5594 2.42573C37.4788 3.66053 40.1003 5.42849 42.3524 7.68056C44.6045 9.93263 46.3724 12.5542 47.6063 15.4736C48.8852 18.496 49.533 21.7065 49.533 25.016C49.533 28.3265 48.8852 31.537 47.6063 34.5594C46.3724 37.4788 44.6045 40.1004 42.3524 42.3525C40.1003 44.6035 37.4788 46.3715 34.5594 47.6063C31.537 48.8852 28.3265 49.533 25.017 49.533Z" fill="#6F6E6D"/>
<path fill-rule="evenodd" clip-rule="evenodd" d="M25.0005 0.979758C21.7565 0.979758 18.6115 1.61463 15.6507 2.86676C12.7907 4.07677 10.2218 5.80899 8.01538 8.01441C5.80895 10.2208 4.07673 12.7898 2.86675 15.6507C1.61459 18.6115 0.979769 21.7565 0.979769 24.9995C0.979769 28.2425 1.6146 31.3885 2.86675 34.3493C4.07674 37.2093 5.80895 39.7782 8.01538 41.9846C10.2218 44.191 12.7907 45.9232 15.6507 47.1332C18.6115 48.3854 21.7565 49.0202 25.0005 49.0202C28.2435 49.0202 31.3885 48.3854 34.3493 47.1332C37.2103 45.9232 39.7791 44.191 41.9846 41.9846C44.191 39.7782 45.9232 37.2093 47.1333 34.3493C48.3853 31.3885 49.0202 28.2425 49.0202 24.9995C49.0202 21.7565 48.3853 18.6115 47.1333 15.6507C45.9232 12.7898 44.191 10.2208 41.9846 8.01441C39.7791 5.80899 37.2103 4.07677 34.3493 2.86676C31.3885 1.61463 28.2435 0.979758 25.0005 0.979758ZM25.0005 0C38.8072 0 50 11.1928 50 24.9995C50 38.8072 38.8072 50 25.0005 50C11.1927 50 0 38.8072 0 24.9995C0 11.1927 11.1927 0 25.0005 0Z" fill="#B7B7B7"/>
<path d="M31.1262 20.991L28.2959 30.1681H40.9926L45.4708 20.991H31.1262Z" fill="#B7B7B7"/>
<path opacity="0.3" d="M31.8774 20L28.4385 31H40.6128L46.0001 20H31.8774Z" fill="white"/>
<path d="M11.2684 24.5267C11.1807 25.0896 10.8892 25.6019 10.4479 25.9686C10.0065 26.3353 9.44544 26.5315 8.86873 26.5206H7.61975L7.23681 28.6466H6L7.09731 22.5458H9.57842C10.8068 22.5403 11.4903 23.3398 11.2684 24.5267ZM9.17864 23.607H8.14218L7.80232 25.4982H8.83877C9.1171 25.5101 9.38985 25.4187 9.60333 25.242C9.81681 25.0652 9.95555 24.816 9.99225 24.5434C10.1009 23.9592 9.76193 23.607 9.17864 23.607Z" fill="white"/>
<path d="M14.7259 27.0881H12.5491L11.7654 28.6448H10.4678L13.7447 22.5439H15.1725L16.252 28.6448H14.9553L14.7259 27.0881ZM14.5808 26.0445L14.2381 23.7188L13.0715 26.0445H14.5808Z" fill="white"/>
<path d="M19.9757 25.3688H22.3004L21.8211 28.0171C21.3426 28.4377 20.4279 28.7307 19.531 28.7307C17.6856 28.7307 16.6838 27.4662 17.0236 25.5666C17.3541 23.6929 18.8025 22.4542 20.6629 22.4542C21.308 22.4542 22.0214 22.6095 22.4222 22.8415L22.0739 23.8583C21.6251 23.6365 21.1301 23.5209 20.6283 23.5209C19.4355 23.5209 18.5469 24.2771 18.3119 25.5666C18.0863 26.8764 18.6995 27.664 19.7922 27.664C20.0844 27.6632 20.375 27.6199 20.6545 27.5355L20.8726 26.2885L19.6967 26.2118L19.9757 25.3688Z" fill="white"/>
<path d="M23.0066 25.5823C23.3465 23.7077 24.705 22.4524 26.4287 22.4524C28.1524 22.4524 29.0578 23.7095 28.7179 25.5823C28.378 27.4754 27.0195 28.7252 25.3042 28.7252C23.589 28.7252 22.6658 27.4754 23.0066 25.5823ZM27.4474 25.5823C27.673 24.2882 27.2199 23.521 26.219 23.521C25.235 23.521 24.5122 24.2882 24.2856 25.5823C24.059 26.8764 24.4944 27.6538 25.5027 27.6538C26.4886 27.6557 27.2114 26.8903 27.4464 25.5823H27.4474Z" fill="white"/>
<path d="M40.4129 27.2462H39.5703L39.3269 28.5875H38.0975L38.341 27.2462H35.9067L35.8027 26.4725L39.3465 22.6826H40.382L39.7472 26.2156H40.5899L40.4129 27.2462ZM38.5235 26.2156L38.8812 24.2383L37.0433 26.2156H38.5235Z" fill="white"/>
<path d="M33.7739 26.6197L32.6036 27.5912H35.1989L35.0116 28.5886H30.923L30.8799 27.801L33.3142 25.7295C33.9321 25.2137 34.2636 24.8976 34.3506 24.4058C34.4443 23.89 34.0538 23.5979 33.4705 23.5979C32.9172 23.6119 32.3704 23.7204 31.8545 23.9187L31.8293 22.9814C32.4641 22.7331 33.1398 22.6021 33.8226 22.595C35.1202 22.595 35.8168 23.291 35.6427 24.2967C35.4948 25.1203 34.8506 25.7258 33.7739 26.6197Z" fill="white"/>
</svg>
