<svg width="50" height="50" viewBox="0 0 50 50" fill="none" xmlns="http://www.w3.org/2000/svg">
<path d="M25.017 49.533C21.7065 49.533 18.496 48.8852 15.4736 47.6063C12.5542 46.3715 9.93263 44.6035 7.68052 42.3525C5.42943 40.1004 3.66147 37.4789 2.42671 34.5594C1.14774 31.537 0.5 28.3265 0.5 25.016C0.5 21.7065 1.14774 18.496 2.42671 15.4736C3.66147 12.5542 5.42943 9.93264 7.68052 7.68056C9.93262 5.42849 12.5541 3.66053 15.4736 2.42573C18.496 1.14779 21.7065 0.5 25.017 0.5C28.3265 0.5 31.537 1.14779 34.5594 2.42573C37.4788 3.66053 40.1003 5.42849 42.3524 7.68056C44.6045 9.93263 46.3724 12.5542 47.6063 15.4736C48.8852 18.496 49.533 21.7065 49.533 25.016C49.533 28.3265 48.8852 31.537 47.6063 34.5594C46.3724 37.4788 44.6045 40.1004 42.3524 42.3525C40.1003 44.6035 37.4788 46.3715 34.5594 47.6063C31.537 48.8852 28.3265 49.533 25.017 49.533Z" fill="#6F6E6D"/>
<path fill-rule="evenodd" clip-rule="evenodd" d="M25.0005 0.979758C21.7565 0.979758 18.6115 1.61463 15.6507 2.86676C12.7907 4.07677 10.2218 5.80899 8.01538 8.01441C5.80895 10.2208 4.07673 12.7898 2.86675 15.6507C1.61459 18.6115 0.979769 21.7565 0.979769 24.9995C0.979769 28.2425 1.6146 31.3885 2.86675 34.3493C4.07674 37.2093 5.80895 39.7782 8.01538 41.9846C10.2218 44.191 12.7907 45.9232 15.6507 47.1332C18.6115 48.3854 21.7565 49.0202 25.0005 49.0202C28.2435 49.0202 31.3885 48.3854 34.3493 47.1332C37.2103 45.9232 39.7791 44.191 41.9846 41.9846C44.191 39.7782 45.9232 37.2093 47.1333 34.3493C48.3853 31.3885 49.0202 28.2425 49.0202 24.9995C49.0202 21.7565 48.3853 18.6115 47.1333 15.6507C45.9232 12.7898 44.191 10.2208 41.9846 8.01441C39.7791 5.80899 37.2103 4.07677 34.3493 2.86676C31.3885 1.61463 28.2435 0.979758 25.0005 0.979758M25.0005 0C38.8072 0 50 11.1928 50 24.9995C50 38.8072 38.8072 50 25.0005 50C11.1927 50 0 38.8072 0 24.9995C0 11.1927 11.1927 0 25.0005 0Z" fill="#B7B7B7"/>
<path fill-rule="evenodd" clip-rule="evenodd" d="M25.7228 21.5235C25.6961 23.4976 27.4052 24.5965 28.6917 25.2518C29.9782 25.9072 30.4578 26.3508 30.4502 26.9542C30.4502 27.8693 29.3959 28.2769 28.4215 28.2928C27.2077 28.3221 26.0071 28.0235 24.9348 27.4257L24.322 30.4267C25.525 30.9147 26.8045 31.1614 28.0941 31.154C31.6606 31.154 33.9901 29.3158 34.0015 26.4706C34.0015 22.8742 29.2132 22.6584 29.2474 21.044C29.2474 20.5525 29.708 20.029 30.6862 19.8971C31.8335 19.783 32.9889 19.9941 34.032 20.5085L34.6296 17.6074C33.6141 17.2088 32.5392 17.0031 31.4551 17C28.0979 17 25.7456 18.8622 25.7228 21.5235V21.5235ZM40.3619 17.2518C40.0536 17.2488 39.7515 17.3427 39.4944 17.5214C39.2373 17.7002 39.037 17.9556 38.9193 18.2548L33.8264 30.9382H37.3892L38.0972 28.8962H42.444L42.8551 30.9382H45.9953L43.2585 17.2518H40.3619ZM40.8606 20.9481L41.8883 26.087H39.0716L40.8606 20.9481V20.9481ZM21.4026 17.2518L18.5935 30.9382H21.9887L24.794 17.2518H21.4026ZM16.382 17.2518L12.8497 26.5665L11.4224 18.6464C11.3632 18.2554 11.1724 17.8996 10.8846 17.6437C10.5969 17.3878 10.2312 17.2488 9.85414 17.2518H4.07993L4 17.6474C5.15835 17.8887 6.28355 18.2807 7.34958 18.8142C7.84821 19.0939 7.98904 19.3417 8.15271 20.013L10.8514 30.9382H14.4408L19.9447 17.2518H16.382Z" fill="white"/>
<path d="M38.2566 32.8603C38.2646 33.0159 38.2398 33.1715 38.184 33.3159C38.1282 33.4604 38.0427 33.5901 37.9336 33.6958C37.8246 33.8015 37.6946 33.8807 37.553 33.9276C37.4115 33.9745 37.2618 33.988 37.1147 33.9672H36.46V31.7414H37.1147C37.2625 31.7218 37.4127 31.7366 37.5545 31.7848C37.6964 31.8329 37.8264 31.9132 37.9353 32.02C38.0443 32.1268 38.1295 32.2574 38.1851 32.4026C38.2406 32.5478 38.265 32.7041 38.2566 32.8603V32.8603ZM37.1147 33.7275C37.2271 33.741 37.341 33.7281 37.4481 33.6896C37.5552 33.6511 37.6528 33.5881 37.7337 33.505C37.8147 33.4219 37.8769 33.321 37.916 33.2094C37.9551 33.0979 37.97 32.9787 37.9597 32.8603C37.9725 32.7407 37.9594 32.6196 37.9214 32.5061C37.8834 32.3926 37.8215 32.2895 37.7402 32.2046C37.659 32.1197 37.5605 32.0551 37.4522 32.0158C37.3439 31.9764 37.2285 31.9632 37.1147 31.9772H36.734V33.7275H37.1147Z" fill="white"/>
<path d="M39.3339 33.9991C39.2209 34.0029 39.1083 33.9816 39.0037 33.9365C38.899 33.8915 38.8046 33.8237 38.7267 33.7377C38.6487 33.6517 38.5889 33.5494 38.5512 33.4374C38.5135 33.3254 38.4988 33.2064 38.5079 33.088C38.498 32.9699 38.5123 32.8509 38.5499 32.7391C38.5874 32.6272 38.6473 32.5251 38.7255 32.4395C38.8038 32.354 38.8985 32.287 39.0035 32.2431C39.1084 32.1992 39.2211 32.1793 39.3339 32.1849C39.4403 32.1792 39.5467 32.197 39.6461 32.2371C39.7456 32.2773 39.8359 32.3389 39.9113 32.418C39.9866 32.4971 40.0453 32.5919 40.0835 32.6963C40.1218 32.8007 40.1387 32.9124 40.1332 33.0241C40.1332 33.084 40.1332 33.136 40.1332 33.1959H38.7896C38.7896 33.2701 38.8037 33.3434 38.8313 33.4117C38.8589 33.4799 38.8993 33.5416 38.9501 33.5931C39.0009 33.6446 39.0611 33.6848 39.127 33.7113C39.193 33.7378 39.2633 33.7501 39.3339 33.7474C39.435 33.755 39.5357 33.7275 39.6203 33.6689C39.7049 33.6104 39.7688 33.5242 39.8021 33.4237H40.099C40.0514 33.5958 39.95 33.7461 39.8113 33.8504C39.6725 33.9548 39.5044 34.0072 39.3339 33.9991V33.9991ZM38.7934 32.9841H39.8478C39.8501 32.9121 39.838 32.8404 39.8121 32.7737C39.7862 32.707 39.7472 32.6467 39.6976 32.5969C39.648 32.5472 39.589 32.5089 39.5243 32.4847C39.4597 32.4606 39.3909 32.451 39.3225 32.4567C39.1858 32.4534 39.0535 32.5071 38.9544 32.6059C38.8553 32.7047 38.7974 32.8407 38.7934 32.9841V32.9841ZM39.6194 31.4896V31.7414L38.9723 32.105V31.8892L39.6194 31.4896Z" fill="white"/>
<path d="M41.4011 32.185C41.5108 32.1846 41.6193 32.2082 41.7198 32.2541C41.8204 32.3001 41.9107 32.3674 41.9851 32.452C42.0596 32.5365 42.1165 32.6363 42.1522 32.7452C42.188 32.854 42.2018 32.9694 42.1928 33.0841C42.2017 33.1994 42.1879 33.3154 42.1523 33.4249C42.1166 33.5343 42.0599 33.6349 41.9857 33.7204C41.9114 33.8058 41.8212 33.8743 41.7206 33.9216C41.6201 33.9689 41.5113 33.994 41.4011 33.9952C41.2766 34.0006 41.153 33.9708 41.0432 33.9089C40.9334 33.8471 40.8415 33.7555 40.7769 33.6436V33.9633H40.499V31.6056H40.7769V32.5447C40.8411 32.4319 40.9328 32.3391 41.0425 32.2759C41.1522 32.2127 41.276 32.1813 41.4011 32.185V32.185ZM41.344 32.4368C41.2184 32.4238 41.0919 32.4512 40.9814 32.5153C40.8709 32.5794 40.7815 32.6771 40.7249 32.7956C40.6684 32.9142 40.6475 33.0479 40.6648 33.1792C40.6822 33.3105 40.7371 33.4332 40.8223 33.531C40.9074 33.6289 41.0189 33.6973 41.1418 33.7273C41.2648 33.7573 41.3936 33.7475 41.5111 33.6991C41.6287 33.6507 41.7294 33.566 41.8002 33.4562C41.8709 33.3464 41.9083 33.2167 41.9074 33.0841C41.9142 33.0022 41.9048 32.9197 41.8796 32.8418C41.8544 32.764 41.814 32.6925 41.7609 32.6319C41.7079 32.5714 41.6435 32.5231 41.5717 32.4902C41.4999 32.4573 41.4224 32.4404 41.344 32.4408V32.4368Z" fill="white"/>
<path d="M42.5127 31.7374C42.5127 31.6844 42.5327 31.6336 42.5684 31.5961C42.6041 31.5586 42.6525 31.5376 42.703 31.5376C42.7535 31.5376 42.8019 31.5586 42.8376 31.5961C42.8733 31.6336 42.8933 31.6844 42.8933 31.7374C42.8933 31.7904 42.8733 31.8412 42.8376 31.8787C42.8019 31.9162 42.7535 31.9372 42.703 31.9372C42.6525 31.9372 42.6041 31.9162 42.5684 31.8787C42.5327 31.8412 42.5127 31.7904 42.5127 31.7374ZM42.5584 32.2169H42.8248V33.9672H42.547L42.5584 32.2169Z" fill="white"/>
<path d="M43.3693 32.4567H43.1523V32.217H43.3693V31.7854H43.6472V32.225H44.0811V32.4647H43.6472V33.4957C43.6472 33.6715 43.7081 33.7315 43.8755 33.7315H44.0811V33.9752H43.8299C43.5368 33.9752 43.3693 33.8474 43.3693 33.4957V32.4567Z" fill="white"/>
<path d="M45.1431 33.9992C44.9721 34.0008 44.8044 33.9491 44.6614 33.8505C44.5184 33.752 44.4065 33.6111 44.3398 33.4457C44.2732 33.2804 44.2547 33.0979 44.2869 32.9216C44.3191 32.7452 44.4004 32.5828 44.5205 32.455C44.6407 32.3272 44.7943 32.2397 44.9618 32.2036C45.1294 32.1675 45.3034 32.1844 45.4618 32.2522C45.6201 32.32 45.7558 32.4356 45.8515 32.5844C45.9473 32.7333 45.9988 32.9086 45.9996 33.0881C46.0049 33.2082 45.9864 33.3282 45.9454 33.4405C45.9044 33.5527 45.8417 33.6549 45.7613 33.7405C45.6808 33.8261 45.5844 33.8932 45.478 33.9378C45.3716 33.9823 45.2576 34.0032 45.1431 33.9992ZM45.1431 33.7435C45.223 33.7445 45.3021 33.7277 45.3754 33.6944C45.4487 33.661 45.5144 33.6118 45.5683 33.55C45.6222 33.4881 45.6631 33.415 45.6882 33.3354C45.7133 33.2558 45.7221 33.1715 45.7141 33.0881C45.7233 33.0052 45.7157 32.9212 45.6918 32.8416C45.6679 32.762 45.6282 32.6887 45.5754 32.6263C45.5225 32.564 45.4577 32.5141 45.3852 32.4799C45.3126 32.4457 45.234 32.4281 45.1545 32.4281C45.0751 32.4281 44.9965 32.4457 44.9239 32.4799C44.8514 32.5141 44.7866 32.564 44.7337 32.6263C44.6809 32.6887 44.6412 32.762 44.6173 32.8416C44.5934 32.9212 44.5858 33.0052 44.595 33.0881C44.5847 33.17 44.5912 33.2533 44.614 33.3323C44.6369 33.4113 44.6755 33.4843 44.7274 33.5464C44.7793 33.6084 44.8433 33.6581 44.915 33.6921C44.9867 33.7261 45.0645 33.7436 45.1431 33.7435V33.7435Z" fill="white"/>
</svg>
