<svg width="45" height="45" viewBox="0 0 66 66" fill="none" xmlns="http://www.w3.org/2000/svg">
<ellipse cx="29.4592" cy="29" rx="27.4592" ry="27" stroke="#EC631E" stroke-width="2.16375"/>
<path fill-rule="evenodd" clip-rule="evenodd" d="M14.9197 36.4819C13.4059 35.6318 12.2209 34.4584 11.3647 32.9624C10.5085 31.4656 10.0801 29.786 10.0801 27.9214C10.0801 26.0575 10.5085 24.3813 11.3647 22.8928C12.2209 21.4049 13.4059 20.2356 14.9197 19.3855C16.4329 18.5354 18.1376 18.1094 20.0339 18.1094C21.9128 18.1094 23.6133 18.5354 25.1355 19.3855C26.657 20.2356 27.8455 21.4049 28.7024 22.8928C29.5586 24.3813 29.987 26.0575 29.987 27.9214C29.987 29.786 29.5586 31.4656 28.7024 32.9624C27.8455 34.4584 26.657 35.6318 25.1355 36.4819C23.6133 37.3327 21.9128 37.7574 20.0339 37.7574C18.1376 37.7574 16.4329 37.3327 14.9197 36.4819ZM24.1372 34.8879C25.3598 34.1844 26.3205 33.224 27.0186 32.0054C27.7173 30.7875 28.0664 29.4264 28.0664 27.9214C28.0664 26.4336 27.7173 25.08 27.0186 23.8621C26.3205 22.6441 25.3598 21.6831 24.1372 20.9796C22.9153 20.2767 21.5471 19.9246 20.0339 19.9246C18.5034 19.9246 17.1274 20.2767 15.9055 20.9796C14.6829 21.6831 13.7222 22.6441 13.0242 23.8621C12.3254 25.08 11.9763 26.4336 11.9763 27.9214C11.9763 29.4264 12.3254 30.7875 13.0242 32.0054C13.7222 33.224 14.6829 34.1844 15.9055 34.8879C17.1274 35.5907 18.5033 35.9428 20.0339 35.9428C21.5471 35.9428 22.9153 35.5907 24.1372 34.8879Z" fill="#EC631E"/>
<path fill-rule="evenodd" clip-rule="evenodd" d="M42.9711 24.868C44.0272 25.4646 44.8583 26.2866 45.4658 27.3333C46.0726 28.38 46.3763 29.5404 46.3763 30.8159C46.3763 32.092 46.081 33.249 45.4909 34.2875C44.9001 35.326 44.0941 36.1432 43.0708 36.7398C42.048 37.3371 40.9048 37.6351 39.641 37.6351C38.5591 37.6351 37.5706 37.4104 36.6727 36.9611C35.7739 36.511 35.0341 35.8938 34.4523 35.1088V42.2959C34.4523 42.5733 34.3604 42.8021 34.1779 42.983C33.9946 43.1624 33.762 43.2522 33.4791 43.2522C33.1963 43.2522 32.9678 43.1624 32.7929 42.983C32.6187 42.8021 32.531 42.5733 32.531 42.2959V36.8015C32.5143 36.7521 32.5059 36.6789 32.5059 36.5802V30.8159C32.5059 29.5404 32.8096 28.38 33.4165 27.3333C34.0232 26.2866 34.855 25.4646 35.9111 24.868C36.9673 24.2713 38.1439 23.9727 39.4411 23.9727C40.7382 23.9727 41.9149 24.2713 42.9711 24.868V24.868ZM42.0236 35.2561C42.7962 34.8143 43.4037 34.2053 43.8447 33.4285C44.285 32.6517 44.5051 31.781 44.5051 30.8159C44.5051 29.8514 44.285 28.9807 43.8447 28.2039C43.4037 27.4271 42.7962 26.8141 42.0236 26.364C41.2497 25.9147 40.3893 25.6893 39.4411 25.6893C38.4929 25.6893 37.6367 25.9147 36.8718 26.364C36.1069 26.8141 35.5036 27.4271 35.0633 28.2039C34.6224 28.9807 34.4022 29.8514 34.4022 30.8159C34.4022 31.0947 34.4106 31.2988 34.4273 31.4296C34.4433 31.4625 34.4523 31.5029 34.4523 31.5523C34.6182 32.8277 35.1629 33.8744 36.0861 34.6916C37.0091 35.5095 38.1272 35.9178 39.4411 35.9178C40.3893 35.9178 41.2497 35.6972 42.0236 35.2561L42.0236 35.2561Z" fill="#EC631E"/>
</svg>
