<svg id="camera" xmlns="http://www.w3.org/2000/svg" width="15.464" height="12.171" viewBox="0 0 15.464 12.171">
  <g id="Group_823" data-name="Group 823" transform="translate(0)">
    <g id="Group_822" data-name="Group 822" transform="translate(0 0)">
      <path id="Path_6676" data-name="Path 6676" d="M14.949,46.7a1.663,1.663,0,0,0-1.22-.514h-2.44v-.029a1.32,1.32,0,0,0-.4-.955,1.345,1.345,0,0,0-.955-.4H5.527A1.355,1.355,0,0,0,4.16,46.152v.029H1.735a1.663,1.663,0,0,0-1.22.514A1.748,1.748,0,0,0,0,47.916v7.32a1.663,1.663,0,0,0,.514,1.22,1.748,1.748,0,0,0,1.22.514H13.729a1.663,1.663,0,0,0,1.22-.514,1.748,1.748,0,0,0,.514-1.22v-7.32A1.663,1.663,0,0,0,14.949,46.7Zm-.25,8.54h-.015a.954.954,0,0,1-.955.955H1.735a.954.954,0,0,1-.955-.955v-7.32a.954.954,0,0,1,.955-.955H4.572a.4.4,0,0,0,.4-.4v-.426a.553.553,0,0,1,.573-.573h4.4a.553.553,0,0,1,.573.573v.426a.4.4,0,0,0,.4.4h2.837a.954.954,0,0,1,.955.955Z" transform="translate(0 -44.8)" fill="#fff"/>
      <path id="Path_6677" data-name="Path 6677" d="M115.616,130.8a3.613,3.613,0,1,0,2.558,1.058A3.622,3.622,0,0,0,115.616,130.8Zm2,5.63a2.839,2.839,0,0,1-4,0,2.81,2.81,0,0,1-.823-2,2.873,2.873,0,0,1,.823-2,2.81,2.81,0,0,1,2-.823,2.873,2.873,0,0,1,2,.823,2.81,2.81,0,0,1,.823,2A2.75,2.75,0,0,1,117.615,136.43Z" transform="translate(-107.884 -127.64)" fill="#fff"/>
      <circle id="Ellipse_393" data-name="Ellipse 393" cx="0.72" cy="0.72" r="0.72" transform="translate(12.245 3.146)" fill="#fff"/>
    </g>
  </g>
</svg>
