<svg xmlns="http://www.w3.org/2000/svg" width="22.172" height="29.561" viewBox="0 0 22.172 29.561">
  <g id="location" transform="translate(-4)">
    <path id="Path_6707" data-name="Path 6707" d="M15.545,16.831A5.543,5.543,0,1,0,10,11.289,5.549,5.549,0,0,0,15.545,16.831Zm0-10.161a4.619,4.619,0,1,1-4.619,4.619A4.623,4.623,0,0,1,15.545,6.67Z" transform="translate(-0.458 -0.438)" fill="#ec631e" fill-rule="evenodd"/>
    <path id="Path_6708" data-name="Path 6708" d="M15.085,0A11.058,11.058,0,0,0,4,11.086c0,6.466,5.544,13.081,9.585,17.731a2.257,2.257,0,0,0,1.465.744h.071a2.26,2.26,0,0,0,1.465-.744c4.043-4.649,9.586-11.263,9.586-17.731A11.059,11.059,0,0,0,15.085,0Zm.108,27.6a1.122,1.122,0,0,1-.125.091.923.923,0,0,0-.119-.123c-3.386-3.9-9.1-10.47-9.1-16.486a9.239,9.239,0,1,1,18.477,0C24.325,17.1,18.608,23.677,15.193,27.6Z" fill="#ec631e" fill-rule="evenodd"/>
  </g>
</svg>
