<svg xmlns="http://www.w3.org/2000/svg" width="20.862" height="30" viewBox="0 0 20.862 30">
  <g id="Layer_47" data-name="Layer 47" transform="translate(-5.569 -1)">
    <path id="Path_6709" data-name="Path 6709" d="M16,27a2.71,2.71,0,0,1-2-.9c-3.15-3.49-8.43-10-8.43-14.36A10.6,10.6,0,0,1,16,1,10.6,10.6,0,0,1,26.43,11.74c0,4.35-5.28,10.87-8.43,14.36A2.71,2.71,0,0,1,16,27ZM16,3a8.6,8.6,0,0,0-8.43,8.74c0,2.65,3,7.52,7.92,13a.69.69,0,0,0,1,0c5-5.51,7.92-10.38,7.92-13A8.6,8.6,0,0,0,16,3Z" fill="#ec631e"/>
    <path id="Path_6710" data-name="Path 6710" d="M16,16.71a5.29,5.29,0,1,1,5.29-5.28A5.29,5.29,0,0,1,16,16.71Zm0-8.57a3.29,3.29,0,1,0,3.29,3.29A3.29,3.29,0,0,0,16,8.14Z" fill="#ec631e"/>
    <path id="Path_6711" data-name="Path 6711" d="M20,31H12a5,5,0,0,1-5-5,1,1,0,1,1,2,0,3,3,0,0,0,3,3h8a3,3,0,0,0,3-3,1,1,0,0,1,2,0,5,5,0,0,1-5,5Z" fill="#ec631e"/>
  </g>
</svg>
