<svg width="50" height="50" viewBox="0 0 50 50" fill="none" xmlns="http://www.w3.org/2000/svg">
<g clip-path="url(#clip0_0_45624)">
<g clip-path="url(#clip1_0_45624)">
<g clip-path="url(#clip2_0_45624)">
<g clip-path="url(#clip3_0_45624)">
<path fill-rule="evenodd" clip-rule="evenodd" d="M33.7191 24.792C33.5811 24.592 30.2571 19.877 25.0021 19.877C20.4931 19.877 16.4751 24.564 16.3021 24.763C16.1871 24.8999 16.1871 25.099 16.3021 25.236C16.4711 25.436 20.4891 30.122 25.0021 30.122C29.5151 30.122 33.5291 25.435 33.7021 25.236C33.8071 25.109 33.8141 24.927 33.7191 24.792ZM25.0021 29.392C21.3871 29.392 17.9511 25.945 17.0781 25.001C17.9501 24.056 21.3781 20.61 25.0021 20.61C29.2311 20.61 32.2161 24.052 32.9451 24.981C32.1031 25.8939 28.6461 29.391 25.0011 29.391L25.0021 29.392Z" fill="white"/>
</g>
</g>
<g clip-path="url(#clip4_0_45624)">
<g clip-path="url(#clip5_0_45624)">
<path fill-rule="evenodd" clip-rule="evenodd" d="M25.0007 22.0728C23.3837 22.0728 22.0737 23.3828 22.0737 24.9998C22.0737 26.6168 23.3837 27.9268 25.0007 27.9268C26.6177 27.9268 27.9277 26.6168 27.9277 24.9998C27.9258 23.3838 26.6167 22.0748 25.0007 22.0728ZM25.0007 27.1958C23.7857 27.1958 22.8008 26.2108 22.8008 24.9958C22.8008 23.7808 23.7857 22.7958 25.0007 22.7958C26.2157 22.7958 27.2007 23.7808 27.2007 24.9958C27.2007 26.2108 26.2157 27.1958 25.0007 27.1958Z" fill="white"/>
</g>
</g>
</g>
</g>
<defs>
<clipPath id="clip0_0_45624">
<rect width="17.57" height="10.245" fill="white" transform="translate(16.2158 19.877)"/>
</clipPath>
<clipPath id="clip1_0_45624">
<rect width="17.57" height="10.245" fill="white" transform="translate(16.2158 19.877)"/>
</clipPath>
<clipPath id="clip2_0_45624">
<rect width="17.57" height="10.245" fill="white" transform="translate(16.2158 19.877)"/>
</clipPath>
<clipPath id="clip3_0_45624">
<rect width="17.57" height="10.245" fill="white" transform="translate(16.2158 19.877)"/>
</clipPath>
<clipPath id="clip4_0_45624">
<rect width="5.854" height="5.854" fill="white" transform="translate(22.0737 22.0728)"/>
</clipPath>
<clipPath id="clip5_0_45624">
<rect width="5.854" height="5.854" fill="white" transform="translate(22.0737 22.0728)"/>
</clipPath>
</defs>
</svg>
