<svg width="50" height="50" viewBox="0 0 50 50" fill="none" xmlns="http://www.w3.org/2000/svg">
<g clip-path="url(#clip0_0_45597)">
<g clip-path="url(#clip1_0_45597)">
<g clip-path="url(#clip2_0_45597)">
<g clip-path="url(#clip3_0_45597)">
<path fill-rule="evenodd" clip-rule="evenodd" d="M33.7191 24.7842C33.5811 24.5841 30.2571 19.8691 25.0021 19.8691C20.4931 19.8691 16.4751 24.5561 16.3021 24.7551C16.1871 24.8921 16.1871 25.0911 16.3021 25.2282C16.4711 25.4282 20.4891 30.1141 25.0021 30.1141C29.5151 30.1141 33.5291 25.4271 33.7021 25.2282C33.8071 25.1011 33.8141 24.9191 33.7191 24.7842ZM25.0021 29.3841C21.3871 29.3841 17.9511 25.9372 17.0781 24.9932C17.9501 24.0481 21.3781 20.6021 25.0021 20.6021C29.2311 20.6021 32.2161 24.0441 32.9451 24.9731C32.1031 25.8861 28.6461 29.3831 25.0011 29.3831L25.0021 29.3841Z" fill="white"/>
</g>
</g>
<g clip-path="url(#clip4_0_45597)">
<g clip-path="url(#clip5_0_45597)">
<path fill-rule="evenodd" clip-rule="evenodd" d="M25.0007 22.0649C23.3837 22.0649 22.0737 23.375 22.0737 24.9919C22.0737 26.6089 23.3837 27.9189 25.0007 27.9189C26.6177 27.9189 27.9277 26.6089 27.9277 24.9919C27.9258 23.3759 26.6167 22.0669 25.0007 22.0649ZM25.0007 27.1879C23.7857 27.1879 22.8008 26.2029 22.8008 24.9879C22.8008 23.7729 23.7857 22.7879 25.0007 22.7879C26.2157 22.7879 27.2007 23.7729 27.2007 24.9879C27.2007 26.2029 26.2157 27.1879 25.0007 27.1879Z" fill="white"/>
</g>
</g>
</g>
<path d="M31.3595 18.3301L18.3657 31.6708" stroke="white" stroke-linecap="round"/>
<g clip-path="url(#clip6_0_45597)">
<g clip-path="url(#clip7_0_45597)">
<g clip-path="url(#clip8_0_45597)">
<path fill-rule="evenodd" clip-rule="evenodd" d="M33.7191 24.7842C33.5811 24.5841 30.2571 19.8691 25.0021 19.8691C20.4931 19.8691 16.4751 24.5561 16.3021 24.7551C16.1871 24.8921 16.1871 25.0911 16.3021 25.2282C16.4711 25.4282 20.4891 30.1141 25.0021 30.1141C29.5151 30.1141 33.5291 25.4271 33.7021 25.2282C33.8071 25.1011 33.8141 24.9191 33.7191 24.7842ZM25.0021 29.3841C21.3871 29.3841 17.9511 25.9372 17.0781 24.9932C17.9501 24.0481 21.3781 20.6021 25.0021 20.6021C29.2311 20.6021 32.2161 24.0441 32.9451 24.9731C32.1031 25.8861 28.6461 29.3831 25.0011 29.3831L25.0021 29.3841Z" fill="white"/>
</g>
</g>
<g clip-path="url(#clip9_0_45597)">
<g clip-path="url(#clip10_0_45597)">
<path fill-rule="evenodd" clip-rule="evenodd" d="M25.0007 22.0649C23.3837 22.0649 22.0737 23.375 22.0737 24.9919C22.0737 26.6089 23.3837 27.9189 25.0007 27.9189C26.6177 27.9189 27.9277 26.6089 27.9277 24.9919C27.9258 23.3759 26.6167 22.0669 25.0007 22.0649ZM25.0007 27.1879C23.7857 27.1879 22.8008 26.2029 22.8008 24.9879C22.8008 23.7729 23.7857 22.7879 25.0007 22.7879C26.2157 22.7879 27.2007 23.7729 27.2007 24.9879C27.2007 26.2029 26.2157 27.1879 25.0007 27.1879Z" fill="white"/>
</g>
</g>
</g>
<path d="M31.3595 18.3301L18.3657 31.6708" stroke="white" stroke-linecap="round"/>
</g>
<defs>
<clipPath id="clip0_0_45597">
<rect width="17.57" height="13.3408" fill="white" transform="translate(16.2158 18.3301)"/>
</clipPath>
<clipPath id="clip1_0_45597">
<rect width="17.57" height="10.245" fill="white" transform="translate(16.2158 19.8691)"/>
</clipPath>
<clipPath id="clip2_0_45597">
<rect width="17.57" height="10.245" fill="white" transform="translate(16.2158 19.8691)"/>
</clipPath>
<clipPath id="clip3_0_45597">
<rect width="17.57" height="10.245" fill="white" transform="translate(16.2158 19.8691)"/>
</clipPath>
<clipPath id="clip4_0_45597">
<rect width="5.854" height="5.854" fill="white" transform="translate(22.0737 22.0649)"/>
</clipPath>
<clipPath id="clip5_0_45597">
<rect width="5.854" height="5.854" fill="white" transform="translate(22.0737 22.0649)"/>
</clipPath>
<clipPath id="clip6_0_45597">
<rect width="17.57" height="10.245" fill="white" transform="translate(16.2158 19.8691)"/>
</clipPath>
<clipPath id="clip7_0_45597">
<rect width="17.57" height="10.245" fill="white" transform="translate(16.2158 19.8691)"/>
</clipPath>
<clipPath id="clip8_0_45597">
<rect width="17.57" height="10.245" fill="white" transform="translate(16.2158 19.8691)"/>
</clipPath>
<clipPath id="clip9_0_45597">
<rect width="5.854" height="5.854" fill="white" transform="translate(22.0737 22.0649)"/>
</clipPath>
<clipPath id="clip10_0_45597">
<rect width="5.854" height="5.854" fill="white" transform="translate(22.0737 22.0649)"/>
</clipPath>
</defs>
</svg>
