<svg xmlns="http://www.w3.org/2000/svg" width="40" height="40" viewBox="0 0 40 40">
  <g id="Grupo_1188" data-name="Grupo 1188" transform="translate(-414 -672)">
    <circle id="Elipse_414" data-name="Elipse 414" cx="20" cy="20" r="20" transform="translate(414 672)" fill="#ec631e"/>
    <path id="qr" d="M11.036,2.586V4.311H9.311V2.586ZM9.311,12.717v2.457h1.724V12.717Zm5.173,9.354V20.347H12.76V18.623H11.036v3.449Zm3.449-12.8H12.76v1.724h5.173Zm0,3.449h2.414V10.993H17.933Zm0,2.457V16.9h4.138V12.717H20.347v2.457ZM12.76,0H11.036V2.586H12.76ZM11.036,7.759H12.76V4.311H11.036V6.035H9.311v4.957h1.724ZM0,9.268v3.449H1.724V10.993H4.311V9.268Zm12.76,3.449V10.993H11.036v1.724Zm3.449,1.724h1.724V12.717H16.209Zm4.138-3.449h1.724V9.268H20.347Zm-5.863,1.724H12.76v2.457H11.036V16.9h3.449ZM9.311,18.623h1.724V16.9H9.311ZM14.484,16.9v1.724h3.449V16.9Zm5.173,3.449V18.623H17.933v1.724Zm2.414,1.724V20.347H19.657v1.724Zm-5.863,0h1.724V20.347H16.209ZM7.759,10.993V9.268H6.035v1.724H4.311v1.724h5V10.993Zm0-3.233H0V0H7.759ZM6.035,1.724H1.724V6.035H6.035ZM4.742,3.018H3.018V4.742H4.742ZM22.071,0V7.759H14.312V0ZM20.347,1.724H16.036V6.035h4.311ZM19.054,3.018H17.329V4.742h1.724ZM0,14.312H7.759v7.759H0Zm1.724,6.035H6.035V16.036H1.724Zm1.293-1.293H4.742V17.329H3.018Zm0,0" transform="translate(422.464 680.697)" fill="#fff"/>
  </g>
</svg>
