<svg width="86" height="30" viewBox="0 0 86 30" fill="none" xmlns="http://www.w3.org/2000/svg">
<path d="M23.3853 20.271V22.0521H28.4334V23.9704H23.3853V26.0257H28.9789L31.571 23.1483L29.1154 20.271H23.3853Z" fill="white"/>
<path d="M37.9878 27.1255V19.3174L34.4404 23.1533L37.9878 27.1255Z" fill="white"/>
<path d="M7.42725 7.39186H10.4288L8.92842 3.55615L7.42725 7.39186Z" fill="white"/>
<path d="M62.8156 3.55615L61.1782 7.39186H64.3165L62.8156 3.55615Z" fill="white"/>
<path d="M44.6792 21.5045C44.5426 20.6825 43.9964 20.271 43.1774 20.271H40.313V22.7367H43.3147C44.1331 22.7369 44.6792 22.3262 44.6792 21.5045Z" fill="white"/>
<path d="M54.2179 22.4641C54.4908 22.3268 54.6277 21.9155 54.6277 21.5053C54.7643 20.9578 54.4908 20.6834 54.2179 20.5463C53.9457 20.4092 53.5359 20.4092 53.1272 20.4092H50.3979V22.6013H53.127C53.5357 22.6013 53.9455 22.6013 54.2179 22.4641Z" fill="white"/>
<path d="M73.8654 0V1.64382L73.0474 0H66.6358V1.64382L65.8168 0H57.0853C55.5847 0 54.3562 0.274233 53.2653 0.822107V0H47.1263V0.137116V0.822107C46.4443 0.27443 45.6257 0 44.5342 0H22.569L21.0676 3.42475L19.5672 0H14.656H12.6094V1.64382L11.9272 0H11.7906H5.92424L3.19521 6.43816L0.0576842 13.4244L0 13.5617H0.0576842H7.01573H7.10284L7.15229 13.4244L7.97125 11.37H9.74475L10.5633 13.5617H18.4755V13.4244V11.9179L19.1581 13.5615H23.1142L23.796 11.9179V13.4244V13.5617H26.9339H42.6235H42.7601V9.99983H43.0336C43.3061 9.99983 43.3061 9.99983 43.3061 10.411V13.4246H53.1292V12.6027C53.9478 13.0142 55.1748 13.4246 56.8122 13.4246H60.9056L61.7242 11.2333H63.6336L64.4522 13.4246H72.3648V12.055V11.3702L73.5932 13.4246H73.8654H74.0023H80.0052V0H73.8658H73.8654ZM27.6165 11.5073H26.2519H25.4336V10.686V3.97282L25.297 4.28705V4.28331L22.1232 11.5073H22.0227H21.293H20.1125L16.8384 3.97282V11.5073H12.2001L11.2451 9.45255H6.60605L5.65092 11.5073H3.2527L7.28865 1.91805H10.6991L14.519 11.096V1.91805H15.3374H18.1335L18.1979 2.05536H18.2026L19.9239 5.817L21.16 8.63537L21.2038 8.49332L23.9322 1.91825H27.6164V11.5073H27.6165ZM37.0305 3.97282H31.7096V5.75356H36.8939V7.67122H31.7096V9.58966H37.0305V11.6438H29.3904V1.91825H37.0305V3.97282ZM46.7613 7.50514C46.7649 7.50829 46.7694 7.51046 46.7737 7.51341C46.8253 7.56818 46.8694 7.62315 46.9071 7.67575C47.1684 8.01972 47.3798 8.53135 47.3904 9.28154C47.3911 9.29455 47.3917 9.30735 47.3925 9.32035C47.3925 9.32784 47.3939 9.33434 47.3939 9.34202C47.3939 9.34636 47.3935 9.34971 47.3935 9.35384C47.3966 9.4293 47.3986 9.50633 47.3986 9.58966V11.5075H45.3526V10.4112C45.3526 9.8633 45.3526 9.0412 44.9427 8.49332C44.8138 8.36389 44.6833 8.27859 44.5412 8.21791C44.3368 8.08493 43.9493 8.08276 43.3061 8.08276H40.8496V11.5075H38.5309V1.91825H43.7156C44.9427 1.91825 45.7617 1.91825 46.4441 2.3292C47.1125 2.73228 47.5163 3.40072 47.5316 4.45923C47.5 5.91707 46.5681 6.71692 45.898 6.98662C45.898 6.98662 46.3532 7.07862 46.7613 7.50514ZM51.3555 11.5073H49.0359V1.91805H51.3555V11.5073ZM77.9594 11.5073H74.9575L70.5919 4.24666V10.2741L70.5776 10.2599V11.5132H68.2727V11.5075H65.9532L65.1346 9.45274H60.3592L59.5406 11.644H56.9485C55.8578 11.644 54.4926 11.3704 53.6744 10.5485C52.8559 9.72658 52.447 8.63064 52.447 6.85009C52.447 5.48031 52.7195 4.10954 53.6744 3.01399C54.3561 2.19149 55.5845 1.91825 57.0849 1.91825H59.2683V3.97282H57.0849C56.2663 3.97282 55.8578 4.10935 55.311 4.52109C54.9025 4.93185 54.6294 5.75356 54.6294 6.71239C54.6294 7.80853 54.7659 8.49332 55.311 9.0412C55.7213 9.45274 56.2665 9.58986 56.9485 9.58986H57.9035L61.041 2.05576H62.406H64.452L68.2725 11.2337V10.7656V7.67161V7.39797V2.05596H71.683L75.6387 8.76795V2.05596H77.959V11.5077H77.9594V11.5073Z" fill="white"/>
<path d="M44.8049 5.90886C44.8447 5.86611 44.8808 5.81764 44.9114 5.76209C45.035 5.56567 45.1767 5.21185 45.1004 4.72899C45.0972 4.68466 45.0892 4.64368 45.0798 4.60409C45.0772 4.59305 45.0776 4.5834 45.0747 4.57237L45.0733 4.57256C45.0054 4.33793 44.8321 4.19372 44.6593 4.10625C44.3858 3.96973 43.9765 3.96973 43.5674 3.96973H40.8384V6.16181H43.5674C43.9765 6.16181 44.386 6.16181 44.6593 6.0245C44.7003 6.00362 44.7368 5.97525 44.7719 5.94314L44.7723 5.94491C44.7725 5.94471 44.7864 5.93013 44.8049 5.90886Z" fill="white"/>
<path d="M85.9998 25.2058C85.9998 24.2469 85.7273 23.2877 85.3182 22.6029V16.4388H85.3119V16.0272C85.3119 16.0272 79.5935 16.0272 78.7423 16.0272C77.8916 16.0272 76.8591 16.849 76.8591 16.849V16.0272H70.5837C69.6282 16.0272 68.4011 16.3015 67.8547 16.849V16.0272H56.6678V16.4388V16.8488C55.8498 16.1644 54.3479 16.0271 53.6663 16.0271H46.2989V16.4386V16.8486C45.6169 16.1642 43.979 16.0269 43.16 16.0269H34.9755L33.065 18.0818L31.2913 16.0269H30.7202H29.7908H19.0132V16.4384V17.5206V29.8632H31.019L32.9917 27.8819L34.7016 29.8632H34.8385H41.7564H42.0699H42.2065H42.3422V28.4934V26.7127H43.0248C43.979 26.7127 45.2074 26.7127 46.1624 26.3011V29.7255V30.0001H52.3018V29.7255V26.4382H52.574C52.9838 26.4382 52.9839 26.4382 52.9839 26.8492V29.7255V30.0001H71.5377C72.7665 30.0001 73.9936 29.7255 74.6756 29.1776V29.7255V30.0001H80.5425C81.7696 30.0001 82.9984 29.8632 83.817 29.3149C85.0731 28.5582 85.8648 27.2188 85.9825 25.6212C85.988 25.574 85.9949 25.5267 85.9992 25.4792L85.9911 25.4715C85.9963 25.3829 85.9998 25.2952 85.9998 25.2058ZM43.025 24.384H40.2958V24.794V25.6163V26.4384V27.9453H35.8115L33.2016 24.9313L33.1926 24.9414L33.065 24.794L30.0637 27.9453H21.3323V18.3565H30.2002L32.623 21.021L33.1323 21.5789L33.2014 21.507L36.0668 18.3566H43.2974C44.7006 18.3566 46.272 18.7044 46.8675 20.138C46.9391 20.4219 46.9807 20.7375 46.9807 21.096C46.9807 23.8356 45.0707 24.384 43.025 24.384ZM56.6678 24.2467C56.9403 24.6567 57.0769 25.2056 57.0769 26.0279V27.9451H54.7579V26.7127C54.7579 26.1638 54.7579 25.2056 54.3481 24.794C54.0759 24.384 53.5295 24.384 52.7115 24.384H50.256V27.9453H47.9368V18.2193H53.1208C54.2115 18.2193 55.1664 18.2193 55.8498 18.6299C56.5314 19.0412 57.0769 19.7262 57.0769 20.8222C57.0769 22.3287 56.1224 23.1506 55.44 23.425C56.1224 23.6979 56.5314 23.9727 56.6678 24.2467ZM66.0818 20.2733H60.7603V22.0543H65.9448V23.9725H60.7603V25.8906H66.0818V27.9451H58.4417V18.2191H66.0818V20.2733ZM71.8114 27.9453H67.4454V25.8907H71.8114C72.2199 25.8907 72.4934 25.8907 72.7669 25.6165C72.9034 25.4792 73.039 25.2058 73.039 24.9315C73.039 24.6569 72.9034 24.3842 72.7669 24.2469C72.6299 24.11 72.3566 23.9729 71.9475 23.9729C69.7645 23.8358 67.1725 23.9729 67.1725 20.9595C67.1725 19.5895 67.991 18.0824 70.4469 18.0824H74.9489V20.4108H70.7199C70.3108 20.4108 70.0375 20.4108 69.7643 20.5479C69.4922 20.6853 69.4922 20.9595 69.4922 21.2331C69.4922 21.6443 69.7643 21.7814 70.0373 21.9173C70.3108 22.0546 70.5833 22.0546 70.8558 22.0546H72.0839C73.3119 22.0546 74.1303 22.3287 74.676 22.8768C75.0854 23.2879 75.3584 23.9729 75.3584 24.9315C75.3584 26.9857 74.1305 27.9453 71.8114 27.9453ZM83.5443 26.9857C82.9992 27.5344 82.0437 27.9453 80.6789 27.9453H76.3141V25.8907H80.6787C81.0882 25.8907 81.3617 25.8907 81.6342 25.6165C81.7702 25.4792 81.9071 25.2058 81.9071 24.9315C81.9071 24.6569 81.7702 24.3842 81.6342 24.2469C81.4976 24.11 81.2251 23.9729 80.8156 23.9729C78.6334 23.8358 76.0406 23.9729 76.0406 20.9597C76.0406 19.6577 76.7824 18.4816 78.612 18.1323C78.8308 18.1019 79.0619 18.0824 79.3151 18.0824H83.8176V20.4108H80.8156H79.7245H79.588C79.1785 20.4108 78.906 20.4108 78.6334 20.5479C78.4961 20.6853 78.3595 20.9595 78.3595 21.2331C78.3595 21.6443 78.4961 21.7814 78.906 21.9173C79.1785 22.0546 79.4514 22.0546 79.7245 22.0546H79.8601H80.952C81.5483 22.0546 81.9991 22.1285 82.4118 22.2741C82.7897 22.4114 84.0407 22.9733 84.3205 24.44C84.3448 24.5937 84.3626 24.754 84.3626 24.9315C84.3626 25.7536 84.0897 26.4384 83.5443 26.9857Z" fill="white"/>
</svg>
