<svg width="118" height="30" viewBox="0 0 118 30" fill="none" xmlns="http://www.w3.org/2000/svg">
<path d="M82.9311 14.704C84.8837 15.3793 85.5844 16.3572 85.5786 18.3917C85.5756 19.2242 85.6431 20.0683 85.5317 20.889C85.2971 22.6558 83.9631 23.8579 81.9842 24.2304C81.3392 24.3527 80.6854 24.3992 80.0316 24.3992C77.4105 24.4021 74.7866 24.3876 72.1655 24.4109C71.6847 24.4138 71.5323 24.2945 71.5352 23.7996C71.5528 17.9872 71.5528 12.1718 71.5352 6.35934C71.5352 5.88782 71.6349 5.72773 72.145 5.73355C74.6957 5.75975 77.2493 5.74229 79.8 5.74811C80.7411 5.75102 81.6705 5.86454 82.5529 6.19634C84.013 6.74063 84.8134 7.78844 84.8749 9.34562C84.9072 10.1315 84.8896 10.9202 84.8984 11.7061C84.913 12.9635 84.356 13.8774 83.2214 14.445C83.1393 14.4857 83.0631 14.5352 82.9839 14.5876C82.9693 14.5963 82.9663 14.6225 82.9311 14.704ZM75.4374 18.9448C75.4374 19.3843 75.4374 19.8267 75.4374 20.2662C75.4374 21.4595 75.4374 21.4828 76.6395 21.4537C77.9236 21.4217 79.2166 21.5934 80.4919 21.3373C81.1926 21.1976 81.603 20.7872 81.6998 20.0799C81.7995 19.3639 81.8082 18.645 81.7115 17.9348C81.5737 16.9394 81.0489 16.4678 80.0169 16.4446C78.6361 16.4155 77.2522 16.4446 75.8714 16.4271C75.5371 16.4242 75.4199 16.5261 75.4316 16.8608C75.4521 17.5535 75.4374 18.2491 75.4374 18.9448ZM75.4374 11.1065C75.4374 11.7789 75.4433 12.4483 75.4345 13.1207C75.4316 13.3768 75.4492 13.5631 75.7951 13.5572C77.0587 13.534 78.3253 13.5747 79.5859 13.5049C80.5007 13.4554 80.9873 12.8878 81.0489 11.9419C81.0841 11.4121 81.0665 10.8766 81.0577 10.3439C81.0401 9.3136 80.7118 8.88864 79.6886 8.75476C78.3869 8.58303 77.0734 8.71983 75.7629 8.6849C75.455 8.67617 75.4345 8.86245 75.4374 9.08948C75.4404 9.76183 75.4374 10.4342 75.4374 11.1065Z" fill="white"/>
<path d="M14.3211 30.0002C13.1103 28.7196 11.9405 27.4011 10.6857 26.164C7.41671 22.9449 4.10962 19.7607 0.820134 16.5649C-0.220659 15.552 -0.28516 14.4343 0.708723 13.4651C5.26182 9.02643 9.83253 4.60233 14.3944 0.175304C14.4237 0.146198 14.4677 0.131645 14.5176 0.102539C14.6847 0.280086 14.5938 0.495464 14.5967 0.687564C14.6055 2.81812 14.5938 4.95159 14.6084 7.08215C14.6114 7.45762 14.497 7.71958 14.2244 7.98445C12.1985 9.94328 10.1843 11.9167 8.17605 13.893C7.4431 14.6148 7.46069 15.3162 8.21123 16.0555C10.1902 17.9969 12.1662 19.9412 14.1628 21.8651C14.4941 22.1853 14.6143 22.5083 14.6114 22.9566C14.5909 25.2268 14.6026 27.4971 14.6026 29.7674C14.5058 29.846 14.415 29.9216 14.3211 30.0002Z" fill="white"/>
<path d="M17.1299 29.9006C17.1299 27.38 17.1358 24.9788 17.1241 22.5746C17.1211 22.237 17.3615 22.0885 17.5521 21.8994C19.5281 19.958 21.513 18.0253 23.489 16.084C24.2953 15.2952 24.2865 14.5996 23.4949 13.8253C21.4837 11.8549 19.4724 9.88149 17.4641 7.90519C17.3029 7.74802 17.1211 7.62578 17.1241 7.34345C17.1358 4.9422 17.1328 2.53804 17.1328 0C17.684 0.515176 18.1531 0.943028 18.6076 1.38544C22.6974 5.35841 26.7873 9.33138 30.8713 13.3073C32.0206 14.4278 32.0206 15.4786 30.8713 16.5992C26.3856 20.968 21.8941 25.328 17.4026 29.691C17.3527 29.7405 17.2941 29.7754 17.1299 29.9006Z" fill="white"/>
<path d="M69.9819 24.4004C68.7065 24.4004 67.5133 24.3829 66.323 24.4091C65.936 24.4178 65.8627 24.1966 65.7747 23.9259C65.461 22.9596 65.1209 22.002 64.8336 21.0299C64.7281 20.6748 64.5639 20.5525 64.1974 20.5554C62.022 20.5671 59.8437 20.57 57.6683 20.5525C57.2871 20.5496 57.1435 20.7068 57.0379 21.0386C56.7389 21.9846 56.3841 22.913 56.0968 23.8619C55.9796 24.2548 55.8271 24.4265 55.3815 24.412C54.2381 24.3771 53.0946 24.4004 51.8691 24.4004C52.4526 22.6715 53.0067 21.0124 53.5725 19.3592C54.9124 15.4503 56.2551 11.5413 57.5979 7.63239C58.1168 6.12469 58.6592 5.7434 60.2747 5.7434C61.2334 5.7434 62.195 5.75505 63.1537 5.73758C63.4762 5.73176 63.6521 5.81617 63.7635 6.13633C65.8158 12.1933 67.8827 18.2473 69.9819 24.4004ZM60.9255 8.75005C60.0254 11.617 59.1752 14.3209 58.3221 17.0278C58.2429 17.2781 58.2107 17.4586 58.5976 17.4527C60.1632 17.4382 61.7318 17.4411 63.2974 17.4498C63.6286 17.4527 63.6843 17.3567 63.5817 17.0394C62.7051 14.3442 61.849 11.6403 60.9255 8.75005Z" fill="white"/>
<path d="M104.415 24.3986C103.207 24.3986 101.994 24.3927 100.78 24.4015C100.463 24.4044 100.408 24.2006 100.331 23.9736C100.018 23.0073 99.6776 22.0497 99.3844 21.0805C99.2759 20.7196 99.1293 20.5478 98.713 20.5508C96.5581 20.5711 94.4062 20.5682 92.2513 20.5508C91.8526 20.5478 91.6825 20.6817 91.5682 21.0601C91.2838 22.009 90.9261 22.9374 90.6329 23.8863C90.5127 24.2792 90.3192 24.4189 89.8941 24.4073C88.7536 24.3753 87.6103 24.3956 86.3936 24.3956C87.0503 22.4659 87.6806 20.6119 88.3139 18.7578C89.5482 15.1516 90.7883 11.5453 92.0226 7.93911C92.5357 6.43724 93.5091 5.74161 95.1157 5.7387C95.8193 5.7387 96.5288 5.81146 97.2207 5.71832C98.0006 5.61354 98.2498 5.98319 98.4638 6.62352C99.9121 10.9399 101.393 15.2447 102.862 19.5553C103.345 20.9757 103.829 22.3961 104.316 23.8135C104.383 23.994 104.462 24.157 104.415 24.3986ZM92.7438 17.4131C94.5938 17.4131 96.3881 17.4131 98.2351 17.4131C97.3204 14.5549 96.4174 11.7404 95.4587 8.75117C94.5264 11.7287 93.6498 14.5258 92.7438 17.4131Z" fill="white"/>
<path d="M41.7483 14.7735C41.7483 16.0017 41.7366 17.2271 41.7513 18.4554C41.7689 20.097 42.4666 20.8566 44.1172 21.072C45.4248 21.2437 46.7353 21.1302 48.0429 21.1535C49.7258 21.1826 50.7461 22.5826 50.2301 24.166C50.1744 24.3406 50.0776 24.3784 49.9281 24.3755C47.2689 24.2882 44.5805 24.6608 41.9536 24.0379C39.2035 23.3859 37.9106 21.7036 37.9077 18.9007C37.9047 16.2375 37.9663 13.5714 37.893 10.9111C37.7962 7.38056 39.8045 5.77389 42.9269 5.32566C44.8619 5.04915 46.8057 5.21215 48.7466 5.20342C49.6847 5.1976 50.3884 6.02129 50.4382 7.00507C50.5086 8.41089 50.5056 8.39053 49.1013 8.41381C47.395 8.44583 45.6828 8.27411 43.9824 8.50695C42.408 8.72525 41.763 9.49365 41.7483 11.0887C41.7395 12.3169 41.7483 13.5452 41.7483 14.7735Z" fill="white"/>
<path d="M105.817 15.6968C105.817 13.1268 105.817 10.5567 105.817 7.98375C105.817 6.26941 106.62 5.46899 108.335 5.46607C109.693 5.46316 109.693 5.46316 109.693 6.79331C109.693 11.3775 109.701 15.9646 109.681 20.5488C109.678 21.0785 109.798 21.2619 110.37 21.2561C112.686 21.2241 115.005 21.2561 117.321 21.2299C117.84 21.2241 118.031 21.3521 117.996 21.8848C117.949 22.5775 117.972 23.2731 117.99 23.9688C117.998 24.3006 117.875 24.4083 117.541 24.4083C113.771 24.3995 110.003 24.3937 106.233 24.4112C105.723 24.4141 105.814 24.1143 105.814 23.8261C105.817 21.1135 105.817 18.4037 105.817 15.6968Z" fill="white"/>
</svg>
