<svg width="362" height="221" viewBox="0 0 362 221" fill="none" xmlns="http://www.w3.org/2000/svg">
<g filter="url(#filter0_d)">
<path d="M18.9261 2H343.074C350.213 2 356 7.68303 356 14.6934V196.307C356 203.317 350.213 209 343.074 209H18.9261C11.7872 209 6 203.317 6 196.307V14.6934C6 7.68303 11.7872 2 18.9261 2Z" fill="#DCEFF7"/>
<path opacity="0.208068" d="M22.999 212.002C12.5088 212.002 4 203.5 4 193.004V19.0039C4 8.50782 12.5088 0.00390625 22.999 0.00390625H224.048L97.1948 212.002H22.999Z" fill="url(#paint0_linear)"/>
<path opacity="0.14" d="M279.855 160.39C279.671 160.015 279.294 160.073 279.107 159.551C278.953 159.027 278.903 158.478 278.961 157.934C279.012 156.593 279.148 155.319 278.689 154.029C278.214 152.691 277.738 151.919 278.267 150.457C278.73 149.186 279.487 147.995 279.994 146.724C281.924 141.814 281.938 136.356 280.032 131.437C279.05 128.895 277.545 126.276 277.684 123.458C277.824 120.639 279.174 118.129 279.094 115.263C279.025 112.676 278.315 110.179 278.103 107.596C277.96 106.337 278.04 105.063 278.34 103.833C278.714 102.483 279.449 101.272 279.975 99.9854C282.149 94.6757 279.025 89.6647 278.483 84.3964C277.871 78.4957 279.839 72.6999 281.946 67.2854C283.017 64.5305 284.142 61.7946 285.244 59.0524C286.141 56.8281 286.923 52.977 289.452 52.0396C291.781 51.1753 295.031 51.9729 297.331 52.5893C299.863 53.2717 302.273 54.3436 304.476 55.7668C306.65 57.1681 308.528 59.0492 310.883 60.1582C312 60.6575 313.18 61.0028 314.39 61.1845C315.657 61.4038 317.222 61.5531 318.132 62.5826C319.041 63.6122 318.278 64.6035 317.815 65.6521C317.378 66.6054 317.112 67.654 317.498 68.6867C318.236 70.6567 321.088 71.5464 322.907 72.1248C325.061 72.792 327.447 72.7603 329.303 71.3336C330.042 70.7929 330.609 70.049 330.935 69.1919C331.211 68.4325 330.935 66.4275 331.673 66.1065C332.773 65.6267 333.368 67.0916 333.232 67.8764C333.001 69.2364 331.854 70.1833 330.739 70.8379C328.749 72.0104 326.62 72.7634 324.795 74.2219C318.398 79.306 316.478 88.5876 318.458 96.274C319.073 98.6794 320.429 100.837 320.993 103.246C321.592 105.835 320.083 107.92 317.888 109.124C315.423 110.478 312.467 110.439 309.736 110.525C307.518 110.595 304.983 110.617 304.559 113.309C304.429 114.129 304.844 115.533 304.391 116.232C303.938 116.931 302.784 116.887 302.068 116.944C300.345 117.087 298.482 117.182 297.129 118.406C295.614 119.775 295.456 121.809 295.545 123.731C295.633 125.917 295.782 127.786 294.417 129.632C293.184 131.3 291.521 132.625 290.478 134.443C289.173 136.718 289.591 138.913 289.765 141.401C290.142 146.803 284.623 150.073 282.431 154.483C281.372 156.619 280.923 158.881 281.566 161.21C282.035 162.907 284.671 162.186 284.199 160.482C282.637 154.839 289.648 150.632 291.676 146.025C292.154 144.911 292.421 143.718 292.465 142.507C292.528 141.023 292.101 139.568 292.148 138.087C292.211 135.621 294.261 133.985 295.741 132.256C297.221 130.528 298.174 128.806 298.301 126.537C298.402 124.811 297.404 121.342 299.188 120.226C300.772 119.241 303.044 119.854 304.768 119.197C306.878 118.396 307.223 116.534 307.201 114.494C307.201 113.461 307.518 113.414 308.522 113.293C309.2 113.21 309.907 113.248 310.591 113.226C312.183 113.2 313.771 113.061 315.344 112.81C317.748 112.378 320.118 111.326 321.791 109.496C322.59 108.645 323.178 107.618 323.508 106.498C323.838 105.377 323.901 104.195 323.692 103.045C323.246 100.424 321.712 98.1074 321.056 95.5336C319.916 91.116 320.264 86.4443 322.045 82.2452C322.913 80.236 324.185 78.4275 325.78 76.9324C327.643 75.2133 329.95 74.4507 332.098 73.1892C334.094 72.0167 335.935 70.0594 335.995 67.6031C336.044 66.6148 335.73 65.6426 335.113 64.8703C334.496 64.0981 333.619 63.5793 332.646 63.412C330.745 63.0593 328.983 64.1015 328.603 66.0398C328.334 67.4157 328.679 68.6263 327.228 69.4016C325.92 70.1039 324.421 69.7766 323.09 69.2936C322.354 69.0204 321.636 68.702 320.939 68.3403C320.198 67.9622 319.903 67.6508 320.239 66.8501C320.685 65.7856 321.332 64.826 321.335 63.628C321.335 61.3243 319.405 59.6974 317.381 59.0206C315.996 58.5599 314.51 58.5345 313.119 58.0991C311.675 57.6479 310.42 56.755 309.222 55.8526C306.954 54.1463 304.736 52.5353 302.122 51.385C299.639 50.291 297.012 49.5591 294.322 49.2116C291.872 48.8938 289.072 48.7286 286.971 50.2665C284.87 51.8044 284.119 54.5657 283.188 56.8694C281.965 59.9072 280.726 62.9385 279.528 65.9858C277.279 71.7053 275.178 77.8443 275.726 84.0977C275.986 87.0623 276.994 89.8173 277.627 92.7088C277.992 94.0738 278.118 95.4918 278.001 96.9C277.811 98.4887 277 99.8742 276.366 101.323C275.258 103.849 275.169 106.379 275.536 109.086C275.917 111.866 276.728 114.739 276.208 117.557C275.673 120.458 274.586 122.959 275.166 125.965C275.717 128.853 277.314 131.405 278.09 134.226C278.888 137.141 278.945 140.209 278.258 143.152C277.902 144.62 277.378 146.041 276.696 147.388C276.103 148.583 275.463 149.78 275.296 151.118C275.128 152.456 275.546 153.447 276.008 154.655C276.541 156.05 276.129 157.422 276.221 158.862C276.344 160.8 277.526 163.148 279.779 162.993C281.813 162.862 283.106 160.816 282.206 158.992C281.429 157.403 279.072 158.798 279.848 160.374L279.855 160.39Z" fill="#B7B7B7"/>
<rect x="6.5" y="2.5" width="349" height="207" rx="12.5" stroke="white" stroke-width="5"/>
</g>
<defs>
<filter id="filter0_d" x="0" y="0" width="362" height="220.002" filterUnits="userSpaceOnUse" color-interpolation-filters="sRGB">
<feFlood flood-opacity="0" result="BackgroundImageFix"/>
<feColorMatrix in="SourceAlpha" type="matrix" values="0 0 0 0 0 0 0 0 0 0 0 0 0 0 0 0 0 0 127 0" result="hardAlpha"/>
<feOffset dy="4"/>
<feGaussianBlur stdDeviation="2"/>
<feComposite in2="hardAlpha" operator="out"/>
<feColorMatrix type="matrix" values="0 0 0 0 0 0 0 0 0 0 0 0 0 0 0 0 0 0 0.25 0"/>
<feBlend mode="normal" in2="BackgroundImageFix" result="effect1_dropShadow"/>
<feBlend mode="normal" in="SourceGraphic" in2="effect1_dropShadow" result="shape"/>
</filter>
<linearGradient id="paint0_linear" x1="92.7519" y1="232.083" x2="299.194" y2="30.2134" gradientUnits="userSpaceOnUse">
<stop stop-color="white" stop-opacity="0"/>
<stop offset="1" stop-color="#50A7CB"/>
</linearGradient>
</defs>
</svg>
