<svg width="120" height="120" viewBox="0 0 120 120" fill="none" xmlns="http://www.w3.org/2000/svg">
<path d="M102.443 17.651C125.865 41.0779 125.85 79.0452 102.41 102.454C78.9688 125.862 40.9791 125.847 17.5568 102.42C-5.85228 79.0064 -5.85228 41.0648 17.5568 17.651C40.8456 -5.77597 78.7273 -5.89888 102.168 17.3761C102.26 17.4674 102.352 17.5591 102.443 17.651H102.443Z" fill="#E63A40"/>
<path d="M93.7144 38.0378L72.1243 60.0006L93.7144 81.9629L82.1619 93.7147L60.5718 71.7522L38.9816 93.7147L27.4287 81.9629L49.0192 60.0006L27.4287 38.0378L38.9816 26.2861L60.5718 48.2485L82.1619 26.2861L93.7144 38.0378Z" fill="#F3F4FA"/>
</svg>
