<svg id="Icon_96" data-name="Icon 96" xmlns="http://www.w3.org/2000/svg" width="14.395" height="14.395" viewBox="0 0 14.395 14.395">
  <g id="Group_1546" data-name="Group 1546">
    <g id="Group_1545" data-name="Group 1545">
      <path id="Path_7496" data-name="Path 7496" d="M7.2,2.558A4.639,4.639,0,1,0,11.836,7.2,4.644,4.644,0,0,0,7.2,2.558Zm3.772,4.217H9.3a8.366,8.366,0,0,0-.516-2.717q-.082-.206-.175-.386a3.805,3.805,0,0,1,2.363,3.1Zm-7.544.843H5.1a8.366,8.366,0,0,0,.516,2.717q.082.206.175.386a3.805,3.805,0,0,1-2.363-3.1Zm2.188-3.56A8.364,8.364,0,0,0,5.1,6.776H3.425a3.805,3.805,0,0,1,2.363-3.1Q5.7,3.853,5.613,4.059ZM8,10.023c-.236.589-.55.97-.8.97s-.566-.381-.8-.97a7.474,7.474,0,0,1-.455-2.4H8.454A7.475,7.475,0,0,1,8,10.023ZM5.941,6.776a7.474,7.474,0,0,1,.455-2.4c.236-.589.55-.97.8-.97s.566.381.8.97a7.474,7.474,0,0,1,.455,2.4Zm2.665,3.946q.093-.179.175-.386A8.364,8.364,0,0,0,9.3,7.619h1.671a3.805,3.805,0,0,1-2.363,3.1ZM14.395,7.2A7.213,7.213,0,0,0,7.2,0,7.158,7.158,0,0,0,4.509.549a.422.422,0,1,0,.316.782A6.3,6.3,0,0,1,13.551,7.2a6.243,6.243,0,0,1-1.141,3.586,1.264,1.264,0,1,0,.649.543A7.084,7.084,0,0,0,14.395,7.2Zm-2.128,5.069a.422.422,0,1,1,0-.6A.422.422,0,0,1,12.267,12.267Zm-2.7.8A6.3,6.3,0,0,1,.843,7.2,6.243,6.243,0,0,1,1.985,3.611a1.264,1.264,0,1,0-.649-.543A7.084,7.084,0,0,0,0,7.2a7.213,7.213,0,0,0,7.2,7.2,7.158,7.158,0,0,0,2.689-.549.422.422,0,1,0-.316-.782ZM2.128,2.128a.422.422,0,1,1,0,.6A.422.422,0,0,1,2.128,2.128Z" transform="translate(0)" fill="#fff"/>
    </g>
  </g>
</svg>
