<svg width="65" height="50" viewBox="0 0 65 50" fill="none" xmlns="http://www.w3.org/2000/svg">
<path d="M9.73378 45.6197C9.99584 45.2605 10.3694 45.0005 10.7947 44.8814C11.22 44.7623 11.6726 44.7909 12.0799 44.9627C12.467 45.1214 12.7907 45.4064 12.9995 45.7724C13.2084 46.1384 13.2904 46.5645 13.2327 46.983C13.1918 47.8038 13.1918 48.6261 13.2327 49.4469C13.2327 49.9314 12.9648 49.8493 12.6807 49.8575C12.3965 49.8657 12.1124 49.9068 12.1367 49.4469C12.1367 48.6913 12.1367 47.9357 12.1367 47.1801C12.1367 46.2767 11.7471 45.8497 11.0246 45.8661C10.3021 45.8825 9.93673 46.326 9.92861 47.213C9.92861 47.9686 9.92861 48.7241 9.92861 49.4715C9.92861 49.9807 9.62012 49.8329 9.36034 49.8493C9.10056 49.8657 8.84078 49.9068 8.85702 49.4715C8.85702 48.6502 8.85702 47.8289 8.85702 47.0077C8.85702 46.1864 8.53229 45.8579 7.89908 45.8579C7.74313 45.8454 7.5864 45.8684 7.4404 45.9252C7.2944 45.9821 7.16283 46.0713 7.05538 46.1863C6.94792 46.3013 6.8673 46.4392 6.81943 46.5899C6.77157 46.7405 6.75767 46.9001 6.77878 47.0569C6.77878 47.8289 6.77878 48.6092 6.77878 49.3812C6.77878 49.8082 6.64889 49.915 6.25922 49.8904C5.86955 49.8657 5.68283 49.8904 5.69907 49.414C5.69907 48.0918 5.69907 46.7613 5.69907 45.4308C5.69907 45.2748 5.58541 45.0037 5.84519 44.9955C6.10497 44.9873 6.50276 44.8148 6.73007 45.1269C6.81937 45.2419 6.73007 45.4062 6.98173 45.2583C8.1751 44.5931 8.8489 44.6752 9.73378 45.6197Z" fill="#FAFAFA"/>
<path d="M56.3132 45.5055V43.7151C56.3132 43.3784 56.1995 43.0334 56.7922 43.0416C57.3848 43.0499 57.3198 43.2962 57.3198 43.6905C57.3198 45.4316 57.3198 47.1809 57.3198 48.9302C57.3198 49.694 57.0601 49.8911 56.3376 49.6201C56.1833 49.5544 56.0859 49.4476 55.8829 49.5544C55.4642 49.8055 54.9722 49.9019 54.4911 49.827C54.0099 49.7521 53.5693 49.5106 53.2445 49.1438C52.8919 48.7897 52.6501 48.3385 52.549 47.8464C52.448 47.3542 52.4922 46.8429 52.6763 46.376C52.7915 46.0141 52.9971 45.6884 53.2731 45.4305C53.5492 45.1725 53.8864 44.9909 54.2521 44.9034C54.6178 44.8158 54.9997 44.8253 55.3608 44.9307C55.7218 45.0362 56.0499 45.2342 56.3132 45.5055ZM56.37 47.4109C56.3922 47.212 56.3719 47.0107 56.3105 46.8205C56.2491 46.6304 56.1479 46.4558 56.014 46.3086C55.88 46.1614 55.7164 46.045 55.5341 45.9674C55.3518 45.8898 55.1552 45.8527 54.9575 45.8586C54.7605 45.8553 54.5651 45.8942 54.3841 45.9728C54.2031 46.0513 54.0405 46.1677 53.9071 46.3143C53.7737 46.4609 53.6725 46.6344 53.61 46.8234C53.5476 47.0124 53.5254 47.2126 53.5449 47.4109C53.5262 47.6092 53.5497 47.8092 53.6138 47.9976C53.6778 48.186 53.781 48.3583 53.9163 48.503C54.0517 48.6477 54.216 48.7614 54.3984 48.8365C54.5808 48.9116 54.777 48.9464 54.9737 48.9385C55.1736 48.9581 55.3754 48.9314 55.5636 48.8604C55.7518 48.7895 55.9216 48.6761 56.0601 48.5289C56.1986 48.3816 56.3021 48.2045 56.3628 48.0108C56.4236 47.8171 56.4399 47.6119 56.4106 47.4109H56.37Z" fill="#F8F8F8"/>
<path d="M46.889 45.5522C46.6942 44.8623 47.0839 44.9608 47.4411 44.928C47.7983 44.8951 47.8551 45.1662 47.8551 45.47C47.8551 46.6363 47.8551 47.8107 47.8551 48.9851C47.8551 49.6832 47.6521 49.905 47.0433 49.6422C46.8906 49.5838 46.727 49.5602 46.5643 49.573C46.4015 49.5857 46.2436 49.6346 46.1016 49.7161C45.5992 49.8841 45.0543 49.8675 44.5628 49.6692C44.0714 49.4709 43.6647 49.1036 43.4145 48.632C43.1359 48.0994 43.039 47.4886 43.1388 46.8945C43.2387 46.3005 43.5296 45.7564 43.9665 45.3468C44.39 45.0031 44.9259 44.8334 45.4675 44.8715C46.009 44.9095 46.5166 45.1525 46.889 45.5522ZM46.889 47.4165C46.8716 47.1384 46.7742 46.8715 46.6088 46.6487C46.4434 46.4258 46.2172 46.2568 45.958 46.1624C45.6989 46.0679 45.4181 46.0522 45.1502 46.1171C44.8823 46.182 44.6391 46.3248 44.4504 46.5278C44.2616 46.7308 44.1357 46.9851 44.0881 47.2596C44.0404 47.5341 44.0731 47.8166 44.1821 48.0725C44.2912 48.3284 44.4718 48.5465 44.7018 48.6999C44.9317 48.8533 45.201 48.9353 45.4765 48.9359C45.675 48.9539 45.875 48.9263 46.0615 48.8552C46.248 48.7841 46.4162 48.6713 46.5536 48.5252C46.691 48.3792 46.7939 48.2036 46.8548 48.0116C46.9157 47.8196 46.933 47.6162 46.9053 47.4165H46.889Z" fill="#F7F7F7"/>
<path d="M19.0055 47.2762C19.0055 47.9004 19.0055 48.5164 19.0055 49.1324C19.0055 49.313 19.1272 49.6169 18.8756 49.6498C18.6239 49.6826 18.1693 49.8551 17.9907 49.5266C17.8121 49.1981 17.8365 49.3705 17.6985 49.4609C17.3304 49.728 16.8861 49.8661 16.4333 49.8543C15.9805 49.8424 15.5439 49.6812 15.19 49.3952C14.8074 49.126 14.5117 48.7487 14.3399 48.3105C14.1681 47.8723 14.1277 47.3926 14.2239 46.9313C14.2462 46.5377 14.3703 46.1569 14.5838 45.827C14.7973 45.4972 15.0927 45.2299 15.4405 45.0519C15.7882 44.8739 16.1761 44.7915 16.5653 44.8129C16.9544 44.8343 17.3312 44.9587 17.6579 45.1738C17.739 45.1738 17.8771 45.4366 17.9339 45.223C18.0962 44.6235 18.559 44.9438 18.835 44.9602C19.111 44.9767 18.9892 45.3873 19.0055 45.6173C19.0298 46.1757 19.0055 46.726 19.0055 47.2762ZM17.9501 47.4077C17.9749 47.2097 17.9569 47.0087 17.8974 46.8185C17.838 46.6283 17.7385 46.4534 17.6057 46.3058C17.473 46.1583 17.3102 46.0416 17.1286 45.9639C16.947 45.8861 16.7509 45.8491 16.5538 45.8554C16.357 45.8538 16.162 45.8934 15.981 45.9716C15.8 46.0498 15.637 46.165 15.5021 46.31C15.3672 46.455 15.2633 46.6266 15.197 46.814C15.1307 47.0015 15.1035 47.2008 15.1169 47.3994C15.1076 47.6043 15.1407 47.8089 15.2142 48.0001C15.2877 48.1912 15.4 48.3647 15.5437 48.5094C15.6875 48.654 15.8595 48.7666 16.0489 48.84C16.2382 48.9133 16.4406 48.9458 16.6431 48.9352C17.4549 48.9188 17.9501 48.3603 17.9501 47.4077Z" fill="#F7F7F7"/>
<path d="M30.481 47.8776C30.481 48.9288 31.8854 49.2081 32.7297 48.7728C32.9164 48.6824 33.0869 48.4114 33.3386 48.7728C33.5903 49.1341 33.6958 49.438 33.1762 49.6516C32.7109 49.9019 32.1861 50.0168 31.6601 49.9834C31.1342 49.9501 30.6276 49.7698 30.1969 49.4627C29.8005 49.1387 29.5107 48.7007 29.3657 48.2065C29.2207 47.7123 29.2275 47.1852 29.3851 46.6949C29.4888 46.1804 29.7763 45.7226 30.1926 45.409C30.6089 45.0954 31.1249 44.9479 31.6419 44.9949C32.1602 44.9622 32.6718 45.127 33.0759 45.4569C33.4801 45.7867 33.7476 46.2577 33.8257 46.7771C34.0936 47.9104 34.0936 47.9104 33.0139 47.9104L30.481 47.8776ZM30.4404 46.9413C31.1629 46.9413 31.8205 46.9413 32.4699 46.9413C32.9895 46.9413 32.884 46.7196 32.7216 46.4403C32.6024 46.2253 32.4184 46.0543 32.1964 45.9524C31.9745 45.8505 31.7262 45.8229 31.4877 45.8737C30.8707 45.9311 30.5947 46.3089 30.4404 46.9413Z" fill="#F6F6F6"/>
<path d="M22.1691 44.9385C22.6051 44.9116 23.0424 44.9645 23.4599 45.0945C24.0119 45.2341 24.0687 45.5462 23.8414 46.0143C23.7196 46.2607 23.6141 46.3018 23.3462 46.1786C22.8444 45.9201 22.265 45.8615 21.7226 46.0143C21.5115 46.0882 21.2923 46.2114 21.3167 46.466C21.341 46.7206 21.5277 46.7699 21.7469 46.811C22.2005 46.8776 22.6503 46.968 23.0945 47.082C23.3984 47.1359 23.6751 47.293 23.8788 47.5275C24.0824 47.7619 24.201 48.0596 24.2148 48.3714C24.2258 48.7001 24.1244 49.0225 23.9277 49.2843C23.731 49.5462 23.4511 49.7313 23.1351 49.8086C22.6789 49.9678 22.1948 50.0288 21.714 49.9878C21.2331 49.9468 20.7659 49.8046 20.3425 49.5705C20.1639 49.4801 19.8148 49.4062 20.0908 49.0695C20.2532 48.8724 20.2938 48.4371 20.7565 48.7246C21.2286 49.0132 21.7884 49.1183 22.3314 49.0202C22.648 48.9709 23.0296 48.9381 23.0621 48.5028C23.0945 48.0675 22.6968 48.0183 22.3883 47.9443C22.0798 47.8704 21.7469 47.8458 21.4222 47.7719C20.5211 47.5748 20.1477 47.1313 20.1801 46.3511C20.198 45.9808 20.3519 45.6308 20.6118 45.3694C20.8716 45.1081 21.2185 44.9544 21.5846 44.9385C21.7794 44.922 21.9742 44.9385 22.1691 44.9385Z" fill="#F6F6F6"/>
<path d="M27.3785 49.8737C26.2988 49.8737 25.8686 49.4795 25.8036 48.3872C25.7671 47.769 25.7671 47.1492 25.8036 46.5311C25.8036 46.063 25.7387 45.8084 25.211 45.9069C24.6833 46.0055 24.7564 45.7427 24.7564 45.4141C24.7564 45.0856 24.8538 44.8803 25.2272 44.946C25.6007 45.0117 25.8604 44.8475 25.7955 44.3793C25.7465 44.1631 25.7465 43.9385 25.7955 43.7223C25.9173 43.3692 26.242 43.5745 26.4774 43.5334C26.7128 43.4923 26.7615 43.7141 26.7778 43.9276C26.8427 44.9378 26.8508 44.9296 27.8737 44.946C28.1579 44.946 28.5638 44.7735 28.5313 45.3731C28.5313 45.7344 28.4176 45.8576 28.0361 45.8658C26.7697 45.8658 26.7697 45.8658 26.7697 47.1799V47.7137C26.7697 48.7321 27.0294 48.9457 27.9955 48.6828C28.3202 48.5925 28.4258 48.6828 28.4988 48.9785C28.5719 49.2742 28.8154 49.5041 28.3852 49.6848C28.0726 49.8386 27.7248 49.9039 27.3785 49.8737Z" fill="#F9F9F9"/>
<path d="M40.8206 49.8984C40.2999 49.949 39.7774 49.8222 39.3361 49.5379C38.8949 49.2537 38.5601 48.8285 38.3852 48.3298C38.2092 47.8382 38.1785 47.3054 38.2967 46.7965C38.4149 46.2875 38.6769 45.8243 39.0508 45.4635C39.4816 45.1409 39.9936 44.9482 40.528 44.9075C41.0624 44.8668 41.5972 44.9798 42.0708 45.2335C42.2169 45.3239 42.5579 45.3813 42.2819 45.6934C42.0058 46.0055 42.087 46.3422 41.5756 46.0794C41.2917 45.8869 40.9516 45.7975 40.611 45.8258C40.2703 45.8542 39.9493 45.9986 39.7003 46.2355C39.4877 46.4607 39.3428 46.7424 39.2824 47.0478C39.222 47.3531 39.2487 47.6696 39.3593 47.9602C39.6516 48.8554 40.4796 49.1675 41.5106 48.7815C41.7461 48.6829 41.9165 48.5186 42.1601 48.8554C42.4036 49.1921 42.3468 49.4878 41.9328 49.6767C41.5832 49.8341 41.2031 49.9099 40.8206 49.8984Z" fill="#F6F6F6"/>
<path d="M35.0179 47.4506V45.7177C35.0179 45.0771 35.3346 44.7978 35.8298 45.1099C35.92 45.1854 36.0334 45.2267 36.1504 45.2267C36.2675 45.2267 36.3809 45.1854 36.4711 45.1099C36.7028 44.9781 36.9715 44.929 37.2342 44.9703C37.5021 44.9703 37.9405 44.8718 37.8836 45.3481C37.8836 45.6766 37.8268 46.1694 37.1774 45.9887C36.5279 45.808 36.0814 46.2104 36.0246 46.925C35.9701 47.745 35.9566 48.5674 35.984 49.3888C35.984 49.7994 35.9191 49.9719 35.4563 49.9719C34.9936 49.9719 34.9611 49.7912 34.9692 49.4217C35.0342 48.6989 35.0179 48.0912 35.0179 47.4506Z" fill="#FBFBFB"/>
<path d="M49.2208 47.4506C49.2208 46.8757 49.2208 46.2926 49.2208 45.7177C49.2208 45.1428 49.5293 44.7978 50.0326 45.1099C50.1229 45.1854 50.2363 45.2267 50.3533 45.2267C50.4704 45.2267 50.5838 45.1854 50.674 45.1099C50.9057 44.9781 51.1744 44.929 51.4371 44.9703C51.705 44.9703 52.1515 44.8718 52.0865 45.3481C52.0865 45.6684 52.0378 46.1694 51.3803 45.9887C50.7227 45.808 50.2843 46.2104 50.2275 46.925C50.1707 47.6395 50.1788 48.5183 50.2275 49.3149C50.2275 49.7009 50.2275 49.9637 49.6998 49.9637C49.1721 49.9637 49.2127 49.7009 49.2208 49.3477C49.2208 48.6989 49.2208 48.0666 49.2208 47.4506Z" fill="#FBFBFB"/>
<path d="M32.5537 36.8042C30.2313 38.5418 27.6042 39.818 24.8118 40.5652C22.2096 41.1622 19.5167 41.2348 16.8869 40.779C14.257 40.3231 11.7416 39.3477 9.48432 37.9084C7.22706 36.4691 5.27212 34.5941 3.73113 32.3905C2.19014 30.1868 1.09327 27.6977 0.503155 25.0652C-0.0869625 22.4328 -0.158774 19.7085 0.291821 17.0479C0.742417 14.3873 1.70659 11.8426 3.1293 9.55903C4.55201 7.27544 6.40539 5.29771 8.58362 3.73874C10.7619 2.17978 13.2223 1.07012 15.8244 0.473115C18.5864 -0.141976 21.446 -0.157487 24.2143 0.427604C26.9827 1.0127 29.597 2.18509 31.8845 3.8674C32.0983 4.02724 32.2656 4.28111 32.5816 4.28111C32.5816 4.41275 32.5816 4.54438 32.5816 4.68542C30.9897 5.87682 29.6127 7.33674 28.5108 9.00114C27.0159 11.1313 25.9537 13.5404 25.3857 16.0889C24.8178 18.6374 24.7554 21.2746 25.2021 23.8476C25.9519 28.8917 28.62 33.4399 32.6374 36.5221L32.5537 36.8042Z" fill="#CECCCC"/>
<path d="M32.3248 37.1597V36.8776C33.2716 36.0921 34.1543 35.2305 34.9643 34.3014C36.7447 32.2597 38.0968 29.8737 38.9388 27.2877C39.7807 24.7018 40.0949 21.9698 39.8622 19.2574C39.6523 16.1944 38.7321 13.2246 37.1763 10.5884C35.9499 8.40209 34.2884 6.4971 32.2969 4.99391C32.2969 4.85287 32.2969 4.72123 32.2969 4.5896C34.3618 3.06228 36.6687 1.90174 39.1187 1.1577C42.4086 0.201393 45.8842 0.103078 49.2217 0.871917C52.5592 1.64076 55.6501 3.25173 58.2063 5.55476C60.7625 7.85778 62.701 10.7779 63.841 14.0431C64.981 17.3083 65.2855 20.8123 64.7262 24.2286C64.1668 27.6449 62.7618 30.8625 60.642 33.5814C58.5222 36.3003 55.7566 38.4322 52.6029 39.7784C49.4492 41.1246 46.01 41.6414 42.6057 41.2805C39.2013 40.9196 35.9427 39.6928 33.1333 37.7145L32.3248 37.1597Z" fill="#F9F9F9"/>
<path d="M32.5456 4.49756C34.6238 6.02477 36.3575 7.96021 37.6372 10.1814C39.2608 12.8597 40.221 15.8771 40.44 18.989C40.6828 21.7448 40.355 24.5204 39.4764 27.1476C38.5979 29.7749 37.1869 32.1991 35.329 34.2733C34.4838 35.2173 33.5627 36.0926 32.5747 36.8908C28.3825 33.7593 25.5984 29.1384 24.816 24.0137C24.3473 21.3902 24.4138 18.701 25.0116 16.103C25.6093 13.5051 26.7265 11.0504 28.2977 8.88225C29.4475 7.19125 30.8845 5.708 32.5456 4.49756Z" fill="#EBE9E8"/>
</svg>
