<svg xmlns="http://www.w3.org/2000/svg" xmlns:xlink="http://www.w3.org/1999/xlink" width="331.033" height="307.916" viewBox="0 0 331.033 307.916">
  <defs>
    <filter id="Rectangle_718" x="0" y="0" width="331.033" height="307.916" filterUnits="userSpaceOnUse">
      <feOffset dy="3" input="SourceAlpha"/>
      <feGaussianBlur stdDeviation="5.5" result="blur"/>
      <feFlood flood-opacity="0.463"/>
      <feComposite operator="in" in2="blur"/>
      <feComposite in="SourceGraphic"/>
    </filter>
    <linearGradient id="linear-gradient" x1="-0.055" y1="0.609" x2="0.918" y2="-0.307" gradientUnits="objectBoundingBox">
      <stop offset="0" stop-color="#ec631e"/>
      <stop offset="1" stop-color="#fff"/>
      <stop offset="1"/>
    </linearGradient>
  </defs>
  <g id="Group_1625" data-name="Group 1625" transform="translate(-41.484 -169.451)">
    <g id="Group_1597" data-name="Group 1597">
      <g id="Group_1596" data-name="Group 1596">
        <g id="Group_1512" data-name="Group 1512" transform="matrix(0.574, 0.819, -0.819, 0.574, 265.033, 182.949)">
          <g transform="matrix(0.57, -0.82, 0.82, 0.57, -139.28, 175.38)" filter="url(#Rectangle_718)">
            <rect id="Rectangle_718-2" data-name="Rectangle 718" width="252.762" height="158.625" rx="9" transform="matrix(-0.82, 0.57, -0.57, -0.82, 314.53, 143.44)" fill="#ec631e"/>
          </g>
          <path id="Intersection_2" data-name="Intersection 2" d="M8,158.263a8,8,0,0,1-8-8V8A8,8,0,0,1,8,0H163.11L69.08,158.263Z" transform="translate(158.263 0) rotate(90)" opacity="0.208" fill="url(#linear-gradient)"/>
        </g>
        <g id="Group_1440" data-name="Group 1440" transform="matrix(0.574, 0.819, -0.819, 0.574, 306.679, 281.688)">
          <path id="Shape" d="M48.8,38.866a.908.908,0,0,0,.644-.281,16.609,16.609,0,0,0,0-23.452.911.911,0,1,0-1.289,1.289,14.767,14.767,0,0,1,0,20.874.908.908,0,0,0,.644,1.57Z" transform="translate(-41.556 -14.866)" fill="#fff"/>
          <path id="Shape-2" data-name="Shape" d="M45.306,36.023a.908.908,0,0,0,.644-.263,12.116,12.116,0,0,0,0-17.117.908.908,0,1,0-1.28,1.289,10.283,10.283,0,0,1,0,14.521.908.908,0,0,0,.635,1.57Z" transform="translate(-41.235 -15.19)" fill="#fff"/>
          <path id="Shape-3" data-name="Shape" d="M41.183,32.875a.908.908,0,0,0,1.28,0,7.624,7.624,0,0,0,0-10.782.908.908,0,1,0-1.28,1.289,5.827,5.827,0,0,1,0,8.214.908.908,0,0,0,0,1.28Z" transform="translate(-40.914 -15.51)" fill="#fff"/>
        </g>
        <g id="visa-seeklogo.com" transform="matrix(0.574, 0.819, -0.819, 0.574, 146.965, 377.918)">
          <path id="Path_7281" data-name="Path 7281" d="M25.706-77.537c-.028,2.236,1.993,3.484,3.515,4.225,1.564.761,2.09,1.249,2.084,1.93-.012,1.042-1.248,1.5-2.4,1.519a8.391,8.391,0,0,1-4.124-.981l-.727,3.4a12.093,12.093,0,0,0,4.466.824c4.218,0,6.978-2.082,6.993-5.311.016-4.1-5.667-4.324-5.628-6.155.013-.555.543-1.148,1.7-1.3a7.56,7.56,0,0,1,3.96.694l.706-3.291a10.764,10.764,0,0,0-3.758-.69c-3.97,0-6.763,2.11-6.785,5.131m17.327-4.848a1.83,1.83,0,0,0-1.709,1.139L35.3-66.859h4.215l.839-2.318H45.5l.487,2.318h3.715L46.463-82.385h-3.43m.59,4.194,1.216,5.83H41.508l2.115-5.83M20.6-82.385,17.273-66.859H21.29l3.321-15.526H20.6m-5.942,0L10.473-71.818,8.782-80.8A1.872,1.872,0,0,0,6.93-82.385H.1l-.1.451a16.722,16.722,0,0,1,3.963,1.321,1.7,1.7,0,0,1,.954,1.364l3.2,12.39h4.245l6.508-15.526H14.654" transform="translate(0 82.668)" fill="#fff"/>
        </g>
        <g id="Group_1513" data-name="Group 1513" transform="matrix(0.574, 0.819, -0.819, 0.574, 179.228, 262.035)">
          <g id="Group_1442" data-name="Group 1442" transform="translate(0 0)">
            <path id="Path_7364" data-name="Path 7364" d="M235.544-263.766a4.248,4.248,0,0,1-1.66-1.668,4.906,4.906,0,0,1-.593-2.422,4.94,4.94,0,0,1,.593-2.439,4.248,4.248,0,0,1,1.66-1.668,4.841,4.841,0,0,1,2.421-.6,4.767,4.767,0,0,1,2.4.6,4.328,4.328,0,0,1,1.659,1.668,4.879,4.879,0,0,1,.6,2.439,4.906,4.906,0,0,1-.593,2.422,4.272,4.272,0,0,1-1.652,1.668,4.8,4.8,0,0,1-2.414.6A4.84,4.84,0,0,1,235.544-263.766Zm3.971-1.33a2.808,2.808,0,0,0,1.067-1.127,3.435,3.435,0,0,0,.381-1.634,3.488,3.488,0,0,0-.381-1.643,2.8,2.8,0,0,0-1.067-1.134,2.986,2.986,0,0,0-1.55-.407,2.985,2.985,0,0,0-1.55.407,2.864,2.864,0,0,0-1.076,1.134,3.43,3.43,0,0,0-.389,1.643,3.378,3.378,0,0,0,.389,1.634,2.877,2.877,0,0,0,1.076,1.127,2.984,2.984,0,0,0,1.55.406A2.985,2.985,0,0,0,239.515-265.1Z" transform="translate(-233.291 272.581)" fill="#fff"/>
            <path id="Path_7365" data-name="Path 7365" d="M252.9-271.946a4.458,4.458,0,0,1,1.685,1.694,4.775,4.775,0,0,1,.609,2.4,5.057,5.057,0,0,1-.567,2.4,4.272,4.272,0,0,1-1.558,1.685,4.133,4.133,0,0,1-2.21.61,4.161,4.161,0,0,1-1.829-.407,4.145,4.145,0,0,1-1.44-1.134v4.573a.849.849,0,0,1-.237.626.848.848,0,0,1-.627.237.854.854,0,0,1-.618-.237.831.831,0,0,1-.245-.626v-7.723a4.719,4.719,0,0,1,.618-2.4,4.555,4.555,0,0,1,1.676-1.694,4.605,4.605,0,0,1,2.363-.618A4.7,4.7,0,0,1,252.9-271.946Zm-.847,6.842a2.98,2.98,0,0,0,1.083-1.134,3.28,3.28,0,0,0,.4-1.617,3.333,3.333,0,0,0-.4-1.626,2.973,2.973,0,0,0-1.083-1.143,2.908,2.908,0,0,0-1.533-.415,2.908,2.908,0,0,0-1.533.415,2.916,2.916,0,0,0-1.076,1.143,3.4,3.4,0,0,0-.39,1.626,3.342,3.342,0,0,0,.39,1.617,2.922,2.922,0,0,0,1.076,1.134,2.9,2.9,0,0,0,1.533.415A2.9,2.9,0,0,0,252.057-265.1Z" transform="translate(-234.808 272.581)" fill="#fff"/>
            <path id="Path_7366" data-name="Path 7366" d="M266.473-267.475a.772.772,0,0,1-.559.212h-6.436a2.982,2.982,0,0,0,1.076,1.914,3.323,3.323,0,0,0,2.177.728,3.3,3.3,0,0,0,1.058-.186,3.178,3.178,0,0,0,.907-.458.876.876,0,0,1,.558-.186.73.73,0,0,1,.508.169.741.741,0,0,1,.305.576.614.614,0,0,1-.271.508,4.683,4.683,0,0,1-1.432.745,5.1,5.1,0,0,1-1.634.288,5.1,5.1,0,0,1-2.49-.6,4.359,4.359,0,0,1-1.719-1.668,4.74,4.74,0,0,1-.618-2.422,5.01,5.01,0,0,1,.584-2.431,4.23,4.23,0,0,1,1.626-1.676,4.639,4.639,0,0,1,2.363-.6,4.261,4.261,0,0,1,2.252.576,3.8,3.8,0,0,1,1.456,1.608,5.3,5.3,0,0,1,.508,2.372A.706.706,0,0,1,266.473-267.475Zm-6-2.955a3.035,3.035,0,0,0-.974,1.812h5.64a2.994,2.994,0,0,0-.847-1.812,2.482,2.482,0,0,0-1.812-.678A2.925,2.925,0,0,0,260.469-270.43Z" transform="translate(-236.259 272.581)" fill="#fff"/>
            <path id="Path_7367" data-name="Path 7367" d="M276.145-272.075a3.58,3.58,0,0,1,1.456,1.482,4.879,4.879,0,0,1,.525,2.345v4.167a.839.839,0,0,1-.245.618.839.839,0,0,1-.618.245.839.839,0,0,1-.618-.245.839.839,0,0,1-.245-.618v-4.167a2.734,2.734,0,0,0-.737-2.075,2.714,2.714,0,0,0-1.956-.7,2.893,2.893,0,0,0-1.3.288,2.3,2.3,0,0,0-.915.779,1.925,1.925,0,0,0-.331,1.1v4.776a.854.854,0,0,1-.237.618.831.831,0,0,1-.626.245.838.838,0,0,1-.618-.245.839.839,0,0,1-.245-.618v-7.554a.831.831,0,0,1,.245-.626.853.853,0,0,1,.618-.237.846.846,0,0,1,.626.237.846.846,0,0,1,.237.626v.186a3.781,3.781,0,0,1,1.287-.838,4.258,4.258,0,0,1,1.592-.3A4.3,4.3,0,0,1,276.145-272.075Z" transform="translate(-237.65 272.583)" fill="#fff"/>
            <path id="Path_7368" data-name="Path 7368" d="M288.394-271.965a4.509,4.509,0,0,1,1.694,1.7,4.768,4.768,0,0,1,.618,2.405,4.824,4.824,0,0,1-.6,2.4,4.463,4.463,0,0,1-1.643,1.694,4.473,4.473,0,0,1-2.329.618,4.368,4.368,0,0,1-2.016-.466,4.2,4.2,0,0,1-1.507-1.279v4.963a.639.639,0,0,1-.186.474.643.643,0,0,1-.474.186.613.613,0,0,1-.465-.186.658.658,0,0,1-.178-.474v-3.794a.5.5,0,0,1-.018-.152v-3.98a4.768,4.768,0,0,1,.618-2.405,4.5,4.5,0,0,1,1.694-1.7,4.719,4.719,0,0,1,2.4-.618A4.717,4.717,0,0,1,288.394-271.965Zm-.644,7.172a3.279,3.279,0,0,0,1.236-1.262,3.64,3.64,0,0,0,.449-1.8,3.643,3.643,0,0,0-.449-1.8,3.336,3.336,0,0,0-1.236-1.27A3.379,3.379,0,0,0,286-271.4a3.331,3.331,0,0,0-1.744.466,3.354,3.354,0,0,0-1.229,1.27,3.642,3.642,0,0,0-.449,1.8,3.777,3.777,0,0,0,.017.424.183.183,0,0,1,.017.084,3.4,3.4,0,0,0,1.11,2.168,3.282,3.282,0,0,0,2.278.847A3.423,3.423,0,0,0,287.75-264.792Z" transform="translate(-239.079 272.583)" fill="#fff"/>
            <path id="Path_7369" data-name="Path 7369" d="M300.488-271.965a4.508,4.508,0,0,1,1.694,1.7,4.768,4.768,0,0,1,.618,2.405v3.98a.623.623,0,0,1-.186.457.643.643,0,0,1-.474.186.658.658,0,0,1-.474-.179.612.612,0,0,1-.186-.465v-1.017a4.2,4.2,0,0,1-1.507,1.279,4.365,4.365,0,0,1-2.016.466,4.473,4.473,0,0,1-2.329-.618,4.464,4.464,0,0,1-1.643-1.694,4.825,4.825,0,0,1-.6-2.4,4.768,4.768,0,0,1,.618-2.405,4.509,4.509,0,0,1,1.694-1.7,4.719,4.719,0,0,1,2.4-.618A4.717,4.717,0,0,1,300.488-271.965Zm-.652,7.172a3.3,3.3,0,0,0,1.228-1.262,3.64,3.64,0,0,0,.448-1.8,3.642,3.642,0,0,0-.448-1.8,3.359,3.359,0,0,0-1.228-1.27,3.337,3.337,0,0,0-1.745-.466,3.379,3.379,0,0,0-1.753.466,3.336,3.336,0,0,0-1.236,1.27,3.642,3.642,0,0,0-.449,1.8,3.639,3.639,0,0,0,.449,1.8,3.279,3.279,0,0,0,1.236,1.262,3.423,3.423,0,0,0,1.753.457A3.38,3.38,0,0,0,299.836-264.792Z" transform="translate(-240.538 272.583)" fill="#fff"/>
            <path id="Path_7370" data-name="Path 7370" d="M307.166-263.506a3.9,3.9,0,0,1-1.557-1,.617.617,0,0,1-.17-.39.646.646,0,0,1,.271-.508.7.7,0,0,1,.424-.152.624.624,0,0,1,.491.237,2.606,2.606,0,0,0,1.076.728,4.155,4.155,0,0,0,1.482.254,3.161,3.161,0,0,0,1.778-.406,1.284,1.284,0,0,0,.609-1.068,1.2,1.2,0,0,0-.593-1.016,4.736,4.736,0,0,0-1.879-.609,5.276,5.276,0,0,1-2.482-.94,2.02,2.02,0,0,1-.821-1.617,2.209,2.209,0,0,1,.957-1.914,4.051,4.051,0,0,1,2.4-.677,4.625,4.625,0,0,1,1.947.381,3.427,3.427,0,0,1,1.338,1.059.776.776,0,0,1,.135.39.518.518,0,0,1-.271.457.546.546,0,0,1-.322.084.774.774,0,0,1-.593-.254,2.861,2.861,0,0,0-2.27-.948,2.6,2.6,0,0,0-1.491.381,1.129,1.129,0,0,0-.558.957,1.131,1.131,0,0,0,.525.974,4.885,4.885,0,0,0,1.863.584,5.285,5.285,0,0,1,2.592.991,2.176,2.176,0,0,1,.778,1.7,2.226,2.226,0,0,1-.465,1.389,3.024,3.024,0,0,1-1.3.949,4.939,4.939,0,0,1-1.88.339A5.778,5.778,0,0,1,307.166-263.506Z" transform="translate(-241.991 272.583)" fill="#fff"/>
            <path id="Path_7371" data-name="Path 7371" d="M316.583-263.506a3.9,3.9,0,0,1-1.557-1,.617.617,0,0,1-.17-.39.646.646,0,0,1,.271-.508.7.7,0,0,1,.424-.152.624.624,0,0,1,.491.237,2.606,2.606,0,0,0,1.076.728,4.156,4.156,0,0,0,1.482.254,3.161,3.161,0,0,0,1.778-.406,1.287,1.287,0,0,0,.61-1.068,1.2,1.2,0,0,0-.593-1.016,4.746,4.746,0,0,0-1.88-.609,5.268,5.268,0,0,1-2.481-.94,2.02,2.02,0,0,1-.821-1.617,2.209,2.209,0,0,1,.956-1.914,4.052,4.052,0,0,1,2.4-.677,4.624,4.624,0,0,1,1.947.381,3.427,3.427,0,0,1,1.338,1.059.776.776,0,0,1,.135.39.518.518,0,0,1-.271.457.546.546,0,0,1-.322.084.774.774,0,0,1-.593-.254,2.86,2.86,0,0,0-2.27-.948,2.6,2.6,0,0,0-1.491.381,1.129,1.129,0,0,0-.558.957,1.131,1.131,0,0,0,.525.974,4.885,4.885,0,0,0,1.863.584,5.285,5.285,0,0,1,2.592.991,2.177,2.177,0,0,1,.779,1.7,2.226,2.226,0,0,1-.466,1.389,3.024,3.024,0,0,1-1.3.949,4.935,4.935,0,0,1-1.88.339A5.779,5.779,0,0,1,316.583-263.506Z" transform="translate(-243.127 272.583)" fill="#fff"/>
          </g>
        </g>
        <g id="Group_1595" data-name="Group 1595" transform="translate(14.806 19.717)">
          <rect id="Rectangle_762" data-name="Rectangle 762" width="27.076" height="19.98" rx="2" transform="matrix(0.814, -0.581, 0.581, 0.814, 252.048, 249.251)" fill="#80878c" stroke="#373a3b" stroke-miterlimit="10" stroke-width="0.5"/>
          <path id="Path_7524" data-name="Path 7524" d="M-1162.346-284.341s-6,1.19-8.153,6.035" transform="translate(1432.015 525.876)" fill="none" stroke="#373a3b" stroke-miterlimit="10" stroke-width="0.5" opacity="0.73"/>
          <path id="Path_7525" data-name="Path 7525" d="M-1113.488-211.513s-3.315,5.873-8.617,5.965" transform="translate(1390.134 462.851)" fill="none" stroke="#373a3b" stroke-miterlimit="10" stroke-width="0.5" opacity="0.73"/>
          <line id="Line_309" data-name="Line 309" x1="5.973" y2="4.399" transform="translate(260.118 255.78)" fill="none" stroke="#373a3b" stroke-miterlimit="10" stroke-width="0.5" opacity="0.73"/>
          <line id="Line_310" data-name="Line 310" x1="5.973" y2="4.399" transform="translate(256.086 250.085)" fill="none" stroke="#373a3b" stroke-miterlimit="10" stroke-width="0.5" opacity="0.73"/>
          <line id="Line_311" data-name="Line 311" y1="4.283" x2="6.082" transform="translate(272.013 238.788)" fill="none" stroke="#373a3b" stroke-miterlimit="10" stroke-width="0.5" opacity="0.73"/>
          <line id="Line_312" data-name="Line 312" y1="4.229" x2="6.158" transform="translate(276.051 244.552)" fill="none" stroke="#373a3b" stroke-miterlimit="10" stroke-width="0.5" opacity="0.73"/>
          <path id="Path_7526" data-name="Path 7526" d="M-1122.1-311.5s-.189,3.384,3.983,5.191a6.107,6.107,0,0,0,4.038,5.71,6.249,6.249,0,0,0,3.374,5.437" transform="translate(1390.134 549.378)" fill="none" stroke="#373a3b" stroke-miterlimit="10" stroke-width="0.5" opacity="0.73"/>
          <path id="Path_7527" data-name="Path 7527" d="M-1192.83-261.008s3.544,1.683,3.544,5.452c0,0,3.769,1.75,4.038,5.653,0,0,2.713.864,3.578,5.143" transform="translate(1451.34 505.683)" fill="none" stroke="#373a3b" stroke-miterlimit="10" stroke-width="0.5" opacity="0.73"/>
        </g>
      </g>
    </g>
  </g>
</svg>
