<svg xmlns="http://www.w3.org/2000/svg" width="46.006" height="46.006" viewBox="0 0 46.006 46.006">
  <g id="Icon_97" data-name="Icon 97" transform="translate(1 1)">
    <path id="Trazado_134-2" data-name="Trazado 134-2" d="M3327.1,831.922a22,22,0,1,1-22-22h0a22,22,0,0,1,22,22h0" transform="translate(-3283.097 -809.92)" fill="none" stroke="#fff" stroke-width="2"/>
    <path id="Trazado_147-2" data-name="Trazado 147-2" d="M3298.2,847.654a7.449,7.449,0,0,1-2.848-2.868,8.692,8.692,0,0,1,0-8.207,7.479,7.479,0,0,1,2.848-2.859,8.577,8.577,0,0,1,8.185,0,7.46,7.46,0,0,1,2.858,2.859,8.69,8.69,0,0,1,0,8.205,7.435,7.435,0,0,1-2.858,2.868,8.573,8.573,0,0,1-8.185,0m7.386-1.3a6.189,6.189,0,0,0,2.309-2.347,6.977,6.977,0,0,0,0-6.637,6.2,6.2,0,0,0-2.309-2.347,6.754,6.754,0,0,0-6.6,0,6.2,6.2,0,0,0-2.309,2.347,6.978,6.978,0,0,0,0,6.637,6.2,6.2,0,0,0,2.309,2.347,6.758,6.758,0,0,0,6.6,0" transform="translate(-3287.849 -819.553)" fill="#fff"/>
    <path id="Trazado_148-2" data-name="Trazado 148-2" d="M3333.867,841.7a5.315,5.315,0,0,1,2,2.009,5.94,5.94,0,0,1,.02,5.667,5.265,5.265,0,0,1-4.687,2.73,5.161,5.161,0,0,1-2.377-.552,4.944,4.944,0,0,1-1.779-1.509V855.9a.753.753,0,0,1-.725.779h-.054a.726.726,0,0,1-.55-.22.775.775,0,0,1-.209-.56V851.42a.591.591,0,0,1-.021-.18v-4.7a5.623,5.623,0,0,1,.73-2.839,5.3,5.3,0,0,1,2-2.009,5.844,5.844,0,0,1,5.657,0m-.759,8.466a3.876,3.876,0,0,0,1.459-1.489,4.542,4.542,0,0,0,0-4.258,3.94,3.94,0,0,0-1.459-1.5,3.992,3.992,0,0,0-2.07-.55,3.945,3.945,0,0,0-3.51,2.049,4.294,4.294,0,0,0-.529,2.129,4.375,4.375,0,0,0,.02.5.22.22,0,0,1,.02.1,4.013,4.013,0,0,0,1.31,2.559,3.874,3.874,0,0,0,2.688,1,4.047,4.047,0,0,0,2.07-.539" transform="translate(-3301.038 -823.061)" fill="#fff"/>
    <path id="Trazado_149-2" data-name="Trazado 149-2" d="M3326.708,835.144a1.942,1.942,0,1,1-1.941-1.942,1.942,1.942,0,0,1,1.941,1.942h0" transform="translate(-3299.913 -819.773)" fill="#fff"/>
  </g>
</svg>
