<svg width="115" height="120" viewBox="0 0 115 120" fill="none" xmlns="http://www.w3.org/2000/svg">
<path d="M64.3504 1.13762C42.2364 7.63762 46.6724 23.0716 44.1984 40.1706C41.1124 61.5106 27.7664 50.5676 12.4424 62.0966C-14.0576 82.0186 5.19344 125.997 38.0994 119.317C55.5724 115.771 59.1434 102.888 66.2694 89.1236C75.4884 71.3176 90.7754 76.1716 104.488 64.5476C132.298 40.9736 95.7224 -8.08438 64.3514 1.14062L64.3504 1.13762Z" fill="url(#paint0_linear)"/>
<path opacity="0.47" d="M72.7139 22.9219C72.403 22.9219 72.105 22.7984 71.8852 22.5786C71.6654 22.3588 71.5419 22.0607 71.5419 21.7499C71.5413 21.3771 71.393 21.0198 71.1295 20.7563C70.8659 20.4927 70.5086 20.3444 70.1359 20.3439C69.825 20.3439 69.527 20.2204 69.3072 20.0006C69.0874 19.7808 68.9639 19.4827 68.9639 19.1719C68.9639 18.861 69.0874 18.5629 69.3072 18.3431C69.527 18.1234 69.825 17.9999 70.1359 17.9999C70.5086 17.9993 70.8659 17.851 71.1295 17.5875C71.393 17.3239 71.5413 16.9666 71.5419 16.5939C71.5419 16.44 71.5722 16.2876 71.6311 16.1454C71.69 16.0032 71.7763 15.874 71.8852 15.7651C71.994 15.6563 72.1232 15.57 72.2654 15.5111C72.4076 15.4522 72.56 15.4219 72.7139 15.4219C72.8678 15.4219 73.0202 15.4522 73.1624 15.5111C73.3046 15.57 73.4338 15.6563 73.5426 15.7651C73.6514 15.874 73.7378 16.0032 73.7967 16.1454C73.8556 16.2876 73.8859 16.44 73.8859 16.5939C73.8864 16.9666 74.0347 17.3239 74.2983 17.5875C74.5618 17.851 74.9191 17.9993 75.2919 17.9999C75.6027 17.9999 75.9008 18.1234 76.1206 18.3431C76.3404 18.5629 76.4639 18.861 76.4639 19.1719C76.4639 19.4827 76.3404 19.7808 76.1206 20.0006C75.9008 20.2204 75.6027 20.3439 75.2919 20.3439C74.9191 20.3444 74.5618 20.4927 74.2983 20.7563C74.0347 21.0198 73.8864 21.3771 73.8859 21.7499C73.8859 22.0607 73.7624 22.3588 73.5426 22.5786C73.3228 22.7984 73.0247 22.9219 72.7139 22.9219Z" fill="#EC631E"/>
<path opacity="0.47" d="M97.96 95.3115C97.6491 95.3115 97.351 95.1881 97.1312 94.9683C96.9114 94.7485 96.788 94.4504 96.788 94.1395C96.7874 93.7668 96.6391 93.4095 96.3756 93.1459C96.112 92.8824 95.7547 92.734 95.382 92.7335C95.0711 92.7335 94.773 92.6101 94.5532 92.3903C94.3334 92.1705 94.21 91.8724 94.21 91.5615C94.21 91.2507 94.3334 90.9526 94.5532 90.7328C94.773 90.513 95.0711 90.3895 95.382 90.3895C95.7547 90.389 96.112 90.2407 96.3756 89.9771C96.6391 89.7136 96.7874 89.3563 96.788 88.9835C96.788 88.6727 96.9114 88.3746 97.1312 88.1548C97.351 87.935 97.6491 87.8115 97.96 87.8115C98.2708 87.8115 98.5689 87.935 98.7887 88.1548C99.0085 88.3746 99.132 88.6727 99.132 88.9835C99.1325 89.3563 99.2808 89.7136 99.5443 89.9771C99.8079 90.2407 100.165 90.389 100.538 90.3895C100.849 90.3895 101.147 90.513 101.367 90.7328C101.586 90.9526 101.71 91.2507 101.71 91.5615C101.71 91.8724 101.586 92.1705 101.367 92.3903C101.147 92.6101 100.849 92.7335 100.538 92.7335C100.165 92.734 99.8079 92.8824 99.5443 93.1459C99.2808 93.4095 99.1325 93.7668 99.132 94.1395C99.132 94.4504 99.0085 94.7485 98.7887 94.9683C98.5689 95.1881 98.2708 95.3115 97.96 95.3115Z" fill="#EC631E"/>
<path opacity="0.47" d="M91.3242 103.935C91.0134 103.935 90.7153 103.811 90.4955 103.591C90.2757 103.371 90.1522 103.073 90.1522 102.763C90.1517 102.39 90.0034 102.033 89.7398 101.769C89.4763 101.505 89.1189 101.357 88.7462 101.357C88.4354 101.357 88.1373 101.233 87.9175 101.013C87.6977 100.793 87.5742 100.495 87.5742 100.185C87.5742 99.8737 87.6977 99.5756 87.9175 99.3558C88.1373 99.136 88.4354 99.0126 88.7462 99.0126C89.1189 99.012 89.4763 98.8637 89.7398 98.6002C90.0034 98.3366 90.1517 97.9793 90.1522 97.6066C90.1522 97.2957 90.2757 96.9976 90.4955 96.7778C90.7153 96.558 91.0134 96.4346 91.3242 96.4346C91.6351 96.4346 91.9332 96.558 92.153 96.7778C92.3727 96.9976 92.4962 97.2957 92.4962 97.6066C92.4967 97.9793 92.645 98.3366 92.9086 98.6002C93.1722 98.8637 93.5295 99.012 93.9022 99.0126C94.2131 99.0126 94.5112 99.136 94.731 99.3558C94.9507 99.5756 95.0742 99.8737 95.0742 100.185C95.0742 100.495 94.9507 100.793 94.731 101.013C94.5112 101.233 94.2131 101.357 93.9022 101.357C93.5295 101.357 93.1722 101.505 92.9086 101.769C92.645 102.033 92.4967 102.39 92.4962 102.763C92.4962 103.073 92.3727 103.371 92.153 103.591C91.9332 103.811 91.6351 103.935 91.3242 103.935Z" fill="#EC631E"/>
<path opacity="0.47" d="M16.4734 85.9322C16.3195 85.9323 16.167 85.9021 16.0248 85.8432C15.8825 85.7843 15.7533 85.698 15.6444 85.5891L12.9934 82.9381C12.7738 82.7184 12.6504 82.4204 12.6504 82.1096C12.6504 81.7989 12.7738 81.5009 12.9934 81.2812L15.6444 78.6302C15.8642 78.4105 16.1622 78.2871 16.4729 78.2871C16.7837 78.2871 17.0817 78.4105 17.3014 78.6302L19.9524 81.2812C20.1721 81.5009 20.2955 81.7989 20.2955 82.1096C20.2955 82.4204 20.1721 82.7184 19.9524 82.9381L17.3014 85.5891C17.1926 85.698 17.0633 85.7843 16.9211 85.8432C16.7788 85.9021 16.6264 85.9323 16.4724 85.9322H16.4734ZM15.4794 82.1092L16.4734 83.1031L17.4674 82.1092L16.4734 81.1161L15.4794 82.1092Z" fill="#EC631E"/>
<path opacity="0.47" d="M56.1502 16.5738C55.9962 16.574 55.8437 16.5439 55.7014 16.485C55.5592 16.4262 55.43 16.3397 55.3212 16.2308L52.6702 13.5798C52.4505 13.36 52.3271 13.062 52.3271 12.7513C52.3271 12.4405 52.4505 12.1425 52.6702 11.9228L55.3212 9.27175C55.541 9.0521 55.839 8.92871 56.1497 8.92871C56.4604 8.92871 56.7584 9.0521 56.9782 9.27175L59.6292 11.9228C59.8488 12.1425 59.9722 12.4405 59.9722 12.7513C59.9722 13.062 59.8488 13.36 59.6292 13.5798L56.9782 16.2308C56.8695 16.3396 56.7405 16.4259 56.5984 16.4848C56.4563 16.5436 56.304 16.5739 56.1502 16.5738ZM55.1562 12.7518L56.1502 13.7448L57.1432 12.7518L56.1502 11.7578L55.1562 12.7518Z" fill="#EC631E"/>
<path d="M69.8307 98.3629H65.1468C64.8895 98.3629 64.6428 98.2606 64.4608 98.0787C64.2789 97.8968 64.1768 97.6501 64.1768 97.3929C64.1768 97.1356 64.2789 96.8889 64.4608 96.707C64.6428 96.5251 64.8895 96.4229 65.1468 96.4229H69.8307C70.088 96.4229 70.3347 96.5251 70.5166 96.707C70.6985 96.8889 70.8008 97.1356 70.8008 97.3929C70.8008 97.6501 70.6985 97.8968 70.5166 98.0787C70.3347 98.2606 70.088 98.3629 69.8307 98.3629Z" fill="#B7B7B7"/>
<path d="M45.3821 98.3629H38.7581C38.5008 98.3629 38.2541 98.2606 38.0722 98.0787C37.8903 97.8968 37.7881 97.6501 37.7881 97.3929C37.7881 97.1356 37.8903 96.8889 38.0722 96.707C38.2541 96.5251 38.5008 96.4229 38.7581 96.4229H45.3821C45.6393 96.4229 45.8861 96.5251 46.068 96.707C46.2499 96.8889 46.3521 97.1356 46.3521 97.3929C46.3521 97.6501 46.2499 97.8968 46.068 98.0787C45.8861 98.2606 45.6393 98.3629 45.3821 98.3629Z" fill="#B7B7B7"/>
<path d="M77.3857 26.8306V105.951C77.3858 106.117 77.3433 106.28 77.2623 106.425C77.1812 106.57 77.0642 106.692 76.9226 106.779C76.781 106.865 76.6194 106.914 76.4535 106.921C76.2875 106.927 76.1226 106.891 75.9747 106.816L73.2657 105.433C73.129 105.363 72.9776 105.326 72.8241 105.326C72.6706 105.326 72.5193 105.363 72.3826 105.433L68.7036 107.311C68.5673 107.38 68.4163 107.417 68.2632 107.417C68.11 107.417 67.959 107.38 67.8226 107.311L64.1416 105.433C64.0053 105.363 63.8543 105.326 63.7012 105.326C63.548 105.326 63.397 105.363 63.2607 105.433L59.5816 107.311C59.445 107.381 59.2937 107.417 59.1402 107.417C58.9866 107.417 58.8353 107.381 58.6987 107.311L55.0197 105.433C54.883 105.363 54.7317 105.326 54.5782 105.326C54.4247 105.326 54.2733 105.363 54.1366 105.433L50.4556 107.311C50.3193 107.38 50.1683 107.417 50.0152 107.417C49.862 107.417 49.711 107.38 49.5746 107.311L45.8936 105.433C45.7573 105.363 45.6063 105.326 45.4532 105.326C45.3 105.326 45.149 105.363 45.0126 105.433L41.3316 107.311C41.195 107.381 41.0437 107.417 40.8902 107.417C40.7366 107.417 40.5853 107.381 40.4487 107.311L36.7697 105.433C36.633 105.363 36.4817 105.326 36.3282 105.326C36.1747 105.326 36.0233 105.363 35.8866 105.433L33.1756 106.816C33.0279 106.891 32.8631 106.928 32.6972 106.922C32.5313 106.915 32.3697 106.867 32.2281 106.78C32.0864 106.693 31.9694 106.572 31.8882 106.427C31.8071 106.282 31.7645 106.119 31.7646 105.953V26.8306C31.7646 26.3161 31.969 25.8227 32.3329 25.4588C32.6967 25.095 33.1901 24.8906 33.7047 24.8906H75.4406C75.6958 24.89 75.9486 24.9397 76.1846 25.0369C76.4205 25.1341 76.635 25.2769 76.8157 25.4571C76.9963 25.6373 77.1397 25.8514 77.2375 26.0871C77.3353 26.3228 77.3857 26.5754 77.3857 26.8306Z" fill="white"/>
<path d="M59.1399 108.385C58.8333 108.385 58.5311 108.313 58.2579 108.174L54.5779 106.296L50.8979 108.174C50.6246 108.313 50.3224 108.385 50.0159 108.385C49.7094 108.385 49.4072 108.313 49.1339 108.174L45.4539 106.296L41.7739 108.174C41.5006 108.313 41.1984 108.385 40.8919 108.385C40.5853 108.385 40.2831 108.313 40.0099 108.174L36.3289 106.296L33.6189 107.678C33.3231 107.829 32.9936 107.901 32.6617 107.889C32.3299 107.876 32.007 107.778 31.7238 107.604C31.4406 107.431 31.2067 107.188 31.0444 106.898C30.8821 106.608 30.7969 106.282 30.7969 105.95V26.8309C30.7979 26.0594 31.1049 25.3199 31.6504 24.7744C32.1959 24.2289 32.9354 23.922 33.7069 23.9209H43.2069C43.3343 23.9209 43.4604 23.946 43.5781 23.9947C43.6958 24.0435 43.8027 24.1149 43.8928 24.205C43.9828 24.2951 44.0543 24.402 44.103 24.5197C44.1518 24.6374 44.1769 24.7635 44.1769 24.8909C44.1769 25.0183 44.1518 25.1444 44.103 25.2621C44.0543 25.3798 43.9828 25.4867 43.8928 25.5768C43.8027 25.6669 43.6958 25.7383 43.5781 25.7871C43.4604 25.8358 43.3343 25.8609 43.2069 25.8609H33.7069C33.4497 25.8612 33.2031 25.9634 33.0213 26.1453C32.8394 26.3271 32.7371 26.5737 32.7369 26.8309V105.95L35.4469 104.567C35.7201 104.428 36.0223 104.356 36.3289 104.356C36.6354 104.356 36.9376 104.428 37.2109 104.567L40.8919 106.445L44.5719 104.567C44.8451 104.428 45.1473 104.355 45.4539 104.355C45.7604 104.355 46.0627 104.428 46.3359 104.567L50.0159 106.445L53.6959 104.567C53.9691 104.428 54.2713 104.355 54.5779 104.355C54.8844 104.355 55.1866 104.428 55.4599 104.567L59.1399 106.445L62.8189 104.567C63.0921 104.428 63.3943 104.356 63.7009 104.356C64.0074 104.356 64.3096 104.428 64.5829 104.567L68.2619 106.445L71.9399 104.567C72.2131 104.428 72.5153 104.356 72.8219 104.356C73.1284 104.356 73.4306 104.428 73.7039 104.567L76.4129 105.95V68.4639C76.4129 68.2066 76.5151 67.9599 76.697 67.778C76.8789 67.5961 77.1256 67.4939 77.3829 67.4939C77.6401 67.4939 77.8869 67.5961 78.0688 67.778C78.2507 67.9599 78.3529 68.2066 78.3529 68.4639V105.951C78.3529 106.283 78.2677 106.609 78.1054 106.899C77.9431 107.189 77.7092 107.432 77.426 107.605C77.1428 107.779 76.8198 107.877 76.488 107.89C76.1562 107.902 75.8266 107.83 75.5309 107.679L72.8219 106.296L69.1489 108.178C68.8755 108.317 68.5731 108.39 68.2664 108.39C67.9596 108.39 67.6572 108.317 67.3839 108.178L63.7049 106.3L60.0259 108.178C59.7512 108.316 59.4475 108.387 59.1399 108.385Z" fill="#6F6E6D"/>
<path d="M55.5461 60.2017H38.7581C38.6334 60.2017 38.5139 60.1522 38.4257 60.064C38.3376 59.9759 38.2881 59.8564 38.2881 59.7317C38.2881 59.6071 38.3376 59.4875 38.4257 59.3994C38.5139 59.3112 38.6334 59.2617 38.7581 59.2617H55.5461C55.6707 59.2617 55.7903 59.3112 55.8784 59.3994C55.9666 59.4875 56.0161 59.6071 56.0161 59.7317C56.0161 59.8564 55.9666 59.9759 55.8784 60.064C55.7903 60.1522 55.6707 60.2017 55.5461 60.2017Z" fill="#B7B7B7" stroke="#B7B7B7"/>
<path d="M40.9931 56.315H38.7581C38.6334 56.315 38.5139 56.2655 38.4257 56.1773C38.3376 56.0892 38.2881 55.9697 38.2881 55.845C38.2881 55.7203 38.3376 55.6008 38.4257 55.5127C38.5139 55.4245 38.6334 55.375 38.7581 55.375H40.9931C41.1177 55.375 41.2373 55.4245 41.3254 55.5127C41.4136 55.6008 41.4631 55.7203 41.4631 55.845C41.4631 55.9697 41.4136 56.0892 41.3254 56.1773C41.2373 56.2655 41.1177 56.315 40.9931 56.315Z" fill="#B7B7B7" stroke="#B7B7B7"/>
<path d="M59.4261 69.0123H38.7581C38.6334 69.0123 38.5139 68.9627 38.4257 68.8746C38.3376 68.7865 38.2881 68.6669 38.2881 68.5423C38.2881 68.4176 38.3376 68.2981 38.4257 68.2099C38.5139 68.1218 38.6334 68.0723 38.7581 68.0723H59.4261C59.5507 68.0723 59.6703 68.1218 59.7584 68.2099C59.8466 68.2981 59.8961 68.4176 59.8961 68.5423C59.8961 68.6669 59.8466 68.7865 59.7584 68.8746C59.6703 68.9627 59.5507 69.0123 59.4261 69.0123Z" fill="#B7B7B7" stroke="#B7B7B7"/>
<path d="M40.9931 65.1255H38.7581C38.6334 65.1255 38.5139 65.076 38.4257 64.9879C38.3376 64.8998 38.2881 64.7802 38.2881 64.6555C38.2881 64.5309 38.3376 64.4113 38.4257 64.3232C38.5139 64.2351 38.6334 64.1855 38.7581 64.1855H40.9931C41.1177 64.1855 41.2373 64.2351 41.3254 64.3232C41.4136 64.4113 41.4631 64.5309 41.4631 64.6555C41.4631 64.7802 41.4136 64.8998 41.3254 64.9879C41.2373 65.076 41.1177 65.1255 40.9931 65.1255Z" fill="#B7B7B7" stroke="#B7B7B7"/>
<path d="M57.4861 77.8228H38.7581C38.6334 77.8228 38.5139 77.7733 38.4257 77.6852C38.3376 77.597 38.2881 77.4775 38.2881 77.3528C38.2881 77.2282 38.3376 77.1086 38.4257 77.0205C38.5139 76.9323 38.6334 76.8828 38.7581 76.8828H57.4861C57.6107 76.8828 57.7303 76.9323 57.8184 77.0205C57.9066 77.1086 57.9561 77.2282 57.9561 77.3528C57.9561 77.4775 57.9066 77.597 57.8184 77.6852C57.7303 77.7733 57.6108 77.8228 57.4861 77.8228Z" fill="#B7B7B7" stroke="#B7B7B7"/>
<path d="M40.9931 73.9361H38.7581C38.6334 73.9361 38.5139 73.8866 38.4257 73.7984C38.3376 73.7103 38.2881 73.5907 38.2881 73.4661C38.2881 73.3414 38.3376 73.2219 38.4257 73.1337C38.5139 73.0456 38.6334 72.9961 38.7581 72.9961H40.9931C41.1178 72.9961 41.2373 73.0456 41.3254 73.1337C41.4136 73.2219 41.4631 73.3414 41.4631 73.4661C41.4631 73.5907 41.4136 73.7103 41.3254 73.7984C41.2373 73.8866 41.1177 73.9361 40.9931 73.9361Z" fill="#B7B7B7" stroke="#B7B7B7"/>
<path d="M49.7251 86.6333H38.7581C38.6334 86.6333 38.5139 86.5838 38.4257 86.4957C38.3376 86.4076 38.2881 86.288 38.2881 86.1633C38.2881 86.0387 38.3376 85.9191 38.4257 85.831C38.5139 85.7429 38.6334 85.6934 38.7581 85.6934H49.7251C49.8498 85.6934 49.9693 85.7429 50.0574 85.831C50.1456 85.9191 50.1951 86.0387 50.1951 86.1633C50.1951 86.288 50.1456 86.4076 50.0574 86.4957C49.9693 86.5838 49.8498 86.6333 49.7251 86.6333Z" fill="#B7B7B7" stroke="#B7B7B7"/>
<path d="M58.606 86.6333H54.43C54.3053 86.6333 54.1857 86.5838 54.0976 86.4957C54.0095 86.4076 53.96 86.288 53.96 86.1633C53.96 86.0387 54.0095 85.9191 54.0976 85.831C54.1857 85.7429 54.3053 85.6934 54.43 85.6934H58.606C58.7306 85.6934 58.8502 85.7429 58.9383 85.831C59.0264 85.9191 59.0759 86.0387 59.0759 86.1633C59.0759 86.288 59.0264 86.4076 58.9383 86.4957C58.8502 86.5838 58.7306 86.6333 58.606 86.6333Z" fill="#B7B7B7" stroke="#B7B7B7"/>
<path d="M40.9931 82.7466H38.7581C38.6334 82.7466 38.5139 82.6971 38.4257 82.609C38.3376 82.5208 38.2881 82.4013 38.2881 82.2766C38.2881 82.152 38.3376 82.0325 38.4257 81.9443C38.5139 81.8562 38.6334 81.8066 38.7581 81.8066H40.9931C41.1177 81.8066 41.2373 81.8562 41.3254 81.9443C41.4136 82.0325 41.4631 82.152 41.4631 82.2766C41.4631 82.4013 41.4136 82.5208 41.3254 82.609C41.2373 82.6971 41.1177 82.7466 40.9931 82.7466Z" fill="#B7B7B7" stroke="#B7B7B7"/>
<path d="M69.8313 60.7017H66.6263C66.369 60.7017 66.1223 60.5995 65.9404 60.4176C65.7585 60.2357 65.6562 59.989 65.6562 59.7317C65.6562 59.4744 65.7585 59.2277 65.9404 59.0458C66.1223 58.8639 66.369 58.7617 66.6263 58.7617H69.8313C70.0885 58.7617 70.3352 58.8639 70.5172 59.0458C70.6991 59.2277 70.8013 59.4744 70.8013 59.7317C70.8013 59.989 70.6991 60.2357 70.5172 60.4176C70.3352 60.5995 70.0885 60.7017 69.8313 60.7017Z" fill="#B7B7B7"/>
<path d="M69.8313 69.5123H66.6263C66.369 69.5123 66.1223 69.4101 65.9404 69.2282C65.7585 69.0463 65.6562 68.7995 65.6562 68.5423C65.6562 68.285 65.7585 68.0383 65.9404 67.8564C66.1223 67.6745 66.369 67.5723 66.6263 67.5723H69.8313C70.0885 67.5723 70.3352 67.6745 70.5172 67.8564C70.6991 68.0383 70.8013 68.285 70.8013 68.5423C70.8013 68.7995 70.6991 69.0463 70.5172 69.2282C70.3352 69.4101 70.0885 69.5123 69.8313 69.5123Z" fill="#B7B7B7"/>
<path d="M69.8313 77.8228H66.6263C66.5016 77.8228 66.3821 77.7733 66.2939 77.6852C66.2058 77.597 66.1562 77.4775 66.1562 77.3528C66.1562 77.2282 66.2058 77.1086 66.2939 77.0205C66.3821 76.9323 66.5016 76.8828 66.6263 76.8828H69.8313C69.9559 76.8828 70.0754 76.9323 70.1636 77.0205C70.2518 77.1086 70.3013 77.2282 70.3013 77.3528C70.3013 77.4775 70.2517 77.597 70.1636 77.6852C70.0755 77.7733 69.9559 77.8228 69.8313 77.8228Z" fill="#B7B7B7" stroke="#B7B7B7"/>
<path d="M69.8313 86.6333H66.6263C66.5016 86.6333 66.3821 86.5838 66.2939 86.4957C66.2058 86.4075 66.1562 86.288 66.1562 86.1633C66.1562 86.0387 66.2058 85.9192 66.2939 85.831C66.3821 85.7429 66.5016 85.6934 66.6263 85.6934H69.8313C69.9559 85.6934 70.0755 85.7429 70.1636 85.831C70.2518 85.9192 70.3013 86.0387 70.3013 86.1633C70.3013 86.288 70.2517 86.4075 70.1636 86.4957C70.0755 86.5838 69.9559 86.6333 69.8313 86.6333Z" fill="#B7B7B7" stroke="#B7B7B7"/>
<path d="M69.5091 83.2589C69.2518 83.2589 69.0051 83.1567 68.8232 82.9748C68.6413 82.7929 68.5391 82.5461 68.5391 82.2889V82.2669C68.5391 82.0096 68.6413 81.7629 68.8232 81.581C69.0051 81.3991 69.2518 81.2969 69.5091 81.2969C69.7663 81.2969 70.013 81.3991 70.1949 81.581C70.3769 81.7629 70.4791 82.0096 70.4791 82.2669V82.2889C70.4791 82.5461 70.3769 82.7929 70.1949 82.9748C70.013 83.1567 69.7663 83.2589 69.5091 83.2589Z" fill="#D4D7DC"/>
<path d="M69.5091 74.4474C69.2518 74.4474 69.0051 74.3452 68.8232 74.1633C68.6413 73.9814 68.5391 73.7346 68.5391 73.4774V73.4544C68.5391 73.1971 68.6413 72.9504 68.8232 72.7685C69.0051 72.5866 69.2518 72.4844 69.5091 72.4844C69.7663 72.4844 70.013 72.5866 70.1949 72.7685C70.3769 72.9504 70.4791 73.1971 70.4791 73.4544V73.4764C70.4792 73.6038 70.4542 73.7301 70.4055 73.8479C70.3568 73.9657 70.2854 74.0727 70.1953 74.1629C70.1052 74.2531 69.9982 74.3246 69.8805 74.3734C69.7627 74.4223 69.6365 74.4474 69.5091 74.4474Z" fill="#D4D7DC"/>
<path d="M69.5091 65.6378C69.2518 65.6378 69.0051 65.5356 68.8232 65.3537C68.6413 65.1718 68.5391 64.925 68.5391 64.6678V64.6458C68.5391 64.3885 68.6413 64.1418 68.8232 63.9599C69.0051 63.778 69.2518 63.6758 69.5091 63.6758C69.7663 63.6758 70.013 63.778 70.1949 63.9599C70.3769 64.1418 70.4791 64.3885 70.4791 64.6458V64.6678C70.4791 64.925 70.3769 65.1718 70.1949 65.3537C70.013 65.5356 69.7663 65.6378 69.5091 65.6378Z" fill="#D4D7DC"/>
<path d="M69.5091 56.8272C69.2518 56.8272 69.0051 56.725 68.8232 56.5431C68.6413 56.3612 68.5391 56.1145 68.5391 55.8572V55.8352C68.5391 55.578 68.6413 55.3313 68.8232 55.1494C69.0051 54.9674 69.2518 54.8652 69.5091 54.8652C69.7663 54.8652 70.013 54.9674 70.1949 55.1494C70.3769 55.3313 70.4791 55.578 70.4791 55.8352V55.8572C70.4791 56.1145 70.3769 56.3612 70.1949 56.5431C70.013 56.725 69.7663 56.8272 69.5091 56.8272Z" fill="#EC631E"/>
<path d="M77.3858 62.7218C83.0942 62.7218 87.7218 58.0942 87.7218 52.3858C87.7218 46.6774 83.0942 42.0498 77.3858 42.0498C71.6774 42.0498 67.0498 46.6774 67.0498 52.3858C67.0498 58.0942 71.6774 62.7218 77.3858 62.7218Z" fill="#EC631E"/>
<path d="M78.355 41.1239V26.8309C78.354 26.0594 78.047 25.3199 77.5015 24.7744C76.956 24.2289 76.2165 23.922 75.445 23.9209H48.885C48.6278 23.9209 48.3811 24.0231 48.1991 24.205C48.0172 24.3869 47.915 24.6336 47.915 24.8909C47.915 25.1482 48.0172 25.3949 48.1991 25.5768C48.3811 25.7587 48.6278 25.8609 48.885 25.8609H75.442C75.6992 25.8612 75.9458 25.9634 76.1276 26.1453C76.3095 26.3272 76.4118 26.5737 76.412 26.8309V41.1239C73.5083 41.3739 70.8133 42.7357 68.8894 44.9249C66.9655 47.1142 65.9613 49.9619 66.0865 52.8737C66.2116 55.7855 67.4564 58.5365 69.561 60.5526C71.6656 62.5687 74.4675 63.6942 77.382 63.6942C80.2965 63.6942 83.0984 62.5687 85.2031 60.5526C87.3077 58.5365 88.5525 55.7855 88.6776 52.8737C88.8028 49.9619 87.7986 47.1142 85.8747 44.9249C83.9508 42.7357 81.2558 41.3739 78.352 41.1239H78.355ZM77.385 61.7519C75.5326 61.7519 73.7218 61.2026 72.1816 60.1734C70.6413 59.1443 69.4409 57.6815 68.732 55.9701C68.0231 54.2587 67.8376 52.3755 68.199 50.5587C68.5604 48.7419 69.4524 47.073 70.7623 45.7631C72.0721 44.4533 73.741 43.5613 75.5578 43.1999C77.3746 42.8385 79.2578 43.024 80.9693 43.7328C82.6807 44.4417 84.1434 45.6422 85.1726 47.1824C86.2017 48.7227 86.751 50.5335 86.751 52.3859C86.7481 54.8689 85.7604 57.2494 84.0045 59.0051C82.2487 60.7608 79.8681 61.7482 77.385 61.7509V61.7519Z" fill="#6F6E6D"/>
<path d="M58.6041 49.2173H50.5481C50.2909 49.2173 50.0441 49.1152 49.8622 48.9332C49.6803 48.7513 49.5781 48.5046 49.5781 48.2473C49.5781 47.9901 49.6803 47.7434 49.8622 47.5615C50.0441 47.3796 50.2909 47.2773 50.5481 47.2773H58.6041C58.8614 47.2773 59.1081 47.3796 59.29 47.5615C59.4719 47.7434 59.5741 47.9901 59.5741 48.2473C59.5741 48.5046 59.4719 48.7513 59.29 48.9332C59.1081 49.1152 58.8614 49.2173 58.6041 49.2173Z" fill="#6F6E6D"/>
<path d="M63.9402 41.5494H45.2122C45.0875 41.5494 44.968 41.4999 44.8798 41.4117C44.7917 41.3236 44.7422 41.204 44.7422 41.0794C44.7422 40.9547 44.7917 40.8352 44.8798 40.747C44.968 40.6589 45.0875 40.6094 45.2122 40.6094H63.9402C64.0648 40.6094 64.1844 40.6589 64.2725 40.747C64.3607 40.8352 64.4102 40.9547 64.4102 41.0794C64.4102 41.204 64.3607 41.3236 64.2725 41.4117C64.1844 41.4999 64.0648 41.5494 63.9402 41.5494Z" fill="#B7B7B7" stroke="#B7B7B7"/>
<path d="M68.7926 37.2916H40.3626C40.2379 37.2916 40.1184 37.242 40.0302 37.1539C39.9421 37.0658 39.8926 36.9462 39.8926 36.8216C39.8926 36.6969 39.9421 36.5774 40.0302 36.4892C40.1184 36.4011 40.2379 36.3516 40.3626 36.3516H68.7926C68.8543 36.3516 68.9154 36.3637 68.9724 36.3873C69.0295 36.411 69.0813 36.4456 69.1249 36.4892C69.1686 36.5329 69.2032 36.5847 69.2268 36.6417C69.2504 36.6987 69.2626 36.7598 69.2626 36.8216C69.2626 36.8833 69.2504 36.9444 69.2268 37.0014C69.2032 37.0585 69.1686 37.1103 69.1249 37.1539C69.0813 37.1975 69.0295 37.2322 68.9724 37.2558C68.9154 37.2794 68.8543 37.2916 68.7926 37.2916Z" fill="#B7B7B7" stroke="#B7B7B7"/>
<path d="M40.9931 33.5328H38.7581C38.5008 33.5328 38.2541 33.4306 38.0722 33.2487C37.8903 33.0668 37.7881 32.82 37.7881 32.5628C37.7881 32.3055 37.8903 32.0588 38.0722 31.8769C38.2541 31.695 38.5008 31.5928 38.7581 31.5928H40.9931C41.2503 31.5928 41.4971 31.695 41.679 31.8769C41.8609 32.0588 41.9631 32.3055 41.9631 32.5628C41.9631 32.82 41.8609 33.0668 41.679 33.2487C41.4971 33.4306 41.2503 33.5328 40.9931 33.5328Z" fill="#6F6E6D"/>
<path d="M76.5608 58.3148C76.5574 58.1435 76.589 57.9733 76.654 57.8147C76.7191 57.6561 76.816 57.5125 76.9387 57.3928C77.0548 57.2715 77.1945 57.1754 77.3494 57.1104C77.5042 57.0454 77.6707 57.0128 77.8386 57.0148C78.01 57.0115 78.1803 57.0434 78.3389 57.1084C78.4974 57.1734 78.641 57.2702 78.7607 57.3928C78.8835 57.5125 78.9805 57.656 79.0457 57.8146C79.1108 57.9731 79.1428 58.1434 79.1396 58.3148C79.1414 58.4828 79.1086 58.6493 79.0435 58.8041C78.9783 58.9589 78.8821 59.0987 78.7607 59.2148C78.641 59.3375 78.4974 59.4342 78.3389 59.4993C78.1803 59.5643 78.01 59.5961 77.8386 59.5928C77.6707 59.5948 77.5042 59.5623 77.3494 59.4972C77.1945 59.4322 77.0548 59.3361 76.9387 59.2148C76.8175 59.0987 76.7213 58.9588 76.6562 58.804C76.5912 58.6492 76.5589 58.4827 76.5608 58.3148ZM77.1406 45.4268C77.2949 45.2804 77.4956 45.1924 77.7078 45.1778C77.9186 45.1745 78.1237 45.2453 78.2876 45.3778C78.4956 45.5482 78.6447 45.7799 78.7136 46.0398V54.1978C78.7189 54.492 78.6084 54.7764 78.4058 54.9898C78.2406 55.1604 78.0169 55.2619 77.7798 55.2738C77.5448 55.2793 77.3164 55.1949 77.1416 55.0378C76.9264 54.8372 76.7953 54.5624 76.7747 54.2688V46.1108C76.8178 45.849 76.9464 45.6088 77.1406 45.4278V45.4268Z" fill="white"/>
<defs>
<linearGradient id="paint0_linear" x1="57.1805" y1="0" x2="57.1805" y2="120" gradientUnits="userSpaceOnUse">
<stop stop-color="#F6B696"/>
<stop offset="1" stop-color="white" stop-opacity="0"/>
</linearGradient>
</defs>
</svg>
