<svg width="100" height="100" viewBox="0 0 100 100" fill="none" xmlns="http://www.w3.org/2000/svg">
<path fill-rule="evenodd" clip-rule="evenodd" d="M77.414 88.6763C76.8224 88.4768 76.2723 88.3076 75.6926 88.1443C75.1129 87.9811 74.5924 87.8482 74.0364 87.7092L72.3506 87.3102C69.6 86.6635 66.7429 86.0288 64.2053 84.7171C63.0205 84.1566 61.9429 83.3849 61.0229 82.4383C60.1297 81.4228 60.112 80.0628 60.0942 78.7693C60.0849 77.1217 60.306 75.4811 60.7508 73.8974C63.0921 71.7332 65.0458 69.1681 66.5241 66.3175C67.0761 65.3141 67.5809 64.2765 68.0384 63.2046C69.949 63.9843 71.6526 61.7418 72.7114 60.4664C74.6865 58.0744 75.9816 55.1745 76.4557 52.0826C76.7278 50.2269 77.1537 47.1079 75.1011 45.9473C73.6341 45.1253 72.2085 45.6995 71.1675 46.6908C72.6463 38.4098 73.2319 29.3853 69.6769 21.4971C68.204 18.233 65.9621 14.9811 62.6792 13.1194C61.1153 12.2556 59.4437 11.613 57.7104 11.2093C56.622 10.9494 55.5159 10.762 54.4097 10.6048C52.8831 10.3881 51.3812 10.0176 49.926 9.49866C49.7486 9.43829 46.8442 8.21122 47.3352 9.42012C47.5927 10.0217 47.9161 10.5915 48.2993 11.1186C48.5951 11.5418 49.228 12.122 49.3108 12.6297C48.4295 12.8776 47.4298 12.4787 46.5603 12.3034C45.4896 12.0858 44.4308 11.7956 43.3838 11.4692C42.7509 11.2697 42.118 11.0703 41.4968 10.8285C41.1833 10.7076 40.2251 10.0125 40.0476 10.6834C39.9175 11.1972 40.3966 11.6143 40.6983 11.9468C40.9053 12.1704 41.7689 13.0106 40.9704 13.0469C39.4642 13.0353 37.9719 13.3419 36.5872 13.9475C35.2277 14.5983 34.0182 15.5356 33.0381 16.6978C32.0198 17.9514 31.1557 19.3277 30.465 20.796C30.3526 21.0257 30.2402 21.2614 30.1337 21.4912C26.5846 29.3793 27.1761 38.4159 28.6431 46.6848C27.602 45.6935 26.1765 45.1193 24.7095 45.9413C22.6569 47.1019 23.0828 50.2209 23.3549 52.0766C23.829 55.1686 25.1241 58.0684 27.0992 60.4604C28.1581 61.7358 29.8616 63.9783 31.7722 63.1986C32.2336 64.2664 32.7384 65.3041 33.2865 66.3115C34.7796 69.1776 36.7537 71.7534 39.1189 73.9215C39.3792 74.1512 39.4502 75.3118 39.5093 75.6624C39.6283 76.3259 39.7093 76.996 39.7519 77.6692C39.7943 78.4312 39.7745 79.1954 39.6927 79.954C39.6513 80.359 39.6631 81.5558 39.3851 81.8701C35.1972 86.7058 28.0575 86.7058 22.3316 88.7428C22.2901 88.7598 22.2521 88.7844 22.2192 88.8154C22.4026 88.646 23.4022 88.7186 23.6507 88.6884C24.1653 88.628 24.674 88.5493 25.1886 88.4647C26.1114 88.3136 27.0283 88.1443 27.9392 87.9449C29.9504 87.5037 31.9142 87.3404 33.8544 86.5547C35.7361 85.8557 37.4661 84.788 38.9474 83.4115C39.2987 85.7923 40.7679 87.8468 42.881 88.912C46.862 91.088 51.8189 90.949 56.0423 89.6192C56.3935 89.5108 56.7325 89.3649 57.0538 89.184C58.144 88.7514 59.0945 88.0166 59.7985 87.0624C60.211 86.5512 60.5515 85.9836 60.81 85.3759C60.9367 85.0645 61.0222 84.7373 61.0643 84.4028C61.1431 84.0934 61.1287 83.7669 61.023 83.4659C61.397 83.7392 61.7509 84.0403 62.0818 84.3665C62.6031 84.7939 63.1569 85.1779 63.7381 85.515C64.728 86.0956 65.7674 86.5831 66.8435 86.9717C68.6975 87.6345 70.6087 88.1162 72.5517 88.4103C73.5218 88.5615 74.4978 88.6703 75.4797 88.7428C75.7814 88.7428 77.6269 88.634 77.7748 88.9121C77.6932 88.7842 77.5618 88.6983 77.4139 88.6763L77.414 88.6763ZM70.7834 48.179C70.815 48.1599 70.843 48.1354 70.8662 48.1065C71.9547 46.686 74.6047 45.5134 75.5452 47.9312C75.8114 48.6082 75.6931 49.8232 75.6398 50.5727C75.523 52.0453 75.1983 53.4929 74.6757 54.8704C74.1526 56.2671 73.4461 57.5848 72.5758 58.7872C72.0138 59.5609 69.7838 62.6738 68.5002 62.0875C70.2642 57.7635 71.0391 53.0851 70.7657 48.4087C70.7775 48.3543 70.7775 48.2818 70.7834 48.179L70.7834 48.179ZM27.2846 58.8106C26.4143 57.6082 25.7079 56.2905 25.1848 54.8937C24.6621 53.5162 24.3374 52.0686 24.2206 50.5961C24.1673 49.8465 24.049 48.6316 24.3152 47.9546C25.2557 45.5368 27.9058 46.7094 28.9941 48.1299C29.0174 48.1588 29.0454 48.1834 29.077 48.2024C29.077 48.281 29.077 48.3535 29.077 48.4321C28.8036 53.1085 29.5784 57.787 31.3425 62.111C30.0529 62.6852 27.8229 59.5843 27.2846 58.8106H27.2846ZM39.53 72.8097C37.1095 70.5517 35.106 67.8675 33.6148 64.8853C30.2195 58.4236 29.4742 50.9163 30.1899 43.7293C30.3614 42.0852 30.5389 40.435 30.7814 38.803C31.1955 36.1797 31.5445 32.4441 33.603 30.4736C36.0933 28.0558 39.2224 30.401 41.9552 31.2231C40.5914 32.6772 39.1265 34.0286 37.5721 35.2669C37.1757 35.5752 37.507 36.2824 37.9684 36.2582C40.8796 36.0929 43.7543 35.5152 46.5099 34.5415C46.1077 34.6866 45.741 35.5389 45.5221 35.8834C45.3032 36.2279 45.0489 37.3099 45.9184 37.0924C48.9848 36.2459 51.9876 35.1753 54.9036 33.8887C56.3689 33.2327 57.8003 32.5004 59.1921 31.6945C60.3752 31.0176 61.6884 29.6757 63.0311 29.4943C64.204 29.3065 65.3965 29.6785 66.2667 30.5038C68.3252 32.4743 68.6742 36.2098 69.0883 38.8332C69.455 41.118 69.6798 43.4149 69.8927 45.7119C69.8927 45.7119 69.8927 45.7119 69.8927 45.7481C70.1471 52.4818 69.4964 58.8043 66.2785 64.9335C64.7874 67.9159 62.7838 70.6 60.3633 72.8579C58.8866 74.1339 57.1693 75.0864 55.3177 75.6565C52.582 76.5829 49.6599 76.7785 46.8294 76.2248C44.1349 75.7709 41.6073 74.5922 39.5063 72.8096L39.53 72.8097ZM59.8048 84.8007C59.7624 85.0399 59.6825 85.2705 59.5681 85.4837C58.9352 86.6927 57.4919 87.551 56.3207 88.0768C54.3138 88.9786 52.1423 89.434 49.9501 89.4127C48.8865 89.407 47.8263 89.2916 46.7854 89.0682C45.1319 88.7721 43.5555 88.1323 42.1538 87.1883C41.3337 86.6619 40.6755 85.9098 40.255 85.0183C39.7996 83.8698 40.3379 82.8181 40.5922 81.6938C40.85 80.4671 40.9199 79.2069 40.7993 77.9583C40.7401 77.2571 40.7992 75.2141 40.1427 74.7486C40.1826 74.7754 40.2202 74.8058 40.2551 74.8393C41.8131 75.9343 43.5528 76.7309 45.3894 77.1906C50.1216 78.4418 55.534 77.7951 59.5859 74.8453C59.6207 74.8118 59.6583 74.7814 59.6983 74.7546C59.3671 74.9964 59.2487 76.4894 59.1778 76.9004C59.0352 77.6982 58.9619 78.5073 58.9589 79.3182C58.9566 80.1437 59.056 80.9662 59.2547 81.7663C59.5208 82.7274 59.9645 83.7973 59.7811 84.8007L59.8048 84.8007Z" fill="#B7B7B7"/>
<rect x="0.5" y="0.5" width="99" height="99" rx="14.5" stroke="#B7B7B7"/>
</svg>
