<svg width="97" height="30" viewBox="0 0 97 30" fill="none" xmlns="http://www.w3.org/2000/svg">
<path d="M90.6695 0.538058H84.5866C83.7177 0.436554 82.8384 0.619732 82.0925 1.05762C81.3466 1.4955 80.7781 2.16222 80.48 2.94886L68.8135 29.5857H77.0663C77.0663 29.5857 78.415 25.9974 78.6997 25.2302H88.7912C89.0245 26.2583 89.7245 29.5857 89.7245 29.5857H96.9997L90.6695 0.538058ZM80.9676 19.2869C81.6139 17.6232 84.0966 11.1558 84.0966 11.1558C84.0569 11.2115 84.7429 9.45418 85.1325 8.37033L85.6809 10.8748C85.6809 10.8748 87.1672 17.8284 87.5009 19.2869H80.9676Z" fill="white"/>
<path d="M27.6146 0.538979L19.9357 20.3627L19.0934 16.3485L16.3541 3.00106C16.1853 2.24255 15.7273 1.57121 15.0691 1.11775C14.4109 0.664286 13.5997 0.461174 12.7935 0.547929H0.137669L0 1.12775C2.89739 1.80829 5.67695 2.88463 8.25288 4.32354L15.2528 29.5598H23.564L35.9305 0.547929H27.6146V0.538979Z" fill="white"/>
<path d="M39.0942 0.541016L34.1943 29.5908H42.0365L46.9645 0.541016H39.0942Z" fill="white"/>
<path d="M62.8012 12.1856C60.0433 10.8475 58.3679 9.95543 58.3679 8.59727C58.4076 7.36401 59.7959 6.09282 62.8852 6.09282C64.8959 6.03847 66.8938 6.4149 68.7325 7.19452L69.4325 7.51344L70.5081 1.23338C68.2604 0.410932 65.873 -0.00720652 63.4662 9.39701e-05C55.701 9.39701e-05 50.2457 3.96305 50.2061 9.60753C50.1477 13.7757 54.1167 16.095 57.0893 17.4955C60.1226 18.9161 61.1563 19.8506 61.1563 21.1039C61.1166 23.0486 58.6923 23.9451 56.443 23.9451C53.8888 24.007 51.3576 23.4711 49.0697 22.384L48.0338 21.9157L46.9395 28.4388C49.7323 29.4776 52.7041 30.0071 55.701 29.9999C63.9539 30.0178 69.3321 26.1106 69.3905 20.0914C69.4301 16.7841 67.3185 14.2618 62.8012 12.1856Z" fill="white"/>
</svg>
