<svg xmlns="http://www.w3.org/2000/svg" width="68.903" height="28.199" viewBox="0 0 68.903 28.199">
  <g id="Icon_98" data-name="Icon 98" transform="translate(0 0)">
    <g id="visa-seeklogo.com" transform="translate(0 -0.001)">
      <path id="Path_7281" data-name="Path 7281" d="M34.68-75.746c-.038,3.016,2.688,4.7,4.742,5.7,2.11,1.027,2.819,1.685,2.811,2.6-.016,1.405-1.683,2.026-3.244,2.05a11.32,11.32,0,0,1-5.564-1.323l-.981,4.589a16.314,16.314,0,0,0,6.025,1.112c5.69,0,9.414-2.809,9.434-7.164.022-5.527-7.646-5.833-7.593-8.3.018-.749.733-1.548,2.3-1.752a10.2,10.2,0,0,1,5.342.936l.952-4.44a14.522,14.522,0,0,0-5.07-.93c-5.356,0-9.124,2.847-9.154,6.923m23.376-6.54a2.469,2.469,0,0,0-2.306,1.536L47.622-61.34h5.686l1.132-3.127h6.949l.656,3.127h5.012L62.683-82.286H58.056m.8,5.658,1.641,7.865H56l2.853-7.865M27.786-82.286,23.3-61.34h5.419L33.2-82.286H27.786m-8.016,0L14.129-68.03,11.848-80.151a2.526,2.526,0,0,0-2.5-2.134H.129L0-81.678A22.559,22.559,0,0,1,5.346-79.9a2.293,2.293,0,0,1,1.287,1.84L10.954-61.34h5.727L25.46-82.286H19.77" transform="translate(0 82.669)" fill="#fff"/>
    </g>
    <text id="Prepaga" transform="translate(57.903 26.198)" fill="#fff" font-size="5" font-family="Poppins-Regular, Poppins"><tspan x="-10.69" y="0">Prepaga</tspan></text>
  </g>
</svg>
