<svg width="50" height="50" viewBox="0 0 50 50" fill="none" xmlns="http://www.w3.org/2000/svg">
<path fill-rule="evenodd" clip-rule="evenodd" d="M38.706 12.939H11.2931C9.17407 12.942 7.45807 14.6589 7.45508 16.7769V33.2249C7.45905 35.343 9.17505 37.0579 11.2931 37.0609H38.706C40.8251 37.0579 42.5411 35.3409 42.545 33.2219V16.7769C42.5411 14.6589 40.8251 12.942 38.706 12.939ZM11.2931 15.132H38.706C39.615 15.1329 40.3511 15.869 40.352 16.7769V18.9699H9.64807V16.7769C9.64905 15.869 10.3851 15.1329 11.2931 15.132ZM38.706 34.8699H11.2931C10.3851 34.869 9.64905 34.1329 9.64807 33.2239V21.163H40.352V33.2249C40.35 34.1329 39.6141 34.869 38.706 34.8699Z" fill="#EC631E"/>
<path d="M15.0332 31.5291H14.0022C13.4332 31.5291 12.9712 31.0671 12.9712 30.498V29.467C12.9712 28.897 13.4332 28.4351 14.0022 28.4351H15.0332C15.6032 28.4351 16.0642 28.897 16.0642 29.467V30.498C16.0642 31.0671 15.6032 31.5291 15.0332 31.5291Z" fill="#EC631E"/>
</svg>
