<svg xmlns="http://www.w3.org/2000/svg" width="28.826" height="25.218" viewBox="0 0 28.826 25.218">
  <g id="bar-chart" transform="translate(-887.241 -845.095)">
    <g id="Grupo_644" data-name="Grupo 644">
      <g id="Grupo_643" data-name="Grupo 643">
        <path id="Trazado_1892" data-name="Trazado 1892" d="M915.312,845.948a2.873,2.873,0,0,0-2.054-.852,2.752,2.752,0,0,0-2.8,2.7h0a2.582,2.582,0,0,0,.1.71l-3.036,2.072a2.883,2.883,0,0,0-3.966-.026,2.624,2.624,0,0,0-.664,2.841l-2.8,2.273a2.878,2.878,0,0,0-3.906-.673,2.722,2.722,0,0,0-1.038,1.322l-2.324-.913a2.789,2.789,0,0,0-3.234-2.211,2.706,2.706,0,0,0-2.309,3.052l.009.063a2.836,2.836,0,0,0,5.414.448l2.33.906a2.788,2.788,0,0,0,3.234,2.211,2.73,2.73,0,0,0,2.335-2.661c0-.083-.007-.174-.013-.258l3.06-2.486a2.883,2.883,0,0,0,3.959-.181,2.631,2.631,0,0,0,.61-2.595l3.006-2.054a2.883,2.883,0,0,0,3.967.129,2.631,2.631,0,0,0,.229-3.714C915.376,846.015,915.345,845.981,915.312,845.948Zm-25.271,11.319a1.409,1.409,0,0,1-.128-2.815c.043,0,.085,0,.128,0a1.409,1.409,0,0,1,.127,2.815C890.126,857.269,890.083,857.269,890.041,857.267Zm7.737,1.353a1.409,1.409,0,1,1,1.463-1.408A1.442,1.442,0,0,1,897.778,858.62Zm7.744-4.74a1.409,1.409,0,1,1,1.463-1.408,1.441,1.441,0,0,1-1.464,1.411Zm7.736-4.678a1.409,1.409,0,1,1,1.463-1.407A1.442,1.442,0,0,1,913.258,849.2Z" fill="#f7c0a4"/>
      </g>
    </g>
    <g id="Grupo_646" data-name="Grupo 646">
      <g id="Grupo_645" data-name="Grupo 645">
        <path id="Trazado_1893" data-name="Trazado 1893" d="M915.172,853.589h-3.617a.648.648,0,0,0-.645.646V869.6a.648.648,0,0,0,.645.646h3.617a.648.648,0,0,0,.646-.646V854.236A.649.649,0,0,0,915.172,853.589Zm-.646,15.432H912.2v-14.14h2.325Z" fill="#f7c0a4"/>
      </g>
    </g>
    <g id="Grupo_648" data-name="Grupo 648">
      <g id="Grupo_647" data-name="Grupo 647">
        <path id="Trazado_1894" data-name="Trazado 1894" d="M907.381,858.238h-3.617a.647.647,0,0,0-.645.646V869.6a.647.647,0,0,0,.645.646h3.617a.649.649,0,0,0,.646-.646V858.884A.648.648,0,0,0,907.381,858.238Zm-.646,10.783H904.41v-9.492h2.325Z" fill="#f7c0a4"/>
      </g>
    </g>
    <g id="Grupo_650" data-name="Grupo 650">
      <g id="Grupo_649" data-name="Grupo 649">
        <path id="Trazado_1895" data-name="Trazado 1895" d="M899.534,863.081h-3.616a.648.648,0,0,0-.646.646v5.94a.648.648,0,0,0,.646.646h3.616a.648.648,0,0,0,.646-.646v-5.939A.648.648,0,0,0,899.534,863.081Zm-.646,5.94h-2.325v-4.649h2.325Z" fill="#f7c0a4"/>
      </g>
    </g>
    <g id="Grupo_652" data-name="Grupo 652">
      <g id="Grupo_651" data-name="Grupo 651">
        <path id="Trazado_1896" data-name="Trazado 1896" d="M891.743,861.725h-3.616a.647.647,0,0,0-.645.646v7.3a.647.647,0,0,0,.645.646h3.616a.648.648,0,0,0,.646-.646v-7.295A.649.649,0,0,0,891.743,861.725Zm-.646,7.3h-2.324v-6.005H891.1Z" fill="#f7c0a4"/>
      </g>
    </g>
  </g>
</svg>
