<svg xmlns="http://www.w3.org/2000/svg" width="31.215" height="30.739" viewBox="0 0 31.215 30.739"><g transform="translate(-451.932 156.96)"><path d="M471.781-135.86h-.6a.185.185,0,0,1-.209-.209v-.767h-.07a1.573,1.573,0,0,1-1.18-.433,1.646,1.646,0,0,1-.424-1.2v-.189a.186.186,0,0,1,.21-.209h.845a.186.186,0,0,1,.21.209v.07a.7.7,0,0,0,.149.518.808.808,0,0,0,.548.139h.4a.779.779,0,0,0,.543-.149.773.773,0,0,0,.154-.558v-.149a.505.505,0,0,0-.149-.388.782.782,0,0,0-.347-.189q-.181-.04-.7-.09a4.629,4.629,0,0,1-.782-.124,1.934,1.934,0,0,1-.528-.255,1.549,1.549,0,0,1-.558-1.4v-.369a1.632,1.632,0,0,1,.424-1.21,1.605,1.605,0,0,1,1.19-.424h.07v-.787a.185.185,0,0,1,.209-.209h.6a.185.185,0,0,1,.209.209v.787h.02a1.45,1.45,0,0,1,1.116.438,1.684,1.684,0,0,1,.408,1.2v.189a.185.185,0,0,1-.209.209h-.847a.184.184,0,0,1-.208-.209v-.07a.715.715,0,0,0-.145-.518.811.811,0,0,0-.553-.139h-.319a.757.757,0,0,0-.552.154.913.913,0,0,0-.145.6v.2a.422.422,0,0,0,.151.344.763.763,0,0,0,.337.164q.219.04.743.085a3.822,3.822,0,0,1,.787.13,1.981,1.981,0,0,1,.522.263,1.558,1.558,0,0,1,.528,1.355v.378a1.618,1.618,0,0,1-.433,1.205,1.605,1.605,0,0,1-1.181.428h-.02v.767A.185.185,0,0,1,471.781-135.86Z" transform="translate(-1.785 -2.35)" fill="#ec631e"/><path d="M482.959-136.863a2.042,2.042,0,0,0-1.437-1.5,3.621,3.621,0,0,0-1.526-.076c.055-.316.095-.632.122-.938a7.167,7.167,0,0,0-.633-3.593,17.278,17.278,0,0,0-1.425-2.605,31.952,31.952,0,0,0-3.395-4.273c-.4-.436-.886-.932-1.4-1.425.3-.931.923-2.918,1.047-3.375a1.254,1.254,0,0,0-.7-1.492,1.132,1.132,0,0,0-.626-.072,1.257,1.257,0,0,0-.585.285.964.964,0,0,1-.14.072.678.678,0,0,1-.78-.119,2.88,2.88,0,0,0-1.3-.8,2.49,2.49,0,0,0-2.368.676c-.051.048-.106.1-.164.141a.838.838,0,0,1-.457.234h0c-.013,0-.05-.014-.106-.077a1.259,1.259,0,0,0-.5-.417,1.442,1.442,0,0,0-.77-.093,1.252,1.252,0,0,0-.8.426,1.206,1.206,0,0,0-.261,1.092l1.155,3.527-3.093,3.1a12.751,12.751,0,0,0-3.847,7.158,9.246,9.246,0,0,0,.375,4.354c-.257.106-.512.215-.762.332a1.459,1.459,0,0,0-1.256-.742H453.5a1.5,1.5,0,0,0-1.471,1.523v7.7a1.5,1.5,0,0,0,1.471,1.523h3.82a1.42,1.42,0,0,0,.839-.275h1.569l10.29.26c.023,0,.155.014.37.014a7.507,7.507,0,0,0,4.584-1.608c1.017-.806,1.988-1.68,2.928-2.524l.243-.219q1.665-1.5,3.3-3.015l.779-.721A2.6,2.6,0,0,0,482.959-136.863Zm-25.728,8.926h-3.637v-7.509h3.637Zm9.946-26.141a2.634,2.634,0,0,0,1.484-.586c.093-.073.183-.15.268-.229a.931.931,0,0,1,.814-.294,1.267,1.267,0,0,1,.552.352,2.32,2.32,0,0,0,2.172.634c-.212.683-.5,1.608-.736,2.344h-4.294c-.2-.594-.508-1.546-.753-2.3A1.673,1.673,0,0,0,467.177-154.079ZM460.6-140.81a11.278,11.278,0,0,1,3.345-6.164l3.242-3.243h4.826c.535.506,1.03,1.03,1.453,1.485a30.361,30.361,0,0,1,3.222,4.054,15.816,15.816,0,0,1,1.294,2.357,5.614,5.614,0,0,1,.5,2.8,5.442,5.442,0,0,1-.414,1.857l-.358.759-4.866,4.192-.013.011a2.245,2.245,0,0,0-.093-.661,4.219,4.219,0,0,0-2.224-2.151,28.1,28.1,0,0,0-3.175-1.478,9.354,9.354,0,0,0-2.764-.756,9.14,9.14,0,0,0-2.531.245c-.388.084-.772.19-1.155.3A7.678,7.678,0,0,1,460.6-140.81Zm20.5,5.249-.774.718q-1.633,1.51-3.286,3l-.244.22c-.922.827-1.875,1.684-2.851,2.458a5.817,5.817,0,0,1-3.811,1.239l-10.938-.278v.01l-.392,0v-6.444l.522-.227.011,0,.076-.035.392-.17c.479-.191.963-.368,1.456-.521a7.7,7.7,0,0,1,3.783-.45,18.4,18.4,0,0,1,5.011,2.145c.563.325,1.391.838,1.061,1.591-.274.626-1,.568-1.56.446a27.446,27.446,0,0,1-5.246-1.967.847.847,0,0,0-1.122.295.825.825,0,0,0,.294,1.122,28.076,28.076,0,0,0,5.716,2.149,3.155,3.155,0,0,0,2.713-.45l0-.005a2.608,2.608,0,0,0,2.078-.851l6.126-5.274a2.261,2.261,0,0,1,.936,0,.427.427,0,0,1,.317.345A1.041,1.041,0,0,1,481.091-135.56Z" fill="#ec631e" stroke="#ec631e" stroke-linecap="round" stroke-width="0.2"/></g></svg>