<svg xmlns="http://www.w3.org/2000/svg" width="27" height="27" viewBox="0 0 27 27">
  <path id="Trazado_6744" data-name="Trazado 6744" d="M14.555,7.277v5.786l3.84,3.84A1.055,1.055,0,0,1,16.9,18.394l-4.148-4.148a1.055,1.055,0,0,1-.309-.746V7.277a1.055,1.055,0,0,1,2.109,0ZM17.648,0h-8.3A9.319,9.319,0,0,0,3.219,2.293V1.055a1.055,1.055,0,0,0-2.109,0V5.2A1.057,1.057,0,0,0,2.165,6.258H6.313a1.055,1.055,0,1,0,0-2.109h-2A7.267,7.267,0,0,1,9.352,2.109h8.3a7.25,7.25,0,0,1,7.242,7.242v8.3a7.25,7.25,0,0,1-7.242,7.242h-8.3a7.25,7.25,0,0,1-7.242-7.242V13.5A1.055,1.055,0,0,0,0,13.5v4.148A9.362,9.362,0,0,0,9.352,27h8.3A9.362,9.362,0,0,0,27,17.648v-8.3A9.362,9.362,0,0,0,17.648,0Z" fill="#f3f4fa"/>
</svg>
