<svg xmlns="http://www.w3.org/2000/svg" width="163.382" height="134.077" viewBox="0 0 163.382 134.077">
  <g id="Group_1161" data-name="Group 1161" transform="translate(-1409.752 -103.917)">
    <path id="Path_7007" data-name="Path 7007" d="M1560.2,126.378c-20.875-16.049-41.122-2.97-63.707-7.594-22.747-4.658-31.81-20.168-57.719-13.009-22.951,6.342-36.876,31.767-24.26,53.054,3.6,6.066,9.72,10.642,12.223,17.429,4.038,10.949-2.108,19.355-.909,30.115,4.982,44.707,73.259,27.39,98.381,13.481,39.4-21.814,66.054-70.362,35.99-93.476Z" transform="translate(0)" fill="#f49c55" opacity="0.4" style="isolation: isolate"/>
    <path id="Path_7008" data-name="Path 7008" d="M1585.026,193.8h-7.671a42.72,42.72,0,0,0-5.176-12.487l5.425-5.428a3.116,3.116,0,0,0,0-4.41l-9.72-9.72a3.116,3.116,0,0,0-4.41,0l-5.428,5.425a42.722,42.722,0,0,0-12.487-5.176v-7.671a3.116,3.116,0,0,0-3.118-3.118h-1.422a20.784,20.784,0,0,0-17.213-20.29,1.6,1.6,0,0,0-1.689,2.317l6.368,12.094a3.191,3.191,0,0,1-1.336,4.31l-12.789,6.736a3.191,3.191,0,0,1-4.31-1.336l-6.144-11.664a1.6,1.6,0,0,0-2.894.149,20.806,20.806,0,0,0,1.6,18.863l-9.081,9.081a3.116,3.116,0,0,0,0,4.41l5.425,5.428a42.726,42.726,0,0,0-5.176,12.487h-7.671a3.116,3.116,0,0,0-3.118,3.118v13.747a3.116,3.116,0,0,0,3.118,3.118h7.671a42.726,42.726,0,0,0,5.176,12.487l-5.425,5.428a3.116,3.116,0,0,0,0,4.41l9.72,9.72a3.116,3.116,0,0,0,4.41,0l5.428-5.425a42.723,42.723,0,0,0,12.487,5.176v7.671a3.116,3.116,0,0,0,3.118,3.118h13.747a3.116,3.116,0,0,0,3.118-3.118V245.58a42.723,42.723,0,0,0,12.487-5.176l5.428,5.425a3.116,3.116,0,0,0,4.41,0l9.72-9.72a3.116,3.116,0,0,0,0-4.41l-5.425-5.428a42.72,42.72,0,0,0,5.176-12.487h7.671a3.116,3.116,0,0,0,3.118-3.118V196.919a3.116,3.116,0,0,0-3.118-3.117Zm-80.865,9.991a31.285,31.285,0,0,1,7.711-20.611V224.4a31.286,31.286,0,0,1-7.711-20.611Zm24.459,30.634v-61.22c0-.016,0-.032,0-.048a31.574,31.574,0,0,1,16.044.569,7.592,7.592,0,0,0-.621,3v34.736h-1.9a3.324,3.324,0,0,0-.366,6.628c-2.075,4-3.545,10.055-3.976,17.028-.738.052-1.483.08-2.234.08a31.5,31.5,0,0,1-6.947-.773Zm27.941-7.278a34.824,34.824,0,0,0-2.964-9.056,3.324,3.324,0,0,0-.364-6.628h-1.9V176.729c0-.034,0-.069,0-.1a31.407,31.407,0,0,1,5.233,50.523Z" transform="translate(-49.869 -18.374)" fill="#ee7b0f" opacity="0.66" style="isolation: isolate"/>
    <circle id="Ellipse_499" data-name="Ellipse 499" cx="31.405" cy="31.405" r="31.405" transform="translate(1460.038 148.27)" fill="#fff"/>
    <path id="Path_7009" data-name="Path 7009" d="M1603.026,219.148h-7.671a42.723,42.723,0,0,0-5.176-12.487l5.425-5.428a3.116,3.116,0,0,0,0-4.41l-9.72-9.72a3.116,3.116,0,0,0-4.41,0l-5.428,5.425a42.722,42.722,0,0,0-12.487-5.176v-7.671a3.116,3.116,0,0,0-3.118-3.118h-13.747a3.116,3.116,0,0,0-3.118,3.118v7.671a42.722,42.722,0,0,0-12.487,5.176l-5.428-5.425a3.116,3.116,0,0,0-4.41,0l-9.72,9.72a3.116,3.116,0,0,0,0,4.41l5.425,5.428a42.717,42.717,0,0,0-5.176,12.487h-7.671a3.116,3.116,0,0,0-3.118,3.118v13.747a3.116,3.116,0,0,0,3.118,3.118h7.671a42.717,42.717,0,0,0,5.176,12.487l-5.425,5.428a3.116,3.116,0,0,0,0,4.41l9.72,9.72a3.116,3.116,0,0,0,4.41,0l5.428-5.425a42.722,42.722,0,0,0,12.487,5.176V278.6a3.116,3.116,0,0,0,3.118,3.118h13.747a3.116,3.116,0,0,0,3.118-3.118v-7.671a42.722,42.722,0,0,0,12.487-5.176l5.428,5.425a3.116,3.116,0,0,0,4.41,0l9.72-9.72a3.116,3.116,0,0,0,0-4.41l-5.425-5.428a42.723,42.723,0,0,0,5.176-12.487h7.671a3.116,3.116,0,0,0,3.118-3.118V222.265a3.116,3.116,0,0,0-3.118-3.118Zm-49.458,41.4a31.406,31.406,0,1,1,31.406-31.406A31.409,31.409,0,0,1,1553.568,260.545Z" transform="translate(-62.125 -49.464)" fill="#fff"/>
    <path id="Path_7010" data-name="Path 7010" d="M1595.99,176.563h-11.466a3.116,3.116,0,0,0-3.118,3.118v7.671a42.72,42.72,0,0,0-12.487,5.176l-5.428-5.425a3.116,3.116,0,0,0-4.41,0l-2.53,2.531a20.824,20.824,0,0,0,8.842,10.7,4.691,4.691,0,0,1,2.307,4.011v4.184a31.319,31.319,0,0,1,22.433-10.767,20.7,20.7,0,0,0,5.856-21.2Z" transform="translate(-99.955 -49.464)" fill="#ee7b0f"/>
    <path id="Path_7011" data-name="Path 7011" d="M1691.512,384.336a31.71,31.71,0,0,1-5.23,3.813,31.308,31.308,0,0,1-13.53,4.158c.775-12.541,4.908-22.114,9.886-22.114,3.855,0,7.2,5.734,8.875,14.143Z" transform="translate(-179.075 -181.305)" fill="#ee7b0f"/>
    <path id="Path_7012" data-name="Path 7012" d="M1695.306,378.879a7.012,7.012,0,0,1-1.879.252h-11.089a7.082,7.082,0,0,1-1.886-.255c1.835-5.332,4.484-8.683,7.429-8.683s5.594,3.351,7.426,8.686Z" transform="translate(-184.318 -181.305)" fill="#f9b27d"/>
    <path id="Path_7013" data-name="Path 7013" d="M1692.322,406.419V414.8a31.115,31.115,0,0,0,7.285-3.076v-5.31a1.6,1.6,0,0,0-1.6-1.6h-4.094A1.6,1.6,0,0,0,1692.322,406.419Z" transform="translate(-192.4 -204.885)" fill="#fff"/>
    <path id="Path_7014" data-name="Path 7014" d="M1565.028,155.237V206.4a31.383,31.383,0,0,0,16.748,10.022V155.207a4.7,4.7,0,0,1,2.3-4.009,20.759,20.759,0,0,0-7.117-38.27,1.6,1.6,0,0,0-1.689,2.317l6.368,12.093a3.191,3.191,0,0,1-1.336,4.31l-12.789,6.736a3.191,3.191,0,0,1-4.311-1.336l-6.144-11.664a1.6,1.6,0,0,0-2.894.149,20.793,20.793,0,0,0,8.554,25.692A4.69,4.69,0,0,1,1565.028,155.237Z" transform="translate(-97.28 -6.118)" fill="#f9b27d"/>
    <path id="Path_7015" data-name="Path 7015" d="M1699.605,279.092h-7.287V240.5a7.59,7.59,0,0,1,.876-3.54l1.771-3.36a1.127,1.127,0,0,1,1.994,0l1.771,3.36a7.591,7.591,0,0,1,.876,3.54v38.59Z" transform="translate(-192.397 -87.892)" fill="#f9b27d"/>
    <path id="Path_7016" data-name="Path 7016" d="M1690.357,372.011h-11.09a3.324,3.324,0,0,1,0-6.649h11.09a3.324,3.324,0,0,1,0,6.649Z" transform="translate(-181.248 -178.016)" fill="#ee7b0f"/>
    <path id="Path_7017" data-name="Path 7017" d="M1614.087,314.9V280.914a1.595,1.595,0,1,1,3.19,0V314.9a1.595,1.595,0,1,1-3.19,0Z" transform="translate(-139.13 -119.43)" fill="#ee7b0f"/>
    <path id="Path_7018" data-name="Path 7018" d="M1698.278,139.452a4.658,4.658,0,1,1,3.295-1.363,4.644,4.644,0,0,1-3.295,1.363Zm0-6.126a1.468,1.468,0,1,0,1.039.43A1.464,1.464,0,0,0,1698.278,133.327Z" transform="translate(-193.284 -17.853)" fill="#ee7b0f"/>
    <g id="Group_1160" data-name="Group 1160" transform="translate(1430.475 122.356)">
      <path id="Path_7019" data-name="Path 7019" d="M1479.35,401.335a4.658,4.658,0,1,1,3.295-1.363A4.646,4.646,0,0,1,1479.35,401.335Zm0-6.126a1.468,1.468,0,1,0,1.039.43,1.465,1.465,0,0,0-1.039-.43Z" transform="translate(-1474.692 -318.523)" fill="#f9b27d"/>
      <path id="Path_7020" data-name="Path 7020" d="M1831.752,404.118a4.658,4.658,0,1,1,3.295-1.363h0a4.645,4.645,0,0,1-3.295,1.363Zm2.167-2.491h0Zm-2.167-3.635a1.468,1.468,0,1,0,1.039.43A1.465,1.465,0,0,0,1831.752,397.993Z" transform="translate(-1714.641 -320.418)" fill="#f9b27d"/>
      <path id="Path_7021" data-name="Path 7021" d="M1731.489,164.332h-1.037v-1.037a1.6,1.6,0,1,0-3.191,0v1.037h-1.037a1.6,1.6,0,1,0,0,3.191h1.037v1.037a1.6,1.6,0,1,0,3.191,0v-1.037h1.037a1.6,1.6,0,0,0,0-3.191Z" transform="translate(-1644.872 -161.699)" fill="#f9b27d"/>
    </g>
    <path id="Path_7022" data-name="Path 7022" d="M1818.052,438.064h-1.037v-1.037a1.6,1.6,0,1,0-3.191,0v1.037h-1.037a1.6,1.6,0,0,0,0,3.191h1.037v1.037a1.6,1.6,0,1,0,3.191,0v-1.037h1.037a1.6,1.6,0,1,0,0-3.191Z" transform="translate(-273.338 -225.725)" fill="#ee7b0f"/>
    <path id="Path_7023" data-name="Path 7023" d="M1599.62,170.8h-6.431a44.232,44.232,0,0,0-4.411-10.642l4.549-4.549a4.719,4.719,0,0,0,0-6.667l-1.743-1.743a1.6,1.6,0,1,0-2.256,2.256l1.743,1.743a1.524,1.524,0,0,1,0,2.154l-5.427,5.427a1.6,1.6,0,0,0-.231,1.964,41.051,41.051,0,0,1,4.982,12.021,1.6,1.6,0,0,0,1.552,1.226h7.672a1.524,1.524,0,0,1,1.523,1.523v13.747a1.524,1.524,0,0,1-1.523,1.523h-7.672a1.6,1.6,0,0,0-1.552,1.226,41.05,41.05,0,0,1-4.982,12.021,1.6,1.6,0,0,0,.231,1.964l5.427,5.427a1.525,1.525,0,0,1,0,2.154l-9.721,9.72a1.523,1.523,0,0,1-2.154,0l-5.427-5.427a1.6,1.6,0,0,0-1.964-.231,41.068,41.068,0,0,1-12.021,4.982,1.6,1.6,0,0,0-1.226,1.552v7.672a1.525,1.525,0,0,1-1.523,1.523H1543.29a1.525,1.525,0,0,1-1.523-1.523v-7.672a1.6,1.6,0,0,0-1.226-1.552,41.072,41.072,0,0,1-12.021-4.982,1.6,1.6,0,0,0-1.964.231l-5.428,5.427a1.523,1.523,0,0,1-2.154,0l-9.72-9.72a1.526,1.526,0,0,1,0-2.154l5.427-5.427a1.6,1.6,0,0,0,.231-1.964,41.056,41.056,0,0,1-4.982-12.021,1.6,1.6,0,0,0-1.552-1.226h-7.672a1.524,1.524,0,0,1-1.523-1.523V175.515a1.525,1.525,0,0,1,1.523-1.523h7.672a1.6,1.6,0,0,0,1.552-1.226,41.058,41.058,0,0,1,4.982-12.021,1.6,1.6,0,0,0-.231-1.964l-5.427-5.427a1.524,1.524,0,0,1,0-2.154l7.713-7.713a22.519,22.519,0,0,0,6.373,5.7,3.077,3.077,0,0,1,1.533,2.643v9.36a33,33,0,1,0,42.59-6.907,9.23,9.23,0,0,0-1-3.246l-1.771-3.359a2.714,2.714,0,0,0-2.408-1.454h0a2.715,2.715,0,0,0-2.408,1.453l-1.453,2.756a33.092,33.092,0,0,0-12.748-.742,3.3,3.3,0,0,1,.669-.535,22.311,22.311,0,0,0,10.825-17.738,1.52,1.52,0,0,1,1.391,1.51V140.6a1.6,1.6,0,0,0,1.226,1.552,41.062,41.062,0,0,1,12.021,4.983,1.6,1.6,0,0,0,1.964-.231l5.427-5.427a1.526,1.526,0,0,1,2.154,0l1.637,1.637a1.6,1.6,0,1,0,2.256-2.256l-1.637-1.637a4.718,4.718,0,0,0-6.667,0l-4.55,4.55a44.22,44.22,0,0,0-10.641-4.411v-6.43a4.717,4.717,0,0,0-4.61-4.709,22.37,22.37,0,0,0-18.468-20.271,3.193,3.193,0,0,0-3.373,4.632l6.368,12.093a1.6,1.6,0,0,1-.668,2.155l-12.789,6.736a1.595,1.595,0,0,1-2.155-.668l-6.144-11.664a3.193,3.193,0,0,0-5.782.288,22.5,22.5,0,0,0,1.064,19.224l-8.2,8.2a4.719,4.719,0,0,0,0,6.667l4.549,4.549a44.212,44.212,0,0,0-4.411,10.642H1500.7a4.719,4.719,0,0,0-4.714,4.714v13.747a4.719,4.719,0,0,0,4.714,4.714h6.431a44.239,44.239,0,0,0,4.411,10.642L1507,209.168a4.72,4.72,0,0,0,0,6.667l9.72,9.72a4.713,4.713,0,0,0,6.667,0l4.55-4.549a44.206,44.206,0,0,0,10.641,4.411v6.43a4.719,4.719,0,0,0,4.714,4.714h13.746a4.719,4.719,0,0,0,4.714-4.714v-6.43a44.224,44.224,0,0,0,10.641-4.411l4.549,4.549a4.713,4.713,0,0,0,6.667,0l9.72-9.72a4.72,4.72,0,0,0,0-6.667l-4.549-4.549a44.214,44.214,0,0,0,4.411-10.642h6.431a4.719,4.719,0,0,0,4.714-4.714V175.516a4.718,4.718,0,0,0-4.713-4.715Zm-74.749-4.183V198.15a29.763,29.763,0,0,1,0-31.531Zm42.957,25.036a1.729,1.729,0,1,1,0,3.458h-11.09a1.729,1.729,0,0,1,0-3.458Zm-10.468,6.649h9.843a34.352,34.352,0,0,1,2.195,6.838,29.7,29.7,0,0,1-15.263,6.791,42.994,42.994,0,0,1,3.226-13.629Zm22.612-15.915a29.694,29.694,0,0,1-7.907,20.2,35.506,35.506,0,0,0-1.686-5,4.915,4.915,0,0,0-2.55-9.12h-.305v-30.31a29.569,29.569,0,0,1,12.449,24.235Zm-19.045-29.862,1.356-2.573,1.356,2.573a6.022,6.022,0,0,1,.692,2.8v33.14h-4.1v-33.14a6.024,6.024,0,0,1,.692-2.8Zm-43.839-29.8,6.144,11.664a4.791,4.791,0,0,0,6.466,2l12.789-6.736a4.792,4.792,0,0,0,2-6.465L1538.13,111.1a19.164,19.164,0,0,1,6.563,35.333,6.255,6.255,0,0,0-3.072,5.375v51.421a1.6,1.6,0,0,0,3.191,0V153.059a30.078,30.078,0,0,1,12.437.368,9.176,9.176,0,0,0-.2,1.9v33.14h-.306a4.915,4.915,0,0,0-2.55,9.12,48.109,48.109,0,0,0-3.28,14.605q-.372.009-.746.01a29.74,29.74,0,0,1-22.1-9.826v-50.54a6.325,6.325,0,0,0-3.081-5.379,19.192,19.192,0,0,1-7.893-23.73Z" transform="translate(-58.72 -2.714)" fill="#6f6f6e"/>
  </g>
</svg>
