<svg id="Illus_28" data-name="Illus 28" xmlns="http://www.w3.org/2000/svg" xmlns:xlink="http://www.w3.org/1999/xlink" width="151.698" height="128.365" viewBox="0 0 151.698 128.365">
  <defs>
    <linearGradient id="linear-gradient" x1="0.5" x2="0.5" y2="1" gradientUnits="objectBoundingBox">
      <stop offset="0" stop-color="#f6b696"/>
      <stop offset="1" stop-color="#fff" stop-opacity="0.102"/>
    </linearGradient>
  </defs>
  <path id="Path_7660" data-name="Path 7660" d="M1071.965,2731.129c-1.708,22.918,30.57,44.059,72.1,47.22s76.573-12.855,78.281-35.772a24.548,24.548,0,0,0-1.733-10.9,30.258,30.258,0,0,1-.752-19.785,42.1,42.1,0,0,0,1.6-8.324c2.084-23.069-15.055-43.553-37.911-45.293a41.109,41.109,0,0,0-39.921,22.867,26.791,26.791,0,0,1-20.355,14.891C1094.523,2699.828,1073.285,2713.416,1071.965,2731.129Z" transform="translate(-1071.9 -2658.151)" opacity="0.4" fill="url(#linear-gradient)" style="isolation: isolate"/>
  <path id="Path_7025" data-name="Path 7025" d="M2075.988,2767.335h-44.18a7.023,7.023,0,0,1-7.035-7.029v-89.2a7.023,7.023,0,0,1,7.035-7.029h44.2a7.023,7.023,0,0,1,7.035,7.029v89.2A7.057,7.057,0,0,1,2075.988,2767.335Z" transform="translate(-1979.32 -2646.295)" fill="rgba(238,123,15,0.1)" style="isolation: isolate"/>
  <path id="Path_7026" data-name="Path 7026" d="M2075.988,2743.335h-44.18a7.022,7.022,0,0,1-7.035-7.029v-89.2a7.023,7.023,0,0,1,7.035-7.029h44.2a7.023,7.023,0,0,1,7.035,7.029v89.2A7.057,7.057,0,0,1,2075.988,2743.335Z" transform="translate(-1979.32 -2627.917)" fill="#ec631e" opacity="0.75" style="isolation: isolate"/>
  <path id="Path_7027" data-name="Path 7027" d="M2024.773,2682.983h58.273v83.15h-58.273Z" transform="translate(-1979.32 -2660.768)" fill="#fcfbff"/>
  <path id="Path_7029" data-name="Path 7029" d="M2072.16,2740.678h-44.18a8.213,8.213,0,0,1-8.208-8.2v-89.2a8.213,8.213,0,0,1,8.208-8.2h44.2a8.213,8.213,0,0,1,8.208,8.2v89.2A8.249,8.249,0,0,1,2072.16,2740.678Zm-44.18-103.252a5.862,5.862,0,0,0-5.863,5.857v89.2a5.862,5.862,0,0,0,5.863,5.857h44.2a5.862,5.862,0,0,0,5.863-5.857v-89.2a5.862,5.862,0,0,0-5.863-5.857Z" transform="translate(-1975.492 -2624.089)" fill="#6f6e6d"/>
  <path id="Path_7039" data-name="Path 7039" d="M1967.526,2929.083a3.35,3.35,0,1,1,3.354-3.35A3.351,3.351,0,0,1,1967.526,2929.083Zm0-4.357a1.007,1.007,0,1,0,1.009,1.007A1,1,0,0,0,1967.526,2924.726Z" transform="translate(-1932.93 -2844.077)" fill="#f6b696" style="isolation: isolate"/>
  <path id="Path_7040" data-name="Path 7040" d="M1958.227,2722.684a3.35,3.35,0,1,1,3.353-3.351A3.351,3.351,0,0,1,1958.227,2722.684Zm0-4.358a1.007,1.007,0,1,0,1.009,1.007A1,1,0,0,0,1958.227,2718.326Z" transform="translate(-1925.812 -2686.036)" fill="#f6b696" opacity="0.4" style="isolation: isolate"/>
  <path id="Path_7041" data-name="Path 7041" d="M2308.725,2737.481a1.161,1.161,0,0,1-1.173-1.172,1.41,1.41,0,0,0-1.407-1.406,1.172,1.172,0,1,1,0-2.343,1.41,1.41,0,0,0,1.407-1.405,1.172,1.172,0,0,1,2.345,0,1.41,1.41,0,0,0,1.407,1.405,1.172,1.172,0,1,1,0,2.343,1.41,1.41,0,0,0-1.407,1.406A1.176,1.176,0,0,1,2308.725,2737.481Z" transform="translate(-2193.813 -2696.754)" fill="#f6b696" opacity="0.58" style="isolation: isolate"/>
  <path id="Path_7042" data-name="Path 7042" d="M2307.025,2990.98a1.161,1.161,0,0,1-1.172-1.172,1.411,1.411,0,0,0-1.407-1.406,1.171,1.171,0,1,1,0-2.343,1.411,1.411,0,0,0,1.407-1.406,1.172,1.172,0,0,1,2.345,0,1.411,1.411,0,0,0,1.407,1.406,1.171,1.171,0,1,1,0,2.343,1.411,1.411,0,0,0-1.407,1.406A1.161,1.161,0,0,1,2307.025,2990.98Z" transform="translate(-2192.511 -2890.863)" fill="#ee7b0f" opacity="0.58" style="isolation: isolate"/>
  <path id="Path_7043" data-name="Path 7043" d="M1977.225,2972.48a1.161,1.161,0,0,1-1.173-1.172,1.411,1.411,0,0,0-1.407-1.406,1.171,1.171,0,1,1,0-2.343,1.411,1.411,0,0,0,1.407-1.406,1.172,1.172,0,0,1,2.345,0,1.411,1.411,0,0,0,1.407,1.406,1.171,1.171,0,1,1,0,2.343,1.41,1.41,0,0,0-1.407,1.406A1.175,1.175,0,0,1,1977.225,2972.48Z" transform="translate(-1940.05 -2876.695)" fill="#f6b696" style="isolation: isolate"/>
  <path id="Path_7052" data-name="Path 7052" d="M2251.7,3025.459h-3.551a.813.813,0,1,1,0-1.627h3.551a.813.813,0,1,1,0,1.627Z" transform="translate(-2149.69 -2921.758)" fill="#fff"/>
  <path id="Path_7061" data-name="Path 7061" d="M2169.725,3092.493h-.53v-.528a.814.814,0,0,0-1.628,0v.528h-.529a.813.813,0,1,0,0,1.627h.529v.528a.814.814,0,0,0,1.628,0v-.528h.53a.813.813,0,1,0,0-1.627Z" transform="translate(-2087.601 -2973.305)" fill="#ec631e"/>
  <path id="Path_7063" data-name="Path 7063" d="M2452.188,3098.054h-.529v-.528a.814.814,0,0,0-1.627,0v.528h-.53a.813.813,0,1,0,0,1.627h.53v.529a.814.814,0,0,0,1.627,0v-.529h.529a.813.813,0,1,0,0-1.627Z" transform="translate(-2303.826 -2977.563)" fill="#f6b696"/>
  <path id="Path_7064" data-name="Path 7064" d="M2444.4,2867.669a2.376,2.376,0,1,1,2.1-3.482,2.378,2.378,0,0,1-2.1,3.482Zm0-3.125a.753.753,0,0,0-.348.086.75.75,0,1,0,.571-.052A.766.766,0,0,0,2444.4,2864.543Z" transform="translate(-2295.077 -2826.96)" fill="#f6b696"/>
  <path id="Path_7065" data-name="Path 7065" d="M2184.617,3120.524a2.375,2.375,0,1,1,2.272-1.67A2.382,2.382,0,0,1,2184.617,3120.524Zm0-3.125a.749.749,0,1,0,.222.034A.75.75,0,0,0,2184.619,3117.4Zm1.492,1.212h0Z" transform="translate(-2099.862 -2992.158)" fill="#f6b696" opacity="0.7"/>
  <g id="Group_1500" data-name="Group 1500" transform="translate(53.578 33.778)">
    <path id="Path_7661" data-name="Path 7661" d="M11580.473-12616.342l-.619-3.158s2.7-7.418,6.361-8.515,4.3-1.6,6-1.083a7.421,7.421,0,0,1,2.008.773l2.768-1.141,4.172,1.141s2.739,2.356,2.935,4.569a37.073,37.073,0,0,1-.322,6.087l-.6,3.063-1.744-3.062-2.565-1.832-1.482-2.315-1.736,2.791s-2.476,3.111-5.174,2.067-5.149-2.067-5.149-2.067l-3.017.888Z" transform="translate(-11569.928 12630.381)" fill="#ec631e" stroke="#ec631e" stroke-width="1"/>
    <path id="Path_7583" data-name="Path 7583" d="M62.068,51.034a1.025,1.025,0,1,1-1.026-1.025A1.027,1.027,0,0,1,62.068,51.034Zm-22.555,0v-1.3a13.765,13.765,0,0,1,6.663-11.775,34.141,34.141,0,0,1,8.811-3.719v-1.65a9.426,9.426,0,0,1-1.4-1.551A24.534,24.534,0,0,1,50.6,25.554a2.148,2.148,0,0,1-1.648-1.222c-.31-.656-2.459-4.631-2.788-5.338A3.092,3.092,0,0,1,47.8,14.858a3.261,3.261,0,0,1,.708-.205A11.847,11.847,0,0,1,60.008,0a4.383,4.383,0,0,1,3.059,1.235.023.023,0,0,0,.031,0A4.384,4.384,0,0,1,66.157,0,8.054,8.054,0,0,1,74.2,8.045V9.911a17.246,17.246,0,0,1-.656,4.722,2.86,2.86,0,0,1,.725.21,3.094,3.094,0,0,1,1.639,4.136c-.348.7-2.478,4.682-2.788,5.338a2.149,2.149,0,0,1-1.647,1.222,24.536,24.536,0,0,1-2.989,5.5,9.436,9.436,0,0,1-1.406,1.553v1.65a34.143,34.143,0,0,1,8.811,3.719,13.765,13.765,0,0,1,6.663,11.775v1.3a1.025,1.025,0,0,1-1.025,1.025H65.654a1.026,1.026,0,0,1-1.023-1.093,1.049,1.049,0,0,1,1.058-.956H80.5a11.882,11.882,0,0,0-5.668-10.288,32.077,32.077,0,0,0-7.874-3.387,6.046,6.046,0,0,1-11.858,0,32.085,32.085,0,0,0-7.874,3.387,11.738,11.738,0,0,0-5.668,10.288h14.87a1.026,1.026,0,0,1,1.021,1.1,1.049,1.049,0,0,1-1.059.954H40.537A1.025,1.025,0,0,1,39.512,51.034ZM50.225,11.993a5.306,5.306,0,0,1,3.942-1.848,5.224,5.224,0,0,1,3.3,1.177,4.827,4.827,0,0,0,7.866-3.759,1.025,1.025,0,0,1,2.049,0,3.292,3.292,0,0,0,1.838,2.961,6.773,6.773,0,0,1,2.662,2.225,15.257,15.257,0,0,0,.265-2.839V8.045A6,6,0,0,0,66.157,2.05a2.344,2.344,0,0,0-1.635.66,2.065,2.065,0,0,1-2.878,0,2.343,2.343,0,0,0-1.635-.66A9.762,9.762,0,0,0,50.225,11.993Zm14.8,21.965a9.238,9.238,0,0,1-7.993,0V35.15a4,4,0,0,0,7.993,0Zm1.794-4.118a22.441,22.441,0,0,0,2.993-5.731,1.021,1.021,0,0,1,1.408-.583c.38-.81,2.521-4.769,2.831-5.424a1.06,1.06,0,0,0-.587-1.374,1.1,1.1,0,0,0-.934.047,1.03,1.03,0,0,1-1.5-.762,4.628,4.628,0,0,0-2.677-3.634A5.137,5.137,0,0,1,66.5,10.908a7.953,7.953,0,0,1-1.148,1.528,6.833,6.833,0,0,1-9.177.475,3.153,3.153,0,0,0-4.205.213,3.354,3.354,0,0,0-.979,2.332v.4a1.027,1.027,0,0,1-1.485.916,1.108,1.108,0,0,0-.9-.03,1.043,1.043,0,0,0-.587,1.374c.307.658,2.5,4.675,2.82,5.409a1.049,1.049,0,0,1,1.42.6,22.473,22.473,0,0,0,2.989,5.718,7.123,7.123,0,0,0,11.58,0ZM83.066,6.149V1.025A1.025,1.025,0,0,0,82.041,0H76.917a1.025,1.025,0,1,0,0,2.05h4.1v4.1a1.025,1.025,0,1,0,2.05,0Zm0,27.977V29a1.025,1.025,0,1,0-2.05,0v4.1h-4.1a1.025,1.025,0,1,0,0,2.05h5.124A1.025,1.025,0,0,0,83.066,34.125ZM41.05,6.149V2.05h4.1a1.025,1.025,0,1,0,0-2.05H40.025A1.025,1.025,0,0,0,39,1.025V6.149a1.025,1.025,0,0,0,2.05,0Zm5.124,27.977A1.025,1.025,0,0,0,45.149,33.1h-4.1V29A1.025,1.025,0,1,0,39,29v5.124a1.025,1.025,0,0,0,1.025,1.025h5.124A1.025,1.025,0,0,0,46.173,34.125Z" transform="translate(-39 0)" fill="#6f6f6e"/>
  </g>
  <g id="Group_1508" data-name="Group 1508" transform="translate(88.603 69.796)">
    <g id="Group_1507" data-name="Group 1507" transform="translate(0.047 0.046)">
      <circle id="Ellipse_548" data-name="Ellipse 548" cx="10.387" cy="10.387" r="10.387" fill="#f1864f"/>
    </g>
    <g id="Group_1506" data-name="Group 1506" transform="translate(0 0)">
      <path id="Path_7001" data-name="Path 7001" d="M1119.514,212.573a10.433,10.433,0,1,1,10.433-10.433A10.445,10.445,0,0,1,1119.514,212.573Zm0-19.238a8.8,8.8,0,1,0,8.8,8.8A8.815,8.815,0,0,0,1119.514,193.334Z" transform="translate(-1109.081 -191.706)" fill="#6f6f6e"/>
    </g>
    <path id="Path_7662" data-name="Path 7662" d="M1139.922,206.3h0a1.119,1.119,0,0,1-.792-.328l-2.557-2.559a1.12,1.12,0,0,1,1.584-1.583l1.765,1.767,8.939-8.941a1.12,1.12,0,0,1,1.584,1.583l-9.732,9.734a1.122,1.122,0,0,1-.792.328Z" transform="translate(-1131.75 -189.88)" fill="#fffaf8"/>
  </g>
</svg>
