<svg id="Illus_27" data-name="Illus 27" xmlns="http://www.w3.org/2000/svg" xmlns:xlink="http://www.w3.org/1999/xlink" width="172.273" height="176.522" viewBox="0 0 172.273 176.522">
  <defs>
    <linearGradient id="linear-gradient" x1="0.439" y1="0.022" x2="0.769" y2="1.016" gradientUnits="objectBoundingBox">
      <stop offset="0" stop-color="#f6b696"/>
      <stop offset="1" stop-color="#fff" stop-opacity="0.514"/>
      <stop offset="1" stop-color="#f6b696"/>
    </linearGradient>
  </defs>
  <g id="Group_3616" data-name="Group 3616" transform="translate(-12738.948 16411)">
    <path id="Path_8203" data-name="Path 8203" d="M207.9,53.893a42.047,42.047,0,0,0-11.828-6.2c-11.542-3.979-20.616-11.1-25.716-19.93C160.913,11.427,139.471.014,114.523,0,81.855-.019,54.732,19.8,53.5,44.653c-.526,10.636,3.648,20.512,11.067,28.522,9.423,10.174,11.871,23.133,7.011,35.019-6.9,16.886-4.5,32.889,8.639,42.889,23.02,17.523,70.263,9.971,105.52-16.867s45.177-62.8,22.158-80.323Z" transform="translate(12690.913 -16395.008)" opacity="0.4" fill="url(#linear-gradient)"/>
    <path id="Shape" d="M82.678,26.3c0,9.631-5.625,16.855-13.719,20.821a35.369,35.369,0,0,1-15.62,3.46,35.713,35.713,0,0,1-15.782-3.541C29.585,43,24,35.915,24,26.3,24,11.776,37.112,0,53.339,0S82.678,11.776,82.678,26.3Z" transform="translate(12787.633 -16373.42)" fill="#f6b696"/>
    <path id="Shape-2" data-name="Shape" d="M40.127,0a29.906,29.906,0,0,0-3.035.142C51.863,1.5,63.4,12.687,63.4,26.3c0,9.631-5.625,16.855-13.719,20.821A34.9,34.9,0,0,1,36.91,50.443c1.072,0,2.145.142,3.237.142a35.369,35.369,0,0,0,15.6-3.46C63.841,43.078,69.466,35.935,69.466,26.3,69.466,11.776,56.334,0,40.127,0Z" transform="translate(12800.844 -16373.42)" fill="#ec631e"/>
    <path id="Shape-3" data-name="Shape" d="M44.533,48.477l-1.6,19.283a5.382,5.382,0,0,1-1.76,3.561,5.463,5.463,0,0,1-9.125-3.642l-1.6-24.1a23.067,23.067,0,0,0,13.8,4.9Z" transform="translate(12794.234 -16328.82)" fill="#ec631e"/>
    <path id="Shape-4" data-name="Shape" d="M78.631,61.168a6.07,6.07,0,0,1-4.937-2.509,13.334,13.334,0,0,1-4.411,6.07l-.182.162a25.454,25.454,0,0,1-13.921,4.37H50.85a23.067,23.067,0,0,1-13.8-4.816C32.7,60.743,30.981,55,32.8,47.591l-2.448,2.023A6.07,6.07,0,0,1,24,50.565V36.2l1.922,1.254L34.5,30.048c-1.538-2.448-.486-5.261,3.035-6.778a35.713,35.713,0,0,0,15.8,3.5,35.369,35.369,0,0,0,15.6-3.46c2.873,1.315,4.168,3.784,3.156,6.07,2.125.3,5.038,1.639,7.325,6.212A77.516,77.516,0,0,1,84.7,54.025a6.07,6.07,0,0,1-6.07,7.143Z" transform="translate(12787.633 -16349.605)" fill="#f6b696"/>
    <path id="Shape-5" data-name="Shape" d="M63.855,53.995A77.516,77.516,0,0,0,58.7,35.582c-2.286-4.573-5.2-5.908-7.325-6.212,1.012-2.307-.283-4.775-3.156-6.07a29.36,29.36,0,0,1-3.844,1.558,4.047,4.047,0,0,1,.951,4.532c2.125.3,5.038,1.639,7.325,6.212a77.516,77.516,0,0,1,5.139,18.393,6.07,6.07,0,0,1-2.995,6.293,6.067,6.067,0,0,0,9.065-6.293Z" transform="translate(12808.479 -16349.574)" fill="#ec631e"/>
    <path id="Shape-6" data-name="Shape" d="M46.41,33.37,50.315,47.7a4.046,4.046,0,0,0,.4.627" transform="translate(12810.566 -16339.27)" fill="#e8edfc"/>
    <path id="Shape-7" data-name="Shape" d="M39.41,48.282a25.454,25.454,0,0,0,13.88-4.35l.182-.162L51.894,67.545a5.463,5.463,0,0,1-10.886,0Z" transform="translate(12803.402 -16328.627)" fill="#ec631e"/>
    <path id="Shape-8" data-name="Shape" d="M51.254,43.943a18.858,18.858,0,0,1-6.07,3.015l-1.376,20.6A5.4,5.4,0,0,1,41.4,71.6a5.382,5.382,0,0,0,3.035.951,5.463,5.463,0,0,0,5.443-5.079L51.456,43.7Z" transform="translate(12805.439 -16328.697)" fill="#ec631e"/>
    <path id="Shape-9" data-name="Shape" d="M28.094,4.047V113.309a4.047,4.047,0,1,1-8.094,0V4.047a4.047,4.047,0,1,1,8.094,0Z" transform="translate(12783.539 -16373.42)" fill="#ec631e"/>
    <path id="Shape-10" data-name="Shape" d="M40.468,3V46.462c-1.356-10.5-11.594-14.872-24.281-13.111C1.619,35.374,0,9.07,0,9.07,37.23,21.21,40.468,3,40.468,3Z" transform="translate(12763.072 -16370.35)" fill="#f6b696"/>
    <path id="Shape-11" data-name="Shape" d="M17,10.466v25.94a13.88,13.88,0,0,1,6.07,10.117V3A11.958,11.958,0,0,1,17,10.466Z" transform="translate(12780.469 -16370.35)" fill="#ec631e"/>
    <path id="Shape-12" data-name="Shape" d="M33.712,33,28.35,37.553" transform="translate(12792.084 -16339.648)" fill="#e8edfc"/>
    <path id="Shape-13" data-name="Shape" d="M24.672,27.522V41.969l-6.5-4.209a6.063,6.063,0,0,1,6.5-10.238Z" transform="translate(12778.867 -16346.17)" fill="#e8edfc"/>
    <path id="Shape-14" data-name="Shape" d="M82.678,20.73c0,8.094-13.132,13.6-29.339,13.6S24,28.864,24,20.73,37.132,6,53.339,6,82.678,12.6,82.678,20.73Z" transform="translate(12787.633 -16367.279)" fill="#fff"/>
    <path id="Shape-15" data-name="Shape" d="M40.035,6H37c14.771.769,26.3,7.021,26.3,14.649S51.771,33.619,37,34.327h3.035c16.187,0,29.339-5.463,29.339-13.6S56.242,6,40.035,6Z" transform="translate(12800.938 -16367.279)" fill="#ec631e"/>
    <path id="Shape-16" data-name="Shape" d="M48.527,34.023V38.07A2.023,2.023,0,0,1,46.5,40.094h-6.07A2.023,2.023,0,0,1,38.41,38.07V34.023A2.023,2.023,0,0,1,40.433,32H46.5A2.023,2.023,0,0,1,48.527,34.023Z" transform="translate(12802.379 -16340.672)" fill="#ec631e"/>
    <g id="whites" transform="translate(12763.072 -16361.279)">
      <path id="Shape-17" data-name="Shape" d="M6.252,1.841C4.229,1.315,2.205.708,0,0,0,0,1.619,26.3,16.187,24.281c.688-.1,1.356-.162,2.023-.223C9.328,21.691,6.839,7.041,6.252,1.841Z" fill="#fff"/>
      <path id="Shape-18" data-name="Shape" d="M30.742,80.083V35.994l-6.5-4.209a6.07,6.07,0,0,1-2.428-7A5.908,5.908,0,0,1,24.51,21.4a6.056,6.056,0,0,0-6.333,10.319l6.5,4.269V80.083a4.047,4.047,0,0,0,7.082,2.651,4.047,4.047,0,0,1-1.012-2.651Z" transform="translate(15.796 21.086)" fill="#fff"/>
      <path id="Shape-19" data-name="Shape" d="M28.054,15.256c-.344,0-4.816-4.249-15.924-3.318a20.234,20.234,0,0,1,9.854,3.318,13.921,13.921,0,0,1,5.746,8.3c.425,1.8.324,1.639.324,6.839a6.07,6.07,0,0,1,6.07.162c0-5.382.1-5.18-.324-7A13.921,13.921,0,0,0,28.054,15.256Z" transform="translate(12.414 12.08)" fill="#fff"/>
    </g>
    <g id="Layer_2" transform="translate(12757.002 -16375.447)">
      <path id="Shape-20" data-name="Shape" d="M4,17.1l3.642-1.7a15.519,15.519,0,0,0,4.168,5.706,7.851,7.851,0,0,0,6.07,1.6l.567,4.047A12.14,12.14,0,0,1,9.321,24.3,19.829,19.829,0,0,1,4,17.1Z" transform="translate(4.094 13.741)" fill="#fff"/>
      <g id="Group_3402" data-name="Group 3402">
        <path id="Shape-21" data-name="Shape" d="M8.094,52.023A2.023,2.023,0,0,0,6.07,50H2.023a2.023,2.023,0,0,0,0,4.047H6.07A2.023,2.023,0,0,0,8.094,52.023Z" transform="translate(0 49.15)" fill="#6f6e6d"/>
        <path id="Shape-22" data-name="Shape" d="M117.3,100.148H99.252l.506-7.669a15.3,15.3,0,0,0,3.076-3.7,8.094,8.094,0,0,0,4.35,1.254,8.742,8.742,0,0,0,1.6-.162,8.094,8.094,0,0,0,6.414-9.348,78.2,78.2,0,0,0-5.342-18.979,12.929,12.929,0,0,0-6.718-6.778,6.232,6.232,0,0,0-1.74-4.411,24.544,24.544,0,0,0,11.857-21.023C113.254,13.709,99.09,1,81.891,1A32.071,32.071,0,0,0,54.576,15.449V7.072a6.07,6.07,0,0,0-12.14,0v1.8a10.117,10.117,0,0,1-4.957,5.888c-4.613,2.691-14.042,4.613-32.86-1.518a2.023,2.023,0,0,0-2.549,1.295,1.9,1.9,0,0,0,0,.749A50.584,50.584,0,0,0,6.116,31.778a2.023,2.023,0,0,0,2.752.951,2.023,2.023,0,0,0,.789-2.59A44.191,44.191,0,0,1,6.358,18a70.049,70.049,0,0,0,19.687,3.359A26.3,26.3,0,0,0,39.683,18.14a16.349,16.349,0,0,0,2.752-2.023V43.331a16.713,16.713,0,0,0-2.145-2.023c-4.816-3.683-12.14-5.058-20.4-3.905a2.043,2.043,0,0,0,.567,4.047c7.244-1.012,13.415.1,17.361,3.116a11.857,11.857,0,0,1,4.613,8.094v2.226a7.972,7.972,0,0,0-7.952,3.581A8.094,8.094,0,0,0,36.871,69.8l5.564,3.541v26.81H12.085a2.023,2.023,0,1,0,0,4.047H42.435v12.14a6.07,6.07,0,1,0,12.14,0v-12.14h9.854l.749,11.25a7.489,7.489,0,0,0,14.933.1l1.437-17.421h.324l1.437,17.442a7.487,7.487,0,0,0,14.933-.121V114.15a2.024,2.024,0,0,0,.85.162h12.14a2.023,2.023,0,1,0,0-4.047H99.09a2.408,2.408,0,0,0-.526,0l.526-6.07H117.3a2.023,2.023,0,0,0,0-4.047ZM106.212,63.363a75.937,75.937,0,0,1,5.018,17.846,4.142,4.142,0,0,1-7.507,3.035L99.9,70.08a2.022,2.022,0,0,0-3.905,1.052L99.9,85.458a.991.991,0,0,0,0,.223,11.634,11.634,0,0,1-3.359,4.35A22.884,22.884,0,0,1,84.4,93.936H79.706a22.8,22.8,0,0,1-12.14-4.047,3.319,3.319,0,0,1-.4-.344,12.14,12.14,0,0,1-4.492-9.631,21.873,21.873,0,0,1,.526-4.472L68.031,71.4A2.023,2.023,0,0,0,65.4,68.32l-7.81,6.637a4.047,4.047,0,0,1-3.015.911V66.276a2.023,2.023,0,0,0,1.214-.465l7.082-6.07a12.141,12.141,0,0,0,2.023,1.437,17.158,17.158,0,0,0,3.379,1.356,1.7,1.7,0,0,0,.546,0,2.042,2.042,0,0,0,.546-4.047,12.545,12.545,0,0,1-2.469-.83c-1.6-.87-2.428-1.821-2.469-2.853a2.752,2.752,0,0,1,1.7-2.408,39.173,39.173,0,0,0,31.322.1,2.671,2.671,0,0,1,1.639,2.246,1.8,1.8,0,0,1-.162.708,7.608,7.608,0,0,1-4.856,3.156,2.043,2.043,0,0,0,.567,4.047,1.821,1.821,0,0,0,.567,0,13.192,13.192,0,0,0,6.5-3.925,9.125,9.125,0,0,1,4.512,4.634Zm2.995-33.608a2.994,2.994,0,0,1,0,.425c-.384,6.353-12.14,11.29-27.316,11.29S54.96,36.533,54.576,30.179a3,3,0,0,1,0-.425c0-6.819,12.606-12.565,27.316-12.565s27.316,5.746,27.316,12.565ZM60.383,54.945a6.07,6.07,0,0,0,.243,1.356l-6.07,5.22V42.744a26.567,26.567,0,0,0,7.689,7.466,6.07,6.07,0,0,0-1.862,4.735Zm36.562-6.758a35.045,35.045,0,0,1-30.067,0,23.228,23.228,0,0,1-8.964-7.81c5.524,3.217,13.921,5.139,23.977,5.139s18.433-1.922,24.018-5.139a23.37,23.37,0,0,1-8.964,7.81ZM81.891,5.049a27.579,27.579,0,0,1,25.09,14.71c-5.665-4.027-14.69-6.616-25.09-6.616s-19.424,2.59-25.09,6.616a27.579,27.579,0,0,1,25.09-14.71ZM39.056,66.337a4.047,4.047,0,0,1-1.174-5.6,3.925,3.925,0,0,1,4.553-1.619v9.409Zm11.473,50a2,2,0,0,1-3.46,1.4,1.882,1.882,0,0,1-.587-1.4V7.072a2,2,0,0,1,3.46-1.4,1.882,1.882,0,0,1,.587,1.4Zm4.047-16.187V79.914h.364a8.094,8.094,0,0,0,3.683-.951v.951a16.187,16.187,0,0,0,5.018,12.14l.526,8.094Zm20.4,17.3a3.48,3.48,0,0,1-2.327.911,3.42,3.42,0,0,1-3.42-3.2L67.889,95.11A28.327,28.327,0,0,0,77.5,97.882L76.064,115.2A3.4,3.4,0,0,1,74.971,117.448Zm15.8.911a3.48,3.48,0,0,1-2.327-.911,3.4,3.4,0,0,1-1.093-2.226l-1.437-17.34a29.5,29.5,0,0,0,9.591-2.549l-1.315,19.829a3.42,3.42,0,0,1-3.42,3.2Z" transform="translate(2.079 -0.998)" fill="#6f6e6d"/>
        <path id="Shape-23" data-name="Shape" d="M33.047,55H31.023a2.023,2.023,0,1,0,0,4.047h2.023a2.023,2.023,0,1,0,0-4.047Z" transform="translate(29.678 54.267)" fill="#6f6e6d"/>
        <path id="Shape-24" data-name="Shape" d="M9.07,55H5.023a2.023,2.023,0,0,0,0,4.047H9.07A2.023,2.023,0,0,0,9.07,55Z" transform="translate(3.07 54.267)" fill="#6f6e6d"/>
        <path id="Shape-25" data-name="Shape" d="M27.21,55H11.023a2.023,2.023,0,1,0,0,4.047H27.21a2.023,2.023,0,1,0,0-4.047Z" transform="translate(9.21 54.267)" fill="#6f6e6d"/>
        <path id="Shape-26" data-name="Shape" d="M50.527,33h-6.07a4.047,4.047,0,0,0-4.047,4.047v4.047a4.047,4.047,0,0,0,4.047,4.047h6.07a4.047,4.047,0,0,0,4.047-4.047V37.047A4.047,4.047,0,0,0,50.527,33Zm0,8.094h-6.07V37.047h6.07Z" transform="translate(41.355 31.752)" fill="#6f6e6d"/>
        <path id="Shape-27" data-name="Shape" d="M38.874,11.283a2.026,2.026,0,1,0,.2,4.047h.2a39.334,39.334,0,0,1,5.868-.283,2.023,2.023,0,0,0,0-4.047C42.941,11,40.836,11.1,38.874,11.283Z" transform="translate(37.813 9.238)" fill="#6f6e6d"/>
        <path id="Shape-28" data-name="Shape" d="M36.393,12.055a13.476,13.476,0,0,0-4.816,2.59,2.032,2.032,0,0,0,2.813,2.934,10.562,10.562,0,0,1,3.318-1.659,2.041,2.041,0,1,0-1.315-3.865Z" transform="translate(31.734 10.206)" fill="#6f6e6d"/>
        <path id="Shape-29" data-name="Shape" d="M8.253,22.047a2.023,2.023,0,1,1,2.023-2.023A2.023,2.023,0,0,1,8.253,22.047Z" transform="translate(6.376 16.402)" fill="#6f6e6d"/>
      </g>
    </g>
  </g>
  <g id="Group_1885" data-name="Group 1885" transform="translate(7.82)">
    <path id="Path_7326" data-name="Path 7326" d="M427.068,380.651a2.059,2.059,0,0,1-1.457-3.515l4.119-4.119a2.059,2.059,0,1,1,2.912,2.912l-4.119,4.119A2.054,2.054,0,0,1,427.068,380.651Z" transform="translate(-279.978 -222.002)" fill="#ec631e"/>
    <g id="Group_1405" data-name="Group 1405" transform="translate(65.988)">
      <path id="Path_7327" data-name="Path 7327" d="M243.4,15.475a2.054,2.054,0,0,1-1.456-.6l-2.662-2.662-2.662,2.662a2.059,2.059,0,0,1-2.912-2.912l4.119-4.119a2.06,2.06,0,0,1,2.912,0l4.119,4.119a2.059,2.059,0,0,1-1.456,3.515Z" transform="translate(-233.105 -7.238)" fill="#f6b696"/>
    </g>
    <g id="Group_1406" data-name="Group 1406" transform="translate(138.853 51.882)">
      <path id="Path_7328" data-name="Path 7328" d="M420.306,141.437a2.054,2.054,0,0,1-1.456-.6l-2.662-2.662-2.662,2.662a2.059,2.059,0,0,1-2.912-2.912l4.119-4.119a2.06,2.06,0,0,1,2.912,0l4.119,4.119a2.059,2.059,0,0,1-1.456,3.515Z" transform="translate(-410.009 -133.2)" fill="#f6b696"/>
    </g>
    <g id="Group_1407" data-name="Group 1407" transform="translate(3.135 142.849)">
      <path id="Path_7329" data-name="Path 7329" d="M90.566,362.29a2.054,2.054,0,0,1-1.456-.6l-2.662-2.662-2.424,2.424a2.059,2.059,0,0,1-2.912-2.912l3.88-3.88a2.06,2.06,0,0,1,2.912,0l4.119,4.119a2.059,2.059,0,0,1-1.456,3.515Z" transform="translate(-80.508 -354.053)" fill="#ec631e"/>
    </g>
    <g id="Group_1472" data-name="Group 1472" transform="translate(147.09 78.883)">
      <path id="Path_7328-2" data-name="Path 7328" d="M420.306,141.437a2.054,2.054,0,0,1-1.456-.6l-2.662-2.662-2.662,2.662a2.059,2.059,0,0,1-2.912-2.912l4.119-4.119a2.06,2.06,0,0,1,2.912,0l4.119,4.119a2.059,2.059,0,0,1-1.456,3.515Z" transform="translate(-410.009 -133.2)" fill="#f6b696"/>
    </g>
  </g>
  <path id="Path_7164" data-name="Path 7164" d="M1077.292,2811.634a5.477,5.477,0,1,1,3.875-1.6A5.462,5.462,0,0,1,1077.292,2811.634Zm0-7.177a1.7,1.7,0,1,0,1.2.5A1.695,1.695,0,0,0,1077.292,2804.457Z" transform="translate(-1071.815 -2726.832)" fill="#f6b696" opacity="0.66" style="isolation: isolate"/>
  <path id="Path_7128" data-name="Path 7128" d="M1490.957,2740.292a1.033,1.033,0,0,1-.73-1.763l2.065-2.066a1.033,1.033,0,0,1,1.461,1.46l-2.066,2.066A1.027,1.027,0,0,1,1490.957,2740.292Z" transform="translate(-1465.091 -2700.521)" fill="#f9b27d"/>
  <path id="Path_7127" data-name="Path 7127" d="M1514.189,3052.5a1.033,1.033,0,0,1-.73-1.763l2.065-2.065a1.033,1.033,0,0,1,1.461,1.46l-2.066,2.066A1.031,1.031,0,0,1,1514.189,3052.5Z" transform="translate(-1365.661 -2921.979)" fill="#ee7b21"/>
</svg>
