<svg id="Illus_25" data-name="Illus 25" xmlns="http://www.w3.org/2000/svg" xmlns:xlink="http://www.w3.org/1999/xlink" width="191.69" height="203.352" viewBox="0 0 191.69 203.352">
  <defs>
    <linearGradient id="linear-gradient" x1="0.769" y1="-0.017" x2="0.769" y2="1.016" gradientUnits="objectBoundingBox">
      <stop offset="0" stop-color="#f6b696" stop-opacity="0.4"/>
      <stop offset="1" stop-color="#f6b696" stop-opacity="0"/>
      <stop offset="1" stop-color="#f6b696"/>
    </linearGradient>
  </defs>
  <path id="Path_7294" data-name="Path 7294" d="M230.889,61.917A48.307,48.307,0,0,0,217.3,54.8c-13.26-4.571-23.685-12.754-29.544-22.9C176.911,13.128,152.277.017,123.614,0c-37.531-.022-68.692,22.752-70.1,51.3C52.9,63.52,57.7,74.867,66.224,84.069,77.05,95.758,79.863,110.647,74.279,124.3c-7.933,19.4-5.167,37.786,9.925,49.274,26.447,20.132,80.723,11.456,121.229-19.378s51.9-72.15,25.456-92.282Z" transform="translate(-53.458 18.922)" opacity="0.4" fill="url(#linear-gradient)"/>
  <g id="Group_1885" data-name="Group 1885" transform="translate(10686.845 -12253.145)">
    <path id="Path_7325" data-name="Path 7325" d="M128.093,221.192a2.366,2.366,0,0,1-1.673-4.039l4.732-4.732a2.366,2.366,0,0,1,3.346,3.346l-4.732,4.732A2.36,2.36,0,0,1,128.093,221.192Z" transform="translate(-10810.394 12138.184)" fill="#ec631e"/>
    <path id="Path_7326" data-name="Path 7326" d="M427.375,381.878a2.366,2.366,0,0,1-1.673-4.039l4.732-4.732a2.366,2.366,0,0,1,3.346,3.346l-4.732,4.732A2.36,2.36,0,0,1,427.375,381.878Z" transform="translate(-10943.053 12053.536)" fill="#ec631e"/>
    <g id="Group_1405" data-name="Group 1405" transform="translate(-10608.854 12253.145)">
      <path id="Path_7327" data-name="Path 7327" d="M244.935,16.7a2.36,2.36,0,0,1-1.673-.693L240.2,12.95l-3.059,3.059a2.366,2.366,0,0,1-3.346-3.346l4.732-4.732a2.367,2.367,0,0,1,3.346,0l4.732,4.732a2.366,2.366,0,0,1-1.673,4.039Z" transform="translate(-233.105 -7.238)" fill="#f6b696"/>
    </g>
    <g id="Group_1406" data-name="Group 1406" transform="translate(-10525.142 12312.751)">
      <path id="Path_7328" data-name="Path 7328" d="M421.839,142.664a2.36,2.36,0,0,1-1.673-.693l-3.059-3.059-3.059,3.059a2.366,2.366,0,0,1-3.346-3.346l4.732-4.732a2.367,2.367,0,0,1,3.346,0l4.732,4.732a2.366,2.366,0,0,1-1.673,4.039Z" transform="translate(-410.009 -133.2)" fill="#e8ba8f"/>
    </g>
    <g id="Group_1407" data-name="Group 1407" transform="translate(-10681.065 12417.261)">
      <path id="Path_7329" data-name="Path 7329" d="M92.064,363.516a2.36,2.36,0,0,1-1.673-.693l-3.059-3.059-2.784,2.784A2.366,2.366,0,0,1,81.2,359.2l4.457-4.457a2.366,2.366,0,0,1,3.346,0l4.732,4.732a2.365,2.365,0,0,1-1.673,4.038Z" transform="translate(-80.508 -354.053)" fill="#ec631e"/>
    </g>
    <g id="Group_1472" data-name="Group 1472" transform="translate(-10525.142 12312.752)">
      <path id="Path_7328-2" data-name="Path 7328" d="M421.839,142.664a2.36,2.36,0,0,1-1.673-.693l-3.059-3.059-3.059,3.059a2.366,2.366,0,0,1-3.346-3.346l4.732-4.732a2.367,2.367,0,0,1,3.346,0l4.732,4.732a2.366,2.366,0,0,1-1.673,4.039Z" transform="translate(-410.009 -133.2)" fill="#f6b696"/>
    </g>
  </g>
  <g id="Group_1884" data-name="Group 1884" transform="translate(10462.845 -12246.145)">
    <path id="Path_8201" data-name="Path 8201" d="M31.549,0A31.549,31.549,0,1,1,0,31.549,31.549,31.549,0,0,1,31.549,0Z" transform="matrix(0.16, -0.987, 0.987, 0.16, -10387.727, 12344.733)" fill="#da8b6f" opacity="0.1"/>
    <g id="Group_1883" data-name="Group 1883" transform="translate(-10528.918 11719.682)">
      <g id="save-money" transform="translate(91.499 545.385)">
        <path id="Trazado_7814" data-name="Trazado 7814" d="M185.9,631.943c45.5,0,52.844,57.381,21.977,75.852l-2.469,14.258a6.33,6.33,0,0,1-6.24,5.25H183.028a6.325,6.325,0,0,1-6.253-5.358l-.971-6.265a2.639,2.639,0,0,0-2.608-2.234H155.823a2.639,2.639,0,0,0-2.608,2.234l-.971,6.265a6.329,6.329,0,0,1-6.256,5.358H129.719a6.332,6.332,0,0,1-6.24-5.24L121.1,708.411a2.616,2.616,0,0,0-1.1-1.712,38.528,38.528,0,0,1-15.245-21.961h-4.176a5.279,5.279,0,0,1-5.279-5.279h0V667.909a5.279,5.279,0,0,1,5.279-5.279h3.89a41.093,41.093,0,0,1,7.939-16.531q-.837-4.424-2.056-8.8a5.276,5.276,0,0,1,7.108-6.3,19.848,19.848,0,0,1,7.241,5.244,43.553,43.553,0,0,1,19.563-4.293Z" transform="translate(-92.667 -571.517)" fill="#fff"/>
        <path id="Trazado_7815" data-name="Trazado 7815" d="M133.495,713.4c.605,3.428,1.04,5.944,1.362,7.807a5.21,5.21,0,0,1-5.137,6.093,6.332,6.332,0,0,1-6.24-5.24L121.1,708.411a2.616,2.616,0,0,0-1.1-1.712,38.528,38.528,0,0,1-15.245-21.961h-4.176a5.279,5.279,0,0,1-5.279-5.279h0V667.909a5.279,5.279,0,0,1,5.279-5.279h3.89a41.093,41.093,0,0,1,7.939-16.531q-.837-4.424-2.056-8.8a5.276,5.276,0,0,1,7.108-6.3c4.945,2.093,8.047,17.355,5.338,21.606-9.814,15.4-8.787,44.668,8.656,57.519a5.209,5.209,0,0,1,2.033,3.285Z" transform="translate(-92.667 -571.517)" fill="#f6b696"/>
        <path id="Trazado_7816" data-name="Trazado 7816" d="M205.958,632.6a1.941,1.941,0,0,1-.115,3.878c-6.685.028-16.617.039-32.175,0a44.279,44.279,0,0,0-17.432,3.315c-4.779,2.016-7.141-6.021-1.947-6.773,6.025-.872,7.338-.425,48.8-.5Q204.549,632.52,205.958,632.6Z" transform="translate(-109.857 -572.096)" fill="#fff"/>
        <path id="Elipse_774" data-name="Elipse 774" d="M26.727,0A26.727,26.727,0,1,1,0,26.727,26.727,26.727,0,0,1,26.727,0Z" transform="translate(52.464 24.46)" fill="#ec631e"/>
        <circle id="Elipse_775" data-name="Elipse 775" cx="14.518" cy="14.518" r="14.518" transform="translate(64.672 36.669)" fill="#ec631e"/>
        <path id="Trazado_7817" data-name="Trazado 7817" d="M176.051,621.515a2.01,2.01,0,0,1-3.444,2.04,26.73,26.73,0,0,1,21.436-42.89,2.011,2.011,0,0,1,.458,3.97,26.76,26.76,0,0,0-18.45,36.88Z" transform="translate(-114.707 -556.205)" fill="#ec631e"/>
        <path id="Trazado_7819" data-name="Trazado 7819" d="M222.435,759.143a3.873,3.873,0,0,1-3.755,4.816,6.325,6.325,0,0,1-6.253-5.358l-.847-5.455a2.639,2.639,0,0,1,2.2-3.014,2.56,2.56,0,0,1,.406-.032h4.556a2.639,2.639,0,0,1,2.608,2.234S222.392,758.967,222.435,759.143Z" transform="translate(-128.32 -608.173)" fill="#fff"/>
        <g id="Grupo_1882" data-name="Grupo 1882">
          <path id="Trazado_7820" data-name="Trazado 7820" d="M137.709,670.021v-2.969a2.64,2.64,0,0,0-5.279-.085q0,.043,0,.085v2.969a2.64,2.64,0,1,0,5.279.086Z" transform="translate(-104.053 -581.879)" fill="#6f6e6d"/>
          <path id="Trazado_7821" data-name="Trazado 7821" d="M124.585,705.39a2.639,2.639,0,0,0,3.238,1.857h0A19.381,19.381,0,0,0,141.1,694.886a2.64,2.64,0,0,0-4.985-1.737,14.1,14.1,0,0,1-9.671,9,2.639,2.639,0,0,0-1.856,3.238Z" transform="translate(-101.619 -590.174)" fill="#6f6e6d"/>
          <path id="Trazado_7822" data-name="Trazado 7822" d="M143.834,618.1a29.359,29.359,0,1,0-1.226-20.487,2.64,2.64,0,1,0,5.048,1.546,24.086,24.086,0,1,1,.425,15.391,2.654,2.654,0,0,0-2.476-1.728h-2.5a46.978,46.978,0,0,0-18.961,3.74,22.366,22.366,0,0,0-6.809-4.485,7.917,7.917,0,0,0-10.681,9.443c.676,2.427,1.271,4.919,1.774,7.418a43.89,43.89,0,0,0-7.162,14.569H99.418a7.928,7.928,0,0,0-7.919,7.922v11.549a7.927,7.927,0,0,0,7.919,7.919h2.208a41.073,41.073,0,0,0,15.708,21.492l2.382,13.647a8.953,8.953,0,0,0,8.836,7.427h16.265a8.924,8.924,0,0,0,8.86-7.594l.971-6.265h17.372l.971,6.265a8.922,8.922,0,0,0,8.863,7.593h16.14a8.951,8.951,0,0,0,8.838-7.438l2.268-13.09c10.469-6.73,17.279-18.322,18.675-31.636,2.407,1.167,5.021,1.762,7.483.661,3.224-1.441,4.2-4.859,5.055-7.874.6-2.107,1.22-4.286,2.366-4.745a2.64,2.64,0,0,0,1.469-3.432h0a2.64,2.64,0,0,0-3.432-1.469h0c-3.552,1.422-4.621,5.181-5.481,8.2-.542,1.905-1.156,4.063-2.132,4.5-.362.162-1.733.46-5.065-1.782-.232-14.292-6.631-27.172-17.442-34.845a2.64,2.64,0,1,0-3.131,4.252c.025.019.05.036.076.053,21.188,15.037,20.105,50.887-2.194,64.233a2.639,2.639,0,0,0-1.248,1.814l-2.471,14.257a3.682,3.682,0,0,1-3.636,3.06h-16.14a3.674,3.674,0,0,1-3.647-3.124l-1.317-8.5a2.639,2.639,0,0,0-2.608-2.234H152.39a2.639,2.639,0,0,0-2.608,2.234l-1.317,8.5a3.674,3.674,0,0,1-3.647,3.124H128.551a3.683,3.683,0,0,1-3.635-3.055l-2.578-14.767a2.641,2.641,0,0,0-1.179-1.769,35.925,35.925,0,0,1-15.021-21.029,2.64,2.64,0,0,0-2.546-1.945H99.418a2.642,2.642,0,0,1-2.64-2.64V651.426a2.643,2.643,0,0,1,2.64-2.64h3.891a2.641,2.641,0,0,0,2.571-2.042,38.642,38.642,0,0,1,7.418-15.471,2.641,2.641,0,0,0,.54-2.149c-.575-3.038-1.283-6.073-2.1-9.022a2.634,2.634,0,0,1,3.536-3.167,17.127,17.127,0,0,1,6.278,4.551,2.639,2.639,0,0,0,3.163.631c6.123-3.038,12.34-4.021,19.121-4.021" transform="translate(-91.499 -555.033)" fill="#6f6e6d"/>
          <path id="Trazado_7824" data-name="Trazado 7824" d="M171.736,672.046a2.64,2.64,0,0,0,0,5.279h45.535a2.64,2.64,0,0,0,0-5.279Z" transform="translate(-115.312 -584.233)" fill="#6f6e6d"/>
          <path id="Trazado_7825" data-name="Trazado 7825" d="M166.006,572.522a2.64,2.64,0,0,0,2.64-2.64V548.1a2.64,2.64,0,0,0-5.279,0v21.778a2.639,2.639,0,0,0,2.639,2.639Z" transform="translate(-113.542 -545.422)" fill="#6f6e6d"/>
          <path id="Trazado_7826" data-name="Trazado 7826" d="M191.707,566.2a2.64,2.64,0,0,0,2.64-2.64v-6.929a2.64,2.64,0,0,0-5.279-.085q0,.043,0,.085v6.927a2.638,2.638,0,0,0,2.637,2.641Z" transform="translate(-121.424 -548.012)" fill="#6f6e6d"/>
          <path id="Trazado_7827" data-name="Trazado 7827" d="M243.108,572.484a2.64,2.64,0,0,0,2.639-2.64V548.067a2.64,2.64,0,0,0-5.279-.086c0,.029,0,.058,0,.086v21.778a2.639,2.639,0,0,0,2.639,2.639Z" transform="translate(-137.189 -545.385)" fill="#6f6e6d"/>
          <path id="Trazado_7828" data-name="Trazado 7828" d="M217.407,564.743a2.64,2.64,0,0,0,2.639-2.64V551.875a2.64,2.64,0,0,0-5.279-.086c0,.029,0,.058,0,.086V562.1a2.639,2.639,0,0,0,2.639,2.639Z" transform="translate(-129.307 -546.552)" fill="#6f6e6d"/>
        </g>
      </g>
      <path id="Trazado_7813" data-name="Trazado 7813" d="M202.526,605.652a3.333,3.333,0,0,1,3.329,3.328,1.169,1.169,0,1,0,2.338,0,5.675,5.675,0,0,0-4.5-5.544v-1.425a1.169,1.169,0,0,0-2.338,0v1.425a5.667,5.667,0,0,0,1.169,11.211,3.328,3.328,0,0,1,.072,6.656h-.1a3.332,3.332,0,0,1-3.3-3.327,1.169,1.169,0,1,0-2.338,0,5.676,5.676,0,0,0,4.5,5.545v1.629a1.169,1.169,0,0,0,2.338,0v-1.629a5.667,5.667,0,0,0-1.169-11.212,3.328,3.328,0,0,1,0-6.657Z" transform="translate(-32.315 -17.01)" fill="#fff"/>
    </g>
  </g>
</svg>
